<?xml version="1.0" standalone="no"?>
<!DOCTYPE svg PUBLIC "-//W3C//DTD SVG 1.1//EN" "http://www.w3.org/Graphics/SVG/1.1/DTD/svg11.dtd" >
<svg xmlns="http://www.w3.org/2000/svg" xmlns:xlink="http://www.w3.org/1999/xlink" version="1.1">
<metadata></metadata>
<defs>
<font id="deria_sanslight" horiz-adv-x="1261" >
<font-face units-per-em="2048" ascent="1638" descent="-410" />
<missing-glyph horiz-adv-x="450" />
<glyph horiz-adv-x="0" />
<glyph horiz-adv-x="682" />
<glyph unicode=" "  horiz-adv-x="450" />
<glyph unicode="&#x09;" horiz-adv-x="450" />
<glyph unicode="&#xa0;" horiz-adv-x="450" />
<glyph unicode="!" horiz-adv-x="516" d="M199 59q0 27 16.5 44.5t42.5 17.5t43.5 -18t17.5 -44t-17.5 -42.5t-43.5 -16.5t-42.5 16.5t-16.5 42.5zM199 297v1067h118v-1067h-118z" />
<glyph unicode="&#x22;" horiz-adv-x="724" d="M154 930v469h104v-469h-104zM428 930v469h104v-469h-104z" />
<glyph unicode="#" horiz-adv-x="1325" d="M66 373l10 112h182l35 398h-182l10 112h182l33 369h113l-33 -369h428l33 369h112l-33 -369h207l-10 -112h-207l-35 -398h207l-10 -112h-207l-33 -373h-112l32 373h-428l-32 -373h-113l33 373h-182zM371 485h428l35 398h-428z" />
<glyph unicode="$" horiz-adv-x="960" d="M78 991q0 65 10.5 119.5t37 104.5t68.5 85.5t109 57.5t154 26v125h116v-127q197 -8 316 -28v-119q-20 3 -75.5 10.5t-70 9t-55 6t-65.5 5.5t-64.5 2.5t-85.5 1.5q-60 0 -106.5 -13.5t-84.5 -44.5t-58.5 -87t-20.5 -136q3 -127 63 -182t207 -55h74q86 0 154 -23.5 t111.5 -61.5t72 -90t40 -105t11.5 -110q0 -49 -9.5 -95.5t-35.5 -97t-65 -89t-104.5 -65.5t-148.5 -33v-127h-116v129q-230 8 -375 26v115q205 -34 455 -31q74 1 129.5 24t85.5 61t44.5 81.5t14.5 91.5q0 283 -270 283h-74q-97 0 -168.5 21t-113 54t-66.5 82t-33 95.5 t-8 103.5z" />
<glyph unicode="%" horiz-adv-x="1781" d="M88 854v231q0 132 76.5 214t236.5 85h45q160 -3 237 -85t77 -214v-231q0 -133 -77 -214.5t-237 -84.5h-45q-160 3 -236.5 84.5t-76.5 214.5zM193 836q0 -177 198 -189h68q198 12 198 189v260q0 89 -51 137.5t-147 54.5h-68q-96 -6 -147 -54.5t-51 -137.5v-260zM608 0 l424 1364h103l-426 -1364h-101zM991 299v231q0 132 77 214t237 85h45q160 -3 236.5 -85t76.5 -214v-231q0 -133 -76.5 -214.5t-236.5 -84.5h-45q-160 3 -237 84.5t-77 214.5zM1096 281q0 -177 198 -189h68q199 13 199 189v260q0 88 -51.5 137t-147.5 55h-68 q-96 -6 -147 -54.5t-51 -137.5v-260z" />
<glyph unicode="&#x26;" horiz-adv-x="1216" d="M100 340v31q0 121 52.5 211t162.5 131q-118 98 -118 291v26q0 79 22 144.5t67.5 117t122.5 81.5t179 32h47q102 -2 179 -32t122.5 -81.5t67.5 -117t22 -144.5v-26q0 -133 -61 -227.5t-189 -129.5q107 -98 107 -276v-68h-115v72q0 219 -207 254q-33 4 -78 6 q-129 6 -198.5 -63.5t-69.5 -196.5v-43q0 -250 268 -256h234q268 6 268 256v186h115v-178q0 -166 -95.5 -268.5t-295.5 -106.5h-222q-102 2 -178.5 31.5t-121 81t-66 117t-21.5 145.5zM311 995q0 -76 27 -130.5t74.5 -82.5t105 -38.5t125.5 -4.5q268 6 268 256v39 q0 124 -68.5 190.5t-199.5 69.5h-63q-131 -3 -200 -69.5t-69 -190.5v-39z" />
<glyph unicode="'" horiz-adv-x="411" d="M154 932v465h104v-465h-104z" />
<glyph unicode="(" horiz-adv-x="616" d="M154 623q0 456 274 876h125q-160 -255 -221.5 -452t-61.5 -424q0 -229 62 -426.5t223 -452.5l-6 -4h-117q-140 214 -209 429.5t-69 453.5z" />
<glyph unicode=")" horiz-adv-x="616" d="M61 -256q161 255 223 452.5t62 426.5q0 227 -62 424t-223 452h127q275 -426 275 -876q0 -238 -69.5 -453.5t-209.5 -429.5h-116z" />
<glyph unicode="*" horiz-adv-x="976" d="M139 909l236 135l-236 138l47 82l238 -138v275h94v-275l238 138l47 -82l-238 -138l238 -135l-47 -82l-238 138v-275h-94v275l-238 -138z" />
<glyph unicode="+" horiz-adv-x="1097" d="M133 444v107h359v364h114v-364h359v-107h-359v-364h-114v364h-359z" />
<glyph unicode="," horiz-adv-x="415" d="M143 63q0 26 19 45t45 19t44.5 -19t18.5 -45q0 -59 -43 -157h-51l25 94q-25 1 -41.5 19.5t-16.5 43.5z" />
<glyph unicode="-" horiz-adv-x="741" d="M133 524v101h475v-101h-475z" />
<glyph unicode="." horiz-adv-x="415" d="M137 63q0 26 19 45t45 19t44.5 -19t18.5 -45t-18.5 -44.5t-44.5 -18.5t-45 18.5t-19 44.5z" />
<glyph unicode="/" horiz-adv-x="901" d="M207 0l422 1362h121l-424 -1362h-119z" />
<glyph unicode="0" horiz-adv-x="1146" d="M135 377v610q0 79 22 144.5t67.5 117t122.5 81.5t179 32h95q102 -2 179 -32t122.5 -81.5t67.5 -117t22 -144.5v-610q0 -166 -95.5 -268.5t-295.5 -106.5h-99q-102 2 -178.5 31.5t-121 81t-66 117t-21.5 145.5zM250 369q0 -250 268 -256h111q268 6 268 256v622 q0 124 -68.5 190.5t-199.5 69.5h-111q-131 -3 -199.5 -69.5t-68.5 -190.5v-622z" />
<glyph unicode="1" horiz-adv-x="610" d="M164 1112v133l158 90h106v-1335h-119v1194z" />
<glyph unicode="2" horiz-adv-x="1024" d="M90 0v309q1 89 18 153.5t60 120t125.5 84.5t204.5 29q152 0 224 53t75 175q0 89 -22.5 151t-64 93.5t-89 44t-109.5 12.5q-150 0 -365 -64v113q190 61 371 61q402 0 393 -409q-2 -83 -25.5 -144t-75.5 -106t-139 -67.5t-210 -22.5q-75 0 -127.5 -21.5t-80.5 -62.5 t-39.5 -90t-10.5 -113v-193h737v-106h-850z" />
<glyph unicode="3" horiz-adv-x="1003" d="M109 49v111q222 -66 352 -66q55 0 98.5 6t85.5 23.5t70 45.5t46.5 75.5t20.5 111.5q0 129 -49.5 191.5t-175.5 62.5h-358v103h362q68 0 111 16t65 50.5t29.5 73.5t9.5 101q-2 58 -15.5 103.5t-30.5 74.5t-45 49.5t-50 30.5t-55.5 15.5t-51.5 6.5t-47 1q-138 0 -372 -66 v111q190 61 358 61q118 0 202.5 -28t133.5 -82t71.5 -124t22.5 -163q0 -192 -115 -280q121 -93 121 -299q0 -80 -22 -144.5t-70 -118.5t-135.5 -84t-208.5 -30q-168 0 -358 61z" />
<glyph unicode="4" horiz-adv-x="1136" d="M102 186v127l600 1028h160v-1052h111v-103h-111v-184h-119v184h-641zM211 289h532v897z" />
<glyph unicode="5" horiz-adv-x="1013" d="M164 29v102q165 -33 313 -33q153 0 219 58.5t66 173.5v86q0 111 -47 163.5t-172 59.5l-126 3.5t-102.5 -3t-119.5 -4.5v700h655v-106h-537v-479q150 7 250 0q318 -22 318 -318v-110q0 -68 -21.5 -125.5t-67 -104.5t-126 -73.5t-189.5 -26.5q-176 0 -313 37z" />
<glyph unicode="6" horiz-adv-x="1060" d="M164 315v562q0 111 17 187.5t58.5 134t111 89t173.5 43.5q82 8 181 -4.5t165 -46.5v-104q-151 70 -354 45q-73 -11 -118.5 -35t-71 -68.5t-34.5 -100.5t-9 -143v-190q51 21 137 37t155 16q196 0 274.5 -78.5t78.5 -240.5v-103q0 -161 -87 -243t-290 -82 q-204 0 -295.5 82.5t-91.5 242.5zM283 311q0 -120 67.5 -167.5t200.5 -47.5q144 0 201 48.5t57 166.5v113q0 75 -19 118t-71.5 66t-147.5 23q-140 0 -288 -62v-258z" />
<glyph unicode="7" horiz-adv-x="899" d="M61 1223v106h766v-100l-577 -1229h-121l578 1223h-646z" />
<glyph unicode="8" horiz-adv-x="1155" d="M139 356q0 213 162 306q-162 93 -162 309q0 78 22 142t67.5 114.5t122.5 80t179 31.5h27q102 -2 179 -31.5t122.5 -80t67.5 -114.5t22 -142q0 -213 -164 -307q164 -94 164 -308v4q0 -163 -95.5 -263.5t-295.5 -104.5h-31q-102 2 -178.5 31t-121 79.5t-66 114.5t-21.5 143 v-4zM254 352q0 -250 268 -250h43q269 6 269 250v8q0 118 -69.5 183t-199.5 65h-43q-130 0 -199 -65t-69 -183v-8zM254 967q0 -124 68 -186t200 -62h43q132 0 200.5 62.5t68.5 185.5v8q0 122 -69.5 188t-199.5 66h-43q-130 0 -199 -66t-69 -188v-8z" />
<glyph unicode="9" horiz-adv-x="1050" d="M135 918v94q0 161 87 243t290 82q204 0 295.5 -82.5t91.5 -242.5v-561q0 -148 -31.5 -239.5t-111 -146t-217.5 -69.5q-82 -8 -181 4.5t-165 46.5v105q153 -71 354 -46q73 11 118.5 35t71 68.5t34.5 100.5t9 143v198q-51 -21 -137.5 -37t-155.5 -16q-100 0 -169.5 20.5 t-109 63t-56.5 99.5t-17 137zM254 911q0 -75 19 -118t71.5 -65.5t147.5 -22.5q142 0 288 61v250q0 120 -67.5 167.5t-200.5 47.5q-144 0 -201 -48.5t-57 -166.5v-105z" />
<glyph unicode=":" horiz-adv-x="411" d="M141 63q0 26 19 45t45 19t44.5 -19t18.5 -45t-18.5 -44.5t-44.5 -18.5t-45 18.5t-19 44.5zM141 717q0 26 19 44.5t45 18.5t44.5 -18.5t18.5 -44.5t-18.5 -45t-44.5 -19t-45 19t-19 45z" />
<glyph unicode=";" horiz-adv-x="446" d="M141 717q0 26 19 44.5t45 18.5t44.5 -18.5t18.5 -44.5t-18.5 -45t-44.5 -19t-45 19t-19 45zM143 63q0 26 19 45t45 19t44.5 -19t18.5 -45q0 -59 -43 -157h-51l25 94q-25 1 -41.5 19.5t-16.5 43.5z" />
<glyph unicode="&#x3c;" horiz-adv-x="1126" d="M102 475v86l816 475v-116l-697 -402l697 -403v-115z" />
<glyph unicode="=" horiz-adv-x="1042" d="M164 281v96h715v-96h-715zM164 633v96h715v-96h-715z" />
<glyph unicode="&#x3e;" horiz-adv-x="1126" d="M211 -2v115l694 401l-694 401v115l813 -473v-86z" />
<glyph unicode="?" horiz-adv-x="937" d="M100 1157v113q190 61 371 61q402 0 393 -409q-2 -83 -25.5 -144t-75.5 -106t-139 -67.5t-210 -22.5h-66v-316h-117v426h220q152 0 224 53t75 175q0 90 -22.5 151.5t-64 93t-89 44t-109.5 12.5q-150 0 -365 -64zM225 63q0 26 19 45t45 19t44.5 -19t18.5 -45t-18.5 -44.5 t-44.5 -18.5t-45 18.5t-19 44.5z" />
<glyph unicode="@" horiz-adv-x="1794" d="M158 211v788q0 119 81 213t210.5 142t286.5 71t314 0t286.5 -71t210.5 -142t81 -213v-600q-1 -69 -26.5 -118.5t-65.5 -73t-87 -31t-93 2t-82 32.5q-33 -10 -73 -20.5t-105.5 -25t-127.5 -20.5t-132 -8t-128 13t-106 42t-75 79t-27 124v424q0 64 22.5 112.5t59 77t89 45 t107 21t117.5 1t117 -11.5t109.5 -20t89.5 -21.5t63 -18.5v-682q21 -12 42 -21t49.5 -18t52.5 -7t45.5 11.5t35 38.5t14.5 73v605q0 78 -53.5 142t-140.5 103t-198.5 60.5t-228 22t-228 -21t-198.5 -60.5t-140.5 -103t-53.5 -143v-801q4 -87 75 -155t182 -104t242 -50.5 t264.5 0t238.5 53.5v-113q-108 -35 -234 -48t-249 -4.5t-238 41t-202.5 84t-140 130.5t-52.5 174zM618 385q0 -56 44.5 -88.5t111 -39.5t143 -1.5t140 19t102.5 28.5v608q-39 15 -102.5 28.5t-140 19t-143 -1.5t-111 -39.5t-44.5 -88.5v-444z" />
<glyph unicode="A" horiz-adv-x="1206" d="M141 2v985q0 80 21.5 145.5t66 117t121 81t178.5 31.5h136q200 -4 295.5 -106.5t95.5 -268.5v-985h-115v631h-684v-631h-115zM256 737h684v258q0 250 -268 256h-148q-268 -6 -268 -256v-258z" />
<glyph unicode="B" horiz-adv-x="1144" d="M184 0v1364h512q140 0 216.5 -67.5t76.5 -200.5v-164q0 -83 -36.5 -137t-118.5 -84q84 -11 141 -78t57 -176v-178q0 -136 -87 -207.5t-226 -71.5h-535zM305 106h416q95 0 142.5 45t47.5 128v174q0 90 -55.5 141t-169.5 51h-381v-539zM305 752h352q108 0 159.5 50 t51.5 136v174q0 145 -170 145h-393v-505z" />
<glyph unicode="C" horiz-adv-x="1046" d="M154 375v614q0 197 106 296t346 99q156 0 312 -28v-107q-155 27 -302 27q-187 0 -264.5 -65t-77.5 -224v-610q0 -159 77.5 -224t264.5 -65q147 0 302 27v-109q-162 -26 -312 -26q-240 0 -346 99t-106 296z" />
<glyph unicode="D" horiz-adv-x="1208" d="M184 0v1364h451q121 0 206 -29.5t132 -86t67.5 -126.5t20.5 -161v-558q0 -91 -20.5 -161t-67.5 -126.5t-132 -86t-206 -29.5h-451zM305 109h332q167 0 235 68.5t68 219.5v570q0 151 -68 219.5t-235 68.5h-332v-1146z" />
<glyph unicode="E" horiz-adv-x="1097" d="M184 0v1364h768v-109h-647v-505h602v-109h-602v-532h649v-109h-770z" />
<glyph unicode="F" horiz-adv-x="1046" d="M184 0v1364h777v-109h-656v-526h610v-108h-610v-621h-121z" />
<glyph unicode="G" horiz-adv-x="1169" d="M154 377v610q0 199 105 298t347 99q172 0 328 -28v-107q-204 27 -326 27q-188 0 -261 -66t-73 -225v-606q0 -157 69 -224t255 -67q157 0 287 31v502h-275v118h396v-702q-196 -57 -416 -57q-123 0 -208 25.5t-135 78t-71.5 123.5t-21.5 170z" />
<glyph unicode="H" horiz-adv-x="1269" d="M184 0v1364h121v-608h660v608h120v-1364h-120v647h-660v-647h-121z" />
<glyph unicode="I" horiz-adv-x="509" d="M195 0v1364h120v-1364h-120z" />
<glyph unicode="J" horiz-adv-x="866" d="M82 2v111h367q83 0 115 34t32 117v985h-393v115l512 -2v-1124q0 -120 -68 -180t-190 -60z" />
<glyph unicode="K" horiz-adv-x="1128" d="M184 0v1364h121v-655l574 655h149l-590 -670l629 -694h-152l-610 680v-680h-121z" />
<glyph unicode="L" horiz-adv-x="1011" d="M184 0v1364h121v-1255h615v-109h-736z" />
<glyph unicode="M" horiz-adv-x="1560" d="M166 0l2 1364h186l424 -1274l422 1274h182l2 -1364h-116v1235l-398 -1219h-186l-397 1219v-1235h-121z" />
<glyph unicode="N" horiz-adv-x="1306" d="M184 0v1364h176l648 -1247v1247h114v-1364h-176l-647 1245v-1245h-115z" />
<glyph unicode="O" d="M141 377v610q0 79 22 144.5t67.5 117t122.5 81.5t179 32h197q102 -2 179 -32t122.5 -81.5t67.5 -117t22 -144.5v-610q0 -166 -95.5 -268.5t-295.5 -106.5h-201q-102 2 -178.5 31.5t-121 81t-66 117t-21.5 145.5zM256 369q0 -250 268 -256h213q269 6 269 256v622 q0 124 -69 190.5t-200 69.5h-213q-131 -3 -199.5 -69.5t-68.5 -190.5v-622z" />
<glyph unicode="P" horiz-adv-x="1114" d="M184 0v1364h463q375 0 375 -315v-213q0 -316 -375 -316h-342v-520h-121zM305 629h344q131 0 191.5 48t60.5 159v213q0 111 -60.5 158.5t-191.5 47.5h-344v-626z" />
<glyph unicode="Q" d="M141 377v610q0 79 22 144.5t67.5 117t122.5 81.5t179 32h197q102 -2 179 -32t122.5 -81.5t67.5 -117t22 -144.5v-610q0 -136 -61 -225l119 -117l-84 -84l-117 119q-94 -65 -248 -68h-201q-102 2 -178.5 31.5t-121 81t-66 117t-21.5 145.5zM256 369q0 -250 268 -256h213 q269 6 269 256v622q0 124 -69 190.5t-200 69.5h-213q-131 -3 -199.5 -69.5t-68.5 -190.5v-622z" />
<glyph unicode="R" horiz-adv-x="1267" d="M184 0v1364h484q374 0 374 -315v-209q0 -245 -221 -299l365 -541h-137l-355 524h-26h-363v-524h-121zM305 633h365q131 0 191.5 48t60.5 159v209q0 111 -60.5 158.5t-191.5 47.5h-365v-622z" />
<glyph unicode="S" horiz-adv-x="1114" d="M139 995q0 65 10.5 119.5t37 105t68.5 85.5t109 57.5t154 26.5q21 0 42 1q187 0 390 -32v-119q-32 4 -91.5 12.5t-77 10.5t-72.5 8q-44 5 -68 5q-7 -1 -11 -1q-14 -1 -45 0h-50q-61 -2 -107 -15.5t-84.5 -44t-59 -86.5t-20.5 -135q3 -127 63.5 -182t207.5 -55h73 q86 0 154 -23.5t111.5 -61.5t72 -89.5t40 -104.5t11.5 -110q0 -49 -9.5 -96t-35 -97t-65 -88.5t-104.5 -66t-148 -33.5q-31 -1 -66 -1q-172 0 -426 29v115q127 -21 227 -29q57 -5 124 -4q50 0 104 2q60 3 107.5 19t78.5 41t51 58t28.5 67.5t8.5 72.5q0 283 -270 283h-74 q-97 0 -168.5 21t-113 54t-66.5 82t-33 95.5t-8 103.5z" />
<glyph unicode="T" horiz-adv-x="1062" d="M51 1255v109h961v-109h-420v-1255h-121v1255h-420z" />
<glyph unicode="U" horiz-adv-x="1290" d="M141 377v985h115v-993q0 -250 268 -256h213q269 6 269 256v993h114v-985q0 -166 -95.5 -268.5t-295.5 -106.5h-201q-102 2 -178.5 31.5t-121 81t-66 117t-21.5 145.5z" />
<glyph unicode="V" horiz-adv-x="1208" d="M49 1364h125l434 -1194l430 1194h125l-491 -1364h-125z" />
<glyph unicode="W" horiz-adv-x="1822" d="M51 1364h117l342 -1272l305 1272h193l305 -1272l342 1272h117l-369 -1364h-189l-303 1278l-303 -1278h-188z" />
<glyph unicode="X" horiz-adv-x="1187" d="M113 0l401 694l-385 668h129l322 -555l319 555h129l-385 -668l399 -694h-127l-335 584l-338 -584h-129z" />
<glyph unicode="Y" horiz-adv-x="1112" d="M31 1364h125l399 -823l401 823h125l-465 -944v-420h-120v420z" />
<glyph unicode="Z" horiz-adv-x="1179" d="M143 0v109l744 1146h-723v109h858v-109l-746 -1146h760v-109h-893z" />
<glyph unicode="[" horiz-adv-x="636" d="M205 -258v1876h370v-111h-251v-1654h251v-111h-370z" />
<glyph unicode="\" horiz-adv-x="901" d="M150 1362h120l422 -1362h-119z" />
<glyph unicode="]" horiz-adv-x="636" d="M61 -147h252v1654h-252v111h371v-1876h-371v111z" />
<glyph unicode="^" horiz-adv-x="929" d="M115 838l284 546h131l285 -546h-125l-225 436l-227 -436h-123z" />
<glyph unicode="_" horiz-adv-x="888" d="M8 -20h873v-76h-873v76z" />
<glyph unicode="`" horiz-adv-x="634" d="M174 1268v129l297 -199v-129z" />
<glyph unicode="a" horiz-adv-x="993" d="M119 291v26q0 71 19.5 126t52 90t81.5 57.5t100.5 32t116.5 9.5t123.5 -5.5t126.5 -16.5v129q0 90 -68.5 129t-197.5 39q-125 0 -297 -55v119q152 49 307 49q207 0 293 -79t86 -245v-667q-245 -46 -346 -52q-27 -2 -52 -2q-215 0 -294 115q-51 75 -51 201zM240 297 q0 -55 14.5 -95t39 -63.5t60.5 -37t74 -17.5q21 -2 45 -2q19 0 41 2q48 3 90.5 8.5t91.5 13.5q29 5 43 7v385q-176 27 -229 29q-15 1 -30 1q-166 0 -216 -96q-24 -47 -24 -119v-16z" />
<glyph unicode="b" horiz-adv-x="1040" d="M168 31v1333h123v-375q69 12 126.5 18.5t123.5 7.5h14q58 1 103 -7q51 -8 100 -29.5t81.5 -55.5t52 -88.5t19.5 -125.5v-416q0 -84 -24.5 -144t-57.5 -96t-97 -53q-66 -17 -114 -22q-17 -2 -39 -2q-41 0 -99 6q-90 9 -138.5 17.5t-146.5 26.5q-18 3 -27 5zM291 119 q179 -28 233 -31q17 -1 32 -1q161 0 212 94q25 47 25 120v395q0 55 -16 94.5t-40 63t-65 35.5q-42 11 -78 15q-16 2 -35 2q-25 0 -56 -2q-55 -4 -93.5 -10t-95.5 -16q-16 -3 -23 -4v-755z" />
<glyph unicode="c" horiz-adv-x="833" d="M113 297v401q0 150 75 227.5t246 92.5q39 2 77 2q147 0 273 -31l2 -112q-133 34 -282 34t-211 -47.5t-62 -154.5v-422q0 -104 63 -154.5t210 -50.5q111 0 282 47l-2 -115q-140 -38 -304 -38q-23 0 -46 1q-171 15 -246 92.5t-75 227.5z" />
<glyph unicode="d" horiz-adv-x="1050" d="M147 293v416q0 71 19.5 125.5t52 88.5t81.5 55q50 22 101 30q46 8 103 7h14q66 -1 123.5 -7.5t126.5 -18.5v375h123v-1333q-246 -46 -347 -52q-27 -2 -52 -2q-215 0 -294 115q-51 75 -51 201zM266 301q0 -64 18.5 -108t54.5 -66q36 -23 77 -33q32 -8 73 -8q12 0 25 1 q57 3 104.5 9t108.5 16q28 5 41 7v755q-187 31 -261 32h-3q-190 0 -228 -130q-10 -36 -10 -80v-395z" />
<glyph unicode="e" horiz-adv-x="980" d="M123 342v313q0 363 373 363q102 0 174.5 -27t112.5 -78t57.5 -114t17.5 -144v-192h-620v-125q0 -133 59.5 -193.5t204.5 -60.5q135 0 311 45v-102q-146 -47 -319 -47q-200 0 -285.5 94t-85.5 268zM238 569h503v90q0 125 -56 190.5t-189 65.5q-258 0 -258 -256v-90z" />
<glyph unicode="f" horiz-adv-x="694" d="M61 895v102h164v209q0 120 68 180t190 60q47 0 119 -10v-101q-52 8 -110 8q-84 0 -116 -34t-32 -117v-195h258v-102h-258v-895h-119v895h-164z" />
<glyph unicode="g" horiz-adv-x="1050" d="M139 299v406q0 59 11 106.5t32 81t48.5 58.5t65.5 39t77 22q37 9 83 9q2 0 5 -1q49 0 94 -2.5t100 -11t100.5 -16.5t101.5 -18q17 -3 26 -5v-1065q0 -166 -86 -245t-293 -79q-155 0 -307 49v111q172 -55 297 -55q270 0 270 167v156q-68 -11 -126.5 -16.5t-124 -5.5 t-118 9.5t-101.5 32t-82 57.5t-53 90t-20 126zM258 301q0 -64 17 -108.5t60 -65.5t73 -33q23 -9 67 -9q17 0 37 1q73 5 100.5 8.5t110.5 16.5q9 1 14 2t13 2t14 2v766l-39 6q-72 11 -110 15.5t-103 8.5q-17 1 -32 1q-42 0 -70 -8q-36 -12 -76 -33.5t-58 -66t-18 -108.5v-397 z" />
<glyph unicode="h" horiz-adv-x="1067" d="M164 0v1364h123v-375q69 12 126.5 18.5t123.5 7.5h14q58 1 103 -7q51 -8 100 -29.5t81.5 -55.5t52 -88.5t19.5 -125.5v-709h-119v696q0 55 -16 94.5t-40 63t-65 35.5q-41 11 -77 15q-16 2 -35 2q-25 0 -56 -2q-55 -4 -93 -10t-96 -16q-5 -1 -8 -1.5t-7 -1t-8 -1.5v-874 h-123z" />
<glyph unicode="i" horiz-adv-x="466" d="M172 1159q0 27 16.5 44.5t42.5 17.5t44 -18t18 -44t-17.5 -42.5t-44.5 -16.5q-26 0 -42.5 16.5t-16.5 42.5zM174 0v997h119v-997h-119z" />
<glyph unicode="j" horiz-adv-x="456" d="M-82 -315q71 -11 111 -11q83 0 115 34.5t32 117.5v1167h119v-1181q0 -120 -68 -180t-190 -60q-47 0 -119 10v103zM172 1159q0 27 16.5 44.5t42.5 17.5t44 -18t18 -44t-17.5 -42.5t-44.5 -16.5q-26 0 -42.5 16.5t-16.5 42.5z" />
<glyph unicode="k" horiz-adv-x="960" d="M174 0v1362h119v-850l444 485h148l-455 -491l471 -506h-151l-457 498v-498h-119z" />
<glyph unicode="l" horiz-adv-x="466" d="M174 0v1362h119v-1362h-119z" />
<glyph unicode="m" horiz-adv-x="1710" d="M164 0v948q42 13 94.5 26.5t139.5 27.5q86 14 164 18q15 1 29 1q63 0 128 -12q80 -15 131 -53q48 14 99 26t127 24t143 14q13 0 26 1q55 -1 111 -9q70 -10 120.5 -37t82.5 -80.5t32 -130.5v-764h-123v776q0 54 -44 86q-42 30 -108 38q-39 4 -83 5q-29 0 -59 -2 q-76 -5 -140.5 -19t-107.5 -30q12 -38 12 -86v-768h-125v776q0 69 -65 102q-61 31 -146 31h-10q-91 -2 -174.5 -16.5t-134.5 -34.5v-858h-119z" />
<glyph unicode="n" horiz-adv-x="1067" d="M164 0v948q33 10 73 20.5t105.5 25t127.5 20.5t132 8h16q61 0 112 -13q58 -15 106 -42t75 -79t27 -124v-764h-119v774q-1 69 -67 102q-63 31 -148 31h-10q-92 -2 -178 -16.5t-137 -34.5v-856h-115z" />
<glyph unicode="o" horiz-adv-x="1019" d="M90 348v289q0 79 22 144.5t67.5 117t122.5 81.5t179 32h47q102 -2 179 -32t123 -81.5t68 -117t22 -144.5v-289q0 -166 -96 -268.5t-296 -106.5h-51q-102 2 -178.5 31.5t-121 81t-66 117t-21.5 145.5zM205 340q0 -250 268 -256h64q268 6 268 256v301q0 124 -68.5 190.5 t-199.5 69.5h-64q-131 -3 -199.5 -69.5t-68.5 -190.5v-301z" />
<glyph unicode="p" horiz-adv-x="1046" d="M168 -422v1399q245 46 346 52q27 2 52 2q215 0 294 -115q51 -75 51 -201v-416q0 -71 -19.5 -125.5t-52 -88.5t-81.5 -55.5t-100 -29.5q-46 -7 -103 -7h-15q-65 1 -122.5 7t-126.5 18v-440h-123zM291 133q187 -31 261 -32h3q190 0 228 130q10 35 10 80v396q0 64 -18.5 108 t-54.5 66t-77 33q-32 8 -73 8q-12 0 -25 -1q-57 -3 -104.5 -9t-108.5 -16l-15 -3t-12.5 -2t-13.5 -2v-756z" />
<glyph unicode="q" horiz-adv-x="1040" d="M147 299v416q0 59 11 106.5t32 81t48.5 58.5t65.5 39t77 22q37 9 83 9q2 0 5 -1q49 0 94 -2.5t100 -11t100.5 -16.5t101.5 -18q17 -3 26 -5v-1399h-123v440q-69 -12 -126.5 -18t-123.5 -7h-14q-58 0 -103 7q-51 8 -100.5 29.5t-82 55.5t-52 88.5t-19.5 125.5zM266 311 q0 -55 16 -94.5t40 -63t65 -35.5t77 -16q16 -1 36 -1q25 0 56 3q55 4 93.5 9.5t95.5 15.5q16 3 23 4v756q-179 28 -233 31q-17 1 -32 1q-162 0 -212 -94q-25 -48 -25 -120v-396z" />
<glyph unicode="r" horiz-adv-x="626" d="M123 0v764q0 73 29 125t75 80q47 29 111 41q62 12 123 12h5q64 0 136 -10v-117q-65 9 -123.5 9t-112.5 -11t-86 -42t-32 -79v-770z" />
<glyph unicode="s" horiz-adv-x="886" d="M90 754q1 44 17.5 85.5t52 82t103 66t157.5 26.5q199 0 311 -19v-114q-146 26 -297 26q-90 0 -154 -38.5t-67 -112.5v-13q0 -31 4 -55q5 -30 15.5 -50.5t27.5 -34t38.5 -21.5t49 -12t58 -6t66.5 -3h7q86 -3 149.5 -30t95 -62t49 -79t21 -72.5t1.5 -51.5q-4 -135 -95 -204 t-239 -74q-28 -1 -56 -1q-151 0 -294 36v112q131 -42 317 -45q105 2 174 44.5t72 129.5v7q0 87 -46 133q-48 48 -163 49q-76 1 -131 8t-104 26.5t-78 53t-46 86.5q-16 50 -16 119v8z" />
<glyph unicode="t" horiz-adv-x="663" d="M43 895v102h156v367h118v-367h181v-102h-181v-641q0 -83 32.5 -117.5t115.5 -34.5q41 0 106 7v-101q-55 -8 -114 -8q-122 0 -190 60t-68 180v655h-156z" />
<glyph unicode="u" horiz-adv-x="1067" d="M164 233v764l117 -2v-772q0 -69 67 -102q63 -31 150 -31h10q94 2 180 16.5t137 34.5v856h113v-948q-33 -10 -73 -20.5t-105.5 -25t-127.5 -20.5t-132 -8h-16q-61 0 -112 13q-58 15 -106 42t-75 79t-27 124z" />
<glyph unicode="v" horiz-adv-x="919" d="M45 997h125l297 -827l299 827h125l-361 -997h-124z" />
<glyph unicode="w" horiz-adv-x="1280" d="M35 997h123l207 -770l206 770h123l207 -770l207 770h123l-266 -997h-125l-207 768l-205 -768h-125z" />
<glyph unicode="x" horiz-adv-x="903" d="M51 2l340 500l-336 495h133l271 -397l268 397h135l-336 -495l340 -500h-137l-270 399l-273 -399h-135z" />
<glyph unicode="y" horiz-adv-x="1005" d="M129 299v698h117v-692q0 -64 17.5 -108.5t60 -65.5t76.5 -33q24 -8 69 -8q16 0 34 1q70 4 102.5 8t110.5 16q27 4 40 6v876h116v-1095q0 -166 -85.5 -245t-292.5 -79q-156 0 -308 49v115q172 -55 297 -55q273 0 273 168v151q-80 -13 -148 -18q-49 -4 -101 -4q-21 0 -42 1 q-75 2 -132.5 21.5t-105 54t-73 95t-25.5 143.5z" />
<glyph unicode="z" horiz-adv-x="894" d="M113 0v96l538 805h-524l2 96h647l-2 -96l-536 -805h555v-96h-680z" />
<glyph unicode="{" horiz-adv-x="632" d="M123 610v107h33q49 0 69.5 19.5t20.5 64.5v614q0 203 205 203h141v-107h-150q-77 0 -77 -81v-623q0 -140 -129 -143q129 -5 129 -144v-622q0 -82 77 -82h150v-107h-141q-205 0 -205 203v614q0 45 -20.5 64.5t-69.5 19.5h-33z" />
<glyph unicode="|" horiz-adv-x="509" d="M215 -303v1900h80v-1900h-80z" />
<glyph unicode="}" horiz-adv-x="632" d="M41 -184h149q78 0 78 82v622q0 139 129 144q-129 3 -129 143v623q0 81 -78 81h-149v107h141q205 0 205 -203v-614q0 -45 20.5 -64.5t69.5 -19.5h33v-107h-33q-49 0 -69.5 -19.5t-20.5 -64.5v-614q0 -203 -205 -203h-141v107z" />
<glyph unicode="~" horiz-adv-x="1013" d="M102 459q43 111 103 171t149 60q42 0 81.5 -17t69.5 -41t58.5 -48t61 -41t63.5 -17q27 0 49 11t36.5 24t30 41t23 45t21.5 53l84 -36q-17 -49 -36 -86t-48 -73t-70.5 -55.5t-93.5 -19.5q-42 0 -81.5 16.5t-70 40t-59 47t-60.5 40t-63 16.5q-57 0 -90.5 -39.5 t-71.5 -130.5z" />
<glyph unicode="&#xa1;" horiz-adv-x="516" d="M201 -356v1067h118v-1067h-118zM201 948q0 26 16.5 43t42.5 17t44 -17t18 -43t-18 -43.5t-44 -17.5t-42.5 17.5t-16.5 43.5z" />
<glyph unicode="&#xa2;" horiz-adv-x="964" d="M164 381v303q0 142 78.5 218.5t255.5 88.5v217h114v-217q105 -3 197 -22v-105q-112 23 -242 23q-157 0 -220.5 -45t-63.5 -166v-287q0 -121 63.5 -166t220.5 -45q140 0 242 21v-103q-103 -21 -197 -24v-215h-114v217q-177 12 -255.5 88.5t-78.5 218.5z" />
<glyph unicode="&#xa3;" horiz-adv-x="1032" d="M84 0v109h131v522h-80v104h80v226q0 91 20.5 161t67.5 126.5t132 86t206 29.5h279v-109h-281q-167 0 -235 -68.5t-68 -219.5v-232h375v-104h-375v-522h635v-109h-887z" />
<glyph unicode="&#xa4;" horiz-adv-x="1105" d="M154 252l127 127q-41 61 -41 160v295q0 96 41 157l-127 129l77 78l134 -135q70 37 188 37q110 0 186 -37l135 135l78 -78l-129 -129q41 -61 41 -157v-295q0 -97 -41 -158l129 -129l-78 -78l-135 135q-70 -37 -186 -37t-188 35l-134 -133zM350 565q0 -103 40.5 -146.5 t162.5 -43.5q121 0 161 43.5t40 146.5v242q0 103 -40 146.5t-161 43.5q-122 0 -162.5 -43.5t-40.5 -146.5v-242z" />
<glyph unicode="&#xa5;" horiz-adv-x="1112" d="M31 1364h125l399 -823l401 823h125l-313 -635h145v-96h-192l-105 -213v-43h297v-96h-297v-281h-120v281h-297v96h297v43l-105 213h-192v96h145z" />
<glyph unicode="&#xa6;" horiz-adv-x="509" d="M215 -299v723h80v-723h-80zM215 764v760h80v-760h-80z" />
<glyph unicode="&#xa7;" horiz-adv-x="919" d="M166 2v743q0 79 22 144.5t67.5 117t122.5 81.5t179 32h211v-110h-219q-131 -3 -199.5 -69.5t-68.5 -190.5v-748h-115zM168 -82h217q268 6 268 256v746h115v-738q0 -166 -95.5 -268.5t-295.5 -106.5h-209v111z" />
<glyph unicode="&#xa8;" horiz-adv-x="802" d="M172 1159q0 27 16.5 44.5t42.5 17.5t44 -18t18 -44t-17.5 -42.5t-44.5 -16.5q-26 0 -42.5 16.5t-16.5 42.5zM524 1159q0 26 17 44t43 18t43.5 -18t17.5 -44t-17.5 -42.5t-43.5 -16.5t-43 16.5t-17 42.5z" />
<glyph unicode="&#xa9;" horiz-adv-x="1691" d="M213 700q0 131 46 247t127 202t200.5 136t259.5 50t259.5 -50t200.5 -136t127 -202t46 -247q0 -130 -46 -245.5t-127 -201t-200.5 -135.5t-259.5 -50t-259.5 50t-200.5 135.5t-127 201t-46 245.5zM301 700q0 -114 38 -214.5t107 -175t172.5 -117.5t227.5 -43t227 43 t171.5 117.5t106.5 175t38 214.5q0 153 -64 278t-189.5 200t-289.5 75t-290 -75t-190.5 -200t-64.5 -278zM604 553v295q0 109 56.5 159t189.5 50q92 0 188 -21v-82q-108 19 -182 19q-97 0 -129.5 -25.5t-32.5 -101.5v-291q0 -76 32.5 -101.5t129.5 -25.5q96 0 182 18v-81 q-96 -21 -188 -21q-133 0 -189.5 50t-56.5 159z" />
<glyph unicode="&#xaa;" horiz-adv-x="774" d="M162 950v15q0 59 22 98.5t56.5 59t85 26t97.5 3.5t105 -13v78q0 98 -155 98q-61 0 -178 -35v70q103 30 180 30q124 0 175.5 -46t51.5 -146v-393q-173 -32 -242 -32q-166 1 -193 129q-5 27 -5 58zM233 952q0 -44 16.5 -72t41 -39.5t61.5 -13.5t70 2t75 10q21 4 31 5v227 q-121 17 -152 18q-123 1 -140 -91q-3 -16 -3 -35v-11z" />
<glyph unicode="&#xab;" horiz-adv-x="978" d="M113 500l217 327h131l-217 -327l217 -328h-131zM494 500l217 327h131l-217 -327l217 -328h-131z" />
<glyph unicode="&#xac;" horiz-adv-x="1159" d="M133 444v107h832v-471h-111v364h-721z" />
<glyph unicode="&#xad;" horiz-adv-x="741" d="M133 524v101h475v-101h-475z" />
<glyph unicode="&#xae;" horiz-adv-x="1212" d="M66 836q0 110 37 207.5t104.5 169.5t168.5 113.5t222 41.5q161 0 283 -72t184.5 -192t62.5 -268q0 -110 -37 -207t-104 -169.5t-167.5 -114.5t-221.5 -42q-160 0 -283 72.5t-186 193t-63 267.5zM147 836q0 -196 119 -325.5t332 -129.5q143 0 246.5 62.5t153 164 t49.5 228.5q0 197 -118.5 328.5t-330.5 131.5q-108 0 -194.5 -36.5t-142 -100t-85 -146t-29.5 -177.5zM438 602v490h189q147 0 147 -125v-74q0 -43 -15.5 -70t-53.5 -45l131 -176h-86l-123 162h-117v-162h-72zM510 831h117q43 0 60.5 15t17.5 47v74q0 36 -17.5 48.5 t-60.5 12.5h-117v-197z" />
<glyph unicode="&#xaf;" horiz-adv-x="770" d="M143 1159v98h484v-98h-484z" />
<glyph unicode="&#xb0;" horiz-adv-x="733" d="M147 1128q0 91 60.5 152t159.5 61t157 -60.5t58 -152.5t-58.5 -153.5t-156.5 -61.5q-100 0 -160 61.5t-60 153.5zM221 1128q0 -60 40 -104.5t106 -44.5t103.5 44t37.5 105q0 62 -37.5 105t-103.5 43t-106 -43.5t-40 -104.5z" />
<glyph unicode="&#xb1;" horiz-adv-x="1159" d="M164 0v106h831v-106h-831zM164 608v107h358v364h115v-364h358v-107h-358v-364h-115v364h-358z" />
<glyph unicode="&#xb2;" horiz-adv-x="858" d="M156 580v186q1 54 11 92.5t35.5 71.5t74.5 50t122 17q92 0 136 32t45 106q0 103 -45.5 141.5t-124.5 38.5q-84 0 -220 -37v68q119 36 222 36q240 0 237 -245q-3 -102 -65 -153.5t-205 -51.5q-160 0 -156 -172v-115h443v-65h-510z" />
<glyph unicode="&#xb3;" horiz-adv-x="862" d="M188 600v68q135 -41 211 -41q88 0 139 33.5t54 123.5q0 78 -29.5 116t-105.5 38h-215v61h217q41 0 67 9.5t39 30.5t17.5 44t5.5 60q-2 48 -16 82t-31 50.5t-44 25.5t-43.5 10.5t-41.5 1.5q-80 0 -224 -41v67q117 37 215 37q138 0 198.5 -62.5t60.5 -176.5 q0 -113 -70 -168q72 -55 72 -178q0 -101 -61 -164.5t-200 -63.5q-98 0 -215 37z" />
<glyph unicode="&#xb4;" horiz-adv-x="634" d="M174 1069v129l297 199v-129z" />
<glyph unicode="&#xb5;" horiz-adv-x="1009" d="M129 -424v1421h117v-876q178 -27 234 -30q200 -9 254 102q22 45 22 112v692h116v-1138h-116v188q-149 -98 -510 -41v-430h-117z" />
<glyph unicode="&#xb6;" horiz-adv-x="1028" d="M127 893q0 195 138 333t333 138h4v-942h-4q-195 0 -333 138t-138 333zM451 -313q59 -9 110 -9q83 0 115.5 34.5t32.5 117.5v1532h118v-1546q0 -120 -68 -180t-190 -60q-46 0 -118 10v101z" />
<glyph unicode="&#xb7;" horiz-adv-x="495" d="M145 631q0 38 28.5 66t66.5 28t65 -28t27 -66t-27 -65t-65 -27q-39 0 -67 27t-28 65z" />
<glyph unicode="&#xb8;" horiz-adv-x="641" d="M233 -289q92 -23 164 -20q51 2 81.5 23.5t31.5 60.5q1 13 -1.5 26t-12 30.5t-34 28.5t-61.5 11h-92l33 154h59l-20 -99h29q165 -10 157 -157q-4 -65 -53.5 -96.5t-118.5 -34.5q-72 -2 -162 18v55z" />
<glyph unicode="&#xb9;" horiz-adv-x="538" d="M164 1237v80l94 55h64v-803h-72v717z" />
<glyph unicode="&#xba;" horiz-adv-x="802" d="M164 1018v186q0 101 57.5 161t179.5 60q227 0 238 -221v-186q0 -102 -57.5 -162.5t-180.5 -60.5t-180 60.5t-57 162.5zM252 1016q0 -144 149 -144q152 0 152 144v190q0 142 -152 142q-149 0 -149 -142v-190z" />
<glyph unicode="&#xbb;" horiz-adv-x="978" d="M133 176l221 334l-217 328h131l217 -328l-221 -334h-131zM514 176l221 334l-217 328h131l217 -328l-221 -334h-131z" />
<glyph unicode="&#xbc;" horiz-adv-x="1318" d="M182 1245v80l97 53h63v-800h-72v716zM395 575l256 824h72l-254 -824h-74zM598 690v76l358 616h97v-630h67v-62h-67v-110h-72v110h-383zM662 752h319v538z" />
<glyph unicode="&#xbd;" horiz-adv-x="1435" d="M180 1214v80l94 54h66v-801h-72v717zM395 547l252 817h74l-256 -817h-70zM735 545v186q0 52 10.5 91t36 72.5t75 51t122.5 17.5q91 0 135 32t45 105q0 102 -46.5 141t-125.5 39q-88 0 -217 -39v68q101 37 221 37q242 0 236 -246q-2 -101 -64 -152t-207 -51 q-157 0 -153 -172v-117h442v-63h-510z" />
<glyph unicode="&#xbe;" horiz-adv-x="1583" d="M176 588v65q147 -39 213 -39q87 0 138 34t55 124q0 76 -30.5 114t-105.5 38h-215v61h218q78 0 102.5 34.5t26.5 110.5q-2 48 -17 82t-31.5 50t-44.5 25t-43.5 10t-40.5 1q-88 0 -225 -38v67q122 37 215 37q139 0 198.5 -62.5t59.5 -177.5t-67 -168q71 -54 71 -180 q0 -100 -61 -162.5t-201 -62.5q-93 0 -215 37zM645 553l252 811h72l-252 -811h-72zM868 659v76l359 617h96v-631h68v-62h-68v-110h-72v110h-383zM932 721h319v539z" />
<glyph unicode="&#xbf;" horiz-adv-x="937" d="M82 78q2 83 25.5 144t75.5 106t139 67.5t210 22.5h66v315h117v-426h-219q-152 0 -224 -52.5t-75 -174.5q0 -72 15.5 -126t40.5 -87t62.5 -53t77 -27.5t88.5 -7.5q153 0 365 63v-112q-193 -62 -371 -62q-402 0 -393 410zM594 936q0 26 18.5 44.5t44.5 18.5t45 -18.5 t19 -44.5t-19 -45t-45 -19t-44.5 19t-18.5 45z" />
<glyph unicode="&#xc0;" horiz-adv-x="1206" d="M141 2v985q0 80 21.5 145.5t66 117t121 81t178.5 31.5h136q200 -4 295.5 -106.5t95.5 -268.5v-985h-115v631h-684v-631h-115zM256 737h684v258q0 250 -268 256h-148q-268 -6 -268 -256v-258zM455 1634v129l297 -198v-129z" />
<glyph unicode="&#xc1;" horiz-adv-x="1206" d="M141 2v985q0 80 21.5 145.5t66 117t121 81t178.5 31.5h136q200 -4 295.5 -106.5t95.5 -268.5v-985h-115v631h-684v-631h-115zM256 737h684v258q0 250 -268 256h-148q-268 -6 -268 -256v-258zM455 1436v129l297 198v-129z" />
<glyph unicode="&#xc2;" horiz-adv-x="1206" d="M141 2v985q0 80 21.5 145.5t66 117t121 81t178.5 31.5h136q200 -4 295.5 -106.5t95.5 -268.5v-985h-115v631h-684v-631h-115zM256 737h684v258q0 250 -268 256h-148q-268 -6 -268 -256v-258zM389 1491v111l211 137l215 -142v-108l-215 131z" />
<glyph unicode="&#xc3;" horiz-adv-x="1206" d="M141 2v985q0 80 21.5 145.5t66 117t121 81t178.5 31.5h136q200 -4 295.5 -106.5t95.5 -268.5v-985h-115v631h-684v-631h-115zM256 737h684v258q0 250 -268 256h-148q-268 -6 -268 -256v-258zM326 1569q105 147 278 67q36 -15 57 -22t50.5 -10t55.5 8.5t52 38.5l60 -54 q-94 -148 -275 -67q-48 22 -79.5 29.5t-70 -3.5t-75.5 -47z" />
<glyph unicode="&#xc4;" horiz-adv-x="1206" d="M141 2v985q0 80 21.5 145.5t66 117t121 81t178.5 31.5h136q200 -4 295.5 -106.5t95.5 -268.5v-985h-115v631h-684v-631h-115zM256 737h684v258q0 250 -268 256h-148q-268 -6 -268 -256v-258zM367 1526q0 26 16.5 43.5t42.5 17.5t43.5 -17.5t17.5 -43.5t-17.5 -43 t-43.5 -17t-42.5 17t-16.5 43zM719 1526q0 26 16.5 43.5t42.5 17.5t44 -17.5t18 -43.5t-18 -43t-44 -17t-42.5 17t-16.5 43z" />
<glyph unicode="&#xc5;" horiz-adv-x="1206" d="M141 2v985q0 80 21.5 145.5t66 117t121 81t178.5 31.5h136q200 -4 295.5 -106.5t95.5 -268.5v-985h-115v631h-684v-631h-115zM256 737h684v258q0 250 -268 256h-148q-268 -6 -268 -256v-258zM469 1606q0 57 35.5 93t97.5 36t97.5 -36t35.5 -93q0 -56 -36 -93.5t-97 -37.5 t-97 37.5t-36 93.5zM537 1606q0 -30 17.5 -50t47.5 -20t47 20t17 50q0 31 -17 50t-47 19t-47.5 -19t-17.5 -50z" />
<glyph unicode="&#xc6;" horiz-adv-x="1748" d="M141 2v985q0 80 21.5 145.5t66 117t121 81t178.5 31.5l1100 2v-109h-647v-505h602v-109h-602v-532h649v-109h-770v633h-604v-631h-115zM256 737h604v514h-336q-268 -6 -268 -256v-258z" />
<glyph unicode="&#xc7;" horiz-adv-x="1046" d="M154 375v614q0 197 106 296t346 99q156 0 312 -28v-107q-155 27 -302 27q-187 0 -264.5 -65t-77.5 -224v-610q0 -159 77.5 -224t264.5 -65q147 0 302 27v-109q-162 -26 -312 -26l-10 -54h29q165 -10 157 -157q-4 -65 -53.5 -96.5t-118.5 -34.5q-71 -2 -161 18v55 q92 -23 163 -20q51 2 81.5 23.5t31.5 60.5q1 13 -1.5 26t-12 30.5t-34 28.5t-61.5 11h-92l23 111q-208 12 -300.5 109.5t-92.5 283.5z" />
<glyph unicode="&#xc8;" horiz-adv-x="1097" d="M184 0v1364h768v-109h-647v-505h602v-109h-602v-532h649v-109h-770zM399 1634v129l297 -198v-129z" />
<glyph unicode="&#xc9;" horiz-adv-x="1097" d="M184 0v1364h768v-109h-647v-505h602v-109h-602v-532h649v-109h-770zM399 1436v129l297 198v-129z" />
<glyph unicode="&#xca;" horiz-adv-x="1097" d="M184 0v1364h768v-109h-647v-505h602v-109h-602v-532h649v-109h-770zM336 1491v111l211 137l215 -142v-108l-215 131z" />
<glyph unicode="&#xcb;" horiz-adv-x="1097" d="M184 0v1364h768v-109h-647v-505h602v-109h-602v-532h649v-109h-770zM311 1526q0 26 17 43.5t43 17.5t43.5 -17.5t17.5 -43.5t-17.5 -43t-43.5 -17t-43 17t-17 43zM664 1526q0 26 16.5 43.5t42.5 17.5t43.5 -17.5t17.5 -43.5t-17.5 -43t-43.5 -17t-42.5 17t-16.5 43z" />
<glyph unicode="&#xcc;" horiz-adv-x="509" d="M106 1634v129l297 -198v-129zM195 0v1364h120v-1364h-120z" />
<glyph unicode="&#xcd;" horiz-adv-x="509" d="M106 1436v129l297 198v-129zM195 0v1364h120v-1364h-120z" />
<glyph unicode="&#xce;" horiz-adv-x="509" d="M43 1491v111l211 137l215 -142v-108l-215 131zM195 0v1364h120v-1364h-120z" />
<glyph unicode="&#xcf;" horiz-adv-x="509" d="M18 1526q0 26 17 43.5t43 17.5t43.5 -17.5t17.5 -43.5t-17.5 -43t-43.5 -17t-43 17t-17 43zM195 0v1364h120v-1364h-120zM371 1526q0 26 16.5 43.5t42.5 17.5t44 -17.5t18 -43.5t-18 -43t-44 -17t-42.5 17t-16.5 43z" />
<glyph unicode="&#xd0;" horiz-adv-x="1284" d="M102 643v102h158v619h451q121 0 206 -29.5t132 -86t67.5 -126.5t20.5 -161v-558q0 -91 -20.5 -161t-67.5 -126.5t-132 -86t-206 -29.5h-451v643h-158zM381 109h332q167 0 235 68.5t68 219.5v570q0 151 -68 219.5t-235 68.5h-332v-510h289v-102h-289v-534z" />
<glyph unicode="&#xd1;" horiz-adv-x="1306" d="M184 0v1364h176l648 -1247v1247h114v-1364h-176l-647 1245v-1245h-115zM377 1569q105 147 278 67q36 -15 57 -22t50.5 -10t55.5 8.5t52 38.5l60 -54q-94 -148 -275 -67q-48 22 -79.5 29.5t-70 -3.5t-75.5 -47z" />
<glyph unicode="&#xd2;" d="M141 377v610q0 79 22 144.5t67.5 117t122.5 81.5t179 32h197q102 -2 179 -32t122.5 -81.5t67.5 -117t22 -144.5v-610q0 -166 -95.5 -268.5t-295.5 -106.5h-201q-102 2 -178.5 31.5t-121 81t-66 117t-21.5 145.5zM256 369q0 -250 268 -256h213q269 6 269 256v622 q0 124 -69 190.5t-200 69.5h-213q-131 -3 -199.5 -69.5t-68.5 -190.5v-622zM481 1634v129l297 -198v-129z" />
<glyph unicode="&#xd3;" d="M141 377v610q0 79 22 144.5t67.5 117t122.5 81.5t179 32h197q102 -2 179 -32t122.5 -81.5t67.5 -117t22 -144.5v-610q0 -166 -95.5 -268.5t-295.5 -106.5h-201q-102 2 -178.5 31.5t-121 81t-66 117t-21.5 145.5zM256 369q0 -250 268 -256h213q269 6 269 256v622 q0 124 -69 190.5t-200 69.5h-213q-131 -3 -199.5 -69.5t-68.5 -190.5v-622zM481 1436v129l297 198v-129z" />
<glyph unicode="&#xd4;" d="M141 377v610q0 79 22 144.5t67.5 117t122.5 81.5t179 32h197q102 -2 179 -32t122.5 -81.5t67.5 -117t22 -144.5v-610q0 -166 -95.5 -268.5t-295.5 -106.5h-201q-102 2 -178.5 31.5t-121 81t-66 117t-21.5 145.5zM256 369q0 -250 268 -256h213q269 6 269 256v622 q0 124 -69 190.5t-200 69.5h-213q-131 -3 -199.5 -69.5t-68.5 -190.5v-622zM418 1491v111l211 137l215 -142v-108l-215 131z" />
<glyph unicode="&#xd5;" d="M141 377v610q0 79 22 144.5t67.5 117t122.5 81.5t179 32h197q102 -2 179 -32t122.5 -81.5t67.5 -117t22 -144.5v-610q0 -166 -95.5 -268.5t-295.5 -106.5h-201q-102 2 -178.5 31.5t-121 81t-66 117t-21.5 145.5zM256 369q0 -250 268 -256h213q269 6 269 256v622 q0 124 -69 190.5t-200 69.5h-213q-131 -3 -199.5 -69.5t-68.5 -190.5v-622zM354 1569q105 147 279 67q36 -15 57 -22t50.5 -10t55.5 8.5t52 38.5l59 -54q-94 -148 -274 -67q-48 22 -79.5 29.5t-70 -3.5t-75.5 -47z" />
<glyph unicode="&#xd6;" d="M141 377v610q0 79 22 144.5t67.5 117t122.5 81.5t179 32h197q102 -2 179 -32t122.5 -81.5t67.5 -117t22 -144.5v-610q0 -166 -95.5 -268.5t-295.5 -106.5h-201q-102 2 -178.5 31.5t-121 81t-66 117t-21.5 145.5zM256 369q0 -250 268 -256h213q269 6 269 256v622 q0 124 -69 190.5t-200 69.5h-213q-131 -3 -199.5 -69.5t-68.5 -190.5v-622zM393 1526q0 26 17 43.5t43 17.5t43.5 -17.5t17.5 -43.5t-17.5 -43t-43.5 -17t-43 17t-17 43zM745 1526q0 26 17 43.5t43 17.5t43.5 -17.5t17.5 -43.5t-17.5 -43t-43.5 -17t-43 17t-17 43z" />
<glyph unicode="&#xd7;" horiz-adv-x="1122" d="M164 176l321 324l-321 323l74 74l323 -322l324 322l73 -74l-321 -323l321 -324l-73 -74l-324 322l-323 -322z" />
<glyph unicode="&#xd8;" d="M154 385v594q0 90 26 162t81 127.5t148.5 85.5t221.5 30q190 0 305 -67l55 100h101l-86 -153q102 -102 102 -285v-594q0 -90 -26 -162t-81 -127.5t-148.5 -85.5t-221.5 -30q-193 0 -305 65l-60 -104h-100l88 159q-100 100 -100 285zM274 389q0 -112 41 -178l566 1008 q-88 57 -250 57q-191 0 -274 -75t-83 -226v-586zM381 145q80 -57 250 -57q191 0 273.5 75t82.5 226v586q0 108 -43 178z" />
<glyph unicode="&#xd9;" horiz-adv-x="1290" d="M141 377v985h115v-993q0 -250 268 -256h213q269 6 269 256v993h114v-985q0 -166 -95.5 -268.5t-295.5 -106.5h-201q-102 2 -178.5 31.5t-121 81t-66 117t-21.5 145.5zM496 1634v129l297 -198v-129z" />
<glyph unicode="&#xda;" horiz-adv-x="1290" d="M141 377v985h115v-993q0 -250 268 -256h213q269 6 269 256v993h114v-985q0 -166 -95.5 -268.5t-295.5 -106.5h-201q-102 2 -178.5 31.5t-121 81t-66 117t-21.5 145.5zM496 1436v129l297 198v-129z" />
<glyph unicode="&#xdb;" horiz-adv-x="1290" d="M141 377v985h115v-993q0 -250 268 -256h213q269 6 269 256v993h114v-985q0 -166 -95.5 -268.5t-295.5 -106.5h-201q-102 2 -178.5 31.5t-121 81t-66 117t-21.5 145.5zM432 1491v111l211 137l215 -142v-108l-215 131z" />
<glyph unicode="&#xdc;" horiz-adv-x="1290" d="M141 377v985h115v-993q0 -250 268 -256h213q269 6 269 256v993h114v-985q0 -166 -95.5 -268.5t-295.5 -106.5h-201q-102 2 -178.5 31.5t-121 81t-66 117t-21.5 145.5zM408 1526q0 26 16.5 43.5t42.5 17.5t43.5 -17.5t17.5 -43.5t-17.5 -43t-43.5 -17t-42.5 17t-16.5 43z M760 1526q0 26 16.5 43.5t42.5 17.5t44 -17.5t18 -43.5t-18 -43t-44 -17t-42.5 17t-16.5 43z" />
<glyph unicode="&#xdd;" horiz-adv-x="1112" d="M31 1364h125l399 -823l401 823h125l-465 -944v-420h-120v420zM408 1436v129l297 198v-129z" />
<glyph unicode="&#xde;" horiz-adv-x="1114" d="M166 2l2 1362h123v-199q69 12 126.5 18.5t123.5 7.5t117 -7.5t100 -29.5t81.5 -55t52 -88.5t19.5 -125.5v-416q0 -67 -13.5 -119.5t-41 -87t-61 -58.5t-81.5 -35t-93.5 -15.5t-106 0.5t-111 11.5t-114.5 18.5v-182h-123zM291 295q179 -28 233 -31q189 -10 244 93 q25 47 25 120v395q0 64 -17.5 108t-62 64.5t-76.5 32t-107 5.5t-104.5 -10t-114.5 -18q-13 -2 -20 -3v-756z" />
<glyph unicode="&#xdf;" horiz-adv-x="1214" d="M184 0v1096q0 133 76.5 200.5t216.5 67.5h219q140 0 216.5 -67.5t76.5 -200.5v-164q0 -83 -36.5 -137t-118.5 -84q84 -11 141 -78t57 -176v-178q0 -136 -87 -207.5t-226 -71.5h-184v106h186q95 0 142.5 45t47.5 128v174q0 90 -55.5 141t-169.5 51h-102v107h73 q108 0 159.5 50t51.5 136v174q0 145 -170 145h-223q-170 0 -170 -145l-2 -1112h-119z" />
<glyph unicode="&#xe0;" horiz-adv-x="993" d="M119 291v26q0 71 19.5 126t52 90t81.5 57.5t100.5 32t116.5 9.5t123.5 -5.5t126.5 -16.5v129q0 90 -68.5 129t-197.5 39q-125 0 -297 -55v119q152 49 307 49q207 0 293 -79t86 -245v-667q-245 -46 -346 -52q-258 -15 -346 113q-51 75 -51 201zM240 297q0 -55 14.5 -95 t39 -63.5t60.5 -37t74.5 -17t86 -0.5t90 8.5t91.5 13.5q29 5 43 7v385q-176 27 -229 29q-191 9 -246 -95q-24 -47 -24 -119v-16zM348 1268v129l297 -199v-129z" />
<glyph unicode="&#xe1;" horiz-adv-x="993" d="M119 291v26q0 71 19.5 126t52 90t81.5 57.5t100.5 32t116.5 9.5t123.5 -5.5t126.5 -16.5v129q0 90 -68.5 129t-197.5 39q-125 0 -297 -55v119q152 49 307 49q207 0 293 -79t86 -245v-667q-245 -46 -346 -52q-258 -15 -346 113q-51 75 -51 201zM240 297q0 -55 14.5 -95 t39 -63.5t60.5 -37t74.5 -17t86 -0.5t90 8.5t91.5 13.5q29 5 43 7v385q-176 27 -229 29q-191 9 -246 -95q-24 -47 -24 -119v-16zM348 1069v129l297 199v-129z" />
<glyph unicode="&#xe2;" horiz-adv-x="993" d="M119 291v26q0 71 19.5 126t52 90t81.5 57.5t100.5 32t116.5 9.5t123.5 -5.5t126.5 -16.5v129q0 90 -68.5 129t-197.5 39q-125 0 -297 -55v119q152 49 307 49q207 0 293 -79t86 -245v-667q-245 -46 -346 -52q-258 -15 -346 113q-51 75 -51 201zM240 297q0 -55 14.5 -95 t39 -63.5t60.5 -37t74.5 -17t86 -0.5t90 8.5t91.5 13.5q29 5 43 7v385q-176 27 -229 29q-191 9 -246 -95q-24 -47 -24 -119v-16zM283 1124v111l211 137l215 -141v-109l-215 131z" />
<glyph unicode="&#xe3;" horiz-adv-x="993" d="M119 291v26q0 71 19.5 126t52 90t81.5 57.5t100.5 32t116.5 9.5t123.5 -5.5t126.5 -16.5v129q0 90 -68.5 129t-197.5 39q-125 0 -297 -55v119q152 49 307 49q207 0 293 -79t86 -245v-667q-245 -46 -346 -52q-258 -15 -346 113q-51 75 -51 201zM219 1202q106 148 279 68 q36 -16 57 -22.5t50.5 -10t55.5 8t52 38.5l59 -53q-94 -149 -274 -68q-48 22 -80 29.5t-70.5 -3t-75.5 -46.5zM240 297q0 -55 14.5 -95t39 -63.5t60.5 -37t74.5 -17t86 -0.5t90 8.5t91.5 13.5q29 5 43 7v385q-176 27 -229 29q-191 9 -246 -95q-24 -47 -24 -119v-16z" />
<glyph unicode="&#xe4;" horiz-adv-x="993" d="M119 291v26q0 71 19.5 126t52 90t81.5 57.5t100.5 32t116.5 9.5t123.5 -5.5t126.5 -16.5v129q0 90 -68.5 129t-197.5 39q-125 0 -297 -55v119q152 49 307 49q207 0 293 -79t86 -245v-667q-245 -46 -346 -52q-258 -15 -346 113q-51 75 -51 201zM240 297q0 -55 14.5 -95 t39 -63.5t60.5 -37t74.5 -17t86 -0.5t90 8.5t91.5 13.5q29 5 43 7v385q-176 27 -229 29q-191 9 -246 -95q-24 -47 -24 -119v-16zM260 1159q0 27 16.5 44.5t42.5 17.5t44 -18t18 -44t-17.5 -42.5t-44.5 -16.5q-26 0 -42.5 16.5t-16.5 42.5zM612 1159q0 26 17 44t43 18 t43.5 -18t17.5 -44t-17.5 -42.5t-43.5 -16.5t-43 16.5t-17 42.5z" />
<glyph unicode="&#xe5;" horiz-adv-x="993" d="M119 291v26q0 71 19.5 126t52 90t81.5 57.5t100.5 32t116.5 9.5t123.5 -5.5t126.5 -16.5v129q0 90 -68.5 129t-197.5 39q-125 0 -297 -55v119q152 49 307 49q207 0 293 -79t86 -245v-667q-245 -46 -346 -52q-258 -15 -346 113q-51 75 -51 201zM240 297q0 -55 14.5 -95 t39 -63.5t60.5 -37t74.5 -17t86 -0.5t90 8.5t91.5 13.5q29 5 43 7v385q-176 27 -229 29q-191 9 -246 -95q-24 -47 -24 -119v-16zM362 1239q0 57 36 93t98 36t97.5 -36t35.5 -93q0 -56 -36 -93.5t-97 -37.5t-97.5 37.5t-36.5 93.5zM430 1239q0 -30 18 -50t48 -20t46.5 20 t16.5 50q0 32 -16.5 51t-46.5 19t-48 -19.5t-18 -50.5z" />
<glyph unicode="&#xe6;" horiz-adv-x="1617" d="M119 291v26q0 71 19.5 126t52 90t81.5 57.5t100.5 32t116.5 9.5t123.5 -5.5t126.5 -16.5v129q0 90 -68.5 129t-197.5 39q-125 0 -297 -55v119q152 49 307 49q248 0 328 -121q92 119 303 119q102 0 174.5 -27t113 -78t58 -114t17.5 -144v-192h-615v-207q15 -89 76 -130.5 t182 -41.5q136 0 312 45v-102q-146 -47 -320 -47q-162 0 -250 63v-14q-245 -46 -346 -52q-258 -15 -346 113q-51 75 -51 201zM240 297q0 -55 14.5 -95t39 -63.5t60.5 -37t74.5 -17t86 -0.5t90 8.5t91.5 13.5q29 5 43 7v385q-176 27 -229 29q-191 9 -246 -95 q-24 -47 -24 -119v-16zM860 725q0 -5 1 -14.5t1 -14.5v-127h498v90q0 125 -56.5 190.5t-189.5 65.5q-222 0 -254 -190z" />
<glyph unicode="&#xe7;" horiz-adv-x="862" d="M113 297v401q0 150 75 227.5t246 92.5q191 10 350 -29l2 -112q-133 34 -282 34t-211 -47.5t-62 -154.5v-422q0 -104 63 -154.5t210 -50.5q111 0 282 47l-2 -115q-142 -37 -288 -37l-11 -51h29q166 -10 158 -157q-4 -65 -53.5 -96.5t-118.5 -34.5q-72 -2 -162 18v55 q92 -23 164 -20q51 2 81 23.5t31 60.5q1 13 -1.5 26t-11.5 30.5t-33.5 28.5t-61.5 11h-92l22 106h-2q-171 15 -246 92.5t-75 227.5z" />
<glyph unicode="&#xe8;" horiz-adv-x="980" d="M123 342v313q0 363 373 363q102 0 174.5 -27t112.5 -78t57.5 -114t17.5 -144v-192h-620v-125q0 -133 59.5 -193.5t204.5 -60.5q135 0 311 45v-102q-146 -47 -319 -47q-200 0 -285.5 94t-85.5 268zM238 569h503v90q0 125 -56 190.5t-189 65.5q-258 0 -258 -256v-90z M342 1268v129l297 -199v-129z" />
<glyph unicode="&#xe9;" horiz-adv-x="980" d="M123 342v313q0 363 373 363q102 0 174.5 -27t112.5 -78t57.5 -114t17.5 -144v-192h-620v-125q0 -133 59.5 -193.5t204.5 -60.5q135 0 311 45v-102q-146 -47 -319 -47q-200 0 -285.5 94t-85.5 268zM238 569h503v90q0 125 -56 190.5t-189 65.5q-258 0 -258 -256v-90z M342 1069v129l297 199v-129z" />
<glyph unicode="&#xea;" horiz-adv-x="980" d="M123 342v313q0 363 373 363q102 0 174.5 -27t112.5 -78t57.5 -114t17.5 -144v-192h-620v-125q0 -133 59.5 -193.5t204.5 -60.5q135 0 311 45v-102q-146 -47 -319 -47q-200 0 -285.5 94t-85.5 268zM238 569h503v90q0 125 -56 190.5t-189 65.5q-258 0 -258 -256v-90z M276 1124v111l211 137l215 -141v-109l-215 131z" />
<glyph unicode="&#xeb;" horiz-adv-x="980" d="M123 342v313q0 363 373 363q102 0 174.5 -27t112.5 -78t57.5 -114t17.5 -144v-192h-620v-125q0 -133 59.5 -193.5t204.5 -60.5q135 0 311 45v-102q-146 -47 -319 -47q-200 0 -285.5 94t-85.5 268zM238 569h503v90q0 125 -56 190.5t-189 65.5q-258 0 -258 -256v-90z M254 1159q0 27 16.5 44.5t42.5 17.5t44 -18t18 -44t-17.5 -42.5t-44.5 -16.5q-26 0 -42.5 16.5t-16.5 42.5zM606 1159q0 26 17 44t43 18t43.5 -18t17.5 -44t-17.5 -42.5t-43.5 -16.5t-43 16.5t-17 42.5z" />
<glyph unicode="&#xec;" horiz-adv-x="466" d="M86 1268v129l297 -199v-129zM174 0v997h119v-997h-119z" />
<glyph unicode="&#xed;" horiz-adv-x="466" d="M86 1069v129l297 199v-129zM174 0v997h119v-997h-119z" />
<glyph unicode="&#xee;" horiz-adv-x="466" d="M20 1124v111l211 137l215 -141v-109l-215 131zM174 0v997h119v-997h-119z" />
<glyph unicode="&#xef;" horiz-adv-x="466" d="M-2 1159q0 27 16.5 44.5t42.5 17.5t44 -18t18 -44t-17.5 -42.5t-44.5 -16.5q-26 0 -42.5 16.5t-16.5 42.5zM174 0v997h119v-997h-119zM350 1159q0 26 17 44t43 18t43.5 -18t17.5 -44t-17.5 -42.5t-43.5 -16.5t-43 16.5t-17 42.5z" />
<glyph unicode="&#xf0;" horiz-adv-x="1050" d="M133 342v242q0 185 96.5 273.5t268.5 88.5q164 0 290 -96q-3 211 -167 336l-175 -135l-47 63l150 123q-78 49 -205 94v103q169 -56 289 -131l131 104l53 -66l-115 -90q205 -172 205 -487v-422q0 -165 -93.5 -263.5t-293.5 -98.5t-293.5 98.5t-93.5 263.5zM252 338 q0 -127 65 -189.5t203 -62.5t203 62.5t65 189.5v379q-38 49 -116 86t-164 37q-137 0 -196.5 -61.5t-59.5 -190.5v-250z" />
<glyph unicode="&#xf1;" horiz-adv-x="1067" d="M164 0v948q33 10 73 20.5t105.5 25t127.5 20.5t132 8t128 -13t106 -42t75 -79t27 -124v-764h-119v774q0 69 -66.5 102t-159 31t-178 -16.5t-136.5 -34.5v-856h-115zM256 1202q106 148 279 68q36 -16 57 -22.5t50.5 -10t55.5 8t52 38.5l59 -53q-94 -149 -274 -68 q-48 22 -80 29.5t-70.5 -3t-75.5 -46.5z" />
<glyph unicode="&#xf2;" horiz-adv-x="1019" d="M90 348v289q0 79 22 144.5t67.5 117t122.5 81.5t179 32h47q102 -2 179 -32t123 -81.5t68 -117t22 -144.5v-289q0 -166 -96 -268.5t-296 -106.5h-51q-102 2 -178.5 31.5t-121 81t-66 117t-21.5 145.5zM205 340q0 -250 268 -256h64q268 6 268 256v301q0 124 -68.5 190.5 t-199.5 69.5h-64q-131 -3 -199.5 -69.5t-68.5 -190.5v-301zM360 1268v129l297 -199v-129z" />
<glyph unicode="&#xf3;" horiz-adv-x="1019" d="M90 348v289q0 79 22 144.5t67.5 117t122.5 81.5t179 32h47q102 -2 179 -32t123 -81.5t68 -117t22 -144.5v-289q0 -166 -96 -268.5t-296 -106.5h-51q-102 2 -178.5 31.5t-121 81t-66 117t-21.5 145.5zM205 340q0 -250 268 -256h64q268 6 268 256v301q0 124 -68.5 190.5 t-199.5 69.5h-64q-131 -3 -199.5 -69.5t-68.5 -190.5v-301zM360 1069v129l297 199v-129z" />
<glyph unicode="&#xf4;" horiz-adv-x="1019" d="M90 348v289q0 79 22 144.5t67.5 117t122.5 81.5t179 32h47q102 -2 179 -32t123 -81.5t68 -117t22 -144.5v-289q0 -166 -96 -268.5t-296 -106.5h-51q-102 2 -178.5 31.5t-121 81t-66 117t-21.5 145.5zM205 340q0 -250 268 -256h64q268 6 268 256v301q0 124 -68.5 190.5 t-199.5 69.5h-64q-131 -3 -199.5 -69.5t-68.5 -190.5v-301zM297 1124v111l211 137l215 -141v-109l-215 131z" />
<glyph unicode="&#xf5;" horiz-adv-x="1019" d="M90 348v289q0 79 22 144.5t67.5 117t122.5 81.5t179 32h47q102 -2 179 -32t123 -81.5t68 -117t22 -144.5v-289q0 -166 -96 -268.5t-296 -106.5h-51q-102 2 -178.5 31.5t-121 81t-66 117t-21.5 145.5zM205 340q0 -250 268 -256h64q268 6 268 256v301q0 124 -68.5 190.5 t-199.5 69.5h-64q-131 -3 -199.5 -69.5t-68.5 -190.5v-301zM233 1202q106 148 279 68q36 -16 57 -22.5t50.5 -10t55.5 8t52 38.5l59 -53q-94 -149 -274 -68q-36 17 -60.5 24.5t-53.5 8.5t-56 -12t-55 -41z" />
<glyph unicode="&#xf6;" horiz-adv-x="1019" d="M90 348v289q0 79 22 144.5t67.5 117t122.5 81.5t179 32h47q102 -2 179 -32t123 -81.5t68 -117t22 -144.5v-289q0 -166 -96 -268.5t-296 -106.5h-51q-102 2 -178.5 31.5t-121 81t-66 117t-21.5 145.5zM205 340q0 -250 268 -256h64q268 6 268 256v301q0 124 -68.5 190.5 t-199.5 69.5h-64q-131 -3 -199.5 -69.5t-68.5 -190.5v-301zM272 1159q0 26 17 44t43 18t43.5 -18t17.5 -44t-17.5 -42.5t-43.5 -16.5t-43 16.5t-17 42.5zM625 1159q0 27 16.5 44.5t42.5 17.5t43.5 -18t17.5 -44t-17.5 -42.5t-43.5 -16.5t-42.5 16.5t-16.5 42.5z" />
<glyph unicode="&#xf7;" horiz-adv-x="1159" d="M164 444v107h831v-107h-831zM520 170q0 26 19 44.5t45 18.5t44.5 -18.5t18.5 -44.5t-18.5 -45t-44.5 -19t-45 19t-19 45zM520 819q0 26 19 45t45 19t44.5 -19t18.5 -45t-18.5 -44.5t-44.5 -18.5t-45 18.5t-19 44.5z" />
<glyph unicode="&#xf8;" horiz-adv-x="1019" d="M123 342v313q0 165 93.5 264t293.5 99q138 0 233 -53l54 90h100l-88 -144q88 -91 88 -256v-313q0 -165 -93.5 -263.5t-293.5 -98.5q-142 0 -234 53l-49 -82h-98l80 133q-86 93 -86 258zM242 338q0 -90 30 -148l414 680q-65 41 -176 41q-138 0 -203 -62.5t-65 -189.5v-321 zM334 127q61 -41 176 -41q138 0 203 62.5t65 189.5v321q0 92 -33 148z" />
<glyph unicode="&#xf9;" horiz-adv-x="1067" d="M164 233v764l117 -2v-772q0 -69 67 -102t160.5 -31t179.5 16.5t137 34.5v856h113v-948q-33 -10 -73 -20.5t-105.5 -25t-127.5 -20.5t-132 -8t-128 13t-106 42t-75 79t-27 124zM385 1268v129l297 -199v-129z" />
<glyph unicode="&#xfa;" horiz-adv-x="1067" d="M164 233v764l117 -2v-772q0 -69 67 -102t160.5 -31t179.5 16.5t137 34.5v856h113v-948q-33 -10 -73 -20.5t-105.5 -25t-127.5 -20.5t-132 -8t-128 13t-106 42t-75 79t-27 124zM385 1069v129l297 199v-129z" />
<glyph unicode="&#xfb;" horiz-adv-x="1067" d="M164 233v764l117 -2v-772q0 -69 67 -102t160.5 -31t179.5 16.5t137 34.5v856h113v-948q-33 -10 -73 -20.5t-105.5 -25t-127.5 -20.5t-132 -8t-128 13t-106 42t-75 79t-27 124zM319 1124v111l211 137l215 -141v-109l-215 131z" />
<glyph unicode="&#xfc;" horiz-adv-x="1067" d="M164 233v764l117 -2v-772q0 -69 67 -102t160.5 -31t179.5 16.5t137 34.5v856h113v-948q-33 -10 -73 -20.5t-105.5 -25t-127.5 -20.5t-132 -8t-128 13t-106 42t-75 79t-27 124zM297 1159q0 27 16.5 44.5t42.5 17.5t44 -18t18 -44t-17.5 -42.5t-44.5 -16.5 q-26 0 -42.5 16.5t-16.5 42.5zM649 1159q0 26 17 44t43 18t43.5 -18t17.5 -44t-17.5 -42.5t-43.5 -16.5t-43 16.5t-17 42.5z" />
<glyph unicode="&#xfd;" horiz-adv-x="1005" d="M129 299v698h117v-692q0 -64 17.5 -108.5t60 -65.5t76 -32.5t103.5 -7.5t102.5 8t110.5 16q27 4 40 6v876h116v-1095q0 -166 -85.5 -245t-292.5 -79q-156 0 -308 49v115q172 -55 297 -55q273 0 273 168v151q-80 -13 -148 -18t-143 -3t-132.5 21.5t-105 54t-73 95 t-25.5 143.5zM354 1069v129l297 199v-129z" />
<glyph unicode="&#xfe;" horiz-adv-x="1060" d="M166 -217l2 1726h123v-344q69 12 126.5 18.5t123.5 7.5t117 -7.5t100 -29.5t81.5 -55t52 -88.5t19.5 -125.5v-416q0 -67 -13.5 -119.5t-41 -87t-61 -58.5t-81.5 -35t-93.5 -15.5t-106 0.5t-111 11.5t-114.5 18.5v-401h-123zM291 295q179 -28 233 -31q189 -10 244 93 q25 47 25 120v395q0 64 -17.5 108t-62 64.5t-76.5 32t-107 5.5t-104.5 -10t-114.5 -18q-13 -2 -20 -3v-756z" />
<glyph unicode="&#xff;" horiz-adv-x="1005" d="M129 299v698h117v-692q0 -64 17.5 -108.5t60 -65.5t76 -32.5t103.5 -7.5t102.5 8t110.5 16q27 4 40 6v876h116v-1095q0 -166 -85.5 -245t-292.5 -79q-156 0 -308 49v115q172 -55 297 -55q273 0 273 168v151q-80 -13 -148 -18t-143 -3t-132.5 21.5t-105 54t-73 95 t-25.5 143.5zM266 1159q0 26 17 44t43 18t43.5 -18t17.5 -44t-17.5 -42.5t-43.5 -16.5t-43 16.5t-17 42.5zM618 1159q0 26 17 44t43 18t43.5 -18t17.5 -44t-17.5 -42.5t-43.5 -16.5t-43 16.5t-17 42.5z" />
<glyph unicode="&#x152;" horiz-adv-x="1886" d="M141 377v610q0 79 22 144.5t67.5 117t122.5 81.5t179 32l1203 2v-109h-648v-505h603v-109h-603v-532h650v-109h-770v2h-439q-102 2 -178.5 31.5t-121 81t-66 117t-21.5 145.5zM256 369q0 -250 268 -256h443v1138h-443q-131 -3 -199.5 -69.5t-68.5 -190.5v-622z" />
<glyph unicode="&#x153;" horiz-adv-x="1642" d="M109 348v289q0 79 22 144.5t67.5 117t122.5 81.5t179 32h28q228 -6 326 -144q86 150 324 150q102 0 174.5 -27t112.5 -78t57.5 -114t17.5 -144v-192h-620v-115v-16q0 -129 60 -188.5t204 -59.5q135 0 311 45v-102q-146 -47 -319 -47q-236 0 -320 139q-100 -140 -328 -146 h-32q-102 2 -178.5 31.5t-121 81t-66 117t-21.5 145.5zM223 340q0 -250 269 -256h45q268 6 268 256v2v311q-3 118 -71.5 181.5t-196.5 66.5h-45q-131 -3 -200 -69.5t-69 -190.5v-301zM920 569h503v90q0 125 -56 190.5t-189 65.5q-258 0 -258 -256v-8v-14v-68z" />
<glyph unicode="&#x178;" horiz-adv-x="1112" d="M31 1364h125l399 -823l401 823h125l-465 -944v-420h-120v420zM319 1526q0 26 17 43.5t43 17.5t43.5 -17.5t17.5 -43.5t-17.5 -43t-43.5 -17t-43 17t-17 43zM672 1526q0 26 16.5 43.5t42.5 17.5t44 -17.5t18 -43.5t-18 -43t-44 -17t-42.5 17t-16.5 43z" />
<glyph unicode="&#x2c6;" horiz-adv-x="813" d="M197 1124v111l211 137l215 -141v-109l-215 131z" />
<glyph unicode="&#x2dc;" horiz-adv-x="839" d="M143 1202q106 148 279 68q36 -16 57 -22.5t50.5 -10t55.5 8t52 38.5l59 -53q-94 -149 -274 -68q-36 17 -60.5 24.5t-53.5 8.5t-56 -12t-55 -41z" />
<glyph unicode="&#x2000;" horiz-adv-x="881" />
<glyph unicode="&#x2001;" horiz-adv-x="1763" />
<glyph unicode="&#x2002;" horiz-adv-x="881" />
<glyph unicode="&#x2003;" horiz-adv-x="1763" />
<glyph unicode="&#x2004;" horiz-adv-x="587" />
<glyph unicode="&#x2005;" horiz-adv-x="440" />
<glyph unicode="&#x2006;" horiz-adv-x="293" />
<glyph unicode="&#x2007;" horiz-adv-x="293" />
<glyph unicode="&#x2008;" horiz-adv-x="220" />
<glyph unicode="&#x2009;" horiz-adv-x="352" />
<glyph unicode="&#x200a;" horiz-adv-x="97" />
<glyph unicode="&#x2010;" horiz-adv-x="741" d="M133 524v101h475v-101h-475z" />
<glyph unicode="&#x2011;" horiz-adv-x="741" d="M133 524v101h475v-101h-475z" />
<glyph unicode="&#x2012;" horiz-adv-x="741" d="M133 524v101h475v-101h-475z" />
<glyph unicode="&#x2013;" horiz-adv-x="1015" d="M154 524v101h708v-101h-708z" />
<glyph unicode="&#x2014;" horiz-adv-x="1282" d="M154 524v101h974v-101h-974z" />
<glyph unicode="&#x2018;" horiz-adv-x="411" d="M164 1204q0 60 43 158h51l-25 -94q25 -1 41.5 -20t16.5 -44q0 -26 -19 -44.5t-45 -18.5t-44.5 18.5t-18.5 44.5z" />
<glyph unicode="&#x2019;" horiz-adv-x="407" d="M141 1298q0 26 19 45t45 19t44.5 -19t18.5 -45q0 -59 -43 -157h-51l25 94q-25 1 -41.5 19.5t-16.5 43.5z" />
<glyph unicode="&#x201a;" horiz-adv-x="440" d="M143 63q0 26 19 45t45 19t44.5 -19t18.5 -45q0 -59 -43 -157h-51l25 94q-25 1 -41.5 19.5t-16.5 43.5z" />
<glyph unicode="&#x201c;" horiz-adv-x="622" d="M164 1204q0 60 43 158h51l-25 -94q25 -1 41.5 -20t16.5 -44q0 -26 -19 -44.5t-45 -18.5t-44.5 18.5t-18.5 44.5zM360 1204q0 60 43 158h52l-25 -94q24 -1 40.5 -20t16.5 -44q0 -26 -18.5 -44.5t-44.5 -18.5t-45 18.5t-19 44.5z" />
<glyph unicode="&#x201d;" horiz-adv-x="661" d="M137 1298q0 26 19 45t45 19t44.5 -19t18.5 -45q0 -59 -43 -157h-51l25 94q-25 1 -41.5 19.5t-16.5 43.5zM334 1298q0 26 18.5 45t44.5 19t45 -19t19 -45q0 -59 -43 -157h-51l24 94q-25 1 -41 19.5t-16 43.5z" />
<glyph unicode="&#x201e;" horiz-adv-x="643" d="M143 63q0 26 19 45t45 19t44.5 -19t18.5 -45q0 -59 -43 -157h-51l25 94q-25 1 -41.5 19.5t-16.5 43.5zM371 63q0 26 18.5 45t44.5 19t45 -19t19 -45q0 -59 -43 -157h-52l25 94q-25 1 -41 19.5t-16 43.5z" />
<glyph unicode="&#x2022;" horiz-adv-x="782" d="M154 610q0 98 69.5 168t167.5 70t168 -70t70 -168t-70 -167.5t-168 -69.5t-167.5 69.5t-69.5 167.5z" />
<glyph unicode="&#x2026;" horiz-adv-x="1234" d="M244 63q0 26 18.5 45t44.5 19t45 -19t19 -45t-19 -44.5t-45 -18.5t-44.5 18.5t-18.5 44.5zM549 63q0 26 18.5 45t44.5 19t45 -19t19 -45t-19 -44.5t-45 -18.5t-44.5 18.5t-18.5 44.5zM870 63q0 26 19 45t45 19t44.5 -19t18.5 -45t-18.5 -44.5t-44.5 -18.5t-45 18.5 t-19 44.5z" />
<glyph unicode="&#x202f;" horiz-adv-x="352" />
<glyph unicode="&#x2039;" horiz-adv-x="598" d="M113 500l221 334h131l-221 -334l217 -328h-133z" />
<glyph unicode="&#x203a;" horiz-adv-x="598" d="M133 834h131l221 -334l-217 -328h-131l217 328z" />
<glyph unicode="&#x205f;" horiz-adv-x="440" />
<glyph unicode="&#x20ac;" horiz-adv-x="1048" d="M57 477v113h97v178h-97v113h97v108q0 197 106 296t346 99q156 0 312 -28v-107q-155 27 -302 27q-187 0 -264.5 -65t-77.5 -224v-106h469v-113h-469v-178h469v-113h-469v-100q0 -159 77.5 -224t264.5 -65q147 0 302 27v-109q-162 -26 -312 -26q-240 0 -346 99t-106 296 v102h-97z" />
<glyph unicode="&#x2122;" horiz-adv-x="1505" d="M131 1309v53h481v-53h-211v-629h-59v629h-211zM721 680v682h94l211 -637l211 637h92v-682h-57v618l-199 -610h-94l-199 610v-618h-59z" />
<glyph unicode="&#x25fc;" horiz-adv-x="993" d="M0 0v993h993v-993h-993z" />
</font>
</defs>
</svg>
