<?xml version="1.0" standalone="no"?>
<!DOCTYPE svg PUBLIC "-//W3C//DTD SVG 1.1//EN" "http://www.w3.org/Graphics/SVG/1.1/DTD/svg11.dtd" >
<svg xmlns="http://www.w3.org/2000/svg" xmlns:xlink="http://www.w3.org/1999/xlink" version="1.1">
<metadata></metadata>
<defs>
<font id="deria_sansmedium" horiz-adv-x="1075" >
<font-face units-per-em="2048" ascent="1638" descent="-410" />
<missing-glyph horiz-adv-x="430" />
<glyph horiz-adv-x="0" />
<glyph horiz-adv-x="682" />
<glyph unicode=" "  horiz-adv-x="430" />
<glyph unicode="&#x09;" horiz-adv-x="430" />
<glyph unicode="&#xa0;" horiz-adv-x="430" />
<glyph unicode="!" horiz-adv-x="581" d="M162 127q0 54 37.5 92.5t91.5 38.5t92.5 -38.5t38.5 -92.5t-38.5 -91.5t-92.5 -37.5t-91.5 37.5t-37.5 91.5zM166 412v950h250v-950h-250z" />
<glyph unicode="&#x22;" horiz-adv-x="792" d="M123 899v506h178v-506h-178zM492 899v506h178v-506h-178z" />
<glyph unicode="#" horiz-adv-x="1200" d="M66 346l16 172h184l27 305h-184l14 172h184l33 367h172l-33 -367h281l33 367h172l-33 -367h194l-14 -172h-194l-27 -305h194l-16 -172h-195l-30 -346h-172l30 346h-280l-31 -346h-172l31 346h-184zM438 518h281l26 305h-280z" />
<glyph unicode="$" d="M84 987q0 89 18.5 158t60.5 124.5t117 87.5t181 38v137h205v-141q137 -9 270 -29v-211q-243 35 -404 35q-112 0 -164 -49t-55 -152q2 -41 11 -72t20.5 -51t32 -33.5t39 -20.5t47.5 -10.5t51.5 -4t57.5 -2t59 -3.5q99 -8 171 -35.5t114.5 -64.5t67 -91.5t32.5 -106.5 t8 -121q0 -150 -85.5 -255t-272.5 -130v-174h-205v172q-71 3 -197 15t-166 15v215q25 -3 96.5 -13.5t108 -15.5t95 -9.5t108.5 -4.5q28 0 45.5 0.5t51.5 4.5t56 12t50.5 24t45 38t28.5 57.5t12 80.5q-4 59 -27.5 98.5t-64.5 59t-84.5 26.5t-104.5 7q-108 2 -186.5 24 t-124.5 56t-73.5 86t-36.5 105t-9 124z" />
<glyph unicode="%" horiz-adv-x="1855" d="M100 862v232q0 132 77 214t237 85h45q160 -3 236.5 -85t76.5 -214v-232q0 -133 -76.5 -214.5t-236.5 -84.5h-45q-160 3 -237 84.5t-77 214.5zM293 887q0 -65 32 -97.5t99 -35.5h25q131 6 131 133v184q0 128 -131 131h-25q-131 -3 -131 -131v-184zM580 -4l499 1370h187 l-500 -1370h-186zM1081 289v231q0 132 77 214t237 85h45q160 -3 236.5 -85t76.5 -214v-231q0 -133 -76.5 -214.5t-236.5 -84.5h-45q-160 3 -237 84.5t-77 214.5zM1274 311q0 -128 131 -131h25q131 3 131 131v185q0 127 -131 133h-25q-131 -6 -131 -133v-185z" />
<glyph unicode="&#x26;" horiz-adv-x="1449" d="M98 326v106q0 197 127 295q-84 90 -84 244v84q0 79 22 144.5t67.5 117t122.5 81.5t179 32h82q102 -2 179 -32t123 -81.5t68 -117t22 -144.5v-84q0 -176 -99 -269q105 -96 105 -270v-110h-226v94q0 84 -42.5 130t-125.5 50h-114q-89 -1 -134.5 -47t-45.5 -133v-74 q0 -176 180 -182h457q180 6 180 182v170h225v-186q0 -166 -95.5 -268.5t-295.5 -106.5h-486q-200 4 -295.5 106.5t-95.5 268.5zM367 987q0 -171 168 -180h77q168 9 168 180v51q0 87 -45.5 133.5t-134.5 47.5h-51q-90 -1 -136 -47.5t-46 -133.5v-51z" />
<glyph unicode="'" horiz-adv-x="423" d="M123 899v506h178v-506h-178z" />
<glyph unicode="(" horiz-adv-x="686" d="M143 623q0 453 238 827h262q-136 -220 -201 -407t-65 -420t65.5 -421t202.5 -411l-4 -2h-256q-242 367 -242 834z" />
<glyph unicode=")" horiz-adv-x="686" d="M41 -209q137 223 202.5 411t65.5 421q0 229 -64 414t-198 405h262q234 -370 234 -819q0 -461 -244 -834h-256z" />
<glyph unicode="*" horiz-adv-x="1028" d="M152 956l210 121l-210 121l69 121l211 -123v244h137v-244l211 123l70 -121l-209 -121l209 -121l-70 -120l-211 120v-241h-137v241l-211 -120z" />
<glyph unicode="+" d="M137 399v197h297v305h207v-305h297v-197h-297v-303h-207v303h-297z" />
<glyph unicode="," horiz-adv-x="561" d="M133 141q0 61 43.5 104.5t104.5 43.5q62 0 105.5 -43.5t43.5 -104.5q-2 -4 0 -12.5t-4 -38.5t-14.5 -64.5t-31 -92t-54.5 -119.5h-99l72 182q-6 -2 -18 -2q-62 0 -105 43t-43 104z" />
<glyph unicode="-" horiz-adv-x="761" d="M123 469v209h516v-209h-516z" />
<glyph unicode="." horiz-adv-x="561" d="M133 141q0 61 43.5 104.5t104.5 43.5t104 -43t43 -105q0 -61 -43 -104t-104 -43q-62 0 -105 43t-43 104z" />
<glyph unicode="/" horiz-adv-x="940" d="M186 0l426 1362h228l-428 -1362h-226z" />
<glyph unicode="0" horiz-adv-x="1146" d="M98 379v610q0 82 22.5 148.5t70 120t129.5 83.5t194 31h121q112 -1 194 -31t129.5 -83.5t70 -120t22.5 -148.5v-610q0 -82 -22.5 -148.5t-70 -120t-129.5 -83.5t-194 -31h-121q-112 1 -194 31t-129.5 83.5t-70 120t-22.5 148.5zM326 406q0 -99 47.5 -147t158.5 -48h84 q111 0 159 48.5t48 146.5v557q0 98 -48 146t-159 48h-84q-111 0 -158.5 -48t-47.5 -146v-557z" />
<glyph unicode="1" horiz-adv-x="966" d="M215 1055v229l250 80h225v-1366h-250v1122z" />
<glyph unicode="2" horiz-adv-x="1118" d="M96 -2l2 328q0 68 8 121t33 107t67 91t114.5 64.5t171.5 35.5q26 2 67 3.5t65 3t56 6.5t51 17t37.5 32.5t28 54t12.5 80.5q-3 103 -55 152t-164 49q-161 0 -404 -35v211q227 35 422 35q98 0 172.5 -19.5t123 -54.5t79 -87.5t43 -112.5t12.5 -136q0 -71 -9 -124 t-36.5 -105t-73.5 -86t-124.5 -56t-186.5 -24q-48 0 -84.5 -4t-73 -16t-61 -32.5t-41.5 -55.5t-20 -83v-143h684v-217h-916z" />
<glyph unicode="3" d="M162 63l2 197q171 -53 319 -53q48 1 81 5t65.5 15.5t51.5 32t30.5 55t11.5 82.5q0 109 -48.5 146t-185.5 37h-243v200h237q142 0 191 35.5t49 142.5q0 49 -13 85t-33.5 57t-53 34t-65 17t-75.5 4q-148 0 -319 -53l-2 198q193 62 358 62q122 0 207.5 -28t133.5 -82.5 t68.5 -124.5t20.5 -164q0 -201 -108 -283q58 -44 83 -112t25 -167q0 -94 -20.5 -164t-68.5 -124.5t-133.5 -82.5t-207.5 -28q-168 0 -358 61z" />
<glyph unicode="4" d="M45 184v228l471 950h350v-969h158v-209h-158v-184h-241v184h-580zM297 393h328v692z" />
<glyph unicode="5" d="M162 27v196q137 -28 311 -28q118 0 163.5 40.5t45.5 118.5v105q0 54 -12.5 84t-51.5 48.5t-114 22.5q-142 7 -330 7v729h719v-203h-485v-330q126 -3 204 -8q81 -4 141.5 -31t94.5 -69.5t50 -91.5t17 -105v-172q0 -79 -20.5 -139t-68.5 -109.5t-136.5 -75.5t-214.5 -26 q-156 0 -313 37z" />
<glyph unicode="6" d="M133 344v551q0 229 118 345t341 116q161 0 309 -51v-203q-119 55 -272 55q-146 0 -204 -60.5t-58 -201.5v-111q113 37 247 37q178 0 263.5 -81.5t85.5 -254.5v-104q0 -72 -10 -127t-37.5 -106.5t-73 -84.5t-119.5 -53t-174 -20q-118 0 -201 26t-129 75.5t-66 111 t-20 141.5zM367 350q0 -89 41 -123t141 -34q104 0 143 35t39 122v129q0 76 -35.5 107.5t-113.5 31.5q-124 0 -215 -43v-225z" />
<glyph unicode="7" d="M115 1143v215h862v-213l-541 -1145h-258l537 1143h-600z" />
<glyph unicode="8" d="M104 377v6q0 198 136 299q-136 98 -136 301v6q0 79 22.5 144.5t69 117t125 81.5t183.5 32h59q105 -2 184 -32t126 -81.5t69.5 -117t22.5 -144.5v-6q0 -203 -138 -301q138 -101 138 -299v-6q0 -80 -22.5 -145.5t-69.5 -117t-126 -81t-184 -31.5h-59q-105 2 -183 31.5 t-125 81t-69.5 117t-22.5 145.5zM328 373q0 -87 47 -135t135 -48h47q90 0 136 48t46 135v14q0 86 -46 133t-136 47h-47q-88 0 -135 -47t-47 -133v-14zM328 977q0 -86 47 -133t135 -47h47q90 0 136 47t46 133v18q0 85 -46.5 133t-135.5 48h-47q-88 0 -135 -48t-47 -133v-18z " />
<glyph unicode="9" d="M133 860v105q0 72 10 127t37.5 106.5t73 84.5t119.5 53t174 20q118 0 201 -26t129 -76t66 -111.5t20 -141.5v-550q0 -229 -118 -345t-341 -116q-161 0 -309 51v203q121 -56 272 -56q146 0 204 61t58 202v110q-113 -37 -248 -37q-178 0 -263 81.5t-85 254.5zM365 866 q0 -76 35.5 -107.5t113.5 -31.5q124 0 215 43v225q0 89 -41 123.5t-141 34.5q-104 0 -143 -35.5t-39 -122.5v-129z" />
<glyph unicode=":" horiz-adv-x="561" d="M133 141q0 61 43.5 104.5t104.5 43.5t104 -43t43 -105q0 -61 -43 -104t-104 -43q-62 0 -105 43t-43 104zM133 846q0 61 43 104t105 43q61 0 104 -42.5t43 -104.5t-43 -105t-104 -43t-104.5 43t-43.5 105z" />
<glyph unicode=";" horiz-adv-x="587" d="M133 141q0 61 43.5 104.5t104.5 43.5q62 0 105.5 -43.5t43.5 -104.5q-2 -4 0 -12.5t-4 -38.5t-14.5 -64.5t-31 -92t-54.5 -119.5h-99l72 182q-6 -2 -18 -2q-62 0 -105 43t-43 104zM133 844q0 61 43 104t105 43q61 0 104 -42.5t43 -104.5t-43 -105t-104 -43t-104.5 43 t-43.5 105z" />
<glyph unicode="&#x3c;" horiz-adv-x="1024" d="M119 449v135l753 448v-201l-542 -315l542 -315v-203z" />
<glyph unicode="=" d="M166 233v173h743v-173h-743zM166 618v173h743v-173h-743z" />
<glyph unicode="&#x3e;" horiz-adv-x="1024" d="M158 0v201l540 315l-540 315v199l751 -446v-135z" />
<glyph unicode="?" horiz-adv-x="1073" d="M123 1147v211q227 35 422 35q98 0 172.5 -19.5t123 -54.5t79 -87.5t43 -112.5t12.5 -136q0 -71 -9 -124t-36.5 -105t-73.5 -86t-124.5 -56t-186.5 -24l-119 -2v-226h-201l-2 422l205 2q26 2 67 3.5t65 3t56 6.5t51 17t37.5 32.5t28 54t12.5 80.5q-3 103 -55 152t-164 49 q-160 0 -403 -35zM211 106q0 47 34 81t81 34t80.5 -34t33.5 -81t-33.5 -80.5t-80.5 -33.5t-81 33.5t-34 80.5z" />
<glyph unicode="@" horiz-adv-x="1959" d="M119 94v996q0 123 96 220t249.5 147.5t338.5 75t370.5 1.5t339 -73t249.5 -147t96 -222v-619q-2 -115 -33 -193.5t-80 -116t-116.5 -50t-134 -3.5t-142.5 33q-43 -13 -99 -25.5t-133 -22.5t-150.5 -12t-147.5 11t-129 40.5t-89.5 82.5t-34.5 133v471q0 83 39 140.5 t101 84t143 37t161 5t159.5 -19t134 -27t88.5 -25.5v-678q22 -10 44.5 -16.5t51 -10t52.5 4t44.5 24.5t32.5 54t12 89v596q0 60 -55.5 109t-146 79.5t-206 47.5t-236.5 18t-236.5 -15t-206 -46t-146 -80t-55.5 -113v-968q7 -73 85 -130t198 -87t258.5 -40.5t279.5 5 t248 53.5v-211q-127 -38 -274.5 -52t-290.5 -4t-275.5 45t-233 89.5t-160.5 136t-60 178.5zM801 399q1 -53 41 -81t100 -29.5t116 7t105 23.5v533q-49 16 -106 24t-117 6t-99.5 -31t-39.5 -85v-367z" />
<glyph unicode="A" horiz-adv-x="1245" d="M127 -2v981q0 82 22.5 148.5t70 120t129.5 83.5t194 31h159q112 -1 194 -31t129 -83.5t69 -120t22 -148.5v-981h-227v596h-535v-596h-227zM354 807h535v145q0 98 -48 146.5t-157 48.5h-123q-111 0 -159 -48.5t-48 -146.5v-145z" />
<glyph unicode="B" horiz-adv-x="1181" d="M154 0v1364h536q363 0 363 -291v-141q0 -83 -36.5 -135t-115.5 -86q94 -20 146.5 -86.5t52.5 -165.5v-146q0 -148 -95 -230.5t-278 -82.5h-573zM412 213h264q89 0 127.5 29.5t38.5 103.5v103q0 70 -34 103.5t-110 33.5h-286v-373zM412 793h245q138 0 138 127v120 q0 57 -33 84t-103 27h-247v-358z" />
<glyph unicode="C" horiz-adv-x="1069" d="M113 375v614q0 395 485 395q184 0 387 -45v-229q-228 41 -379 41q-131 0 -183 -48t-52 -159v-524q0 -111 52 -159t183 -48q140 0 379 43v-231q-221 -45 -387 -45q-485 0 -485 395z" />
<glyph unicode="D" horiz-adv-x="1236" d="M154 0v1364h508q122 0 212 -29t141 -81t75 -116t24 -141v-630q0 -76 -24 -140t-75 -116t-141 -81.5t-212 -29.5h-508zM412 227h223q125 0 173 48.5t48 152.5v508q0 104 -48 152.5t-173 48.5h-223v-910z" />
<glyph unicode="E" horiz-adv-x="1101" d="M156 0v1364h833v-227h-577v-324h532v-227h-532v-365h577v-221h-833z" />
<glyph unicode="F" horiz-adv-x="1101" d="M156 0v1364h841v-227h-585v-324h540v-227h-540v-586h-256z" />
<glyph unicode="G" horiz-adv-x="1196" d="M123 391v582q0 211 126 311t392 100q186 0 395 -49v-229q-213 45 -415 45q-131 0 -185.5 -52.5t-54.5 -160.5v-516q0 -105 54 -158t183 -53q99 0 211 16v373h-231v203h475v-762q-213 -61 -457 -61q-493 0 -493 411z" />
<glyph unicode="H" horiz-adv-x="1329" d="M154 0v1364h258v-561h506v561h258v-1364h-258v575h-506v-575h-258z" />
<glyph unicode="I" horiz-adv-x="585" d="M164 0v1364h258v-1364h-258z" />
<glyph unicode="J" horiz-adv-x="940" d="M74 -2v215h327q111 0 159 48.5t48 146.5v739h-344v215h572v-981q0 -82 -22.5 -148.5t-70 -120t-129.5 -83.5t-194 -31h-346z" />
<glyph unicode="K" horiz-adv-x="1239" d="M154 0v1364h258v-662l467 662h286l-477 -674l506 -690h-287l-495 678v-678h-258z" />
<glyph unicode="L" horiz-adv-x="1034" d="M154 0v1364h258v-1137h561v-227h-819z" />
<glyph unicode="M" horiz-adv-x="1587" d="M137 0l2 1364h324l330 -1042l331 1042h326v-1364h-233v932l-289 -907h-269l-286 907v-932h-236z" />
<glyph unicode="N" horiz-adv-x="1421" d="M154 0v1364h344l518 -1036v1036h252v-1364h-344l-518 1034v-1034h-252z" />
<glyph unicode="O" horiz-adv-x="1277" d="M123 373v620q0 82 22.5 148.5t70 120t129.5 83.5t194 31h200q112 -1 194 -31t129.5 -83.5t70 -120t22.5 -148.5v-620q0 -82 -22.5 -148.5t-70 -120t-129.5 -83.5t-194 -31h-200q-112 1 -194 31t-129.5 83.5t-70 120t-22.5 148.5zM350 399q0 -98 48 -146t159 -48h164 q111 0 159 48t48 146v568q0 98 -48 146t-159 48h-164q-111 0 -159 -48t-48 -146v-568z" />
<glyph unicode="P" horiz-adv-x="1179" d="M154 0v1364h532q230 0 331 -91.5t101 -277.5v-186q0 -183 -106 -275t-338 -92h-262v-442h-258zM412 670h260q106 0 147 39t41 127v139q0 86 -42 124t-146 38h-260v-467z" />
<glyph unicode="Q" horiz-adv-x="1277" d="M123 373v620q0 82 22.5 148.5t70 120t129.5 83.5t194 31h200q112 -1 194 -31t129.5 -83.5t70 -120t22.5 -148.5v-620q0 -115 -45 -201l143 -141l-135 -135l-145 143q-87 -46 -234 -49h-200q-112 1 -194 31t-129.5 83.5t-70 120t-22.5 148.5zM350 399q0 -98 48 -146 t159 -48h164q111 0 159 48t48 146v568q0 98 -48 146t-159 48h-164q-111 0 -159 -48t-48 -146v-568z" />
<glyph unicode="R" horiz-adv-x="1331" d="M154 0v1364h559q231 0 332.5 -91.5t101.5 -277.5v-178q0 -257 -205 -330l338 -487h-309l-314 451h-245v-451h-258zM412 674h290q104 0 145.5 39t41.5 127v135q0 87 -42.5 124.5t-144.5 37.5h-290v-463z" />
<glyph unicode="S" horiz-adv-x="1105" d="M84 987q0 76 12.5 136t43 112.5t79 87.5t123 54.5t172.5 19.5q194 0 422 -35v-211q-243 35 -404 35q-112 0 -164 -49t-55 -152q2 -41 11 -72t20.5 -51t32 -33.5t39 -20.5t47.5 -10.5t51.5 -3.5t57.5 -2t59 -4q99 -8 171 -35.5t114.5 -64.5t67 -91.5t32.5 -106.5t8 -121 q0 -80 -24 -147.5t-76 -124t-144.5 -88.5t-218.5 -32q-94 0 -270 17t-193 18v215q25 -3 96.5 -13.5t108 -15.5t95 -9.5t108.5 -4.5q28 0 45.5 0.5t51.5 4.5t56 12t50.5 24t45 38t28.5 57.5t12 80.5q-4 59 -27.5 98.5t-64.5 59t-84.5 26.5t-104.5 7q-108 2 -186.5 24 t-124.5 56t-73.5 86t-36.5 105t-9 124z" />
<glyph unicode="T" horiz-adv-x="1122" d="M51 1137v227h1020v-227h-381v-1137h-258v1137h-381z" />
<glyph unicode="U" horiz-adv-x="1294" d="M123 373v991h227v-965q0 -98 48 -146t159 -48h164q111 0 159 48t48 146v965h227v-991q0 -82 -22.5 -148.5t-70 -120t-129.5 -83.5t-194 -31h-200q-112 1 -194 31t-129.5 83.5t-70 120t-22.5 148.5z" />
<glyph unicode="V" horiz-adv-x="1228" d="M16 1364h269l329 -1137l330 1137h268l-407 -1364h-381z" />
<glyph unicode="W" horiz-adv-x="1896" d="M29 1362h235l273 -1092l272 1092h283l272 -1092l268 1092h236l-340 -1362h-326l-252 1055l-254 -1055h-323z" />
<glyph unicode="X" horiz-adv-x="1181" d="M51 0l402 694l-385 668h274l248 -430l248 430h274l-385 -668l401 -694h-274l-264 457l-264 -457h-275z" />
<glyph unicode="Y" horiz-adv-x="1159" d="M10 1364h275l295 -688l294 688h275l-440 -969v-395h-258v395z" />
<glyph unicode="Z" horiz-adv-x="1177" d="M133 0v217l631 928h-606v219h891v-219l-627 -926h633v-219h-922z" />
<glyph unicode="[" horiz-adv-x="671" d="M174 -258v1876h436v-205h-186v-1466h186v-205h-436z" />
<glyph unicode="\" horiz-adv-x="940" d="M98 1362h228l426 -1362h-226z" />
<glyph unicode="]" horiz-adv-x="671" d="M61 -53h187v1466h-187v205h437v-1876h-437v205z" />
<glyph unicode="^" horiz-adv-x="972" d="M94 858l303 547h174l306 -547h-207l-185 338l-188 -338h-203z" />
<glyph unicode="_" horiz-adv-x="899" d="M-2 -20h903v-132h-903v132z" />
<glyph unicode="`" horiz-adv-x="643" d="M59 1440h172l162 -320h-176z" />
<glyph unicode="a" horiz-adv-x="1005" d="M100 291v16q0 81 19 141t56 96.5t85 58.5q48 21 112 27q39 3 79 3q25 -1 50 -1q65 -4 146 -16v64q1 77 -43 113q-37 31 -133 31q-16 0 -33 -1q-131 -8 -276 -51v201q156 47 321 47q217 0 307.5 -79t90.5 -245v-667q-258 -46 -363 -52q-30 -2 -58 -2q-223 0 -305 113 q-55 75 -55 203zM334 285q0 -34 11.5 -58t28 -38t45 -20.5t52 -8.5t60.5 2.5t59.5 8.5t58.5 11v242q-35 7 -58.5 11t-59.5 7.5t-60.5 2t-52.5 -8.5t-44.5 -21t-28 -38t-11.5 -58v-34z" />
<glyph unicode="b" horiz-adv-x="1081" d="M145 29v1335h232v-369q71 12 129 18q54 6 110 5h9q61 0 109.5 -10t92 -33t72 -58.5t45.5 -90t17 -124.5v-411q0 -83 -26.5 -143.5t-65.5 -95.5t-108 -52.5t-128 -21.5q-20 -2 -45 -2q-46 0 -108 6q-94 8 -155.5 17.5t-162.5 26.5q-12 2 -17 3zM377 207q134 -24 199 -23 h18q137 11 137 138v350q0 38 -12.5 65.5t-30.5 43t-49 23t-58 8.5h-9q-24 0 -59 -4q-41 -5 -68 -10t-68 -14v-577z" />
<glyph unicode="c" horiz-adv-x="901" d="M98 362v273q0 203 99 293t331 90q59 0 144.5 -8t140.5 -25v-213q-46 16 -133 23.5t-145 7.5q-106 0 -146.5 -36.5t-40.5 -129.5v-277q0 -93 40 -129t147 -36q185 0 278 28v-213q-104 -30 -285 -30q-233 0 -331.5 89.5t-98.5 292.5z" />
<glyph unicode="d" horiz-adv-x="1091" d="M121 293v412q0 82 21.5 142t63 95t93 55t121.5 23q23 1 46 1q46 0 90 -4q67 -6 149 -20v365h231v-1331q-276 -47 -396 -51q-21 -1 -40 -1q-251 0 -334 130q-45 72 -45 184zM350 324q0 -43 15 -72.5t41 -43t60 -19.5q23 -4 48 -4q12 0 25 1q39 3 78.5 8.5t78.5 12.5 q6 1 9 2v577q-41 9 -68 14t-68 10q-34 4 -59 4h-9q-27 -1 -58.5 -8.5t-49.5 -23t-30.5 -43t-12.5 -65.5v-350z" />
<glyph unicode="e" horiz-adv-x="989" d="M98 365v264q0 84 20.5 150.5t66 122t128.5 86t199 30.5q93 0 163 -21.5t113 -57.5t69 -89t36 -109t10 -125v-213h-555v-51q0 -93 41.5 -130.5t153.5 -37.5q57 0 157.5 14.5t163.5 32.5v-204q-155 -47 -344 -47q-226 0 -324 98t-98 287zM348 604h318v49q0 78 -33 119 t-119 41q-166 0 -166 -160v-49z" />
<glyph unicode="f" horiz-adv-x="770" d="M51 739v199h160v139q0 157 76.5 233t240.5 76q88 0 168 -18v-201q-14 3 -29 6t-21 4t-14 2.5t-15.5 2t-17 0.5h-26.5q-68 0 -90 -28.5t-22 -92.5v-123h235v-199h-235v-739h-250v739h-160z" />
<glyph unicode="g" horiz-adv-x="1019" d="M72 707q0 66 16.5 118t45 87t71 58.5t90.5 35t107 14.5q31 2 62 2q27 0 54 -1q58 -3 123.5 -11t124 -18t121.5 -21q2 -1 3.5 -1t3 -0.5t3.5 -0.5l2 -1084q0 -83 -20 -143.5t-65 -105t-122.5 -67t-187.5 -22.5q-209 0 -363 47v201q148 -42 318 -53q13 -1 26 -1q46 0 79 9 q43 11 65 35t30.5 51.5t8.5 65.5v94q-68 -11 -132 -16q-40 -2 -83 -2h-49q-69 3 -126 20t-103.5 46t-72.5 80t-26 120zM305 299q0 -56 40 -85t101 -31h24q47 0 93 6q57 8 105 24l-2 602q-40 8 -72.5 12.5t-77.5 8.5q-19 1 -36 1q-24 0 -44 -3q-34 -5 -65.5 -17t-48.5 -38.5 t-17 -65.5v-414z" />
<glyph unicode="h" horiz-adv-x="1116" d="M145 -2v1366h232v-369q71 12 129 18q54 6 110 5h9q61 0 109.5 -10t92 -33t72 -58.5t45.5 -90t17 -124.5v-704h-230v674q0 38 -12.5 65.5t-30.5 43t-49 23t-58 8.5h-9q-24 0 -59 -4q-41 -5 -68 -10t-68 -14v-786h-232z" />
<glyph unicode="i" horiz-adv-x="536" d="M139 1235q0 54 37.5 92.5t91.5 38.5t92.5 -38.5t38.5 -92.5t-38.5 -91.5t-92.5 -37.5t-91.5 37.5t-37.5 91.5zM143 0v997h250v-997h-250z" />
<glyph unicode="j" horiz-adv-x="522" d="M-92 -221q14 -3 29 -6t21 -4t14 -2.5t15.5 -2t17 -0.5h26.5q68 0 90 28.5t22 92.5v1108h250v-1124q0 -157 -76.5 -233t-240.5 -76q-106 0 -168 14v205zM139 1235q0 54 37.5 92.5t91.5 38.5t92.5 -38.5t38.5 -92.5t-38.5 -91.5t-92.5 -37.5t-91.5 37.5t-37.5 91.5z" />
<glyph unicode="k" horiz-adv-x="1054" d="M143 0v1362h250v-842l328 477h278l-346 -493l359 -504h-275l-344 485v-485h-250z" />
<glyph unicode="l" horiz-adv-x="536" d="M143 0v1362h250v-1362h-250z" />
<glyph unicode="m" horiz-adv-x="1681" d="M137 0v946q44 16 119 32q76 17 176 31q65 9 133 10q36 1 73 -3q106 -8 179 -41q50 18 111 31q62 14 133 20q51 5 102 4h38q69 -2 132.5 -20t112 -49t77.5 -84.5t29 -124.5v-752h-233v696q0 54 -39 84q-40 28 -98 32l-34 2q-42 0 -83 -6q-59 -8 -107 -26q3 -12 3 -30v-752 h-232v719q-8 46 -50 69q-41 24 -99 24q-3 0 -7 1q-54 0 -105 -8q-54 -8 -99 -23v-782h-232z" />
<glyph unicode="n" horiz-adv-x="1093" d="M137 -2v948q34 12 88 26t133.5 27t159.5 19q28 2 56 1q52 0 104 -6q81 -10 143 -36.5t101 -84t39 -140.5v-754h-230v698q0 56 -39.5 85t-99.5 31h-25q-48 0 -93 -6q-57 -8 -105 -24v-784h-232z" />
<glyph unicode="o" horiz-adv-x="1064" d="M100 352v289q0 79 22 144.5t68 117t123 81.5t179 32h81q102 -2 179 -32t123 -81.5t68 -117t22 -144.5v-289q0 -166 -96 -268.5t-296 -106.5h-81q-200 4 -296 106.5t-96 268.5zM326 369q0 -178 182 -181h51q180 3 180 181v256q0 176 -180 182h-51q-182 -6 -182 -182v-256z " />
<glyph unicode="p" horiz-adv-x="1091" d="M145 -436v1403q277 47 397 51q21 1 40 1q252 0 334 -132q45 -71 45 -182v-412q0 -70 -17 -124.5t-45.5 -90t-72 -58.5t-92 -33t-109.5 -11h-9q-56 0 -110 6q-59 6 -129 18v-436h-232zM377 211q41 -9 68.5 -14t68.5 -10q31 -4 54 -4q7 0 13 1q27 1 58 8t49 23t30.5 43.5 t12.5 65.5v350q0 51 -23.5 82t-51.5 44q-25 11 -75 11h-9q-56 -1 -87 -5t-96 -16q-8 -1 -12 -2v-577z" />
<glyph unicode="q" horiz-adv-x="1087" d="M121 293v412q0 65 16 116t41.5 86t68 58t85 35.5t103.5 15.5q39 3 74 3q20 0 39 -1q51 -2 122.5 -10.5t123.5 -17t125 -20.5q11 -2 17 -3v-1403h-231v436q-70 -12 -129 -18q-54 -6 -110 -6h-9q-61 1 -109.5 11t-92 33t-72 58.5t-45.5 90t-17 124.5zM350 324 q0 -38 12.5 -65.5t31 -43.5t49 -23t57.5 -8q7 -1 14 -1q23 0 54 4q41 5 68.5 10t68.5 14v577q-134 24 -198 24q-10 0 -18 -1q-139 -9 -139 -137v-350z" />
<glyph unicode="r" horiz-adv-x="681" d="M109 2v754q0 62 21.5 108.5t61 73.5t87.5 43t110 20q38 2 74 2q22 -1 44 -1q56 -2 122 -9v-209q-43 9 -78 13.5t-77 4.5t-70 -9t-47 -32.5t-19 -60.5v-698h-229z" />
<glyph unicode="s" horiz-adv-x="915" d="M100 721q1 63 18 114t54.5 94.5t105.5 67.5t162 25h29q144 0 289 -27v-192q-148 28 -272 28h-31q-71 -1 -105 -35q-32 -33 -31 -85v-6q1 -64 39.5 -83t141.5 -24q87 -3 150 -26.5t96.5 -56.5t52.5 -79q19 -48 23 -88q2 -23 2 -48q0 -19 -1 -40q-4 -76 -30.5 -130.5 t-74 -85.5t-105 -46t-132.5 -18q-26 -1 -51 -1q-149 0 -305 39v197q133 -40 324 -43q79 0 118.5 22.5t42.5 86.5v10q0 51 -27 79q-30 30 -116 33q-95 4 -157 17.5t-113 47.5t-75 96q-23 60 -22 149v8z" />
<glyph unicode="t" horiz-adv-x="727" d="M51 797v198h160v367h250v-367h235v-198h-235v-471q0 -64 22 -92.5t90 -28.5h27h16t16 1.5t13 2.5l22.5 4.5t28.5 5.5v-201q-80 -18 -168 -18q-164 0 -240.5 76t-76.5 233v488h-160z" />
<glyph unicode="u" horiz-adv-x="1116" d="M147 242v753h230v-698q0 -56 39.5 -85t99.5 -31h25q48 0 93 6q57 8 105 24v784h232v-948q-34 -12 -88 -25.5t-133 -27.5q-80 -12 -160 -18q-27 -2 -54 -2q-53 0 -106 6q-81 10 -143 37t-101 84.5t-39 140.5z" />
<glyph unicode="v" horiz-adv-x="989" d="M10 997h256l228 -757l229 757h256l-320 -997h-329z" />
<glyph unicode="w" horiz-adv-x="1505" d="M25 997h219l184 -700l207 682h233l207 -682l182 700h222l-252 -997h-273l-202 662l-205 -662h-273z" />
<glyph unicode="x" horiz-adv-x="958" d="M25 0l321 502l-315 495h250l198 -303l197 303h250l-316 -495l324 -502h-256l-199 309l-200 -309h-254z" />
<glyph unicode="y" horiz-adv-x="1013" d="M82 242v755h229v-700q0 -56 40 -85t101 -31h24q47 0 93 6q57 8 105 24v786h231l2 -1116q0 -167 -90.5 -249.5t-306.5 -82.5q-83 0 -185.5 12t-170.5 33v199q146 -43 307 -51q15 -1 29 -1q98 0 138 37q46 42 46 120v96q-68 -11 -132 -16q-40 -2 -83 -2h-49q-69 3 -126 20 t-103.5 46t-72.5 80t-26 120z" />
<glyph unicode="z" horiz-adv-x="942" d="M113 0v193l444 612h-438v192h727v-192l-445 -612h459v-193h-747z" />
<glyph unicode="{" horiz-adv-x="696" d="M92 567v193h41q47 0 66.5 20.5t19.5 61.5v475q0 151 63 226t203 75h170v-201h-104q-42 0 -62 -19.5t-20 -64.5v-434q0 -107 -36 -168t-132 -67q96 -6 132 -67.5t36 -168.5v-434q0 -45 20 -64.5t62 -19.5h104v-201h-170q-140 0 -203 75t-63 226v475q0 41 -19.5 61.5 t-66.5 20.5h-41z" />
<glyph unicode="|" horiz-adv-x="522" d="M184 -260v1878h154v-1878h-154z" />
<glyph unicode="}" horiz-adv-x="696" d="M41 -90h104q42 0 62 19.5t20 64.5v434q0 107 36 168.5t132 67.5q-96 6 -132 67t-36 168v434q0 45 -20 64.5t-62 19.5h-104v201h170q140 0 203 -75t63 -226v-475q0 -41 19.5 -61.5t66.5 -20.5h41v-193h-41q-47 0 -66.5 -20.5t-19.5 -61.5v-475q0 -151 -63 -226t-203 -75 h-170v201z" />
<glyph unicode="~" horiz-adv-x="987" d="M72 471q18 46 29.5 73t29 60t35 51.5t42 36t55 24.5t69.5 7q48 0 107.5 -34.5t115 -68.5t94.5 -34q28 0 51 12t38.5 35t25 42.5t20.5 49.5l142 -78q-19 -55 -40.5 -96.5t-54 -78.5t-78.5 -57t-104 -20q-42 0 -89 21t-81 46.5t-71 46.5t-62 21q-19 0 -34.5 -6t-25.5 -11.5 t-22 -23t-16 -25t-17.5 -35t-17.5 -36.5z" />
<glyph unicode="&#xa1;" horiz-adv-x="581" d="M162 862q0 54 37.5 91.5t91.5 37.5t92.5 -37.5t38.5 -91.5t-38.5 -92.5t-92.5 -38.5t-91.5 38.5t-37.5 92.5zM166 -373v951h250v-951h-250z" />
<glyph unicode="&#xa2;" d="M168 547v272q0 173 70.5 263.5t232.5 111.5v164h172v-158q114 0 240 -26v-213q-55 12 -143 19t-136 7q-106 0 -146 -36.5t-40 -129.5v-276q0 -93 40 -129.5t146 -36.5q153 0 279 24v-210q-119 -25 -240 -29v-164h-172v170q-162 23 -232.5 113t-70.5 264z" />
<glyph unicode="&#xa3;" horiz-adv-x="1318" d="M68 2v205h235v422h-127v209h127v151q0 79 22 144.5t67.5 117t122.5 81.5t179 32h307v-209h-290q-183 -6 -183 -182v-135h291v-209h-291v-422h697v-205h-1157z" />
<glyph unicode="&#xa4;" horiz-adv-x="1153" d="M113 291l137 137q-25 55 -25 119v278q0 64 25 119l-137 137l149 150l152 -154q74 23 164 23q85 0 159 -23l154 154l149 -150l-137 -137q27 -52 27 -119v-278q0 -67 -27 -119l137 -137l-149 -150l-154 154q-74 -23 -159 -23q-90 0 -164 23l-152 -154zM440 578 q0 -65 32.5 -89t105.5 -24q71 0 104 24t33 89v217q0 64 -32.5 88t-104.5 24q-73 0 -105.5 -23.5t-32.5 -88.5v-217z" />
<glyph unicode="&#xa5;" d="M29 1362h254l254 -680l245 680h256l-235 -592h162v-162h-222l-65 -188h287v-158h-297v-262h-260v262h-295v158h282l-67 188h-215v162h157z" />
<glyph unicode="&#xa6;" horiz-adv-x="522" d="M184 424h154v-854h-154v854zM184 764v854h154v-854h-154z" />
<glyph unicode="&#xa7;" horiz-adv-x="1058" d="M170 -49v1108q0 82 22.5 148.5t70 120t129.5 83.5t194 31h338v-215h-320q-111 0 -159 -48.5t-48 -146.5v-1081h-227zM180 -184h314q111 0 158.5 48t47.5 146v1069h228v-1095q0 -82 -22.5 -148.5t-70 -120t-129.5 -83.5t-194 -31h-332v215z" />
<glyph unicode="&#xa8;" horiz-adv-x="839" d="M109 1235q0 54 37.5 92.5t91.5 38.5t92.5 -38.5t38.5 -92.5t-38.5 -91.5t-92.5 -37.5t-91.5 37.5t-37.5 91.5zM465 1235q0 54 37.5 92.5t91.5 38.5t92.5 -38.5t38.5 -92.5t-38.5 -91.5t-92.5 -37.5t-91.5 37.5t-37.5 91.5z" />
<glyph unicode="&#xa9;" horiz-adv-x="1630" d="M113 709q0 194 86 353.5t247.5 254t368.5 94.5q156 0 288.5 -55t222.5 -150t141 -223.5t51 -273.5q0 -144 -51 -273t-141 -224t-223 -150.5t-288 -55.5q-125 0 -235.5 35.5t-195 100.5t-146 152t-93.5 193.5t-32 221.5zM287 709q0 -150 64 -272t185.5 -194.5t278.5 -72.5 q158 0 279.5 72.5t185 194.5t63.5 272q0 151 -63.5 272.5t-185 193.5t-279.5 72q-157 0 -278.5 -72t-185.5 -193.5t-64 -272.5zM555 590v237q0 124 66 181t217 57q106 0 206 -29v-157q-110 26 -188 26q-72 0 -94.5 -19.5t-22.5 -74.5v-205q0 -55 22.5 -74.5t94.5 -19.5 q65 0 188 29v-158q-122 -31 -206 -31q-151 0 -217 57t-66 181z" />
<glyph unicode="&#xaa;" horiz-adv-x="872" d="M154 874v11q0 84 30 136t81.5 71.5t121.5 22t150 -12.5v45q0 53 -31 78.5t-117 21.5q-87 -5 -192 -37v142q109 32 225 32q152 0 215 -55t63 -172v-467q-205 -37 -289 -38q-200 -2 -244 129q-13 40 -13 93zM317 870q0 -28 9 -46.5t29 -27t37.5 -12t49 -0.5t48.5 6t49 9 v168q-25 5 -41.5 8t-42.5 5.5t-42.5 1.5t-36.5 -5.5t-31.5 -14.5t-19.5 -27t-8 -40v-25z" />
<glyph unicode="&#xab;" horiz-adv-x="1032" d="M51 500l205 313h201l-205 -313l207 -316h-203zM449 500l204 313h201l-205 -313l207 -316h-203z" />
<glyph unicode="&#xac;" horiz-adv-x="1112" d="M123 506v196h835v-522h-204v326h-631z" />
<glyph unicode="&#xad;" horiz-adv-x="761" d="M123 469v209h516v-209h-516z" />
<glyph unicode="&#xae;" horiz-adv-x="1167" d="M102 887q0 206 132 343.5t348 137.5q144 0 254.5 -64.5t168.5 -173.5t58 -243q0 -133 -58 -243t-168.5 -175.5t-254.5 -65.5q-108 0 -199 38.5t-152 104t-95 153.5t-34 188zM244 887q0 -151 87.5 -253t250.5 -102t251.5 102t88.5 253q0 72 -21.5 134.5t-62.5 111.5 t-107 77.5t-149 28.5q-163 0 -250.5 -100.5t-87.5 -251.5zM424 676v442h182q144 0 144 -125v-47q0 -77 -62 -106l115 -164h-113l-104 145h-66v-145h-96zM520 909h80q31 0 42 10.5t11 34.5v31q0 26 -11.5 35.5t-41.5 9.5h-80v-121z" />
<glyph unicode="&#xaf;" horiz-adv-x="737" d="M113 1141v166h512v-166h-512z" />
<glyph unicode="&#xb0;" horiz-adv-x="731" d="M102 1083q0 110 72.5 185t192.5 75t191 -74.5t71 -185.5t-71 -184.5t-191 -73.5q-121 0 -193 73.5t-72 184.5zM240 1083q0 -59 33.5 -98t93.5 -39q59 0 92 39.5t33 97.5q0 62 -32 101t-93 39q-62 0 -94.5 -39t-32.5 -101z" />
<glyph unicode="&#xb1;" horiz-adv-x="1142" d="M154 0v188h835v-188h-835zM154 625v196h315v318h205v-318h315v-196h-315v-318h-205v318h-315z" />
<glyph unicode="&#xb2;" horiz-adv-x="774" d="M94 563l2 197q0 41 4.5 73t19.5 65t40 55t68.5 38t103.5 21q17 2 46 3t44.5 2.5t36.5 7.5t32 17.5t20 33.5t11 54q-2 62 -33 91.5t-98 29.5q-92 0 -244 -20v125q132 22 254 22q142 0 200 -64t58 -181q0 -54 -9.5 -92t-36 -73t-79.5 -53.5t-133 -19.5q-77 0 -120.5 -24 t-47.5 -91v-86h410v-131h-549z" />
<glyph unicode="&#xb3;" horiz-adv-x="763" d="M131 600l2 117q102 -31 191 -31q73 0 108 23t35 92q0 65 -28 86.5t-111 21.5h-146v121h142q86 0 114.5 21t28.5 86q0 69 -37 93.5t-106 24.5q-86 0 -191 -32l-2 118q122 37 215 37q142 0 200 -61.5t58 -177.5q0 -121 -65 -170q65 -49 65 -166q0 -116 -58 -178t-200 -62 q-93 0 -215 37z" />
<glyph unicode="&#xb4;" horiz-adv-x="643" d="M225 1122l162 320h172l-158 -320h-176z" />
<glyph unicode="&#xb5;" horiz-adv-x="1116" d="M141 -434l2 1431h232v-786q45 -15 98.5 -23.5t111.5 -8.5t100 24t50 71l2 723h230v-1247h-232v240q-139 -31 -360 4v-428h-234z" />
<glyph unicode="&#xb6;" horiz-adv-x="1077" d="M92 915q0 192 129.5 320.5t321.5 128.5v-895q-193 0 -322 127t-129 319zM453 -231l120 2q69 0 91 28.5t22 91.5v1473h250v-1489q0 -157 -77 -233t-241 -76l-165 -2v205z" />
<glyph unicode="&#xb7;" horiz-adv-x="561" d="M133 614q0 62 43.5 105t104.5 43t104 -43t43 -105t-43 -104.5t-104 -42.5q-62 0 -105 43t-43 104z" />
<glyph unicode="&#xb8;" horiz-adv-x="614" d="M258 -295q59 -14 135 -20q109 -4 109 69q0 62 -94 66h-115l45 203h100l-24 -117q104 1 150 -40t44 -114q-1 -83 -51 -120t-151 -40q-63 -3 -148 19v94z" />
<glyph unicode="&#xb9;" horiz-adv-x="587" d="M121 1176v137l151 49h136v-821h-152v673z" />
<glyph unicode="&#xba;" horiz-adv-x="792" d="M123 1018v160q0 247 272 247q275 0 275 -247v-160q0 -248 -275 -248q-272 0 -272 248zM281 1014q0 -56 26.5 -82.5t87.5 -26.5q62 0 89.5 27t27.5 82v168q0 55 -27.5 81.5t-89.5 26.5q-61 0 -87.5 -26t-26.5 -82v-168z" />
<glyph unicode="&#xbb;" horiz-adv-x="1032" d="M106 184l207 316l-204 313h200l205 -313l-205 -316h-203zM504 184l207 316l-205 313h201l204 -313l-204 -316h-203z" />
<glyph unicode="&#xbc;" horiz-adv-x="1779" d="M188 1178v137l150 49h135v-821h-149v674zM598 545l256 817h135l-256 -817h-135zM961 655v138l282 569h211v-582h94v-125h-94v-110h-145v110h-348zM1112 780h197v416z" />
<glyph unicode="&#xbd;" horiz-adv-x="1769" d="M178 1176v137l150 49h135v-821h-150v673zM575 543l256 817h138l-258 -817h-136zM1016 551l2 197q0 41 5 73t19.5 64.5t40 54.5t68.5 38t102 21q17 2 47 3t45.5 2.5t37 8t32 18t19.5 33.5t10 54q-2 62 -33 91.5t-98 29.5q-94 0 -242 -20v124q134 23 252 23 q142 0 200 -64.5t58 -181.5q0 -54 -9.5 -92t-36 -72.5t-79.5 -53t-133 -19.5q-75 0 -118.5 -24t-49.5 -91v-86h412v-131h-551z" />
<glyph unicode="&#xbe;" horiz-adv-x="1837" d="M178 586l2 116q98 -30 191 -30q74 0 108.5 22t34.5 90q0 67 -28 89t-111 22h-146v121h142q86 0 114.5 20.5t28.5 85.5q0 69 -37 93t-106 24q-89 0 -191 -31l-2 119q122 37 215 37q142 0 200 -62t58 -178q0 -121 -65 -170q65 -49 65 -166t-57.5 -178t-200.5 -61 q-109 0 -215 37zM698 547l256 817h138l-258 -817h-136zM1051 657v138l282 569h211v-582h94v-125h-94v-110h-145v110h-348zM1202 782h197v416z" />
<glyph unicode="&#xbf;" horiz-adv-x="1005" d="M86 401q0 71 9 124t36.5 105.5t73.5 86.5t124.5 56t186.5 24l119 2v225h201v-422l-203 -2q-24 -2 -59 -3.5t-57.5 -2t-51.5 -4t-47.5 -10.5t-39 -20.5t-32 -33.5t-20.5 -51t-11 -72q3 -103 55 -151.5t165 -48.5q160 0 403 35v-211q-228 -35 -422 -35q-122 0 -207.5 29 t-133.5 85.5t-68.5 128t-20.5 166.5zM625 1264q0 47 33.5 80.5t80.5 33.5t81 -33.5t34 -80.5t-34 -81t-81 -34t-80.5 34t-33.5 81z" />
<glyph unicode="&#xc0;" horiz-adv-x="1245" d="M127 -2v981q0 82 22.5 148.5t70 120t129.5 83.5t194 31h159q112 -1 194 -31t129 -83.5t69 -120t22 -148.5v-981h-227v596h-535v-596h-227zM354 807h535v145q0 98 -48 146.5t-157 48.5h-123q-111 0 -159 -48.5t-48 -146.5v-145zM455 1806h172l161 -319h-176z" />
<glyph unicode="&#xc1;" horiz-adv-x="1245" d="M127 -2v981q0 82 22.5 148.5t70 120t129.5 83.5t194 31h159q112 -1 194 -31t129 -83.5t69 -120t22 -148.5v-981h-227v596h-535v-596h-227zM354 807h535v145q0 98 -48 146.5t-157 48.5h-123q-111 0 -159 -48.5t-48 -146.5v-145zM461 1489l162 319h172l-158 -319h-176z" />
<glyph unicode="&#xc2;" horiz-adv-x="1245" d="M127 -2v981q0 82 22.5 148.5t70 120t129.5 83.5t194 31h159q112 -1 194 -31t129 -83.5t69 -120t22 -148.5v-981h-227v596h-535v-596h-227zM354 807h535v145q0 98 -48 146.5t-157 48.5h-123q-111 0 -159 -48.5t-48 -146.5v-145zM391 1473l230 233l231 -233h-156l-75 73 l-74 -73h-156z" />
<glyph unicode="&#xc3;" horiz-adv-x="1245" d="M127 -2v981q0 82 22.5 148.5t70 120t129.5 83.5t194 31h159q112 -1 194 -31t129 -83.5t69 -120t22 -148.5v-981h-227v596h-535v-596h-227zM301 1573q35 61 85 100t114.5 49.5t132.5 -32.5q28 -16 46 -25t41.5 -14.5t40 -0.5t33.5 22.5t29 49.5l119 -61 q-23 -69 -77 -114.5t-120.5 -52.5t-136.5 34q-65 46 -108.5 39.5t-96.5 -78.5zM354 807h535v145q0 98 -48 146.5t-157 48.5h-123q-111 0 -159 -48.5t-48 -146.5v-145z" />
<glyph unicode="&#xc4;" horiz-adv-x="1245" d="M127 -2v981q0 82 22.5 148.5t70 120t129.5 83.5t194 31h159q112 -1 194 -31t129 -83.5t69 -120t22 -148.5v-981h-227v596h-535v-596h-227zM313 1602q0 54 37.5 92.5t91.5 38.5t92.5 -38.5t38.5 -92.5t-38.5 -91.5t-92.5 -37.5t-91.5 37.5t-37.5 91.5zM354 807h535v145 q0 98 -48 146.5t-157 48.5h-123q-111 0 -159 -48.5t-48 -146.5v-145zM670 1602q0 54 37.5 92.5t91.5 38.5t92.5 -38.5t38.5 -92.5t-38.5 -91.5t-92.5 -37.5t-91.5 37.5t-37.5 91.5z" />
<glyph unicode="&#xc5;" horiz-adv-x="1245" d="M127 -2v981q0 82 22.5 148.5t70 120t129.5 83.5t194 31h159q112 -1 194 -31t129 -83.5t69 -120t22 -148.5v-981h-227v596h-535v-596h-227zM354 807h535v145q0 98 -48 146.5t-157 48.5h-123q-111 0 -159 -48.5t-48 -146.5v-145zM440 1626q0 75 49 124.5t134 49.5 q86 0 134 -49.5t48 -124.5q0 -76 -48 -126t-134 -50t-134.5 49t-48.5 127zM549 1626q0 -36 20.5 -58t53.5 -22t53 22t20 58q0 35 -19.5 56.5t-53.5 21.5t-54 -21.5t-20 -56.5z" />
<glyph unicode="&#xc6;" horiz-adv-x="1906" d="M127 -2v981q0 82 22.5 148.5t70 120t129.5 83.5t194 31l1231 2v-227h-578v-330h533v-227h-533v-353h578v-227h-818v594h-602v-596h-227zM354 807h602v340h-395q-111 0 -159 -48.5t-48 -146.5v-145z" />
<glyph unicode="&#xc7;" horiz-adv-x="1069" d="M113 375v614q0 395 485 395q184 0 387 -45v-229q-228 41 -379 41q-131 0 -183 -48t-52 -159v-524q0 -111 52 -159t183 -48q140 0 379 43v-231q-203 -42 -377 -45l-14 -74q104 1 150 -40t44 -114q-1 -83 -51 -120t-151 -40q-63 -3 -148 19v94q59 -14 135 -20 q109 -4 109 69q0 62 -94 66h-115l35 164q-395 33 -395 391z" />
<glyph unicode="&#xc8;" horiz-adv-x="1101" d="M156 0v1364h833v-227h-577v-324h532v-227h-532v-365h577v-221h-833zM383 1806h172l162 -319h-176z" />
<glyph unicode="&#xc9;" horiz-adv-x="1101" d="M156 0v1364h833v-227h-577v-324h532v-227h-532v-365h577v-221h-833zM389 1489l162 319h172l-158 -319h-176z" />
<glyph unicode="&#xca;" horiz-adv-x="1101" d="M156 0v1364h833v-227h-577v-324h532v-227h-532v-365h577v-221h-833zM319 1473l230 233l231 -233h-155l-76 73l-74 -73h-156z" />
<glyph unicode="&#xcb;" horiz-adv-x="1101" d="M156 0v1364h833v-227h-577v-324h532v-227h-532v-365h577v-221h-833zM242 1602q0 54 37.5 92.5t91.5 38.5t92.5 -38.5t38.5 -92.5t-38.5 -91.5t-92.5 -37.5t-91.5 37.5t-37.5 91.5zM598 1602q0 54 37.5 92.5t91.5 38.5t92.5 -38.5t38.5 -92.5t-38.5 -91.5t-92.5 -37.5 t-91.5 37.5t-37.5 91.5z" />
<glyph unicode="&#xcc;" horiz-adv-x="585" d="M125 1806h172l162 -319h-176zM164 0v1364h258v-1364h-258z" />
<glyph unicode="&#xcd;" horiz-adv-x="585" d="M133 1489l162 319h172l-158 -319h-176zM164 0v1364h258v-1364h-258z" />
<glyph unicode="&#xce;" horiz-adv-x="585" d="M63 1473l230 233l231 -233h-155l-76 73l-74 -73h-156zM164 0v1364h258v-1364h-258z" />
<glyph unicode="&#xcf;" horiz-adv-x="585" d="M-14 1602q0 54 37.5 92.5t91.5 38.5t92.5 -38.5t38.5 -92.5t-38.5 -91.5t-92.5 -37.5t-91.5 37.5t-37.5 91.5zM164 0v1364h258v-1364h-258zM342 1602q0 54 37.5 92.5t91.5 38.5t92.5 -38.5t38.5 -92.5t-38.5 -91.5t-92.5 -37.5t-91.5 37.5t-37.5 91.5z" />
<glyph unicode="&#xd0;" horiz-adv-x="1306" d="M82 586v207h141v571h508q122 0 212 -29t141.5 -81t75.5 -116t24 -141v-630q0 -76 -24.5 -140t-75.5 -116t-141 -81.5t-212 -29.5h-508v586h-141zM481 227h224q125 0 173 48.5t48 152.5v508q0 104 -48 152.5t-173 48.5h-224v-344h209v-207h-209v-359z" />
<glyph unicode="&#xd1;" horiz-adv-x="1421" d="M154 0v1364h344l518 -1036v1036h252v-1364h-344l-518 1034v-1034h-252zM389 1573q35 61 85 100t114.5 49.5t132.5 -32.5q28 -16 46 -25t41.5 -14.5t40 -0.5t33.5 22.5t29 49.5l119 -61q-23 -69 -77 -114.5t-120.5 -52.5t-136.5 34q-65 46 -108 39.5t-96 -78.5z" />
<glyph unicode="&#xd2;" horiz-adv-x="1277" d="M123 373v620q0 82 22.5 148.5t70 120t129.5 83.5t194 31h200q112 -1 194 -31t129.5 -83.5t70 -120t22.5 -148.5v-620q0 -82 -22.5 -148.5t-70 -120t-129.5 -83.5t-194 -31h-200q-112 1 -194 31t-129.5 83.5t-70 120t-22.5 148.5zM350 399q0 -98 48 -146t159 -48h164 q111 0 159 48t48 146v568q0 98 -48 146t-159 48h-164q-111 0 -159 -48t-48 -146v-568zM471 1806h172l162 -319h-176z" />
<glyph unicode="&#xd3;" horiz-adv-x="1277" d="M123 373v620q0 82 22.5 148.5t70 120t129.5 83.5t194 31h200q112 -1 194 -31t129.5 -83.5t70 -120t22.5 -148.5v-620q0 -82 -22.5 -148.5t-70 -120t-129.5 -83.5t-194 -31h-200q-112 1 -194 31t-129.5 83.5t-70 120t-22.5 148.5zM350 399q0 -98 48 -146t159 -48h164 q111 0 159 48t48 146v568q0 98 -48 146t-159 48h-164q-111 0 -159 -48t-48 -146v-568zM471 1489l162 319h172l-158 -319h-176z" />
<glyph unicode="&#xd4;" horiz-adv-x="1277" d="M123 373v620q0 82 22.5 148.5t70 120t129.5 83.5t194 31h200q112 -1 194 -31t129.5 -83.5t70 -120t22.5 -148.5v-620q0 -82 -22.5 -148.5t-70 -120t-129.5 -83.5t-194 -31h-200q-112 1 -194 31t-129.5 83.5t-70 120t-22.5 148.5zM350 399q0 -98 48 -146t159 -48h164 q111 0 159 48t48 146v568q0 98 -48 146t-159 48h-164q-111 0 -159 -48t-48 -146v-568zM408 1473l229 233l231 -233h-155l-76 73l-74 -73h-155z" />
<glyph unicode="&#xd5;" horiz-adv-x="1277" d="M123 373v620q0 82 22.5 148.5t70 120t129.5 83.5t194 31h200q112 -1 194 -31t129.5 -83.5t70 -120t22.5 -148.5v-620q0 -82 -22.5 -148.5t-70 -120t-129.5 -83.5t-194 -31h-200q-112 1 -194 31t-129.5 83.5t-70 120t-22.5 148.5zM317 1573q35 61 85 100t114.5 49.5 t132.5 -32.5q28 -16 46.5 -25t42 -14.5t40 -0.5t33.5 22.5t29 49.5l118 -61q-23 -69 -76.5 -114.5t-120 -52.5t-136.5 34q-65 46 -108.5 39.5t-96.5 -78.5zM350 399q0 -98 48 -146t159 -48h164q111 0 159 48t48 146v568q0 98 -48 146t-159 48h-164q-111 0 -159 -48t-48 -146 v-568z" />
<glyph unicode="&#xd6;" horiz-adv-x="1277" d="M123 373v620q0 82 22.5 148.5t70 120t129.5 83.5t194 31h200q112 -1 194 -31t129.5 -83.5t70 -120t22.5 -148.5v-620q0 -82 -22.5 -148.5t-70 -120t-129.5 -83.5t-194 -31h-200q-112 1 -194 31t-129.5 83.5t-70 120t-22.5 148.5zM330 1602q0 54 37.5 92.5t91.5 38.5 t92.5 -38.5t38.5 -92.5t-38.5 -91.5t-92.5 -37.5t-91.5 37.5t-37.5 91.5zM350 399q0 -98 48 -146t159 -48h164q111 0 159 48t48 146v568q0 98 -48 146t-159 48h-164q-111 0 -159 -48t-48 -146v-568zM686 1602q0 54 37.5 92.5t91.5 38.5t92.5 -38.5t38.5 -92.5t-38.5 -91.5 t-92.5 -37.5t-91.5 37.5t-37.5 91.5z" />
<glyph unicode="&#xd7;" d="M154 252l237 240l-237 237l143 145l240 -239l239 239l144 -145l-238 -237l238 -240l-144 -146l-239 240l-240 -240z" />
<glyph unicode="&#xd8;" horiz-adv-x="1277" d="M123 373v620q0 82 22.5 148.5t70 120t129.5 83.5t194 31h198l31 99h227l-43 -140q104 -44 153.5 -133t49.5 -209v-620q0 -82 -22.5 -148.5t-70 -120t-129.5 -83.5t-194 -31h-200h-4l-35 -113h-226l48 154q-199 85 -199 342zM350 399q0 -94 41 -141l279 903h-113 q-111 0 -159 -48t-48 -146v-568zM600 205h121q111 0 159 48t48 146v568q0 95 -45 143z" />
<glyph unicode="&#xd9;" horiz-adv-x="1294" d="M123 373v991h227v-965q0 -98 48 -146t159 -48h164q111 0 159 48t48 146v965h227v-991q0 -82 -22.5 -148.5t-70 -120t-129.5 -83.5t-194 -31h-200q-112 1 -194 31t-129.5 83.5t-70 120t-22.5 148.5zM479 1806h172l162 -319h-176z" />
<glyph unicode="&#xda;" horiz-adv-x="1294" d="M123 373v991h227v-965q0 -98 48 -146t159 -48h164q111 0 159 48t48 146v965h227v-991q0 -82 -22.5 -148.5t-70 -120t-129.5 -83.5t-194 -31h-200q-112 1 -194 31t-129.5 83.5t-70 120t-22.5 148.5zM479 1489l162 319h172l-158 -319h-176z" />
<glyph unicode="&#xdb;" horiz-adv-x="1294" d="M123 373v991h227v-965q0 -98 48 -146t159 -48h164q111 0 159 48t48 146v965h227v-991q0 -82 -22.5 -148.5t-70 -120t-129.5 -83.5t-194 -31h-200q-112 1 -194 31t-129.5 83.5t-70 120t-22.5 148.5zM416 1473l229 233l232 -233h-156l-76 73l-74 -73h-155z" />
<glyph unicode="&#xdc;" horiz-adv-x="1294" d="M123 373v991h227v-965q0 -98 48 -146t159 -48h164q111 0 159 48t48 146v965h227v-991q0 -82 -22.5 -148.5t-70 -120t-129.5 -83.5t-194 -31h-200q-112 1 -194 31t-129.5 83.5t-70 120t-22.5 148.5zM338 1602q0 54 37.5 92.5t91.5 38.5t92.5 -38.5t38.5 -92.5t-38.5 -91.5 t-92.5 -37.5t-91.5 37.5t-37.5 91.5zM694 1602q0 54 37.5 92.5t91.5 38.5t92.5 -38.5t38.5 -92.5t-38.5 -91.5t-92.5 -37.5t-91.5 37.5t-37.5 91.5z" />
<glyph unicode="&#xdd;" horiz-adv-x="1159" d="M10 1364h275l295 -688l294 688h275l-440 -969v-395h-258v395zM412 1489l161 319h172l-157 -319h-176z" />
<glyph unicode="&#xde;" horiz-adv-x="1179" d="M145 1364h232v-190q70 12 128.5 18t119.5 5.5t109.5 -10.5t92 -33t72 -58.5t45.5 -90t17 -124.5v-412q0 -68 -17 -120.5t-45.5 -87.5t-72.5 -58t-92 -34t-110 -13.5t-119.5 1.5t-127.5 13v-170h-230zM377 385q154 -27 217 -23q137 11 137 138v350q0 38 -12.5 65.5 t-30.5 43.5t-49 23t-58 8.5t-67.5 -3.5t-68 -10t-68.5 -14v-578z" />
<glyph unicode="&#xdf;" horiz-adv-x="1230" d="M154 0v1073q0 143 87 217t275 74h174q363 0 363 -291v-141q0 -83 -36.5 -135t-115.5 -86q94 -20 146.5 -86.5t52.5 -165.5v-146q0 -148 -95 -230.5t-278 -82.5h-174v213h123q89 0 127.5 29.5t38.5 103.5v103q0 70 -34 103.5t-110 33.5h-153v207h112q138 0 138 127v120 q0 57 -33 84t-103 27h-112q-70 0 -102.5 -27t-32.5 -84v-1040h-258z" />
<glyph unicode="&#xe0;" horiz-adv-x="1005" d="M100 291v16q0 81 19 141t56 96.5t84.5 58.5t112 27.5t129.5 2t146 -16.5v64q0 77 -43.5 113t-165.5 30q-131 -8 -276 -51v201q156 47 321 47q217 0 307.5 -79t90.5 -245v-667q-258 -46 -363 -52q-271 -16 -363 111q-55 75 -55 203zM324 1440h172l161 -320h-176zM334 285 q0 -34 11.5 -58t28 -38t45 -20.5t52 -8t60.5 2.5t59.5 8t58.5 11v242q-35 7 -58.5 11t-59.5 7.5t-60.5 2t-52.5 -8.5t-44.5 -21t-28 -38t-11.5 -58v-34z" />
<glyph unicode="&#xe1;" horiz-adv-x="1005" d="M100 291v16q0 81 19 141t56 96.5t84.5 58.5t112 27.5t129.5 2t146 -16.5v64q0 77 -43.5 113t-165.5 30q-131 -8 -276 -51v201q156 47 321 47q217 0 307.5 -79t90.5 -245v-667q-258 -46 -363 -52q-271 -16 -363 111q-55 75 -55 203zM334 285q0 -34 11.5 -58t28 -38 t45 -20.5t52 -8t60.5 2.5t59.5 8t58.5 11v242q-35 7 -58.5 11t-59.5 7.5t-60.5 2t-52.5 -8.5t-44.5 -21t-28 -38t-11.5 -58v-34zM342 1122l162 320h172l-158 -320h-176z" />
<glyph unicode="&#xe2;" horiz-adv-x="1005" d="M100 291v16q0 81 19 141t56 96.5t84.5 58.5t112 27.5t129.5 2t146 -16.5v64q0 77 -43.5 113t-165.5 30q-131 -8 -276 -51v201q156 47 321 47q217 0 307.5 -79t90.5 -245v-667q-258 -46 -363 -52q-271 -16 -363 111q-55 75 -55 203zM272 1106l230 233l231 -233h-155 l-76 74l-74 -74h-156zM334 285q0 -34 11.5 -58t28 -38t45 -20.5t52 -8t60.5 2.5t59.5 8t58.5 11v242q-35 7 -58.5 11t-59.5 7.5t-60.5 2t-52.5 -8.5t-44.5 -21t-28 -38t-11.5 -58v-34z" />
<glyph unicode="&#xe3;" horiz-adv-x="1005" d="M100 291v16q0 81 19 141t56 96.5t84.5 58.5t112 27.5t129.5 2t146 -16.5v64q0 77 -43.5 113t-165.5 30q-131 -8 -276 -51v201q156 47 321 47q217 0 307.5 -79t90.5 -245v-667q-258 -46 -363 -52q-271 -16 -363 111q-55 75 -55 203zM182 1206q35 61 85 100t114.5 49.5 t132.5 -32.5q28 -16 46.5 -24.5t41.5 -14t40 -0.5t34 22.5t29 49.5l118 -62q-23 -69 -77 -114.5t-120.5 -52.5t-136.5 34q-65 46 -108 39.5t-96 -78.5zM334 285q0 -34 11.5 -58t28 -38t45 -20.5t52 -8t60.5 2.5t59.5 8t58.5 11v242q-35 7 -58.5 11t-59.5 7.5t-60.5 2 t-52.5 -8.5t-44.5 -21t-28 -38t-11.5 -58v-34z" />
<glyph unicode="&#xe4;" horiz-adv-x="1005" d="M100 291v16q0 81 19 141t56 96.5t84.5 58.5t112 27.5t129.5 2t146 -16.5v64q0 77 -43.5 113t-165.5 30q-131 -8 -276 -51v201q156 47 321 47q217 0 307.5 -79t90.5 -245v-667q-258 -46 -363 -52q-271 -16 -363 111q-55 75 -55 203zM195 1235q0 54 37.5 92.5t91.5 38.5 t92.5 -38.5t38.5 -92.5t-38.5 -91.5t-92.5 -37.5t-91.5 37.5t-37.5 91.5zM334 285q0 -34 11.5 -58t28 -38t45 -20.5t52 -8t60.5 2.5t59.5 8t58.5 11v242q-35 7 -58.5 11t-59.5 7.5t-60.5 2t-52.5 -8.5t-44.5 -21t-28 -38t-11.5 -58v-34zM551 1235q0 54 37.5 92.5t91.5 38.5 t92.5 -38.5t38.5 -92.5t-38.5 -91.5t-92.5 -37.5t-91.5 37.5t-37.5 91.5z" />
<glyph unicode="&#xe5;" horiz-adv-x="1005" d="M100 291v16q0 81 19 141t56 96.5t84.5 58.5t112 27.5t129.5 2t146 -16.5v64q0 77 -43.5 113t-165.5 30q-131 -8 -276 -51v201q156 47 321 47q217 0 307.5 -79t90.5 -245v-667q-258 -46 -363 -52q-271 -16 -363 111q-55 75 -55 203zM319 1260q0 75 49 124.5t134 49.5 q86 0 134 -49.5t48 -124.5q0 -76 -48 -126.5t-134 -50.5t-134.5 49t-48.5 128zM334 285q0 -34 11.5 -58t28 -38t45 -20.5t52 -8t60.5 2.5t59.5 8t58.5 11v242q-35 7 -58.5 11t-59.5 7.5t-60.5 2t-52.5 -8.5t-44.5 -21t-28 -38t-11.5 -58v-34zM428 1260q0 -36 20.5 -58 t53.5 -22t53 22t20 58q0 35 -19.5 56t-53.5 21t-54 -21t-20 -56z" />
<glyph unicode="&#xe6;" horiz-adv-x="1583" d="M100 291v16q0 81 19 141t56 96.5t84.5 58.5t112 27.5t129.5 2t146 -16.5v64q0 77 -43.5 113t-165.5 30q-131 -8 -276 -51v201q156 47 321 47q206 0 301 -76q99 74 281 74q93 0 163 -21.5t113 -57.5t69 -89t36 -109t10 -125v-213h-555v-51q0 -93 41.5 -130.5t153.5 -37.5 q57 0 157.5 14.5t163.5 32.5v-204q-155 -47 -344 -47q-147 0 -237 40q-94 -17 -151 -25.5t-144.5 -16t-141 -2t-117 24t-99 54t-59.5 95t-24 141.5zM334 285q0 -34 11.5 -58t28 -38t45 -20.5t52 -8t60.5 2.5t59.5 8t58.5 11v242q-35 7 -58.5 11t-59.5 7.5t-60.5 2 t-52.5 -8.5t-44.5 -21t-28 -38t-11.5 -58v-34zM901 604h318v49q0 78 -33 119t-119 41q-166 0 -166 -160v-49z" />
<glyph unicode="&#xe7;" horiz-adv-x="901" d="M98 362v273q0 203 99 293t331 90q59 0 144.5 -8t140.5 -25v-213q-46 16 -133 23.5t-145 7.5q-106 0 -146.5 -36.5t-40.5 -129.5v-277q0 -93 40 -129t147 -36q185 0 278 28v-213q-96 -25 -270 -30l-15 -74q104 1 150.5 -40t44.5 -114q-1 -83 -51.5 -120t-151.5 -40 q-62 -3 -147 19v94q59 -14 135 -20q108 -4 108 69q0 62 -94 66h-114l34 164q-185 13 -264.5 103t-79.5 275z" />
<glyph unicode="&#xe8;" horiz-adv-x="989" d="M98 365v264q0 84 20.5 150.5t66 122t128.5 86t199 30.5q93 0 163 -21.5t113 -57.5t69 -89t36 -109t10 -125v-213h-555v-51q0 -93 41.5 -130.5t153.5 -37.5q57 0 157.5 14.5t163.5 32.5v-204q-155 -47 -344 -47q-226 0 -324 98t-98 287zM315 1440h172l162 -320h-176z M348 604h318v49q0 78 -33 119t-119 41q-166 0 -166 -160v-49z" />
<glyph unicode="&#xe9;" horiz-adv-x="989" d="M98 365v264q0 84 20.5 150.5t66 122t128.5 86t199 30.5q93 0 163 -21.5t113 -57.5t69 -89t36 -109t10 -125v-213h-555v-51q0 -93 41.5 -130.5t153.5 -37.5q57 0 157.5 14.5t163.5 32.5v-204q-155 -47 -344 -47q-226 0 -324 98t-98 287zM334 1122l162 320h172l-158 -320 h-176zM348 604h318v49q0 78 -33 119t-119 41q-166 0 -166 -160v-49z" />
<glyph unicode="&#xea;" horiz-adv-x="989" d="M98 365v264q0 84 20.5 150.5t66 122t128.5 86t199 30.5q93 0 163 -21.5t113 -57.5t69 -89t36 -109t10 -125v-213h-555v-51q0 -93 41.5 -130.5t153.5 -37.5q57 0 157.5 14.5t163.5 32.5v-204q-155 -47 -344 -47q-226 0 -324 98t-98 287zM264 1106l230 233l231 -233h-156 l-75 74l-74 -74h-156zM348 604h318v49q0 78 -33 119t-119 41q-166 0 -166 -160v-49z" />
<glyph unicode="&#xeb;" horiz-adv-x="989" d="M98 365v264q0 84 20.5 150.5t66 122t128.5 86t199 30.5q93 0 163 -21.5t113 -57.5t69 -89t36 -109t10 -125v-213h-555v-51q0 -93 41.5 -130.5t153.5 -37.5q57 0 157.5 14.5t163.5 32.5v-204q-155 -47 -344 -47q-226 0 -324 98t-98 287zM186 1235q0 54 37.5 92.5 t91.5 38.5t92.5 -38.5t38.5 -92.5t-38.5 -91.5t-92.5 -37.5t-91.5 37.5t-37.5 91.5zM348 604h318v49q0 78 -33 119t-119 41q-166 0 -166 -160v-49zM543 1235q0 54 37.5 92.5t91.5 38.5t92.5 -38.5t38.5 -92.5t-38.5 -91.5t-92.5 -37.5t-91.5 37.5t-37.5 91.5z" />
<glyph unicode="&#xec;" horiz-adv-x="536" d="M88 1440h172l162 -320h-176zM143 0v997h250v-997h-250z" />
<glyph unicode="&#xed;" horiz-adv-x="536" d="M109 1122l161 320h172l-157 -320h-176zM143 0v997h250v-997h-250z" />
<glyph unicode="&#xee;" horiz-adv-x="536" d="M39 1106l229 233l232 -233h-156l-76 74l-73 -74h-156zM143 0v997h250v-997h-250z" />
<glyph unicode="&#xef;" horiz-adv-x="536" d="M-39 1235q0 54 37.5 92.5t91.5 38.5t92.5 -38.5t38.5 -92.5t-38.5 -91.5t-92.5 -37.5t-91.5 37.5t-37.5 91.5zM143 0v997h250v-997h-250zM317 1235q0 54 37.5 92.5t91.5 38.5t93 -38.5t39 -92.5t-39 -91.5t-93 -37.5t-91.5 37.5t-37.5 91.5z" />
<glyph unicode="&#xf0;" d="M119 381v104q0 173 85 254.5t263 81.5q135 0 248 -37v111q3 136 -92 207l-150 -178l-121 100l121 145q-80 21 -199 25v203q212 4 353 -45l112 135l121 -103l-88 -104q173 -127 176 -385v-551q0 -80 -20 -141.5t-66 -111t-129 -75.5t-201 -26q-100 0 -174 20t-119.5 53 t-72.5 84.5t-37 106.5t-10 127zM350 350q0 -87 39 -122t143 -35q100 0 141.5 34t41.5 123v225q-91 43 -215 43q-79 0 -114.5 -31.5t-35.5 -107.5v-129z" />
<glyph unicode="&#xf1;" horiz-adv-x="1093" d="M137 -2v948q34 12 88 26t133.5 27t159 18.5t160.5 -4.5t143 -36.5t101 -84t39 -140.5v-754h-230v698q0 56 -39.5 85t-100 31t-117.5 -6t-105 -24v-784h-232zM225 1206q35 61 85 100t114.5 49.5t132.5 -32.5q28 -16 46.5 -24.5t41.5 -14t40 -0.5t34 22.5t29 49.5l118 -62 q-23 -69 -77 -114.5t-120.5 -52.5t-136.5 34q-65 46 -108 39.5t-96 -78.5z" />
<glyph unicode="&#xf2;" horiz-adv-x="1064" d="M100 352v289q0 79 22 144.5t68 117t123 81.5t179 32h81q102 -2 179 -32t123 -81.5t68 -117t22 -144.5v-289q0 -166 -96 -268.5t-296 -106.5h-81q-200 4 -296 106.5t-96 268.5zM326 369q0 -178 182 -181h51q180 3 180 181v256q0 176 -180 182h-51q-182 -6 -182 -182v-256z M352 1440h172l162 -320h-176z" />
<glyph unicode="&#xf3;" horiz-adv-x="1064" d="M100 352v289q0 79 22 144.5t68 117t123 81.5t179 32h81q102 -2 179 -32t123 -81.5t68 -117t22 -144.5v-289q0 -166 -96 -268.5t-296 -106.5h-81q-200 4 -296 106.5t-96 268.5zM326 369q0 -178 182 -181h51q180 3 180 181v256q0 176 -180 182h-51q-182 -6 -182 -182v-256z M371 1122l161 320h173l-158 -320h-176z" />
<glyph unicode="&#xf4;" horiz-adv-x="1064" d="M100 352v289q0 79 22 144.5t68 117t123 81.5t179 32h81q102 -2 179 -32t123 -81.5t68 -117t22 -144.5v-289q0 -166 -96 -268.5t-296 -106.5h-81q-200 4 -296 106.5t-96 268.5zM301 1106l229 233l232 -233h-156l-76 74l-73 -74h-156zM326 369q0 -178 182 -181h51 q180 3 180 181v256q0 176 -180 182h-51q-182 -6 -182 -182v-256z" />
<glyph unicode="&#xf5;" horiz-adv-x="1064" d="M100 352v289q0 79 22 144.5t68 117t123 81.5t179 32h81q102 -2 179 -32t123 -81.5t68 -117t22 -144.5v-289q0 -166 -96 -268.5t-296 -106.5h-81q-200 4 -296 106.5t-96 268.5zM211 1206q35 61 85 100t114.5 49.5t132.5 -32.5q35 -20 57.5 -29.5t49.5 -11.5t47.5 16.5 t35.5 57.5l119 -62q-23 -69 -77 -114.5t-120.5 -52.5t-136.5 34q-65 46 -108.5 39.5t-96.5 -78.5zM326 369q0 -178 182 -181h51q180 3 180 181v256q0 176 -180 182h-51q-182 -6 -182 -182v-256z" />
<glyph unicode="&#xf6;" horiz-adv-x="1064" d="M100 352v289q0 79 22 144.5t68 117t123 81.5t179 32h81q102 -2 179 -32t123 -81.5t68 -117t22 -144.5v-289q0 -166 -96 -268.5t-296 -106.5h-81q-200 4 -296 106.5t-96 268.5zM223 1235q0 54 37.5 92.5t91.5 38.5t92.5 -38.5t38.5 -92.5t-38.5 -91.5t-92.5 -37.5 t-91.5 37.5t-37.5 91.5zM326 369q0 -178 182 -181h51q180 3 180 181v256q0 176 -180 182h-51q-182 -6 -182 -182v-256zM580 1235q0 54 37.5 92.5t91.5 38.5t92.5 -38.5t38.5 -92.5t-38.5 -91.5t-92.5 -37.5t-91.5 37.5t-37.5 91.5z" />
<glyph unicode="&#xf7;" d="M137 416v168h799v-168h-799zM395 141q0 61 43.5 104.5t104.5 43.5t104 -43t43 -105q0 -61 -43 -104t-104 -43q-62 0 -105 43t-43 104zM395 852q0 61 43 104t105 43q61 0 104 -42.5t43 -104.5t-43 -104.5t-104 -42.5q-62 0 -105 43t-43 104z" />
<glyph unicode="&#xf8;" horiz-adv-x="1064" d="M100 352v289q0 79 22 144.5t68 117t123 81.5t179 32h81q69 -6 72 -6l49 157h115l-57 -184q108 -41 160.5 -131t52.5 -211v-289q0 -166 -96 -268.5t-296 -106.5h-81q-16 0 -56 5l-55 -177h-113l62 197q-117 40 -173.5 131.5t-56.5 218.5zM326 369q0 -111 69 -154l185 590 q-3 0 -10.5 1t-10.5 1h-51q-182 -6 -182 -182v-256zM502 188h6h51q180 3 180 181v256q0 93 -57 141z" />
<glyph unicode="&#xf9;" horiz-adv-x="1116" d="M137 242v753h230v-698q0 -56 39.5 -85t100 -31t117.5 6t105 24v784h232v-948q-34 -12 -88 -25.5t-133.5 -27t-159 -19t-160.5 5t-143 37t-101 84t-39 140.5zM379 1440h172l162 -320h-176z" />
<glyph unicode="&#xfa;" horiz-adv-x="1116" d="M137 242v753h230v-698q0 -56 39.5 -85t100 -31t117.5 6t105 24v784h232v-948q-34 -12 -88 -25.5t-133.5 -27t-159 -19t-160.5 5t-143 37t-101 84t-39 140.5zM397 1122l162 320h172l-158 -320h-176z" />
<glyph unicode="&#xfb;" horiz-adv-x="1116" d="M137 242v753h230v-698q0 -56 39.5 -85t100 -31t117.5 6t105 24v784h232v-948q-34 -12 -88 -25.5t-133.5 -27t-159 -19t-160.5 5t-143 37t-101 84t-39 140.5zM328 1106l229 233l231 -233h-155l-76 74l-74 -74h-155z" />
<glyph unicode="&#xfc;" horiz-adv-x="1116" d="M137 242v753h230v-698q0 -56 39.5 -85t100 -31t117.5 6t105 24v784h232v-948q-34 -12 -88 -25.5t-133.5 -27t-159 -19t-160.5 5t-143 37t-101 84t-39 140.5zM250 1235q0 54 37.5 92.5t91.5 38.5t92.5 -38.5t38.5 -92.5t-38.5 -91.5t-92.5 -37.5t-91.5 37.5t-37.5 91.5z M606 1235q0 54 37.5 92.5t91.5 38.5t92.5 -38.5t38.5 -92.5t-38.5 -91.5t-92.5 -37.5t-91.5 37.5t-37.5 91.5z" />
<glyph unicode="&#xfd;" horiz-adv-x="1013" d="M82 242v755h229v-700q0 -56 40 -85t100.5 -31t117.5 6t105 24v786h231l2 -1116q0 -167 -90.5 -249.5t-306.5 -82.5q-83 0 -185.5 12t-170.5 33v199q146 -43 307 -51q121 -6 167 36t46 120v96q-68 -11 -131.5 -15.5t-132.5 -2t-126 19.5t-103.5 46t-72.5 80t-26 120z M346 1122l162 320h172l-158 -320h-176z" />
<glyph unicode="&#xfe;" horiz-adv-x="1083" d="M145 1364h232v-369q70 12 128.5 18t119.5 5.5t109.5 -10.5t92 -33t72 -58.5t45.5 -90t17 -124.5v-411q0 -68 -17 -120.5t-45.5 -87.5t-72.5 -58t-92 -34t-110 -13.5t-119.5 1.5t-127.5 13v-352h-230zM377 207q154 -27 217 -23q137 11 137 138v350q0 38 -12.5 65.5 t-30.5 43t-49 23t-58 8.5t-68 -4t-68 -10t-68 -14v-577z" />
<glyph unicode="&#xff;" horiz-adv-x="1013" d="M82 242v755h229v-700q0 -56 40 -85t100.5 -31t117.5 6t105 24v786h231l2 -1116q0 -167 -90.5 -249.5t-306.5 -82.5q-83 0 -185.5 12t-170.5 33v199q146 -43 307 -51q121 -6 167 36t46 120v96q-68 -11 -131.5 -15.5t-132.5 -2t-126 19.5t-103.5 46t-72.5 80t-26 120z M199 1235q0 54 37.5 92.5t91.5 38.5t92.5 -38.5t38.5 -92.5t-38.5 -91.5t-92.5 -37.5t-91.5 37.5t-37.5 91.5zM555 1235q0 54 37.5 92.5t91.5 38.5t92.5 -38.5t38.5 -92.5t-38.5 -91.5t-92.5 -37.5t-91.5 37.5t-37.5 91.5z" />
<glyph unicode="&#x152;" horiz-adv-x="1835" d="M123 420v524q0 71 16.5 131.5t54.5 114.5t96.5 92t147.5 60t201 22h1083v-227h-577v-330h532v-227h-532v-353h577v-227h-1083q-112 0 -201 22t-147.5 60t-96.5 92t-54.5 114.5t-16.5 131.5zM381 434q0 -102 59.5 -154.5t198.5 -52.5h248v910h-248q-139 0 -198.5 -52.5 t-59.5 -154.5v-496z" />
<glyph unicode="&#x153;" horiz-adv-x="1695" d="M123 352v289q0 79 22 144.5t67.5 117t122.5 81.5t179 32h82q180 -6 276 -92q109 94 306 94q93 0 163 -21.5t113 -57.5t69 -89t36 -109t10 -125v-213h-555v-51q0 -93 41 -130.5t153 -37.5q57 0 158 14.5t164 32.5v-204q-155 -47 -344 -47q-209 0 -314 88q-94 -85 -276 -91 h-82q-200 4 -295.5 106.5t-95.5 268.5zM348 369q0 -178 182 -181h52q180 3 180 181v256q0 176 -180 182h-52q-182 -6 -182 -182v-256zM1014 604h317v49q0 78 -32.5 119t-118.5 41q-166 0 -166 -160v-49z" />
<glyph unicode="&#x178;" horiz-adv-x="1159" d="M10 1364h275l295 -688l294 688h275l-440 -969v-395h-258v395zM270 1602q0 54 37.5 92.5t91.5 38.5t92.5 -38.5t38.5 -92.5t-38.5 -91.5t-92.5 -37.5t-91.5 37.5t-37.5 91.5zM627 1602q0 54 37.5 92.5t91.5 38.5t92.5 -38.5t38.5 -92.5t-38.5 -91.5t-92.5 -37.5 t-91.5 37.5t-37.5 91.5z" />
<glyph unicode="&#x2c6;" horiz-adv-x="796" d="M166 1106l229 233l232 -233h-156l-76 74l-73 -74h-156z" />
<glyph unicode="&#x2dc;" horiz-adv-x="866" d="M113 1206q35 61 84.5 100t114 49.5t132.5 -32.5q28 -16 46.5 -24.5t41.5 -14t40 -0.5t34 22.5t29 49.5l119 -62q-23 -69 -77 -114.5t-120.5 -52.5t-136.5 34q-65 46 -108.5 39.5t-96.5 -78.5z" />
<glyph unicode="&#x2000;" horiz-adv-x="904" />
<glyph unicode="&#x2001;" horiz-adv-x="1808" />
<glyph unicode="&#x2002;" horiz-adv-x="904" />
<glyph unicode="&#x2003;" horiz-adv-x="1808" />
<glyph unicode="&#x2004;" horiz-adv-x="602" />
<glyph unicode="&#x2005;" horiz-adv-x="452" />
<glyph unicode="&#x2006;" horiz-adv-x="301" />
<glyph unicode="&#x2007;" horiz-adv-x="301" />
<glyph unicode="&#x2008;" horiz-adv-x="226" />
<glyph unicode="&#x2009;" horiz-adv-x="361" />
<glyph unicode="&#x200a;" horiz-adv-x="100" />
<glyph unicode="&#x2010;" horiz-adv-x="761" d="M123 469v209h516v-209h-516z" />
<glyph unicode="&#x2011;" horiz-adv-x="761" d="M123 469v209h516v-209h-516z" />
<glyph unicode="&#x2012;" horiz-adv-x="761" d="M123 469v209h516v-209h-516z" />
<glyph unicode="&#x2013;" d="M158 469v209h757v-209h-757z" />
<glyph unicode="&#x2014;" horiz-adv-x="1320" d="M133 469v209h1055v-209h-1055z" />
<glyph unicode="&#x2018;" horiz-adv-x="561" d="M133 1114v12.5t4.5 38.5t14.5 65t32 92.5t54 119.5h98l-72 -182q6 2 19 2q61 0 104 -43t43 -105t-43 -104.5t-104 -42.5q-62 0 -106 43t-44 104z" />
<glyph unicode="&#x2019;" horiz-adv-x="540" d="M125 1294q0 62 43 105t104 43q62 0 106 -43.5t44 -104.5q1 -12 -1 -35.5t-28 -108t-76 -183.5h-98l72 182q-6 -2 -19 -2q-62 0 -104.5 42.5t-42.5 104.5z" />
<glyph unicode="&#x201a;" horiz-adv-x="561" d="M133 141q0 61 43.5 104.5t104.5 43.5q62 0 105.5 -43.5t43.5 -104.5q-2 -4 0 -12.5t-4 -38.5t-14.5 -64.5t-31 -92t-54.5 -119.5h-99l72 182q-6 -2 -18 -2q-62 0 -105 43t-43 104z" />
<glyph unicode="&#x201c;" horiz-adv-x="925" d="M133 1114v12.5t4.5 38.5t14.5 65t32 92.5t54 119.5h98l-72 -182q6 2 19 2q61 0 104 -43t43 -105t-43 -104.5t-104 -42.5q-62 0 -106 43t-44 104zM524 1114v12.5t4.5 38.5t14.5 65t32 92.5t54 119.5h98l-72 -182q6 2 19 2q61 0 104 -43t43 -105t-42.5 -104.5t-104.5 -42.5 t-106 43t-44 104z" />
<glyph unicode="&#x201d;" horiz-adv-x="946" d="M125 1294q0 62 43 105t104 43q62 0 106 -43.5t44 -104.5q1 -12 -1 -35.5t-28 -108t-76 -183.5h-98l72 182q-6 -2 -19 -2q-62 0 -104.5 42.5t-42.5 104.5zM516 1294q0 62 43 105t105 43t105.5 -43.5t43.5 -104.5q-2 -4 0 -12.5t-4 -38.5t-14.5 -64.5t-31 -92t-54.5 -119.5 h-99l72 182q-6 -2 -18 -2q-62 0 -105 43t-43 104z" />
<glyph unicode="&#x201e;" horiz-adv-x="970" d="M133 141q0 61 43.5 104.5t104.5 43.5q62 0 105.5 -43.5t43.5 -104.5q-2 -4 0 -12.5t-4 -38.5t-14.5 -64.5t-31 -92t-54.5 -119.5h-99l72 182q-6 -2 -18 -2q-62 0 -105 43t-43 104zM535 141q0 62 43 105t104 43q62 0 105.5 -43.5t43.5 -104.5q-2 -4 0 -12.5t-4 -38.5 t-14.5 -64.5t-31 -92t-54.5 -119.5h-98l71 182q-6 -2 -18 -2q-62 0 -104.5 43t-42.5 104z" />
<glyph unicode="&#x2022;" horiz-adv-x="755" d="M113 616q0 110 77.5 188.5t186.5 78.5q110 0 188 -78.5t78 -188.5q0 -109 -78 -186.5t-188 -77.5q-109 0 -186.5 77.5t-77.5 186.5z" />
<glyph unicode="&#x2026;" horiz-adv-x="1683" d="M182 141q0 61 43 104.5t105 43.5q61 0 104 -43t43 -105q0 -61 -42.5 -104t-104.5 -43t-105 43t-43 104zM690 141q0 61 43 104.5t105 43.5q61 0 104 -43t43 -105q0 -61 -42.5 -104t-104.5 -43t-105 43t-43 104zM1206 141q0 61 43 104.5t105 43.5q61 0 104 -43t43 -105 q0 -61 -42.5 -104t-104.5 -43t-105 43t-43 104z" />
<glyph unicode="&#x202f;" horiz-adv-x="361" />
<glyph unicode="&#x2039;" horiz-adv-x="610" d="M102 500l205 313h201l-205 -313l207 -316h-203z" />
<glyph unicode="&#x203a;" horiz-adv-x="610" d="M102 184l207 316l-205 313h201l205 -313l-205 -316h-203z" />
<glyph unicode="&#x205f;" horiz-adv-x="452" />
<glyph unicode="&#x20ac;" horiz-adv-x="1146" d="M31 762v172h102v55q0 395 485 395q185 0 388 -45v-229q-228 41 -379 41q-131 0 -183.5 -48t-52.5 -159v-10h383v-172h-383v-211h393v-172h-391q8 -89 61 -127.5t173 -38.5q140 0 379 43v-231q-221 -45 -388 -45q-485 0 -485 395v4h-92v172h92v211h-102z" />
<glyph unicode="&#x2122;" horiz-adv-x="1583" d="M158 1247v115h510v-115h-191v-567h-129v567h-190zM762 680v682h162l166 -522l165 522h162v-682h-117v465l-143 -453h-135l-143 453v-465h-117z" />
<glyph unicode="&#x25fc;" horiz-adv-x="993" d="M0 0v993h993v-993h-993z" />
</font>
</defs>
</svg>
