<?xml version="1.0" standalone="no"?>
<!DOCTYPE svg PUBLIC "-//W3C//DTD SVG 1.1//EN" "http://www.w3.org/Graphics/SVG/1.1/DTD/svg11.dtd" >
<svg xmlns="http://www.w3.org/2000/svg" xmlns:xlink="http://www.w3.org/1999/xlink" version="1.1">
<metadata></metadata>
<defs>
<font id="deria_sansitalic" horiz-adv-x="1091" >
<font-face units-per-em="2048" ascent="1638" descent="-410" />
<missing-glyph horiz-adv-x="440" />
<glyph horiz-adv-x="0" />
<glyph horiz-adv-x="682" />
<glyph unicode=" "  horiz-adv-x="440" />
<glyph unicode="&#x09;" horiz-adv-x="440" />
<glyph unicode="&#xa0;" horiz-adv-x="440" />
<glyph unicode="!" horiz-adv-x="544" d="M109 86q-1 -35 24.5 -60.5t61.5 -25.5q35 0 59.5 25t26.5 61q0 35 -26.5 60.5t-61.5 25.5t-59.5 -25.5t-24.5 -60.5zM137 315l131 1071h172l-131 -1071h-172z" />
<glyph unicode="&#x22;" horiz-adv-x="616" d="M72 924l59 489l141 -2l-59 -487h-141zM330 924l59 489l141 -2l-59 -487h-141z" />
<glyph unicode="#" horiz-adv-x="1292" d="M59 389l37 172h209l53 264h-208l36 172h209l82 389h172l-82 -389h264l82 389h172l-81 -389h208l-36 -172h-209l-54 -264h209l-37 -172h-208l-82 -389h-172l82 389h-265l-82 -389h-172l82 389h-209zM477 561h264l54 264h-265z" />
<glyph unicode="$" horiz-adv-x="1085" d="M12 16l19 158q342 -35 485 -35q263 0 289 223q16 130 -33.5 196.5t-196.5 66.5h-73q-123 0 -205 24t-124 72.5t-54.5 113.5t-1.5 156q23 192 122.5 295.5t313.5 112.5l16 133h179l-17 -135q96 -6 283 -29l-19 -158q-290 33 -411 33q-50 0 -87 -5.5t-74 -21t-62.5 -43 t-44.5 -74t-27 -110.5q-12 -123 37 -165t200 -42h74q97 0 170 -21.5t115.5 -60t68 -90t28.5 -111.5t-3 -126q-47 -363 -422 -389l-16 -144h-179l19 146q-63 3 -369 30z" />
<glyph unicode="%" horiz-adv-x="1824" d="M104 854l29 231q16 132 103 214t247 85h45q160 -3 226.5 -85t50.5 -214l-29 -231q-16 -133 -102 -214.5t-248 -84.5h-45q-159 3 -226 84.5t-51 214.5zM264 862q-18 -154 137 -160h41q161 6 179 160l26 215q18 154 -139 160h-41q-158 -6 -176 -160zM520 0l600 1384h164 l-602 -1384h-162zM1004 295l28 231q19 133 104 214.5t246 84.5h45q159 -3 227 -85.5t50 -213.5l-29 -231q-16 -133 -102.5 -214.5t-247.5 -84.5h-45q-160 3 -226 84t-50 215zM1161 303q-18 -154 139 -160h41q159 6 177 160l26 215q18 154 -137 160h-41q-160 -6 -178 -160z " />
<glyph unicode="&#x26;" horiz-adv-x="1449" d="M98 324l6 55q12 97 58 176t123 129q-115 98 -92 295l8 59q10 79 40 144.5t81.5 117t132 81.5t182.5 32h57q102 -2 175.5 -32t112.5 -81.5t53.5 -117t4.5 -144.5l-8 -59q-23 -200 -166 -299q125 -99 99 -301l-11 -84h-172l13 90q12 105 -36.5 160.5t-156.5 58.5h-78 q-109 -3 -171 -59t-74 -160l-9 -68q-27 -213 193 -219h364q219 6 246 219l23 187h172l-23 -180q-20 -166 -128 -268.5t-308 -106.5h-365q-102 2 -175.5 31.5t-112.5 81t-53.5 117t-4.5 145.5zM365 973q-24 -213 192 -219h57q109 3 171.5 58.5t74.5 160.5l8 71 q14 105 -35 161t-157 59h-58q-217 -6 -245 -220z" />
<glyph unicode="'" horiz-adv-x="358" d="M72 924l59 489l141 -2l-59 -487h-141z" />
<glyph unicode="(" horiz-adv-x="622" d="M143 623q53 466 361 856h180q-171 -225 -257.5 -427t-111.5 -429q-30 -229 6 -431t152 -425h-180q-212 389 -150 856z" />
<glyph unicode=")" horiz-adv-x="622" d="M-59 -227q165 222 250 423.5t112 426.5q28 228 -8.5 430t-151.5 426h181q210 -392 151 -856q-56 -466 -358 -850h-176z" />
<glyph unicode="*" horiz-adv-x="968" d="M123 938l242 129l-211 129l75 107l207 -129l31 258h123l-31 -258l240 129l47 -107l-236 -129l205 -129l-76 -107l-207 130l-30 -259h-123l31 259l-240 -130z" />
<glyph unicode="+" horiz-adv-x="1077" d="M119 569h340l2 346h151l-2 -346h340l2 -143h-340l-2 -346h-151l2 346h-340z" />
<glyph unicode="," horiz-adv-x="407" d="M104 92q0 41 28.5 68.5t68.5 27.5t68 -27.5t28 -68.5q0 -26 -20 -85t-68 -142h-72l47 133q-34 5 -57 31.5t-23 62.5z" />
<glyph unicode="-" horiz-adv-x="757" d="M111 500l18 141h512l-18 -141h-512z" />
<glyph unicode="." horiz-adv-x="407" d="M109 94q-3 38 24 66t66 28q38 0 66.5 -27.5t31.5 -66.5q-3 -39 -31.5 -66.5t-66.5 -27.5q-39 0 -66 28t-24 66z" />
<glyph unicode="/" horiz-adv-x="913" d="M47 -152l703 1625h163l-704 -1625h-162z" />
<glyph unicode="0" horiz-adv-x="1114" d="M90 334l80 653q20 164 133 259t334 95t311 -95t70 -259l-80 -653q-20 -164 -133 -259t-334 -95t-311 95t-70 259zM264 350q-14 -115 35 -167t190 -52t203 52t76 167l76 621q14 115 -35.5 167t-190.5 52t-202.5 -52t-75.5 -167z" />
<glyph unicode="1" horiz-adv-x="708" d="M217 1090l19 153l206 88h156l-162 -1331h-172l142 1163z" />
<glyph unicode="2" horiz-adv-x="1097" d="M31 0l37 309q55 410 479 410q151 0 210.5 41t78.5 164q8 47 3.5 83t-11.5 63t-25 46t-36.5 31t-47 19t-55.5 9.5t-62 2.5q-137 0 -360 -64l20 160q197 61 367 61q123 0 204.5 -28.5t121.5 -82t53.5 -129t-0.5 -169.5q-11 -91 -40 -156t-83.5 -113.5t-142 -72 t-210.5 -23.5q-76 0 -130.5 -18t-88 -53.5t-51 -81.5t-24.5 -109l-17 -133h699l-21 -166h-868z" />
<glyph unicode="3" horiz-adv-x="1001" d="M39 51l18 154q186 -58 344 -58q51 0 87.5 4.5t74 19.5t62.5 41t44 70.5t27 106.5q6 63 -1.5 100.5t-36.5 59.5t-73.5 30t-121.5 9h-268l18 157h262q153 0 212 38.5t77 160.5q3 40 4 71.5t-8 56t-18.5 42.5t-27.5 31t-36 21t-43.5 12.5t-49.5 6t-55 1.5q-158 0 -360 -58 l18 154q197 61 367 61q122 0 204.5 -28.5t122.5 -80.5t54.5 -125.5t-0.5 -162.5q-22 -196 -143 -280q53 -44 69.5 -111.5t5.5 -167.5q-12 -94 -41.5 -163.5t-84 -123.5t-143 -82t-210.5 -28q-169 0 -350 61z" />
<glyph unicode="4" horiz-adv-x="1089" d="M55 238l23 188l680 907h231l-115 -934h144l-21 -161h-143l-31 -240h-174l31 240h-625zM250 399h450l86 711z" />
<glyph unicode="5" horiz-adv-x="958" d="M53 25l19 145q148 -29 299 -29q143 0 202 45.5t72 149.5l12 102q13 100 -21 141t-155 48q-131 7 -179 8t-157 -2l86 696h693l-19 -151h-520l-49 -396q128 0 223 -6q157 -10 225 -89.5t50 -215.5l-19 -145q-9 -76 -37 -134.5t-81 -105t-140 -71.5t-205 -25q-153 0 -299 35 z" />
<glyph unicode="6" horiz-adv-x="1050" d="M96 303l70 576q28 226 143 344t316 118q178 0 321 -59l-20 -158q-64 38 -146 56.5t-164 13.5q-142 -6 -200 -74.5t-80 -242.5l-12 -101q56 20 134.5 33.5t143.5 13.5q190 0 260.5 -79t48.5 -246l-14 -123q-9 -77 -25 -133t-48 -106.5t-79 -81t-119 -48.5t-169 -18 q-212 0 -296.5 81.5t-64.5 233.5zM268 328q-12 -106 37 -147.5t170 -41.5q129 0 181.5 42.5t64.5 146.5l20 170q12 96 -26 136t-148 40q-127 0 -262 -56z" />
<glyph unicode="7" horiz-adv-x="925" d="M25 0l706 1176h-610l18 153h799l-16 -145l-717 -1184h-180z" />
<glyph unicode="8" horiz-adv-x="1097" d="M86 360l2 7q23 198 172 299q-124 98 -98 301v4q10 79 40 144.5t81.5 117t132 81.5t182.5 32h57q102 -2 175.5 -32t112.5 -81.5t53.5 -117t4.5 -144.5v-4q-26 -205 -167 -301q117 -100 94 -299l-2 -7q-10 -80 -40 -145.5t-82 -116.5t-132 -80.5t-183 -31.5h-57 q-103 2 -176 31.5t-112 80.5t-53.5 116.5t-4.5 145.5zM258 354q-27 -213 193 -219h57q219 6 246 219l2 19q12 105 -36.5 160.5t-156.5 58.5h-57q-109 -3 -171.5 -59t-74.5 -160zM332 961q-24 -214 192 -220h58q109 3 171 58.5t74 161.5l2 16q14 105 -35 160.5t-157 58.5h-57 q-218 -6 -246 -219z" />
<glyph unicode="9" horiz-adv-x="1054" d="M131 45l21 164q64 -38 146.5 -57.5t162.5 -14.5q142 6 200 73t80 241l11 94q-55 -19 -133.5 -33t-143.5 -14q-190 0 -261 79t-50 246l16 131q9 77 25.5 133t48 106t79 81t119.5 49t169 18q212 0 296 -81.5t64 -233.5l-70 -577q-28 -226 -142.5 -344.5t-315.5 -118.5 q-179 0 -322 59zM334 823q-11 -96 27.5 -136t148.5 -40q125 0 262 55l37 299q12 106 -37 147.5t-170 41.5q-129 0 -181.5 -42.5t-64.5 -146.5z" />
<glyph unicode=":" horiz-adv-x="411" d="M115 94q0 38 28 66t66 28t66 -28t28 -66t-28 -66t-66 -28t-66 28t-28 66zM174 795q0 38 28 66t66 28t66 -28t28 -66t-28 -66.5t-66 -28.5t-66 28.5t-28 66.5z" />
<glyph unicode=";" horiz-adv-x="411" d="M104 92q0 41 28.5 68.5t68.5 27.5t68 -27.5t28 -68.5q0 -26 -20 -85t-68 -142h-72l47 133q-34 5 -57 31.5t-23 62.5zM172 797q0 38 28 66t66 28t66 -28t28 -66t-28 -66.5t-66 -28.5t-66 28.5t-28 66.5z" />
<glyph unicode="&#x3c;" horiz-adv-x="1026" d="M92 467l14 106l900 465l-19 -147l-725 -371l633 -373l-18 -145z" />
<glyph unicode="=" horiz-adv-x="1042" d="M111 248l14 127h756l-15 -127h-755zM156 612l14 127h756l-15 -127h-755z" />
<glyph unicode="&#x3e;" horiz-adv-x="1021" d="M29 -2l18 145l733 373l-641 373l19 145l786 -465l-14 -106z" />
<glyph unicode="?" horiz-adv-x="1085" d="M178 1229l19 157q245 33 426 33q123 0 204.5 -28.5t121.5 -82t53 -129t-1 -169.5q-11 -91 -39.5 -156t-82.5 -114t-141 -73t-210 -24h-51l-43 -338h-151l61 496h197q151 0 210 42t78 165q9 47 4.5 83t-11 63t-24.5 46t-36.5 31t-46.5 19t-55 9.5t-62 2.5q-125 0 -420 -33 zM238 94q-1 38 26.5 66t65.5 28t66 -28t30 -66q0 -38 -29 -66t-67 -28t-65 28t-27 66z" />
<glyph unicode="@" horiz-adv-x="1898" d="M90 154l113 923q22 178 245 293q213 109 524 125q306 15 534 -68q227 -83 276 -235q17 -55 10 -115l-78 -631q-9 -70 -32 -123.5t-54.5 -86.5t-74 -53.5t-86.5 -28t-95.5 -5.5t-97 10t-94.5 21q-55 -14 -110.5 -24.5t-127 -18.5t-132.5 -7t-120.5 15.5t-99.5 42.5 t-60.5 79t-11.5 122l55 447q9 72 42.5 124t84.5 79t111 42t129.5 13t131 -8t125.5 -20.5t102 -24.5t71 -21l-86 -698q49 -16 90.5 -18t78 9.5t60.5 47t31 92.5l76 618q14 116 -155 190q-172 75 -441 77q-277 3 -462 -75q-173 -72 -187 -192l-111 -903q-9 -77 52.5 -135.5 t169 -87.5t238 -39t267.5 4.5t248 48.5l-18 -156q-146 -45 -311 -57.5t-314 10.5t-268.5 72.5t-185 134.5t-52.5 191zM690 395q-6 -55 39 -83t117.5 -27.5t141 10.5t124.5 27l72 581q-53 17 -119 27t-138.5 10t-124.5 -28t-59 -83z" />
<glyph unicode="A" horiz-adv-x="1239" d="M70 -2l123 993q49 391 485 391h49q121 0 205 -30t126.5 -85t56.5 -123q8 -38 8 -81q0 -34 -5 -72l-123 -993h-176l78 631h-573l-78 -631h-176zM342 780h573l25 199q3 27 3 51q-1 88 -41 135q-52 60 -200 60h-36q-150 0 -217.5 -60t-81.5 -186z" />
<glyph unicode="B" horiz-adv-x="1134" d="M55 0l170 1384h508q160 0 231 -70q57 -56 57 -156q0 -24 -3 -50l-21 -178q-12 -85 -51.5 -140.5t-128.5 -87.5q87 -16 132 -78q35 -48 35 -122q0 -21 -3 -45l-18 -164q-19 -141 -117 -217t-254 -76h-537zM233 147h363q186 0 205 160l18 139q2 14 2 28q0 62 -36 98 q-43 44 -142 44h-352zM309 766h316q184 0 204 164l21 178q2 14 2 26q0 46 -27 72q-34 32 -114 31h-344z" />
<glyph unicode="C" horiz-adv-x="1032" d="M104 385l72 598q26 199 149 300t367 101q168 0 318 -32l-21 -156q-164 29 -309 29q-168 0 -239.5 -55t-88.5 -197l-71 -578q-4 -32 -4 -60q0 -95 45 -137q58 -55 225 -55q138 0 317 27l-20 -156q-163 -30 -322 -30q-245 0 -344 101q-79 81 -79 224q0 36 5 76z" />
<glyph unicode="D" horiz-adv-x="1181" d="M78 0l170 1384h461q121 0 205 -30t126.5 -85t56.5 -123q8 -38 8 -81q0 -34 -5 -72l-76 -602q-49 -391 -485 -391h-461zM272 158h279q150 0 217.5 60t81.5 185l72 578q3 27 3 51q-1 88 -41 135q-52 60 -200 60h-278z" />
<glyph unicode="E" horiz-adv-x="1105" d="M86 0l170 1382h803l-21 -157h-626l-54 -447h582l-20 -157h-582l-55 -463h628l-20 -158h-805z" />
<glyph unicode="F" horiz-adv-x="1067" d="M86 0l170 1382h811l-20 -157h-635l-54 -445h592l-20 -157h-592l-76 -623h-176z" />
<glyph unicode="G" horiz-adv-x="1183" d="M104 387l72 594q27 209 150.5 306t375.5 97q188 0 353 -38l-19 -156q-196 35 -360 35q-113 0 -179.5 -25.5t-99.5 -78.5t-45 -148l-71 -576q-4 -36 -4 -66q0 -25 3 -47q6 -47 33 -78t81 -46t141 -15q127 0 260 25l55 453h-260l20 170h430l-92 -748q-207 -59 -438 -59 q-250 0 -340 100q-71 79 -71 219q0 39 5 82z" />
<glyph unicode="H" horiz-adv-x="1304" d="M86 0l170 1384h176l-74 -602h605l73 602h176l-170 -1384h-176l76 625h-604l-76 -625h-176z" />
<glyph unicode="I" horiz-adv-x="544" d="M96 0l170 1382h176l-170 -1382h-176z" />
<glyph unicode="J" horiz-adv-x="921" d="M-4 0l18 158h242q149 0 216 59.5t81 185.5l100 822h-446l20 157h623l-121 -991q-52 -391 -487 -391h-246z" />
<glyph unicode="K" horiz-adv-x="1146" d="M86 0l170 1384h176l-84 -679l606 679h207l-622 -690l454 -694h-209l-438 682l-84 -682h-176z" />
<glyph unicode="L" horiz-adv-x="1026" d="M86 0l170 1382h176l-149 -1224h591l-20 -158h-768z" />
<glyph unicode="M" horiz-adv-x="1585" d="M59 2l170 1382h271l225 -1198l520 1198h271l-170 -1382h-177l138 1124l-484 -1110h-237l-213 1110l-137 -1124h-177z" />
<glyph unicode="N" horiz-adv-x="1351" d="M82 0l170 1384h246l450 -1171l144 1171h172l-170 -1384h-246l-451 1165l-143 -1165h-172z" />
<glyph unicode="O" horiz-adv-x="1273" d="M92 393l76 602q49 391 485 391h133q98 0 172 -20t118.5 -55.5t71.5 -84.5q28 -49 32 -107q2 -25 1 -51q0 -35 -3 -73l-76 -602q-49 -391 -486 -391h-133q-121 0 -205 30t-126.5 85t-56.5 123q-8 38 -8 81q0 35 5 72zM270 406q-3 -27 -3 -51q1 -88 41 -135q52 -60 200 -60 h121q150 0 217.5 60t81.5 186l71 577q3 27 3 52q0 89 -40 135q-51 60 -200 59h-121q-150 0 -217.5 -60t-81.5 -186z" />
<glyph unicode="P" horiz-adv-x="1140" d="M86 0l170 1384h494q210 0 292 -85q65 -68 66 -188q0 -29 -4 -62l-21 -162q-20 -166 -122.5 -252t-313.5 -86h-317l-68 -549h-176zM348 707h311q126 0 181 40t67 140l21 160q3 21 3 40q1 69 -35 101q-44 40 -171 39h-311z" />
<glyph unicode="Q" horiz-adv-x="1245" d="M80 391l74 602q49 391 487 391h113q394 0 394 -316q0 -36 -5 -75l-74 -602q-12 -109 -57 -188l123 -140l-140 -124l-114 129q-117 -68 -297 -68h-113q-121 0 -205 30t-126.5 85t-56.5 123q-8 38 -8 81q0 35 5 72zM258 403q-4 -29 -4 -55q0 -85 40 -130q53 -60 202 -60 h100q149 0 216 59.5t83 185.5l72 578q3 27 3 50q0 89 -42 136q-52 60 -201 60h-100q-149 0 -216 -60t-81 -186z" />
<glyph unicode="R" horiz-adv-x="1257" d="M86 0l170 1382h520q210 0 292 -85q65 -68 66 -188q0 -29 -4 -62l-26 -216q-16 -126 -76.5 -205t-179.5 -112l291 -514h-203l-279 494h-333l-62 -494h-176zM342 649h338q126 0 181 40t67 140l26 215q3 21 3 40q0 70 -36 101q-45 40 -171 40h-338z" />
<glyph unicode="S" horiz-adv-x="1103" d="M20 16l17 158q348 -35 485 -35q265 0 291 223q4 31 4 58q0 89 -38 139q-49 66 -195 66h-74q-123 0 -205 24t-125 73q-44 48 -56 113q-7 35 -6 77q0 37 5 79q12 98 41.5 170t84.5 128t143.5 84t211.5 28q181 0 418 -33l-18 -158q-295 33 -412 33q-63 0 -107.5 -9.5 t-86 -35t-67 -78t-36.5 -131.5q-2 -24 -2 -44q1 -87 41 -121q50 -42 201 -42h73q81 0 145.5 -15t106.5 -42.5t71.5 -65.5t42 -83.5t16.5 -97.5q1 -16 2 -31q0 -36 -7 -74q-8 -64 -26.5 -119t-55.5 -106t-88.5 -87t-129.5 -57.5t-175 -21.5q-75 0 -155 5t-190.5 15.5 t-144.5 13.5z" />
<glyph unicode="T" horiz-adv-x="1073" d="M102 1225l21 157h991l-20 -157h-408l-149 -1225h-177l150 1225h-408z" />
<glyph unicode="U" horiz-adv-x="1267" d="M98 393l121 989h176l-121 -976q-3 -27 -3 -50q-1 -89 41 -136q52 -60 202 -60h109q149 0 216 60t81 186l120 976h177l-121 -989q-49 -391 -488 -391h-121q-394 0 -394 316q0 36 5 75z" />
<glyph unicode="V" horiz-adv-x="1212" d="M106 1384h183l248 -1230l550 1230h183l-621 -1384h-262z" />
<glyph unicode="W" horiz-adv-x="1859" d="M123 1384h170l168 -1230l471 1230h170l168 -1230l471 1230h170l-531 -1384h-258l-147 1057l-404 -1057h-258z" />
<glyph unicode="X" horiz-adv-x="1206" d="M-23 0l527 692l-363 692h189l286 -553l414 553h189l-519 -692l357 -692h-189l-286 553l-420 -553h-185z" />
<glyph unicode="Y" horiz-adv-x="1122" d="M92 1384h184l271 -782l465 782h184l-586 -972l-51 -412h-172l51 412z" />
<glyph unicode="Z" horiz-adv-x="1146" d="M35 0l18 152l836 1079h-690l18 151h885l-19 -151l-837 -1079h719l-19 -152h-911z" />
<glyph unicode="[" horiz-adv-x="632" d="M76 -258l231 1876h398l-19 -148h-225l-195 -1581h226l-19 -147h-397z" />
<glyph unicode="\" horiz-adv-x="903" d="M207 1386h164l260 -1390h-162z" />
<glyph unicode="]" horiz-adv-x="632" d="M-74 -258l19 147h221l194 1581h-225l19 148h397l-232 -1876h-393z" />
<glyph unicode="^" horiz-adv-x="942" d="M61 848l367 557h147l232 -557h-158l-166 407l-266 -407h-156z" />
<glyph unicode="_" horiz-adv-x="880" d="M-6 -127l10 107h883l-15 -107h-878z" />
<glyph unicode="`" horiz-adv-x="641" d="M166 1257l16 142l310 -185l-17 -141z" />
<glyph unicode="a" horiz-adv-x="1009" d="M104 291l5 26q9 72 32 126.5t55.5 89.5t79 57.5t94 32t108.5 9.5t115.5 -5.5t121.5 -16.5l12 95q2 19 2 36q-1 67 -35 95q-44 36 -164 36q-127 0 -303 -55l19 154q155 49 313 49q207 0 283 -79q60 -62 59 -177q0 -32 -4 -68l-82 -667q-253 -46 -355 -52q-27 -2 -52 -2 q-211 0 -277 113q-31 55 -31 137q0 31 4 66zM276 285q-2 -18 -2 -34q0 -23 5 -43q9 -32 27 -51.5t50 -28.5t62 -11q9 -1 20 -1q24 0 55 4q45 4 76.5 9t77.5 14q7 1 10 2l39 318q-147 29 -215 29h-8q-166 -5 -190 -156l-2 -12z" />
<glyph unicode="b" horiz-adv-x="1062" d="M86 29l168 1355h172l-47 -385q70 11 125 16.5t116.5 5.5t106 -9.5t85.5 -31.5t65 -57q25 -35 35 -89q6 -29 5 -64q0 -30 -4 -63l-51 -416q-31 -254 -249 -303q-53 -12 -125 -12q-111 0 -267 28q-29 5 -135 25zM272 145q144 -28 214 -28h13q169 8 191 168l51 428 q3 21 3 40q0 27 -6 48q-10 36 -44 52q-33 17 -59 25q-15 5 -42 4q-19 0 -44 -2q-60 -6 -85 -9.5t-92 -16.5q-8 -1 -12 -2z" />
<glyph unicode="c" horiz-adv-x="872" d="M98 297l49 401q19 150 103.5 227.5t259.5 92.5q39 2 77 2q147 0 269 -31l-18 -147q-140 28 -252 28q-138 0 -197.5 -38.5t-71.5 -143.5l-47 -381q-3 -22 -3 -41q0 -74 40 -104q50 -40 187 -39q77 0 260 39l-19 -148q-143 -38 -308 -38q-23 0 -46 1q-169 15 -235 93 q-51 61 -52 166q0 29 4 61z" />
<glyph unicode="d" horiz-adv-x="1071" d="M119 291l51 416q9 72 32 126.5t55.5 89.5t79 57t94 31.5t108.5 9.5t115.5 -5.5t121.5 -16.5l49 387h172l-168 -1357q-252 -46 -354 -52q-28 -2 -53 -2q-210 0 -275 111q-32 56 -32 140q0 31 4 65zM291 285q-2 -18 -2 -34q0 -23 5 -43q9 -32 27 -51.5t50 -28.5t62 -11 q9 -1 20 -1q24 0 55 4q45 4 76.5 9t77.5 14q7 1 10 2l88 707q-147 29 -216 29h-9q-168 -5 -192 -160q0 -4 -1 -8z" />
<glyph unicode="e" horiz-adv-x="1001" d="M92 356l35 289q20 165 128.5 268t309.5 107q102 -2 174.5 -32t112.5 -82q39 -50 53 -116q8 -38 8 -82q0 -31 -4 -63l-26 -221h-611l-10 -74q-2 -21 -2 -40q0 -173 195 -179q60 2 160.5 21.5t195.5 54.5l-18 -148q-90 -38 -191.5 -56.5t-165.5 -20.5q-102 2 -175 31.5 t-113 80.5q-38 50 -52 116q-8 38 -8 81q0 31 4 65zM291 584h438l10 67q2 21 2 40q-1 77 -39 121q-48 56 -155 58q-221 -6 -246 -219z" />
<glyph unicode="f" horiz-adv-x="722" d="M78 854l16 143h176l19 140q15 131 94.5 197.5t218.5 66.5q79 0 154 -17l-19 -139q-67 12 -129 12q-78 0 -109 -30t-40 -107l-17 -123h265l-17 -143h-264l-104 -854h-172l104 854h-176z" />
<glyph unicode="g" horiz-adv-x="1003" d="M90 -399l19 149q195 -41 292 -41q121 0 173.5 37t64.5 131l16 127q-70 -11 -126 -16.5t-117 -5.5t-106 9.5t-86 32t-65 57.5t-35 89q-5 30 -5 64q0 30 4 63l49 403q10 84 40.5 144.5t72.5 95.5t102 53.5t120 22.5q20 1 42 1q43 0 93 -5q76 -7 140 -18t142 -26 q6 -1 8.5 -2t7 -1.5t8.5 -1.5l-133 -1078q-19 -166 -115 -244.5t-303 -78.5q-154 0 -303 39zM291 291q-3 -21 -3 -40q0 -27 6 -48q10 -36 43.5 -52t59.5 -25q15 -4 42 -4q19 0 44 2q60 6 85 9.5t92 16.5q8 1 12 2l86 694h-1h-1l-1 1h-1h-1h-1h-1l-1 1h-1h-1h-2 q-136 27 -209 27q-13 0 -25 -1q-151 -14 -170 -167z" />
<glyph unicode="h" d="M76 0l170 1386h172l-49 -395q67 14 129.5 21t134.5 9q9 0 18 1q61 0 111 -13q57 -14 102 -41q46 -28 68 -80q15 -37 15 -83q0 -20 -3 -41l-94 -764h-172l92 758q1 7 1 14q-1 44 -39 69q-44 28 -114 28q0 -1 -2 -1q-72 0 -141 -10t-125 -27l-102 -831h-172z" />
<glyph unicode="i" horiz-adv-x="499" d="M80 0l123 997h172l-123 -997h-172zM255.5 1297.5q24.5 25.5 59.5 25.5t61.5 -25.5t26.5 -60.5q-2 -36 -26.5 -61t-59.5 -25q-35 -1 -61 25q-25 25 -25 58q0 38 24.5 63.5z" />
<glyph unicode="j" horiz-adv-x="489" d="M-147 -426l16 139q72 1 114.5 14t71 52t37.5 110l135 1108h172l-135 -1099q-19 -166 -113.5 -245t-297.5 -79zM282.5 1297.5q24.5 25.5 59.5 25.5t61.5 -25.5t26.5 -60.5q-2 -36 -26.5 -61t-59.5 -25q-36 0 -62 25q-24 25 -24 58q0 38 24.5 63.5z" />
<glyph unicode="k" horiz-adv-x="983" d="M76 0l170 1386h172l-107 -872l455 483h199l-469 -493l348 -504h-203l-334 492l-59 -492h-172z" />
<glyph unicode="l" horiz-adv-x="499" d="M76 0l170 1386l172 -2l-170 -1384h-172z" />
<glyph unicode="m" horiz-adv-x="1693" d="M88 -6l117 948q60 18 132 34q71 16 179 32q64 9 125 9q43 0 83 -4q100 -11 159 -52q46 12 91 21.5t107 19.5q63 11 117 13q22 1 44 1q34 0 68 -2q58 -3 103 -20.5t80 -45.5t50 -76q10 -32 10 -71q0 -21 -3 -43l-94 -764h-172l92 754q1 7 1 13q0 45 -38.5 67t-99.5 22h-17 q-73 -4 -138.5 -15.5t-125.5 -29.5q0 -31 -2 -47l-94 -764h-172l92 754q1 7 1 14q-1 44 -39 66q-39 22 -101 23q-9 -1 -17 -1q-74 -4 -140 -15.5t-126 -29.5l-100 -811h-172z" />
<glyph unicode="n" d="M90 0l115 948q30 9 65 18.5t92.5 21.5t111.5 20t118 12q28 2 54 3q33 1 64 -3q54 -4 104.5 -21t83.5 -45q34 -30 50 -78q11 -33 11 -72q0 -19 -3 -40l-92 -764h-172l92 758q1 7 1 14q-1 44 -39 69q-44 28 -114 28q0 -1 -2 -1q-72 0 -141.5 -10t-126.5 -27l-100 -831h-172 z" />
<glyph unicode="o" horiz-adv-x="1064" d="M92 354l35 289q20 165 128.5 268t309.5 107h58q102 -2 174.5 -32t112.5 -82q39 -50 53 -116q8 -38 8 -82q0 -31 -4 -63l-35 -289q-22 -167 -129.5 -268.5t-308.5 -105.5h-58q-102 2 -175 31.5t-113 80.5q-38 50 -52 116q-8 38 -8 81q0 31 4 65zM262 348q-2 -21 -2 -40 q0 -173 195 -179h57q222 6 246 219l39 301q2 20 2 39q0 76 -39 121q-49 56 -156 59h-57q-221 -6 -246 -219z" />
<glyph unicode="p" horiz-adv-x="1071" d="M66 -428l172 1397q252 46 354 52q28 2 53 2q210 0 275 -111q32 -56 32 -140q0 -31 -4 -65l-51 -416q-9 -72 -32 -126.5t-55.5 -89.5t-79 -57.5t-94 -32t-108.5 -9.5t-115.5 5.5t-121.5 16.5l-53 -426h-172zM309 145q144 -28 214 -28h13q167 6 188 164q1 2 1 4l53 428 q2 19 2 37q0 28 -6 51q-10 36 -44 52t-60 25q-15 4 -42 4q-19 0 -44 -2q-60 -6 -85 -9.5t-92 -16.5q-8 -1 -12 -2z" />
<glyph unicode="q" horiz-adv-x="1062" d="M145 291l52 416q10 84 42 144t70 95.5t104 53t117 22.5q18 2 40 2q41 0 97 -6q87 -9 137 -17.5t143 -26.5l9 -1.5t8 -1.5t9 -2l-172 -1403h-172l53 432q-70 -11 -126 -16.5t-117 -5.5t-106.5 9.5t-86.5 32t-65 57.5t-35 89q-5 30 -5 64q0 30 4 63zM317 285q-2 -17 -2 -33 q0 -25 5 -44q10 -33 28 -52t50.5 -28t62.5 -11q9 -1 20 -1q24 0 55 4q45 4 76.5 9t77.5 14q2 1 3.5 1t3 0.5t3.5 0.5l86 707q-147 29 -215 29h-8q-166 -5 -190 -156l-2 -12z" />
<glyph unicode="r" horiz-adv-x="747" d="M63 -2l95 760q31 246 355 245q98 0 224 -22l-18 -156q-62 15 -119 22q-50 6 -104 6h-16q-63 -1 -103.5 -26.5t-46.5 -74.5l-94 -754h-173z" />
<glyph unicode="s" horiz-adv-x="876" d="M47 25l19 151q128 -42 313 -45q105 2 155 31.5t64 118.5q3 22 4 32t0.5 30.5t-5.5 31t-16.5 25.5t-30 22.5t-48 13.5t-68.5 6q-85 1 -138.5 10t-105.5 37.5t-71 90.5q-11 37 -11 86q0 34 5 73q41 296 368 301q177 0 310 -26l-19 -144q-148 27 -293 27q-184 0 -203 -162 q-2 -18 -2 -34q0 -19 3 -33q6 -26 19 -40t39 -21.5t51 -10t66 -3.5q22 -1 33 -1q62 -2 110.5 -14t79.5 -29.5t51.5 -43.5t30.5 -52t12.5 -59.5t0.5 -61.5t-8 -62q-10 -68 -34.5 -118t-56 -80t-78 -48.5t-92.5 -25.5t-108 -10q-26 -1 -52 -1q-148 0 -294 38z" />
<glyph unicode="t" horiz-adv-x="727" d="M70 854l16 143h176l49 385h172l-49 -385h199l-17 -143h-198l-76 -618q-3 -21 -2 -37q0 -32 10 -49q16 -25 80 -25q59 0 158 22l-19 -141q-93 -26 -184 -26q-128 0 -181 52q-41 41 -41 125q0 24 3 50l80 647h-176z" />
<glyph unicode="u" d="M133 233l92 764h172l-92 -757q-1 -7 -1 -14q0 -44 38 -69q44 -28 117 -28t142 10t126 27l100 831h172l-114 -948q-30 -9 -65.5 -18.5t-92.5 -21.5t-111.5 -20.5t-118.5 -12.5q-28 -2 -54 -1q-34 1 -64 3q-54 4 -104 20.5t-83.5 45t-49.5 76.5q-11 33 -12 73q0 19 3 40z " />
<glyph unicode="v" horiz-adv-x="921" d="M74 997h178l166 -819l366 819h179l-451 -997h-229z" />
<glyph unicode="w" horiz-adv-x="1519" d="M80 997h170l141 -819l342 819h170l141 -819l342 819h170l-419 -997h-226l-129 713l-299 -713h-225z" />
<glyph unicode="x" horiz-adv-x="917" d="M-8 0l368 500l-247 497h190l170 -344l252 344h190l-364 -497l246 -500h-191l-172 344l-254 -344h-188z" />
<glyph unicode="y" horiz-adv-x="1064" d="M129 -399l18 149q195 -41 291 -41q122 0 175 37t63 131l16 127q-70 -11 -126 -16.5t-117 -5.5t-106 9.5t-86 32t-64.5 57.5t-33.5 89q-5 29 -5 63q0 30 4 64l86 700h172l-88 -706q-2 -19 -2 -37q0 -28 6 -51q10 -36 44 -52t60 -25q15 -4 42 -4q19 0 44 2q60 6 85 9.5 t92 16.5q8 1 12 2l104 845h172l-137 -1112q-21 -166 -117 -244.5t-303 -78.5q-155 0 -301 39z" />
<glyph unicode="z" horiz-adv-x="940" d="M66 0l16 139l573 699h-493l18 159h705l-17 -139l-571 -698h475l-18 -160h-688z" />
<glyph unicode="{" horiz-adv-x="641" d="M35 582l18 151q100 8 158 63t70 156l34 291q20 160 124.5 262t295.5 111l-18 -150q-204 -15 -228 -217l-36 -291q-22 -201 -170 -301q122 -101 96 -299l-35 -278q-24 -202 170 -217l-18 -150q-187 10 -264.5 111t-57.5 262l35 279q21 202 -174 217z" />
<glyph unicode="|" horiz-adv-x="526" d="M201 1618h116l2 -1940h-116z" />
<glyph unicode="}" horiz-adv-x="641" d="M-88 -287l18 150q196 15 220 217l34 278q26 198 170 299q-119 96 -96 301l37 291q24 202 -174 217l18 150q188 -9 267 -111t59 -262l-35 -291q-24 -204 174 -219l-18 -151q-102 -8 -160 -62.5t-68 -154.5l-34 -279q-20 -161 -122.5 -262t-289.5 -111z" />
<glyph unicode="~" horiz-adv-x="1024" d="M78 463q59 117 126.5 178t164.5 61q38 0 73.5 -15.5t63 -38t53.5 -44.5t54.5 -37.5t56.5 -15.5q32 0 57.5 12t46.5 38.5t33 46.5t31 59l102 -50q-108 -241 -289 -241q-50 0 -95.5 23.5t-73.5 51t-64 51t-68 23.5q-56 0 -91.5 -36.5t-78.5 -118.5z" />
<glyph unicode="&#xa1;" horiz-adv-x="544" d="M100 -389h172l131 1071h-172zM260 911q0 35 24.5 60.5t59.5 25.5t61.5 -25.5t26.5 -60.5q-2 -36 -26.5 -61t-59.5 -25q-36 0 -61.5 25.5t-24.5 60.5z" />
<glyph unicode="&#xa2;" horiz-adv-x="985" d="M133 391l35 277q18 149 102 226.5t258 92.5l27 225h154l-27 -221q118 -6 209 -30l-31 -142q-129 23 -256 23q-137 0 -196 -39.5t-72 -145.5l-31 -256q-13 -106 36.5 -145t186.5 -39q125 0 260 23l-2 -142q-96 -24 -217 -30l-26 -222h-154l27 226q-170 15 -235.5 92 t-47.5 227z" />
<glyph unicode="&#xa3;" horiz-adv-x="1120" d="M-6 0l18 160h135l58 469h-115l19 151h114l27 213q49 391 485 391h271l-19 -157h-264q-150 0 -217.5 -60t-81.5 -186l-25 -201h420l-18 -151h-420l-59 -471h647l-19 -158h-956z" />
<glyph unicode="&#xa4;" horiz-adv-x="1159" d="M139 268l131 131q-32 54 -32 144l-2 288q0 87 36 142l-131 131l105 106l141 -141q73 31 178 31q100 0 178 -31l142 141l108 -106l-131 -131q36 -64 33 -142l2 -288q0 -91 -37 -144l131 -131l-104 -106l-142 141q-76 -31 -178 -31q-109 0 -178 29l-141 -139zM387 803 l6 -234q-2 -87 34 -122t138 -35q100 0 139 36t41 121l-6 234q2 86 -35 122t-137 36q-103 0 -140.5 -36t-39.5 -122z" />
<glyph unicode="&#xa5;" horiz-adv-x="1122" d="M92 1384h184l271 -782l465 782h184l-389 -645h133l-14 -127h-195l-121 -200l-6 -37h291l-14 -127h-291l-31 -248h-172l31 248h-293l14 127h293l6 37l-71 200h-197l14 127h135z" />
<glyph unicode="&#xa6;" horiz-adv-x="526" d="M201 424h116l2 -854h-116zM201 1618h116l2 -854h-116z" />
<glyph unicode="&#xa7;" horiz-adv-x="1075" d="M84 -244l18 150h324q219 6 246 219l94 768h172l-94 -762q-20 -166 -128 -268.5t-308 -106.5h-324zM113 0l96 772q10 79 40 144.5t81.5 117t132 81.5t182.5 32h322l-19 -150h-321q-109 -3 -171.5 -59t-74.5 -160l-96 -778h-172z" />
<glyph unicode="&#xa8;" horiz-adv-x="800" d="M164 1237q-3 35 21.5 60.5t60.5 25.5q35 0 61 -25t29 -61q-3 -36 -29 -61t-61 -25q-36 0 -60.5 25.5t-21.5 60.5zM494 1237q-3 35 21.5 60.5t59.5 25.5t61.5 -25.5t29.5 -60.5q-3 -35 -29.5 -60.5t-61.5 -25.5t-59.5 25.5t-21.5 60.5z" />
<glyph unicode="&#xa9;" horiz-adv-x="1648" d="M193 741q0 175 77.5 318.5t222.5 229t330 85.5q187 0 332.5 -85.5t223 -229t77.5 -318.5q0 -174 -77.5 -317.5t-223 -229t-332.5 -85.5q-185 0 -330 85.5t-222.5 229t-77.5 317.5zM307 741q0 -146 62 -264.5t180.5 -189t273.5 -70.5t274.5 70.5t181.5 189t62 264.5 t-62 264.5t-181.5 189.5t-274.5 71q-154 0 -273 -70.5t-181 -189.5t-62 -265zM604 621v253q0 103 55 151t185 48q78 0 160 -20v-101q-93 19 -156 19q-82 0 -105.5 -21.5t-23.5 -87.5v-231q0 -65 23.5 -86t105.5 -21q87 0 156 17v-101q-82 -20 -160 -20q-130 0 -185 48 t-55 153z" />
<glyph unicode="&#xaa;" horiz-adv-x="776" d="M166 971v16q0 59 19.5 99t50 59.5t78 26t91.5 3.5t103 -12v56q0 57 -28.5 78.5t-102.5 21.5q-67 0 -178 -33v92q95 31 184 31q125 0 176 -48t51 -147v-401q-173 -31 -239 -32q-166 -1 -197 120q-8 32 -8 70zM268 967q0 -84 75.5 -97.5t150.5 11.5q9 1 14 2v190 q-32 6 -46.5 8.5t-45 6.5t-46.5 2.5t-39 -6.5t-34 -16t-20 -30.5t-9 -46.5v-24z" />
<glyph unicode="&#xab;" horiz-adv-x="991" d="M80 500l242 313h170l-242 -313l168 -316h-172zM477 500l242 313h170l-242 -313l168 -316h-172z" />
<glyph unicode="&#xac;" horiz-adv-x="1128" d="M119 469v143h831v-489h-151v346h-680z" />
<glyph unicode="&#xad;" horiz-adv-x="757" d="M111 500l18 141h512l-18 -141h-512z" />
<glyph unicode="&#xae;" horiz-adv-x="1218" d="M57 829q0 154 67 279.5t194.5 200.5t293.5 75q167 0 294 -75t193 -200.5t66 -279.5t-66 -280t-193.5 -201.5t-293.5 -75.5t-293.5 75.5t-194.5 201.5t-67 280zM166 829q0 -128 48.5 -229.5t151 -164t246.5 -62.5q212 0 328.5 129.5t116.5 326.5q0 127 -48.5 228t-151 164 t-245.5 63q-213 0 -329.5 -129.5t-116.5 -325.5zM440 586v510h201q160 0 160 -135v-70q0 -81 -74 -121l135 -184h-104l-127 170h-105v-170h-86zM526 836h111q40 0 57 14t17 43v61q0 36 -16.5 49t-57.5 13h-111v-180z" />
<glyph unicode="&#xaf;" horiz-adv-x="944" d="M219 1143l14 127h504l-14 -127h-504z" />
<glyph unicode="&#xb0;" horiz-adv-x="712" d="M123 1110q-3 101 58 167t171 66t172.5 -66t65.5 -167q-3 -101 -65.5 -167t-172.5 -66t-171 66t-58 167zM227 1110q-3 -61 29.5 -101t95.5 -40t96.5 39.5t36.5 101.5q-3 62 -36.5 101.5t-96.5 39.5t-95.5 -40t-29.5 -101z" />
<glyph unicode="&#xb1;" horiz-adv-x="1118" d="M139 0l2 135h832l-2 -135h-832zM139 614l2 144h340v346h152v-346h340l-2 -144h-340v-346h-152v346h-340z" />
<glyph unicode="&#xb2;" horiz-adv-x="794" d="M78 596l24 186q30 246 285 246q92 0 129 24.5t47 98.5q11 91 -25.5 121.5t-115.5 30.5q-71 0 -215 -37l10 96q129 37 221 37q143 0 193 -62.5t35 -183.5q-14 -112 -77.5 -165.5t-207.5 -53.5q-87 0 -127.5 -40.5t-50.5 -117.5l-10 -80h419l-12 -100h-522z" />
<glyph unicode="&#xb3;" horiz-adv-x="790" d="M125 618l12 93q122 -35 207 -35q80 0 123 28.5t53 116.5q6 73 -22 96t-117 23h-162l10 96h158q92 0 127.5 23t48.5 96q5 46 -3 76t-29.5 44.5t-46.5 19.5t-64 5q-87 0 -215 -34l12 92q126 37 219 37q142 0 192.5 -62t37.5 -178q-16 -119 -88 -168q60 -50 45 -166 q-13 -116 -78.5 -177.5t-208.5 -61.5q-98 0 -211 36z" />
<glyph unicode="&#xb4;" horiz-adv-x="641" d="M143 1073l17 141l354 185l-16 -142z" />
<glyph unicode="&#xb5;" horiz-adv-x="1028" d="M49 -424l178 1448h172l-106 -858q156 -30 220 -29q162 4 194 137l92 750h172l-146 -1184h-174l23 180q-141 -47 -398 -2l-55 -442h-172z" />
<glyph unicode="&#xb6;" horiz-adv-x="1052" d="M147 879q17 138 100 255.5t209 186.5t265 70l-127 -1024q-138 0 -247 68.5t-163 186.5t-37 257zM426 -414l18 140q110 2 163.5 37.5t64.5 138.5l182 1484h172l-180 -1476q-21 -166 -117 -245t-303 -79z" />
<glyph unicode="&#xb7;" horiz-adv-x="395" d="M106 649q-3 38 24.5 66t66.5 28q38 0 66.5 -27.5t31.5 -66.5q-3 -39 -31.5 -66.5t-66.5 -27.5q-39 0 -66.5 28t-24.5 66z" />
<glyph unicode="&#xb8;" horiz-adv-x="632" d="M209 -360l12 81q71 -15 141 -18q51 2 74.5 17.5t30.5 54.5q4 9 1 22t-8.5 24t-25 19t-49.5 8h-111l62 177h88l-35 -93h29q48 -2 80.5 -18t45 -39t17.5 -51t-2 -55q-14 -81 -63 -111t-127 -35q-67 -5 -160 17z" />
<glyph unicode="&#xb9;" horiz-adv-x="681" d="M223 1241l10 92l125 53h95l-97 -798h-104l84 698z" />
<glyph unicode="&#xba;" horiz-adv-x="806" d="M139 1016l23 178q13 104 81.5 167.5t196.5 63.5q127 0 181 -63.5t41 -167.5l-23 -178q-13 -104 -82.5 -168t-196.5 -64q-128 0 -181 64t-40 168zM244 1012q-15 -135 129 -135t159 135l23 186q15 135 -127 135q-147 0 -162 -135z" />
<glyph unicode="&#xbb;" horiz-adv-x="991" d="M92 184l248 316l-170 313h170l170 -313l-248 -316h-170zM489 184l248 316l-170 313h170l170 -313l-248 -316h-170z" />
<glyph unicode="&#xbc;" horiz-adv-x="1636" d="M264 1229l10 92l127 53h93l-99 -799h-102l86 699zM475 575l373 863h98l-373 -863h-98zM762 719l14 112l408 545h139l-70 -561h86l-12 -96h-86l-16 -146h-105l17 146h-375zM879 815h270l53 426z" />
<glyph unicode="&#xbd;" horiz-adv-x="1636" d="M217 1231l10 92l127 53h92l-98 -798h-102l86 698zM412 578l370 862h99l-373 -862h-96zM776 578l23 186q34 246 286 246q92 0 128.5 24.5t46.5 98.5q6 48 -2 79t-29.5 46t-47 20.5t-63.5 5.5q-71 0 -215 -37l10 94q113 37 222 37q74 0 123 -17t73 -48.5t31.5 -77 t-0.5 -102.5q-13 -110 -77 -164t-208 -54q-88 0 -128 -40t-50 -117l-8 -80h420l-13 -100h-522z" />
<glyph unicode="&#xbe;" horiz-adv-x="1636" d="M111 606l10 92q119 -34 207 -34q38 0 64 5t51 19.5t40 44.5t21 76q7 72 -21.5 95.5t-117.5 23.5h-162l12 96h158q92 0 127 23t45 96q5 46 -2.5 76t-28.5 44.5t-45.5 19.5t-62.5 5q-82 0 -218 -35l13 93q119 36 219 36q141 0 191.5 -61.5t37.5 -177.5q-15 -117 -86 -168 q57 -49 45 -166q-15 -116 -81.5 -178t-207.5 -62q-99 0 -208 37zM625 573l374 865h99l-375 -865h-98zM899 719l14 112l410 545h137l-69 -561h86l-13 -96h-86l-16 -144h-105l17 144h-375zM1016 815h270l53 426z" />
<glyph unicode="&#xbf;" horiz-adv-x="1085" d="M77.5 240.5q-13.5 75.5 0.5 169.5q11 91 39.5 156t82.5 113.5t141 72.5t210 24h51l43 338h152l-62 -496h-196q-151 0 -210.5 -41.5t-78.5 -164.5q-9 -47 -4.5 -83t11 -63t24.5 -46t36.5 -31t46.5 -19t55 -9.5t62 -2.5q134 0 420 32l-18 -157q-245 -33 -426 -33 q-123 0 -204.5 29t-121.5 82.5t-53.5 129zM653 1325q-1 38 27.5 66t67.5 28q38 0 65 -27.5t29 -66.5q0 -38 -28 -66t-66 -28t-66.5 28t-28.5 66z" />
<glyph unicode="&#xc0;" horiz-adv-x="1239" d="M47 -2l121 993q49 391 487 391h50q438 0 389 -391l-121 -993h-176l75 631h-573l-76 -631h-176zM317 780h574l24 199q16 126 -36 186t-201 60h-37q-149 0 -216 -60t-83 -186zM569 1624l17 141l309 -184l-16 -141z" />
<glyph unicode="&#xc1;" horiz-adv-x="1239" d="M47 -2l121 993q49 391 487 391h50q438 0 389 -391l-121 -993h-176l75 631h-573l-76 -631h-176zM317 780h574l24 199q16 126 -36 186t-201 60h-37q-149 0 -216 -60t-83 -186zM547 1440l16 141l355 184l-17 -141z" />
<glyph unicode="&#xc2;" horiz-adv-x="1239" d="M47 -2l121 993q49 391 487 391h50q438 0 389 -391l-121 -993h-176l77 631h-573l-78 -631h-176zM319 780h574l25 199q14 126 -38.5 186t-201.5 60h-37q-149 0 -216 -60t-81 -186zM477 1473l17 135l231 151l193 -149l-17 -140l-192 148l-230 -148z" />
<glyph unicode="&#xc3;" horiz-adv-x="1239" d="M51 -2l121 993q49 391 487 391h50q438 0 389 -391l-121 -993h-176l76 631h-574l-76 -631h-176zM324 780h573l23 199q16 126 -36.5 186t-201.5 60h-37q-149 0 -216 -60t-83 -186zM412 1571q40 54 92 88.5t104 34.5q51 0 113 -35q77 -41 108 -41q55 0 99 61l78 -57 q-76 -129 -193 -129q-53 0 -117 37q-26 15 -37 21t-30 12t-37 6q-30 0 -56 -17.5t-59 -50.5z" />
<glyph unicode="&#xc4;" horiz-adv-x="1239" d="M51 -2l121 993q49 391 487 391h50q438 0 389 -391l-121 -993h-176l78 631h-574l-78 -631h-176zM324 780h573l25 199q14 126 -38.5 186t-201.5 60h-37q-149 0 -216 -60t-81 -186zM459 1604q0 35 24.5 60.5t59.5 25.5t61.5 -25.5t26.5 -60.5q-2 -36 -26.5 -61t-59.5 -25 q-36 0 -61.5 25.5t-24.5 60.5zM788 1604q0 35 24.5 60.5t59.5 25.5q36 0 62.5 -25.5t26.5 -60.5q-2 -36 -27 -61t-60 -25q-36 0 -61.5 25.5t-24.5 60.5z" />
<glyph unicode="&#xc5;" horiz-adv-x="1239" d="M47 -2l121 993q49 391 487 391h50q438 0 389 -391l-121 -993h-176l75 631h-573l-76 -631h-176zM317 780h574l24 199q16 126 -36 186t-201 60h-37q-149 0 -216 -60t-83 -186zM553 1614q0 64 40 106.5t112 42.5t111.5 -42t39.5 -107q0 -64 -41 -107t-113 -43t-110.5 42.5 t-38.5 107.5zM637 1614q0 -33 18 -53.5t50 -20.5t49.5 20.5t17.5 53.5t-17.5 53.5t-49.5 20.5t-50 -20.5t-18 -53.5z" />
<glyph unicode="&#xc6;" horiz-adv-x="1814" d="M70 -2l120 993q52 391 488 391l1085 2l-18 -157h-627l-55 -449h582l-21 -157h-582l-55 -463h629l-21 -158h-804l77 629h-544l-78 -631h-176zM342 780h545l53 445h-276q-149 0 -216 -60t-81 -186z" />
<glyph unicode="&#xc7;" horiz-adv-x="1032" d="M127 385l72 598q26 199 149 300t367 101q168 0 315 -32l-18 -156q-164 29 -310 29q-167 0 -238.5 -55t-88.5 -197l-72 -578q-17 -142 41 -197t225 -55q139 0 318 27l-21 -156q-154 -27 -303 -30l-18 -52h28q48 -2 80.5 -18t45.5 -39t18.5 -51t-0.5 -55q-8 -43 -27 -72 t-47 -44t-55 -21t-64 -9q-65 -5 -159 17l14 81q67 -15 141 -18q50 2 73.5 17.5t29.5 54.5q4 9 1 22t-8.5 24t-25 19t-49.5 8h-111l49 138q-209 13 -292.5 113t-59.5 286z" />
<glyph unicode="&#xc8;" horiz-adv-x="1105" d="M63 0l168 1382h803l-18 -157h-627l-55 -447h581l-18 -157h-582l-57 -463h629l-19 -158h-805zM475 1624l17 141l309 -184l-17 -141z" />
<glyph unicode="&#xc9;" horiz-adv-x="1105" d="M63 0l168 1382h803l-18 -157h-627l-55 -447h581l-18 -157h-582l-57 -463h629l-19 -158h-805zM453 1440l16 141l354 184l-16 -141z" />
<glyph unicode="&#xca;" horiz-adv-x="1105" d="M63 0l170 1382h803l-20 -157h-627l-55 -447h581l-18 -157h-582l-57 -463h629l-19 -158h-805zM410 1473l16 135l231 151l193 -149l-16 -140l-193 148l-229 -148z" />
<glyph unicode="&#xcb;" horiz-adv-x="1105" d="M68 0l170 1382h802l-20 -157h-627l-53 -447h582l-21 -157h-582l-57 -463h629l-19 -158h-804zM391 1604q0 35 24.5 60.5t59.5 25.5t61.5 -25.5t26.5 -60.5q-2 -36 -26.5 -61t-59.5 -25q-36 0 -61.5 25.5t-24.5 60.5zM721 1604q0 35 24.5 60.5t59.5 25.5t61.5 -25.5 t26.5 -60.5q-2 -36 -26.5 -61t-59.5 -25q-36 0 -61.5 25.5t-24.5 60.5z" />
<glyph unicode="&#xcc;" horiz-adv-x="544" d="M74 0l168 1382h176l-168 -1382h-176zM195 1624l16 141l309 -184l-16 -141z" />
<glyph unicode="&#xcd;" horiz-adv-x="544" d="M74 0l168 1382h176l-168 -1382h-176zM172 1440l16 141l355 184l-17 -141z" />
<glyph unicode="&#xce;" horiz-adv-x="544" d="M74 0l170 1382h176l-170 -1382h-176zM131 1473l16 135l232 151l192 -149l-16 -140l-193 148l-229 -148z" />
<glyph unicode="&#xcf;" horiz-adv-x="544" d="M78 0l170 1382h176l-170 -1382h-176zM113 1604q0 35 24.5 60.5t59.5 25.5t61.5 -25.5t26.5 -60.5q-2 -36 -26.5 -61t-59.5 -25q-36 0 -61.5 25.5t-24.5 60.5zM442 1604q0 35 24.5 60.5t59.5 25.5t61.5 -25.5t26.5 -60.5q-2 -36 -26.5 -61t-59.5 -25q-36 0 -61.5 25.5 t-24.5 60.5z" />
<glyph unicode="&#xd0;" horiz-adv-x="1181" d="M33 633l18 149h123l74 602h461q121 0 205 -30t126.5 -85t56.5 -123t3 -153l-76 -602q-49 -391 -485 -391h-461l78 633h-123zM272 158h279q150 0 217.5 60t81.5 185l72 578q14 126 -37.5 186t-200.5 60h-278l-56 -445h266l-18 -149h-266z" />
<glyph unicode="&#xd1;" horiz-adv-x="1351" d="M63 0l170 1384h246l449 -1171l145 1171h172l-170 -1384h-246l-450 1165l-143 -1165h-173zM467 1571q40 53 92 88t105 35q50 0 112 -35q77 -41 109 -41q54 0 98 61l78 -57q-76 -129 -193 -129q-51 0 -118 37q-63 39 -103 39q-30 0 -56 -17.5t-59 -50.5z" />
<glyph unicode="&#xd2;" horiz-adv-x="1273" d="M70 393l73 602q49 391 488 391h133q438 0 389 -391l-74 -602q-49 -391 -485 -391h-133q-121 0 -205 30t-126.5 85t-56.5 123t-3 153zM248 406q-16 -126 36 -186t201 -60h121q149 0 216 60t83 186l70 577q16 126 -36.5 186t-201.5 60h-121q-149 0 -216 -60t-83 -186z M559 1624l16 141l310 -184l-17 -141z" />
<glyph unicode="&#xd3;" horiz-adv-x="1273" d="M70 393l73 602q49 391 488 391h133q438 0 389 -391l-74 -602q-49 -391 -485 -391h-133q-121 0 -205 30t-126.5 85t-56.5 123t-3 153zM248 406q-16 -126 36 -186t201 -60h121q149 0 216 60t83 186l70 577q16 126 -36.5 186t-201.5 60h-121q-149 0 -216 -60t-83 -186z M537 1440l16 141l354 184l-16 -141z" />
<glyph unicode="&#xd4;" horiz-adv-x="1273" d="M70 393l73 602q49 391 488 391h133q438 0 389 -391l-74 -602q-49 -391 -485 -391h-133q-121 0 -205 30t-126.5 85t-56.5 123t-3 153zM248 406q-16 -126 36 -186t201 -60h121q149 0 216 60t83 186l72 577q14 126 -38.5 186t-201.5 60h-121q-149 0 -216 -60t-81 -186z M494 1473l16 135l231 151l193 -149l-16 -140l-193 148l-229 -148z" />
<glyph unicode="&#xd5;" horiz-adv-x="1273" d="M74 393l73 602q49 391 488 391h133q438 0 389 -391l-74 -602q-49 -391 -485 -391h-133q-121 0 -205 30t-126.5 85t-56.5 123t-3 153zM252 406q-16 -126 36 -186t201 -60h121q149 0 216 60t83 186l72 577q14 126 -38.5 186t-201.5 60h-120q-149 0 -216 -60t-81 -186z M428 1571q40 53 92 88t105 35q47 0 112 -35q77 -41 109 -41q54 0 98 61l78 -57q-76 -129 -193 -129q-51 0 -118 37q-63 39 -103 39q-21 0 -42.5 -11t-35.5 -23t-36 -34z" />
<glyph unicode="&#xd6;" horiz-adv-x="1273" d="M74 393l73 602q49 391 488 391h133q438 0 389 -391l-74 -602q-49 -391 -485 -391h-133q-121 0 -205 30t-126.5 85t-56.5 123t-3 153zM252 406q-14 -127 37 -186.5t200 -59.5h121q150 0 217.5 60t81.5 186l72 577q14 126 -38.5 186t-201.5 60h-120q-149 0 -216 -60 t-81 -186zM475 1604q0 35 24.5 60.5t59.5 25.5t61.5 -25.5t26.5 -60.5q-2 -36 -26.5 -61t-59.5 -25q-36 0 -61.5 25.5t-24.5 60.5zM805 1604q0 35 24.5 60.5t59.5 25.5t61.5 -25.5t26.5 -60.5q-2 -36 -26.5 -61t-59.5 -25q-36 0 -61.5 25.5t-24.5 60.5z" />
<glyph unicode="&#xd7;" horiz-adv-x="1071" d="M104 207l328 289l-256 290l115 101l254 -287l325 287l91 -101l-322 -290l250 -289l-115 -103l-256 289l-323 -289z" />
<glyph unicode="&#xd8;" horiz-adv-x="1273" d="M92 393l74 602q49 391 485 391h133q10 0 31 -1t31 -1l57 132h164l-72 -162q216 -82 181 -359l-74 -602q-49 -391 -488 -391h-133q-49 0 -69 2l-50 -113h-161l63 146q-206 82 -172 356zM270 406q-19 -153 62 -209l446 1032h-18h-121q-149 0 -216 -60t-83 -186zM479 160h29 h121q149 0 216 60t83 186l69 577q10 80 -5 131.5t-64 79.5z" />
<glyph unicode="&#xd9;" horiz-adv-x="1267" d="M74 393l121 989h176l-119 -976q-16 -126 36 -186t201 -60h109q149 0 216 60t83 186l119 976h176l-121 -989q-49 -391 -485 -391h-121q-121 0 -205 30t-126.5 85t-56.5 123t-3 153zM555 1624l16 141l310 -184l-17 -141z" />
<glyph unicode="&#xda;" horiz-adv-x="1267" d="M74 393l121 989h176l-119 -976q-16 -126 36 -186t201 -60h109q149 0 216 60t83 186l119 976h176l-121 -989q-49 -391 -485 -391h-121q-121 0 -205 30t-126.5 85t-56.5 123t-3 153zM532 1440l17 141l354 184l-16 -141z" />
<glyph unicode="&#xdb;" horiz-adv-x="1267" d="M74 393l123 989h176l-121 -976q-16 -126 36 -186t201 -60h109q149 0 216 60t83 186l121 976h176l-123 -989q-49 -391 -485 -391h-121q-121 0 -205 30t-126.5 85t-56.5 123t-3 153zM492 1473l16 135l231 151l193 -149l-17 -140l-192 148l-229 -148z" />
<glyph unicode="&#xdc;" horiz-adv-x="1267" d="M78 393l123 989h176l-121 -976q-14 -126 37.5 -186t200.5 -60h108q150 0 217.5 60t81.5 186l121 976h176l-123 -989q-49 -391 -485 -391h-121q-121 0 -205 30t-126.5 85t-56.5 123t-3 153zM473 1604q0 35 24.5 60.5t59.5 25.5t61.5 -25.5t26.5 -60.5q-2 -36 -26.5 -61 t-59.5 -25q-36 0 -61.5 25.5t-24.5 60.5zM803 1604q0 35 24.5 60.5t59.5 25.5t61.5 -25.5t26.5 -60.5q-2 -36 -26.5 -61t-59.5 -25q-36 0 -61.5 25.5t-24.5 60.5z" />
<glyph unicode="&#xdd;" horiz-adv-x="1122" d="M68 1384h184l270 -782l465 782h184l-585 -972l-51 -412h-173l52 412zM463 1460l16 142l355 184l-17 -141z" />
<glyph unicode="&#xde;" horiz-adv-x="1038" d="M61 0l179 1438h172l-29 -221q70 11 126 16.5t117 5.5t106.5 -9.5t86.5 -32t65 -57.5t34.5 -89.5t1.5 -126.5l-52 -416q-9 -72 -32.5 -127t-56.5 -90.5t-79.5 -57.5t-94 -32t-108.5 -10t-115.5 5.5t-121.5 16.5l-27 -213h-172zM279 362q157 -31 226 -28q166 6 188 162 q1 3 1 6l54 428q6 52 -4 88t-44 52t-60 24.5t-86 2.5t-85 -9.5t-92 -16.5q-8 -1 -12 -2z" />
<glyph unicode="&#xdf;" horiz-adv-x="1216" d="M111 0l135 1108q16 127 102.5 201.5t241.5 74.5h198q160 0 231 -70t54 -206l-20 -178q-11 -85 -51 -140.5t-130 -87.5q87 -16 132 -78t32 -167l-18 -164q-19 -141 -117 -217t-254 -76h-141l18 147h127q186 0 205 160l18 139q9 83 -34 126.5t-142 43.5h-75l18 150h39 q185 0 205 164l20 178q9 66 -25 97.5t-114 31.5h-191q-154 0 -169 -133l-136 -1104h-159z" />
<glyph unicode="&#xe0;" horiz-adv-x="1009" d="M82 291l2 26q9 72 32.5 126.5t56.5 89.5t79.5 57.5t94 32t108.5 9.5t115.5 -5.5t121.5 -16.5l10 95q12 94 -31 130.5t-165 36.5q-123 0 -303 -55l18 154q159 49 314 49q207 0 283.5 -79t55.5 -245l-81 -667q-252 -46 -353 -52q-255 -15 -329 109q-44 75 -29 205zM252 285 q-6 -45 3.5 -77.5t27.5 -51.5t50.5 -28t62.5 -11t75 2.5t76.5 9.5t77.5 14q2 1 3.5 1t3 0.5t3.5 0.5l39 318h-1h-1l-1 1h-1h-1h-1h-1l-1 1h-1h-1h-2q-161 32 -234 26q-151 -14 -170 -167zM412 1257l16 142l309 -185l-16 -141z" />
<glyph unicode="&#xe1;" horiz-adv-x="1009" d="M82 291l2 26q9 72 32.5 126.5t56.5 89.5t79.5 57.5t94 32t108.5 9.5t115.5 -5.5t121.5 -16.5l10 95q12 94 -31 130.5t-165 36.5q-123 0 -303 -55l18 154q159 49 314 49q207 0 283.5 -79t55.5 -245l-81 -667q-252 -46 -353 -52q-255 -15 -329 109q-44 75 -29 205zM252 285 q-6 -45 3.5 -77.5t27.5 -51.5t50.5 -28t62.5 -11t75 2.5t76.5 9.5t77.5 14q2 1 3.5 1t3 0.5t3.5 0.5l39 318h-1h-1l-1 1h-1h-1h-1h-1l-1 1h-1h-1h-2q-161 32 -234 26q-151 -14 -170 -167zM389 1073l17 141l354 185l-17 -142z" />
<glyph unicode="&#xe2;" horiz-adv-x="1009" d="M82 291l2 26q9 72 32.5 126.5t56.5 89.5t79.5 57.5t94 32t108.5 9.5t115.5 -5.5t121.5 -16.5l13 95q11 94 -32.5 130.5t-164.5 36.5q-125 0 -305 -55l20 154q155 49 314 49q207 0 282.5 -79t54.5 -245l-81 -667q-252 -46 -353 -52q-255 -15 -329 109q-44 75 -29 205z M252 285q-6 -45 3.5 -77.5t27.5 -51.5t50.5 -28t62.5 -11t75 2.5t76.5 9.5t77.5 14q2 1 3.5 1t3 0.5t3.5 0.5l39 318h-1h-1l-1 1h-1h-1h-1h-1l-1 1h-1h-1h-2q-161 32 -234 26q-151 -14 -170 -167zM348 1106l17 135l231 152l192 -150l-16 -139l-194 147l-228 -147z" />
<glyph unicode="&#xe3;" horiz-adv-x="1009" d="M86 291l2 26q9 72 32.5 126.5t56.5 89.5t79.5 57.5t94 32t108.5 9.5t115.5 -5.5t121.5 -16.5l13 95q11 94 -32.5 130.5t-164.5 36.5q-125 0 -305 -55l20 154q155 49 312 49q207 0 284 -79t56 -245l-82 -667q-252 -46 -353 -52q-255 -15 -329 109q-44 75 -29 205zM256 285 q-6 -45 3.5 -77.5t27.5 -51.5t50.5 -28t62.5 -11t75 2.5t76.5 9.5t77.5 14q2 1 3.5 1t3 0.5t3.5 0.5l39 318h-1h-1l-1 1h-1h-1h-1h-1l-1 1h-1h-1h-2q-161 32 -234 26q-151 -14 -170 -167zM283 1204q38 53 90.5 88t105.5 35q48 0 113 -35q74 -41 106 -41q53 0 101 62l78 -58 q-76 -129 -193 -129q-55 0 -119 37q-26 15 -37 21t-30 12t-37 6q-30 0 -56 -17t-59 -50z" />
<glyph unicode="&#xe4;" horiz-adv-x="1009" d="M86 291l2 26q9 72 32.5 126.5t56.5 89.5t79.5 57.5t94 32t108.5 9.5t115.5 -5.5t121.5 -16.5l13 95q11 94 -32.5 130.5t-164.5 36.5q-125 0 -305 -55l20 154q155 49 314 49q207 0 283 -79t55 -245l-82 -667q-252 -46 -353 -52q-255 -15 -329 109q-44 75 -29 205zM258 285 q-6 -45 3 -77.5t27 -51.5t50 -28t62 -11t75 2.5t76.5 9.5t77.5 14q7 1 10 2l39 318h-1h-1l-1 1h-1h-1h-1h-1l-1 1h-1h-1h-2q-161 32 -234 26q-151 -14 -170 -167zM330 1237q-1 35 24 60.5t60 25.5t60.5 -25.5t27.5 -60.5q-2 -35 -27.5 -60.5t-60.5 -25.5t-60 25.5t-24 60.5z M659 1237q-1 35 24 60.5t60 25.5t60.5 -25.5t27.5 -60.5q-2 -35 -27.5 -60.5t-60.5 -25.5t-60 25.5t-24 60.5z" />
<glyph unicode="&#xe5;" horiz-adv-x="1009" d="M82 291l2 26q9 72 32.5 126.5t56.5 89.5t79.5 57.5t94 32t108.5 9.5t115.5 -5.5t121.5 -16.5l10 95q12 94 -30.5 130.5t-163.5 36.5q-125 0 -305 -55l18 154q159 49 314 49q207 0 283.5 -79t55.5 -245l-81 -667q-252 -46 -353 -52q-255 -15 -329 109q-44 75 -29 205z M252 285q-6 -45 3.5 -77.5t27.5 -51.5t50.5 -28t62.5 -11t75 2.5t76.5 9.5t77.5 14q2 1 3.5 1t3 0.5t3.5 0.5l39 318h-1h-1l-1 1h-1h-1h-1h-1l-1 1h-1h-1h-2q-161 32 -234 26q-151 -14 -170 -167zM424 1247q0 65 39.5 107.5t111.5 42.5t112 -42.5t40 -107.5q-2 -65 -42 -107 t-112 -42t-111.5 42.5t-37.5 106.5zM508 1247q-2 -33 16.5 -53t50.5 -20q31 0 48.5 20t19.5 53q0 33 -19 53.5t-51 20.5q-31 0 -48 -20.5t-17 -53.5z" />
<glyph unicode="&#xe6;" horiz-adv-x="1617" d="M104 291l5 26q9 72 32 126.5t55.5 89.5t79 57.5t94 32t108.5 9.5t115.5 -5.5t121.5 -16.5l4 35l2 14l6 46q11 94 -32.5 130.5t-164.5 36.5q-127 0 -303 -55l19 154q155 49 313 49q223 0 299 -98q113 92 299 98q102 -2 175 -32t112 -81.5t53 -117t4 -144.5l-26 -221h-611 l-8 -74q-27 -213 191 -219q61 2 160.5 21.5t195.5 54.5l-19 -148q-91 -38 -191.5 -56.5t-164.5 -20.5q-125 3 -213 49v-2q-253 -46 -355 -52q-256 -15 -329 111q-43 75 -27 203zM276 285q-6 -45 3 -77.5t27 -51.5t50 -28t62 -11t75 2.5t76.5 9.5t77.5 14q7 1 10 2l25 195 l2 16l12 107q-156 31 -223 29q-166 -5 -190 -156l-2 -12zM885 584h438l8 67q12 105 -36.5 160.5t-155.5 58.5q-221 -6 -246 -219z" />
<glyph unicode="&#xe7;" horiz-adv-x="872" d="M121 297l49 401q19 150 103 227.5t257 92.5q193 10 349 -29l-19 -147q-140 28 -254 28q-138 0 -196.5 -38.5t-71.5 -143.5l-45 -381q-13 -106 36.5 -145t186.5 -39q77 0 260 39l-18 -148q-133 -34 -273 -37l-16 -45h29q48 -2 80.5 -18t45 -39t17.5 -51t-2 -55 q-14 -81 -63 -111t-127 -35q-67 -5 -160 17l14 81q67 -15 139 -18q52 2 75.5 17.5t29.5 54.5q4 9 1 22t-8.5 24t-25 19t-49.5 8h-111l45 129q-169 17 -233 94t-45 226z" />
<glyph unicode="&#xe8;" horiz-adv-x="1001" d="M68 356l36 289q10 79 40 144.5t82 117t132.5 81.5t182.5 32q102 -2 175.5 -32t112.5 -81.5t53.5 -117t4.5 -144.5l-27 -221h-610l-10 -74q-24 -213 192 -219q60 2 159.5 21.5t196.5 54.5l-18 -148q-92 -38 -192.5 -56.5t-163.5 -20.5q-103 2 -176 31.5t-112 80.5 t-53.5 116.5t-4.5 145.5zM268 584h439l8 67q14 104 -35 160t-158 59q-218 -6 -246 -219zM401 1257l17 142l309 -185l-18 -141z" />
<glyph unicode="&#xe9;" horiz-adv-x="1001" d="M68 356l36 289q10 79 40 144.5t82 117t132.5 81.5t182.5 32q102 -2 175.5 -32t112.5 -81.5t53.5 -117t4.5 -144.5l-27 -221h-610l-10 -74q-24 -213 192 -219q60 2 159.5 21.5t196.5 54.5l-18 -148q-92 -38 -192.5 -56.5t-163.5 -20.5q-103 2 -176 31.5t-112 80.5 t-53.5 116.5t-4.5 145.5zM268 584h439l8 67q14 104 -35 160t-158 59q-218 -6 -246 -219zM377 1073l18 141l355 185l-17 -142z" />
<glyph unicode="&#xea;" horiz-adv-x="1001" d="M70 356l34 289q10 79 40 144.5t82 117t132.5 81.5t182.5 32q102 -2 175.5 -32t112.5 -81.5t53.5 -117t4.5 -144.5l-27 -221h-610l-10 -74q-24 -213 192 -219q60 2 160.5 21.5t195.5 54.5l-18 -148q-92 -38 -192.5 -56.5t-163.5 -20.5q-102 2 -175 31.5t-112.5 80.5 t-53 116.5t-3.5 145.5zM268 584h439l8 67q14 104 -35 160t-158 59q-218 -6 -246 -219zM338 1104v2l16 135l232 152l192 -150l-18 -139l-193 147z" />
<glyph unicode="&#xeb;" horiz-adv-x="1001" d="M74 356l35 289q20 165 128.5 268t309.5 107q102 -2 174.5 -32t112 -81.5t53.5 -117t4 -144.5l-27 -221h-610l-10 -74q-24 -213 192 -219q60 2 161 21.5t196 54.5l-19 -148q-90 -38 -191.5 -56.5t-164.5 -20.5q-102 2 -175 31.5t-112.5 80.5t-53 116.5t-3.5 145.5z M272 584h439l8 67q14 104 -35 160t-156 59q-219 -6 -247 -219zM319 1237q-1 35 24 60.5t60 25.5t61 -25.5t28 -60.5q-2 -35 -28 -60.5t-61 -25.5t-60 25.5t-24 60.5zM649 1237q-1 35 24 60.5t60 25.5t60.5 -25.5t27.5 -60.5q-2 -35 -27.5 -60.5t-60.5 -25.5t-60 25.5 t-24 60.5z" />
<glyph unicode="&#xec;" horiz-adv-x="499" d="M76 0l121 997h172l-121 -997h-172zM150 1257l16 142l309 -185l-16 -141z" />
<glyph unicode="&#xed;" horiz-adv-x="499" d="M76 0l121 997h172l-121 -997h-172zM127 1073l16 141l355 185l-17 -142z" />
<glyph unicode="&#xee;" horiz-adv-x="499" d="M76 0l123 997h172l-123 -997h-172zM86 1106l16 135l232 152l192 -150l-16 -139l-193 147l-229 -147z" />
<glyph unicode="&#xef;" horiz-adv-x="499" d="M70 1237q0 36 23.5 61t58.5 25t61.5 -25.5t26.5 -60.5q-2 -36 -26.5 -61t-59.5 -25t-60 25.5t-24 60.5zM80 0l123 997h172l-123 -997h-172zM397 1237q0 35 24.5 60.5t59.5 25.5t61.5 -25.5t26.5 -60.5q-2 -36 -26.5 -61t-59.5 -25q-36 0 -61.5 25.5t-24.5 60.5z" />
<glyph unicode="&#xf0;" horiz-adv-x="1060" d="M79.5 219.5q-9.5 71.5 4.5 161.5l16 123q21 168 110 246.5t279 78.5q66 0 142 -14t125 -33l12 101q17 148 -53 276l-209 -176l-86 102l207 175q-63 47 -135 53l18 149q135 -3 244 -94l170 145l86 -102l-166 -141q57 -80 82 -180.5t12 -204.5l-70 -576q-20 -153 -123 -234 t-315 -81q-120 0 -196.5 26.5t-110.5 77t-43.5 122zM248 334q-12 -104 30 -146.5t171 -42.5q121 0 180 41.5t71 147.5l37 291q-125 55 -250 55q-111 0 -158.5 -40t-58.5 -136z" />
<glyph unicode="&#xf1;" d="M80 0l117 948q30 9 65 18.5t91.5 21.5t111.5 20.5t118.5 12t117.5 -1t104 -21t83.5 -45t50.5 -77t9 -112.5l-94 -764h-172l92 758q7 55 -37.5 83t-117 27.5t-141 -10.5t-124.5 -27l-102 -831h-172zM315 1204q40 53 92 88t105 35q51 0 113 -35q77 -41 108 -41q53 0 98 62 l78 -58q-76 -129 -192 -129q-52 0 -119 37q-23 14 -35 21t-30.5 12.5t-36.5 5.5q-30 0 -56 -17t-59 -50z" />
<glyph unicode="&#xf2;" horiz-adv-x="1064" d="M68 354l36 289q10 79 40 144.5t82 117t132.5 81.5t182.5 32h57q102 -2 175.5 -32t112.5 -81.5t53.5 -117t4.5 -144.5l-37 -289q-20 -166 -128 -268t-308 -106h-57q-103 2 -176 31.5t-112 80.5t-53.5 116.5t-4.5 145.5zM240 348q-24 -213 192 -219h57q109 3 171.5 58.5 t74.5 160.5l37 301q25 213 -192 219h-58q-109 -3 -171.5 -59t-74.5 -160zM434 1257l17 142l309 -185l-17 -141z" />
<glyph unicode="&#xf3;" horiz-adv-x="1064" d="M68 354l36 289q10 79 40 144.5t82 117t132.5 81.5t182.5 32h57q102 -2 175.5 -32t112.5 -81.5t53.5 -117t4.5 -144.5l-37 -289q-20 -166 -128 -268t-308 -106h-57q-103 2 -176 31.5t-112 80.5t-53.5 116.5t-4.5 145.5zM240 348q-24 -213 192 -219h57q109 3 171.5 58.5 t74.5 160.5l37 301q25 213 -192 219h-58q-109 -3 -171.5 -59t-74.5 -160zM412 1073l16 141l354 185l-16 -142z" />
<glyph unicode="&#xf4;" horiz-adv-x="1064" d="M70 354l34 289q10 79 40 144.5t82 117t132.5 81.5t182.5 32h57q102 -2 175.5 -32t112.5 -81.5t53.5 -117t4.5 -144.5l-35 -289q-22 -167 -129.5 -268.5t-308.5 -105.5h-57q-102 2 -175 31.5t-112.5 80.5t-53 116.5t-3.5 145.5zM240 348q-24 -213 192 -219h57 q109 3 171.5 58.5t74.5 160.5l37 301q14 105 -35 160.5t-157 58.5h-58q-218 -6 -246 -219zM369 1106l16 135l231 152l193 -150l-16 -139l-195 147l-227 -147z" />
<glyph unicode="&#xf5;" horiz-adv-x="1064" d="M74 354l35 289q10 79 40 144.5t81.5 117t132 81.5t182.5 32h57q102 -2 175.5 -32t112.5 -81.5t53.5 -117t4.5 -144.5l-35 -289q-22 -166 -130 -268t-308 -106h-57q-103 2 -176 31.5t-112 80.5t-52.5 116.5t-3.5 145.5zM244 348q-24 -213 192 -219h58q221 6 245 219 l37 301q14 105 -35 160.5t-157 58.5h-58q-217 -6 -245 -219zM303 1204q38 53 91 88t106 35q47 0 112 -35q74 -41 107 -41q52 0 100 62l78 -58q-76 -129 -192 -129q-55 0 -119 37q-25 15 -37 21.5t-31 12t-37 5.5q-30 0 -55.5 -17t-58.5 -50z" />
<glyph unicode="&#xf6;" horiz-adv-x="1064" d="M74 354l35 289q10 79 40 144.5t81.5 117t132 81.5t182.5 32h57q102 -2 175.5 -32t112.5 -81.5t53.5 -117t4.5 -144.5l-35 -289q-22 -167 -129.5 -268.5t-308.5 -105.5h-57q-102 2 -175 31.5t-112.5 80.5t-53 116.5t-3.5 145.5zM244 348q-24 -213 192 -219h58 q221 6 245 219l37 301q14 104 -34.5 160t-155.5 59h-58q-219 -6 -247 -219zM350 1237q-1 35 24 60.5t60 25.5t60.5 -25.5t27.5 -60.5q-2 -35 -27.5 -60.5t-60.5 -25.5t-60 25.5t-24 60.5zM680 1237q-1 35 24 60.5t60 25.5t60.5 -25.5t27.5 -60.5q-2 -35 -27.5 -60.5 t-60.5 -25.5t-60 25.5t-24 60.5z" />
<glyph unicode="&#xf7;" horiz-adv-x="1101" d="M133 428v139h836v-139h-836zM457 188q0 38 28 66.5t66 28.5t66 -28.5t28 -66.5t-28 -66t-66 -28t-66 28t-28 66zM457 815q0 38 28 66t66 28t66 -28t28 -66t-28 -66t-66 -28t-66 28t-28 66z" />
<glyph unicode="&#xf8;" horiz-adv-x="1036" d="M78 354l35 289q10 79 40 144.5t81.5 117t132 81.5t182.5 32h57q5 0 16.5 -1t16.5 -1l61 141h162l-76 -174q100 -43 140 -131.5t26 -208.5l-34 -289q-22 -166 -130.5 -268t-308.5 -106h-57q-66 5 -70 6l-57 -136h-162l78 179q-163 89 -133 325zM248 348q-12 -104 33 -158 l292 678h-43q-217 -6 -245 -219zM416 129h82q221 6 245 219l37 301q15 127 -59 180z" />
<glyph unicode="&#xf9;" d="M109 233l92 764h172l-92 -757q-7 -55 37.5 -83t116.5 -28t140.5 10t124.5 27l103 831h172l-117 -948q-30 -9 -65 -18.5t-91.5 -21.5t-111.5 -20.5t-118.5 -12t-117.5 1t-104 21t-83 45t-49.5 77t-8.5 112.5zM455 1257l16 142l309 -185l-16 -141z" />
<glyph unicode="&#xfa;" d="M109 233l92 764h172l-92 -757q-7 -55 37.5 -83t116.5 -28t140.5 10t124.5 27l103 831h172l-117 -948q-30 -9 -65 -18.5t-91.5 -21.5t-111.5 -20.5t-118.5 -12t-117.5 1t-104 21t-83 45t-49.5 77t-8.5 112.5zM432 1073l17 141l354 185l-17 -142z" />
<glyph unicode="&#xfb;" d="M109 233l94 764h172l-94 -757q-6 -55 38.5 -83t116.5 -28t140.5 10t125.5 27l103 831h172l-117 -948q-30 -9 -65 -18.5t-92.5 -21.5t-112 -20.5t-118 -12t-117.5 1t-104.5 21t-83.5 45t-49.5 77t-8.5 112.5zM391 1106l17 135l231 152l192 -150l-16 -139l-192 147 l-230 -147z" />
<glyph unicode="&#xfc;" d="M113 233l94 764h172l-94 -757q-6 -55 38.5 -83t117 -28t141 10t125.5 27l102 831h172l-117 -948q-30 -9 -65 -18.5t-92.5 -21.5t-112 -20.5t-118 -12t-117.5 1t-104.5 21t-83.5 45t-49.5 77t-8.5 112.5zM373 1237q0 35 24.5 60.5t59.5 25.5t61.5 -25.5t26.5 -60.5 q-2 -36 -26.5 -61t-59.5 -25q-36 0 -61.5 25.5t-24.5 60.5zM702 1237q0 35 24.5 60.5t59.5 25.5t61.5 -25.5t26.5 -60.5q-2 -36 -26.5 -61t-59.5 -25q-36 0 -61.5 25.5t-24.5 60.5z" />
<glyph unicode="&#xfd;" horiz-adv-x="954" d="M104 -399l19 149q195 -41 293 -41q121 0 173 37t64 131l15 127q-70 -11 -125.5 -16.5t-116.5 -5.5t-106.5 9.5t-86.5 32t-65 57.5t-34 89.5t-1 126.5l86 700h172l-86 -706q-7 -52 3 -88t43.5 -52t59.5 -24.5t86 -2.5t85 9.5t92 16.5q8 1 12 2l105 845h172l-138 -1112 q-19 -166 -114.5 -244.5t-302.5 -78.5q-155 0 -304 39zM492 1075l20 168l260 139l-20 -168z" />
<glyph unicode="&#xfe;" horiz-adv-x="1048" d="M45 -311l213 1745h172l-51 -422q70 11 125.5 16.5t116 5.5t105.5 -9.5t86 -32t65 -57.5t34.5 -89.5t1.5 -126.5l-51 -416q-9 -72 -32.5 -127t-56 -90.5t-79 -57.5t-94 -32t-108.5 -10t-115.5 5.5t-122.5 16.5l-39 -319h-170zM272 158q157 -31 225 -29q168 5 192 160 q0 4 1 8l51 428q7 52 -3 88t-43.5 52t-59.5 24.5t-86 2.5t-85 -9.5t-92 -16.5q-8 -1 -12 -2z" />
<glyph unicode="&#xff;" horiz-adv-x="1064" d="M109 -399l18 149q195 -41 293 -41q121 0 173 37t64 131l15 127q-70 -11 -126 -16.5t-117 -5.5t-106 9.5t-86 32t-65 57.5t-34 89.5t-1 126.5l86 700h172l-88 -706q-6 -52 4 -88t44 -52t60 -24.5t86 -2.5t85 9.5t92 16.5q8 1 12 2l105 845h172l-138 -1112 q-21 -166 -115.5 -244.5t-301.5 -78.5q-154 0 -303 39zM375 1237q0 35 24.5 60.5t59.5 25.5t61.5 -25.5t26.5 -60.5q-2 -36 -26.5 -61t-59.5 -25q-36 0 -61.5 25.5t-24.5 60.5zM705 1237q0 36 24 61t59 25q36 0 62.5 -25.5t26.5 -60.5q-2 -36 -26.5 -61t-59.5 -25 q-36 0 -61.5 25.5t-24.5 60.5z" />
<glyph unicode="&#x152;" horiz-adv-x="1857" d="M94 393l74 602q48 389 485 389h1166l-19 -157h-626l-56 -449h582l-21 -157h-581l-58 -463h629l-18 -158l-1168 2q-438 0 -389 391zM270 406q-14 -126 38.5 -186t201.5 -60h356l131 1069h-356q-149 0 -216 -60t-83 -186z" />
<glyph unicode="&#x153;" horiz-adv-x="1642" d="M78 354l35 289q20 165 128.5 268t309.5 107h57q203 -6 289 -119q115 115 324 121q102 -2 174.5 -32t112 -81.5t53.5 -117t4 -144.5l-27 -221h-610l-8 -74q-27 -213 190 -219q61 2 160.5 21.5t195.5 54.5l-18 -148q-91 -38 -191.5 -56.5t-164.5 -20.5q-208 6 -291 116 q-116 -112 -322 -118h-57q-102 2 -175 31.5t-112.5 80.5t-53 116.5t-3.5 145.5zM248 348q-24 -213 192 -219h58q221 6 245 219l37 301q14 104 -34.5 160t-155.5 59h-58q-219 -6 -247 -219zM948 584h438l9 67q12 104 -37 160t-156 59q-221 -6 -246 -219z" />
<glyph unicode="&#x178;" horiz-adv-x="1122" d="M88 1382h184l260 -780l453 780h184l-571 -970l-51 -412h-176l51 412zM408 1534q0 35 24.5 60.5t59.5 25.5t61.5 -25.5t26.5 -60.5q-2 -36 -26.5 -61t-59.5 -25q-36 0 -61.5 25.5t-24.5 60.5zM737 1534q0 35 24.5 60.5t59.5 25.5t61.5 -25.5t26.5 -60.5q-2 -36 -26.5 -61 t-59.5 -25q-36 0 -61.5 25.5t-24.5 60.5z" />
<glyph unicode="&#x2c6;" horiz-adv-x="811" d="M172 1106l16 135l232 152l192 -150l-16 -139l-193 147l-229 -147z" />
<glyph unicode="&#x2dc;" horiz-adv-x="854" d="M127 1204q39 53 92.5 88t106.5 35q48 0 110 -35q77 -41 109 -41q52 0 100 62l76 -58q-73 -129 -193 -129q-52 0 -116 37q-25 15 -37 21.5t-31 12t-37 5.5q-30 0 -55.5 -17t-58.5 -50z" />
<glyph unicode="&#x2000;" horiz-adv-x="893" />
<glyph unicode="&#x2001;" horiz-adv-x="1786" />
<glyph unicode="&#x2002;" horiz-adv-x="893" />
<glyph unicode="&#x2003;" horiz-adv-x="1786" />
<glyph unicode="&#x2004;" horiz-adv-x="595" />
<glyph unicode="&#x2005;" horiz-adv-x="446" />
<glyph unicode="&#x2006;" horiz-adv-x="297" />
<glyph unicode="&#x2007;" horiz-adv-x="297" />
<glyph unicode="&#x2008;" horiz-adv-x="223" />
<glyph unicode="&#x2009;" horiz-adv-x="357" />
<glyph unicode="&#x200a;" horiz-adv-x="99" />
<glyph unicode="&#x2010;" horiz-adv-x="757" d="M111 500l18 141h512l-18 -141h-512z" />
<glyph unicode="&#x2011;" horiz-adv-x="757" d="M111 500l18 141h512l-18 -141h-512z" />
<glyph unicode="&#x2012;" horiz-adv-x="757" d="M111 500l18 141h512l-18 -141h-512z" />
<glyph unicode="&#x2013;" horiz-adv-x="995" d="M111 500l18 141h750l-19 -141h-749z" />
<glyph unicode="&#x2014;" horiz-adv-x="1253" d="M111 500l18 141h1008l-19 -141h-1007z" />
<glyph unicode="&#x2018;" horiz-adv-x="520" d="M145 1204q0 26 20 85.5t68 142.5h72l-47 -134q34 -5 57 -31.5t23 -62.5q0 -41 -28 -68.5t-68 -27.5t-68.5 27.5t-28.5 68.5z" />
<glyph unicode="&#x2019;" horiz-adv-x="489" d="M145 1335q0 41 28.5 69t68.5 28t68 -28t28 -69q0 -26 -20 -85t-68 -142h-72l47 133q-34 5 -57 31.5t-23 62.5z" />
<glyph unicode="&#x201a;" horiz-adv-x="520" d="M160 92q0 41 28 68.5t68 27.5t68 -27.5t28 -68.5q0 -26 -20 -85t-68 -142h-71l47 133q-34 5 -57 31.5t-23 62.5z" />
<glyph unicode="&#x201c;" horiz-adv-x="794" d="M145 1204q0 26 20 85.5t68 142.5h72l-47 -134q34 -5 57 -31.5t23 -62.5q0 -41 -28 -68.5t-68 -27.5t-68.5 27.5t-28.5 68.5zM414 1204q0 26 20 85.5t68 142.5h71l-47 -134q34 -5 57 -31.5t23 -62.5q0 -41 -28 -68.5t-68 -27.5t-68 27.5t-28 68.5z" />
<glyph unicode="&#x201d;" horiz-adv-x="800" d="M145 1335q0 41 28.5 69t68.5 28t68 -28t28 -69q0 -26 -20 -85t-68 -142h-72l47 133q-34 5 -57 31.5t-23 62.5zM414 1335q0 41 28 69t68 28t68 -28t28 -69q0 -26 -20 -85t-68 -142h-72l48 133q-34 5 -57 31.5t-23 62.5z" />
<glyph unicode="&#x201e;" horiz-adv-x="790" d="M152 92q0 41 28 68.5t68 27.5t68 -27.5t28 -68.5q0 -26 -20 -85t-68 -142h-72l47 133q-34 5 -56.5 31.5t-22.5 62.5zM444 92q0 41 28.5 68.5t68.5 27.5t68 -27.5t28 -68.5q0 -26 -20 -85t-68 -142h-72l47 133q-34 5 -57 31.5t-23 62.5z" />
<glyph unicode="&#x2022;" horiz-adv-x="763" d="M133 594q-3 102 69 175t175 73t177 -72.5t77 -175.5q-3 -103 -77 -175.5t-177 -72.5t-175 73t-69 175z" />
<glyph unicode="&#x2026;" horiz-adv-x="1572" d="M158 94q-3 38 24 66t66 28q38 0 66.5 -27.5t31.5 -66.5q-3 -39 -31.5 -66.5t-66.5 -27.5q-39 0 -66 28t-24 66zM676 94q-3 38 24 66t66 28q38 0 66.5 -27.5t31.5 -66.5q-3 -39 -31.5 -66.5t-66.5 -27.5q-39 0 -66 28t-24 66zM1190 94q-3 38 24 66t66 28q38 0 66.5 -27.5 t31.5 -66.5q-3 -39 -31.5 -66.5t-66.5 -27.5q-39 0 -66 28t-24 66z" />
<glyph unicode="&#x202f;" horiz-adv-x="357" />
<glyph unicode="&#x2039;" horiz-adv-x="593" d="M78 500l248 319h166l4 -2l-248 -317l168 -314h-170z" />
<glyph unicode="&#x203a;" horiz-adv-x="593" d="M92 182l248 318l-170 313h170l170 -313l-248 -318h-170z" />
<glyph unicode="&#x205f;" horiz-adv-x="446" />
<glyph unicode="&#x20ac;" horiz-adv-x="1067" d="M16 475l19 146h119l16 127h-119l19 145h118l11 98q26 200 149 301t367 101q162 0 317 -33l-20 -156q-164 29 -310 29q-167 0 -238.5 -55t-88.5 -197l-10 -88h497l-18 -145h-498l-16 -127h497l-18 -146h-498l-8 -72q-17 -142 40.5 -196.5t225.5 -54.5q146 0 318 26 l-21 -155q-169 -31 -321 -31q-245 0 -344 101t-74 300l8 82h-119z" />
<glyph unicode="&#x2122;" horiz-adv-x="1531" d="M129 1305v79h496v-79h-205v-603h-88v603h-203zM733 692v692h135l187 -600l186 600h135v-692h-88v563l-174 -555h-119l-174 555v-563h-88z" />
<glyph unicode="&#x25fc;" horiz-adv-x="993" d="M0 0v993h993v-993h-993z" />
</font>
</defs>
</svg>
