<?xml version="1.0" standalone="no"?>
<!DOCTYPE svg PUBLIC "-//W3C//DTD SVG 1.1//EN" "http://www.w3.org/Graphics/SVG/1.1/DTD/svg11.dtd" >
<svg xmlns="http://www.w3.org/2000/svg" xmlns:xlink="http://www.w3.org/1999/xlink" version="1.1">
<metadata></metadata>
<defs>
<font id="deria_sanslight_italic" horiz-adv-x="249" >
<font-face units-per-em="1000" ascent="800" descent="-200" />
<missing-glyph horiz-adv-x="220" />
<glyph horiz-adv-x="220" />
<glyph unicode=" "  horiz-adv-x="220" />
<glyph unicode="&#x09;" horiz-adv-x="220" />
<glyph unicode="&#xa0;" horiz-adv-x="220" />
<glyph unicode="&#x131;" horiz-adv-x="228" d="M112 0h-58l60 487h58z" />
<glyph unicode="!" horiz-adv-x="252" d="M195 666l-65 -521h-58l65 521h58zM58 29c0 17 12 30 29 30s30 -13 30 -30s-13 -29 -30 -29s-29 12 -29 29z" />
<glyph unicode="&#x22;" horiz-adv-x="354" d="M111 454h-51l28 229h51zM245 454h-51l28 229h51z" />
<glyph unicode="#" horiz-adv-x="647" d="M327 0l38 182h-209l-38 -182h-55l38 182h-89l13 55h89l40 194h-89l11 55h89l39 180h55l-39 -180h209l39 180h55l-39 -180h101l-11 -55h-101l-40 -194h101l-13 -55h-101l-38 -182h-55zM209 431l-40 -194h209l40 194h-209z" />
<glyph unicode="$" horiz-adv-x="469" d="M172 -71l7 63c-57 2 -128 6 -179 13l7 56c70 -12 131 -16 219 -15c100 1 142 67 149 126c10 78 -14 138 -115 138h-36c-163 0 -179 90 -168 174c12 101 62 186 209 192l7 61h57l-7 -62c49 -2 113 -7 151 -14l-7 -58c-82 11 -110 17 -201 17c-74 0 -135 -30 -148 -137 c-8 -81 20 -116 117 -116h36c145 0 178 -102 167 -190c-9 -73 -58 -176 -201 -186l-7 -62h-57z" />
<glyph unicode="%" horiz-adv-x="870" d="M187 271c-110 2 -145 65 -136 146l14 113c10 80 62 144 172 146h22c110 -2 144 -66 134 -146l-14 -113c-9 -81 -60 -144 -170 -146h-22zM188 316h33c61 4 100 32 108 92l15 127c7 58 -24 90 -85 94h-33c-63 -4 -102 -36 -109 -94l-15 -127c-8 -60 23 -88 86 -92zM303 0 h-49l289 666h50zM594 0c-110 2 -145 65 -134 146l14 113c9 80 60 144 170 146h22c110 -2 145 -66 136 -146l-14 -113c-11 -81 -62 -144 -172 -146h-22zM595 45h33c63 4 100 32 108 92l15 127c8 58 -23 90 -85 94h-33c-62 -4 -101 -36 -109 -94l-15 -127 c-8 -60 25 -88 86 -92z" />
<glyph unicode="&#x26;" horiz-adv-x="594" d="M411 181l-4 -33h-56l4 35c9 71 -20 113 -85 124c-9 1 -19 2 -38 3c-84 4 -137 -46 -147 -127l-2 -21c-11 -83 30 -123 115 -125h114c85 2 136 42 147 125l11 91h56l-11 -87c-12 -101 -76 -180 -213 -183h-108c-137 3 -179 82 -167 183l2 15c10 75 48 139 126 167 c-37 34 -48 84 -41 142l2 13c12 100 76 180 213 183h23c137 -3 181 -83 169 -183l-2 -13c-10 -82 -54 -150 -144 -174c32 -33 43 -81 36 -135zM316 361c86 2 137 42 147 125l3 19c9 81 -31 125 -116 127h-31c-85 -2 -137 -46 -146 -127l-3 -19c-13 -103 60 -132 146 -125z " />
<glyph unicode="'" horiz-adv-x="201" d="M140 682l-30 -227h-51l30 227h51z" />
<glyph unicode="(" horiz-adv-x="301" d="M217 -125l-3 -2h-57c-73 137 -102 274 -83 431c19 155 81 292 187 428h61c-128 -171 -173 -285 -191 -428c-18 -144 -1 -258 86 -429z" />
<glyph unicode=")" horiz-adv-x="301" d="M225 304c-19 -157 -82 -294 -189 -431h-55l-3 2c127 171 172 285 190 429c18 143 1 257 -86 428h62c71 -136 100 -273 81 -428z" />
<glyph unicode="*" horiz-adv-x="477" d="M355 404l-107 67l-17 -134h-46l17 134l-125 -67l-18 40l123 66l-107 67l28 40l107 -67l17 134h46l-17 -134l125 67l18 -40l-124 -67l108 -66z" />
<glyph unicode="+" horiz-adv-x="536" d="M64 217v52h175v178h56v-178h175v-52h-175v-178h-56v178h-175z" />
<glyph unicode="," horiz-adv-x="203" d="M131 31c0 -11 -4 -36 -22 -77h-25l12 46c-16 1 -27 15 -27 31c0 17 14 31 31 31s31 -14 31 -31z" />
<glyph unicode="-" horiz-adv-x="362" d="M61 256l6 49h232l-6 -49h-232z" />
<glyph unicode="." horiz-adv-x="203" d="M67 31c-2 17 13 31 30 31s30 -14 32 -31c-1 -17 -16 -31 -33 -31s-30 14 -29 31z" />
<glyph unicode="/" horiz-adv-x="440" d="M410 665l-288 -663h-58l287 663h59z" />
<glyph unicode="0" horiz-adv-x="560" d="M214 1c-137 3 -179 82 -167 183l37 298c12 100 76 180 213 183h46c137 -3 181 -83 169 -183l-37 -298c-12 -101 -76 -180 -213 -183h-48zM218 55h54c86 2 137 42 147 125l37 304c10 81 -31 125 -115 127h-54c-86 -2 -137 -46 -147 -127l-37 -304 c-10 -83 31 -123 115 -125z" />
<glyph unicode="1" horiz-adv-x="298" d="M182 583l-76 -40l8 65l82 44h52l-80 -652h-58z" />
<glyph unicode="2" horiz-adv-x="500" d="M282 598c-57 0 -125 -15 -181 -31l7 55c55 17 127 30 184 30c124 0 188 -61 168 -200c-16 -105 -78 -166 -241 -166c-101 0 -134 -62 -143 -140l-12 -94h360l-6 -52h-414l18 151c13 106 58 189 222 189c97 0 147 30 160 111c15 121 -48 147 -122 147z" />
<glyph unicode="3" horiz-adv-x="490" d="M189 46c83 0 156 21 173 128c10 79 -8 124 -94 124h-175l6 50h177c91 0 109 46 119 118c11 136 -78 137 -126 137c-61 0 -127 -16 -186 -32l6 54c55 17 122 30 179 30c157 0 200 -78 186 -194c-7 -62 -30 -107 -73 -137c38 -32 49 -82 41 -146 c-13 -98 -73 -184 -236 -184c-57 0 -120 13 -171 30l6 54c52 -16 111 -32 168 -32z" />
<glyph unicode="4" horiz-adv-x="555" d="M445 91h-54l-11 -90h-58l11 90h-313l8 62l354 502h78l-63 -514h54zM79 141h260l54 438z" />
<glyph unicode="5" horiz-adv-x="495" d="M92 310l42 342h320l-6 -52h-262l-29 -234c45 2 63 4 122 0c111 -8 147 -67 136 -155l-7 -54c-10 -85 -69 -161 -216 -161c-49 0 -104 5 -151 18l6 50c48 -10 103 -16 151 -16c103 0 144 41 153 113l5 42c8 69 -9 104 -94 109c-73 4 -101 0 -170 -2z" />
<glyph unicode="6" horiz-adv-x="518" d="M149 427l-11 -93c33 13 101 26 147 26c133 0 165 -56 152 -156l-7 -50c-11 -100 -66 -159 -203 -159s-181 59 -170 159l35 274c17 139 65 207 203 222c49 5 124 -1 166 -25l-7 -51c-48 24 -112 29 -170 22c-96 -14 -121 -62 -135 -169zM276 308c-48 0 -107 -15 -145 -30 l-15 -126c-10 -82 36 -105 117 -105c94 0 131 29 140 105l7 55c8 70 -10 101 -104 101z" />
<glyph unicode="7" horiz-adv-x="439" d="M63 597l6 52h374l-6 -49l-356 -600h-59l356 597h-315z" />
<glyph unicode="8" horiz-adv-x="564" d="M215 -4c-136 3 -179 81 -167 180v-2c8 63 38 117 98 149c-52 32 -69 86 -60 151c12 98 75 177 213 180h13c136 -3 181 -82 169 -180c-9 -64 -39 -118 -99 -150c52 -32 69 -87 61 -150v2c-12 -99 -75 -177 -213 -180h-15zM220 50h21c85 2 136 39 147 122l-1 4 c10 76 -30 121 -115 121h-21c-85 0 -137 -45 -147 -121l1 -4c-11 -82 30 -122 115 -122zM257 351h21c85 0 136 40 146 121l1 4c9 79 -31 124 -116 124h-21c-85 0 -137 -45 -146 -124l-1 -4c-10 -81 31 -121 116 -121z" />
<glyph unicode="9" horiz-adv-x="513" d="M368 221l12 97c-35 -13 -101 -26 -147 -26c-133 0 -165 56 -152 156l6 46c11 100 66 159 203 159s181 -59 170 -159l-35 -274c-17 -139 -65 -207 -203 -222c-49 -5 -124 1 -166 25l7 51c48 -24 112 -29 170 -22c96 14 121 62 135 169zM241 344c48 0 108 15 145 30l15 122 c10 82 -36 105 -117 105c-94 0 -131 -29 -140 -105l-6 -51c-8 -70 9 -101 103 -101z" />
<glyph unicode=":" horiz-adv-x="201" d="M77 350c1 17 15 31 32 31s31 -14 30 -31s-16 -31 -33 -31s-30 14 -29 31zM59 31c1 17 16 31 33 31s30 -14 29 -31s-15 -31 -32 -31s-31 14 -30 31z" />
<glyph unicode=";" horiz-adv-x="218" d="M123 31c0 -11 -4 -36 -24 -77h-25l14 46c-16 1 -27 15 -27 31c1 17 16 31 33 31s30 -14 29 -31zM78 350c1 17 15 31 32 31s31 -14 30 -31s-16 -31 -33 -31s-30 14 -29 31z" />
<glyph unicode="&#x3c;" horiz-adv-x="550" d="M47 232l4 42l427 232l-7 -57l-363 -196l315 -197l-7 -56z" />
<glyph unicode="=" horiz-adv-x="509" d="M87 309l6 47h349l-6 -47h-349zM65 137l6 47h349l-6 -47h-349z" />
<glyph unicode="&#x3e;" horiz-adv-x="550" d="M501 272l-4 -42l-426 -231l7 56l364 196l-316 196l7 56z" />
<glyph unicode="?" horiz-adv-x="458" d="M88 130l26 208h107c97 0 147 30 159 111c16 121 -47 147 -121 147c-57 0 -125 -15 -181 -31l7 55c55 17 127 30 184 30c124 0 188 -61 168 -200c-16 -105 -78 -166 -241 -166h-32l-19 -154h-57zM73 31c-1 17 13 31 30 31s31 -14 32 -31c0 -17 -15 -31 -32 -31 s-30 14 -30 31z" />
<glyph unicode="@" horiz-adv-x="876" d="M106 99c-12 -148 291 -189 473 -125l-7 -55c-221 -69 -546 -8 -522 184l48 385c35 283 753 283 718 0l-36 -293c-16 -117 -131 -128 -185 -92c-70 -21 -391 -105 -366 90l25 207c25 195 325 111 389 90l-41 -333c32 -19 107 -53 122 38l36 295c27 212 -579 214 -606 0z M313 405l-27 -217c-12 -96 197 -63 259 -40l36 297c-56 23 -256 56 -268 -40z" />
<glyph unicode="A" horiz-adv-x="589" d="M473 1h-56l38 308h-334l-38 -308h-56l60 481c12 101 74 180 211 183h66c137 -3 181 -82 169 -183zM362 611h-72c-86 -2 -137 -42 -148 -125l-15 -126h334l15 126c11 83 -30 123 -114 125z" />
<glyph unicode="B" horiz-adv-x="559" d="M309 0h-261l82 666h250c90 0 138 -43 127 -131l-10 -80c-6 -53 -33 -88 -89 -108c51 -7 90 -50 81 -124l-10 -87c-11 -92 -84 -136 -170 -136zM420 136l10 85c7 56 -22 94 -99 94h-186l-32 -263h203c63 0 97 31 104 84zM439 458l10 85c6 46 -17 71 -74 71h-192l-31 -247 h172c73 0 108 38 115 91z" />
<glyph unicode="C" horiz-adv-x="511" d="M152 482l-38 -298c-12 -104 29 -141 150 -141c42 0 102 5 149 13l-7 -53c-50 -8 -109 -13 -154 -13c-161 0 -212 69 -197 193l38 300c15 124 84 193 245 193c45 0 102 -5 150 -14l-7 -52c-43 8 -103 13 -145 13c-121 0 -172 -37 -184 -141z" />
<glyph unicode="D" horiz-adv-x="590" d="M130 666h220c162 0 197 -84 183 -197l-32 -272c-14 -113 -71 -197 -233 -197h-220zM183 613l-70 -560h162c112 0 154 46 166 141l34 278c12 95 -18 141 -130 141h-162z" />
<glyph unicode="E" horiz-adv-x="536" d="M48 0l82 666h375l-6 -53h-316l-31 -247h294l-6 -53h-294l-33 -260h317l-6 -53h-376z" />
<glyph unicode="F" horiz-adv-x="511" d="M107 0h-59l82 666h379l-6 -53h-320l-32 -257h298l-7 -53h-298z" />
<glyph unicode="G" horiz-adv-x="571" d="M293 303l7 58h193l-42 -343c-64 -18 -142 -28 -207 -28c-162 0 -204 70 -189 194l38 298c15 125 83 194 245 194c49 0 110 -5 158 -14l-7 -52c-50 7 -106 13 -157 13c-124 0 -168 -40 -180 -142l-38 -296c-12 -98 16 -142 141 -142c41 0 99 5 142 15l30 245h-134z" />
<glyph unicode="H" horiz-adv-x="620" d="M488 0h-59l39 316h-322l-39 -316h-59l82 666h59l-36 -297h322l36 297h59z" />
<glyph unicode="I" d="M194 666l-82 -666h-59l82 666h59z" />
<glyph unicode="J" horiz-adv-x="423" d="M132 610l7 56l250 -1l-68 -549c-10 -80 -63 -117 -140 -117l-181 2l6 54h178c55 0 74 21 81 74l59 481h-192z" />
<glyph unicode="K" horiz-adv-x="551" d="M542 666l-328 -327l265 -339h-74l-257 332l-41 -332h-59l82 666h59l-39 -320l319 320h73z" />
<glyph unicode="L" horiz-adv-x="494" d="M189 666l-76 -613h300l-6 -53h-359l82 666h59z" />
<glyph unicode="M" horiz-adv-x="762" d="M577 0l74 603l-267 -595h-91l-121 595l-74 -603h-59l83 666h91l131 -622l282 622h89l-81 -666h-57z" />
<glyph unicode="N" horiz-adv-x="638" d="M420 0l-241 608l-75 -608h-56l82 666h86l241 -609l75 609h56l-82 -666h-86z" />
<glyph unicode="O" horiz-adv-x="616" d="M216 1c-137 3 -179 82 -167 183l38 298c11 100 76 180 213 183h96c137 -3 180 -83 169 -183l-38 -298c-12 -101 -76 -180 -213 -183h-98zM220 55h104c86 2 137 42 148 125l37 304c9 81 -31 125 -115 127h-104c-86 -2 -138 -46 -147 -127l-37 -304 c-11 -83 30 -123 114 -125z" />
<glyph unicode="P" horiz-adv-x="544" d="M48 0l82 666h226c134 0 175 -61 164 -154l-12 -104c-13 -93 -68 -154 -202 -154h-167l-32 -254h-59zM461 512c9 73 -26 101 -110 101h-168l-38 -306h168c84 0 126 28 136 101z" />
<glyph unicode="Q" horiz-adv-x="616" d="M491 -24l-50 58c-32 -20 -74 -32 -126 -33h-98c-136 3 -178 82 -166 183l37 298c13 100 77 180 213 183h96c138 -3 182 -83 169 -183l-37 -298c-5 -42 -18 -79 -44 -110l51 -57zM222 55h104c85 2 136 42 147 125l37 304c11 81 -31 125 -115 127h-104 c-86 -2 -136 -46 -147 -127l-37 -304c-11 -83 30 -123 115 -125z" />
<glyph unicode="R" horiz-adv-x="619" d="M470 0l-141 256h-13h-177l-32 -256h-59l82 666h236c134 0 175 -61 164 -154l-13 -102c-9 -73 -45 -127 -126 -146l146 -264h-67zM471 512c9 73 -26 101 -110 101h-178l-38 -304h178c84 0 126 28 135 101z" />
<glyph unicode="S" horiz-adv-x="544" d="M266 -7c-77 -3 -154 4 -237 14l7 56c72 -12 130 -19 220 -15c101 5 142 67 149 126c10 78 -13 138 -114 138h-36c-163 0 -180 90 -169 174c12 101 62 186 208 192c46 1 139 -4 209 -15l-7 -58c-82 11 -112 19 -201 17c-73 -2 -135 -30 -148 -137c-8 -81 21 -116 118 -116 h36c145 0 177 -102 166 -190c-10 -73 -58 -176 -201 -186z" />
<glyph unicode="T" horiz-adv-x="519" d="M188 0l76 613h-205l6 53h469l-6 -53h-205l-76 -613h-59z" />
<glyph unicode="U" horiz-adv-x="630" d="M220 55h104c86 2 137 42 148 125l59 485h56l-60 -481c-12 -101 -76 -180 -213 -183h-98c-137 3 -179 82 -167 183l60 481h56l-59 -485c-11 -83 30 -123 114 -125z" />
<glyph unicode="V" horiz-adv-x="590" d="M225 0l-161 666h61l140 -583l282 583h61l-322 -666h-61z" />
<glyph unicode="W" horiz-adv-x="890" d="M551 0l-71 624l-225 -624h-92l-98 666h57l91 -621l225 621h94l73 -621l243 621h57l-262 -666h-92z" />
<glyph unicode="X" horiz-adv-x="580" d="M166 665l123 -271l190 271h63l-228 -326l153 -339h-62l-129 285l-200 -285h-62l237 339l-148 326h63z" />
<glyph unicode="Y" horiz-adv-x="543" d="M116 666l145 -402l246 402h61l-284 -461l-25 -205h-59l25 205l-170 461h61z" />
<glyph unicode="Z" horiz-adv-x="576" d="M533 613l-434 -560h371l-6 -53h-436l6 53l433 560h-353l6 53h419z" />
<glyph unicode="[" horiz-adv-x="311" d="M224 -126h-181l112 916h181l-6 -54h-123l-100 -808h123z" />
<glyph unicode="\" horiz-adv-x="440" d="M118 676h59l126 -676h-58z" />
<glyph unicode="]" horiz-adv-x="311" d="M154 -126h-179l6 54h121l100 808h-123l6 54h181z" />
<glyph unicode="^" horiz-adv-x="454" d="M236 622l-138 -213h-60l173 267h64l105 -267h-61z" />
<glyph unicode="_" horiz-adv-x="434" d="M426 -47h-426l6 37h426z" />
<glyph unicode="`" horiz-adv-x="310" d="M86 619l8 63l133 -97l-8 -63z" />
<glyph unicode="a" horiz-adv-x="485" d="M48 142l1 13c21 167 181 166 320 143l8 63c8 61 -40 82 -119 82c-47 0 -109 -15 -149 -27l7 58c46 14 105 24 154 24c139 0 178 -54 165 -158l-41 -326c-168 -31 -372 -73 -346 128zM363 243c-105 16 -238 47 -255 -90l-2 -8c-16 -137 126 -106 233 -90z" />
<glyph unicode="b" horiz-adv-x="508" d="M424 143c-25 -201 -218 -159 -378 -128l80 651h60l-23 -183c145 24 307 30 286 -137zM156 427l-46 -369c106 -17 240 -48 257 89l24 193c16 133 -125 105 -235 87z" />
<glyph unicode="c" horiz-adv-x="407" d="M180 -11c-114 10 -150 61 -138 156l24 196c11 95 61 146 176 156c58 3 113 0 170 -14l-6 -55c-47 12 -92 17 -136 17c-98 0 -136 -30 -145 -99l-26 -206c-8 -66 23 -100 121 -100c44 0 91 10 141 23l-8 -56c-58 -15 -115 -20 -173 -18z" />
<glyph unicode="d" horiz-adv-x="513" d="M51 143l25 203c21 167 181 161 320 137l23 183h60l-80 -651c-170 -31 -373 -73 -348 128zM343 58l46 369c-106 18 -239 46 -255 -87l-24 -193c-17 -137 123 -106 233 -89z" />
<glyph unicode="e" horiz-adv-x="479" d="M106 165c-11 -84 16 -124 113 -124c49 0 106 10 155 22l-6 -50c-47 -14 -105 -23 -159 -23c-137 0 -173 71 -159 177l18 153c13 100 67 177 204 177s168 -77 155 -177l-12 -94h-303zM124 322l-4 -44h246l4 44c10 76 -13 125 -104 125s-132 -49 -142 -125z" />
<glyph unicode="f" horiz-adv-x="339" d="M279 706c16 0 36 -2 57 -5l-6 -49c-18 3 -36 4 -53 4c-55 0 -75 -21 -82 -74l-12 -95h126l-6 -50h-126l-54 -437h-58l54 437h-80l6 50h80l13 102c10 80 64 117 141 117z" />
<glyph unicode="g" horiz-adv-x="513" d="M64 146l24 198c26 201 218 159 380 128l-65 -520c-13 -104 -66 -158 -205 -158c-49 0 -104 10 -146 24l6 54c37 -12 95 -27 142 -27c79 0 134 21 142 82l9 76c-145 -23 -308 -24 -287 143zM358 57l47 374c-105 16 -242 47 -258 -90l-24 -194c-18 -137 127 -106 235 -90z " />
<glyph unicode="h" horiz-adv-x="521" d="M151 427l-53 -427h-60l82 666h60l-22 -183c144 24 306 30 286 -137l-43 -346h-58l42 340c16 133 -124 105 -234 87z" />
<glyph unicode="i" horiz-adv-x="228" d="M105 0h-58l61 487h58zM116 566c0 17 12 30 29 30s30 -13 30 -30s-13 -29 -30 -29s-29 12 -29 29z" />
<glyph unicode="j" horiz-adv-x="223" d="M-30 -209c-16 0 -38 2 -59 5l7 50c19 -3 36 -5 53 -5c53 0 73 21 79 74l71 570h58l-72 -577c-9 -80 -62 -117 -137 -117zM129 566c-1 17 11 30 28 30s30 -13 31 -30c0 -17 -14 -29 -31 -29s-28 12 -28 29z" />
<glyph unicode="k" horiz-adv-x="469" d="M101 0h-58l82 665h58l-51 -415l246 237h72l-252 -240l200 -247h-74l-193 243z" />
<glyph unicode="l" horiz-adv-x="228" d="M101 0h-58l82 665h58z" />
<glyph unicode="m" horiz-adv-x="835" d="M742 0h-60l46 379c12 93 -191 63 -260 38c3 -12 4 -26 1 -42l-46 -375h-61l46 379c12 96 -191 63 -254 40l-51 -419h-58l57 463c53 16 255 69 336 4c91 26 372 88 349 -94z" />
<glyph unicode="n" horiz-adv-x="521" d="M421 0h-58l48 378c12 96 -198 63 -260 40l-52 -418h-56l58 463c70 21 392 105 367 -90z" />
<glyph unicode="o" horiz-adv-x="498" d="M201 -13c-137 3 -180 82 -167 183l18 141c13 100 76 180 213 183h23c137 -3 182 -83 169 -183l-18 -141c-13 -101 -76 -180 -213 -183h-25zM205 41h31c86 2 137 42 146 125l19 147c10 81 -31 125 -115 127h-31c-86 -2 -137 -46 -147 -127l-19 -147 c-9 -83 32 -123 116 -125z" />
<glyph unicode="p" horiz-adv-x="511" d="M466 349l-25 -203c-21 -167 -181 -161 -320 -137l-27 -215h-60l85 683c169 31 372 73 347 -128zM174 434l-46 -369c105 -18 240 -46 256 87l23 193c17 137 -123 106 -233 89z" />
<glyph unicode="q" horiz-adv-x="508" d="M93 349c25 201 218 159 379 128l-85 -683h-60l27 215c-145 -24 -307 -30 -286 137zM361 65l46 369c-106 17 -240 48 -257 -89l-23 -193c-16 -133 123 -105 234 -87z" />
<glyph unicode="r" horiz-adv-x="306" d="M89 1l-61 -1l45 373c16 123 142 125 250 111l-7 -57c-77 11 -172 16 -181 -50z" />
<glyph unicode="s" horiz-adv-x="433" d="M236 443c-54 0 -109 -23 -117 -74c-15 -92 35 -92 118 -95c148 -5 141 -117 136 -144c-15 -92 -89 -133 -179 -136c-65 -3 -127 6 -169 17l6 55c39 -13 91 -21 152 -22c64 1 122 25 130 85c9 56 -13 91 -89 92c-116 1 -182 25 -165 147c7 52 52 125 176 127 c49 0 106 -1 151 -9l-7 -56c-43 8 -84 13 -143 13z" />
<glyph unicode="t" horiz-adv-x="324" d="M181 0c-77 0 -122 37 -112 117l40 320h-76l6 50h76l22 179h58l-22 -179h88l-6 -50h-88l-39 -313c-7 -53 8 -74 63 -74c16 0 34 1 52 3l-6 -49c-20 -3 -41 -4 -56 -4z" />
<glyph unicode="u" horiz-adv-x="521" d="M115 487l56 -1l-47 -377c-12 -96 200 -63 262 -40l52 418h55l-58 -463c-70 -21 -392 -105 -367 90z" />
<glyph unicode="v" horiz-adv-x="449" d="M112 487l95 -404l196 404h61l-236 -487h-61l-116 487h61z" />
<glyph unicode="w" horiz-adv-x="625" d="M106 487l54 -376l148 376h60l54 -376l148 376h60l-190 -487h-61l-54 375l-147 -375h-61l-71 487h60z" />
<glyph unicode="x" horiz-adv-x="441" d="M121 487l108 -194l155 194h66l-194 -242l136 -244h-67l-108 195l-157 -195h-64l194 244l-134 242h65z" />
<glyph unicode="y" horiz-adv-x="491" d="M62 146l43 341h57l-42 -338c-17 -137 130 -106 238 -90l53 428h57l-67 -535c-12 -104 -65 -158 -204 -158c-49 0 -105 10 -147 24l7 56c36 -12 95 -27 142 -27c79 0 135 21 143 82l9 74c-145 -23 -309 -24 -289 143z" />
<glyph unicode="z" horiz-adv-x="437" d="M85 440l7 47h316l-7 -47l-310 -393h271l-6 -47h-332l6 47l311 393h-256z" />
<glyph unicode="{" horiz-adv-x="309" d="M62 350h16c32 0 46 12 49 41l37 300c8 64 45 99 113 99h69l-7 -52h-73c-25 0 -40 -12 -43 -40l-37 -304c-4 -35 -22 -69 -71 -70c49 -2 57 -35 53 -70l-37 -304c-3 -28 8 -40 33 -40h73l-7 -52h-69c-68 0 -95 35 -87 99l37 300c3 29 -7 41 -39 41h-16z" />
<glyph unicode="|" d="M143 -148h-39v928h39v-928z" />
<glyph unicode="}" horiz-adv-x="309" d="M235 350h16l-6 -52h-16c-32 0 -46 -12 -49 -41l-37 -300c-8 -64 -45 -99 -113 -99h-67l7 52h71c25 0 40 12 43 40l37 304c4 35 22 68 73 70c-51 1 -59 35 -55 70l37 304c3 28 -8 40 -33 40h-73l7 52h69c68 0 95 -35 87 -99l-37 -300c-3 -29 7 -41 39 -41z" />
<glyph unicode="~" horiz-adv-x="495" d="M422 342l38 -18c-25 -56 -64 -114 -135 -114c-74 0 -98 78 -153 78c-40 0 -61 -30 -90 -83l-39 19c35 67 76 113 137 113c74 0 97 -80 153 -80c45 0 66 42 89 85z" />
<glyph unicode="&#x20ac;" horiz-adv-x="512" d="M350 233h-229l-7 -49c-12 -104 29 -141 150 -141c42 0 102 5 149 13l-7 -53c-50 -8 -109 -13 -154 -13c-161 0 -212 69 -197 193l7 50h-47l7 55h47l10 87h-47l7 55h47l7 53c15 124 84 193 245 193c45 0 102 -5 150 -14l-7 -52c-43 8 -103 13 -145 13 c-121 0 -172 -37 -184 -141l-7 -52h229l-7 -55h-229l-10 -87h229z" />
<glyph unicode="&#x201a;" horiz-adv-x="215" d="M131 31c0 -11 -4 -36 -22 -77h-25l12 46c-16 1 -27 15 -27 31c0 17 14 31 31 31s31 -14 31 -31z" />
<glyph unicode="&#x192;" horiz-adv-x="349" d="M-5 -206l-58 1l6 49h54c53 0 73 21 79 74l60 479h-80l6 50h80l13 102c10 80 63 117 140 117l58 -1l-6 -49h-54c-55 0 -75 -21 -81 -74l-12 -95h126l-6 -50h-126l-61 -486c-10 -80 -63 -117 -138 -117z" />
<glyph unicode="&#x201e;" horiz-adv-x="314" d="M131 31c0 -11 -4 -36 -22 -77h-25l12 46c-16 1 -27 15 -27 31c0 17 14 31 31 31s31 -14 31 -31zM242 31c0 -11 -4 -36 -22 -77h-25l12 46c-16 1 -27 15 -27 31c0 17 14 31 31 31s31 -14 31 -31z" />
<glyph unicode="&#x2026;" horiz-adv-x="603" d="M119 31c-2 17 13 31 30 31s30 -14 32 -31c-1 -17 -16 -31 -33 -31s-30 14 -29 31zM268 31c-2 17 13 31 30 31s30 -14 32 -31c-1 -17 -16 -31 -33 -31s-30 14 -29 31zM425 31c-2 17 13 31 30 31s30 -14 32 -31c-1 -17 -16 -31 -33 -31s-30 14 -29 31z" />
<glyph unicode="&#x2020;" horiz-adv-x="496" d="M66 434l7 52h164l22 180h58l-22 -180h164l-7 -52h-164l-53 -435h-58l53 435h-164z" />
<glyph unicode="&#x2021;" horiz-adv-x="496" d="M32 162l8 52h164l26 219h-164l7 52h164l22 181h58l-22 -181h164l-7 -52h-164l-26 -219h164l-8 -52h-164l-19 -162h-58l19 162h-164z" />
<glyph unicode="&#x2c6;" horiz-adv-x="397" d="M198 612l-110 -63l6 54l111 67l97 -69l-6 -53z" />
<glyph unicode="&#x2030;" horiz-adv-x="1235" d="M187 271c-110 2 -145 65 -136 146l14 113c10 80 62 144 172 146h22c110 -2 144 -66 134 -146l-14 -113c-9 -81 -60 -144 -170 -146h-22zM188 316h33c61 4 100 32 108 92l15 127c7 58 -24 90 -85 94h-33c-63 -4 -102 -36 -109 -94l-15 -127c-8 -60 23 -88 86 -92zM303 0 h-49l289 666h50zM594 0c-110 2 -145 65 -134 146l14 113c9 80 60 144 170 146h22c110 -2 145 -66 136 -146l-14 -113c-11 -81 -62 -144 -172 -146h-22zM595 45h33c63 4 100 32 108 92l15 127c8 58 -23 90 -85 94h-33c-62 -4 -101 -36 -109 -94l-15 -127 c-8 -60 25 -88 86 -92zM964 0c-110 2 -145 65 -134 146l14 113c9 80 60 144 170 146h22c110 -2 145 -66 136 -146l-14 -113c-11 -81 -62 -144 -172 -146h-22zM965 45h33c63 4 100 32 108 92l15 127c8 58 -23 90 -85 94h-33c-62 -4 -101 -36 -109 -94l-15 -127 c-8 -60 25 -88 86 -92z" />
<glyph unicode="&#x2039;" horiz-adv-x="292" d="M54 244l128 163h64l-128 -163l86 -160h-65z" />
<glyph unicode="&#x2018;" horiz-adv-x="201" d="M78 588c0 11 4 36 22 77h25l-12 -46c16 -1 27 -15 27 -31c0 -17 -14 -31 -31 -31s-31 14 -31 31z" />
<glyph unicode="&#x2019;" horiz-adv-x="199" d="M130 634c0 -11 -4 -36 -22 -77h-25l12 46c-16 1 -27 15 -27 31c0 17 14 31 31 31s31 -14 31 -31z" />
<glyph unicode="&#x201c;" horiz-adv-x="304" d="M78 588c0 11 4 36 22 77h25l-12 -46c16 -1 27 -15 27 -31c0 -17 -14 -31 -31 -31s-31 14 -31 31zM174 588c0 11 4 36 22 77h25l-12 -46c16 -1 27 -15 27 -31c0 -17 -14 -31 -31 -31s-31 14 -31 31z" />
<glyph unicode="&#x201d;" horiz-adv-x="323" d="M224 634c0 -11 -4 -36 -22 -77h-25l12 46c-16 1 -27 15 -27 31c0 17 14 31 31 31s31 -14 31 -31zM128 634c0 -11 -4 -36 -22 -77h-25l12 46c-16 1 -27 15 -27 31c0 17 14 31 31 31s31 -14 31 -31z" />
<glyph unicode="&#x2022;" horiz-adv-x="382" d="M75 298c-1 64 51 116 115 116s116 -52 117 -116c-1 -64 -53 -116 -117 -116s-116 52 -115 116z" />
<glyph unicode="&#x2013;" horiz-adv-x="496" d="M71 256l6 49h346l-6 -49h-346z" />
<glyph unicode="&#x2014;" horiz-adv-x="626" d="M71 256l6 49h476l-6 -49h-476z" />
<glyph unicode="&#x2dc;" horiz-adv-x="410" d="M202 568c-39 19 -69 27 -112 -10l-22 29c40 48 89 58 140 33c35 -16 67 -29 106 7l26 -26c-38 -51 -88 -57 -138 -33z" />
<glyph unicode="&#x203a;" horiz-adv-x="292" d="M172 244l-88 163h64l88 -163l-126 -160h-64z" />
<glyph unicode="&#xa1;" horiz-adv-x="252" d="M179 347l-65 -521h-58l65 521h58zM134 463c0 17 12 29 29 29s30 -12 30 -29s-13 -30 -30 -30s-29 13 -29 30z" />
<glyph unicode="&#xa2;" horiz-adv-x="471" d="M201 -70l13 106c-117 8 -155 60 -145 150l20 148c10 90 62 142 181 150l13 106h56l-13 -106c31 -1 66 -5 94 -11l-6 -51c-37 8 -83 11 -117 11c-100 0 -141 -23 -151 -103l-18 -140c-10 -80 27 -103 127 -103c34 0 79 2 119 10l-6 -50c-30 -6 -67 -11 -98 -12l-13 -105 h-56z" />
<glyph unicode="&#xa3;" horiz-adv-x="504" d="M62 308l6 51h39l13 110c14 113 71 197 233 197h136l-6 -53h-137c-112 0 -154 -46 -166 -141l-14 -113h183l-6 -51h-183l-32 -255h310l-6 -53h-432l6 53h63l32 255h-39z" />
<glyph unicode="&#xa4;" horiz-adv-x="540" d="M465 547l-63 -63c14 -21 20 -48 20 -77v-144c0 -30 -6 -56 -20 -77l63 -63l-38 -38l-66 66c-23 -12 -53 -18 -91 -18c-39 0 -69 6 -92 17l-65 -65l-38 38l62 62c-14 21 -20 48 -20 78v144c0 30 6 56 20 77l-62 63l38 38l65 -66c23 12 53 18 92 18c38 0 68 -7 91 -18 l66 66zM171 394v-118c0 -62 15 -93 99 -93c83 0 98 31 98 93v118c0 62 -15 93 -98 93c-84 0 -99 -31 -99 -93z" />
<glyph unicode="&#xa6;" d="M143 373h-39v371h39v-371zM143 207v-353h-39v353h39z" />
<glyph unicode="&#xa7;" horiz-adv-x="449" d="M153 366l-45 -365h-56l45 363c12 100 76 180 214 183h103l-7 -54h-107c-85 -2 -137 -46 -147 -127zM143 -94h-102l7 54h106c85 2 136 42 147 125l45 364h56l-45 -360c-13 -101 -76 -180 -214 -183z" />
<glyph unicode="&#xa8;" horiz-adv-x="392" d="M83 566c-1 17 12 30 29 30s29 -13 30 -30c-1 -17 -14 -29 -31 -29s-29 12 -28 29zM255 566c-1 17 12 30 29 30s29 -13 30 -30c-1 -17 -14 -29 -31 -29s-29 12 -28 29z" />
<glyph unicode="&#xa9;" horiz-adv-x="826" d="M104 342c0 171 123 310 309 310s309 -139 309 -310c0 -170 -123 -309 -309 -309s-309 139 -309 309zM147 342c0 -149 101 -269 266 -269s265 120 265 269s-100 270 -265 270s-266 -121 -266 -270zM295 270v144c0 70 32 102 120 102c32 0 65 -4 92 -10v-40 c-28 5 -68 9 -89 9c-63 0 -79 -12 -79 -62v-142c0 -50 16 -62 79 -62c21 0 61 3 89 9v-40c-27 -6 -60 -10 -92 -10c-88 0 -120 32 -120 102z" />
<glyph unicode="&#xaa;" horiz-adv-x="378" d="M72 464l2 7c11 99 106 99 189 85l4 38c5 36 -23 48 -69 48c-28 0 -66 -10 -90 -17l5 34c27 8 62 15 90 15c83 0 107 -31 99 -94l-24 -192c-99 -18 -221 -43 -206 76zM259 523c-62 9 -141 28 -150 -53l-1 -5c-11 -81 74 -62 137 -53z" />
<glyph unicode="&#xab;" horiz-adv-x="478" d="M55 244l125 160h64l-125 -160l85 -160h-64zM241 244l125 160h64l-125 -160l85 -160h-64z" />
<glyph unicode="&#xac;" horiz-adv-x="566" d="M64 217v52h406v-230h-54v178h-352z" />
<glyph unicode="&#xae;" horiz-adv-x="592" d="M32 408c0 144 99 260 260 260s259 -116 259 -260c0 -143 -98 -260 -259 -260s-260 117 -260 260zM72 408c0 -122 76 -222 220 -222s219 100 219 222s-75 225 -219 225s-220 -103 -220 -225zM366 294l-60 79h-57v-79h-35v239h92c52 0 72 -23 72 -61v-36 c0 -27 -8 -44 -34 -56l64 -86h-42zM344 472c0 24 -11 30 -38 30h-57v-96h57c29 0 38 10 38 30v36z" />
<glyph unicode="&#xaf;" horiz-adv-x="376" d="M66 566l6 48h236l-6 -48h-236z" />
<glyph unicode="&#xb0;" horiz-adv-x="358" d="M282 551c1 -58 -39 -105 -105 -105c-67 0 -106 47 -107 105c0 58 42 104 108 104s104 -46 104 -104zM246 551c0 38 -23 72 -68 72s-72 -34 -72 -72c0 -37 26 -73 71 -73s69 36 69 73z" />
<glyph unicode="&#xb1;" horiz-adv-x="566" d="M83 297l7 52h175l22 178h56l-22 -178h175l-7 -52h-175l-22 -178h-56l22 178h-175zM459 52l-7 -52h-406l7 52h406z" />
<glyph unicode="&#xb4;" horiz-adv-x="310" d="M239 682l-8 -63l-157 -97l8 63z" />
<glyph unicode="&#xb5;" horiz-adv-x="493" d="M342 -69l12 92c-66 -40 -164 -34 -252 -20l-26 -210h-57l86 694h57l-53 -428c104 -16 243 -47 260 90l42 338h57l-69 -556h-57z" />
<glyph unicode="&#xb6;" horiz-adv-x="502" d="M87 436c15 127 131 230 258 230h2l-57 -460h-2c-127 0 -217 103 -201 230zM223 -207c-16 0 -37 2 -58 5l7 49c19 -3 36 -4 53 -4c55 0 75 21 81 74l93 748h58l-94 -755c-10 -80 -63 -117 -140 -117z" />
<glyph unicode="&#xb7;" horiz-adv-x="242" d="M70 308c-1 25 21 46 46 46s44 -21 45 -46c0 -25 -21 -45 -46 -45s-45 20 -45 45z" />
<glyph unicode="&#xb8;" horiz-adv-x="313" d="M197 -63h-45l26 75h29l-16 -48h14c65 -4 73 -42 67 -77c-9 -46 -53 -62 -92 -64c-31 -1 -53 3 -77 9l3 27c27 -7 51 -11 79 -10c32 1 55 15 60 41c2 12 4 47 -48 47z" />
<glyph unicode="&#xba;" horiz-adv-x="392" d="M317 588l-11 -91c-8 -62 -46 -109 -130 -109s-110 47 -102 109l11 91c7 61 45 108 129 108s107 -47 103 -108zM263 496l12 93c6 45 -14 69 -66 69c-50 0 -75 -24 -81 -69l-12 -93c-6 -46 15 -70 65 -70c52 0 76 24 82 70z" />
<glyph unicode="&#xbb;" horiz-adv-x="478" d="M358 249l-86 160h64l86 -160l-128 -163h-64zM172 249l-86 160h64l86 -160l-128 -163h-64z" />
<glyph unicode="&#xbf;" horiz-adv-x="458" d="M372 358l-26 -208h-107c-97 0 -147 -30 -159 -111c-16 -121 47 -147 121 -147c57 0 125 15 181 31l-7 -55c-55 -17 -127 -30 -184 -30c-124 0 -187 61 -168 200c16 105 78 166 241 166h32l19 154h57zM387 457c0 -17 -14 -31 -31 -31s-31 14 -31 31c-1 17 14 31 31 31 s30 -14 31 -31z" />
<glyph unicode="&#xd0;" horiz-adv-x="627" d="M46 314l7 50h77l37 302h220c162 0 197 -84 183 -197l-32 -272c-14 -113 -71 -197 -233 -197h-220l38 314h-77zM220 613l-31 -249h141l-7 -50h-141l-32 -261h162c112 0 154 46 166 141l34 278c12 95 -18 141 -130 141h-162z" />
<glyph unicode="&#xd7;" horiz-adv-x="548" d="M455 438l31 -36l-175 -158l137 -158l-41 -36l-139 157l-177 -157l-31 36l177 158l-139 158l41 36l139 -157z" />
<glyph unicode="&#xd8;" horiz-adv-x="616" d="M349 676c64 0 112 -12 145 -33l34 49h49l-51 -75c30 -35 39 -84 32 -139l-36 -290c-14 -114 -87 -198 -258 -198c-64 0 -111 11 -144 32l-36 -51h-49l53 78c-31 35 -39 83 -32 139l36 290c14 114 86 198 257 198zM272 43c128 0 180 52 192 147l35 286c4 35 1 64 -11 87 l-335 -492c24 -19 64 -28 119 -28zM116 190c-5 -35 -3 -64 8 -87l338 492c-26 18 -65 28 -119 28c-128 0 -180 -52 -192 -147z" />
<glyph unicode="&#xde;" horiz-adv-x="544" d="M39 1l83 665h60l-12 -97c145 24 307 30 286 -137l-25 -203c-22 -178 -175 -166 -321 -139l-11 -89h-60zM163 513l-46 -369c106 -17 240 -48 257 89l24 193c16 133 -125 105 -235 87z" />
<glyph unicode="&#xdf;" horiz-adv-x="593" d="M106 0h-58l66 535c11 88 69 131 159 131h107c90 0 138 -43 127 -131l-10 -80c-6 -53 -33 -88 -89 -108c51 -7 90 -50 81 -124l-10 -87c-11 -92 -84 -136 -170 -136h-90l6 52h91c63 0 97 31 104 84l10 85c7 56 -22 94 -99 94h-50l7 52h36c73 0 108 38 115 91l10 85 c6 46 -17 71 -74 71h-109c-57 0 -86 -25 -92 -71z" />
<glyph unicode="&#xf0;" horiz-adv-x="513" d="M219 544l80 60c-27 18 -59 33 -94 46l6 50c52 -18 96 -39 133 -64l71 51l21 -32l-61 -44c59 -55 83 -130 70 -238l-25 -206c-13 -100 -74 -177 -211 -177s-180 77 -167 177l15 118c15 125 92 177 199 177c60 0 101 -17 137 -47c6 66 -12 121 -62 164l-93 -66zM215 42 c91 0 136 41 147 123l22 185c-18 30 -70 60 -129 60c-91 0 -130 -41 -140 -123l-15 -122c-11 -82 24 -123 115 -123z" />
<glyph unicode="&#xf7;" horiz-adv-x="566" d="M486 269v-52h-406v52h406zM254 400c0 17 14 31 31 31s31 -14 31 -31s-14 -31 -31 -31s-31 14 -31 31zM254 83c0 17 14 31 31 31s31 -14 31 -31s-14 -31 -31 -31s-31 14 -31 31z" />
<glyph unicode="&#xf8;" horiz-adv-x="498" d="M428 167c-13 -100 -75 -177 -212 -177c-48 0 -85 10 -110 26l-29 -40h-48l46 65c-25 32 -32 76 -25 126l19 153c11 100 73 177 210 177c48 0 84 -10 111 -26l31 44h49l-51 -70c26 -31 33 -76 28 -125zM369 165l19 157c4 29 2 53 -6 72l-243 -332c20 -14 47 -20 84 -20 c91 0 136 41 146 123zM107 165c-4 -29 -2 -53 6 -72l243 332c-20 13 -46 20 -83 20c-91 0 -137 -41 -147 -123z" />
<glyph unicode="&#xfe;" horiz-adv-x="518" d="M28 -106l105 843h60l-21 -168c145 24 307 30 286 -137l-25 -203c-22 -178 -175 -166 -321 -139l-24 -196h-60zM165 513l-46 -369c106 -17 240 -48 257 89l24 193c16 133 -125 105 -235 87z" />
<glyph unicode="&#xf6c9;" horiz-adv-x="301" d="M63 525l8 58l170 101l-7 -62z" />
<glyph unicode="&#xe002;" horiz-adv-x="389" d="M198 612l-110 -63l6 54l111 67l97 -69l-6 -53z" />
<glyph unicode="&#xf6ce;" horiz-adv-x="301" d="M86 619l8 63l133 -97l-8 -63z" />
<glyph unicode="&#xe005;" horiz-adv-x="266" d="M194 610c0 -35 -21 -62 -62 -62s-64 27 -64 62c1 36 22 61 63 61s64 -25 63 -61zM160 610c0 20 -8 32 -28 32s-31 -12 -31 -32c0 -19 10 -32 30 -32s29 13 29 32z" />
<glyph unicode="&#xe006;" horiz-adv-x="410" d="M202 741c-39 19 -69 27 -112 -10l-22 29c40 48 89 58 140 33c35 -16 67 -29 106 7l26 -26c-38 -51 -88 -57 -138 -33z" />
<glyph unicode="&#x130;" d="M94 0h-58l82 665h58zM128 746c-1 17 11 30 28 30s30 -13 31 -30c0 -17 -14 -29 -31 -29s-28 12 -28 29z" />
<glyph unicode="&#x11f;" horiz-adv-x="513" d="M83 344l-25 -198c-21 -167 143 -166 288 -143l-10 -76c-7 -61 -63 -82 -142 -82c-47 0 -106 15 -141 27l-8 -54c43 -14 99 -24 148 -24c139 0 191 54 204 158l64 520c-160 31 -354 73 -378 -128zM352 57c-108 -16 -253 -47 -236 90l24 194c17 137 154 106 258 90z M397 641l30 -30c-25 -31 -71 -68 -132 -68s-97 37 -114 68l36 30c19 -30 47 -53 84 -53s71 23 96 53z" />
<glyph unicode="&#x11e;" horiz-adv-x="571" d="M285 303l7 58h194l-44 -343c-64 -18 -142 -28 -207 -28c-162 0 -203 70 -188 194l36 298c16 125 83 194 245 194c49 0 111 -5 159 -14l-6 -52c-52 7 -107 13 -158 13c-124 0 -168 -40 -180 -142l-37 -296c-13 -98 15 -142 140 -142c41 0 100 5 142 15l31 245h-134z M426 820l28 -30c-24 -31 -70 -68 -131 -68s-97 37 -115 68l38 30c17 -30 46 -53 83 -53s70 23 97 53z" />
<glyph unicode="&#x153;" horiz-adv-x="802" d="M446 226l-7 -56l-1 -8c-10 -82 18 -121 114 -121c49 0 106 10 155 22l-6 -50c-46 -14 -105 -23 -159 -23c-82 0 -128 25 -148 68c-35 -42 -89 -69 -168 -71h-16c-137 3 -179 82 -167 183l18 141c12 100 75 180 213 183h14c78 -2 126 -28 151 -70c32 45 83 73 166 73 c137 0 168 -77 155 -177l-11 -94h-303zM214 41h22c85 2 136 42 146 125v1l19 152c8 77 -33 119 -116 121h-22c-85 -2 -136 -46 -146 -127l-19 -147c-10 -83 31 -123 116 -125zM458 322v-4l-1 -7l-4 -33h246l5 44c9 76 -13 125 -104 125s-133 -49 -142 -125z" />
<glyph unicode="&#x161;" horiz-adv-x="433" d="M226 443c-54 0 -109 -23 -118 -74c-15 -92 35 -92 118 -95c149 -5 142 -117 136 -144c-14 -92 -88 -133 -180 -136c-64 -3 -126 6 -168 17l6 55c40 -13 90 -21 152 -22c63 1 122 25 131 85c8 56 -14 91 -91 92c-115 1 -180 25 -165 147c9 52 53 125 178 127 c49 0 106 -1 150 -9l-7 -56c-42 8 -83 13 -142 13zM153 666l95 -63l113 64l-6 -53l-114 -69l-95 67z" />
<glyph unicode="&#x17e;" horiz-adv-x="437" d="M74 440l7 47h316l-7 -47l-310 -393h271l-6 -47h-331l5 47l311 393h-256zM154 666l95 -63l113 64l-6 -53l-114 -69l-94 67z" />
<glyph unicode="&#x178;" horiz-adv-x="543" d="M110 666l145 -402l246 402h61l-285 -461l-25 -205h-59l25 205l-169 461h61zM200 745c-1 17 11 30 28 30s30 -13 31 -30c0 -17 -15 -29 -32 -29s-27 12 -27 29zM372 745c-1 17 11 30 28 30s30 -13 31 -30c0 -17 -15 -29 -32 -29s-27 12 -27 29z" />
<glyph unicode="&#xa5;" horiz-adv-x="543" d="M72 137l5 47h145l3 21l-38 104h-94l6 47h71l-115 310h61l145 -402l246 402h61l-191 -310h71l-6 -47h-94l-64 -104l-3 -21h145l-5 -47h-145l-17 -137h-59l17 137h-145z" />
<glyph unicode="&#xb2;" horiz-adv-x="419" d="M219 642c-35 0 -76 -9 -109 -18l4 33c34 10 76 18 110 18c75 0 113 -37 102 -120c-10 -63 -48 -100 -145 -100c-61 0 -81 -37 -87 -84l-6 -56h216l-4 -32h-249l11 91c9 64 35 113 133 113c59 0 89 18 97 67c9 73 -29 88 -73 88z" />
<glyph unicode="&#xb3;" horiz-adv-x="421" d="M173 306c50 0 94 13 104 77c6 48 -5 75 -57 75h-105l4 30h106c55 0 65 27 71 70c8 82 -46 83 -75 83c-37 0 -77 -10 -111 -20l3 33c33 10 73 18 108 18c94 0 120 -47 111 -117c-5 -37 -18 -64 -44 -82c23 -19 29 -49 24 -87c-7 -59 -44 -111 -141 -111 c-35 0 -73 8 -102 18l3 33c32 -10 67 -20 101 -20z" />
<glyph unicode="&#xb9;" horiz-adv-x="263" d="M140 628l-45 -24l5 39l49 27h31l-48 -392h-35z" />
<glyph unicode="&#xbc;" horiz-adv-x="644" d="M528 337h-33l-7 -54h-35l7 54h-187l4 37l213 301h47l-38 -308h33zM308 367h156l33 263zM150 632l-46 -24l5 39l49 26h31l-48 -391h-35zM377 683l-174 -402h-36l175 402h35z" />
<glyph unicode="&#xbd;" horiz-adv-x="701" d="M501 625c-34 0 -75 -9 -109 -19l4 33c33 11 76 18 110 18c75 0 113 -36 101 -120c-9 -63 -46 -99 -144 -99c-60 0 -81 -37 -86 -84l-7 -57h216l-4 -31h-249l11 91c8 63 35 113 133 113c58 0 89 18 97 67c9 72 -28 88 -73 88zM149 617l-46 -24l5 39l48 26h32l-48 -391h-35 zM376 666l-175 -399h-34l173 399h36z" />
<glyph unicode="&#xbe;" horiz-adv-x="773" d="M660 322h-33l-7 -54h-35l7 54h-187l4 37l213 301h47l-38 -308h33zM168 300c49 0 93 13 104 77c6 47 -6 74 -57 74h-105l4 30h106c55 0 65 28 71 71c7 82 -47 82 -75 82c-37 0 -77 -9 -112 -19l3 33c33 10 74 18 108 18c95 0 120 -47 111 -117c-5 -37 -17 -64 -42 -82 c21 -19 28 -49 23 -88c-7 -58 -43 -110 -141 -110c-34 0 -73 8 -103 18l3 32c33 -9 67 -19 102 -19zM440 352h156l33 263zM497 666l-172 -396h-35l172 396h35z" />
<glyph unicode="&#x2122;" horiz-adv-x="735" d="M167 332v307h-103v26h235v-26h-103v-307h-29zM621 332v302l-97 -298h-46l-97 298v-302h-29v333h46l103 -311l103 311h45v-333h-28z" />
<glyph unicode="&#xc6;" horiz-adv-x="854" d="M87 482c12 101 74 180 211 183l537 1l-6 -53h-316l-31 -247h294l-6 -53h-294l-33 -260h317l-6 -53h-376l38 309h-295l-38 -308h-56zM142 486l-15 -126h295l32 251h-164c-86 -2 -137 -42 -148 -125z" />
<glyph unicode="&#xc0;" horiz-adv-x="589" d="M461 1h-56l38 308h-334l-38 -308h-55l58 481c13 101 74 180 212 183h66c136 -3 181 -82 168 -183zM349 611h-72c-85 -2 -136 -42 -146 -125l-16 -126h334l16 126c10 83 -31 123 -116 125zM266 798l8 63l133 -97l-8 -63z" />
<glyph unicode="&#xc1;" horiz-adv-x="589" d="M461 1h-56l38 308h-334l-38 -308h-55l58 481c13 101 74 180 212 183h66c136 -3 181 -82 168 -183zM349 611h-72c-85 -2 -136 -42 -146 -125l-16 -126h334l16 126c10 83 -31 123 -116 125zM419 861l-8 -63l-157 -97l8 63z" />
<glyph unicode="&#xc2;" horiz-adv-x="589" d="M462 1h-56l38 308h-334l-38 -308h-55l59 481c11 101 73 180 211 183h66c136 -3 180 -82 169 -183zM350 611h-72c-85 -2 -136 -42 -147 -125l-15 -126h334l15 126c11 83 -30 123 -115 125zM337 791l-110 -63l6 54l111 67l97 -69l-6 -53z" />
<glyph unicode="&#xc3;" horiz-adv-x="589" d="M463 1h-56l38 308h-334l-38 -308h-55l59 481c13 101 73 180 211 183h66c136 -3 182 -82 169 -183zM352 611h-72c-86 -2 -137 -42 -147 -125l-16 -126h334l16 126c10 83 -31 123 -115 125zM335 747c-38 19 -68 27 -111 -10l-22 29c39 48 89 58 140 33c35 -16 67 -29 106 7 l25 -26c-38 -51 -88 -57 -138 -33z" />
<glyph unicode="&#xc4;" horiz-adv-x="589" d="M466 1h-56l39 308h-334l-39 -308h-56l60 481c12 101 74 180 211 183h66c137 -3 181 -82 169 -183zM355 611h-72c-86 -2 -137 -42 -147 -125l-15 -126h334l15 126c10 83 -31 123 -115 125zM222 745c-1 17 12 30 29 30s29 -13 30 -30c0 -17 -14 -29 -31 -29s-28 12 -28 29z M394 745c-1 17 12 30 29 30s29 -13 30 -30c0 -17 -14 -29 -31 -29s-28 12 -28 29z" />
<glyph unicode="&#xc5;" horiz-adv-x="589" d="M462 1h-56l38 308h-334l-38 -308h-55l58 481c13 101 74 180 212 183h66c136 -3 181 -82 168 -183zM350 611h-72c-85 -2 -136 -42 -147 -125l-15 -126h334l15 126c11 83 -30 123 -115 125zM402 784c0 -35 -24 -64 -65 -64s-65 29 -65 64c0 36 24 63 65 63s65 -27 65 -63z M368 784c1 20 -11 34 -31 34s-31 -14 -32 -34c1 -19 12 -34 32 -34s32 15 31 34z" />
<glyph unicode="&#xc7;" horiz-adv-x="511" d="M261 -63h-45l18 54c-138 8 -183 75 -168 192l37 300c16 124 84 193 245 193c45 0 102 -5 150 -14l-6 -52c-44 8 -104 13 -146 13c-121 0 -171 -37 -184 -141l-37 -298c-13 -104 28 -141 149 -141c42 0 103 5 149 13l-7 -53c-49 -8 -108 -13 -153 -13l-9 -26h14 c67 -4 75 -42 68 -77c-8 -46 -52 -62 -92 -64c-31 -1 -52 3 -78 9l4 27c26 -7 52 -11 78 -10c32 1 57 15 60 41c3 12 5 47 -47 47z" />
<glyph unicode="&#xc8;" horiz-adv-x="536" d="M36 0l82 666h375l-6 -53h-316l-31 -247h294l-6 -53h-294l-33 -260h317l-6 -53h-376zM239 798l8 63l133 -97l-8 -63z" />
<glyph unicode="&#xc9;" horiz-adv-x="536" d="M36 0l82 666h375l-6 -53h-316l-31 -247h294l-6 -53h-294l-33 -260h317l-6 -53h-376zM392 861l-8 -63l-157 -97l8 63z" />
<glyph unicode="&#xca;" horiz-adv-x="536" d="M37 0l82 666h375l-6 -53h-316l-31 -247h294l-7 -53h-294l-32 -260h317l-6 -53h-376zM311 791l-110 -63l7 54l110 67l97 -69l-6 -53z" />
<glyph unicode="&#xcb;" horiz-adv-x="536" d="M41 0l83 666h375l-7 -53h-316l-30 -247h294l-8 -53h-294l-31 -260h317l-7 -53h-376zM196 745c-1 17 11 30 28 30s30 -13 31 -30c0 -17 -15 -29 -32 -29s-27 12 -27 29zM368 745c-1 17 11 30 28 30s30 -13 31 -30c0 -17 -15 -29 -32 -29s-27 12 -27 29z" />
<glyph unicode="&#xcc;" d="M182 666l-82 -666h-59l82 666h59zM96 798l8 63l133 -97l-8 -63z" />
<glyph unicode="&#xcd;" d="M182 666l-82 -666h-59l82 666h59zM249 861l-8 -63l-157 -97l8 63z" />
<glyph unicode="&#xce;" d="M183 666l-82 -666h-59l82 666h59zM168 791l-110 -63l7 54l110 67l97 -69l-6 -53z" />
<glyph unicode="&#xcf;" d="M188 666l-83 -666h-59l83 666h59zM53 745c-1 17 11 30 28 30s30 -13 31 -30c0 -17 -15 -29 -32 -29s-27 12 -27 29zM225 745c-1 17 11 30 28 30s30 -13 31 -30c0 -17 -15 -29 -32 -29s-27 12 -27 29z" />
<glyph unicode="&#xd1;" horiz-adv-x="638" d="M410 0l-241 608l-75 -608h-56l82 666h86l241 -609l75 609h56l-82 -666h-86zM361 747c-39 19 -69 27 -112 -10l-22 29c39 48 89 58 140 33c35 -16 67 -29 106 7l25 -26c-38 -51 -88 -57 -137 -33z" />
<glyph unicode="&#xd2;" horiz-adv-x="616" d="M204 1c-137 3 -179 82 -167 183l37 298c13 100 76 180 214 183h96c136 -3 181 -83 168 -183l-37 -298c-12 -101 -76 -180 -213 -183h-98zM208 55h104c86 2 137 42 147 125l38 304c9 81 -31 125 -116 127h-104c-85 -2 -137 -46 -146 -127l-38 -304 c-10 -83 31 -123 115 -125zM279 798l8 63l133 -97l-8 -63z" />
<glyph unicode="&#xd3;" horiz-adv-x="616" d="M204 1c-137 3 -179 82 -167 183l37 298c13 100 76 180 214 183h96c136 -3 181 -83 168 -183l-37 -298c-12 -101 -76 -180 -213 -183h-98zM208 55h104c86 2 137 42 147 125l38 304c9 81 -31 125 -116 127h-104c-85 -2 -137 -46 -146 -127l-38 -304 c-10 -83 31 -123 115 -125zM432 861l-8 -63l-157 -97l8 63z" />
<glyph unicode="&#xd4;" horiz-adv-x="616" d="M205 1c-137 3 -180 82 -167 183l38 298c11 100 75 180 213 183h96c136 -3 180 -83 169 -183l-38 -298c-13 -101 -76 -180 -213 -183h-98zM209 55h104c86 2 137 42 146 125l38 304c10 81 -30 125 -115 127h-104c-85 -2 -137 -46 -147 -127l-38 -304 c-9 -83 32 -123 116 -125zM351 791l-110 -63l6 54l111 67l97 -69l-6 -53z" />
<glyph unicode="&#xd5;" horiz-adv-x="616" d="M206 1c-137 3 -179 82 -167 183l38 298c12 100 75 180 213 183h96c136 -3 181 -83 169 -183l-38 -298c-12 -101 -76 -180 -213 -183h-98zM210 55h104c86 2 137 42 148 125l37 304c10 81 -31 125 -115 127h-104c-86 -2 -137 -46 -147 -127l-37 -304 c-11 -83 30 -123 114 -125zM349 747c-38 19 -68 27 -111 -10l-22 29c39 48 89 58 140 33c35 -16 67 -29 106 7l25 -26c-38 -51 -88 -57 -138 -33z" />
<glyph unicode="&#xd6;" horiz-adv-x="616" d="M209 1c-136 3 -179 82 -166 183l37 298c12 100 76 180 213 183h96c137 -3 181 -83 169 -183l-37 -298c-13 -101 -76 -180 -214 -183h-98zM214 55h104c85 2 136 42 146 125l37 304c11 81 -30 125 -114 127h-104c-86 -2 -137 -46 -148 -127l-37 -304 c-10 -83 31 -123 116 -125zM235 745c-1 17 12 30 29 30s29 -13 30 -30c0 -17 -14 -29 -31 -29s-28 12 -28 29zM407 745c-1 17 12 30 29 30s29 -13 30 -30c0 -17 -14 -29 -31 -29s-28 12 -28 29z" />
<glyph unicode="&#xd9;" horiz-adv-x="630" d="M208 55h104c86 2 137 42 147 125l60 485h56l-60 -481c-12 -101 -76 -180 -213 -183h-98c-137 3 -179 82 -167 183l60 481h56l-60 -485c-10 -83 31 -123 115 -125zM286 798l8 63l133 -97l-8 -63z" />
<glyph unicode="&#xda;" horiz-adv-x="630" d="M208 55h104c86 2 137 42 147 125l60 485h56l-60 -481c-12 -101 -76 -180 -213 -183h-98c-137 3 -179 82 -167 183l60 481h56l-60 -485c-10 -83 31 -123 115 -125zM439 861l-8 -63l-157 -97l8 63z" />
<glyph unicode="&#xdb;" horiz-adv-x="630" d="M209 55h104c86 2 137 42 146 125l61 485h56l-60 -481c-13 -101 -76 -180 -213 -183h-98c-137 3 -180 82 -167 183l60 481h56l-61 -485c-9 -83 32 -123 116 -125zM358 791l-110 -63l6 54l111 67l97 -69l-6 -53z" />
<glyph unicode="&#xdc;" horiz-adv-x="630" d="M214 55h104c85 2 136 42 146 125l60 485h56l-59 -481c-13 -101 -76 -180 -214 -183h-98c-136 3 -179 82 -166 183l59 481h56l-60 -485c-10 -83 31 -123 116 -125zM242 745c-1 17 12 30 29 30s29 -13 30 -30c0 -17 -14 -29 -31 -29s-28 12 -28 29zM414 745 c-1 17 12 30 29 30s29 -13 30 -30c0 -17 -14 -29 -31 -29s-28 12 -28 29z" />
<glyph unicode="&#x15e;" horiz-adv-x="544" d="M241 -63h-45l19 56c-58 1 -115 7 -176 14l6 56c73 -12 131 -19 221 -15c102 5 143 67 150 126c9 78 -15 138 -116 138h-36c-163 0 -178 90 -168 174c13 101 62 186 209 192c46 1 138 -4 209 -15l-7 -58c-83 11 -113 19 -201 17c-74 -2 -135 -30 -149 -137 c-8 -81 20 -116 117 -116h36c145 0 178 -102 167 -190c-9 -73 -58 -176 -200 -186h-33l-9 -29h14c65 -4 74 -42 67 -77c-9 -46 -53 -62 -92 -64c-31 -1 -52 3 -78 9l3 27c27 -7 53 -11 80 -10c31 1 55 15 59 41c3 12 5 47 -47 47z" />
<glyph unicode="&#xe0;" horiz-adv-x="485" d="M36 142l2 13c20 167 181 166 320 143l8 63c8 61 -40 82 -119 82c-47 0 -110 -15 -149 -27l7 58c46 14 104 24 153 24c139 0 179 -54 166 -158l-41 -326c-168 -31 -371 -73 -347 128zM351 243c-104 16 -237 47 -254 -90l-2 -8c-17 -137 125 -106 233 -90zM207 619l8 63 l133 -97l-8 -63z" />
<glyph unicode="&#xe1;" horiz-adv-x="485" d="M36 142l2 13c20 167 181 166 320 143l8 63c8 61 -40 82 -119 82c-47 0 -110 -15 -149 -27l7 58c46 14 104 24 153 24c139 0 179 -54 166 -158l-41 -326c-168 -31 -371 -73 -347 128zM351 243c-104 16 -237 47 -254 -90l-2 -8c-17 -137 125 -106 233 -90zM360 682l-8 -63 l-157 -97l8 63z" />
<glyph unicode="&#xe2;" horiz-adv-x="485" d="M37 142l1 13c21 167 182 166 321 143l8 63c7 61 -41 82 -120 82c-47 0 -109 -15 -148 -27l7 58c46 14 103 24 152 24c139 0 179 -54 167 -158l-41 -326c-169 -31 -371 -73 -347 128zM352 243c-104 16 -238 47 -255 -90l-1 -8c-17 -137 125 -106 233 -90zM278 612 l-111 -63l7 54l111 67l97 -69l-7 -53z" />
<glyph unicode="&#xe3;" horiz-adv-x="485" d="M38 142l2 13c21 167 181 166 320 143l8 63c8 61 -40 82 -119 82c-47 0 -110 -15 -149 -27l7 58c46 14 105 24 154 24c139 0 178 -54 165 -158l-41 -326c-168 -31 -371 -73 -347 128zM354 243c-104 16 -238 47 -255 -90l-2 -8c-17 -137 126 -106 234 -90zM276 568 c-39 19 -68 27 -111 -10l-23 29c41 48 90 58 140 33c35 -16 67 -29 106 7l26 -26c-38 -51 -88 -57 -138 -33z" />
<glyph unicode="&#xe4;" horiz-adv-x="485" d="M41 142l1 13c22 167 183 166 322 143l8 63c7 61 -42 82 -121 82c-47 0 -108 -15 -147 -27l7 58c45 14 103 24 152 24c139 0 178 -54 166 -158l-40 -326c-170 -31 -372 -73 -348 128zM357 243c-104 16 -239 47 -255 -90l-1 -8c-17 -137 125 -106 233 -90zM163 566 c-1 17 11 30 28 30s30 -13 31 -30c0 -17 -14 -29 -31 -29s-28 12 -28 29zM335 566c-1 17 11 30 28 30s30 -13 31 -30c0 -17 -14 -29 -31 -29s-28 12 -28 29z" />
<glyph unicode="&#xe5;" horiz-adv-x="485" d="M37 142l1 13c22 167 182 166 321 143l8 63c7 61 -41 82 -120 82c-47 0 -109 -15 -148 -27l7 58c46 14 104 24 153 24c139 0 178 -54 166 -158l-41 -326c-169 -31 -371 -73 -347 128zM353 243c-105 16 -239 47 -256 -90l-1 -8c-17 -137 125 -106 234 -90zM342 605 c1 -35 -24 -64 -65 -64s-64 29 -65 64c1 36 25 63 66 63s65 -27 64 -63zM308 605c1 20 -11 34 -31 34s-31 -14 -32 -34c1 -19 13 -34 33 -34s31 15 30 34z" />
<glyph unicode="&#xe7;" horiz-adv-x="421" d="M190 -11c-113 10 -150 61 -138 156l24 196c12 95 61 146 177 156c57 3 113 0 169 -14l-5 -55c-47 12 -92 17 -136 17c-98 0 -138 -30 -146 -99l-25 -206c-9 -66 22 -100 120 -100c44 0 91 10 141 23l-8 -56c-49 -12 -95 -18 -143 -18l-8 -25h14c65 -4 73 -42 67 -77 c-9 -46 -53 -62 -92 -64c-31 -1 -53 3 -78 9l3 27c28 -7 52 -11 79 -10c33 1 56 15 61 41c2 12 4 47 -48 47h-45l18 52h-1z" />
<glyph unicode="&#xe8;" horiz-adv-x="479" d="M93 165c-9 -84 17 -124 114 -124c49 0 105 10 155 22l-6 -50c-46 -14 -105 -23 -159 -23c-137 0 -172 71 -159 177l19 153c12 100 67 177 204 177s167 -77 155 -177l-12 -94h-303zM113 322l-5 -44h246l5 44c9 76 -13 125 -104 125s-133 -49 -142 -125zM201 619l8 63 l132 -97l-7 -63z" />
<glyph unicode="&#xe9;" horiz-adv-x="479" d="M93 165c-9 -84 17 -124 114 -124c49 0 105 10 155 22l-6 -50c-46 -14 -105 -23 -159 -23c-137 0 -172 71 -159 177l19 153c12 100 67 177 204 177s167 -77 155 -177l-12 -94h-303zM113 322l-5 -44h246l5 44c9 76 -13 125 -104 125s-133 -49 -142 -125zM354 682l-8 -63 l-157 -97l7 63z" />
<glyph unicode="&#xea;" horiz-adv-x="479" d="M94 165c-9 -84 18 -124 115 -124c49 0 104 10 153 22l-5 -50c-46 -14 -105 -23 -159 -23c-137 0 -172 71 -159 177l19 153c12 100 67 177 204 177s167 -77 155 -177l-12 -94h-303zM114 322l-6 -44h246l6 44c9 76 -14 125 -105 125s-132 -49 -141 -125zM272 612l-111 -63 l7 54l111 67l96 -69l-6 -53z" />
<glyph unicode="&#xeb;" horiz-adv-x="479" d="M99 165c-10 -84 17 -124 114 -124c49 0 105 10 155 22l-7 -50c-45 -14 -105 -23 -159 -23c-137 0 -171 71 -159 177l19 153c13 100 67 177 204 177s168 -77 155 -177l-11 -94h-303zM119 322l-6 -44h246l6 44c9 76 -14 125 -105 125s-132 -49 -141 -125zM157 566 c-1 17 12 30 29 30s29 -13 30 -30c0 -17 -13 -29 -30 -29s-29 12 -29 29zM329 566c-1 17 12 30 29 30s29 -13 30 -30c0 -17 -13 -29 -30 -29s-29 12 -29 29z" />
<glyph unicode="&#xec;" horiz-adv-x="228" d="M99 0h-58l61 487h58zM76 619l8 63l133 -97l-9 -63z" />
<glyph unicode="&#xed;" horiz-adv-x="228" d="M99 0h-58l61 487h58zM229 682l-8 -63l-158 -97l9 63z" />
<glyph unicode="&#xee;" horiz-adv-x="228" d="M100 0h-58l61 487h58zM146 612l-111 -63l7 54l112 67l96 -69l-7 -53z" />
<glyph unicode="&#xef;" horiz-adv-x="228" d="M105 0h-58l61 487h58zM31 566c0 17 12 30 29 30s30 -13 30 -30s-13 -29 -30 -29s-29 12 -29 29zM203 566c0 17 12 30 29 30s30 -13 30 -30s-13 -29 -30 -29s-29 12 -29 29z" />
<glyph unicode="&#xf1;" horiz-adv-x="521" d="M417 0h-58l47 378c12 96 -198 63 -260 40l-51 -418h-56l57 463c70 21 392 105 367 -90zM291 568c-39 19 -69 27 -112 -10l-22 29c40 48 89 58 140 33c35 -16 66 -29 106 7l26 -26c-38 -51 -88 -57 -138 -33z" />
<glyph unicode="&#xf2;" horiz-adv-x="498" d="M189 -13c-136 3 -178 82 -167 183l18 141c12 100 76 180 214 183h23c136 -3 180 -83 168 -183l-18 -141c-12 -101 -75 -180 -213 -183h-25zM194 41h31c85 2 136 42 146 125l19 147c9 81 -31 125 -116 127h-31c-85 -2 -137 -46 -146 -127l-19 -147 c-10 -83 31 -123 116 -125zM211 619l7 63l133 -97l-7 -63z" />
<glyph unicode="&#xf3;" horiz-adv-x="498" d="M189 -13c-136 3 -178 82 -167 183l18 141c12 100 76 180 214 183h23c136 -3 180 -83 168 -183l-18 -141c-12 -101 -75 -180 -213 -183h-25zM194 41h31c85 2 136 42 146 125l19 147c9 81 -31 125 -116 127h-31c-85 -2 -137 -46 -146 -127l-19 -147 c-10 -83 31 -123 116 -125zM363 682l-7 -63l-157 -97l7 63z" />
<glyph unicode="&#xf4;" horiz-adv-x="498" d="M189 -13c-136 3 -177 82 -165 183l16 141c13 100 77 180 215 183h23c136 -3 180 -83 167 -183l-16 -141c-13 -101 -77 -180 -215 -183h-25zM195 41h31c84 2 135 42 146 125l18 147c10 81 -30 125 -115 127h-31c-85 -2 -137 -46 -147 -127l-18 -147 c-11 -83 30 -123 116 -125zM282 612l-111 -63l7 54l112 67l96 -69l-7 -53z" />
<glyph unicode="&#xf5;" horiz-adv-x="498" d="M191 -13c-136 3 -179 82 -166 183l18 141c12 100 75 180 213 183h23c136 -3 181 -83 169 -183l-18 -141c-13 -101 -76 -180 -214 -183h-25zM196 41h31c85 2 136 42 146 125l19 147c9 81 -31 125 -116 127h-31c-85 -2 -137 -46 -146 -127l-19 -147 c-10 -83 31 -123 116 -125zM280 568c-39 19 -68 27 -111 -10l-23 29c41 48 90 58 141 33c34 -16 66 -29 105 7l27 -26c-39 -51 -88 -57 -139 -33z" />
<glyph unicode="&#xf6;" horiz-adv-x="498" d="M194 -13c-137 3 -179 82 -166 183l17 141c13 100 77 180 214 183h23c137 -3 181 -83 168 -183l-17 -141c-13 -101 -77 -180 -214 -183h-25zM199 41h31c86 2 136 42 146 125l18 147c11 81 -30 125 -114 127h-31c-86 -2 -137 -46 -148 -127l-18 -147 c-10 -83 32 -123 116 -125zM166 566c-1 17 12 30 29 30s29 -13 30 -30c0 -17 -13 -29 -30 -29s-29 12 -29 29zM338 566c-1 17 12 30 29 30s29 -13 30 -30c0 -17 -13 -29 -30 -29s-29 12 -29 29z" />
<glyph unicode="&#xf9;" horiz-adv-x="521" d="M102 487l57 -1l-46 -377c-12 -96 199 -63 261 -40l51 418h55l-57 -463c-70 -21 -392 -105 -367 90zM227 619l8 63l133 -97l-8 -63z" />
<glyph unicode="&#xfa;" horiz-adv-x="521" d="M102 487l57 -1l-46 -377c-12 -96 199 -63 261 -40l51 418h55l-57 -463c-70 -21 -392 -105 -367 90zM380 682l-8 -63l-157 -97l8 63z" />
<glyph unicode="&#xfb;" horiz-adv-x="521" d="M102 487l57 -1l-46 -377c-12 -96 200 -63 261 -40l51 418h55l-56 -463c-70 -21 -392 -105 -367 90zM297 612l-111 -63l7 54l112 67l96 -69l-7 -53z" />
<glyph unicode="&#xfc;" horiz-adv-x="521" d="M107 487l58 -1l-48 -377c-12 -96 200 -63 261 -40l52 418h55l-57 -463c-69 -21 -391 -105 -367 90zM182 566c-1 17 12 30 29 30s29 -13 30 -30c0 -17 -13 -29 -30 -29s-29 12 -29 29zM354 566c-1 17 12 30 29 30s29 -13 30 -30c0 -17 -13 -29 -30 -29s-29 12 -29 29z" />
<glyph unicode="&#x15f;" horiz-adv-x="433" d="M193 -63h-45l19 57c-50 1 -98 8 -133 17l7 55c40 -13 90 -21 153 -22c62 1 121 25 130 85c8 56 -14 91 -90 92c-116 1 -181 25 -165 147c8 52 52 125 177 127c49 0 106 -1 150 -9l-7 -56c-42 8 -83 13 -142 13c-54 0 -109 -23 -118 -74c-15 -92 35 -92 118 -95 c149 -5 142 -117 136 -144c-14 -92 -88 -133 -180 -136h-7l-9 -30h14c65 -4 74 -42 68 -77c-9 -46 -53 -62 -93 -64c-31 -1 -52 3 -77 9l3 27c27 -7 52 -11 79 -10c32 1 56 15 60 41c2 12 4 47 -48 47z" />
<glyph unicode="&#xff;" horiz-adv-x="491" d="M56 146l42 341h57l-42 -338c-17 -137 130 -106 239 -90l52 428h57l-66 -535c-13 -104 -65 -158 -204 -158c-49 0 -105 10 -148 24l7 56c37 -12 95 -27 142 -27c79 0 136 21 143 82l10 74c-145 -23 -310 -24 -289 143zM175 566c-1 17 11 30 28 30s30 -13 31 -30 c0 -17 -13 -29 -30 -29s-29 12 -29 29zM347 566c-1 17 11 30 28 30s30 -13 31 -30c0 -17 -13 -29 -30 -29s-29 12 -29 29z" />
<glyph unicode="&#xe6;" horiz-adv-x="790" d="M48 142l1 13c21 167 181 166 320 143l8 63c8 61 -40 82 -119 82c-47 0 -109 -15 -149 -27l7 58c46 14 105 24 154 24c84 0 131 -20 152 -59c33 36 82 58 155 58c137 0 168 -77 155 -177l-11 -94h-300l-13 -101c3 -57 36 -84 116 -84c49 0 105 10 155 22l-7 -50 c-45 -14 -104 -23 -158 -23s-93 11 -119 31l-1 -7c-168 -31 -372 -73 -346 128zM363 243c-105 16 -238 47 -255 -90l-2 -8c-16 -137 126 -106 233 -90zM435 340l-8 -62h243l6 44c9 76 -13 125 -104 125c-78 0 -120 -35 -137 -93c0 -5 1 -9 0 -14z" />
<glyph unicode="&#x17d;" horiz-adv-x="576" d="M522 613l-434 -560h371l-6 -53h-435l5 53l433 560h-353l6 53h419zM235 845l96 -63l112 64l-6 -53l-113 -69l-96 67z" />
<glyph unicode="&#xfd;" horiz-adv-x="491" d="M50 146l42 341h57l-41 -338c-17 -137 130 -106 238 -90l52 428h57l-66 -535c-12 -104 -65 -158 -204 -158c-49 0 -105 10 -147 24l7 56c36 -12 95 -27 142 -27c79 0 135 21 143 82l9 74c-145 -23 -309 -24 -289 143zM372 682l-7 -63l-157 -97l7 63z" />
<glyph unicode="&#xdd;" horiz-adv-x="543" d="M104 666l145 -402l246 402h61l-284 -461l-25 -205h-59l25 205l-170 461h61zM396 861l-8 -63l-157 -97l8 63z" />
<glyph unicode="&#x160;" horiz-adv-x="544" d="M257 -7c-79 -3 -155 4 -238 14l6 56c73 -12 131 -19 220 -15c102 5 142 67 149 126c10 78 -13 138 -114 138h-36c-163 0 -179 90 -169 174c13 101 62 186 209 192c47 1 139 -4 210 -15l-8 -58c-83 11 -112 19 -201 17c-74 -2 -136 -30 -149 -137c-8 -81 21 -116 118 -116 h36c145 0 177 -102 166 -190c-9 -73 -58 -176 -199 -186zM220 845l95 -63l113 64l-6 -53l-115 -69l-94 67z" />
<glyph unicode="&#x152;" horiz-adv-x="921" d="M216 1c-137 3 -179 82 -167 183l38 298c11 100 76 180 213 183l587 1l-6 -53h-316l-31 -247h294l-6 -53h-294l-33 -260h317l-6 -53h-376v1h-214zM106 180c-11 -83 30 -123 114 -125h216l70 556h-216c-86 -2 -138 -46 -147 -127z" />
<glyph unicode="&#x2c7;" horiz-adv-x="397" d="M102 666l96 -63l112 64l-6 -53l-113 -69l-95 67z" />
<glyph unicode="&#x2d8;" horiz-adv-x="386" d="M288 641l30 -30c-26 -31 -71 -68 -132 -68s-98 37 -114 68l36 30c19 -30 47 -53 84 -53s71 23 96 53z" />
<glyph unicode="&#x2da;" horiz-adv-x="270" d="M198 605c0 -35 -24 -64 -65 -64s-65 29 -65 64c1 36 25 63 66 63s65 -27 64 -63zM164 605c0 20 -10 34 -30 34s-33 -14 -33 -34c0 -19 13 -34 33 -34s30 15 30 34z" />
</font>
</defs>
</svg>
