<?xml version="1.0" standalone="no"?>
<!DOCTYPE svg PUBLIC "-//W3C//DTD SVG 1.1//EN" "http://www.w3.org/Graphics/SVG/1.1/DTD/svg11.dtd" >
<svg xmlns="http://www.w3.org/2000/svg" xmlns:xlink="http://www.w3.org/1999/xlink" version="1.1">
<metadata></metadata>
<defs>
<font id="deria_sansmedium_italic" horiz-adv-x="1075" >
<font-face units-per-em="2048" ascent="1638" descent="-410" />
<missing-glyph horiz-adv-x="430" />
<glyph horiz-adv-x="0" />
<glyph horiz-adv-x="682" />
<glyph unicode=" "  horiz-adv-x="430" />
<glyph unicode="&#x09;" horiz-adv-x="430" />
<glyph unicode="&#xa0;" horiz-adv-x="430" />
<glyph unicode="!" horiz-adv-x="581" d="M92 127q0 54 37.5 92.5t91.5 38.5t92.5 -38.5t38.5 -92.5t-38.5 -91.5t-92.5 -37.5t-91.5 37.5t-37.5 91.5zM131 412l117 950h250l-117 -950h-250z" />
<glyph unicode="&#x22;" horiz-adv-x="792" d="M90 899l64 506h178l-64 -506h-178zM459 899l63 506h178l-63 -506h-178z" />
<glyph unicode="#" horiz-adv-x="1200" d="M23 346l38 172h185l63 305h-184l35 172h184l78 367h172l-78 -367h281l77 367h173l-78 -367h194l-35 -172h-194l-64 -305h195l-39 -172h-195l-71 -346h-172l71 346h-280l-72 -346h-172l72 346h-184zM418 518h280l64 305h-281z" />
<glyph unicode="$" d="M16 12l27 215q26 -4 94.5 -14t105.5 -15t94 -9.5t107 -4.5q28 0 45.5 0.5t52 4.5t57.5 12t53.5 24t50 38t35.5 57.5t22 80.5q2 48 -10.5 83t-34 55.5t-57 32.5t-71 16t-83.5 4q-90 2 -158 17t-110.5 41t-70.5 62t-38 79t-12 92.5t6 103.5q11 89 38.5 158t76 124.5 t127.5 87.5t186 38l16 137h205l-16 -141q138 -9 266 -29l-27 -211q-239 35 -399 35q-112 0 -170.5 -49t-73.5 -152q-3 -47 2.5 -80.5t22 -54t34 -32.5t49 -17t55 -6.5t65 -3t67.5 -3.5q98 -8 167 -34.5t105.5 -66t56 -90t18.5 -108t-7 -120.5q-19 -150 -117 -255t-288 -130 l-21 -174h-205l21 172q-69 3 -193 15t-166 15z" />
<glyph unicode="%" horiz-adv-x="1855" d="M121 862l29 232q14 132 101 214t249 85h45q158 -3 224.5 -85t51.5 -214l-28 -232q-16 -133 -103 -214.5t-248 -84.5h-45q-160 3 -226 84t-50 215zM315 887q-7 -66 21 -98t94 -35h25q133 6 147 133l23 184q15 128 -115 131h-25q-132 -3 -147 -131zM494 -4l667 1370h187 l-668 -1370h-186zM1030 289l29 231q16 132 103 214t247 85h45q160 -3 226.5 -85t50.5 -214l-29 -231q-16 -133 -102 -214.5t-248 -84.5h-45q-159 3 -226 84.5t-51 214.5zM1227 311q-15 -128 114 -131h25q132 3 147 131l23 185q15 127 -115 133h-24q-133 -6 -148 -133z" />
<glyph unicode="&#x26;" horiz-adv-x="1449" d="M53 326l13 106q23 196 163 295q-72 86 -55 244l10 84q10 79 40.5 144.5t82.5 117t132.5 81.5t183.5 32h82q102 -2 175 -32t112 -81.5t53 -117t4 -144.5l-11 -84q-19 -174 -131 -269q94 -99 72 -270l-14 -110h-226l13 94q11 83 -26.5 129.5t-119.5 50.5h-114 q-89 -1 -140.5 -47.5t-62.5 -132.5l-8 -74q-21 -176 157 -182h457q182 6 203 182l20 170h225l-22 -186q-22 -167 -129.5 -269t-308.5 -106h-486q-102 2 -175 31.5t-112.5 81t-53 117t-3.5 145.5zM401 987q-18 -171 146 -180h78q172 9 190 180l6 51q11 87 -28.5 133.5 t-128.5 47.5h-52q-182 -3 -204 -181z" />
<glyph unicode="'" horiz-adv-x="423" d="M90 899l64 506h178l-64 -506h-178z" />
<glyph unicode="(" horiz-adv-x="686" d="M143 623q56 454 338 827h262q-163 -220 -251 -407t-115 -420q-29 -233 13.5 -421t152.5 -411l-4 -2h-256q-198 364 -140 834z" />
<glyph unicode=")" horiz-adv-x="686" d="M-59 -209q108 148 176 264.5t120 262t72 305.5q27 229 -14 414t-148 405h263q189 -367 133 -819q-56 -460 -346 -834h-254z" />
<glyph unicode="*" horiz-adv-x="1028" d="M135 956l227 121l-196 121l84 121l196 -123l29 244h137l-28 -244l225 123l55 -121l-223 -121l193 -121l-84 -120l-197 120l-29 -241h-137l29 241l-226 -120z" />
<glyph unicode="+" d="M137 399v197h297v305h207v-305h297v-197h-297v-303h-207v303h-297z" />
<glyph unicode="," horiz-adv-x="561" d="M131 141q0 61 43.5 104.5t104.5 43.5q62 0 105.5 -43.5t43.5 -104.5q-2 -4 0 -12.5t-4 -38.5t-14.5 -64.5t-31 -92t-54.5 -119.5h-99l72 182q-6 -2 -18 -2q-62 0 -105 43t-43 104z" />
<glyph unicode="-" horiz-adv-x="761" d="M109 469l26 209h516l-26 -209h-516z" />
<glyph unicode="." horiz-adv-x="561" d="M133 141q-1 61 41.5 104.5t104.5 43.5q61 0 104 -43t45 -105q-2 -62 -45 -104.5t-104 -42.5q-62 0 -104.5 43t-41.5 104z" />
<glyph unicode="/" horiz-adv-x="940" d="M102 0l592 1362h228l-594 -1362h-226z" />
<glyph unicode="0" horiz-adv-x="1146" d="M59 379l76 610q10 82 40.5 149t84.5 120t140 83t198 31h121q112 -1 190 -31t119 -83.5t55 -120t4 -148.5l-75 -610q-10 -82 -40.5 -149t-84.5 -120t-140 -83t-198 -31h-121q-112 1 -190.5 31t-119 83.5t-55 120t-4.5 148.5zM291 406q-12 -99 29.5 -147t152.5 -48h84 q111 0 165 48t66 147l68 557q12 98 -29.5 146t-152.5 48h-84q-111 0 -165.5 -48t-66.5 -146z" />
<glyph unicode="1" horiz-adv-x="966" d="M260 1055l29 229l258 80h225l-166 -1366h-250l138 1122z" />
<glyph unicode="2" horiz-adv-x="1118" d="M12 -2l43 328q8 68 22.5 121t46 107t78.5 91t122.5 64.5t175.5 35.5q26 2 67.5 3.5t65.5 3t56.5 6.5t52.5 17t41.5 32.5t35 54t21.5 80.5q11 103 -35.5 152t-159.5 49q-156 0 -407 -35l26 211q231 35 426 35q122 0 204 -29.5t123 -86t53 -128t1 -166.5 q-9 -70 -24.5 -123.5t-49.5 -105.5t-84.5 -86t-131.5 -56t-189 -24q-61 0 -105.5 -7t-88 -26.5t-71.5 -59t-40 -98.5l-17 -143h684l-26 -217h-916z" />
<glyph unicode="3" d="M84 63l27 197q164 -53 313 -53q61 1 101 8t76.5 26t57 57.5t27.5 98.5q13 109 -30.5 146t-180.5 37h-244l25 200h238q141 0 195 35.5t67 142.5q7 61 -6 101.5t-45.5 60.5t-71 27.5t-92.5 7.5q-148 0 -326 -53l23 198q200 62 364 62q98 0 170.5 -18.5t116.5 -53 t69.5 -83.5t29 -110.5t-4.5 -133.5q-22 -199 -143 -283q53 -44 69.5 -111.5t5.5 -167.5q-12 -95 -41.5 -164.5t-84 -124t-143 -82.5t-210.5 -28q-171 0 -352 61z" />
<glyph unicode="4" d="M-14 184l24 228l588 950h350l-119 -969h158l-24 -209h-158l-23 -184h-241l22 184h-577zM260 393h328l86 692z" />
<glyph unicode="5" d="M82 27l24 196q134 -28 308 -28q118 0 168.5 40.5t60.5 118.5l12 105q10 81 -20.5 115t-138.5 40q-140 7 -328 7l88 729h719l-25 -203h-485l-41 -330q128 -4 205 -8q80 -4 137 -31t86 -69.5t39 -91.5t4 -105l-21 -172q-8 -62 -26.5 -112.5t-54.5 -95.5t-88.5 -75.5 t-132 -48.5t-181.5 -18q-158 0 -309 37z" />
<glyph unicode="6" d="M92 344l68 551q27 229 159.5 345t354.5 116q161 0 303 -51l-25 -203q-113 55 -264 55q-146 0 -211.5 -60.5t-83.5 -201.5l-14 -111q119 37 252 37q178 0 253.5 -81.5t53.5 -254.5l-12 -104q-11 -91 -36 -156.5t-75.5 -121.5t-138 -84.5t-211.5 -28.5q-118 0 -198 26 t-120 75.5t-52.5 111t-2.5 141.5zM326 350q-10 -89 26.5 -123t136.5 -34q104 0 147 35t54 122l17 129q9 76 -23 107.5t-111 31.5q-125 0 -219 -43z" />
<glyph unicode="7" d="M94 0l676 1143h-600l27 215h862l-27 -213l-680 -1145h-258z" />
<glyph unicode="8" d="M66 377l2 6q23 198 170 299q-122 96 -99 301l2 6q20 165 130.5 268t314.5 107h59q105 -2 180.5 -32t116 -81.5t55 -117t4.5 -144.5l-2 -6q-23 -202 -174 -301q126 -100 103 -299l-2 -6q-20 -166 -130.5 -268.5t-316.5 -106.5h-59q-204 4 -289 106.5t-65 268.5zM289 373 q-11 -87 30.5 -135t129.5 -48h47q90 0 141.5 47.5t62.5 135.5l2 14q11 86 -29.5 133t-129.5 47h-47q-88 0 -141 -47t-64 -133zM362 977q-11 -86 30.5 -133t129.5 -47h47q90 0 142 47t63 133l2 18q11 85 -30 133t-130 48h-47q-88 0 -140.5 -48t-63.5 -133z" />
<glyph unicode="9" d="M117 41l24 203q115 -56 265 -56q146 0 211 61t83 202l15 110q-119 -37 -252 -37q-178 0 -253.5 81.5t-53.5 254.5l12 105q11 91 36 156.5t75.5 121.5t138 84.5t211.5 28.5q95 0 165.5 -17.5t112.5 -49t67 -76t29 -98t-2 -114.5l-67 -550q-27 -229 -159.5 -345 t-354.5 -116q-161 0 -303 51zM387 866q-9 -76 23 -107.5t110 -31.5q125 0 219 43l29 225q10 89 -27 123.5t-137 34.5q-104 0 -147 -35.5t-54 -122.5z" />
<glyph unicode=":" horiz-adv-x="561" d="M131 141q0 61 43.5 104.5t104.5 43.5t104 -43t43 -105q0 -61 -43 -104t-104 -43q-62 0 -105 43t-43 104zM213 846q0 62 42.5 104.5t104.5 42.5t105 -43t43 -104q0 -62 -43 -105t-105 -43q-61 0 -104 43t-43 105z" />
<glyph unicode=";" horiz-adv-x="587" d="M131 141q0 61 43.5 104.5t104.5 43.5q62 0 105.5 -43.5t43.5 -104.5q-2 -4 0 -12.5t-4 -38.5t-14.5 -64.5t-31 -92t-54.5 -119.5h-99l72 182q-6 -2 -18 -2q-62 0 -105 43t-43 104zM221 844q0 61 43 104t105 43q61 0 104 -42.5t43 -104.5t-43 -105t-104 -43t-104.5 43 t-43.5 105z" />
<glyph unicode="&#x3c;" horiz-adv-x="1024" d="M111 449l16 135l809 448l-27 -201l-579 -315l504 -315l-27 -203z" />
<glyph unicode="=" d="M131 233l21 173h743l-21 -173h-743zM178 618l21 173h743l-20 -173h-744z" />
<glyph unicode="&#x3e;" horiz-adv-x="1024" d="M94 0l25 201l579 315l-503 315l24 199l699 -446l-17 -135z" />
<glyph unicode="?" horiz-adv-x="1073" d="M137 106q0 47 34 81t81 34t81 -34t34 -81t-34 -80.5t-81 -33.5t-81 33.5t-34 80.5zM178 1147l25 211q235 35 426 35q122 0 204 -29.5t123 -86t53 -128t1 -166.5q-9 -71 -24.5 -124t-49.5 -105t-84.5 -86t-132 -56t-189.5 -24l-118 -2l-27 -226h-201l49 422l205 2 q26 2 67.5 3.5t65.5 3t56.5 6.5t53 17t42 32.5t35 54t22.5 80.5q9 103 -36.5 152t-157.5 49q-161 0 -408 -35z" />
<glyph unicode="@" horiz-adv-x="1959" d="M53 94l121 996q23 190 260 312q227 117 561 137q327 20 581 -64q254 -83 320 -240q28 -67 19 -143l-76 -619q-16 -115 -57 -193.5t-94.5 -116t-123 -50t-135 -3.5t-137.5 33q-38 -11 -86.5 -21.5t-114.5 -21.5t-130.5 -14t-131.5 -1t-122.5 19.5t-97.5 46.5t-62 80 t-12 119l57 471q10 83 56.5 140.5t111.5 84t147.5 37t161.5 5t157 -19t130.5 -27t85.5 -25.5l-84 -678q21 -10 43 -16.5t50 -10t53 4t48 24.5t39.5 54t22.5 89l74 596q14 111 -161 181q-181 73 -465 73q-290 -1 -480 -77q-170 -68 -183 -177l-118 -968q-2 -73 69 -130 t187 -87t253.5 -40.5t280 5t254.5 53.5l-27 -211q-132 -38 -281 -52t-290.5 -4t-270 45t-222 89.5t-143.5 136t-38 178.5zM772 399q-5 -53 31.5 -81t96.5 -29.5t116.5 7t107.5 23.5l66 533q-48 16 -103.5 24t-116 6t-103.5 -31t-50 -85z" />
<glyph unicode="A" horiz-adv-x="1245" d="M43 -2l119 981q22 172 134 276t329 107h159q112 -1 190.5 -31t119 -83.5t54.5 -119.5q8 -37 8 -80q0 -33 -5 -69l-119 -981h-227l72 596h-535l-72 -596h-227zM369 807h534l19 145q2 20 2 38q0 70 -34 108q-42 48 -151 49h-123q-111 0 -164.5 -48.5t-64.5 -146.5z" />
<glyph unicode="B" horiz-adv-x="1181" d="M70 0l166 1364h536q188 0 267 -74q64 -61 65 -167q0 -24 -4 -50l-19 -141q-9 -84 -51.5 -135.5t-126.5 -85.5q92 -20 136 -86q35 -52 35 -125q0 -20 -3 -41l-18 -146q-18 -148 -122.5 -230.5t-287.5 -82.5h-573zM352 213h264q89 0 131.5 29.5t51.5 103.5l14 103 q2 15 2 28q0 49 -24 75q-30 34 -105 34h-287zM424 793h246q137 0 153 127l15 120q2 12 2 23q0 40 -24 61q-30 27 -99 27h-248z" />
<glyph unicode="C" horiz-adv-x="1069" d="M74 375l76 614q49 395 534 395q181 0 381 -45l-29 -229q-223 41 -372 41q-131 0 -190 -48t-73 -159l-63 -524q-3 -26 -3 -48q0 -74 35 -111q46 -48 177 -48q142 0 385 43l-29 -231q-225 -45 -393 -45q-248 0 -354 101q-86 82 -86 226q0 32 4 68z" />
<glyph unicode="D" horiz-adv-x="1236" d="M70 0l166 1364h507q122 0 208.5 -29t131.5 -81t61 -116q10 -40 11 -85q0 -27 -4 -56l-76 -630q-10 -77 -42 -140.5t-89 -115.5t-150.5 -81.5t-215.5 -29.5h-508zM354 227h224q125 0 178.5 48.5t66.5 152.5l64 508q3 24 3 46q0 70 -32 106q-42 48 -168 49h-223z" />
<glyph unicode="E" horiz-adv-x="1101" d="M72 0l166 1364h833l-27 -227h-577l-41 -324h532l-26 -227h-533l-45 -365h578l-27 -221h-833z" />
<glyph unicode="F" horiz-adv-x="1101" d="M72 0l166 1364h841l-26 -227h-586l-41 -324h541l-27 -227h-541l-71 -586h-256z" />
<glyph unicode="G" horiz-adv-x="1196" d="M86 391l72 582q26 211 164.5 311t404.5 100q186 0 389 -49l-29 -229q-207 45 -409 45q-131 0 -192.5 -52.5t-73.5 -160.5l-64 -516q-3 -23 -3 -43q0 -73 37 -115q48 -53 177 -53q101 0 213 16l47 373h-231l24 203h475l-94 -762q-219 -61 -465 -61q-249 0 -358 104 q-89 84 -89 234q0 35 5 73z" />
<glyph unicode="H" horiz-adv-x="1329" d="M70 0l166 1364h258l-68 -561h506l67 561h258l-165 -1364h-258l69 575h-506l-69 -575h-258z" />
<glyph unicode="I" horiz-adv-x="585" d="M80 0l166 1364h258l-166 -1364h-258z" />
<glyph unicode="J" horiz-adv-x="940" d="M-8 -2l24 215h328q111 0 164.5 48.5t64.5 146.5l91 739h-345l27 215h572l-119 -981q-22 -172 -134 -276t-329 -107h-344z" />
<glyph unicode="K" horiz-adv-x="1239" d="M70 0l166 1364h258l-80 -662l547 662h286l-559 -674l422 -690h-287l-413 678l-82 -678h-258z" />
<glyph unicode="L" horiz-adv-x="1034" d="M70 0l166 1364h258l-140 -1137h561l-26 -227h-819z" />
<glyph unicode="M" horiz-adv-x="1587" d="M53 0l168 1364h324l203 -1042l458 1042h326l-166 -1364h-233l112 932l-399 -907h-268l-177 907l-112 -932h-236z" />
<glyph unicode="N" horiz-adv-x="1421" d="M70 0l166 1364h344l391 -1036l127 1036h252l-166 -1364h-344l-391 1034l-127 -1034h-252z" />
<glyph unicode="O" horiz-adv-x="1277" d="M84 373l76 620q22 172 134 276t329 107h200q217 -4 304 -108q69 -83 69 -209q0 -32 -4 -66l-76 -620q-22 -172 -134 -276t-329 -107h-200q-217 4 -304 108q-69 83 -69 209q0 31 4 66zM313 399q-2 -20 -2 -38q-1 -70 33 -108q42 -48 154 -48h164q111 0 164.5 48t64.5 146 l72 568q2 20 2 38q1 70 -33 108q-42 48 -154 48h-164q-111 0 -164.5 -48t-64.5 -146z" />
<glyph unicode="P" horiz-adv-x="1179" d="M70 0l166 1364h532q230 0 320 -92q72 -73 72 -204q0 -35 -5 -73l-22 -186q-22 -183 -139.5 -275t-350.5 -92h-262l-53 -442h-258zM410 670h260q106 0 152 39t57 127l16 139q2 20 2 37q-1 58 -29 87q-38 38 -141 38h-260z" />
<glyph unicode="Q" horiz-adv-x="1277" d="M90 373l76 620q22 172 134 276t329 107h200q217 -3 304 -108q69 -83 69 -209q0 -31 -4 -66l-76 -620q-16 -116 -69 -201l125 -141l-152 -135l-127 143q-93 -46 -240 -49h-200q-217 3 -304 108q-69 83 -69 209q0 31 4 66zM319 399q-2 -20 -2 -38q0 -70 33 -108 q43 -48 154 -48h164q111 0 164.5 48t64.5 146l70 568q3 22 3 41q0 68 -33 105q-42 48 -153 48h-163q-111 0 -165.5 -48t-66.5 -146z" />
<glyph unicode="R" horiz-adv-x="1331" d="M70 0l166 1364h559q233 0 323 -92q72 -73 71 -204q0 -35 -5 -73l-21 -178q-31 -257 -245 -330l278 -487h-309l-258 451h-246l-55 -451h-258zM410 674h290q104 0 150 39t57 127l17 135q2 20 2 37q0 60 -28 88q-38 38 -140 37h-291z" />
<glyph unicode="S" horiz-adv-x="1105" d="M14 12l27 215q26 -4 94.5 -14t105.5 -15t94 -9.5t107 -4.5q28 0 45.5 0.5t52 4.5t57.5 12t53.5 24t50 38t35.5 57.5t22 80.5v13q0 40 -10 70q-12 35 -34 55.5t-57.5 32.5t-71 16t-83.5 4q-90 2 -158 17t-110.5 41t-70.5 62t-38 79t-12 93v19q0 40 6 84q10 76 30 136 t57 112.5t89.5 87t129.5 54.5t175 20q194 0 418 -35l-27 -211q-239 35 -399 35q-112 0 -170.5 -49t-73.5 -152q-1 -17 -1 -31q-1 -28 3 -50q6 -34 22.5 -54t34 -32t49 -17t55 -6.5t65 -3t67.5 -3.5q98 -8 167 -34.5t105.5 -66t56.5 -89.5q19 -48 18 -103v-5q-1 -58 -7 -121 q-8 -63 -29 -118.5t-61.5 -106.5t-96.5 -87.5t-139 -58t-184 -21.5q-94 0 -269 17t-190 18z" />
<glyph unicode="T" horiz-adv-x="1122" d="M106 1137l27 227h1020l-27 -227h-381l-139 -1137h-258l139 1137h-381z" />
<glyph unicode="U" horiz-adv-x="1294" d="M84 373l123 991h227l-119 -965q-3 -22 -3 -41q0 -68 33 -105q42 -48 153 -48h164q111 0 165 48t66 146l119 965h227l-123 -991q-10 -82 -40 -148.5t-84 -120t-140.5 -83.5t-198.5 -31h-200q-111 1 -189.5 31t-119.5 83q-42 54 -56 120q-9 39 -8 85q0 31 4 64z" />
<glyph unicode="V" horiz-adv-x="1228" d="M98 1364h269l190 -1137l469 1137h268l-573 -1364h-381z" />
<glyph unicode="W" horiz-adv-x="1896" d="M111 1362h235l139 -1092l406 1092h283l139 -1092l401 1092h236l-506 -1362h-326l-123 1055l-383 -1055h-323z" />
<glyph unicode="X" horiz-adv-x="1181" d="M-31 0l484 694l-303 668h274l197 -430l299 430h274l-467 -668l317 -694h-274l-209 457l-319 -457h-273z" />
<glyph unicode="Y" horiz-adv-x="1159" d="M92 1364h275l211 -688l378 688h275l-559 -969l-47 -395h-258l47 395z" />
<glyph unicode="Z" horiz-adv-x="1177" d="M49 0l27 217l743 928h-606l27 219h890l-26 -219l-739 -926h632l-26 -219h-922z" />
<glyph unicode="[" horiz-adv-x="671" d="M57 -258l232 1876h436l-27 -205h-186l-178 -1466h186l-26 -205h-437z" />
<glyph unicode="\" horiz-adv-x="940" d="M180 1362h228l260 -1362h-226z" />
<glyph unicode="]" horiz-adv-x="671" d="M-53 -258l26 205h185l178 1466h-186l26 205h436l-231 -1876h-434z" />
<glyph unicode="^" horiz-adv-x="972" d="M59 858l371 547h174l238 -547h-207l-143 338l-230 -338h-203z" />
<glyph unicode="_" horiz-adv-x="899" d="M-8 -152l12 132h903l-14 -132h-901z" />
<glyph unicode="`" horiz-adv-x="643" d="M78 1440h172l123 -320h-176z" />
<glyph unicode="a" horiz-adv-x="1005" d="M80 291l2 16q12 96 49 163t89 102q52 36 126 50q62 12 124 12h26q76 -3 172 -18l6 64q2 15 2 29q0 53 -32 83q-34 31 -128 32q-16 0 -33 -1q-134 -8 -282 -51l24 201q162 47 328 47q217 0 297 -79q63 -63 63 -180q0 -31 -4 -65l-82 -667q-265 -46 -370 -52q-29 -2 -56 -2 q-219 0 -289 109q-36 56 -36 145q0 29 4 62zM313 285q-3 -26 1.5 -46.5t13 -34.5t26 -23t33.5 -14t41.5 -6t44.5 0t48 5t47 7.5t46 8.5l31 242q-35 7 -58 11t-59 7.5t-60.5 2t-53.5 -8.5t-47 -21t-32 -38t-18 -58z" />
<glyph unicode="b" horiz-adv-x="1081" d="M72 29l164 1335h231l-45 -369q102 17 180 23q25 2 50 1q54 0 106 -8q78 -12 126 -45q48 -34 72 -100q16 -45 17 -103q0 -29 -4 -61l-51 -411q-8 -65 -29.5 -116t-53 -86t-74 -58.5t-90 -35.5t-104.5 -16q-33 -2 -65 -2q-24 0 -48 1q-56 3 -120.5 10.5t-123 17 t-122.5 20.5q-11 2 -16 3zM324 207q131 -24 195 -23h17q140 9 156 138l43 350q2 14 2 26q0 22 -6 40q-9 28 -25.5 43t-46.5 22.5t-57 8.5h-9q-25 0 -59 -4q-42 -5 -69.5 -10t-69.5 -14z" />
<glyph unicode="c" horiz-adv-x="901" d="M80 362l35 273q25 203 135 293t342 90q59 0 143 -8t137 -25l-26 -213q-44 16 -130.5 23.5t-144.5 7.5q-106 0 -150.5 -36.5t-55.5 -129.5l-35 -277q-3 -22 -3 -41q-1 -61 27 -88q36 -36 142 -36q187 0 282 28l-26 -213q-107 -30 -289 -30q-233 0 -321 90q-68 70 -68 207 q0 40 6 85z" />
<glyph unicode="d" horiz-adv-x="1091" d="M80 293l49 412q10 82 39 142t75 95t100 55t124 23q23 1 46 1q47 0 91 -4q66 -6 146 -20l45 365h231l-164 -1331q-284 -47 -405 -51q-19 -1 -37 -1q-248 0 -316 127q-28 53 -28 128q0 28 4 59zM311 324q-1 -12 -2 -23q1 -23 7 -41q8 -26 24 -41.5t45 -23.5q29 -7 55 -9 q8 0 18 -1q20 1 48 3q40 4 67.5 8t68.5 11q7 1 11 2l70 577q-40 9 -66.5 14t-66.5 10q-33 4 -58 4h-10q-28 -1 -59.5 -8.5t-52 -23t-36 -43t-20.5 -65.5z" />
<glyph unicode="e" horiz-adv-x="989" d="M80 365l33 264q50 389 462 389q93 0 160.5 -21t105 -58.5t59.5 -88t22 -110.5q0 -5 1 -10q0 -55 -5 -114l-27 -213h-555l-6 -51q-3 -23 -3 -42q0 -60 28 -88q37 -38 149 -38q57 0 159 14.5t166 32.5l-24 -204q-161 -47 -350 -47q-226 0 -312 98q-68 77 -68 211q0 36 5 76 zM360 604h318l6 49q2 18 2 33q0 54 -22 86q-28 41 -113 41q-167 0 -184 -160z" />
<glyph unicode="f" horiz-adv-x="770" d="M55 739l25 199h160l18 139q19 157 104.5 233t249.5 76q90 0 166 -18l-24 -201q-15 3 -33 7t-22 4.5t-15.5 2t-21 1.5h-29.5q-69 0 -94.5 -29t-32.5 -92l-17 -123h236l-25 -199h-235l-90 -739h-250l90 739h-160z" />
<glyph unicode="g" horiz-adv-x="1019" d="M49 -406l25 201q141 -42 311 -53q13 -1 26 -1q46 0 81 9q44 11 68.5 35t36.5 51.5t17 65.5l11 94q-69 -11 -133 -16q-41 -2 -84 -2h-49q-69 3 -124 20t-98 46t-63 80q-13 36 -13 81q0 19 2 39l54 463q10 85 47 145.5t79 96.5t121 52t133 21q18 2 42 2q47 0 116 -7 q104 -11 152 -19t156 -27q8 -1 12 -2l-131 -1084q-21 -168 -122 -253t-316 -85q-208 0 -357 47zM299 299q-1 -8 -1 -15q0 -45 31 -70q36 -29 96 -31h24q48 0 94 6q58 8 108 24l72 602q-39 8 -70.5 12.5t-76.5 8.5q-19 1 -35 1q-24 0 -45 -3q-34 -5 -67.5 -17t-53.5 -38.5 t-25 -65.5z" />
<glyph unicode="h" horiz-adv-x="1116" d="M61 -2l166 1366h232l-45 -369q70 12 130 18q55 6 112 5h10q62 0 108.5 -10t87 -33t64.5 -59q26 -36 36 -90q6 -29 5 -63q0 -29 -4 -61l-86 -704h-230l82 674q2 14 2 26q0 22 -6 40q-9 28 -25.5 43t-46.5 22.5t-57 8.5h-9q-25 0 -59 -4q-42 -5 -69.5 -10t-69.5 -14 l-96 -786h-232z" />
<glyph unicode="i" horiz-adv-x="536" d="M59 0l121 997h250l-121 -997h-250zM207 1235v5q-1 52 35 88q38 38 92 38t92.5 -38.5t40.5 -92.5q-1 -54 -40 -91.5t-93 -37.5t-91 37.5t-36 91.5z" />
<glyph unicode="j" horiz-adv-x="522" d="M-201 -426l25 205q14 -3 29 -6t21 -4t14 -2.5t15.5 -2t17 -0.5h26.5q67 0 92 28.5t33 92.5l135 1108h250l-138 -1124q-20 -157 -105.5 -233t-248.5 -76q-107 0 -166 14zM233 1235q-1 54 37 92.5t92 38.5t92 -38.5t40 -92.5q-1 -54 -40.5 -91.5t-93.5 -37.5t-91 37.5 t-36 91.5z" />
<glyph unicode="k" horiz-adv-x="1054" d="M59 0l166 1362h250l-102 -842l385 477h278l-405 -493l297 -504h-275l-284 485l-60 -485h-250z" />
<glyph unicode="l" horiz-adv-x="536" d="M59 0l166 1362h250l-166 -1362h-250z" />
<glyph unicode="m" horiz-adv-x="1681" d="M70 0l114 946q46 16 123 32.5t179 30.5q67 9 135 10q36 1 73 -3q105 -8 174 -41q52 18 116 31q63 14 135 20q52 5 102 4h39q68 -2 129.5 -20t106 -49t66.5 -85q17 -39 17 -88q0 -17 -2 -36l-92 -752h-234l84 696q1 8 1 15q0 43 -30 69q-34 30 -92 32l-34 2q-42 0 -84 -6 q-60 -8 -109 -26q0 -4 -1 -14.5t-1 -15.5l-92 -752h-231l88 719q-2 46 -41 69.5t-97 23.5q-3 0 -7 1q-54 0 -106 -8q-55 -8 -102 -23l-96 -782h-231z" />
<glyph unicode="n" horiz-adv-x="1093" d="M66 -2l116 948q35 12 90.5 26t135.5 27q82 13 162 19q29 2 57 1q52 0 103 -6q80 -10 138.5 -36.5t90.5 -84.5q24 -44 25 -102q0 -18 -3 -38l-92 -754h-230l86 698q1 8 1 15q0 45 -31 70q-36 29 -96 31h-24q-48 0 -94 -6q-58 -8 -108 -24l-96 -784h-231z" />
<glyph unicode="o" horiz-adv-x="1064" d="M82 352l35 289q20 165 128.5 268t309.5 107h82q102 -2 174.5 -32t112.5 -82q39 -50 53 -116q8 -38 8 -82q0 -31 -4 -63l-35 -289q-22 -167 -129.5 -269t-308.5 -106h-82q-102 2 -175 31.5t-113 81.5q-38 50 -52 116q-8 38 -8 81q0 31 4 65zM309 369q-2 -19 -2 -35 q0 -143 162 -146h51q89 2 141 47.5t62 133.5l31 256q2 18 2 35q0 142 -160 147h-51q-184 -6 -205 -182z" />
<glyph unicode="p" horiz-adv-x="1091" d="M49 -436l172 1403q284 47 405 51q19 1 37 1q250 0 318 -128q29 -53 29 -129q0 -27 -4 -57l-52 -412q-10 -82 -39 -142t-74.5 -95t-99.5 -55t-124 -23q-25 -1 -49 -1q-44 0 -88 3q-66 6 -146 20l-53 -436h-232zM360 211q46 -10 77.5 -15.5t77.5 -10.5q21 -2 39 -2 q21 0 38 3q31 6 62.5 19.5t50 44t24.5 74.5l43 350q2 14 2 26q0 21 -6 38q-8 26 -24 41.5t-45 23t-55 9.5h-17q-21 0 -49 -2q-40 -4 -67 -8.5t-68 -11.5q-7 -1 -11 -2z" />
<glyph unicode="q" horiz-adv-x="1087" d="M115 293l51 412q8 65 29.5 116t53 86t74 58.5t90 35.5t104.5 16q33 2 65 2q24 0 48 -1q57 -3 121 -10.5t122.5 -17t122.5 -20.5q3 -1 5 -1t5 -1t6 -1l-172 -1403h-232l54 436q-102 -17 -180 -22q-25 -2 -50 -2q-53 0 -106 8q-78 12 -126 45t-72 99q-17 45 -17 104 q0 29 4 61zM348 324q-2 -14 -2 -26q0 -22 6 -40q9 -27 25.5 -43t46.5 -23t57 -8q6 -1 13 -1q23 0 55 4q41 5 69 10t70 14l72 577q-129 24 -192 24q-9 0 -17 -1q-144 -7 -160 -137z" />
<glyph unicode="r" horiz-adv-x="681" d="M45 2l92 754q7 54 29 95.5t53 68t75 44t88 25.5t100 9h27q41 0 75 -2q46 -3 102 -9l-24 -203q-56 12 -98 16q-22 2 -46 2q-20 0 -44 -2q-48 -4 -78 -29t-36 -71l-86 -698h-229z" />
<glyph unicode="s" horiz-adv-x="915" d="M66 18l22 197q131 -40 320 -43q79 0 121.5 22.5t52.5 86.5q4 18 4 33q0 34 -18 56q-26 30 -113 33q-95 4 -155.5 17.5t-107.5 47.5q-46 34 -62 96q-8 34 -9 77q0 37 6 80q8 63 31.5 114t66.5 94.5t114 67.5t165 25h28q142 0 285 -27l-22 -192q-144 28 -270 28h-31 q-71 -1 -108 -35.5t-42 -90.5q-1 -10 -1 -20q0 -47 30 -63q36 -19 137 -24q292 -12 293 -246q0 -42 -10 -92q-25 -147 -121.5 -210t-255.5 -70q-26 -1 -52 -1q-148 0 -298 39z" />
<glyph unicode="t" horiz-adv-x="727" d="M63 797l25 198h160l45 367h250l-45 -367h235l-24 -198h-236l-57 -471q-2 -18 -2 -32q0 -38 14 -60q18 -28 86 -29h27h16t16.5 1.5t13.5 2.5l22.5 4.5t29.5 5.5l-25 -201q-82 -18 -170 -18q-164 0 -232 76q-53 59 -52 168q0 31 4 65l59 488h-160z" />
<glyph unicode="u" horiz-adv-x="1116" d="M125 242l92 753h229l-86 -698q-1 -8 0 -15q0 -45 30 -70q36 -29 97 -31h24q48 0 94 6q58 8 108 24l96 784h231l-116 -948q-35 -12 -90.5 -25.5t-135.5 -27.5q-82 -12 -162 -18q-28 -2 -55 -2q-53 0 -105 6q-80 10 -138.5 37t-90.5 85q-24 44 -24 102q0 18 2 38z" />
<glyph unicode="v" horiz-adv-x="989" d="M70 997h256l135 -757l321 757h256l-440 -997h-330z" />
<glyph unicode="w" horiz-adv-x="1505" d="M84 997h219l98 -700l291 682h234l123 -682l268 700h221l-373 -997h-272l-123 662l-285 -662h-272z" />
<glyph unicode="x" horiz-adv-x="958" d="M-35 0l381 502l-256 495h250l162 -303l233 303h250l-375 -495l262 -502h-256l-161 309l-238 -309h-252z" />
<glyph unicode="y" horiz-adv-x="1013" d="M70 -406l24 199q140 -43 301 -51q15 -1 29 -1q96 0 142 37q51 42 61 120l12 96q-69 -11 -133 -16q-41 -2 -85 -2h-49q-69 3 -123.5 20t-97 46t-61.5 80q-14 36 -14 81q0 19 2 39l92 755h229l-86 -700q-1 -9 -1 -17q0 -44 30 -68q37 -29 97 -31h24q48 0 95 6q58 8 108 24 l96 786h231l-135 -1116q-21 -167 -121.5 -249.5t-316.5 -82.5q-83 0 -183.5 12t-166.5 33z" />
<glyph unicode="z" horiz-adv-x="942" d="M51 0l23 193l520 612h-438l22 192h727l-22 -192l-521 -612h459l-22 -193h-748z" />
<glyph unicode="{" horiz-adv-x="696" d="M80 567l22 193h41q47 0 69.5 21t27.5 61l59 475q18 151 90.5 226t212.5 75h170l-24 -201h-105q-84 0 -92 -84l-53 -434q-14 -107 -57.5 -168t-139.5 -67q65 -4 100 -37t39 -84t-2 -115l-53 -434q-4 -45 13 -64.5t59 -19.5h104l-24 -201h-170q-139 0 -193.5 75t-36.5 226 l60 475q5 41 -12 61.5t-64 20.5h-41z" />
<glyph unicode="|" horiz-adv-x="522" d="M182 -260v1878h154v-1878h-154z" />
<glyph unicode="}" horiz-adv-x="696" d="M-76 -291l25 201h102q84 0 92 84l54 434q14 107 57 168.5t141 67.5q-96 6 -124.5 67t-14.5 168l53 434q4 45 -12.5 64.5t-58.5 19.5h-105l25 201h170q139 0 193 -74.5t36 -226.5l-59 -475q-5 -41 11.5 -61.5t63.5 -20.5h41l-22 -193h-41q-47 0 -69 -20.5t-27 -61.5 l-60 -475q-18 -151 -90.5 -226t-212.5 -75h-168z" />
<glyph unicode="~" horiz-adv-x="987" d="M59 471q23 46 38 72.5t36.5 60.5t41.5 52t46.5 35.5t58 24.5t70.5 7q38 0 81.5 -21.5t76 -47t72.5 -47t71 -21.5q28 0 52.5 12t43 34.5t31 43.5t25.5 49l133 -78q-53 -116 -125 -184t-182 -68q-42 0 -86.5 21t-75.5 46.5t-65.5 46.5t-59.5 21q-16 0 -29.5 -3t-26 -11.5 t-20.5 -14t-19.5 -22.5t-16.5 -24t-18.5 -30.5t-18.5 -31.5z" />
<glyph unicode="&#xa1;" horiz-adv-x="581" d="M82 -373l117 951h250l-117 -951h-250zM227 862q0 54 37.5 91.5t91.5 37.5t92.5 -37.5t38.5 -91.5t-38.5 -92.5t-92.5 -38.5t-91.5 38.5t-37.5 92.5z" />
<glyph unicode="&#xa2;" d="M152 547l32 272q22 173 103.5 263.5t244.5 111.5l21 164h172l-18 -158q112 0 235 -26l-27 -213q-53 12 -140 19t-134 7q-107 0 -151.5 -36.5t-55.5 -129.5l-35 -276q-11 -93 25.5 -129.5t142.5 -36.5q152 0 281 24l-27 -210q-123 -25 -241 -29l-21 -164h-172l21 170 q-159 23 -218.5 113t-37.5 264z" />
<glyph unicode="&#xa3;" horiz-adv-x="1318" d="M-14 2l22 205h236l51 422h-127l27 209h127l18 151q10 79 40 144.5t81.5 117t132 81.5t182.5 32h307l-24 -209h-291q-184 -6 -205 -182l-16 -135h291l-27 -209h-291l-51 -422h696l-24 -205h-1155z" />
<glyph unicode="&#xa4;" horiz-adv-x="1153" d="M63 291l154 137q-17 48 -10 119l35 278q6 61 39 119l-121 137l168 150l133 -154q77 23 166 23q86 0 157 -23l172 154l131 -150l-153 -137q19 -47 12 -119l-35 -278q-6 -66 -41 -119l121 -137l-168 -150l-135 154q-77 -23 -162 -23q-90 0 -161 23l-170 -154zM426 578 q-7 -65 22 -89t101 -24t108 24.5t43 88.5l27 217q7 65 -22.5 88.5t-100.5 23.5q-73 0 -108.5 -23.5t-42.5 -88.5z" />
<glyph unicode="&#xa5;" d="M59 262l21 158h282l-45 188h-215l21 162h158l-170 592h254l172 -680l327 680h256l-307 -592h162l-21 -162h-221l-88 -188h287l-21 -158h-297l-30 -262h-260l30 262h-295z" />
<glyph unicode="&#xa6;" horiz-adv-x="522" d="M182 424h154v-854h-154v854zM182 764v854h154v-854h-154z" />
<glyph unicode="&#xa7;" horiz-adv-x="1058" d="M66 -399l26 215h314q111 0 165 48t66 146l131 1069h227l-135 -1095q-10 -82 -40 -148.5t-84 -120t-140.5 -83.5t-198.5 -31h-331zM98 -49l138 1108q10 82 40 148.5t84 120t140 83.5t198 31h338l-26 -215h-320q-111 0 -165 -48t-66 -147l-133 -1081h-228z" />
<glyph unicode="&#xa8;" horiz-adv-x="839" d="M106 1235q0 54 38 92.5t92 38.5t92.5 -38.5t38.5 -92.5t-38.5 -91.5t-92.5 -37.5t-92 37.5t-38 91.5zM463 1235q0 54 37.5 92.5t91.5 38.5t92.5 -38.5t38.5 -92.5t-38.5 -91.5t-92.5 -37.5t-91.5 37.5t-37.5 91.5z" />
<glyph unicode="&#xa9;" horiz-adv-x="1630" d="M113 709q0 194 86 353.5t247.5 254t368.5 94.5q156 0 288.5 -55t222.5 -150t141 -223.5t51 -273.5q0 -144 -51 -273t-141 -224t-223 -150.5t-288 -55.5q-125 0 -235.5 35.5t-195 100.5t-146 152t-93.5 193.5t-32 221.5zM287 709q0 -150 64 -272t185.5 -194.5t278.5 -72.5 q158 0 279.5 72.5t185 194.5t63.5 272q0 151 -63.5 272.5t-185 193.5t-279.5 72q-157 0 -278.5 -72t-185.5 -193.5t-64 -272.5zM555 590v237q0 124 66 181t217 57q106 0 206 -29v-157q-110 26 -188 26q-72 0 -94.5 -19.5t-22.5 -74.5v-205q0 -55 22.5 -74.5t94.5 -19.5 q65 0 188 29v-158q-122 -31 -206 -31q-151 0 -217 57t-66 181z" />
<glyph unicode="&#xaa;" horiz-adv-x="872" d="M152 874v11q0 84 30 136t81.5 71.5t121.5 22t150 -12.5v45q0 53 -31 78.5t-117 21.5q-87 -5 -192 -37v142q109 32 225 32q152 0 215 -55t63 -172v-467q-205 -37 -289 -38q-200 -2 -244 129q-13 40 -13 93zM315 870q0 -28 9 -46.5t29 -27t37.5 -12t49 -0.5t48.5 6t49 9 v168q-29 6 -48.5 9t-48.5 5.5t-48.5 -1.5t-38.5 -12.5t-28.5 -27t-9.5 -45.5v-25z" />
<glyph unicode="&#xab;" horiz-adv-x="1032" d="M51 500l242 313h201l-242 -313l168 -316h-203zM449 500l241 313h201l-242 -313l168 -316h-203z" />
<glyph unicode="&#xac;" horiz-adv-x="1112" d="M123 506v196h835v-522h-204v326h-631z" />
<glyph unicode="&#xad;" horiz-adv-x="761" d="M109 469l26 209h516l-26 -209h-516z" />
<glyph unicode="&#xae;" horiz-adv-x="1167" d="M102 887q0 206 132 343.5t348 137.5q144 0 254.5 -64.5t168.5 -173.5t58 -243q0 -133 -58 -243t-168.5 -175.5t-254.5 -65.5q-108 0 -199 38.5t-152 104t-95 153.5t-34 188zM244 887q0 -151 87.5 -253t250.5 -102t251.5 102t88.5 253q0 72 -21.5 134.5t-62.5 111.5 t-107 77.5t-149 28.5q-163 0 -250.5 -100.5t-87.5 -251.5zM424 676v442h182q144 0 144 -125v-47q0 -77 -62 -106l115 -164h-113l-104 145h-66v-145h-96zM520 909h80q31 0 42 10.5t11 34.5v31q0 26 -11.5 35.5t-41.5 9.5h-80v-121z" />
<glyph unicode="&#xaf;" horiz-adv-x="737" d="M102 1141l19 166h512l-19 -166h-512z" />
<glyph unicode="&#xb0;" horiz-adv-x="731" d="M100 1083q0 110 72.5 185t192.5 75t191 -74.5t71 -185.5t-71 -184.5t-191 -73.5q-121 0 -193 73.5t-72 184.5zM238 1083q0 -59 33.5 -98t93.5 -39q59 0 91.5 39t32.5 98q0 62 -32 101t-92 39q-62 0 -94.5 -39t-32.5 -101z" />
<glyph unicode="&#xb1;" horiz-adv-x="1142" d="M152 0v188h835v-188h-835zM152 625v196h315v318h205v-318h315v-196h-315v-318h-205v318h-315z" />
<glyph unicode="&#xb2;" horiz-adv-x="774" d="M43 563l27 197q6 52 19 90.5t41 75.5t79.5 58.5t126.5 27.5q17 2 46.5 3t45 2.5t37.5 7.5t34.5 17.5t24 33.5t17.5 54q6 62 -22 91.5t-95 29.5q-90 0 -246 -20l17 125q132 22 256 22q142 0 192 -64t35 -181q-7 -54 -21.5 -92t-44.5 -73t-85.5 -53.5t-135.5 -19.5 q-77 0 -123.5 -24t-58.5 -91l-10 -86h409l-16 -131h-549z" />
<glyph unicode="&#xb3;" horiz-adv-x="763" d="M84 600l16 117q98 -31 187 -31q73 0 111 23t46 92q9 65 -16.5 86.5t-108.5 21.5h-145l14 121h142q86 0 117 21t38 86q8 69 -25 93.5t-102 24.5q-86 0 -194 -32l12 118q126 37 219 37q142 0 192.5 -61.5t37.5 -177.5q-16 -122 -88 -170q60 -50 45 -166 q-13 -116 -78.5 -178t-208.5 -62q-94 0 -211 37z" />
<glyph unicode="&#xb4;" horiz-adv-x="643" d="M205 1122l201 320h172l-197 -320h-176z" />
<glyph unicode="&#xb5;" horiz-adv-x="1116" d="M53 -434l176 1431h232l-96 -786q43 -15 96 -23.5t111 -8.5t102.5 24t58.5 71l90 723h230l-152 -1247h-231l28 240q-142 -31 -360 4l-51 -428h-234z" />
<glyph unicode="&#xb6;" horiz-adv-x="1077" d="M147 915q23 192 167.5 320.5t336.5 128.5l-108 -895q-193 0 -307 127.5t-89 318.5zM342 -436l25 205l120 2q69 0 94.5 28.5t32.5 91.5l181 1473h249l-182 -1489q-19 -157 -104.5 -233t-249.5 -76z" />
<glyph unicode="&#xb7;" horiz-adv-x="561" d="M133 614q-1 61 41.5 104.5t104.5 43.5q61 0 104 -43t45 -105q-2 -62 -45 -104.5t-104 -42.5q-62 0 -104.5 43t-41.5 104z" />
<glyph unicode="&#xb8;" horiz-adv-x="614" d="M233 -389l11 94q61 -14 133 -20q110 -4 117 69q4 34 -20.5 49t-65.5 17h-115l69 203h101l-39 -117q106 1 146.5 -40t29.5 -114q-12 -83 -66 -120t-155 -40q-64 -3 -146 19z" />
<glyph unicode="&#xb9;" horiz-adv-x="587" d="M147 1176l17 137l158 49h135l-101 -821h-151l82 673z" />
<glyph unicode="&#xba;" horiz-adv-x="792" d="M113 1018l18 160q31 247 303 247q275 0 244 -247l-19 -160q-31 -248 -305 -248q-272 0 -241 248zM268 1014q-6 -55 17.5 -82t85.5 -27t92.5 27t36.5 82l22 168q6 55 -18 81.5t-86 26.5t-91.5 -26.5t-35.5 -81.5z" />
<glyph unicode="&#xbb;" horiz-adv-x="1032" d="M68 184l245 316l-168 313h201l168 -313l-244 -316h-202zM465 184l246 316l-168 313h200l168 -313l-243 -316h-203z" />
<glyph unicode="&#xbc;" horiz-adv-x="1779" d="M215 1178l16 137l156 49h135l-100 -821h-150l82 674zM547 545l356 817h135l-356 -817h-135zM924 655l16 138l352 569h211l-71 -582h94l-15 -125h-94l-14 -110h-146l15 110h-348zM1090 780h196l51 416z" />
<glyph unicode="&#xbd;" horiz-adv-x="1769" d="M205 1176l16 137l156 49h135l-100 -821h-150l82 673zM524 543l357 817h137l-359 -817h-135zM965 551l26 197q7 53 20 91t41.5 74.5t79.5 58t125 27.5q17 2 47.5 3t46 2.5t37.5 8t34 18t23 33.5t17 54q6 62 -20.5 91.5t-93.5 29.5q-94 0 -246 -20l16 124q138 23 254 23 q142 0 192.5 -64.5t37.5 -181.5q-7 -54 -21.5 -92t-45 -72.5t-86 -53t-136.5 -19.5q-75 0 -122 -24t-61 -91l-10 -86h412l-16 -131h-551z" />
<glyph unicode="&#xbe;" horiz-adv-x="1837" d="M131 586l16 116q95 -30 187 -30q74 0 112 22t46 90q9 67 -16.5 89t-108.5 22h-146l15 121h141q86 0 117.5 20.5t40.5 85.5q8 69 -26 93t-103 24q-90 0 -195 -31l12 119q126 37 219 37q142 0 192.5 -62t37.5 -178q-16 -122 -88 -170q60 -50 45 -166q-13 -117 -78.5 -178 t-208.5 -61q-110 0 -211 37zM647 547l357 817h137l-359 -817h-135zM1014 657l16 138l352 569h211l-71 -582h94l-14 -125h-95l-14 -110h-145l14 110h-348zM1180 782h196l51 416z" />
<glyph unicode="&#xbf;" horiz-adv-x="1005" d="M49 401q7 58 19.5 104t34.5 92t57.5 80t85 61t121 42t161.5 17l119 2l29 225h201l-52 -422l-204 -2q-27 -2 -77.5 -4t-75.5 -4t-62 -12.5t-57 -29.5t-39.5 -56t-28.5 -91q-9 -103 36.5 -151.5t157.5 -48.5q161 0 408 35l-27 -211q-231 -35 -426 -35q-122 0 -204 29 t-123 85.5t-53 128t-1 166.5zM694 1264q0 47 34 80.5t81 33.5t81 -33.5t34 -80.5q-2 -47 -36 -81t-81 -34t-80.5 34t-32.5 81z" />
<glyph unicode="&#xc0;" horiz-adv-x="1245" d="M14 -2l121 981q22 172 134 276t329 107h160q112 -1 190 -31t118.5 -83.5t54.5 -120t3 -148.5l-120 -981h-228l74 596h-535l-73 -596h-228zM342 807h535l18 145q11 99 -31 147t-151 48h-123q-111 0 -165 -48.5t-65 -146.5zM565 1806h172l123 -319h-176z" />
<glyph unicode="&#xc1;" horiz-adv-x="1245" d="M14 -2l121 981q22 172 134 276t329 107h160q112 -1 190 -31t118.5 -83.5t54.5 -120t3 -148.5l-120 -981h-228l74 596h-535l-73 -596h-228zM342 807h535l16 145q12 98 -29.5 146.5t-150.5 48.5h-123q-111 0 -165.5 -48.5t-66.5 -146.5zM532 1489l201 319h172l-196 -319 h-177z" />
<glyph unicode="&#xc2;" horiz-adv-x="1245" d="M20 -2l121 981q22 172 134 276t329 107h160q112 -1 190 -31t118.5 -83.5t54.5 -120t3 -148.5l-120 -981h-228l74 596h-534l-74 -596h-228zM348 807h535l18 145q11 99 -31 147t-151 48h-123q-111 0 -164.5 -48.5t-64.5 -146.5zM467 1473l258 233l203 -233h-156l-67 73 l-82 -73h-156z" />
<glyph unicode="&#xc3;" horiz-adv-x="1245" d="M16 -2l121 981q22 172 134 276t329 107h160q112 -1 190 -31t118.5 -83.5t54.5 -120t3 -148.5l-120 -981h-228l74 596h-535l-73 -596h-228zM344 807h535l16 145q12 98 -29.5 146.5t-150.5 48.5h-123q-111 0 -165.5 -48.5t-66.5 -146.5zM385 1573q42 61 97 100t121 49.5 t128 -32.5q26 -16 43 -25t40 -14.5t40 -0.5t36 22.5t36 49.5l110 -61q-48 -107 -151 -150t-199 17q-58 46 -103 39.5t-106 -78.5z" />
<glyph unicode="&#xc4;" horiz-adv-x="1245" d="M20 -2l119 981q22 172 134 276t329 107h160q112 -1 190 -31t118.5 -83.5t54.5 -120t3 -148.5l-118 -981h-228l72 596h-535l-71 -596h-228zM346 807h535l18 145q11 99 -31 147t-151 48h-123q-111 0 -164.5 -48.5t-64.5 -146.5zM403 1602q-2 54 35.5 92.5t91.5 38.5 t93 -38.5t41 -92.5q-1 -54 -40.5 -91.5t-93.5 -37.5t-91 37.5t-36 91.5zM760 1602q-2 54 35.5 92.5t91.5 38.5t92.5 -38.5t40.5 -92.5q-1 -54 -40 -91.5t-93 -37.5t-91 37.5t-36 91.5z" />
<glyph unicode="&#xc5;" horiz-adv-x="1245" d="M14 -2l121 981q22 172 134 276t329 107h160q112 -1 190 -31t118.5 -83.5t54.5 -120t3 -148.5l-120 -981h-228l74 596h-535l-73 -596h-228zM342 807h535l18 145q11 99 -31 147t-151 48h-123q-111 0 -165 -48.5t-65 -146.5zM526 1626q2 75 51 124.5t134 49.5 q86 0 134 -49.5t46 -124.5q0 -76 -47 -126t-133 -50t-134.5 48.5t-50.5 127.5zM635 1626q0 -36 20.5 -58t53.5 -22t53 22t20 58q2 35 -17.5 56.5t-53.5 21.5t-54 -21.5t-22 -56.5z" />
<glyph unicode="&#xc6;" horiz-adv-x="1906" d="M43 -2l119 981q22 172 134 276t329 107l1230 2l-26 -227h-578l-41 -330h533l-29 -227h-532l-43 -353h577l-26 -227h-818l72 594h-602l-72 -596h-227zM369 807h602l41 340h-396q-111 0 -164.5 -48.5t-64.5 -146.5z" />
<glyph unicode="&#xc7;" horiz-adv-x="1069" d="M98 375l76 614q49 395 533 395q183 0 383 -45l-29 -229q-223 41 -375 41q-131 0 -188.5 -48t-71.5 -159l-66 -524q-12 -111 34 -159t177 -48q138 0 385 43l-28 -231q-210 -42 -383 -45l-23 -74q104 1 144.5 -40t29.5 -114q-10 -83 -65 -120t-156 -40q-63 -3 -145 19 l12 94q54 -13 131 -20q109 -4 119 69q5 62 -88 66h-115l55 164q-392 33 -346 391z" />
<glyph unicode="&#xc8;" horiz-adv-x="1101" d="M43 0l168 1364h833l-28 -227h-578l-39 -324h533l-29 -227h-532l-43 -365h577l-28 -221h-834zM494 1806h172l120 -319h-176z" />
<glyph unicode="&#xc9;" horiz-adv-x="1101" d="M43 0l168 1364h833l-28 -227h-578l-39 -324h533l-29 -227h-532l-43 -365h577l-28 -221h-834zM461 1489l201 319h172l-197 -319h-176z" />
<glyph unicode="&#xca;" horiz-adv-x="1101" d="M49 0l168 1364h834l-27 -227h-578l-40 -324h532l-29 -227h-532l-43 -365h577l-28 -221h-834zM395 1473l258 233l203 -233h-156l-67 73l-82 -73h-156z" />
<glyph unicode="&#xcb;" horiz-adv-x="1101" d="M49 0l166 1364h834l-27 -227h-578l-41 -324h533l-27 -227h-532l-45 -365h577l-26 -221h-834zM332 1602q-2 54 35.5 92.5t91.5 38.5t92.5 -38.5t40.5 -92.5q-1 -54 -40 -91.5t-93 -37.5t-91 37.5t-36 91.5zM688 1602q-2 54 35.5 92.5t91.5 38.5t92.5 -38.5t40.5 -92.5 q-1 -54 -40 -91.5t-93 -37.5t-91 37.5t-36 91.5z" />
<glyph unicode="&#xcc;" horiz-adv-x="585" d="M51 0l168 1364h258l-168 -1364h-258zM236 1806h172l120 -319h-176z" />
<glyph unicode="&#xcd;" horiz-adv-x="585" d="M51 0l168 1364h258l-168 -1364h-258zM205 1489l201 319h172l-197 -319h-176z" />
<glyph unicode="&#xce;" horiz-adv-x="585" d="M57 0l168 1364h258l-168 -1364h-258zM139 1473l258 233l203 -233h-156l-67 73l-82 -73h-156z" />
<glyph unicode="&#xcf;" horiz-adv-x="585" d="M57 0l166 1364h258l-166 -1364h-258zM76 1602q-2 54 35.5 92.5t91.5 38.5t92.5 -38.5t40.5 -92.5q-1 -54 -40 -91.5t-93 -37.5t-91 37.5t-36 91.5zM432 1602q-2 54 35.5 92.5t91.5 38.5t92.5 -38.5t40.5 -92.5q-1 -54 -40 -91.5t-93 -37.5t-91 37.5t-36 91.5z" />
<glyph unicode="&#xd0;" horiz-adv-x="1306" d="M70 586l24 207h142l69 571h508q122 0 208.5 -29t131.5 -81t61.5 -116t6.5 -141l-76 -630q-10 -77 -42 -140.5t-89.5 -115.5t-151 -81.5t-215.5 -29.5h-508l72 586h-141zM424 227h223q125 0 179 48.5t67 152.5l63 508q13 104 -29 152.5t-167 48.5h-223l-43 -344h208 l-24 -207h-209z" />
<glyph unicode="&#xd1;" horiz-adv-x="1421" d="M43 0l168 1364h344l391 -1036l127 1036h252l-168 -1364h-344l-391 1034l-127 -1034h-252zM473 1573q42 61 97 100t121 49.5t128 -32.5q26 -16 43 -25t40 -14.5t40 -0.5t36 22.5t36 49.5l110 -61q-48 -107 -151 -150t-199 17q-60 46 -104.5 39.5t-104.5 -78.5z" />
<glyph unicode="&#xd2;" horiz-adv-x="1277" d="M57 373l76 620q22 172 134 276t329 107h201q112 -1 190.5 -31t119.5 -83.5t55 -120t3 -148.5l-75 -620q-22 -172 -134 -276t-329 -107h-201q-217 3 -304 107.5t-65 275.5zM289 399q-12 -98 29.5 -146t152.5 -48h164q111 0 165 48t66 146l70 568q11 99 -31 146.5 t-153 47.5h-164q-111 0 -165 -48t-65 -146zM582 1806h172l123 -319h-177z" />
<glyph unicode="&#xd3;" horiz-adv-x="1277" d="M57 373l76 620q22 172 134 276t329 107h201q112 -1 190.5 -31t119.5 -83.5t55 -120t3 -148.5l-75 -620q-22 -172 -134 -276t-329 -107h-201q-217 3 -304 107.5t-65 275.5zM289 399q-12 -98 29.5 -146t152.5 -48h164q111 0 165 48t66 146l70 568q11 99 -31 146.5 t-153 47.5h-164q-111 0 -165 -48t-65 -146zM543 1489l200 319h172l-196 -319h-176z" />
<glyph unicode="&#xd4;" horiz-adv-x="1277" d="M63 373l76 620q22 172 134 276t329 107h201q112 -1 190.5 -31t119.5 -83.5t55 -120t3 -148.5l-75 -620q-22 -172 -134 -276t-329 -107h-201q-217 3 -304 107.5t-65 275.5zM295 399q-12 -98 29.5 -146t152.5 -48h164q111 0 165 48t66 146l70 568q11 99 -31 146.5 t-153 47.5h-164q-111 0 -164.5 -48t-64.5 -146zM483 1473l258 233l203 -233h-156l-67 73l-82 -73h-156z" />
<glyph unicode="&#xd5;" horiz-adv-x="1277" d="M59 373l76 620q22 172 134 276t329 107h201q112 -1 190.5 -31t119.5 -83.5t55 -120t3 -148.5l-75 -620q-22 -172 -134 -276t-329 -107h-201q-217 3 -304 107.5t-65 275.5zM291 399q-12 -98 29.5 -146t152.5 -48h164q111 0 165 48t66 146l70 568q11 99 -31 146.5 t-153 47.5h-164q-111 0 -165 -48t-65 -146zM401 1573q42 61 97 100t121 49.5t129 -32.5q33 -20 54 -29.5t47.5 -12t49.5 16t43 57.5l111 -61q-48 -107 -151.5 -150t-199.5 17q-58 46 -102.5 39.5t-105.5 -78.5z" />
<glyph unicode="&#xd6;" horiz-adv-x="1277" d="M61 373l76 620q22 172 134 276t329 107h201q112 -1 190.5 -31t119.5 -83.5t55 -120t3 -148.5l-75 -620q-10 -82 -40 -148.5t-84 -120t-140.5 -83.5t-198.5 -31h-201q-111 1 -189.5 31t-119.5 83.5t-55.5 120t-4.5 148.5zM293 399q-12 -98 29.5 -146t152.5 -48h164 q111 0 165 48t66 146l70 568q11 99 -31 146.5t-153 47.5h-164q-111 0 -165 -48t-65 -146zM420 1602q-1 54 37 92.5t92 38.5t91.5 -38.5t39.5 -92.5q0 -54 -39.5 -91.5t-93.5 -37.5t-90.5 37.5t-36.5 91.5zM776 1602q-1 54 37 92.5t92 38.5t91.5 -38.5t39.5 -92.5 q0 -54 -39.5 -91.5t-93.5 -37.5t-90.5 37.5t-36.5 91.5z" />
<glyph unicode="&#xd7;" d="M154 252l237 240l-237 237l143 145l240 -239l239 239l144 -145l-238 -237l238 -240l-144 -146l-239 240l-240 -240z" />
<glyph unicode="&#xd8;" horiz-adv-x="1277" d="M84 373l78 620q20 172 132 276t329 107h198l43 99h228l-60 -140q192 -86 162 -342l-78 -620q-10 -82 -40 -148.5t-84 -120t-140.5 -83.5t-198.5 -31h-200h-4l-48 -113h-225l66 154q-188 85 -158 342zM315 399q-12 -94 23 -141l391 903h-113q-111 0 -165 -48t-66 -146z M541 205h121q111 0 165 48t66 146l70 568q12 95 -27 143z" />
<glyph unicode="&#xd9;" horiz-adv-x="1294" d="M57 373l121 991h228l-117 -965q-12 -98 29.5 -146t152.5 -48h164q111 0 165 48t66 146l117 965h227l-120 -991q-22 -172 -134 -276t-329 -107h-201q-217 3 -304 107.5t-65 275.5zM590 1806h172l123 -319h-176z" />
<glyph unicode="&#xda;" horiz-adv-x="1294" d="M57 373l121 991h228l-117 -965q-12 -98 29.5 -146t152.5 -48h164q111 0 165 48t66 146l117 965h227l-120 -991q-22 -172 -134 -276t-329 -107h-201q-217 3 -304 107.5t-65 275.5zM551 1489l201 319h172l-197 -319h-176z" />
<glyph unicode="&#xdb;" horiz-adv-x="1294" d="M63 373l121 991h228l-117 -965q-12 -98 29.5 -146t152.5 -48h164q111 0 165 48t66 146l117 965h228l-121 -991q-22 -172 -134 -276t-329 -107h-201q-217 3 -304 107.5t-65 275.5zM492 1473l258 233l202 -233h-155l-68 73l-82 -73h-155z" />
<glyph unicode="&#xdc;" horiz-adv-x="1294" d="M61 373l123 991h228l-119 -965q-12 -98 29.5 -146t152.5 -48h164q111 0 165 48t66 146l119 965h228l-123 -991q-10 -82 -40 -148.5t-84 -120t-140.5 -83.5t-198.5 -31h-201q-111 1 -189.5 31t-119.5 83.5t-55.5 120t-4.5 148.5zM428 1602q-1 54 37 92.5t92 38.5 t91.5 -38.5t39.5 -92.5q0 -54 -39.5 -91.5t-93.5 -37.5t-90.5 37.5t-36.5 91.5zM784 1602q-1 54 37 92.5t92 38.5t91.5 -38.5t39.5 -92.5q0 -54 -39.5 -91.5t-93.5 -37.5t-90.5 37.5t-36.5 91.5z" />
<glyph unicode="&#xdd;" horiz-adv-x="1159" d="M66 1364h274l211 -688l379 688h274l-559 -969l-49 -395h-258l49 395zM483 1489l201 319h172l-197 -319h-176z" />
<glyph unicode="&#xde;" horiz-adv-x="1179" d="M63 0l164 1364h232l-23 -190q71 12 130 18t120.5 5.5t108.5 -10.5t87.5 -33t65 -58.5t34.5 -90t1 -124.5l-49 -412q-10 -79 -39 -137.5t-75.5 -93t-100 -55t-124 -25.5t-136 -2t-146.5 14l-20 -170h-230zM340 385q37 -7 51 -9.5t51 -8t54.5 -5.5h49.5t49 6t40 15.5 t35.5 25t23.5 38.5t15 53l43 350q6 44 -5.5 74.5t-39.5 44t-58 19.5t-77 1t-80 -10.5t-82 -15.5z" />
<glyph unicode="&#xdf;" horiz-adv-x="1230" d="M70 0l131 1073q18 143 113.5 217t283.5 74h174q188 0 267 -74.5t61 -216.5l-19 -141q-9 -84 -51.5 -135.5t-126.5 -85.5q92 -20 136 -86t32 -166l-18 -146q-18 -148 -122.5 -230.5t-287.5 -82.5h-174l25 213h122q89 0 131.5 29.5t51.5 103.5l14 103q8 70 -22 103.5 t-105 33.5h-154l25 207h113q137 0 153 127l15 120q8 57 -21.5 84t-99.5 27h-113q-70 0 -105.5 -27t-43.5 -84l-127 -1040h-258z" />
<glyph unicode="&#xe0;" horiz-adv-x="1005" d="M53 291l2 16q10 81 36.5 141t68 96.5t91.5 58.5t115.5 27.5t130.5 2t144 -16.5l8 64q4 38 -1.5 63t-24.5 45.5t-60.5 29t-105.5 5.5q-131 -8 -283 -51l25 201q162 47 327 47q147 0 231 -37.5t112.5 -107t15.5 -179.5l-82 -667q-265 -46 -370 -52q-267 -15 -346 106 q-50 76 -34 208zM286.5 242q2.5 -19 11.5 -32t20 -23t29 -15t33.5 -8.5t39.5 -2.5t41.5 2t44.5 5t42.5 6.5t41.5 7.5l28 242q-34 7 -57 11t-58.5 7.5t-60 2t-53 -8.5t-47 -21t-33 -38t-18.5 -58l-4 -34q-3 -24 -0.5 -43zM418 1440h172l123 -320h-176z" />
<glyph unicode="&#xe1;" horiz-adv-x="1005" d="M53 291l2 16q10 81 36.5 141t68 96.5t91.5 58.5t115.5 27.5t130.5 2t144 -16.5l8 64q4 38 -1.5 63t-24.5 45.5t-60.5 29t-105.5 5.5q-131 -8 -283 -51l25 201q162 47 327 47q147 0 231 -37.5t112.5 -107t15.5 -179.5l-82 -667q-265 -46 -370 -52q-267 -15 -346 106 q-50 76 -34 208zM286.5 242q2.5 -19 11.5 -32t20 -23t29 -15t33.5 -8.5t39.5 -2.5t41.5 2t44.5 5t42.5 6.5t41.5 7.5l28 242q-34 7 -57 11t-58.5 7.5t-60 2t-53 -8.5t-47 -21t-33 -38t-18.5 -58l-4 -34q-3 -24 -0.5 -43zM397 1122l201 320h172l-197 -320h-176z" />
<glyph unicode="&#xe2;" horiz-adv-x="1005" d="M59 291l2 16q10 81 36.5 141t68 96.5t91.5 58.5t115.5 27.5t130.5 2t144 -16.5l8 64q4 38 -1.5 63t-24.5 45.5t-60.5 29t-105.5 5.5q-131 -8 -283 -51l25 201q162 47 327 47q147 0 231 -37.5t112.5 -107t15.5 -179.5l-82 -667q-265 -46 -370 -52q-267 -15 -346 106 q-50 76 -34 208zM292.5 242q2.5 -19 11.5 -32t20 -23t29 -15t33.5 -8.5t39.5 -2.5t41.5 2t44.5 5t42.5 6.5t41.5 7.5l29 242q-34 7 -57 11t-58.5 7.5t-60 2t-53.5 -8.5t-47.5 -21t-33 -38t-18.5 -58l-4 -34q-3 -24 -0.5 -43zM332 1106l258 233l203 -233h-156l-66 74l-84 -74 h-155z" />
<glyph unicode="&#xe3;" horiz-adv-x="1005" d="M55 291l2 16q10 81 36.5 141t68 96.5t91.5 58.5t115.5 27.5t130.5 2t144 -16.5l8 64q4 38 -1.5 63t-24.5 45.5t-60.5 29t-105.5 5.5q-131 -8 -283 -51l25 201q162 47 327 47q147 0 231 -37.5t112.5 -107t15.5 -179.5l-82 -667q-265 -46 -370 -52q-267 -15 -346 106 q-50 76 -34 208zM250 1206q42 61 97 100t121 49.5t128 -32.5q33 -20 55 -29.5t48.5 -11.5t49 16.5t42.5 57.5l112 -62q-32 -69 -91.5 -114.5t-127 -52.5t-131.5 34q-60 46 -105 39.5t-106 -78.5zM288.5 242q2.5 -19 11.5 -32t20 -23t29 -15t33.5 -8.5t39.5 -2.5t41.5 2 t44.5 5t42.5 6.5t41.5 7.5l29 242q-34 7 -57 11t-58.5 7.5t-60 2t-53.5 -8.5t-47.5 -21t-33 -38t-18.5 -58l-4 -34q-3 -24 -0.5 -43z" />
<glyph unicode="&#xe4;" horiz-adv-x="1005" d="M59 291l2 16q11 96 48 163t88.5 102.5t126 50t150 11.5t171.5 -18l8 64q4 37 -1.5 62.5t-24.5 46t-59.5 29t-104.5 5.5q-133 -8 -285 -51l25 201q162 47 327 47q218 0 299 -79t60 -245l-82 -667q-265 -46 -370 -52q-268 -15 -346 107q-48 76 -32 207zM268 1235 q0 54 37.5 92.5t91.5 38.5t92.5 -38.5t38.5 -92.5t-39.5 -91.5t-93.5 -37.5t-90.5 37.5t-36.5 91.5zM291 285q-3 -26 1.5 -46.5t14 -34.5t26.5 -23t33.5 -14t42 -5.5t44.5 0t48 4.5t47 7.5t46 8.5l31 242q-35 7 -58 11t-59 7.5t-60.5 2t-53.5 -8.5t-47.5 -21t-33 -38 t-18.5 -58zM625 1235q0 54 37.5 92.5t91.5 38.5t92.5 -38.5t38.5 -92.5t-39.5 -91.5t-93.5 -37.5t-90.5 37.5t-36.5 91.5z" />
<glyph unicode="&#xe5;" horiz-adv-x="1005" d="M55 291l2 16q11 96 48 163t88.5 102.5t126 50t150 11.5t171.5 -18l8 64q4 37 -1.5 62.5t-24.5 46t-59.5 29t-104.5 5.5q-133 -8 -285 -51l25 201q162 47 327 47q218 0 299 -79t60 -245l-82 -667q-265 -46 -370 -52q-268 -15 -346 107q-48 76 -32 207zM287 285 q-3 -26 1.5 -46.5t14 -34.5t26.5 -23t33.5 -14t42 -5.5t44.5 0t48 4.5t47 7.5t46 8.5l31 242q-35 7 -58 11t-59 7.5t-60.5 2t-53.5 -8.5t-47.5 -21t-33 -38t-18.5 -58zM391 1260q0 75 48.5 124.5t133.5 49.5q86 0 134.5 -49.5t48.5 -124.5q0 -76 -48.5 -126.5t-134.5 -50.5 q-85 0 -132.5 49t-49.5 128zM500 1260q0 -36 20 -58t53 -22t53.5 22t20.5 58q0 35 -20 56t-54 21t-53.5 -21t-19.5 -56z" />
<glyph unicode="&#xe6;" horiz-adv-x="1583" d="M78 291l2 16q10 81 36.5 141t68 96.5t91.5 58.5t115.5 27.5t130.5 2t144 -16.5l8 64q5 51 -6.5 81t-56.5 48t-130 14q-130 -8 -282 -51l24 201q162 47 328 47q208 0 293 -76q107 74 289 74q93 0 160.5 -21t105.5 -58.5t59.5 -88t22 -110t-5.5 -124.5l-27 -213h-555 l-6 -51q-11 -93 25.5 -130.5t148.5 -37.5q57 0 159.5 14.5t168.5 32.5l-25 -204q-161 -47 -350 -47q-147 0 -234 40q-96 -17 -154 -25.5t-145.5 -16t-141 -2t-114.5 24t-92 54t-48 95t-7 141.5zM310.5 242q2.5 -19 11.5 -32t20 -23t29 -15t33.5 -8.5t39.5 -2.5t41.5 2 t44.5 5t42.5 6.5t41.5 7.5l29 242q-34 7 -57 11t-58.5 7.5t-60 2t-53.5 -8.5t-47.5 -21t-33 -38t-18.5 -58l-4 -34q-3 -24 -0.5 -43zM918 604h317l6 49q10 78 -17.5 119t-113.5 41q-166 0 -186 -160z" />
<glyph unicode="&#xe7;" horiz-adv-x="901" d="M104 362l33 273q25 203 135 293t342 90q60 0 144.5 -8t136.5 -25l-25 -213q-44 16 -131 23.5t-145 7.5q-106 0 -150.5 -36.5t-56.5 -129.5l-33 -277q-11 -93 24.5 -129t141.5 -36q186 0 283 28l-27 -213q-99 -25 -274 -30l-23 -74q104 1 144.5 -40t29.5 -114 q-10 -83 -65 -120t-156 -40q-63 -3 -145 19l12 94q54 -13 131 -20q109 -4 119 69q5 62 -88 66h-115l55 164q-184 13 -252.5 103t-44.5 275z" />
<glyph unicode="&#xe8;" horiz-adv-x="989" d="M55 365l33 264q10 84 38.5 151t81 122t139 85.5t202.5 30.5q93 0 160.5 -21t105.5 -58.5t59.5 -88t22 -110t-5.5 -124.5l-27 -213h-555l-6 -51q-11 -93 25.5 -130.5t148.5 -37.5q57 0 159.5 14.5t168.5 32.5l-25 -204q-161 -47 -350 -47q-226 0 -312.5 98t-62.5 287z M334 604h317l6 49q10 78 -17.5 119t-113.5 41q-166 0 -186 -160zM403 1440h172l123 -320h-176z" />
<glyph unicode="&#xe9;" horiz-adv-x="989" d="M55 365l33 264q10 84 38.5 151t81 122t139 85.5t202.5 30.5q93 0 160.5 -21t105.5 -58.5t59.5 -88t22 -110t-5.5 -124.5l-27 -213h-555l-6 -51q-11 -93 25.5 -130.5t148.5 -37.5q57 0 159.5 14.5t168.5 32.5l-27 -204q-158 -47 -348 -47q-226 0 -312.5 98t-62.5 287z M334 604h317l6 49q10 78 -17.5 119t-113.5 41q-166 0 -186 -160zM383 1122l201 320h172l-197 -320h-176z" />
<glyph unicode="&#xea;" horiz-adv-x="989" d="M61 365l33 264q10 84 38.5 151t81 122t139 85.5t202.5 30.5q93 0 160.5 -21t105.5 -58.5t59.5 -88t22 -110t-5.5 -124.5l-27 -213h-555l-6 -51q-11 -93 25.5 -130.5t148.5 -37.5q57 0 159.5 14.5t168.5 32.5l-25 -204q-161 -47 -350 -47q-226 0 -312.5 98t-62.5 287z M317 1106l258 233l203 -233h-155l-66 74l-84 -74h-156zM340 604h317l7 49q10 78 -18 119t-114 41q-166 0 -186 -160z" />
<glyph unicode="&#xeb;" horiz-adv-x="989" d="M59 365l33 264q50 389 461 389q93 0 160.5 -21t105.5 -58.5t59.5 -88t22 -110t-5.5 -124.5l-27 -213h-555l-6 -51q-11 -93 25.5 -130.5t148.5 -37.5q58 0 161 14.5t167 32.5l-25 -204q-161 -47 -350 -47q-226 0 -312 98t-63 287zM254 1235q0 54 37.5 92.5t91.5 38.5 t92.5 -38.5t38.5 -92.5t-39.5 -91.5t-93.5 -37.5t-90.5 37.5t-36.5 91.5zM338 604h317l7 49q10 78 -18 119t-114 41q-166 0 -186 -160zM610 1235q0 54 37.5 92.5t91.5 38.5t92.5 -38.5t38.5 -92.5t-39.5 -91.5t-93.5 -37.5t-90.5 37.5t-36.5 91.5z" />
<glyph unicode="&#xec;" horiz-adv-x="536" d="M53 0l123 997h250l-123 -997h-250zM176 1440h172l123 -320h-176z" />
<glyph unicode="&#xed;" horiz-adv-x="536" d="M53 0l123 997h250l-123 -997h-250zM158 1122l200 320h172l-196 -320h-176z" />
<glyph unicode="&#xee;" horiz-adv-x="536" d="M59 0l123 997h250l-123 -997h-250zM92 1106l258 233l203 -233h-156l-67 74l-82 -74h-156z" />
<glyph unicode="&#xef;" horiz-adv-x="536" d="M29 1235q-2 54 35.5 92.5t91.5 38.5t92.5 -38.5t40.5 -92.5q-1 -54 -40 -91.5t-93 -37.5t-91 37.5t-36 91.5zM59 0l121 997h250l-121 -997h-250zM385 1235q-2 54 35.5 92.5t91.5 38.5t92.5 -38.5t40.5 -92.5q-1 -54 -40 -91.5t-93 -37.5t-91 37.5t-36 91.5z" />
<glyph unicode="&#xf0;" d="M69 255q-1 59 5 126l12 104q22 173 117 254.5t272 81.5q138 0 244 -37l14 111q20 137 -67 207l-170 -178l-109 100l137 145q-79 21 -194 25l24 203q213 4 346 -45l129 135l109 -103l-100 -104q157 -127 129 -385l-68 -551q-10 -80 -37.5 -141.5t-79.5 -111t-138 -75.5 t-204 -26q-100 0 -172 19.5t-112.5 54t-63 83.5t-23.5 108zM301 350q-11 -86 24.5 -121.5t139.5 -35.5q100 0 145.5 34t55.5 123l28 225q-88 43 -211 43q-79 0 -118 -31.5t-48 -107.5z" />
<glyph unicode="&#xf1;" horiz-adv-x="1093" d="M49 -2l117 948q30 10 76.5 21.5t114 25t137.5 19.5t142.5 7t135 -15t109.5 -44t70 -81.5t14 -126.5l-93 -754h-229l86 698q7 56 -29 85t-96.5 31t-118.5 -6t-108 -24l-96 -784h-232zM287 1206q42 61 97 100t121 49.5t128 -32.5q32 -20 53.5 -29.5t48 -11.5t49 16.5 t43.5 57.5l111 -62q-48 -107 -151 -150t-199 17q-58 46 -103 39.5t-106 -78.5z" />
<glyph unicode="&#xf2;" horiz-adv-x="1064" d="M55 352l35 289q10 79 40.5 144.5t82.5 117t132.5 81.5t182.5 32h82q102 -2 175.5 -32t112.5 -81.5t52.5 -117t3.5 -144.5l-34 -289q-20 -166 -128.5 -268.5t-308.5 -106.5h-82q-102 2 -175.5 31.5t-112.5 81t-53.5 117t-4.5 145.5zM283 369q-21 -178 159 -181h52 q181 3 202 181l31 256q21 176 -158 182h-51q-184 -6 -205 -182zM440 1440h172l123 -320h-176z" />
<glyph unicode="&#xf3;" horiz-adv-x="1064" d="M55 352l35 289q10 79 40.5 144.5t82 117t132 81.5t183.5 32h82q102 -2 175 -32t112 -81.5t53 -117t4 -144.5l-34 -289q-20 -166 -128.5 -268.5t-308.5 -106.5h-82q-102 2 -175.5 31.5t-112.5 81t-53.5 117t-4.5 145.5zM283 369q-21 -178 159 -181h52q181 3 202 181 l31 256q21 176 -158 182h-51q-184 -6 -205 -182zM420 1122l201 320h172l-197 -320h-176z" />
<glyph unicode="&#xf4;" horiz-adv-x="1064" d="M61 352l35 289q10 79 41 144.5t83 117t132.5 81.5t182.5 32h81q102 -2 175.5 -32t113 -81.5t53 -117t3.5 -144.5l-35 -289q-20 -166 -128.5 -268.5t-308.5 -106.5h-81q-102 2 -175.5 31.5t-113 81t-54 117t-4.5 145.5zM289 369q-21 -178 160 -181h51q181 3 202 181 l31 256q21 176 -158 182h-51q-184 -6 -205 -182zM354 1106l258 233l203 -233h-156l-65 74l-84 -74h-156z" />
<glyph unicode="&#xf5;" horiz-adv-x="1064" d="M57 352l35 289q10 79 40.5 144.5t82.5 117t132.5 81.5t182.5 32h82q102 -2 175.5 -32t112.5 -81.5t52.5 -117t3.5 -144.5l-34 -289q-20 -166 -128.5 -268.5t-308.5 -106.5h-82q-102 2 -175.5 31.5t-112.5 81t-53.5 117t-4.5 145.5zM272 1206q42 61 97 100t121 49.5 t128 -32.5q33 -20 55 -29.5t48.5 -11.5t49 16.5t42.5 57.5l113 -62q-32 -69 -92 -114.5t-127.5 -52.5t-131.5 34q-60 46 -104.5 39.5t-105.5 -78.5zM285 369q-21 -178 159 -181h52q181 3 202 181l31 256q21 176 -158 182h-51q-184 -6 -205 -182z" />
<glyph unicode="&#xf6;" horiz-adv-x="1064" d="M59 352l37 289q10 79 40 144.5t81.5 117t132 81.5t182.5 32h82q102 -2 175.5 -32t113 -81.5t54 -117t4.5 -144.5l-37 -289q-20 -166 -128.5 -268.5t-308.5 -106.5h-81q-102 2 -175.5 31.5t-113 81t-54 117t-4.5 145.5zM287 369q-21 -178 162 -181h51q179 3 200 181 l33 256q21 176 -158 182h-51q-184 -6 -205 -182zM291 1235q0 54 37.5 92.5t91.5 38.5t92.5 -38.5t38.5 -92.5t-38.5 -91.5t-92.5 -37.5t-91.5 37.5t-37.5 91.5zM647 1235q0 54 37.5 92.5t91.5 38.5t92.5 -38.5t38.5 -92.5t-38.5 -91.5t-92.5 -37.5t-91.5 37.5t-37.5 91.5z " />
<glyph unicode="&#xf7;" d="M137 416v168h799v-168h-799zM395 141q0 61 43.5 104.5t104.5 43.5t104 -43t43 -105q0 -61 -43 -104t-104 -43q-62 0 -105 43t-43 104zM395 852q0 61 43 104t105 43q61 0 104 -42.5t43 -104.5t-43 -104.5t-104 -42.5q-62 0 -105 43t-43 104z" />
<glyph unicode="&#xf8;" horiz-adv-x="1064" d="M82 352l37 289q10 79 40 144.5t81.5 117t132 81.5t182.5 32h82q69 -6 72 -6l67 157h115l-80 -184q103 -41 144.5 -131t27.5 -211l-37 -289q-20 -166 -128 -268.5t-308 -106.5h-82q-15 0 -55 5l-76 -177h-113l84 197q-111 40 -155.5 131t-30.5 219zM309 369 q-12 -111 51 -154l258 590q-3 0 -10 1t-10 1h-51q-184 -6 -205 -182zM465 188h6h51q180 3 201 181l33 256q12 92 -41 141z" />
<glyph unicode="&#xf9;" horiz-adv-x="1116" d="M88 242l92 753h230l-86 -698q-6 -56 30 -85t96 -31t118 6t108 24l96 784h232l-117 -948q-30 -10 -76.5 -21.5t-114 -25t-137.5 -19.5t-142.5 -6.5t-135 15t-109.5 44t-70 82t-14 126.5zM477 1440h172l121 -320h-176z" />
<glyph unicode="&#xfa;" horiz-adv-x="1116" d="M88 242l92 753h230l-86 -698q-6 -56 30 -85t96 -31t118 6t108 24l96 784h232l-117 -948q-30 -10 -76.5 -21.5t-114 -25t-137.5 -19.5t-142.5 -6.5t-135 15t-109.5 44t-70 82t-14 126.5zM455 1122l202 320h172l-198 -320h-176z" />
<glyph unicode="&#xfb;" horiz-adv-x="1116" d="M94 242l92 753h230l-86 -698q-6 -56 30 -85t96 -31t118 6t108 24l96 784h232l-117 -948q-30 -10 -76.5 -21.5t-114 -25t-137.5 -19.5t-142.5 -6.5t-135 15t-109.5 44t-70 82t-14 126.5zM391 1106l258 233l203 -233h-156l-67 74l-82 -74h-156z" />
<glyph unicode="&#xfc;" horiz-adv-x="1116" d="M92 242l92 753h230l-86 -698q-6 -56 30 -85t96 -31t118 6t108 24l96 784h232l-117 -948q-35 -12 -91 -25.5t-136.5 -27t-161 -19t-160 5t-138 37t-90.5 84t-22 140.5zM328 1235q-2 54 35.5 92.5t91.5 38.5t92.5 -38.5t40.5 -92.5q-1 -54 -40 -91.5t-93 -37.5t-91 37.5 t-36 91.5zM684 1235q-2 54 35.5 92.5t91.5 38.5t92.5 -38.5t40.5 -92.5q-1 -54 -40 -91.5t-93 -37.5t-91 37.5t-36 91.5z" />
<glyph unicode="&#xfd;" horiz-adv-x="1013" d="M41 -406l25 199q143 -43 301 -51q121 -6 172 36t61 120l10 96q-69 -11 -133 -15.5t-133 -2t-123.5 19.5t-97.5 46t-62.5 80t-11.5 120l94 755h230l-86 -700q-7 -56 29 -85t95.5 -31t117.5 6t108 24l98 786h232l-136 -1116q-21 -167 -121.5 -249.5t-316.5 -82.5 q-83 0 -184 12t-168 33zM422 1122l201 320h172l-197 -320h-176z" />
<glyph unicode="&#xfe;" horiz-adv-x="1083" d="M41 -360l209 1724h231l-45 -369q71 12 130 18t120.5 5.5t108.5 -10.5t88 -33t65.5 -58.5t35 -90t1.5 -124.5l-51 -411q-10 -79 -39 -137.5t-75 -93t-99.5 -55t-124 -25.5t-136.5 -2t-147 14l-43 -352h-229zM340 207q37 -7 51 -9.5t51 -8t54.5 -5.5h49.5t49 6t40 15.5 t35.5 25t23.5 38.5t15 53l43 350q5 38 -4 65.5t-25.5 43t-47 23t-57.5 8.5t-68.5 -4t-69.5 -10t-70 -14z" />
<glyph unicode="&#xff;" horiz-adv-x="1013" d="M47 -406l25 199q140 -43 301 -51q119 -6 170 36t61 120l12 96q-69 -11 -133.5 -15.5t-133.5 -2t-124 19.5t-97.5 46t-62 80t-10.5 120l92 755h230l-86 -700q-7 -56 29 -85t96 -31t118 6t109 24l96 786h232l-135 -1116q-21 -167 -122 -249.5t-317 -82.5q-83 0 -183.5 12 t-166.5 33zM293 1235q-1 54 37 92.5t92 38.5t91.5 -38.5t39.5 -92.5q0 -54 -39.5 -91.5t-93.5 -37.5t-90.5 37.5t-36.5 91.5zM649 1235q-1 54 37 92.5t92 38.5t91.5 -38.5t39.5 -92.5q0 -54 -39.5 -91.5t-93.5 -37.5t-90.5 37.5t-36.5 91.5z" />
<glyph unicode="&#x152;" horiz-adv-x="1835" d="M90 420l64 524q11 89 47.5 162t101.5 132.5t171.5 92.5t246.5 33h1083l-26 -227h-578l-41 -330h533l-29 -227h-533l-43 -353h578l-27 -227h-1083q-140 0 -238.5 33t-150 92.5t-69.5 132.5t-7 162zM350 434q-13 -102 40 -154.5t192 -52.5h247l113 910h-248 q-139 0 -205 -52.5t-79 -154.5z" />
<glyph unicode="&#x153;" horiz-adv-x="1695" d="M104 352l35 289q20 165 129 268t310 107h81q179 -6 265 -92q119 94 317 94q93 0 160.5 -21t105.5 -58.5t59.5 -88t22 -110t-5.5 -124.5l-27 -213h-555l-6 -51q-11 -93 25.5 -130.5t148.5 -37.5q57 0 159.5 14.5t168.5 32.5l-27 -204q-161 -47 -350 -47q-210 0 -301 88 q-108 -85 -289 -91h-81q-102 2 -175 31.5t-112.5 81t-53.5 117t-4 145.5zM332 369q-21 -178 160 -181h51q181 3 202 181l31 256q21 176 -158 182h-51q-184 -6 -205 -182zM1026 604h317l7 49q8 78 -19.5 119t-113.5 41q-168 0 -185 -160z" />
<glyph unicode="&#x178;" horiz-adv-x="1159" d="M70 1364h274l211 -688l379 688h274l-559 -969l-47 -395h-258l47 395zM360 1602q-2 54 35.5 92.5t91.5 38.5t93 -38.5t41 -92.5q-1 -54 -40.5 -91.5t-93.5 -37.5t-91 37.5t-36 91.5zM717 1602q-2 54 35.5 92.5t91.5 38.5t92.5 -38.5t40.5 -92.5q-1 -54 -40 -91.5 t-93 -37.5t-91 37.5t-36 91.5z" />
<glyph unicode="&#x2c6;" horiz-adv-x="796" d="M152 1106l256 233l204 -233h-155l-68 74l-82 -74h-155z" />
<glyph unicode="&#x2dc;" horiz-adv-x="866" d="M106 1206q42 61 97 100t121 49.5t129 -32.5q33 -20 54.5 -29.5t48.5 -11.5t49 16.5t42 57.5l113 -62q-32 -69 -91 -114.5t-126.5 -52.5t-132.5 34q-60 46 -105 39.5t-106 -78.5z" />
<glyph unicode="&#x2000;" horiz-adv-x="904" />
<glyph unicode="&#x2001;" horiz-adv-x="1808" />
<glyph unicode="&#x2002;" horiz-adv-x="904" />
<glyph unicode="&#x2003;" horiz-adv-x="1808" />
<glyph unicode="&#x2004;" horiz-adv-x="602" />
<glyph unicode="&#x2005;" horiz-adv-x="452" />
<glyph unicode="&#x2006;" horiz-adv-x="301" />
<glyph unicode="&#x2007;" horiz-adv-x="301" />
<glyph unicode="&#x2008;" horiz-adv-x="226" />
<glyph unicode="&#x2009;" horiz-adv-x="361" />
<glyph unicode="&#x200a;" horiz-adv-x="100" />
<glyph unicode="&#x2010;" horiz-adv-x="761" d="M109 469l26 209h516l-26 -209h-516z" />
<glyph unicode="&#x2011;" horiz-adv-x="761" d="M109 469l26 209h516l-26 -209h-516z" />
<glyph unicode="&#x2012;" horiz-adv-x="761" d="M109 469l26 209h516l-26 -209h-516z" />
<glyph unicode="&#x2013;" d="M143 469l27 209h758l-27 -209h-758z" />
<glyph unicode="&#x2014;" horiz-adv-x="1320" d="M119 469l26 209h1055l-26 -209h-1055z" />
<glyph unicode="&#x2018;" horiz-adv-x="561" d="M131 1114v12.5t4.5 38.5t14.5 65t32 92.5t54 119.5h98l-72 -182q6 2 19 2q61 0 104 -43t43 -105t-43 -104.5t-104 -42.5q-62 0 -106 43t-44 104z" />
<glyph unicode="&#x2019;" horiz-adv-x="540" d="M123 1294q0 62 43 105t104 43q62 0 106 -43.5t44 -104.5q1 -12 -1 -35.5t-28 -108t-76 -183.5h-98l72 182q-6 -2 -19 -2q-62 0 -104.5 42.5t-42.5 104.5z" />
<glyph unicode="&#x201a;" horiz-adv-x="561" d="M131 141q0 61 43.5 104.5t104.5 43.5q62 0 105.5 -43.5t43.5 -104.5q-2 -4 0 -12.5t-4 -38.5t-14.5 -64.5t-31 -92t-54.5 -119.5h-99l72 182q-6 -2 -18 -2q-62 0 -105 43t-43 104z" />
<glyph unicode="&#x201c;" horiz-adv-x="925" d="M131 1114v12.5t4.5 38.5t14.5 65t32 92.5t54 119.5h98l-72 -182q6 2 19 2q61 0 104 -43t43 -105t-43 -104.5t-104 -42.5q-62 0 -106 43t-44 104zM522 1114v12.5t4.5 38.5t14.5 65t32 92.5t54 119.5h98l-72 -182q6 2 19 2q61 0 104 -43t43 -105t-42.5 -104.5t-104.5 -42.5 t-106 43t-44 104z" />
<glyph unicode="&#x201d;" horiz-adv-x="946" d="M123 1294q0 62 43 105t104 43q62 0 106 -43.5t44 -104.5q1 -12 -1 -35.5t-28 -108t-76 -183.5h-98l72 182q-6 -2 -19 -2q-62 0 -104.5 42.5t-42.5 104.5zM514 1294q0 62 43 105t105 43t105.5 -43.5t43.5 -104.5q-2 -4 0 -12.5t-4 -38.5t-14.5 -64.5t-31 -92t-54.5 -119.5 h-99l72 182q-6 -2 -18 -2q-62 0 -105 43t-43 104z" />
<glyph unicode="&#x201e;" horiz-adv-x="970" d="M131 141q0 61 43.5 104.5t104.5 43.5q62 0 105.5 -43.5t43.5 -104.5q-2 -4 0 -12.5t-4 -38.5t-14.5 -64.5t-31 -92t-54.5 -119.5h-99l72 182q-6 -2 -18 -2q-62 0 -105 43t-43 104zM532 141q0 61 43 104.5t105 43.5t105.5 -43.5t43.5 -104.5q-2 -4 0 -12.5t-4 -38.5 t-14.5 -64.5t-31 -92t-54.5 -119.5h-98l71 182q-6 -2 -18 -2q-62 0 -105 43t-43 104z" />
<glyph unicode="&#x2022;" horiz-adv-x="755" d="M111 616q0 110 77.5 188.5t186.5 78.5q110 0 188 -78.5t78 -188.5q0 -109 -78 -186.5t-188 -77.5q-109 0 -186.5 77.5t-77.5 186.5z" />
<glyph unicode="&#x2026;" horiz-adv-x="1683" d="M182 141q-1 61 41.5 104.5t104.5 43.5q61 0 104 -43t45 -105q-2 -62 -45 -104.5t-104 -42.5q-62 0 -104.5 43t-41.5 104zM690 141q-1 61 41.5 104.5t104.5 43.5q61 0 104 -43t45 -105q-2 -62 -45 -104.5t-104 -42.5q-62 0 -104.5 43t-41.5 104zM1206 141 q-1 61 41.5 104.5t104.5 43.5q61 0 104 -43t45 -105q-2 -62 -45 -104.5t-104 -42.5q-62 0 -104.5 43t-41.5 104z" />
<glyph unicode="&#x202f;" horiz-adv-x="361" />
<glyph unicode="&#x2039;" horiz-adv-x="610" d="M102 500l242 313h201l-242 -313l168 -316h-203z" />
<glyph unicode="&#x203a;" horiz-adv-x="610" d="M63 184l246 316l-168 313h201l168 -313l-244 -316h-203z" />
<glyph unicode="&#x205f;" horiz-adv-x="452" />
<glyph unicode="&#x20ac;" horiz-adv-x="1146" d="M2 379l23 172h92l24 211h-102l22 172h103l6 55q49 395 535 395q180 0 380 -45l-28 -229q-223 41 -373 41q-131 0 -189.5 -48t-72.5 -159v-10h383l-23 -172h-383l-24 -211h393l-23 -172h-391q-3 -89 45 -127.5t168 -38.5q142 0 385 43l-28 -231q-225 -45 -394 -45 q-249 0 -354.5 101t-81.5 294v4h-92z" />
<glyph unicode="&#x2122;" horiz-adv-x="1583" d="M158 1247v115h510v-115h-191v-567h-129v567h-190zM762 680v682h162l166 -522l165 522h162v-682h-117v465l-143 -453h-135l-143 453v-465h-117z" />
<glyph unicode="&#x25fc;" horiz-adv-x="993" d="M0 0v993h993v-993h-993z" />
</font>
</defs>
</svg>
