<?xml version="1.0" standalone="no"?>
<!DOCTYPE svg PUBLIC "-//W3C//DTD SVG 1.1//EN" "http://www.w3.org/Graphics/SVG/1.1/DTD/svg11.dtd" >
<svg xmlns="http://www.w3.org/2000/svg" xmlns:xlink="http://www.w3.org/1999/xlink" version="1.1">
<metadata></metadata>
<defs>
<font id="deria_sansregular" horiz-adv-x="1091" >
<font-face units-per-em="2048" ascent="1638" descent="-410" />
<missing-glyph horiz-adv-x="440" />
<glyph horiz-adv-x="0" />
<glyph horiz-adv-x="682" />
<glyph unicode=" "  horiz-adv-x="440" />
<glyph unicode="&#x09;" horiz-adv-x="440" />
<glyph unicode="&#xa0;" horiz-adv-x="440" />
<glyph unicode="!" horiz-adv-x="544" d="M186 86q0 -35 25.5 -60.5t60.5 -25.5t60.5 25.5t25.5 60.5t-25.5 60.5t-60.5 25.5t-60.5 -25.5t-25.5 -60.5zM186 315v1071h172v-1071h-172z" />
<glyph unicode="&#x22;" horiz-adv-x="616" d="M104 924v489l142 -2v-487h-142zM362 924v489l142 -2v-487h-142z" />
<glyph unicode="#" horiz-adv-x="1292" d="M100 389l15 172h209l22 264h-209l15 172h208l35 389h172l-35 -389h265l34 389h173l-35 -389h209l-15 -172h-209l-22 -264h209l-15 -172h-208l-35 -389h-172l34 389h-264l-35 -389h-172l35 389h-209zM496 561h264l22 264h-264z" />
<glyph unicode="$" horiz-adv-x="1085" d="M82 991q0 192 87 295.5t300 112.5v133h178v-135q95 -6 287 -29v-158q-295 33 -416 33q-63 0 -106.5 -9.5t-81.5 -35t-57 -78t-19 -131.5q3 -123 58 -165t206 -42h74q121 0 207 -32.5t133 -91.5t67.5 -128.5t20.5 -156.5q0 -61 -11 -113t-37.5 -101t-68 -85t-107 -60 t-149.5 -30v-144h-178v146q-60 3 -373 30v158q348 -35 490 -35q262 0 262 223q0 130 -57.5 196.5t-204.5 66.5h-74q-123 0 -207.5 24t-133 72.5t-69 113.5t-20.5 156z" />
<glyph unicode="%" horiz-adv-x="1824" d="M88 854v231q0 132 76.5 214t236.5 85h45q160 -3 237 -85t77 -214v-231q0 -133 -77 -214.5t-237 -84.5h-45q-160 3 -236.5 84.5t-76.5 214.5zM246 862q0 -154 157 -160h41q158 6 158 160v215q0 154 -158 160h-41q-157 -6 -157 -160v-215zM608 0l430 1384h164l-432 -1384 h-162zM1055 295v231q0 132 76.5 214t236.5 85h45q160 -3 236.5 -85t76.5 -214v-231q0 -133 -76.5 -214.5t-236.5 -84.5h-45q-160 3 -236.5 84.5t-76.5 214.5zM1212 303q0 -154 158 -160h41q158 6 158 160v215q0 154 -158 160h-41q-158 -6 -158 -160v-215z" />
<glyph unicode="&#x26;" horiz-adv-x="1400" d="M127 324v55q0 207 141 305q-127 98 -127 295v59q0 79 22 144.5t67.5 117t122.5 81.5t179 32h58q102 -2 179 -32t122.5 -81.5t67.5 -117t22 -144.5v-59q0 -202 -129 -299q135 -98 135 -301v-84h-172v90q0 105 -55.5 160.5t-163.5 58.5h-78q-108 -3 -163.5 -58.5 t-55.5 -160.5v-68q0 -213 219 -219h365q219 6 219 219v187h172v-180q0 -166 -95.5 -268.5t-295.5 -106.5h-365q-200 4 -295.5 106.5t-95.5 268.5zM313 973q0 -213 219 -219h58q219 6 219 219v71q0 105 -55.5 161t-163.5 59h-58q-108 -3 -163.5 -59t-55.5 -161v-71z" />
<glyph unicode="'" horiz-adv-x="358" d="M104 924v489l142 -2v-487h-142z" />
<glyph unicode="(" horiz-adv-x="622" d="M143 623q0 469 258 856h181q-144 -223 -205.5 -425t-61.5 -431t61.5 -431t205.5 -425h-181q-258 387 -258 856z" />
<glyph unicode=")" horiz-adv-x="622" d="M41 1479h180q258 -392 258 -856q0 -466 -254 -850h-180q140 221 201 422t61 428q0 229 -61.5 431t-204.5 425z" />
<glyph unicode="*" horiz-adv-x="968" d="M141 938l224 129l-224 129l62 107l223 -129v258h123v-258l223 129l62 -107l-224 -129l224 -129l-62 -107l-223 130v-259h-123v259l-223 -130z" />
<glyph unicode="+" horiz-adv-x="1077" d="M123 426v143h340v346h151v-346h340v-143h-340v-346h-151v346h-340z" />
<glyph unicode="," horiz-adv-x="407" d="M109 92q0 41 28 68.5t68 27.5t68 -27.5t28 -68.5q0 -26 -20 -85t-68 -142h-72l47 133q-34 5 -56.5 31.5t-22.5 62.5z" />
<glyph unicode="-" horiz-adv-x="757" d="M123 500v141h512v-141h-512z" />
<glyph unicode="." horiz-adv-x="407" d="M109 94q0 38 28 66t66 28t66 -28t28 -66t-28 -66t-66 -28t-66 28t-28 66z" />
<glyph unicode="/" horiz-adv-x="913" d="M197 0l430 1386h164l-433 -1386h-161z" />
<glyph unicode="0" horiz-adv-x="1114" d="M133 334v653q0 164 101.5 259t322.5 95t322.5 -95t101.5 -259v-653q0 -164 -101.5 -259t-322.5 -95t-322.5 95t-101.5 259zM305 350q0 -115 55.5 -167t196.5 -52t196.5 52t55.5 167v621q0 115 -55.5 167t-196.5 52t-196.5 -52t-55.5 -167v-621z" />
<glyph unicode="1" horiz-adv-x="708" d="M168 1090v153l197 88h155v-1331h-172v1163z" />
<glyph unicode="2" horiz-adv-x="1097" d="M115 0v309q4 410 428 410q152 0 206.5 41t57.5 164q0 79 -19 131.5t-57 78t-81.5 35t-106.5 9.5q-138 0 -353 -64v160q190 61 359 61q123 0 208 -28t133 -83.5t68.5 -127.5t20.5 -170q0 -91 -20.5 -156t-69 -113.5t-133 -72t-207.5 -23.5q-147 0 -205.5 -66.5 t-56.5 -195.5v-133h698v-166h-870z" />
<glyph unicode="3" horiz-adv-x="1001" d="M117 51v154q195 -58 352 -58q51 0 86.5 4.5t71.5 19.5t57.5 41t35 70.5t13.5 106.5q-2 63 -14 100.5t-44 59.5t-77.5 30t-122.5 9h-268v157h262q153 0 207 38.5t57 160.5q0 62 -13.5 106.5t-35 70.5t-57.5 41t-71.5 19.5t-86.5 4.5q-157 0 -352 -58v154q190 61 358 61 q122 0 207.5 -28t133.5 -82t68.5 -123.5t20.5 -163.5q0 -198 -108 -280q58 -44 83 -112t25 -167q0 -94 -20.5 -163.5t-68.5 -123.5t-133.5 -82t-207.5 -28q-168 0 -358 61z" />
<glyph unicode="4" horiz-adv-x="1089" d="M111 238v188l567 907h231v-934h144v-161h-144v-240h-174v240h-624zM285 399h450v711z" />
<glyph unicode="5" horiz-adv-x="958" d="M135 25v145q151 -29 303 -29q143 0 196.5 45.5t53.5 149.5v102q0 51 -7.5 82.5t-29 55.5t-61 35.5t-103.5 15.5q-131 7 -178.5 8t-156.5 -2v696h692v-151h-520v-396q128 0 225 -6q157 -10 234 -89.5t77 -215.5v-145q0 -76 -21 -134.5t-68 -105t-131 -71.5t-202 -25 q-155 0 -303 35z" />
<glyph unicode="6" horiz-adv-x="1050" d="M143 303v576q0 226 100.5 344t301.5 118q177 0 327 -59v-158q-68 38 -152.5 56.5t-164.5 13.5q-142 -6 -192 -74.5t-50 -242.5v-101q53 20 130.5 33.5t142.5 13.5q190 0 270 -78.5t80 -246.5v-123q0 -97 -15.5 -163t-57.5 -119.5t-121 -79t-199 -25.5q-212 0 -306 81 t-94 234zM313 328q0 -106 54.5 -147.5t175.5 -41.5q129 0 176 42.5t47 146.5v170q0 96 -43 136t-154 40q-125 0 -256 -56v-290z" />
<glyph unicode="7" horiz-adv-x="925" d="M61 1176v153h799v-145l-571 -1184h-183l566 1176h-611z" />
<glyph unicode="8" horiz-adv-x="1097" d="M127 360v7q0 198 133 299q-133 98 -133 301v4q0 79 22 144.5t67.5 117t122.5 81.5t179 32h57q102 -2 179 -32t123 -81.5t68 -117t22 -144.5v-4q0 -205 -133 -301q133 -99 133 -299v-7q0 -166 -96 -268t-296 -106h-57q-200 4 -295.5 106t-95.5 268zM299 354 q0 -213 219 -219h57q220 6 220 219v19q0 105 -56 160.5t-164 58.5h-57q-108 -3 -163.5 -58.5t-55.5 -160.5v-19zM299 961q0 -214 219 -220h57q220 6 220 220v16q0 105 -56 160.5t-164 58.5h-57q-108 -3 -163.5 -58.5t-55.5 -160.5v-16z" />
<glyph unicode="9" horiz-adv-x="1054" d="M147 823v131q0 77 9.5 133t35 106.5t69 81t113.5 48.5t167 18q212 0 305.5 -81t93.5 -234v-577q0 -226 -100 -344.5t-301 -118.5q-178 0 -328 59v164q69 -38 153 -57.5t164 -14.5q142 6 192 73.5t50 240.5v94q-53 -20 -130 -33.5t-142 -13.5q-190 0 -270.5 79t-80.5 246z M317 823q0 -96 43 -136t154 -40q127 0 256 55v299q0 106 -54 147.5t-175 41.5q-129 0 -176.5 -42.5t-47.5 -146.5v-178z" />
<glyph unicode=":" horiz-adv-x="411" d="M115 94q0 38 28 66t66 28t66 -28t28 -66t-28 -66t-66 -28t-66 28t-28 66zM115 795q0 38 28 66t66 28t66 -28t28 -66t-28 -66.5t-66 -28.5t-66 28.5t-28 66.5z" />
<glyph unicode=";" horiz-adv-x="411" d="M106 797q0 38 28.5 66t66.5 28t66 -28t28 -66t-28 -66.5t-66 -28.5t-66.5 28.5t-28.5 66.5zM109 92q0 41 28 68.5t68 27.5t68 -27.5t28 -68.5q0 -26 -20 -85t-68 -142h-72l47 133q-34 5 -56.5 31.5t-22.5 62.5z" />
<glyph unicode="&#x3c;" horiz-adv-x="1026" d="M102 467v106l842 465v-147l-682 -371l682 -373v-145z" />
<glyph unicode="=" horiz-adv-x="1042" d="M143 248v127h756v-127h-756zM143 612v127h756v-127h-756z" />
<glyph unicode="&#x3e;" horiz-adv-x="1021" d="M96 -2v145l684 373l-684 373v145l844 -465v-106z" />
<glyph unicode="?" horiz-adv-x="1085" d="M117 1229v157q241 33 422 33q123 0 208 -28t133 -83.5t68.5 -127.5t20.5 -170q0 -91 -20.5 -156t-69 -114t-133 -73t-207.5 -24h-52v-338h-151v496h196q151 0 206.5 42t58.5 165q0 79 -19 131.5t-57.5 78t-82 35t-106.5 9.5q-120 0 -415 -33zM315 94q0 38 28.5 66 t66.5 28t66 -28t28 -66t-28 -66t-66 -28t-66.5 28t-28.5 66z" />
<glyph unicode="@" horiz-adv-x="1898" d="M154 154v923q0 100 68.5 181.5t180 132t254.5 78.5t291.5 28.5t291.5 -26t254.5 -77t180 -132.5t68.5 -185v-631q0 -97 -32 -161.5t-81 -94t-118.5 -37.5t-133.5 0t-137 27q-54 -14 -108 -24.5t-124.5 -18.5t-131.5 -7t-122 15.5t-104.5 42.5t-70.5 79t-27 122v447 q0 72 27 124t75 79t106 42t128 13t132 -8t127.5 -20.5t105.5 -25t73 -20.5v-698q50 -15 92 -17.5t77 9t55 47t20 92.5v618q0 62 -53.5 113t-141 83.5t-199.5 51t-228.5 20t-228.5 -14.5t-199.5 -48t-141 -85t-53.5 -120v-903q0 -77 69 -135.5t180.5 -87.5t243 -39t266.5 4.5 t242 48.5v-156q-117 -37 -251.5 -51.5t-263.5 -6.5t-249 40t-210.5 82t-144.5 124.5t-54 162.5zM725 395q0 -55 48 -83t120.5 -27.5t139.5 10.5t122 27v581q-55 17 -122 27t-139.5 10t-120.5 -28t-48 -83v-434z" />
<glyph unicode="A" horiz-adv-x="1239" d="M158 -2v993q0 391 438 391h49q438 0 438 -391v-993h-176v631h-573v-631h-176zM334 780h573v199q0 126 -59.5 186t-208.5 60h-37q-149 0 -208.5 -60t-59.5 -186v-199z" />
<glyph unicode="B" horiz-adv-x="1134" d="M143 0v1384h508q320 0 320 -276v-178q0 -85 -33 -140.5t-119 -87.5q89 -16 142 -78t53 -167v-164q0 -141 -89 -217t-245 -76h-537zM303 147h363q93 0 139.5 41t46.5 119v139q0 170 -197 170h-352v-469zM303 766h315q185 0 185 164v178q0 66 -38 97.5t-118 31.5h-344v-471 z" />
<glyph unicode="C" horiz-adv-x="1032" d="M143 385v598q0 199 111.5 300t355.5 101q166 0 320 -32v-156q-168 29 -314 29q-167 0 -232 -55t-65 -197v-578q0 -142 65 -197t232 -55q139 0 314 27v-156q-160 -30 -320 -30q-244 0 -355.5 101t-111.5 300z" />
<glyph unicode="D" horiz-adv-x="1181" d="M166 0v1384h461q438 0 438 -391v-602q0 -391 -438 -391h-461zM342 158h279q149 0 208.5 59.5t59.5 185.5v578q0 126 -59.5 186t-208.5 60h-279v-1069z" />
<glyph unicode="E" horiz-adv-x="1105" d="M174 0v1382h803v-157h-627v-447h582v-157h-582v-463h629v-158h-805z" />
<glyph unicode="F" horiz-adv-x="1067" d="M174 0v1382h811v-157h-635v-445h592v-157h-592v-623h-176z" />
<glyph unicode="G" horiz-adv-x="1183" d="M143 387v594q0 209 112.5 306t365.5 97q186 0 356 -38v-156q-199 35 -365 35q-167 0 -230 -56t-63 -196v-576q0 -69 12 -113.5t43 -77t87 -47t143 -14.5q125 0 256 25v453h-260v170h430v-748q-201 -59 -432 -59q-128 0 -217.5 26.5t-141 80t-74 125t-22.5 169.5z" />
<glyph unicode="H" horiz-adv-x="1304" d="M174 0v1384h176v-602h604v602h176v-1384h-176v625h-604v-625h-176z" />
<glyph unicode="I" horiz-adv-x="544" d="M184 0v1382h176v-1382h-176z" />
<glyph unicode="J" horiz-adv-x="921" d="M80 0v158h244q149 0 208.5 59.5t59.5 185.5v822h-447v157h623v-991q0 -391 -438 -391h-250z" />
<glyph unicode="K" horiz-adv-x="1146" d="M174 0v1384h176v-679l522 679h207l-538 -690l540 -694h-209l-522 682v-682h-176z" />
<glyph unicode="L" horiz-adv-x="1026" d="M174 0v1382h176v-1224h592v-158h-768z" />
<glyph unicode="M" horiz-adv-x="1585" d="M147 2v1382h271l373 -1198l372 1198h271v-1382h-177v1124l-348 -1110h-237l-348 1110v-1124h-177z" />
<glyph unicode="N" horiz-adv-x="1351" d="M170 0v1384h246l594 -1171v1171h172v-1384h-246l-594 1165v-1165h-172z" />
<glyph unicode="O" horiz-adv-x="1273" d="M133 393v602q0 391 438 391h134q438 0 438 -391v-602q0 -391 -438 -391h-134q-438 0 -438 391zM309 406q0 -126 60 -186t209 -60h120q149 0 209 60t60 186v577q0 126 -60 186t-209 60h-120q-149 0 -209 -60t-60 -186v-577z" />
<glyph unicode="P" horiz-adv-x="1140" d="M174 0v1384h494q211 0 303 -85t92 -250v-162q0 -166 -92 -252t-303 -86h-318v-549h-176zM350 707h312q126 0 175.5 40t49.5 140v160q0 101 -49.5 140.5t-175.5 39.5h-312v-520z" />
<glyph unicode="Q" horiz-adv-x="1245" d="M117 391v602q0 391 438 391h113q438 0 438 -391v-602q0 -111 -35 -188l139 -140l-123 -124l-131 129q-108 -68 -288 -68h-113q-438 0 -438 391zM293 403q0 -126 59.5 -185.5t208.5 -59.5h101q149 0 208.5 59.5t59.5 185.5v578q0 126 -59.5 186t-208.5 60h-101 q-149 0 -208.5 -60t-59.5 -186v-578z" />
<glyph unicode="R" horiz-adv-x="1257" d="M174 0v1382h520q211 0 303.5 -85.5t92.5 -249.5v-216q0 -126 -51.5 -205t-166.5 -112l355 -514h-203l-340 494h-334v-494h-176zM350 649h338q126 0 175.5 40t49.5 140v215q0 101 -49.5 141t-175.5 40h-338v-576z" />
<glyph unicode="S" horiz-adv-x="1103" d="M90 991q0 98 20.5 170t68.5 128t133 84t208 28q181 0 422 -33v-158q-295 33 -416 33q-63 0 -106.5 -9.5t-81.5 -35t-57 -78t-19 -131.5q3 -123 58 -165t206 -42h74q121 0 207 -32.5t133 -91.5t67.5 -128.5t20.5 -156.5q0 -64 -12 -119t-42.5 -106t-78 -87t-123 -57.5 t-172.5 -21.5q-75 0 -156 5t-192 15.5t-148 13.5v158q348 -35 490 -35q262 0 262 223q0 130 -57.5 196.5t-204.5 66.5h-74q-123 0 -207.5 24t-133 72.5t-69 113.5t-20.5 156z" />
<glyph unicode="T" horiz-adv-x="1073" d="M41 1225v157h991v-157h-407v-1225h-176v1225h-408z" />
<glyph unicode="U" horiz-adv-x="1267" d="M137 393v989h176v-976q0 -126 60 -186t209 -60h108q149 0 208.5 60t59.5 186v976h177v-989q0 -68 -13.5 -124.5t-45 -106.5t-81 -85t-125.5 -55t-174 -20h-121q-438 0 -438 391z" />
<glyph unicode="V" horiz-adv-x="1212" d="M25 1384h182l399 -1230l400 1230h182l-451 -1384h-262z" />
<glyph unicode="W" horiz-adv-x="1859" d="M41 1384h170l319 -1230l320 1230h170l319 -1230l320 1230h170l-361 -1384h-258l-276 1057l-275 -1057h-258z" />
<glyph unicode="X" horiz-adv-x="1206" d="M59 1384h189l354 -553l346 553h189l-437 -692l445 -692h-189l-354 553l-352 -553h-189l443 692z" />
<glyph unicode="Y" horiz-adv-x="1122" d="M10 1384h185l366 -782l369 782h184l-467 -972v-412h-172v412z" />
<glyph unicode="Z" horiz-adv-x="1146" d="M123 0v152l702 1079h-690v151h885v-151l-705 -1079h719v-152h-911z" />
<glyph unicode="[" horiz-adv-x="632" d="M195 -258v1876h397v-148h-225v-1581h225v-147h-397z" />
<glyph unicode="\" horiz-adv-x="903" d="M121 1386h164l430 -1386h-162z" />
<glyph unicode="]" horiz-adv-x="632" d="M41 -111h225v1581h-225v148h397v-1876h-397v147z" />
<glyph unicode="^" horiz-adv-x="942" d="M98 848l299 557h148l299 -557h-158l-215 407l-217 -407h-156z" />
<glyph unicode="_" horiz-adv-x="880" d="M-2 -20h885v-107h-885v107z" />
<glyph unicode="`" horiz-adv-x="641" d="M166 1257v142l332 -185v-141z" />
<glyph unicode="a" horiz-adv-x="1009" d="M127 291v26q0 72 17 126.5t45 89.5t71.5 57.5t90 32t107.5 9.5t116 -5.5t124 -16.5v95q0 94 -47.5 130.5t-169.5 36.5q-125 0 -297 -55v154q152 49 308 49q207 0 292.5 -79t85.5 -245v-667q-245 -46 -346 -52q-27 -2 -52 -2q-215 0 -294 115q-51 75 -51 201zM299 285 q0 -45 13.5 -77.5t33 -51.5t53.5 -28q33 -10 63 -12q10 -1 22 -1q23 0 53 4q45 5 74.5 10t76.5 14q7 1 10 2v318h-1h-1l-1 1h-1h-1h-1h-1l-1 1h-1h-1h-1h-1q-136 26 -209 26q-16 0 -29 -1q-149 -14 -149 -166v-39z" />
<glyph unicode="b" horiz-adv-x="1062" d="M164 29v1355h172v-385q69 11 124 16.5t116 5.5t107.5 -9.5t90 -31.5t71.5 -57t45 -89.5t17 -126.5v-416q0 -84 -24.5 -144t-57.5 -96t-97 -53q-66 -17 -114 -22q-17 -2 -39 -2q-41 0 -99 6q-90 9 -138.5 17.5t-146.5 26.5q-18 3 -27 5zM336 145q149 -28 219 -28h13 q160 7 167 155v13v428q0 52 -14.5 88t-50.5 51.5t-62 24.5q-16 5 -44 5q-18 0 -42 -2q-60 -6 -83.5 -9.5t-90.5 -16.5q-8 -1 -12 -2v-707z" />
<glyph unicode="c" horiz-adv-x="872" d="M127 297v401q0 149 75.5 227t246.5 93q39 2 77 2q147 0 273 -31v-147q-143 28 -256 28q-138 0 -192 -38.5t-54 -143.5v-381q0 -106 54.5 -145t191.5 -39q77 0 256 39v-148q-140 -38 -304 -38q-23 0 -46 1q-171 15 -246.5 93t-75.5 227z" />
<glyph unicode="d" horiz-adv-x="1071" d="M164 291v416q0 72 17 126.5t45 89.5t71.5 57t90 31.5t107.5 9.5t116 -5.5t124 -16.5v387h172v-1357q-245 -46 -346 -52q-27 -2 -52 -2q-215 0 -294 115q-51 75 -51 201zM336 285q0 -45 13.5 -77.5t33 -51.5t53.5 -28q34 -10 64 -12q10 -1 21 -1q23 0 53 4q45 5 74.5 10 t76.5 14q7 1 10 2v707q-152 29 -221 29h-8q-161 -6 -170 -151v-17v-428z" />
<glyph unicode="e" horiz-adv-x="1001" d="M113 356v289q0 79 22 144.5t67.5 117t122.5 81.5t179 32q102 -2 179 -32t122.5 -81.5t67.5 -117t22 -144.5v-221h-610v-74q0 -213 219 -219q60 2 157.5 21.5t188.5 54.5v-148q-87 -38 -185 -56.5t-161 -20.5q-200 4 -295.5 106t-95.5 268zM285 584h438v67 q0 105 -55.5 160.5t-163.5 58.5q-108 -3 -163.5 -58.5t-55.5 -160.5v-67z" />
<glyph unicode="f" horiz-adv-x="722" d="M61 854v143h177v140q0 131 71.5 197.5t210.5 66.5q79 0 154 -17v-139q-71 12 -131 12q-78 0 -105.5 -30t-27.5 -107v-123h264v-143h-264v-854h-172v854h-177z" />
<glyph unicode="g" horiz-adv-x="1003" d="M127 297v403q0 84 23 144.5t60 95.5t96 53t116 22q20 1 43 1q42 0 93 -4q79 -8 142 -18.5t145 -25.5q17 -3 25 -5v-1078q0 -166 -85.5 -244.5t-292.5 -78.5q-155 0 -308 39v149q200 -41 297 -41q121 0 169 37t48 131v127q-69 -11 -124 -16.5t-116 -5.5t-107.5 9.5t-90 32 t-71.5 57.5t-45 89.5t-17 126.5zM299 291q0 -52 14.5 -88t50.5 -51.5t62 -24.5q16 -5 44 -5q18 0 42 2q61 6 84 9.5t90 16.5q8 1 12 2v694q-152 29 -221 29h-8q-161 -6 -170 -151v-17v-416z" />
<glyph unicode="h" d="M164 0v1386h172v-395q55 12 108 19q52 8 114 10q20 1 40 1q38 0 74 -4q52 -5 102.5 -22t85.5 -45.5t56.5 -76t21.5 -109.5v-764h-172v758q0 55 -48 83q-47 28 -118 28q0 -1 -2 -1q-72 0 -139.5 -10t-122.5 -27v-831h-172z" />
<glyph unicode="i" horiz-adv-x="499" d="M164 0v997h172v-997h-172zM164 1237q0 35 25.5 60.5t60.5 25.5t60.5 -25.5t25.5 -60.5t-25.5 -60.5t-60.5 -25.5t-60.5 25.5t-25.5 60.5z" />
<glyph unicode="j" horiz-adv-x="489" d="M-43 -287q110 2 158.5 37.5t48.5 138.5v1108h172v-1099q0 -166 -86 -245t-293 -79v139zM164 1237q0 35 25.5 60.5t60.5 25.5t60.5 -25.5t25.5 -60.5t-25.5 -60.5t-60.5 -25.5t-60.5 25.5t-25.5 60.5z" />
<glyph unicode="k" horiz-adv-x="983" d="M164 0v1386h172v-872l395 483h199l-408 -493l410 -504h-203l-393 492v-492h-172z" />
<glyph unicode="l" horiz-adv-x="499" d="M164 0v1386l172 -2v-1384h-172z" />
<glyph unicode="m" horiz-adv-x="1693" d="M160 -6v948q56 18 127 34t177 32q63 9 123 10q42 0 83 -5q101 -11 166 -52q52 14 103 25t123 20q70 10 132 10q2 0 5 1q59 -1 120 -13q63 -12 107.5 -40t73 -80.5t28.5 -125.5v-764h-172v754q0 44 -32 69t-80 30q-22 2 -46 2q-29 0 -63 -3q-61 -6 -110.5 -16.5 t-94.5 -24.5q4 -28 4 -47v-764h-172v754q0 54 -48 80q-42 22 -104 23q-9 -1 -17 -1q-74 -4 -138.5 -15.5t-122.5 -29.5v-811h-172z" />
<glyph unicode="n" d="M164 0v948q33 10 73 20.5t105.5 25t127.5 20.5t132 8q8 0 16 1q61 0 112 -14q58 -15 106 -42t75 -79t27 -124v-764h-172v758q0 55 -48 83q-47 28 -118 28q0 -1 -2 -1q-72 0 -139.5 -10t-122.5 -27v-831h-172z" />
<glyph unicode="o" horiz-adv-x="1064" d="M113 354v289q0 79 22 144.5t67.5 117t122.5 81.5t179 32h57q102 -2 179 -32t122.5 -81.5t67.5 -117t22 -144.5v-289q0 -166 -95.5 -268t-295.5 -106h-57q-200 4 -295.5 106t-95.5 268zM285 348q0 -213 219 -219h57q219 6 219 219v301q0 105 -55.5 160.5t-163.5 58.5h-57 q-108 -3 -163.5 -58.5t-55.5 -160.5v-301z" />
<glyph unicode="p" horiz-adv-x="1071" d="M164 -428v1397q245 46 346 52q27 2 52 2q215 0 294 -115q51 -75 51 -201v-416q0 -72 -17 -126.5t-45 -89.5t-71.5 -57.5t-90 -32t-107.5 -9.5t-116 5.5t-124 16.5v-426h-172zM336 145q149 -28 219 -28h13q160 7 167 155v13v428q0 52 -14.5 88t-50.5 51.5t-62 24.5 q-16 5 -44 5q-18 0 -42 -2q-61 -6 -84 -9.5t-90 -16.5q-8 -1 -12 -2v-707z" />
<glyph unicode="q" horiz-adv-x="1062" d="M156 291v416q0 84 24.5 144t57.5 96t97.5 53t112.5 22q18 2 40 2q41 0 99 -6q90 -9 138.5 -17.5t146.5 -26.5q6 -1 9.5 -1.5t8.5 -1.5t9 -2v-1403h-172v432q-69 -11 -124 -16.5t-116 -5.5t-107.5 9.5t-90 32t-71.5 57.5t-45 89.5t-17 126.5zM328 285q0 -45 13.5 -77.5 t33 -51.5t53.5 -28t64 -12h21q23 0 53 3q45 5 74.5 10t76.5 14q7 1 10 2v707q-152 29 -221 29h-8q-161 -6 -170 -151v-17v-428z" />
<glyph unicode="r" horiz-adv-x="747" d="M131 -2v760q0 80 35.5 135t90.5 81t131 34q50 6 98 5q24 1 48 -1q70 -4 148 -19v-155q-60 14 -120 20q-36 4 -73 4q-24 0 -49 -2q-61 -4 -99 -31.5t-38 -76.5v-754h-172z" />
<glyph unicode="s" horiz-adv-x="876" d="M88 739q4 296 332 301q175 0 311 -26v-144q-152 27 -297 27q-182 0 -182 -162q0 -40 9.5 -66.5t23.5 -40.5t41.5 -21.5t52.5 -10t67 -3.5q22 -1 33 -1q86 -3 147.5 -24.5t94 -51.5t50.5 -76q17 -44 21 -82q3 -29 3 -66v-22q-2 -68 -20 -118t-46 -80t-72.5 -48.5 t-89.5 -25.5t-106 -10q-26 -1 -53 -1q-148 0 -297 38v151q131 -42 317 -45q105 2 151.5 32t49.5 118q2 18 0 37t-5 36.5t-15.5 33t-31 27.5t-52.5 19.5t-79 7.5q-68 1 -113.5 5.5t-96 22t-80.5 48.5t-50 87q-19 53 -18 126v8z" />
<glyph unicode="t" horiz-adv-x="727" d="M51 854v143h176v385h172v-385h199v-143h-199v-618q0 -61 19 -86t84 -25q57 0 153 22v-141q-89 -26 -180 -26q-129 0 -188.5 52.5t-59.5 174.5v647h-176z" />
<glyph unicode="u" d="M158 233v764h172v-757q0 -55 48 -83t120.5 -28t139.5 10t122 27v831h172v-948q-33 -10 -73 -20.5t-105.5 -25t-127.5 -20.5t-132 -8h-16q-61 0 -112 13q-58 15 -106 42t-75 79t-27 124z" />
<glyph unicode="v" horiz-adv-x="921" d="M16 997h179l266 -819l266 819h178l-330 -997h-229z" />
<glyph unicode="w" horiz-adv-x="1519" d="M23 997h170l241 -819l242 819h170l241 -819l242 819h170l-299 -997h-225l-215 713l-213 -713h-225z" />
<glyph unicode="x" horiz-adv-x="917" d="M51 0l311 500l-307 497h191l211 -344l211 344h190l-305 -497l307 -500h-190l-213 344l-213 -344h-193z" />
<glyph unicode="y" horiz-adv-x="1064" d="M158 297v700h172v-706q0 -52 14.5 -88t50.5 -51.5t62 -24.5q16 -5 44 -5q18 0 43 2q60 6 83 9.5t90 16.5q8 1 12 2v845h172v-1112q0 -166 -86 -244.5t-293 -78.5q-154 0 -307 39v149q200 -41 297 -41q121 0 169 37t48 131v127q-69 -11 -124 -16.5t-116 -5.5t-107.5 9.5 t-90 32t-71.5 57.5t-45 89.5t-17 126.5z" />
<glyph unicode="z" horiz-adv-x="940" d="M123 838v159h704v-139l-485 -698h475v-160h-688v139l487 699h-493z" />
<glyph unicode="{" horiz-adv-x="641" d="M47 582v151q201 15 201 219v291q0 160 91.5 262t281.5 111v-150q-201 -15 -201 -217v-291q0 -203 -133 -301q133 -101 133 -299v-278q0 -202 196 -217v-150q-188 10 -278 111t-90 262v279q0 202 -201 217z" />
<glyph unicode="|" horiz-adv-x="526" d="M205 -322v1940h117v-1940h-117z" />
<glyph unicode="}" horiz-adv-x="641" d="M25 1466v150q189 -9 280.5 -111t91.5 -262v-291q0 -204 201 -219v-151q-201 -15 -201 -217v-279q0 -161 -90 -262t-278 -111v150q196 15 196 217v278q0 198 133 299q-133 98 -133 301v291q0 202 -200 217z" />
<glyph unicode="~" horiz-adv-x="1024" d="M92 463q45 118 105.5 178.5t156.5 60.5q38 0 75.5 -15.5t67.5 -38t59 -44.5t59.5 -37.5t58.5 -15.5q32 0 55.5 11.5t42 39.5t26.5 45.5t25 59.5l109 -50q-80 -241 -260 -241q-50 0 -98.5 23.5t-80 51t-70.5 51t-71 23.5q-56 0 -86 -36t-65 -119z" />
<glyph unicode="&#xa1;" horiz-adv-x="544" d="M188 -389h172v1071h-172v-1071zM188 911q0 35 25.5 60.5t60.5 25.5t60.5 -25.5t25.5 -60.5t-25.5 -60.5t-60.5 -25.5t-60.5 25.5t-25.5 60.5z" />
<glyph unicode="&#xa2;" horiz-adv-x="985" d="M154 391v277q0 149 75 226.5t246 92.5v225h154v-221q120 -6 213 -30l-15 -142q-132 23 -258 23q-137 0 -191 -39.5t-54 -145.5v-256q0 -106 54 -145t191 -39q126 0 258 23l15 -142q-93 -24 -213 -30v-222h-154v226q-171 15 -246 92.5t-75 226.5z" />
<glyph unicode="&#xa3;" horiz-adv-x="1120" d="M78 0v160h137v469h-115v151h115v213q0 391 438 391h271v-157h-265q-149 0 -208.5 -60t-59.5 -186v-201h420v-151h-420v-471h647v-158h-960z" />
<glyph unicode="&#xa4;" horiz-adv-x="1159" d="M143 268l131 131q-34 53 -34 144v288q0 86 34 142l-131 131l107 106l141 -141q70 31 178 31q98 0 179 -31l141 141l106 -106l-131 -131q35 -57 35 -142v-288q0 -89 -35 -144l131 -131l-106 -106l-141 141q-73 -31 -179 -31q-105 0 -178 29l-141 -139zM393 569 q0 -86 36.5 -121.5t139.5 -35.5q100 0 138 35.5t38 121.5v234q0 86 -38 122t-138 36q-102 0 -139 -36t-37 -122v-234z" />
<glyph unicode="&#xa5;" horiz-adv-x="1122" d="M10 1384h185l366 -782l369 782h184l-309 -645h133v-127h-195l-96 -200v-37h291v-127h-291v-248h-172v248h-293v127h293v37l-96 200h-197v127h135z" />
<glyph unicode="&#xa6;" horiz-adv-x="526" d="M205 424h117v-854h-117v854zM205 764v854h117v-854h-117z" />
<glyph unicode="&#xa7;" horiz-adv-x="1075" d="M172 0v772q0 79 22 144.5t67.5 117t122.5 81.5t179 32h322v-150h-322q-108 -3 -163.5 -58.5t-55.5 -160.5v-778h-172zM172 -94h324q219 6 219 219v768h172v-762q0 -166 -95.5 -268.5t-295.5 -106.5h-324v150z" />
<glyph unicode="&#xa8;" horiz-adv-x="800" d="M164 1237q0 35 25.5 60.5t60.5 25.5t60.5 -25.5t25.5 -60.5t-25.5 -60.5t-60.5 -25.5t-60.5 25.5t-25.5 60.5zM494 1237q0 35 25.5 60.5t60.5 25.5t60.5 -25.5t25.5 -60.5t-25.5 -60.5t-60.5 -25.5t-60.5 25.5t-25.5 60.5z" />
<glyph unicode="&#xa9;" horiz-adv-x="1648" d="M193 741q0 175 77.5 318.5t222.5 229t330 85.5q187 0 332.5 -85.5t223 -229t77.5 -318.5q0 -174 -77.5 -317.5t-223 -229t-332.5 -85.5q-185 0 -330 85.5t-222.5 229t-77.5 317.5zM307 741q0 -146 62 -264.5t180.5 -189t273.5 -70.5t274.5 70.5t181.5 189t62 264.5 t-62 264.5t-181.5 189.5t-274.5 71q-154 0 -273 -70.5t-181 -189.5t-62 -265zM604 621v253q0 103 55 151t185 48q78 0 160 -20v-101q-93 19 -156 19q-82 0 -105.5 -21.5t-23.5 -87.5v-231q0 -65 23.5 -86t105.5 -21q87 0 156 17v-101q-82 -20 -160 -20q-130 0 -185 48 t-55 153z" />
<glyph unicode="&#xaa;" horiz-adv-x="776" d="M170 971v16q0 59 19.5 99t50 59.5t78 26t91.5 3.5t103 -12v56q0 57 -28.5 78.5t-102.5 21.5q-67 0 -178 -33v92q95 31 184 31q125 0 176 -48t51 -147v-401q-173 -31 -239 -32q-166 -1 -197 120q-8 32 -8 70zM272 967q0 -84 75.5 -97.5t150.5 11.5q9 1 14 2v190 q-32 6 -46.5 8.5t-45 6.5t-46.5 2.5t-39 -6.5t-34 -16t-20 -30.5t-9 -46.5v-24z" />
<glyph unicode="&#xab;" horiz-adv-x="991" d="M82 500l205 313h170l-205 -313l207 -316h-172zM479 500l205 313h170l-205 -313l207 -316h-172z" />
<glyph unicode="&#xac;" horiz-adv-x="1128" d="M123 469v143h831v-489h-151v346h-680z" />
<glyph unicode="&#xad;" horiz-adv-x="757" d="M123 500v141h512v-141h-512z" />
<glyph unicode="&#xae;" horiz-adv-x="1218" d="M57 829q0 154 67 279.5t194.5 200.5t293.5 75q167 0 294 -75t193 -200.5t66 -279.5t-66 -280t-193.5 -201.5t-293.5 -75.5t-293.5 75.5t-194.5 201.5t-67 280zM166 829q0 -128 48.5 -229.5t151 -164t246.5 -62.5q212 0 328.5 129.5t116.5 326.5q0 127 -48.5 228t-151 164 t-245.5 63q-213 0 -329.5 -129.5t-116.5 -325.5zM440 586v510h201q160 0 160 -135v-70q0 -81 -74 -121l135 -184h-104l-127 170h-105v-170h-86zM526 836h111q40 0 57 14t17 43v61q0 36 -16.5 49t-57.5 13h-111v-180z" />
<glyph unicode="&#xaf;" horiz-adv-x="944" d="M229 1143v127h504v-127h-504z" />
<glyph unicode="&#xb0;" horiz-adv-x="712" d="M123 1110q0 101 61.5 167t171.5 66t172 -66t62 -167t-62 -167t-172 -66t-171.5 66t-61.5 167zM227 1110q0 -62 33 -101.5t96 -39.5t96 39.5t33 101.5t-33 101.5t-96 39.5t-96 -39.5t-33 -101.5z" />
<glyph unicode="&#xb1;" horiz-adv-x="1118" d="M143 0v135h832v-135h-832zM143 614v144h340v346h152v-346h340v-144h-340v-346h-152v346h-340z" />
<glyph unicode="&#xb2;" horiz-adv-x="794" d="M131 596v186q4 246 256 246q92 0 125.5 24.5t34.5 98.5q0 91 -40.5 121.5t-119.5 30.5q-71 0 -211 -37v96q122 37 215 37q143 0 200.5 -62.5t57.5 -183.5q0 -112 -57 -165.5t-201 -53.5q-87 0 -122.5 -40t-35.5 -118v-80h420v-100h-522z" />
<glyph unicode="&#xb3;" horiz-adv-x="790" d="M174 618v93q128 -35 211 -35q39 0 64.5 5t49 19.5t35 44.5t11.5 76q-3 72 -35 95.5t-121 23.5h-162v96h158q92 0 124.5 23t35.5 96q0 46 -11.5 76t-35 44.5t-49 19.5t-64.5 5q-86 0 -211 -34v92q122 37 215 37q142 0 200 -62t58 -178q0 -119 -65 -168q65 -49 65 -166 q0 -116 -58 -177.5t-200 -61.5q-96 0 -215 36z" />
<glyph unicode="&#xb4;" horiz-adv-x="641" d="M166 1073v141l332 185v-142z" />
<glyph unicode="&#xb5;" horiz-adv-x="1028" d="M141 -424v1448h172v-858q161 -30 227 -29q159 4 173 137v750h172v-1184h-174v180q-134 -47 -398 -2v-442h-172z" />
<glyph unicode="&#xb6;" horiz-adv-x="1052" d="M102 879q0 138 68.5 255.5t186 186.5t255.5 70v-1024q-138 0 -255.5 68.5t-186 186.5t-68.5 257zM541 -274q110 2 158.5 37.5t48.5 138.5v1484h172v-1476q0 -166 -86 -245t-293 -79v140z" />
<glyph unicode="&#xb7;" horiz-adv-x="395" d="M106 649q0 38 28.5 66t66.5 28t66 -28t28 -66t-28 -66t-66 -28t-66.5 28t-28.5 66z" />
<glyph unicode="&#xb8;" horiz-adv-x="632" d="M233 -360l5 81q71 -15 143 -18q50 2 71.5 17.5t22.5 54.5q1 12 -1.5 22.5t-10.5 23t-28 20t-50 7.5h-111l39 177h88l-22 -93h29q48 -2 82 -17.5t50.5 -40t23 -50t5.5 -55.5q-2 -35 -12.5 -60.5t-26 -40.5t-39 -25t-45.5 -14t-51 -6q-64 -5 -162 17z" />
<glyph unicode="&#xb9;" horiz-adv-x="681" d="M195 1241v92l118 53h95v-798h-105v698z" />
<glyph unicode="&#xba;" horiz-adv-x="806" d="M154 1016v178q0 104 60.5 167.5t188.5 63.5q127 0 188.5 -63.5t61.5 -167.5v-178q0 -104 -61.5 -168t-188.5 -64q-128 0 -188.5 64t-60.5 168zM258 1012q0 -135 145 -135q144 0 144 135v186q0 135 -144 135q-145 0 -145 -135v-186z" />
<glyph unicode="&#xbb;" horiz-adv-x="991" d="M133 184l209 316l-207 313h170l207 -313l-209 -316h-170zM530 184l209 316l-207 313h170l207 -313l-209 -316h-170z" />
<glyph unicode="&#xbc;" horiz-adv-x="1636" d="M240 1229v92l118 53h93v-799h-103v699zM530 575l269 863h98l-268 -863h-99zM801 719v112l340 545h139v-561h86v-96h-86v-146h-104v146h-375zM905 815h271v426z" />
<glyph unicode="&#xbd;" horiz-adv-x="1636" d="M193 1231v92l118 53h92v-798h-102v698zM467 578l266 862h98l-268 -862h-96zM831 578v186q4 246 256 246q92 0 125.5 24.5t34.5 98.5q0 91 -40.5 121t-119.5 30q-70 0 -210 -37v94q106 37 215 37q143 0 200.5 -61.5t57.5 -183.5q0 -111 -57 -164.5t-201 -53.5 q-87 0 -122.5 -40t-35.5 -117v-80h420v-100h-523z" />
<glyph unicode="&#xbe;" horiz-adv-x="1636" d="M162 606v92q125 -34 211 -34q78 0 117.5 28.5t39.5 116.5q-1 72 -32.5 95.5t-120.5 23.5h-162v96h158q92 0 124 23t33 96q0 88 -39.5 116.5t-117.5 28.5q-83 0 -211 -35v93q113 36 215 36q141 0 199.5 -61.5t58.5 -177.5t-66 -168q66 -52 66 -166q0 -116 -58.5 -178 t-199.5 -62q-98 0 -215 37zM680 573l268 865h99l-269 -865h-98zM938 719v112l342 545h137v-561h86v-96h-86v-144h-104v144h-375zM1042 815h271v426z" />
<glyph unicode="&#xbf;" horiz-adv-x="1085" d="M117 410q0 91 20.5 156t69 113.5t133 72.5t207.5 24h51v338h152v-496h-197q-151 0 -206 -41.5t-58 -164.5q0 -79 19 -131.5t57 -78t81.5 -35t106.5 -9.5q130 0 416 32v-157q-241 -33 -422 -33q-123 0 -208 28t-133 84t-68.5 128t-20.5 170zM582 1325q0 38 28 66t66 28 t66 -28t28 -66t-28 -66t-66 -28t-66 28t-28 66z" />
<glyph unicode="&#xc0;" horiz-adv-x="1239" d="M158 -2v993q0 391 438 391h49q438 0 438 -391v-993h-176v631h-573v-631h-176zM334 780h573v199q0 126 -59.5 186t-208.5 60h-37q-149 0 -208.5 -60t-59.5 -186v-199zM481 1624v141l332 -184v-141z" />
<glyph unicode="&#xc1;" horiz-adv-x="1239" d="M158 -2v993q0 391 438 391h49q438 0 438 -391v-993h-176v631h-573v-631h-176zM334 780h573v199q0 126 -59.5 186t-208.5 60h-37q-149 0 -208.5 -60t-59.5 -186v-199zM481 1440v141l332 184v-141z" />
<glyph unicode="&#xc2;" horiz-adv-x="1239" d="M158 -2v993q0 391 438 391h49q438 0 438 -391v-993h-176v631h-573v-631h-176zM334 780h573v199q0 126 -59.5 186t-208.5 60h-37q-149 0 -208.5 -60t-59.5 -186v-199zM408 1473v135l213 151l210 -149v-140l-210 148l-211 -148z" />
<glyph unicode="&#xc3;" horiz-adv-x="1239" d="M158 -2v993q0 391 438 391h49q438 0 438 -391v-993h-176v631h-573v-631h-176zM326 1571q33 53 81 88t101 35q49 0 117 -35q80 -41 112 -41q54 0 92 61l84 -57q-59 -129 -176 -129q-53 0 -123 37q-26 15 -38.5 21t-32 12t-37.5 6q-30 0 -53.5 -17t-53.5 -51zM334 780h573 v199q0 126 -59.5 186t-208.5 60h-37q-149 0 -208.5 -60t-59.5 -186v-199z" />
<glyph unicode="&#xc4;" horiz-adv-x="1239" d="M158 -2v993q0 391 438 391h49q438 0 438 -391v-993h-176v631h-573v-631h-176zM334 780h573v199q0 126 -59.5 186t-208.5 60h-37q-149 0 -208.5 -60t-59.5 -186v-199zM369 1604q0 35 25.5 60.5t60.5 25.5t60.5 -25.5t25.5 -60.5t-25.5 -60.5t-60.5 -25.5t-60.5 25.5 t-25.5 60.5zM698 1604q0 35 25.5 60.5t60.5 25.5t60.5 -25.5t25.5 -60.5t-25.5 -60.5t-60.5 -25.5t-60.5 25.5t-25.5 60.5z" />
<glyph unicode="&#xc5;" horiz-adv-x="1239" d="M158 -2v993q0 391 438 391h49q438 0 438 -391v-993h-176v631h-573v-631h-176zM334 780h573v199q0 126 -59.5 186t-208.5 60h-37q-149 0 -208.5 -60t-59.5 -186v-199zM467 1614q0 65 39.5 107t111.5 42t112 -42.5t40 -106.5q0 -65 -40 -107.5t-112 -42.5t-111.5 42.5 t-39.5 107.5zM551 1614q0 -33 17.5 -53.5t49.5 -20.5t50 20.5t18 53.5t-18 53.5t-50 20.5t-49.5 -20.5t-17.5 -53.5z" />
<glyph unicode="&#xc6;" horiz-adv-x="1814" d="M158 -2v993q0 391 438 391l1085 2v-157h-626v-449h581v-157h-581v-463h628v-158h-804v629h-545v-631h-176zM334 780h545v445h-277q-149 0 -208.5 -60t-59.5 -186v-199z" />
<glyph unicode="&#xc7;" horiz-adv-x="1032" d="M143 385v598q0 199 111.5 300t355.5 101q166 0 320 -32v-156q-168 29 -314 29q-167 0 -232 -55t-65 -197v-578q0 -142 65 -197t232 -55q139 0 314 27v-156q-151 -27 -299 -30l-13 -52h29q48 -2 82 -17.5t50.5 -40t23.5 -50t6 -55.5q-2 -35 -12.5 -60.5t-26 -40.5t-39 -25 t-45.5 -14t-51 -6q-64 -5 -162 17l4 81q71 -15 144 -18q50 2 71.5 17.5t22.5 54.5q1 12 -1.5 22.5t-10.5 23t-28 20t-50 7.5h-111l31 138q-210 13 -306 113t-96 286z" />
<glyph unicode="&#xc8;" horiz-adv-x="1105" d="M174 0v1382h803v-157h-627v-447h582v-157h-582v-463h629v-158h-805zM387 1624v141l332 -184v-141z" />
<glyph unicode="&#xc9;" horiz-adv-x="1105" d="M174 0v1382h803v-157h-627v-447h582v-157h-582v-463h629v-158h-805zM387 1440v141l332 184v-141z" />
<glyph unicode="&#xca;" horiz-adv-x="1105" d="M174 0v1382h803v-157h-627v-447h582v-157h-582v-463h629v-158h-805zM340 1473v135l213 151l211 -149v-140l-211 148l-211 -148z" />
<glyph unicode="&#xcb;" horiz-adv-x="1105" d="M174 0v1382h803v-157h-627v-447h582v-157h-582v-463h629v-158h-805zM301 1604q0 35 25.5 60.5t60.5 25.5t60.5 -25.5t25.5 -60.5t-25.5 -60.5t-60.5 -25.5t-60.5 25.5t-25.5 60.5zM631 1604q0 35 25.5 60.5t60.5 25.5t60.5 -25.5t25.5 -60.5t-25.5 -60.5t-60.5 -25.5 t-60.5 25.5t-25.5 60.5z" />
<glyph unicode="&#xcc;" horiz-adv-x="544" d="M106 1624v141l332 -184v-141zM184 0v1382h176v-1382h-176z" />
<glyph unicode="&#xcd;" horiz-adv-x="544" d="M106 1440v141l332 184v-141zM184 0v1382h176v-1382h-176z" />
<glyph unicode="&#xce;" horiz-adv-x="544" d="M61 1473v135l213 151l211 -149v-140l-211 148l-211 -148zM184 0v1382h176v-1382h-176z" />
<glyph unicode="&#xcf;" horiz-adv-x="544" d="M23 1604q0 35 25.5 60.5t60.5 25.5t60.5 -25.5t25.5 -60.5t-25.5 -60.5t-60.5 -25.5t-60.5 25.5t-25.5 60.5zM184 0v1382h176v-1382h-176zM352 1604q0 35 25.5 60.5t60.5 25.5t60.5 -25.5t25.5 -60.5t-25.5 -60.5t-60.5 -25.5t-60.5 25.5t-25.5 60.5z" />
<glyph unicode="&#xd0;" horiz-adv-x="1181" d="M43 633v149h123v602h461q438 0 438 -391v-602q0 -391 -438 -391h-461v633h-123zM342 158h279q149 0 208.5 59.5t59.5 185.5v578q0 126 -59.5 186t-208.5 60h-279v-445h266v-149h-266v-475z" />
<glyph unicode="&#xd1;" horiz-adv-x="1351" d="M170 0v1384h246l594 -1171v1171h172v-1384h-246l-594 1165v-1165h-172zM381 1571q33 53 81 88t101 35q49 0 117 -35q80 -41 113 -41q54 0 92 61l84 -57q-59 -129 -176 -129q-53 0 -123 37l-39 21t-32.5 12.5t-37.5 5.5q-21 0 -41.5 -11t-32.5 -22.5t-32 -34.5z" />
<glyph unicode="&#xd2;" horiz-adv-x="1273" d="M133 393v602q0 391 438 391h134q438 0 438 -391v-602q0 -391 -438 -391h-134q-438 0 -438 391zM309 406q0 -126 60 -186t209 -60h120q149 0 209 60t60 186v577q0 126 -60 186t-209 60h-120q-149 0 -209 -60t-60 -186v-577zM471 1624v141l332 -184v-141z" />
<glyph unicode="&#xd3;" horiz-adv-x="1273" d="M133 393v602q0 391 438 391h134q438 0 438 -391v-602q0 -391 -438 -391h-134q-438 0 -438 391zM309 406q0 -126 60 -186t209 -60h120q149 0 209 60t60 186v577q0 126 -60 186t-209 60h-120q-149 0 -209 -60t-60 -186v-577zM471 1440v141l332 184v-141z" />
<glyph unicode="&#xd4;" horiz-adv-x="1273" d="M133 393v602q0 391 438 391h134q438 0 438 -391v-602q0 -391 -438 -391h-134q-438 0 -438 391zM309 406q0 -126 60 -186t209 -60h120q149 0 209 60t60 186v577q0 126 -60 186t-209 60h-120q-149 0 -209 -60t-60 -186v-577zM424 1473v135l213 151l211 -149v-140l-211 148 l-211 -148z" />
<glyph unicode="&#xd5;" horiz-adv-x="1273" d="M133 393v602q0 391 438 391h134q438 0 438 -391v-602q0 -391 -438 -391h-134q-438 0 -438 391zM309 406q0 -126 60 -186t209 -60h120q149 0 209 60t60 186v577q0 126 -60 186t-209 60h-120q-149 0 -209 -60t-60 -186v-577zM342 1571q33 53 81 88t101 35q49 0 117 -35 q80 -41 113 -41q54 0 92 61l84 -57q-59 -129 -176 -129q-53 0 -123 37l-39 21t-32.5 12.5t-37.5 5.5q-21 0 -41.5 -11t-32.5 -22.5t-32 -34.5z" />
<glyph unicode="&#xd6;" horiz-adv-x="1273" d="M133 393v602q0 391 438 391h134q438 0 438 -391v-602q0 -391 -438 -391h-134q-438 0 -438 391zM309 406q0 -126 60 -186t209 -60h120q149 0 209 60t60 186v577q0 126 -60 186t-209 60h-120q-149 0 -209 -60t-60 -186v-577zM385 1604q0 35 25.5 60.5t60.5 25.5t60.5 -25.5 t25.5 -60.5t-25.5 -60.5t-60.5 -25.5t-60.5 25.5t-25.5 60.5zM715 1604q0 35 25.5 60.5t60.5 25.5t60.5 -25.5t25.5 -60.5t-25.5 -60.5t-60.5 -25.5t-60.5 25.5t-25.5 60.5z" />
<glyph unicode="&#xd7;" horiz-adv-x="1071" d="M143 207l289 289l-289 290l103 101l289 -287l290 287l103 -101l-289 -290l289 -289l-103 -103l-290 289l-289 -289z" />
<glyph unicode="&#xd8;" horiz-adv-x="1273" d="M133 393v602q0 391 438 391h134q10 0 30.5 -1t30.5 -1l41 132h164l-51 -162q223 -82 223 -359v-602q0 -391 -438 -391h-134q-48 0 -71 2l-35 -113h-162l45 146q-215 82 -215 356zM309 406q0 -154 88 -209l320 1032h-19h-120q-149 0 -209 -60t-60 -186v-577zM549 160h29 h120q149 0 209 60t60 186v577q0 158 -97 211z" />
<glyph unicode="&#xd9;" horiz-adv-x="1267" d="M137 393v989h176v-976q0 -126 60 -186t209 -60h108q149 0 208.5 60t59.5 186v976h177v-989q0 -68 -13.5 -124.5t-45 -106.5t-81 -85t-125.5 -55t-174 -20h-121q-438 0 -438 391zM467 1624v141l332 -184v-141z" />
<glyph unicode="&#xda;" horiz-adv-x="1267" d="M137 393v989h176v-976q0 -126 60 -186t209 -60h108q149 0 208.5 60t59.5 186v976h177v-989q0 -68 -13.5 -124.5t-45 -106.5t-81 -85t-125.5 -55t-174 -20h-121q-438 0 -438 391zM467 1440v141l332 184v-141z" />
<glyph unicode="&#xdb;" horiz-adv-x="1267" d="M137 393v989h176v-976q0 -126 60 -186t209 -60h108q149 0 208.5 60t59.5 186v976h177v-989q0 -68 -13.5 -124.5t-45 -106.5t-81 -85t-125.5 -55t-174 -20h-121q-438 0 -438 391zM422 1473v135l213 151l211 -149v-140l-211 148l-211 -148z" />
<glyph unicode="&#xdc;" horiz-adv-x="1267" d="M137 393v989h176v-976q0 -126 60 -186t209 -60h108q149 0 208.5 60t59.5 186v976h177v-989q0 -68 -13.5 -124.5t-45 -106.5t-81 -85t-125.5 -55t-174 -20h-121q-438 0 -438 391zM383 1604q0 35 25.5 60.5t60.5 25.5t60.5 -25.5t25.5 -60.5t-25.5 -60.5t-60.5 -25.5 t-60.5 25.5t-25.5 60.5zM713 1604q0 35 25.5 60.5t60.5 25.5t60.5 -25.5t25.5 -60.5t-25.5 -60.5t-60.5 -25.5t-60.5 25.5t-25.5 60.5z" />
<glyph unicode="&#xdd;" horiz-adv-x="1122" d="M10 1384h185l366 -782l369 782h184l-467 -972v-412h-172v412zM395 1460v142l332 184v-141z" />
<glyph unicode="&#xde;" horiz-adv-x="1038" d="M154 0v1438h172v-221q69 11 124 16.5t116 5.5t107.5 -9.5t90 -32t71.5 -57.5t45 -89.5t17 -126.5v-416q0 -72 -17 -127t-45 -90.5t-71.5 -57.5t-90 -32t-107.5 -10t-116 5.5t-124 16.5v-213h-172zM326 362q163 -31 232 -28q160 7 167 155v13v428q0 52 -14.5 88 t-50.5 51.5t-62 24.5t-86.5 3t-83.5 -9.5t-90 -16.5q-8 -1 -12 -2v-707z" />
<glyph unicode="&#xdf;" horiz-adv-x="1216" d="M199 0v1108q0 127 77 201.5t232 74.5h199q319 0 319 -276v-178q0 -85 -33 -140.5t-119 -87.5q89 -16 142 -78t53 -167v-164q0 -141 -89 -217t-245 -76h-141v147h127q93 0 139.5 41t46.5 119v139q0 170 -196 170h-76v150h39q184 0 184 164v178q0 66 -38 97.5t-118 31.5 h-190q-154 0 -154 -133v-1104h-159z" />
<glyph unicode="&#xe0;" horiz-adv-x="1009" d="M127 291v26q0 72 17 126.5t45 89.5t71.5 57.5t90 32t107.5 9.5t116 -5.5t124 -16.5v95q0 94 -47.5 130.5t-169.5 36.5q-125 0 -297 -55v154q152 49 308 49q207 0 292.5 -79t85.5 -245v-667q-245 -46 -346 -52q-258 -15 -346 113q-51 75 -51 201zM299 285 q0 -45 13.5 -77.5t33 -51.5t53.5 -28t63.5 -11.5t74.5 2.5t74.5 10t76.5 14q7 1 10 2v318h-1h-1l-1 1h-1h-1h-1h-1l-1 1h-1h-1h-1h-1q-166 32 -238 25q-149 -14 -149 -166v-39zM338 1257v142l332 -185v-141z" />
<glyph unicode="&#xe1;" horiz-adv-x="1009" d="M127 291v26q0 72 17 126.5t45 89.5t71.5 57.5t90 32t107.5 9.5t116 -5.5t124 -16.5v95q0 94 -47.5 130.5t-169.5 36.5q-125 0 -297 -55v154q152 49 308 49q207 0 292.5 -79t85.5 -245v-667q-245 -46 -346 -52q-258 -15 -346 113q-51 75 -51 201zM299 285 q0 -45 13.5 -77.5t33 -51.5t53.5 -28t63.5 -11.5t74.5 2.5t74.5 10t76.5 14q7 1 10 2v318h-1h-1l-1 1h-1h-1h-1h-1l-1 1h-1h-1h-1h-1q-166 32 -238 25q-149 -14 -149 -166v-39zM338 1073v141l332 185v-142z" />
<glyph unicode="&#xe2;" horiz-adv-x="1009" d="M127 291v26q0 72 17 126.5t45 89.5t71.5 57.5t90 32t107.5 9.5t116 -5.5t124 -16.5v95q0 94 -47.5 130.5t-169.5 36.5q-125 0 -297 -55v154q152 49 308 49q207 0 292.5 -79t85.5 -245v-667q-245 -46 -346 -52q-258 -15 -346 113q-51 75 -51 201zM293 1106v135l213 152 l211 -150v-139l-211 147l-211 -147zM299 285q0 -45 13.5 -77.5t33 -51.5t53.5 -28t63.5 -11.5t74.5 2.5t74.5 10t76.5 14q7 1 10 2v318h-1h-1l-1 1h-1h-1h-1h-1l-1 1h-1h-1h-1h-1q-166 32 -238 25q-149 -14 -149 -166v-39z" />
<glyph unicode="&#xe3;" horiz-adv-x="1009" d="M127 291v26q0 72 17 126.5t45 89.5t71.5 57.5t90 32t107.5 9.5t116 -5.5t124 -16.5v95q0 94 -47.5 130.5t-169.5 36.5q-125 0 -297 -55v154q152 49 308 49q207 0 292.5 -79t85.5 -245v-667q-245 -46 -346 -52q-258 -15 -346 113q-51 75 -51 201zM211 1204q33 53 81 88 t101 35q49 0 117 -35q80 -41 113 -41q53 0 92 62l84 -58q-59 -129 -176 -129q-53 0 -123 37l-39 21t-32.5 12.5t-37.5 5.5q-21 0 -41.5 -10.5t-32.5 -22.5t-32 -34zM299 285q0 -45 13.5 -77.5t33 -51.5t53.5 -28t63.5 -11.5t74.5 2.5t74.5 10t76.5 14q7 1 10 2v318h-1h-1 l-1 1h-1h-1h-1h-1l-1 1h-1h-1h-1h-1q-166 32 -238 25q-149 -14 -149 -166v-39z" />
<glyph unicode="&#xe4;" horiz-adv-x="1009" d="M127 291v26q0 72 17 126.5t45 89.5t71.5 57.5t90 32t107.5 9.5t116 -5.5t124 -16.5v95q0 94 -47.5 130.5t-169.5 36.5q-125 0 -297 -55v154q152 49 308 49q207 0 292.5 -79t85.5 -245v-667q-245 -46 -346 -52q-258 -15 -346 113q-51 75 -51 201zM254 1237q0 35 25.5 60.5 t60.5 25.5t60.5 -25.5t25.5 -60.5t-25.5 -60.5t-60.5 -25.5t-60.5 25.5t-25.5 60.5zM299 285q0 -45 13.5 -77.5t33 -51.5t53.5 -28t63.5 -11.5t74.5 2.5t74.5 10t76.5 14q7 1 10 2v318h-1h-1l-1 1h-1h-1h-1h-1l-1 1h-1h-1h-1h-1q-166 32 -238 25q-149 -14 -149 -166v-39z M584 1237q0 35 25.5 60.5t60.5 25.5t60.5 -25.5t25.5 -60.5t-25.5 -60.5t-60.5 -25.5t-60.5 25.5t-25.5 60.5z" />
<glyph unicode="&#xe5;" horiz-adv-x="1009" d="M127 291v26q0 72 17 126.5t45 89.5t71.5 57.5t90 32t107.5 9.5t116 -5.5t124 -16.5v95q0 94 -47.5 130.5t-169.5 36.5q-125 0 -297 -55v154q152 49 308 49q207 0 292.5 -79t85.5 -245v-667q-245 -46 -346 -52q-258 -15 -346 113q-51 75 -51 201zM299 285 q0 -45 13.5 -77.5t33 -51.5t53.5 -28t63.5 -11.5t74.5 2.5t74.5 10t76.5 14q7 1 10 2v318h-1h-1l-1 1h-1h-1h-1h-1l-1 1h-1h-1h-1h-1q-166 32 -238 25q-149 -14 -149 -166v-39zM352 1247q0 65 40 107.5t112 42.5t111.5 -42.5t39.5 -107.5t-39.5 -107t-111.5 -42t-112 42.5 t-40 106.5zM436 1247q0 -33 18 -53t50 -20t49.5 20t17.5 53t-17.5 53.5t-49.5 20.5t-50 -20.5t-18 -53.5z" />
<glyph unicode="&#xe6;" horiz-adv-x="1617" d="M127 291v26q0 72 17 126.5t45 89.5t71.5 57.5t90 32t107.5 9.5t116 -5.5t124 -16.5v35v14v46q0 94 -47.5 130.5t-169.5 36.5q-125 0 -297 -55v154q152 49 308 49q222 0 311 -98q102 92 287 98q102 -2 179 -32t122.5 -81.5t67.5 -117t22 -144.5v-221h-611v-74 q0 -213 220 -219q60 2 157.5 21.5t188.5 54.5v-148q-87 -38 -185 -56.5t-161 -20.5q-129 3 -220 49v-2q-245 -46 -346 -52q-258 -15 -346 113q-51 75 -51 201zM299 285q0 -45 13.5 -77.5t33 -51.5t53.5 -28t63.5 -11.5t74.5 2.5t74.5 10t76.5 14q7 1 10 2v195v16v107h-1h-1 l-1 1h-1h-1h-1h-1l-1 1h-1h-1h-1h-1q-166 32 -238 25q-149 -14 -149 -166v-39zM870 584h439v67q0 105 -55.5 160.5t-163.5 58.5q-108 -3 -164 -58.5t-56 -160.5v-67z" />
<glyph unicode="&#xe7;" horiz-adv-x="872" d="M127 297v401q0 149 75.5 227t246.5 93q191 10 350 -29v-147q-143 28 -256 28q-138 0 -192 -38.5t-54 -143.5v-381q0 -106 54.5 -145t191.5 -39q77 0 256 39v-148q-130 -34 -269 -37l-10 -45h29q48 -2 82 -17.5t50.5 -40t23.5 -50t6 -55.5q-2 -35 -12.5 -60.5t-26 -40.5 t-39 -25t-45.5 -14t-51 -6q-64 -5 -162 17l4 81q71 -15 143 -18q50 2 71.5 17.5t22.5 54.5q1 12 -1.5 22.5t-10.5 23t-28 20t-50 7.5h-110l28 129q-170 17 -243.5 94t-73.5 226z" />
<glyph unicode="&#xe8;" horiz-adv-x="1001" d="M113 356v289q0 79 22 144.5t67.5 117t122.5 81.5t179 32q102 -2 179 -32t122.5 -81.5t67.5 -117t22 -144.5v-221h-610v-74q0 -213 219 -219q60 2 157.5 21.5t188.5 54.5v-148q-87 -38 -185 -56.5t-161 -20.5q-200 4 -295.5 106t-95.5 268zM285 584h438v67 q0 105 -55.5 160.5t-163.5 58.5q-108 -3 -163.5 -58.5t-55.5 -160.5v-67zM334 1257v142l332 -185v-141z" />
<glyph unicode="&#xe9;" horiz-adv-x="1001" d="M113 356v289q0 79 22 144.5t67.5 117t122.5 81.5t179 32q102 -2 179 -32t122.5 -81.5t67.5 -117t22 -144.5v-221h-610v-74q0 -213 219 -219q60 2 157.5 21.5t188.5 54.5v-148q-87 -38 -185 -56.5t-161 -20.5q-200 4 -295.5 106t-95.5 268zM285 584h438v67 q0 105 -55.5 160.5t-163.5 58.5q-108 -3 -163.5 -58.5t-55.5 -160.5v-67zM334 1073v141l332 185v-142z" />
<glyph unicode="&#xea;" horiz-adv-x="1001" d="M113 356v289q0 79 22 144.5t67.5 117t122.5 81.5t179 32q102 -2 179 -32t122.5 -81.5t67.5 -117t22 -144.5v-221h-610v-74q0 -213 219 -219q60 2 157.5 21.5t188.5 54.5v-148q-87 -38 -185 -56.5t-161 -20.5q-200 4 -295.5 106t-95.5 268zM285 584h438v67 q0 105 -55.5 160.5t-163.5 58.5q-108 -3 -163.5 -58.5t-55.5 -160.5v-67zM289 1106v135l213 152l211 -150v-139l-211 147l-211 -147z" />
<glyph unicode="&#xeb;" horiz-adv-x="1001" d="M113 356v289q0 79 22 144.5t67.5 117t122.5 81.5t179 32q102 -2 179 -32t122.5 -81.5t67.5 -117t22 -144.5v-221h-610v-74q0 -213 219 -219q60 2 157.5 21.5t188.5 54.5v-148q-87 -38 -185 -56.5t-161 -20.5q-200 4 -295.5 106t-95.5 268zM250 1237q0 35 25.5 60.5 t60.5 25.5t60.5 -25.5t25.5 -60.5t-25.5 -60.5t-60.5 -25.5t-60.5 25.5t-25.5 60.5zM285 584h438v67q0 105 -55.5 160.5t-163.5 58.5q-108 -3 -163.5 -58.5t-55.5 -160.5v-67zM580 1237q0 35 25.5 60.5t60.5 25.5t60.5 -25.5t25.5 -60.5t-25.5 -60.5t-60.5 -25.5t-60.5 25.5 t-25.5 60.5z" />
<glyph unicode="&#xec;" horiz-adv-x="499" d="M84 1257v142l332 -185v-141zM164 0v997h172v-997h-172z" />
<glyph unicode="&#xed;" horiz-adv-x="499" d="M84 1073v141l332 185v-142zM164 0v997h172v-997h-172z" />
<glyph unicode="&#xee;" horiz-adv-x="499" d="M39 1106v135l213 152l211 -150v-139l-211 147l-211 -147zM164 0v997h172v-997h-172z" />
<glyph unicode="&#xef;" horiz-adv-x="499" d="M0 1237q0 35 25.5 60.5t60.5 25.5t60.5 -25.5t25.5 -60.5t-25.5 -60.5t-60.5 -25.5t-60.5 25.5t-25.5 60.5zM164 0v997h172v-997h-172zM330 1237q0 35 25.5 60.5t60.5 25.5t60.5 -25.5t25.5 -60.5t-25.5 -60.5t-60.5 -25.5t-60.5 25.5t-25.5 60.5z" />
<glyph unicode="&#xf0;" horiz-adv-x="1060" d="M133 381v123q0 168 80 246.5t270 78.5q65 0 142.5 -13.5t130.5 -33.5v101q0 146 -88 276l-187 -176l-98 102l184 175q-70 47 -141 53v149q135 -3 256 -94l152 145l98 -102l-148 -141q66 -80 104 -180.5t38 -204.5v-576q0 -153 -94 -234t-306 -81q-120 0 -199 25.5 t-121 79t-57.5 119.5t-15.5 163zM303 334q0 -104 47 -146.5t176 -42.5q121 0 175.5 41.5t54.5 147.5v291q-129 55 -256 55q-111 0 -154 -40t-43 -136v-170z" />
<glyph unicode="&#xf1;" d="M164 0v948q33 10 73 20.5t105.5 25t127.5 20.5t132 8t128 -13t106 -42t75 -79t27 -124v-764h-172v758q0 55 -48 83t-120.5 27.5t-139.5 -10.5t-122 -27v-831h-172zM252 1204q33 53 81 88t101 35q49 0 117 -35q80 -41 113 -41q53 0 92 62l84 -58q-59 -129 -176 -129 q-53 0 -123 37l-39 21t-32.5 12.5t-37.5 5.5q-21 0 -41.5 -10.5t-32.5 -22.5t-32 -34z" />
<glyph unicode="&#xf2;" horiz-adv-x="1064" d="M113 354v289q0 79 22 144.5t67.5 117t122.5 81.5t179 32h57q102 -2 179 -32t122.5 -81.5t67.5 -117t22 -144.5v-289q0 -166 -95.5 -268t-295.5 -106h-57q-200 4 -295.5 106t-95.5 268zM285 348q0 -213 219 -219h57q219 6 219 219v301q0 105 -55.5 160.5t-163.5 58.5h-57 q-108 -3 -163.5 -58.5t-55.5 -160.5v-301zM367 1257v142l331 -185v-141z" />
<glyph unicode="&#xf3;" horiz-adv-x="1064" d="M113 354v289q0 79 22 144.5t67.5 117t122.5 81.5t179 32h57q102 -2 179 -32t122.5 -81.5t67.5 -117t22 -144.5v-289q0 -166 -95.5 -268t-295.5 -106h-57q-200 4 -295.5 106t-95.5 268zM285 348q0 -213 219 -219h57q219 6 219 219v301q0 105 -55.5 160.5t-163.5 58.5h-57 q-108 -3 -163.5 -58.5t-55.5 -160.5v-301zM367 1073v141l331 185v-142z" />
<glyph unicode="&#xf4;" horiz-adv-x="1064" d="M113 354v289q0 79 22 144.5t67.5 117t122.5 81.5t179 32h57q102 -2 179 -32t122.5 -81.5t67.5 -117t22 -144.5v-289q0 -166 -95.5 -268t-295.5 -106h-57q-200 4 -295.5 106t-95.5 268zM285 348q0 -213 219 -219h57q219 6 219 219v301q0 105 -55.5 160.5t-163.5 58.5h-57 q-108 -3 -163.5 -58.5t-55.5 -160.5v-301zM319 1106v135l213 152l211 -150v-139l-211 147l-210 -147z" />
<glyph unicode="&#xf5;" horiz-adv-x="1064" d="M113 354v289q0 79 22 144.5t67.5 117t122.5 81.5t179 32h57q102 -2 179 -32t122.5 -81.5t67.5 -117t22 -144.5v-289q0 -166 -95.5 -268t-295.5 -106h-57q-200 4 -295.5 106t-95.5 268zM238 1204q33 53 81 88t101 35q49 0 117 -35q80 -41 112 -41q53 0 92 62l84 -58 q-59 -129 -176 -129q-53 0 -123 37q-26 15 -38.5 21t-32 12t-37.5 6q-30 0 -54 -17t-53 -50zM285 348q0 -213 219 -219h57q219 6 219 219v301q0 105 -55.5 160.5t-163.5 58.5h-57q-108 -3 -163.5 -58.5t-55.5 -160.5v-301z" />
<glyph unicode="&#xf6;" horiz-adv-x="1064" d="M113 354v289q0 79 22 144.5t67.5 117t122.5 81.5t179 32h57q102 -2 179 -32t122.5 -81.5t67.5 -117t22 -144.5v-289q0 -166 -95.5 -268t-295.5 -106h-57q-200 4 -295.5 106t-95.5 268zM281 1237q0 35 25.5 60.5t60.5 25.5t60.5 -25.5t25.5 -60.5t-25.5 -60.5t-60.5 -25.5 t-60.5 25.5t-25.5 60.5zM285 348q0 -213 219 -219h57q219 6 219 219v301q0 105 -55.5 160.5t-163.5 58.5h-57q-108 -3 -163.5 -58.5t-55.5 -160.5v-301zM610 1237q0 35 25.5 60.5t60.5 25.5t60.5 -25.5t25.5 -60.5t-25.5 -60.5t-60.5 -25.5t-60.5 25.5t-25.5 60.5z" />
<glyph unicode="&#xf7;" horiz-adv-x="1101" d="M133 428v139h836v-139h-836zM457 188q0 38 28 66.5t66 28.5t66 -28.5t28 -66.5t-28 -66t-66 -28t-66 28t-28 66zM457 815q0 38 28 66t66 28t66 -28t28 -66t-28 -66t-66 -28t-66 28t-28 66z" />
<glyph unicode="&#xf8;" horiz-adv-x="1036" d="M98 354v289q0 79 22 144.5t67.5 117t122.5 81.5t179 32h58q5 0 16.5 -1t16.5 -1l43 141h161l-53 -174q105 -43 156 -132t51 -208v-289q0 -166 -95.5 -268t-295.5 -106h-58q-64 5 -69 6l-41 -136h-162l55 179q-174 89 -174 325zM270 348q0 -103 52 -158l210 678h-43 q-108 -3 -163.5 -58.5t-55.5 -160.5v-301zM465 129h82q219 6 219 219v301q0 126 -82 180z" />
<glyph unicode="&#xf9;" d="M158 233v764h172v-757q0 -55 48 -83t120.5 -28t139.5 10t122 27v831h172v-948q-33 -10 -73 -20.5t-105.5 -25t-127.5 -20.5t-132 -8t-128 13t-106 42t-75 79t-27 124zM379 1257v142l332 -185v-141z" />
<glyph unicode="&#xfa;" d="M158 233v764h172v-757q0 -55 48 -83t120.5 -28t139.5 10t122 27v831h172v-948q-33 -10 -73 -20.5t-105.5 -25t-127.5 -20.5t-132 -8t-128 13t-106 42t-75 79t-27 124zM379 1073v141l332 185v-142z" />
<glyph unicode="&#xfb;" d="M158 233v764h172v-757q0 -55 48 -83t120.5 -28t139.5 10t122 27v831h172v-948q-33 -10 -73 -20.5t-105.5 -25t-127.5 -20.5t-132 -8t-128 13t-106 42t-75 79t-27 124zM334 1106v135l213 152l211 -150v-139l-211 147l-211 -147z" />
<glyph unicode="&#xfc;" d="M158 233v764h172v-757q0 -55 48 -83t120.5 -28t139.5 10t122 27v831h172v-948q-33 -10 -73 -20.5t-105.5 -25t-127.5 -20.5t-132 -8t-128 13t-106 42t-75 79t-27 124zM295 1237q0 35 25.5 60.5t60.5 25.5t60.5 -25.5t25.5 -60.5t-25.5 -60.5t-60.5 -25.5t-60.5 25.5 t-25.5 60.5zM625 1237q0 35 25.5 60.5t60.5 25.5t60.5 -25.5t25.5 -60.5t-25.5 -60.5t-60.5 -25.5t-60.5 25.5t-25.5 60.5z" />
<glyph unicode="&#xfd;" horiz-adv-x="954" d="M158 297v700h172v-706q0 -52 14.5 -88t50.5 -51.5t62 -24.5t86.5 -3t83.5 9.5t90 16.5q8 1 12 2v845h172v-1112q0 -166 -86 -244.5t-293 -78.5q-154 0 -307 39v149q200 -41 297 -41q121 0 169 37t48 131v127q-69 -11 -124 -16.5t-116 -5.5t-107.5 9.5t-90 32t-71.5 57.5 t-45 89.5t-17 126.5zM420 1075v168l244 139v-168z" />
<glyph unicode="&#xfe;" horiz-adv-x="1048" d="M154 -311v1745h172v-422q69 11 124 16.5t116 5.5t107.5 -9.5t90 -32t71.5 -57.5t45 -89.5t17 -126.5v-416q0 -72 -17 -127t-45 -90.5t-71.5 -57.5t-90 -32t-107.5 -10t-116 5.5t-124 16.5v-319h-172zM326 158h1h1l1 -1h1h1h1h1l1 -1h1h1h1h1q166 -32 238 -25 q149 14 149 166v428q0 52 -14.5 88t-50.5 51.5t-62 24.5t-86.5 3t-83.5 -9.5t-90 -16.5q-8 -1 -12 -2v-706z" />
<glyph unicode="&#xff;" horiz-adv-x="1064" d="M158 297v700h172v-706q0 -52 14.5 -88t50.5 -51.5t62 -24.5t86.5 -3t83.5 9.5t90 16.5q8 1 12 2v845h172v-1112q0 -166 -86 -244.5t-293 -78.5q-154 0 -307 39v149q200 -41 297 -41q121 0 169 37t48 131v127q-69 -11 -124 -16.5t-116 -5.5t-107.5 9.5t-90 32t-71.5 57.5 t-45 89.5t-17 126.5zM281 1237q0 35 25.5 60.5t60.5 25.5t60.5 -25.5t25.5 -60.5t-25.5 -60.5t-60.5 -25.5t-60.5 25.5t-25.5 60.5zM610 1237q0 35 25.5 60.5t60.5 25.5t60.5 -25.5t25.5 -60.5t-25.5 -60.5t-60.5 -25.5t-60.5 25.5t-25.5 60.5z" />
<glyph unicode="&#x152;" horiz-adv-x="1857" d="M133 393v602q0 389 438 389h1166v-157h-627v-449h582v-157h-582v-463h629v-158l-1168 2q-438 0 -438 391zM309 406q0 -126 60 -186t209 -60h356v1069h-356q-149 0 -209 -60t-60 -186v-577z" />
<glyph unicode="&#x153;" horiz-adv-x="1642" d="M98 354v289q0 79 22 144.5t67.5 117t122.5 81.5t179 32h58q203 -6 305 -119q98 115 307 121q102 -2 179 -32t122.5 -81.5t67.5 -117t22 -144.5v-221h-610v-74q0 -213 219 -219q60 2 157.5 21.5t188.5 54.5v-148q-87 -38 -185 -56.5t-161 -20.5q-209 6 -305 116 q-101 -112 -307 -118h-58q-200 4 -295.5 106t-95.5 268zM270 348q0 -213 219 -219h58q219 6 219 219v301q0 105 -55.5 160.5t-163.5 58.5h-58q-108 -3 -163.5 -58.5t-55.5 -160.5v-301zM940 584h438v67q0 105 -55.5 160.5t-163.5 58.5q-108 -3 -163.5 -58.5t-55.5 -160.5 v-67z" />
<glyph unicode="&#x178;" horiz-adv-x="1122" d="M20 1382h185l356 -780l357 780h184l-453 -970v-412h-176v412zM322 1534q0 35 25.5 60.5t60.5 25.5t60.5 -25.5t25.5 -60.5t-25.5 -60.5t-60.5 -25.5t-60.5 25.5t-25.5 60.5zM651 1534q0 35 25.5 60.5t60.5 25.5t60.5 -25.5t25.5 -60.5t-25.5 -60.5t-60.5 -25.5 t-60.5 25.5t-25.5 60.5z" />
<glyph unicode="&#x2c6;" horiz-adv-x="811" d="M193 1106v135l213 152l210 -150v-139l-210 147l-211 -147z" />
<glyph unicode="&#x2dc;" horiz-adv-x="854" d="M133 1204q33 53 81 88t101 35q49 0 117 -35q80 -41 113 -41q53 0 92 62l84 -58q-59 -129 -176 -129q-53 0 -123 37l-39 21t-32.5 12.5t-37.5 5.5q-21 0 -41.5 -10.5t-32.5 -22.5t-32 -34z" />
<glyph unicode="&#x2000;" horiz-adv-x="893" />
<glyph unicode="&#x2001;" horiz-adv-x="1786" />
<glyph unicode="&#x2002;" horiz-adv-x="893" />
<glyph unicode="&#x2003;" horiz-adv-x="1786" />
<glyph unicode="&#x2004;" horiz-adv-x="595" />
<glyph unicode="&#x2005;" horiz-adv-x="446" />
<glyph unicode="&#x2006;" horiz-adv-x="297" />
<glyph unicode="&#x2007;" horiz-adv-x="297" />
<glyph unicode="&#x2008;" horiz-adv-x="223" />
<glyph unicode="&#x2009;" horiz-adv-x="357" />
<glyph unicode="&#x200a;" horiz-adv-x="99" />
<glyph unicode="&#x2010;" horiz-adv-x="757" d="M123 500v141h512v-141h-512z" />
<glyph unicode="&#x2011;" horiz-adv-x="757" d="M123 500v141h512v-141h-512z" />
<glyph unicode="&#x2012;" horiz-adv-x="757" d="M123 500v141h512v-141h-512z" />
<glyph unicode="&#x2013;" horiz-adv-x="995" d="M123 500v141h749v-141h-749z" />
<glyph unicode="&#x2014;" horiz-adv-x="1253" d="M123 500v141h1007v-141h-1007z" />
<glyph unicode="&#x2018;" horiz-adv-x="520" d="M150 1204q0 26 20 85.5t68 142.5h71l-47 -134q34 -5 57 -31.5t23 -62.5q0 -41 -28 -68.5t-68 -27.5t-68 27.5t-28 68.5z" />
<glyph unicode="&#x2019;" horiz-adv-x="489" d="M150 1335q0 41 28 69t68 28t68 -28t28 -69q0 -26 -20 -85t-68 -142h-72l47 133q-34 5 -56.5 31.5t-22.5 62.5z" />
<glyph unicode="&#x201a;" horiz-adv-x="520" d="M164 92q0 41 28 68.5t68 27.5t68 -27.5t28 -68.5q0 -26 -20 -85t-68 -142h-71l47 133q-34 5 -57 31.5t-23 62.5z" />
<glyph unicode="&#x201c;" horiz-adv-x="794" d="M150 1204q0 26 20 85.5t68 142.5h71l-47 -134q34 -5 57 -31.5t23 -62.5q0 -41 -28 -68.5t-68 -27.5t-68 27.5t-28 68.5zM418 1204q0 26 20 85.5t68 142.5h72l-48 -134q34 -5 57 -31.5t23 -62.5q0 -41 -28 -68.5t-68 -27.5t-68 27.5t-28 68.5z" />
<glyph unicode="&#x201d;" horiz-adv-x="800" d="M150 1335q0 41 28 69t68 28t68 -28t28 -69q0 -26 -20 -85t-68 -142h-72l47 133q-34 5 -56.5 31.5t-22.5 62.5zM418 1335q0 41 28 69t68 28t68 -28t28 -69q0 -26 -20 -85t-68 -142h-71l47 133q-34 5 -57 31.5t-23 62.5z" />
<glyph unicode="&#x201e;" horiz-adv-x="790" d="M156 92q0 41 28 68.5t68 27.5t68 -27.5t28 -68.5q0 -26 -20 -85t-68 -142h-72l48 133q-34 5 -57 31.5t-23 62.5zM449 92q0 41 28 68.5t68 27.5t68 -27.5t28 -68.5q0 -26 -20 -85t-68 -142h-72l47 133q-34 5 -56.5 31.5t-22.5 62.5z" />
<glyph unicode="&#x2022;" horiz-adv-x="763" d="M133 594q0 103 72.5 175.5t175.5 72.5t176.5 -72.5t73.5 -175.5t-73.5 -175.5t-176.5 -72.5t-175.5 72.5t-72.5 175.5z" />
<glyph unicode="&#x2026;" horiz-adv-x="1572" d="M158 94q0 38 28 66t66 28t66 -28t28 -66t-28 -66t-66 -28t-66 28t-28 66zM676 94q0 38 28 66t66 28t66 -28t28 -66t-28 -66t-66 -28t-66 28t-28 66zM1190 94q0 38 28 66t66 28t66 -28t28 -66t-28 -66t-66 -28t-66 28t-28 66z" />
<glyph unicode="&#x202f;" horiz-adv-x="357" />
<glyph unicode="&#x2039;" horiz-adv-x="593" d="M82 500l209 319h166l4 -2l-209 -317l205 -314h-170z" />
<glyph unicode="&#x203a;" horiz-adv-x="593" d="M133 182l209 318l-207 313h170l207 -313l-209 -318h-170z" />
<glyph unicode="&#x205f;" horiz-adv-x="446" />
<glyph unicode="&#x20ac;" horiz-adv-x="1067" d="M47 475v146h119v127h-119v145h119v98q0 199 111.5 300.5t355.5 101.5q161 0 319 -33v-156q-168 29 -313 29q-167 0 -232 -55t-65 -197v-88h498v-145h-498v-127h498v-146h-498v-72q0 -142 64.5 -196.5t232.5 -54.5q144 0 313 26v-155q-165 -31 -319 -31q-244 0 -355.5 101 t-111.5 300v82h-119z" />
<glyph unicode="&#x2122;" horiz-adv-x="1531" d="M133 1305v79h496v-79h-205v-603h-88v603h-203zM737 692v692h135l187 -600l186 600h135v-692h-88v563l-174 -555h-119l-174 555v-563h-88z" />
<glyph unicode="&#x25fc;" horiz-adv-x="993" d="M0 0v993h993v-993h-993z" />
</font>
</defs>
</svg>
