<?xml version="1.0" standalone="no"?>
<!DOCTYPE svg PUBLIC "-//W3C//DTD SVG 1.1//EN" "http://www.w3.org/Graphics/SVG/1.1/DTD/svg11.dtd" >
<svg xmlns="http://www.w3.org/2000/svg" xmlns:xlink="http://www.w3.org/1999/xlink" version="1.1">
<metadata></metadata>
<defs>
<font id="darwinregular" horiz-adv-x="1099" >
<font-face units-per-em="2048" ascent="1536" descent="-512" />
<missing-glyph horiz-adv-x="466" />
<glyph horiz-adv-x="0" />
<glyph horiz-adv-x="682" />
<glyph unicode=" "  horiz-adv-x="466" />
<glyph unicode="&#x09;" horiz-adv-x="466" />
<glyph unicode="&#xa0;" horiz-adv-x="466" />
<glyph unicode="!" horiz-adv-x="495" d="M139 98q0 56 29 84.5t78 28.5q114 0 114 -113q0 -118 -114 -118q-49 0 -78 29.5t-29 88.5zM147 1075v359h203v-359l-18 -710h-166z" />
<glyph unicode="&#x22;" horiz-adv-x="595" d="M68 1536h194l-26 -399h-144zM338 1536h192l-24 -399h-146z" />
<glyph unicode="#" horiz-adv-x="1280" d="M35 399l39 170h217l61 295h-223l37 170h221l82 400h184l-82 -400h260l82 400h187l-86 -400h231l-37 -170h-225l-65 -295h233l-37 -170h-229l-82 -399h-185l82 399h-262l-80 -399h-182l82 399h-223zM475 569h262l60 295h-260z" />
<glyph unicode="$" horiz-adv-x="1153" d="M106 115l89 159q164 -100 335 -108v475q-87 16 -153 45.5t-119.5 78t-82 123.5t-28.5 173q0 165 100.5 272.5t282.5 124.5v180h142v-182q176 -17 342 -137l-92 -156q-135 85 -250 99v-445q66 -12 119.5 -30t106 -50.5t88 -76t57.5 -108.5t22 -146q0 -169 -101.5 -284 t-291.5 -142v-185h-142v178q-124 4 -234.5 43.5t-189.5 98.5zM348 1067q0 -95 44.5 -144t137.5 -75v414q-90 -12 -136 -64.5t-46 -130.5zM672 180q91 20 139.5 75.5t48.5 133.5q0 90 -47 143t-141 80v-432z" />
<glyph unicode="%" horiz-adv-x="1816" d="M102 895v254q0 142 88 225.5t234 83.5q143 0 230 -83.5t87 -225.5v-254q0 -142 -87 -226.5t-230 -84.5q-145 0 -233.5 84.5t-88.5 226.5zM287 909q0 -81 37 -124.5t100 -43.5q62 0 98.5 43.5t36.5 124.5v221q0 81 -36.5 125.5t-98.5 44.5q-63 0 -100 -44t-37 -126v-221z M311 0l1045 1534l149 -100l-1048 -1534zM1077 289v254q0 144 87.5 227.5t234.5 83.5q142 0 228.5 -84t86.5 -227v-254q0 -142 -86.5 -227t-228.5 -85q-146 0 -234 85t-88 227zM1260 305q0 -82 36.5 -125t102.5 -43q62 0 98.5 43.5t36.5 124.5v219q0 83 -36.5 126.5 t-98.5 43.5q-66 0 -102.5 -43.5t-36.5 -126.5v-219z" />
<glyph unicode="&#x26;" horiz-adv-x="1337" d="M102 326q0 239 281 434q-180 196 -182 350q0 150 99 251t275 101q193 0 284 -90t91 -237q1 -51 -14.5 -98t-38 -82.5t-64.5 -75.5t-77.5 -67.5t-93.5 -68.5l274 -317q37 54 55.5 128t16.5 130l192 -20q-6 -101 -41 -204t-94 -186l156 -170l-146 -131l-135 152 q-69 -69 -181.5 -111.5t-228.5 -42.5q-428 0 -428 355zM315 334q0 -182 230 -182q78 0 152 30t122 80l-315 363q-189 -146 -189 -291zM406 1118q0 -41 19 -82t42 -70t61 -71q4 -3 5.5 -5t4.5 -5t5 -6q7 5 33.5 25t35 26.5t30.5 24t30 26t24.5 25t23 28t15 27.5t12 32t3.5 33 q0 160 -175 160q-83 0 -126 -44t-43 -124z" />
<glyph unicode="'" horiz-adv-x="323" d="M68 1536h194l-26 -399h-144z" />
<glyph unicode="(" horiz-adv-x="618" d="M125 266v778q0 199 110 339t295 169l37 -176q-111 -15 -176 -114t-65 -244v-725q0 -145 65 -244.5t176 -114.5l-37 -176q-186 29 -295.5 168.5t-109.5 339.5z" />
<glyph unicode=")" horiz-adv-x="618" d="M51 -66q112 15 178 114.5t66 244.5v725q0 145 -66 244t-178 114l39 176q184 -29 294 -169.5t110 -338.5v-778q0 -200 -109.5 -339.5t-294.5 -168.5z" />
<glyph unicode="*" horiz-adv-x="901" d="M78 1130l51 166l252 -94l-8 279h164l-9 -277l246 92l53 -166l-258 -77l164 -222l-133 -100l-147 234l-148 -234l-135 103l168 221z" />
<glyph unicode="+" horiz-adv-x="1148" d="M102 526v189h379v436h191v-436h379v-189h-379v-436h-191v436h-379z" />
<glyph unicode="," horiz-adv-x="409" d="M43 -111q83 53 90 107q-63 31 -63 108q0 64 37.5 96.5t95.5 32.5q60 0 98.5 -33t38.5 -98q0 -60 -22 -116t-80 -109.5t-146 -81.5z" />
<glyph unicode="-" horiz-adv-x="786" d="M102 524v189h582v-189h-582z" />
<glyph unicode="." horiz-adv-x="409" d="M70 104q0 62 37 95.5t98 33.5q60 0 97.5 -34t37.5 -95t-37 -94t-98 -33q-62 0 -98.5 33t-36.5 94z" />
<glyph unicode="/" horiz-adv-x="972" d="M16 -225l772 1831l173 -70l-775 -1829z" />
<glyph unicode="0" horiz-adv-x="1138" d="M115 424v586q0 209 125 330.5t331 121.5t332.5 -122t126.5 -330v-586q0 -209 -126.5 -331t-332.5 -122t-331 122t-125 331zM324 451q0 -140 66 -213.5t181 -73.5q116 0 181 73.5t65 213.5v532q0 139 -65 213t-181 74q-115 0 -181 -74t-66 -213v-532z" />
<glyph unicode="1" horiz-adv-x="645" d="M-20 1217l305 217h180v-1241h178v-193h-598v193h209v987l-176 -117z" />
<glyph unicode="2" horiz-adv-x="1130" d="M115 0v133q193 196 308.5 321.5t206 241t127 197t36.5 154.5q0 104 -57.5 165.5t-170.5 61.5q-100 0 -176.5 -27t-161.5 -80l-88 146q203 149 432 149q218 0 328.5 -109.5t110.5 -299.5q0 -94 -31.5 -186t-105 -198.5t-169.5 -215.5t-249 -263h585v-190h-925z" />
<glyph unicode="3" horiz-adv-x="1107" d="M96 115l78 155q89 -52 169 -80t179 -28q124 0 188 66.5t64 185.5q0 133 -61.5 196.5t-171.5 63.5h-150v166h156q103 0 156 60.5t51 160.5q-2 98 -55 156.5t-160 58.5q-102 0 -178 -23.5t-164 -70.5l-70 145q96 66 195.5 100.5t226.5 34.5q208 0 312 -108.5t104 -284.5 q0 -84 -37 -165t-107 -136q75 -37 125.5 -135.5t50.5 -194.5v-39q0 -193 -118.5 -310.5t-341.5 -117.5q-240 0 -441 144z" />
<glyph unicode="4" horiz-adv-x="1146" d="M66 272v131l491 1031h227l-460 -971h426l2 532h209v-532h139v-191h-139v-272h-211v272h-684z" />
<glyph unicode="5" horiz-adv-x="1103" d="M98 115l78 155q88 -52 170.5 -80t183.5 -28q118 0 185 64t67 173v41q0 136 -60.5 196t-172.5 60q-70 0 -142 -23t-128 -61l-138 101l88 721h703v-189h-518l-47 -418q98 58 221 58q197 0 306.5 -105.5t109.5 -316.5v-70q0 -190 -122.5 -306t-342.5 -116q-244 0 -441 144z " />
<glyph unicode="6" horiz-adv-x="1159" d="M115 385v625q0 207 126 329.5t337 122.5q237 0 436 -149l-86 -146q-88 54 -163.5 80.5t-176.5 26.5q-125 0 -193.5 -76t-68.5 -215v-207q54 40 136 64t165 24q192 0 306 -99t114 -302v-64q0 -206 -127 -317t-338 -111q-138 0 -241 43.5t-164.5 138t-61.5 232.5zM326 416 q0 -254 256 -254q120 0 188 65.5t68 202.5q0 131 -56 187.5t-176 56.5q-169 0 -280 -90v-168z" />
<glyph unicode="7" horiz-adv-x="923" d="M31 1243v191h872v-129l-528 -1305h-228l515 1243h-631z" />
<glyph unicode="8" horiz-adv-x="1167" d="M102 399v41q0 92 55 186.5t130 139.5q-69 53 -110.5 138.5t-41.5 168.5q0 178 113 283.5t336 105.5q224 0 337 -105.5t113 -283.5q0 -82 -40 -166t-111 -139q78 -44 130 -139t52 -189v-41q0 -91 -28.5 -167t-85.5 -135t-151 -92.5t-216 -33.5t-216.5 33.5t-151.5 92.5 t-85.5 135t-28.5 167zM324 406q0 -107 63.5 -175.5t196.5 -68.5t196.5 68.5t63.5 175.5v14q0 109 -67 181.5t-169 72.5h-49q-101 0 -168 -72.5t-67 -181.5v-14zM342 1063q0 -94 62.5 -158.5t160.5 -64.5h29q100 0 165.5 64.5t65.5 158.5q0 96 -61 157.5t-180 61.5 t-180.5 -61.5t-61.5 -157.5z" />
<glyph unicode="9" horiz-adv-x="1153" d="M115 979v59q0 207 124.5 315.5t335.5 108.5q104 0 188 -24.5t146.5 -73.5t96.5 -128t34 -183v-633q0 -209 -124 -329t-347 -120q-247 0 -438 138l88 151q83 -51 161.5 -75.5t182.5 -24.5q126 0 197 73t71 211v199q-108 -65 -294 -65q-193 0 -307.5 99t-114.5 302z M326 1010q0 -130 55 -185t174 -55q171 0 274 61v185q0 256 -254 256q-249 0 -249 -262z" />
<glyph unicode=":" horiz-adv-x="409" d="M70 104q0 62 37 95.5t98 33.5q60 0 97.5 -34t37.5 -95t-37 -94t-98 -33q-62 0 -98.5 33t-36.5 94zM70 1036q0 62 37 95.5t98 33.5q60 0 97.5 -34t37.5 -95t-37 -94t-98 -33q-62 0 -98.5 33t-36.5 94z" />
<glyph unicode=";" horiz-adv-x="409" d="M43 -111q83 53 90 107q-63 31 -63 108q0 64 37.5 96.5t95.5 32.5q60 0 98.5 -33t38.5 -98q0 -60 -22 -116t-80 -109.5t-146 -81.5zM70 1036q0 62 37 95.5t98 33.5q60 0 97.5 -34t37.5 -95t-37 -94t-98 -33q-62 0 -98.5 33t-36.5 94z" />
<glyph unicode="&#x3c;" horiz-adv-x="733" d="M102 496v153l422 398l111 -136l-342 -338l342 -337l-111 -134z" />
<glyph unicode="=" horiz-adv-x="1140" d="M102 270v189h938v-189h-938zM102 729v189h938v-189h-938z" />
<glyph unicode="&#x3e;" horiz-adv-x="733" d="M102 236l342 337l-342 338l111 136l422 -398v-153l-422 -394z" />
<glyph unicode="?" horiz-adv-x="966" d="M66 1337q83 62 175 93.5t218 31.5q198 0 302.5 -98t104.5 -252v-33q0 -64 -13.5 -117.5t-43 -100t-58 -80t-75.5 -79.5q-92 -92 -126 -146t-34 -134v-66h-203v70q0 33 2.5 62t5.5 52t12 46.5t14 38.5t20 36.5t22 32t27 32t28.5 30t34 33t35.5 34.5q69 69 102 128.5 t33 140.5v16q0 77 -47.5 124.5t-148.5 47.5q-99 0 -169.5 -20t-138.5 -64zM281 104q0 62 37 95.5t98 33.5q60 0 97.5 -34t37.5 -95t-37 -94t-98 -33q-62 0 -98.5 33t-36.5 94z" />
<glyph unicode="@" horiz-adv-x="1472" d="M106 416l80 600q18 133 115.5 234.5t237 152.5t295.5 51q116 0 218.5 -31t177.5 -86.5t113 -140t25 -184.5l-59 -449q-16 -120 -78.5 -187t-171.5 -67q-131 0 -170 113q-43 -46 -108 -79.5t-119 -33.5q-129 0 -187 73t-41 210l33 244q17 135 91.5 205.5t197.5 70.5h321 l-73 -561q-8 -66 6.5 -94.5t58.5 -28.5q91 0 109 131l59 440q10 81 -21 145.5t-91.5 104.5t-138.5 61t-165 21q-119 0 -226.5 -36t-186.5 -114.5t-93 -185.5l-77 -567q-10 -81 20.5 -145.5t90.5 -104.5t137.5 -61t164.5 -21q147 0 283 47l33 -112q-142 -60 -326 -60 q-155 0 -282.5 53t-199 156.5t-53.5 235.5zM567 606q-12 -91 13.5 -136.5t97.5 -45.5q52 0 106.5 32t83.5 74l62 474h-170q-141 0 -166 -187z" />
<glyph unicode="A" horiz-adv-x="1200" d="M8 0l490 1434h202l494 -1434h-236l-118 387q-120 -21 -240 -21l-240 21l-118 -387h-234zM410 559q94 -19 189 -19l189 19l-190 619z" />
<glyph unicode="B" horiz-adv-x="1167" d="M123 1434h502q214 0 318 -87.5t104 -273.5v-61q0 -68 -40 -142.5t-108 -113.5q77 -28 131.5 -112.5t54.5 -182.5v-101q0 -162 -113 -261t-327 -99h-520zM336 190h278q121 1 189.5 53.5t68.5 137.5v72q0 92 -52.5 146t-143.5 54h-340v-463zM336 831h315q81 0 130.5 50.5 t49.5 146.5v16q-3 115 -51 156t-162 41h-282v-410z" />
<glyph unicode="C" horiz-adv-x="1058" d="M113 428v578q0 206 134.5 331t344.5 125q128 0 216.5 -34t182.5 -103l-90 -151q-86 53 -148.5 75.5t-160.5 22.5q-120 0 -192 -79t-72 -214v-522q0 -139 72.5 -217t191.5 -78q98 0 160.5 22.5t148.5 75.5l90 -151q-95 -70 -183 -104t-216 -34q-210 0 -344.5 125.5 t-134.5 331.5z" />
<glyph unicode="D" horiz-adv-x="1196" d="M125 0v1434h506q210 0 331 -123.5t121 -333.5v-520q0 -210 -121 -333.5t-331 -123.5h-506zM336 195h295q116 0 177.5 73t61.5 215v467q0 141 -61 215t-178 74h-295v-1044z" />
<glyph unicode="E" horiz-adv-x="1024" d="M123 0v1434h821v-195h-608v-414h508v-190h-508v-442h622v-193h-835z" />
<glyph unicode="F" horiz-adv-x="997" d="M123 0v1434h823v-195h-610v-463h508v-192h-508v-584h-213z" />
<glyph unicode="G" horiz-adv-x="1187" d="M113 426v580q0 207 136 331.5t351 124.5q148 0 250.5 -36.5t196.5 -108.5l-91 -152q-85 55 -162 81t-194 26q-122 0 -197 -78t-75 -215v-524q0 -140 66 -216.5t184 -76.5q84 0 160 37.5t128 107.5v279h-282v184h495v-790h-159l-35 137q-153 -146 -348 -146 q-200 0 -312 121.5t-112 333.5z" />
<glyph unicode="H" horiz-adv-x="1204" d="M123 0v1434h213v-596h534v596h213v-1434h-213v645h-534v-645h-213z" />
<glyph unicode="I" horiz-adv-x="456" d="M123 0v1434h213v-1434h-213z" />
<glyph unicode="J" horiz-adv-x="587" d="M164 -166q92 92 92 264v1336h213v-1352q0 -132 -49 -231t-135 -158z" />
<glyph unicode="K" horiz-adv-x="1105" d="M125 0v1434h211v-686l508 686h256l-473 -635l346 -566q21 -35 45.5 -55t50.5 -24.5t46 -2.5t46 9v-168q-62 -12 -114 -12q-28 0 -53 4q-70 10 -125.5 57.5t-116.5 151.5l-256 430l-160 -213v-410h-211z" />
<glyph unicode="L" horiz-adv-x="972" d="M123 0v1434h213v-1241h616v-193h-829z" />
<glyph unicode="M" horiz-adv-x="1425" d="M123 0v1434h158l432 -856l432 856h158v-1434h-213l8 924l-330 -656h-119l-319 639l6 -907h-213z" />
<glyph unicode="N" horiz-adv-x="1239" d="M123 0v1434h201l587 -1012l-4 1012h211v-1434h-203l-587 1008l6 -1008h-211z" />
<glyph unicode="O" horiz-adv-x="1222" d="M115 430v576q0 138 67.5 243t180 159t251.5 54t252 -54t180.5 -159t67.5 -243v-576q0 -208 -143.5 -333.5t-356.5 -125.5t-356 125.5t-143 333.5zM328 457q0 -139 81 -216t205 -77t204.5 77t80.5 216v522q0 138 -80.5 214.5t-204.5 76.5t-205 -77t-81 -214v-522z" />
<glyph unicode="P" horiz-adv-x="1171" d="M125 0v1434h516q208 0 325 -123t117 -334v-59q0 -211 -117 -334t-325 -123h-305v-461h-211zM336 655h295q116 0 177.5 74t61.5 219q0 144 -61 217.5t-178 73.5h-295v-584z" />
<glyph unicode="Q" horiz-adv-x="1222" d="M113 430v576q0 138 67.5 243t180 159t251.5 54t252 -54t180.5 -159t67.5 -243v-576q0 -143 -70 -249.5t-190 -160.5q61 -91 186 -188l-106 -115q-143 108 -244 258q-50 -4 -76 -4q-213 0 -356 125.5t-143 333.5zM328 457q0 -131 75 -207t187 -82q-35 78 -64 178l150 53 q30 -106 74 -198q69 32 109 97.5t40 158.5v522q0 137 -81 214t-204 77q-125 0 -205.5 -76.5t-80.5 -214.5v-522z" />
<glyph unicode="R" horiz-adv-x="1171" d="M123 0v1434h508q205 0 329.5 -114.5t124.5 -289.5v-74q0 -133 -78 -235t-214 -141l186 -347q20 -36 44 -57t50.5 -25t47.5 -2t48 9v-166q-70 -11 -127 -11q-24 -1 -44 1q-72 6 -128.5 55.5t-109.5 155.5l-187 362q-141 0 -237 29v-584h-213zM336 774q114 -31 287 -31 q117 0 182 67.5t65 172.5v23q0 105 -63 169t-176 64h-295v-465z" />
<glyph unicode="S" horiz-adv-x="1144" d="M106 115l89 159q179 -108 362 -108q139 0 218 61.5t79 161.5q0 109 -71 165t-218 79q-94 14 -166.5 42.5t-131 77.5t-89.5 126.5t-31 181.5q0 179 117.5 289t327.5 110q129 0 227 -35.5t195 -105.5l-92 -156q-86 52 -160.5 78.5t-167.5 26.5q-119 0 -179.5 -55 t-60.5 -146q0 -114 66 -164t207 -74q72 -12 130 -29t117.5 -49.5t99.5 -76.5t65.5 -112.5t25.5 -155.5q0 -193 -130.5 -314t-371.5 -121q-134 0 -253 40t-204 104z" />
<glyph unicode="T" horiz-adv-x="1001" d="M18 1241v193h969v-193h-377v-1241h-215v1241h-377z" />
<glyph unicode="U" horiz-adv-x="1193" d="M119 399v1035h215v-1006q0 -141 54.5 -204.5t176.5 -63.5q92 0 173 48t124 116v1110h215l-2 -1434h-194l-19 119q-62 -66 -149 -107t-189 -41q-205 0 -305 106t-100 322z" />
<glyph unicode="V" horiz-adv-x="1163" d="M8 1434h230l348 -1178l344 1178h223l-473 -1434h-193z" />
<glyph unicode="W" horiz-adv-x="1656" d="M8 1434h223l312 -1180l192 551l-231 629h196l129 -394l134 394h194l-227 -613l196 -567l306 1180h217l-428 -1434h-183l-202 565l-211 -565h-185z" />
<glyph unicode="X" horiz-adv-x="1124" d="M6 0l420 723l-414 711h246l301 -555l311 555h242l-416 -701l424 -733h-248l-309 573l-313 -573h-244z" />
<glyph unicode="Y" d="M8 1434h236l309 -693l305 693h236l-435 -914v-520h-215v518z" />
<glyph unicode="Z" horiz-adv-x="1083" d="M61 141q116 136 208.5 258.5t182 262t159.5 285.5t116 294h-643v193h909v-146q-102 -301 -250.5 -564.5t-355.5 -530.5h637v-193h-961z" />
<glyph unicode="[" horiz-adv-x="557" d="M135 -225v1761h365v-178h-176v-1405h176v-178h-365z" />
<glyph unicode="\" horiz-adv-x="974" d="M16 1536l172 70l773 -1831l-170 -68z" />
<glyph unicode="]" horiz-adv-x="557" d="M57 -47h179v1405h-179v178h367v-1761h-367v178z" />
<glyph unicode="^" horiz-adv-x="798" d="M84 1073l227 438h178l226 -438l-162 -55l-154 338l-155 -338z" />
<glyph unicode="_" horiz-adv-x="991" d="M16 -100h961v-150h-961v150z" />
<glyph unicode="`" horiz-adv-x="587" d="M115 1448l157 96l170 -297l-106 -67z" />
<glyph unicode="a" horiz-adv-x="1067" d="M90 287q0 88 26.5 149t79 95t120.5 48.5t161 14.5q121 0 256 -29v119q0 121 -52 171t-169 50q-159 0 -303 -80l-66 148q186 112 398 112q397 0 397 -380v-705h-168l-14 104q-53 -56 -134 -90t-169 -34q-170 0 -266.5 75t-96.5 232zM297 297q0 -152 188 -152 q78 0 143.5 35.5t104.5 95.5v146q-123 24 -244 24q-101 0 -146.5 -32t-45.5 -117z" />
<glyph unicode="b" horiz-adv-x="1103" d="M135 0v1536h205v-575q57 57 129 90.5t149 33.5q363 0 363 -409v-270q0 -198 -112 -312t-302 -114q-140 0 -276 83l-15 -63h-141zM340 225q110 -65 217 -65q219 0 219 268l2 223q0 129 -45 189.5t-149 60.5q-66 0 -133 -41.5t-111 -99.5v-535z" />
<glyph unicode="c" horiz-adv-x="1032" d="M125 406v253q0 198 114 312t312 114q122 0 206.5 -32.5t174.5 -98.5l-84 -141q-81 50 -139.5 71t-151.5 21q-113 0 -171 -68.5t-58 -201.5v-205q0 -133 58 -201.5t171 -68.5q88 0 151.5 22.5t141.5 69.5l82 -143q-82 -61 -172 -95t-209 -34q-198 0 -312 114t-114 312z " />
<glyph unicode="d" horiz-adv-x="1103" d="M127 406v270q0 199 91.5 304t270.5 105q156 0 279 -55v506h205v-1536h-162l-14 96q-119 -116 -297 -116q-182 0 -277.5 112t-95.5 314zM328 428q0 -135 48 -201.5t154 -66.5q165 0 238 125v565q-105 51 -244 51q-101 0 -148.5 -61.5t-47.5 -188.5v-223z" />
<glyph unicode="e" horiz-adv-x="1095" d="M125 406v253q0 198 115 312t313 114t312 -114t114 -312v-190h-651v-49q0 -130 58.5 -196t168.5 -66q161 0 317 94l80 -143q-172 -129 -399 -129q-199 0 -313.5 113.5t-114.5 312.5zM326 618h450v25q0 130 -57 197t-166 67q-110 0 -168.5 -66.5t-58.5 -197.5v-25z" />
<glyph unicode="f" horiz-adv-x="708" d="M16 895v170h119v117q0 366 375 366q98 0 178 -26l-33 -162q-61 14 -123 14q-100 0 -146 -48t-46 -148v-113h297v-170h-297v-895h-203l-2 895h-119z" />
<glyph unicode="g" horiz-adv-x="989" d="M53 -37q0 76 41 137.5t117 122.5q-34 39 -34 92q0 12 1 25q10 69 64 123q-140 98 -140 276q0 169 100 257.5t285 88.5q142 0 236 -61l121 201l149 -109l-174 -174q51 -76 51 -213q0 -150 -99.5 -241t-276.5 -91q-68 0 -123 15q-15 -16 -23 -38.5t-7.5 -44t16 -38.5 t44.5 -21l230 -22q164 -14 248 -78t84 -199q0 -148 -97.5 -223.5t-275.5 -75.5h-182q-182 0 -268.5 72t-86.5 219zM250 -39q0 -145 190 -145h138q86 0 135 39t49 112q0 65 -49 93t-144 36l-241 23q-78 -64 -78 -158zM299 735q0 -184 188 -184q187 0 187 184q0 185 -187 185 q-188 0 -188 -185z" />
<glyph unicode="h" horiz-adv-x="1097" d="M135 0v1536h205v-575q56 57 128.5 90.5t149.5 33.5q182 0 266.5 -97t84.5 -290v-698h-203v672q0 122 -42.5 176.5t-145.5 54.5q-67 0 -131 -39t-107 -96v-768h-205z" />
<glyph unicode="i" horiz-adv-x="471" d="M100 1364q0 62 37 95.5t99 33.5q60 0 97.5 -34t37.5 -95t-37 -94t-98 -33q-62 0 -99 33t-37 94zM135 0v1065h205v-1065h-205z" />
<glyph unicode="j" horiz-adv-x="477" d="M-88 -164q124 4 177.5 67t53.5 193l-2 969h205v-991q0 -188 -104.5 -290.5t-300.5 -111.5zM111 1364q0 62 35 94.5t96 32.5t96 -32.5t35 -94.5t-34.5 -93.5t-96.5 -31.5t-96.5 31.5t-34.5 93.5z" />
<glyph unicode="k" horiz-adv-x="1005" d="M135 0v1536h205v-942l414 471h247l-393 -444l217 -390q20 -36 44.5 -56t51.5 -25t49 -3t48 9l-2 -164q-66 -12 -119 -12q-25 0 -48 3q-70 8 -124 56t-111 154l-145 268l-129 -148v-313h-205z" />
<glyph unicode="l" horiz-adv-x="471" d="M135 0v1536h205v-1536h-205z" />
<glyph unicode="m" horiz-adv-x="1652" d="M135 0v1065h176l19 -115q124 135 278 135q93 0 162.5 -43.5t101.5 -121.5q143 165 330 165q167 0 242.5 -93t75.5 -292v-700h-203v672q0 127 -30.5 180t-121.5 53q-76 0 -136 -44t-99 -109v-752h-203v666q0 115 -42.5 176t-117.5 61q-65 0 -125.5 -40t-101.5 -101v-762 h-205z" />
<glyph unicode="n" horiz-adv-x="1101" d="M135 0v1065h176l19 -115q57 59 135.5 97t157.5 38q179 0 262.5 -99.5t83.5 -293.5v-692h-203v666q0 124 -41.5 180.5t-144.5 56.5q-66 0 -131.5 -41t-108.5 -100v-762h-205z" />
<glyph unicode="o" d="M125 406v253q0 199 114.5 312.5t313.5 113.5q198 0 312 -113.5t114 -312.5v-253q0 -199 -114.5 -312.5t-311.5 -113.5q-199 0 -313.5 113.5t-114.5 312.5zM328 428q0 -131 58 -199.5t167 -68.5q108 0 165.5 68.5t57.5 199.5v209q0 131 -57.5 199.5t-165.5 68.5 q-109 0 -167 -68.5t-58 -199.5v-209z" />
<glyph unicode="p" horiz-adv-x="1103" d="M135 1065h176l19 -115q56 59 133.5 97t154.5 38q363 0 363 -409v-270q0 -199 -109 -312.5t-301 -113.5q-127 0 -231 38v-325h-203zM340 201q83 -41 217 -41q219 0 219 268l2 223q0 129 -45 189.5t-149 60.5q-68 0 -134 -40.5t-110 -98.5v-561z" />
<glyph unicode="q" horiz-adv-x="1103" d="M125 389v270q0 200 104.5 313t292.5 113q133 0 271 -69l30 49h148v-1372h-205v411q-55 -56 -128.5 -90t-150.5 -34q-362 0 -362 409zM328 414q0 -129 45 -189.5t149 -60.5q66 0 133 41.5t111 99.5v547q-95 53 -221 53q-217 0 -217 -268v-223z" />
<glyph unicode="r" horiz-adv-x="673" d="M135 0v1065h176l21 -127q58 67 140 107t167 40l16 -188q-93 0 -175.5 -41t-139.5 -111v-745h-205z" />
<glyph unicode="s" horiz-adv-x="987" d="M88 106l78 144q154 -100 321 -100q104 0 161 42t57 105q0 69 -53 102t-179 54q-47 8 -76 14.5t-70.5 19t-67 27t-54 39t-45 54.5t-27 73.5t-10.5 97.5q0 139 96.5 223t284.5 84q118 0 208 -32t177 -95l-78 -139q-80 48 -148 72t-153 24q-184 0 -184 -133q0 -28 6.5 -49.5 t23 -36.5t32 -24.5t48 -18t54.5 -13t67 -11.5q44 -7 75 -13.5t70.5 -19t66 -28t54.5 -40t45 -55t28 -74t11 -96.5v-5q1 -138 -107 -227q-110 -91 -304 -91q-232 0 -408 126z" />
<glyph unicode="t" horiz-adv-x="686" d="M27 895v170h118l45 203h152v-203h311v-170h-311v-533q0 -121 32.5 -168t127.5 -47q80 0 143 17l31 -162q-102 -29 -199 -29q-187 0 -262.5 84.5t-75.5 284.5v553h-112z" />
<glyph unicode="u" horiz-adv-x="1081" d="M129 389v676h205v-647q0 -138 37 -200t133 -62q75 0 139.5 41.5t106.5 105.5v762h202v-1065h-174l-20 115q-139 -135 -299 -135q-176 0 -253 102t-77 307z" />
<glyph unicode="v" horiz-adv-x="976" d="M10 1065h215l267 -817l260 817h215l-381 -1065h-197z" />
<glyph unicode="w" horiz-adv-x="1417" d="M6 1065h215l244 -817l162 526l-84 291h217l198 -817l238 817h215l-358 -1065h-197l-141 477l-156 -477h-194z" />
<glyph unicode="x" horiz-adv-x="1007" d="M10 0l361 545l-342 520h239l236 -383l237 383h240l-344 -516l358 -549h-237l-256 410l-254 -410h-238z" />
<glyph unicode="y" horiz-adv-x="976" d="M10 1065h215l267 -780l260 780h215l-342 -922l-39 -106l-127 -346h-211l141 354z" />
<glyph unicode="z" horiz-adv-x="925" d="M68 0v141q100 92 174.5 169t148 170t128.5 195t91 214h-530v176h764v-131q-67 -226 -177.5 -401.5t-283.5 -356.5h485v-176h-800z" />
<glyph unicode="{" horiz-adv-x="694" d="M74 559v193h61q67 0 108.5 49.5t41.5 150.5v285q0 156 71.5 227.5t214.5 71.5h56v-172h-21q-73 0 -99 -35.5t-26 -116.5v-268q0 -213 -143 -289q69 -35 106 -111t37 -177v-269q0 -81 26 -116t99 -35h21v-172h-56q-143 0 -214.5 71.5t-71.5 227.5v284q0 101 -41.5 151 t-108.5 50h-61z" />
<glyph unicode="|" horiz-adv-x="450" d="M137 -348v1925h178v-1925h-178z" />
<glyph unicode="}" horiz-adv-x="694" d="M68 -53h22q72 0 98.5 35.5t26.5 115.5v269q0 101 37 177t106 111q-143 76 -143 289v268q0 81 -26.5 116.5t-98.5 35.5h-22v172h57q142 0 214.5 -71.5t72.5 -227.5v-285q0 -101 41 -150.5t108 -49.5h62v-193h-62q-67 0 -108 -50t-41 -151v-284q0 -156 -72.5 -227.5 t-214.5 -71.5h-57v172z" />
<glyph unicode="~" horiz-adv-x="1171" d="M106 582q18 108 90.5 177.5t186.5 69.5q52 0 113.5 -20.5t107 -45t97 -45t87.5 -20.5q51 0 82 33t37 84l160 -24q-14 -113 -84 -182.5t-192 -69.5q-53 0 -112 20t-103 44.5t-97 44.5t-96 20q-53 0 -83 -32t-36 -83z" />
<glyph unicode="&#xa1;" horiz-adv-x="495" d="M139 1335q0 59 29 89t78 30q54 0 84 -29.5t30 -89.5q0 -112 -114 -112q-49 0 -78 28t-29 84zM147 0v358l19 711h166l18 -711v-358h-203z" />
<glyph unicode="&#xa2;" horiz-adv-x="1032" d="M125 629v172q0 185 99.5 297t275.5 127v209h137v-211q89 -10 154.5 -40t140.5 -87l-80 -133q-66 40 -109.5 58.5t-105.5 25.5v-662q109 15 219 84l76 -137q-72 -52 -139.5 -82.5t-155.5 -40.5v-209h-137v205q-176 15 -275.5 127t-99.5 297zM313 649q0 -116 47.5 -184 t139.5 -80v659q-92 -12 -139.5 -80t-47.5 -184v-131z" />
<glyph unicode="&#xa3;" horiz-adv-x="1040" d="M70 0v158q72 45 114.5 120t42.5 164v217h-157v183h157v311q0 395 400 395q165 0 311 -73l-66 -150q-100 49 -221 49q-115 0 -167 -53t-52 -170v-309h285v-183h-285v-184q0 -53 -9.5 -102t-23 -81t-27 -56t-22.5 -35l-10 -11h633v-190h-903z" />
<glyph unicode="&#xa4;" horiz-adv-x="1183" d="M96 311l137 146q-40 81 -40 196v90q0 114 40 195l-137 147l129 136l135 -142q97 62 234 62q139 0 231 -62l136 142l129 -136l-140 -147q43 -82 43 -195v-90q0 -108 -43 -196l140 -146l-129 -135l-136 141q-95 -61 -231 -61q-141 0 -236 61l-133 -143zM371 672 q0 -120 59.5 -183t163.5 -63q102 0 161.5 63t59.5 183v51q0 122 -59 185t-162 63q-104 0 -163.5 -63t-59.5 -185v-51z" />
<glyph unicode="&#xa5;" horiz-adv-x="1101" d="M16 1436l232 10l309 -629l305 617h228l-396 -762h330v-168h-362v-148h362v-168h-362v-188h-211v188h-365v168h365v148h-365v168h328z" />
<glyph unicode="&#xa6;" horiz-adv-x="450" d="M137 -348v713h178v-713h-178zM137 860v717h178v-717h-178z" />
<glyph unicode="&#xa7;" horiz-adv-x="1042" d="M102 629v24q0 68 40.5 137t103.5 109q-117 82 -117 217v31q0 141 97 228t282 87q117 0 208 -33t177 -96l-82 -137q-77 46 -145 69t-154 23q-176 0 -176 -145v-21q0 -65 61.5 -101t169.5 -58q59 -12 105 -26t99.5 -39.5t88.5 -58t58.5 -83.5t23.5 -113v-29 q0 -63 -47.5 -131.5t-110.5 -111.5q131 -76 131 -221v-29q0 -141 -104 -232.5t-289 -91.5q-233 0 -409 127l77 146q162 -99 326 -99q99 0 146 43t47 113v20q0 59 -58 93t-166 57q-63 12 -112 27t-102 41.5t-88.5 60.5t-58 86.5t-22.5 116.5zM311 645q0 -30 8.5 -53t30 -41.5 t42.5 -30.5t63.5 -25t73 -21t89.5 -21q48 29 82.5 74t34.5 85v13q0 43 -23 74t-64 49t-80 28t-89.5 20t-72.5 17q-40 -23 -67.5 -66.5t-27.5 -89.5v-12z" />
<glyph unicode="&#xa8;" horiz-adv-x="876" d="M299 1317q0 60 34.5 93.5t94.5 35.5h12q60 0 97.5 -34t37.5 -95q0 -60 -36 -92.5t-95 -34.5h-4h-6q-62 0 -98.5 33t-36.5 94z" />
<glyph unicode="&#xa9;" horiz-adv-x="1400" d="M115 422v584q0 136 82.5 239.5t214.5 156t290 52.5t290 -52.5t214 -156t82 -239.5v-584q0 -103 -48 -189.5t-128.5 -143t-186.5 -87.5t-223 -31t-223 31t-187 87.5t-129 143t-48 189.5zM264 428q0 -97 65.5 -168.5t163 -105t209.5 -33.5q111 0 208.5 33.5t163 105 t65.5 168.5v571q0 96 -65.5 168t-163 106t-208.5 34t-209 -34t-163.5 -106t-65.5 -168v-571zM399 606v215q0 163 76 243.5t236 80.5q86 0 150.5 -26t133.5 -77l-61 -104q-61 36 -107.5 52t-113.5 16q-87 0 -123.5 -49t-36.5 -156v-172q0 -108 37 -157.5t123 -49.5 q68 0 115.5 16.5t105.5 53.5l61 -107q-69 -51 -133.5 -76.5t-150.5 -25.5q-160 0 -236 80.5t-76 242.5z" />
<glyph unicode="&#xaa;" horiz-adv-x="876" d="M74 799q0 258 313 258q93 0 211 -27v98q0 95 -42 133.5t-136 38.5q-140 0 -242 -59l-59 127q151 90 327 90q328 0 328 -311v-584h-141l-17 86q-41 -45 -110.5 -73.5t-136.5 -28.5q-137 0 -216 62t-79 190zM250 807q0 -125 139 -125q59 0 118.5 31t90.5 78v122 q-99 21 -201 21q-72 0 -109.5 -28.5t-37.5 -98.5z" />
<glyph unicode="&#xab;" horiz-adv-x="985" d="M276 508v129l295 307l27 -35l33 35l96 -125l-229 -248l229 -245l-96 -125l-33 35l-27 -35z" />
<glyph unicode="&#xac;" horiz-adv-x="1282" d="M115 719v188h1056v-495h-198v307h-858z" />
<glyph unicode="&#xad;" horiz-adv-x="786" d="M102 524v189h582v-189h-582z" />
<glyph unicode="&#xae;" horiz-adv-x="1400" d="M115 422v584q0 136 82.5 239.5t214.5 156t290 52.5t290 -52.5t214 -156t82 -239.5v-584q0 -103 -48 -189.5t-128.5 -143t-186.5 -87.5t-223 -31t-223 31t-187 87.5t-129 143t-48 189.5zM264 428q0 -97 65.5 -168.5t163 -105t209.5 -33.5q111 0 208.5 33.5t163 105 t65.5 168.5v571q0 96 -65.5 168t-163 106t-208.5 34t-209 -34t-163.5 -106t-65.5 -168v-571zM420 299v831h307q130 0 203.5 -64t73.5 -185v-47q0 -85 -40.5 -145t-111.5 -85l176 -305h-188l-158 285h-107v-285h-155zM575 717h138q68 0 100.5 30t32.5 99v18q0 70 -32 98.5 t-101 28.5h-138v-274z" />
<glyph unicode="&#xaf;" horiz-adv-x="778" d="M100 1212v189h582v-189h-582z" />
<glyph unicode="&#xb0;" horiz-adv-x="710" d="M92 1163v33q0 122 71 195t189 73q124 0 197.5 -73t73.5 -195v-33q0 -126 -72.5 -197t-198.5 -71q-120 0 -190 71t-70 197zM227 1176q0 -72 31.5 -113t91.5 -41q135 0 135 154q0 157 -135 157q-123 0 -123 -157z" />
<glyph unicode="&#xb1;" horiz-adv-x="1177" d="M115 59v177h948v-177h-948zM115 651v180h383v316h182v-316h383v-180h-383v-315h-182v315h-383z" />
<glyph unicode="&#xb2;" horiz-adv-x="841" d="M96 487v105l377 420q84 91 84 170q0 55 -33.5 90t-99.5 35q-52 0 -98.5 -11.5t-75.5 -25t-76 -39.5l-63 117q75 52 150 80t171 28q145 0 218 -74.5t73 -197.5q0 -76 -39 -145t-104 -142l-234 -262h393v-148h-643z" />
<glyph unicode="&#xb3;" horiz-adv-x="827" d="M98 561l54 125q105 -63 237 -63q69 0 108.5 37.5t39.5 103.5v12q0 67 -28.5 105.5t-74.5 38.5h-125v129h125q43 0 67.5 45t24.5 90q0 56 -30.5 90.5t-94.5 34.5q-129 0 -227 -56l-53 117q124 88 291 88q140 0 213 -72t73 -190q0 -54 -22 -112t-60 -95q42 -26 70.5 -85.5 t28.5 -117.5v-26q0 -130 -84 -209.5t-232 -79.5q-170 0 -301 90z" />
<glyph unicode="&#xb4;" horiz-adv-x="587" d="M131 1247l170 297l158 -96l-219 -268z" />
<glyph unicode="&#xb5;" horiz-adv-x="1110" d="M117 -246q43 107 43 273v1038h205l-3 -637q0 -268 209 -268q99 0 153 68.5t54 199.5v637h205v-659q-1 -199 -107 -312.5t-288 -113.5q-144 0 -223 100l-3 -111q0 -90 -23 -167.5t-44 -108.5z" />
<glyph unicode="&#xb6;" horiz-adv-x="1148" d="M127 965v55q0 199 111.5 306.5t318.5 107.5h459v-1659h-133v1503h-152v-1503h-133v776h-59q-191 0 -301.5 108.5t-110.5 305.5z" />
<glyph unicode="&#xb7;" horiz-adv-x="409" d="M70 651q0 62 37 95.5t98 33.5q60 0 97.5 -34t37.5 -95t-37 -94t-98 -33q-62 0 -98.5 33t-36.5 94z" />
<glyph unicode="&#xb8;" horiz-adv-x="528" d="M100 -317l11 84q37 -11 67 -11q36 0 58 14t22 40q0 30 -30 45t-60 15l-29 -1l51 131h142l-25 -72q55 -8 89 -39t34 -86q0 -40 -18.5 -68.5t-50.5 -44t-66.5 -22t-73.5 -6.5q-63 0 -121 21z" />
<glyph unicode="&#xb9;" horiz-adv-x="567" d="M29 1272l237 170h133v-791h127v-141h-422v141h132v588l-132 -88z" />
<glyph unicode="&#xba;" horiz-adv-x="860" d="M78 897v211q0 164 94.5 257t257.5 93t257.5 -93t94.5 -257v-211q0 -163 -94.5 -256.5t-257.5 -93.5t-257.5 93.5t-94.5 256.5zM252 918q0 -209 178 -209q176 0 176 209v169q0 211 -176 211q-178 0 -178 -211v-169z" />
<glyph unicode="&#xbb;" horiz-adv-x="985" d="M260 326l232 245l-232 248l98 125l33 -35l27 35l295 -307v-129l-295 -307l-27 32l-33 -32z" />
<glyph unicode="&#xbc;" horiz-adv-x="1705" d="M53 1272l238 170h131v-791h127v-141h-422v141h131v588l-129 -88zM309 0l918 1434h215l-920 -1434h-213zM926 176v103l305 667h172l-277 -622h252v313h166v-313h80v-148h-82v-176h-164v176h-452z" />
<glyph unicode="&#xbd;" horiz-adv-x="1839" d="M53 1272l238 170h131v-791h127v-141h-422v141h131v588l-129 -88zM293 0l915 1434h215l-919 -1434h-211zM1118 0v104l379 420q84 91 84 170q0 55 -33.5 90t-99.5 35q-76 0 -129.5 -18.5t-120.5 -57.5l-65 117q78 53 152.5 81t170.5 28q145 0 218 -75t73 -198 q0 -76 -39 -144.5t-104 -141.5l-236 -263h391v-147h-641z" />
<glyph unicode="&#xbe;" horiz-adv-x="1771" d="M68 561l53 125q105 -63 237 -63q69 0 108.5 37.5t39.5 103.5v12q0 67 -28.5 105.5t-74.5 38.5h-127v129h127q43 0 68 45t25 90q0 56 -30.5 90.5t-94.5 34.5q-130 0 -228 -56l-53 117q124 88 291 88q140 0 213.5 -72.5t73.5 -189.5q0 -53 -22.5 -111.5t-59.5 -95.5 q42 -26 70 -85.5t28 -117.5v-26q0 -130 -83.5 -209.5t-231.5 -79.5q-170 0 -301 90zM367 0l917 1434h213l-917 -1434h-213zM989 176v103l305 667h172l-274 -622h252v313h164v-313h82v-148h-84v-176h-162v176h-455z" />
<glyph unicode="&#xbf;" horiz-adv-x="966" />
<glyph unicode="&#xc0;" horiz-adv-x="1200" d="M8 0l490 1434h202l494 -1434h-236l-118 387q-240 -41 -480 0l-118 -387h-234zM354 1747l158 96l170 -297l-107 -67zM410 559q189 -37 378 0l-190 619z" />
<glyph unicode="&#xc1;" horiz-adv-x="1200" d="M8 0l490 1434h202l494 -1434h-236l-118 387q-240 -41 -480 0l-118 -387h-234zM410 559q189 -37 378 0l-190 619zM528 1554l170 297l158 -96l-219 -268z" />
<glyph unicode="&#xc2;" horiz-adv-x="1200" d="M8 0l490 1434h202l494 -1434h-236l-118 387q-240 -41 -480 0l-118 -387h-234zM369 1554l145 211h168l145 -211l-145 -47l-84 146l-82 -146zM410 559q189 -37 378 0l-190 619z" />
<glyph unicode="&#xc3;" horiz-adv-x="1200" d="M8 0l490 1434h202l494 -1434h-236l-118 387q-240 -41 -480 0l-118 -387h-234zM244 1561q8 90 60 149t138 59q50 0 110.5 -22.5t109.5 -45t73 -22.5q67 0 74 78l145 -33q-8 -95 -57.5 -153t-140.5 -58q-61 0 -158.5 45.5t-132.5 45.5q-71 0 -74 -78zM410 559 q189 -37 378 0l-190 619z" />
<glyph unicode="&#xc4;" horiz-adv-x="1200" d="M8 0l490 1434h202l494 -1434h-236l-118 387q-240 -41 -480 0l-118 -387h-234zM254 1663q0 63 28.5 98t82.5 35q57 0 86.5 -34.5t29.5 -98.5q0 -61 -30 -94t-86 -33q-54 0 -82.5 33.5t-28.5 93.5zM410 559q189 -37 378 0l-190 619zM717 1663q0 133 110 133q55 0 84 -34.5 t29 -98.5q0 -61 -29 -94t-84 -33q-110 0 -110 127z" />
<glyph unicode="&#xc5;" horiz-adv-x="1200" d="M8 0l490 1434h202l494 -1434h-236l-118 387q-240 -41 -480 0l-118 -387h-234zM410 559q189 -37 378 0l-190 619zM440 1642v21q0 70 43.5 113t112.5 43q72 0 117 -43t45 -113v-21q0 -72 -44.5 -113.5t-117.5 -41.5q-70 0 -113 41.5t-43 113.5zM530 1651q0 -37 17 -58.5 t49 -21.5q35 0 53.5 21.5t18.5 58.5q0 82 -72 82q-66 0 -66 -82z" />
<glyph unicode="&#xc6;" horiz-adv-x="1861" d="M2 0l746 1434h1030v-195h-609v-500h506v-192h-506v-354h623v-193h-838v463h-467l-227 -463h-258zM578 655h376v588h-90z" />
<glyph unicode="&#xc7;" horiz-adv-x="1157" d="M113 430v576q0 206 134.5 331t344.5 125q178 0 299.5 -80.5t157.5 -218.5l-205 -53q-25 74 -90.5 116t-161.5 42q-120 0 -192 -76t-72 -213v-522q0 -138 72 -214.5t192 -76.5q96 0 161.5 42t90.5 116l205 -54q-32 -122 -132.5 -200t-250.5 -95l-15 -47q55 -8 89 -39 t34 -86q0 -40 -19 -68.5t-51 -43.5t-67 -22t-74 -7q-60 0 -121 21l13 84q33 -11 65 -11q36 0 58 14t22 40q0 30 -30 45t-60 15l-29 -1l43 106q-184 21 -297.5 143.5t-113.5 311.5z" />
<glyph unicode="&#xc8;" horiz-adv-x="1026" d="M123 0v1434h821v-195h-608v-414h508v-190h-508v-442h622v-193h-835zM330 1737l157 96l170 -297l-106 -68z" />
<glyph unicode="&#xc9;" horiz-adv-x="1026" d="M123 0v1434h821v-195h-608v-414h508v-188h-508v-444h622v-193h-835zM457 1552l170 297l157 -96l-219 -268z" />
<glyph unicode="&#xca;" horiz-adv-x="1026" d="M123 0v1434h821v-195h-608v-414h508v-190h-508v-442h622v-193h-835zM315 1554l146 211h168l145 -211l-145 -47l-84 146l-82 -146z" />
<glyph unicode="&#xcb;" horiz-adv-x="1026" d="M123 0v1434h821v-195h-608v-414h508v-190h-508v-442h622v-193h-835zM188 1663q0 63 28.5 98t82.5 35q57 0 87 -35t30 -98q0 -60 -30 -93.5t-87 -33.5q-54 0 -82.5 33.5t-28.5 93.5zM641 1663q0 63 28.5 98t82.5 35q55 0 84.5 -35t29.5 -98q0 -60 -29.5 -93.5t-84.5 -33.5 q-54 0 -82.5 33.5t-28.5 93.5z" />
<glyph unicode="&#xcc;" horiz-adv-x="456" d="M0 1743l158 96l170 -297l-107 -67zM123 0v1434h213v-1434h-213z" />
<glyph unicode="&#xcd;" horiz-adv-x="456" d="M123 0v1434h213v-1434h-213zM137 1534l170 297l158 -96l-219 -269z" />
<glyph unicode="&#xce;" horiz-adv-x="456" d="M2 1554l145 211h168l146 -211l-146 -47l-84 146l-81 -146zM123 0v1434h213v-1434h-213z" />
<glyph unicode="&#xcf;" horiz-adv-x="456" d="M-31 1663q0 64 28 98.5t81 34.5q112 0 112 -133q0 -127 -112 -127q-53 0 -81 33t-28 94zM123 0v1434h213v-1434h-213zM272 1663q0 64 28 98.5t81 34.5q55 0 84 -34.5t29 -98.5q0 -61 -29 -94t-84 -33q-53 0 -81 33t-28 94z" />
<glyph unicode="&#xd0;" horiz-adv-x="1196" d="M18 635v180h107v619h506q210 0 331 -123.5t121 -333.5v-520q0 -210 -121 -333.5t-331 -123.5h-506v635h-107zM336 195h295q116 0 177.5 73t61.5 215v467q0 141 -61.5 215t-177.5 74h-295v-424h297v-180h-297v-440z" />
<glyph unicode="&#xd1;" horiz-adv-x="1239" d="M123 0v1434h201l587 -1012l-4 1012h211v-1434h-203l-587 1008l6 -1008h-211zM264 1563q8 90 60.5 149.5t138.5 59.5q50 0 110.5 -23t109.5 -45.5t73 -22.5q66 0 73 78l146 -33q-8 -95 -58 -152.5t-141 -57.5q-61 0 -158.5 45t-132.5 45q-70 0 -73 -78z" />
<glyph unicode="&#xd2;" horiz-adv-x="1222" d="M115 430v576q0 138 67.5 243t180 159t251.5 54t252 -54t180.5 -159t67.5 -243v-576q0 -208 -143.5 -333.5t-356.5 -125.5t-356 125.5t-143 333.5zM328 457q0 -139 81 -215t205 -76t204.5 76t80.5 215v522q0 137 -80.5 213t-204.5 76t-205 -76t-81 -213v-522zM377 1769 l158 97l170 -297l-107 -68z" />
<glyph unicode="&#xd3;" horiz-adv-x="1222" d="M115 430v576q0 138 67.5 243t180 159t251.5 54t252 -54t180.5 -159t67.5 -243v-576q0 -208 -143.5 -333.5t-356.5 -125.5t-356 125.5t-143 333.5zM328 457q0 -139 81 -215t205 -76t204.5 76t80.5 215v522q0 137 -80.5 213t-204.5 76t-205 -76t-81 -213v-522zM551 1569 l170 297l158 -97l-220 -268z" />
<glyph unicode="&#xd4;" horiz-adv-x="1222" d="M115 430v576q0 138 67.5 243t180 159t251.5 54t252 -54t180.5 -159t67.5 -243v-576q0 -208 -143.5 -333.5t-356.5 -125.5t-356 125.5t-143 333.5zM328 457q0 -139 81 -215t205 -76t204.5 76t80.5 215v522q0 137 -80.5 213t-204.5 76t-205 -76t-81 -213v-522zM385 1554 l145 211h168l146 -211l-146 -47l-84 146l-82 -146z" />
<glyph unicode="&#xd5;" horiz-adv-x="1222" d="M115 430v576q0 138 67.5 243t180 159t251.5 54t252 -54t180.5 -159t67.5 -243v-576q0 -208 -143.5 -333.5t-356.5 -125.5t-356 125.5t-143 333.5zM260 1563q8 90 60.5 149.5t138.5 59.5q50 0 110.5 -23t109.5 -45.5t73 -22.5q66 0 73 78l146 -33q-8 -95 -58 -152.5 t-141 -57.5q-61 0 -158.5 45t-132.5 45q-70 0 -73 -78zM328 457q0 -139 81 -215t205 -76t204.5 76t80.5 215v522q0 137 -80.5 213t-204.5 76t-205 -76t-81 -213v-522z" />
<glyph unicode="&#xd6;" horiz-adv-x="1239" d="M121 430v576q0 207 142.5 331.5t357.5 124.5q139 0 251.5 -54t180 -159t67.5 -243v-576q0 -208 -143 -333.5t-356 -125.5q-140 0 -253 54.5t-180 160t-67 244.5zM281 1663q0 64 28 98.5t82 34.5q55 0 86 -35t31 -98q0 -60 -31 -93.5t-86 -33.5q-54 0 -82 33t-28 94z M334 457q0 -139 81 -215t206 -76q124 0 204 76t80 215v522q0 137 -80 213t-204 76t-205.5 -76t-81.5 -213v-522zM733 1663q0 63 28.5 98t82.5 35q56 0 85 -34.5t29 -98.5q0 -61 -29 -94t-85 -33q-54 0 -82.5 33.5t-28.5 93.5z" />
<glyph unicode="&#xd7;" horiz-adv-x="1105" d="M86 205l344 362l-344 363l123 131l344 -363l346 363l123 -131l-346 -363l346 -362l-123 -131l-346 362l-344 -362z" />
<glyph unicode="&#xd8;" horiz-adv-x="1222" d="M6 330l109 90v584q0 138 67.5 243.5t180 160t251.5 54.5q149 0 267 -63.5t174 -177.5l63 51l101 -170l-105 -90v-582q0 -138 -67.5 -243.5t-180.5 -160.5t-252 -55q-150 0 -267 63.5t-177 178.5l-61 -53zM328 604l557 471q-26 93 -99.5 143t-171.5 50q-124 0 -205 -77 t-81 -214v-373zM342 356q26 -91 99 -140.5t173 -49.5q124 0 204.5 76.5t80.5 214.5v372z" />
<glyph unicode="&#xd9;" horiz-adv-x="1193" d="M119 399v1035h215v-1006q0 -141 54.5 -204.5t176.5 -63.5q92 0 173 48t124 116v1110h215l-2 -1434h-194l-19 119q-62 -66 -149 -107t-189 -41q-205 0 -305 106t-100 322zM342 1755l158 96l170 -297l-107 -67z" />
<glyph unicode="&#xda;" horiz-adv-x="1193" d="M119 399v1035h215v-1006q0 -141 54.5 -204.5t176.5 -63.5q92 0 173 48t124 116v1110h215l-2 -1434h-194l-19 119q-62 -66 -149 -107t-189 -41q-205 0 -305 106t-100 322zM528 1554l170 297l158 -96l-219 -268z" />
<glyph unicode="&#xdb;" horiz-adv-x="1193" d="M119 399v1035h215v-1006q0 -141 54.5 -204.5t176.5 -63.5q92 0 173 48t124 116v1110h215l-2 -1434h-194l-19 119q-62 -66 -149 -107t-189 -41q-205 0 -305 106t-100 322zM373 1554l145 211h168l145 -211l-145 -47l-84 146l-82 -146z" />
<glyph unicode="&#xdc;" horiz-adv-x="1193" d="M119 399v1035h215v-1006q0 -141 54.5 -204.5t176.5 -63.5q92 0 173 48t124 116v1110h215l-2 -1434h-194l-19 119q-62 -66 -149 -107t-189 -41q-205 0 -305 106t-100 322z" />
<glyph unicode="&#xdd;" d="M8 1434h236l309 -693l305 693h236l-435 -914v-520h-215v518zM465 1554l170 297l158 -96l-220 -268z" />
<glyph unicode="&#xde;" horiz-adv-x="1157" d="M123 0v1434h213v-256h274q212 0 332.5 -111.5t120.5 -316.5v-66q0 -205 -120.5 -316.5t-332.5 -111.5h-274v-256h-213zM336 442h274q238 0 238 265v20q0 262 -238 262h-274v-547z" />
<glyph unicode="&#xdf;" horiz-adv-x="1146" d="M16 756v176h119v192q0 201 101.5 312.5t287.5 111.5q168 0 262 -78.5t95 -228.5q0 -58 -23 -109t-56 -87t-66 -68t-56 -68t-23 -73q0 -40 21.5 -76t56.5 -64.5t77 -58t84 -63.5t77 -73t56.5 -94t21.5 -120q0 -142 -95 -229t-286 -87q-101 0 -193 29l33 174 q78 -20 149 -20q79 0 131 35.5t52 103.5q0 39 -21 74t-55 63t-75 56.5t-81.5 61.5t-74.5 70.5t-55 90t-21 114.5q0 47 12 86.5t31 67t41.5 51.5t45.5 46t42 45t31 53t12 65q0 133 -154 133q-94 0 -137 -66.5t-43 -201.5v-1102h-203l-2 756h-119z" />
<glyph unicode="&#xe0;" horiz-adv-x="1067" d="M90 287q0 88 26.5 149t79 95t120.5 48.5t161 14.5q121 0 256 -29v119q0 121 -52 171t-169 50q-159 0 -303 -80l-66 148q186 112 398 112q397 0 397 -380v-705h-168l-14 104q-53 -56 -134 -90t-169 -34q-170 0 -266.5 75t-96.5 232zM297 297q0 -152 188 -152 q78 0 143.5 35.5t104.5 95.5v146q-123 24 -244 24q-101 0 -146.5 -32t-45.5 -117zM301 1448l158 96l170 -297l-107 -67z" />
<glyph unicode="&#xe1;" horiz-adv-x="1067" d="M90 287q0 88 26.5 149t79 95t120.5 48.5t161 14.5q121 0 256 -29v119q0 121 -52 171t-169 50q-159 0 -303 -80l-66 148q186 112 398 112q397 0 397 -380v-705h-168l-14 104q-53 -56 -134 -90t-169 -34q-170 0 -266.5 75t-96.5 232zM297 297q0 -152 188 -152 q78 0 143.5 35.5t104.5 95.5v146q-123 24 -244 24q-101 0 -146.5 -32t-45.5 -117zM436 1247l170 297l158 -96l-219 -268z" />
<glyph unicode="&#xe2;" horiz-adv-x="1067" d="M90 287q0 88 26.5 149t79 95t120.5 48.5t161 14.5q121 0 256 -29v119q0 121 -52 171t-169 50q-159 0 -303 -80l-66 148q186 112 398 112q397 0 397 -380v-705h-168l-14 104q-53 -56 -134 -90t-169 -34q-170 0 -266.5 75t-96.5 232zM297 297q0 -152 188 -152 q78 0 143.5 35.5t104.5 95.5v146q-123 24 -244 24q-101 0 -146.5 -32t-45.5 -117zM297 1247l145 211h168l146 -211l-146 -47l-84 146l-82 -146z" />
<glyph unicode="&#xe3;" horiz-adv-x="1067" d="M90 287q0 88 26.5 149t79 95t120.5 48.5t161 14.5q121 0 256 -29v119q0 121 -52 171t-169 50q-159 0 -303 -80l-66 148q186 112 398 112q397 0 397 -380v-705h-168l-14 104q-53 -56 -134 -90t-169 -34q-170 0 -266.5 75t-96.5 232zM166 1255q8 90 60.5 149.5t138.5 59.5 q50 0 110 -22.5t109 -45t73 -22.5q67 0 74 78l146 -33q-8 -95 -58 -153t-141 -58q-61 0 -158.5 45t-132.5 45q-71 0 -74 -77zM297 297q0 -152 188 -152q78 0 143.5 35.5t104.5 95.5v146q-123 24 -244 24q-101 0 -146.5 -32t-45.5 -117z" />
<glyph unicode="&#xe4;" horiz-adv-x="1081" d="M90 287q0 88 26.5 149t79 95t120.5 48.5t161 14.5q121 0 256 -29v119q0 121 -52 171t-169 50q-159 0 -303 -80l-66 148q186 112 398 112q397 0 397 -380v-705h-168l-14 104q-53 -56 -134 -90t-169 -34q-170 0 -266.5 75t-96.5 232zM201 1376q0 64 28 98.5t82 34.5 q55 0 85 -35t30 -98q0 -60 -30 -93.5t-85 -33.5q-54 0 -82 33t-28 94zM297 297q0 -152 188 -152q78 0 143.5 35.5t104.5 95.5v146q-123 24 -244 24q-101 0 -146.5 -32t-45.5 -117zM633 1376q0 64 28 98.5t82 34.5q56 0 85.5 -34.5t29.5 -98.5q0 -61 -29.5 -94t-85.5 -33 q-54 0 -82 33t-28 94z" />
<glyph unicode="&#xe5;" horiz-adv-x="1081" d="M90 287q0 88 26.5 149t79 95t120.5 48.5t161 14.5q121 0 256 -29v119q0 121 -52 171t-169 50q-159 0 -303 -80l-66 148q186 112 398 112q397 0 397 -380v-705h-168l-14 104q-53 -56 -134 -90t-169 -34q-170 0 -266.5 75t-96.5 232zM297 297q0 -152 188 -152 q78 0 143.5 35.5t104.5 95.5v146q-123 24 -244 24q-101 0 -146.5 -32t-45.5 -117zM389 1397v20q0 70 44 113t112 43q74 0 119 -43t45 -113v-20q0 -73 -45 -114.5t-119 -41.5q-69 0 -112.5 42t-43.5 114zM481 1405q0 -80 64 -80q71 0 71 80q0 82 -71 82q-64 0 -64 -82z" />
<glyph unicode="&#xe6;" horiz-adv-x="1705" d="M90 287q0 88 26.5 149t79 95t120.5 48.5t161 14.5q121 0 256 -29v119q0 121 -52 171t-169 50q-159 0 -303 -80l-66 148q186 112 398 112q219 0 311 -118q112 118 309 118q199 0 314 -114.5t114 -311.5v-198h-651v-47q0 -128 59 -192t168 -64q162 0 318 94l80 -143 q-172 -129 -402 -129q-119 0 -210.5 42.5t-145.5 122.5q-147 -165 -352 -165q-170 0 -266.5 75t-96.5 232zM297 297q0 -152 188 -152q78 0 143.5 35.5t104.5 95.5v146q-123 24 -244 24q-101 0 -146.5 -32t-45.5 -117zM938 616h448v27q1 129 -56.5 196.5t-168.5 67.5 q-104 0 -163.5 -60t-59.5 -177v-54z" />
<glyph unicode="&#xe7;" horiz-adv-x="1073" d="M125 406v253q0 198 114 312t312 114q124 0 219 -33.5t182 -97.5l-84 -141q-76 47 -146 69.5t-165 22.5q-113 0 -171 -68.5t-58 -201.5v-205q0 -133 58 -201.5t171 -68.5q160 0 313 92l82 -143q-144 -106 -321 -125l-19 -56q54 -8 88.5 -39t34.5 -86q0 -40 -19 -68.5 t-51 -43.5t-67 -22t-74 -7q-63 0 -121 21l13 84q33 -11 65 -11q36 0 58 14t22 40q0 30 -29.5 45t-59.5 15l-30 -1l45 115q-170 17 -266 128.5t-96 293.5z" />
<glyph unicode="&#xe8;" horiz-adv-x="1095" d="M125 406v253q0 198 115 312t313 114t312 -114t114 -312v-190h-651v-49q0 -130 58.5 -196t168.5 -66q161 0 317 94l80 -143q-172 -129 -399 -129q-199 0 -313.5 113.5t-114.5 312.5zM303 1448l158 96l170 -297l-107 -67zM326 618h450v25q0 130 -57 197t-166 67 q-110 0 -168.5 -66.5t-58.5 -197.5v-25z" />
<glyph unicode="&#xe9;" horiz-adv-x="1095" d="M125 406v253q0 198 115 312t313 114t312 -114t114 -312v-190h-651v-49q0 -130 58.5 -196t168.5 -66q161 0 317 94l80 -143q-172 -129 -399 -129q-199 0 -313.5 113.5t-114.5 312.5zM326 618h450v25q0 130 -57 197t-166 67q-110 0 -168.5 -66.5t-58.5 -197.5v-25z M489 1247l170 297l158 -96l-219 -268z" />
<glyph unicode="&#xea;" horiz-adv-x="1095" d="M125 406v253q0 198 115 312t313 114t312 -114t114 -312v-190h-651v-49q0 -130 58.5 -196t168.5 -66q161 0 317 94l80 -143q-172 -129 -399 -129q-199 0 -313.5 113.5t-114.5 312.5zM326 618h450v25q0 130 -57 197t-166 67q-110 0 -168.5 -66.5t-58.5 -197.5v-25z M326 1247l145 211h168l145 -211l-145 -47l-84 146l-82 -146z" />
<glyph unicode="&#xeb;" horiz-adv-x="1095" d="M125 406v253q0 198 115 312t313 114t312 -114t114 -312v-190h-651v-49q0 -130 58.5 -196t168.5 -66q161 0 317 94l80 -143q-172 -129 -399 -129q-199 0 -313.5 113.5t-114.5 312.5zM215 1376q0 64 28 98.5t81 34.5q56 0 86 -34.5t30 -98.5q0 -61 -30 -94t-86 -33 q-53 0 -81 33t-28 94zM326 618h450v25q0 130 -57 197t-166 67q-110 0 -168.5 -66.5t-58.5 -197.5v-25zM666 1376q0 64 28 98.5t82 34.5q56 0 85.5 -34.5t29.5 -98.5q0 -61 -29.5 -94t-85.5 -33q-107 0 -110 127z" />
<glyph unicode="&#xec;" horiz-adv-x="471" d="M-6 1448l158 96l170 -297l-107 -67zM135 0v1065h205v-1065h-205z" />
<glyph unicode="&#xed;" horiz-adv-x="471" d="M135 0v1065h205v-1065h-205zM164 1247l170 297l158 -96l-220 -268z" />
<glyph unicode="&#xee;" horiz-adv-x="471" d="M8 1247l146 211h168l145 -211l-145 -47l-84 146l-82 -146zM135 0v1065h205v-1065h-205z" />
<glyph unicode="&#xef;" horiz-adv-x="471" d="M-35 1376q0 59 27 92t76 33q52 0 80 -33t28 -92q0 -56 -28 -87.5t-80 -31.5q-47 0 -75 32t-28 87zM135 0v1065h205v-1065h-205zM262 1376q0 59 26.5 92t76.5 33q52 0 79 -33t27 -92q0 -56 -27 -87.5t-79 -31.5q-50 0 -76.5 31.5t-26.5 87.5z" />
<glyph unicode="&#xf0;" horiz-adv-x="1095" d="M125 387v305q0 195 95 294t278 99q76 0 147.5 -25.5t124.5 -68.5v51q0 96 -37 160l-110 -90l-88 119l86 69q-60 27 -127 27q-64 0 -119 -18l-43 166q83 30 172 30q166 0 272 -71l133 106l86 -117l-106 -88q78 -109 78 -258v-680q0 -197 -111.5 -307t-314.5 -110 q-192 0 -304 106.5t-112 300.5zM315 432q0 -143 55.5 -212.5t170.5 -69.5q117 0 173 69.5t56 212.5v369q-41 48 -111.5 81t-138.5 33q-111 0 -158 -65t-47 -205v-213z" />
<glyph unicode="&#xf1;" horiz-adv-x="1101" d="M135 0v1065h176l19 -115q57 59 135.5 97t157.5 38q179 0 262.5 -99.5t83.5 -293.5v-692h-203v666q0 124 -41.5 180.5t-144.5 56.5q-66 0 -131.5 -41t-108.5 -100v-762h-205zM201 1255q8 91 60 150t138 59q50 0 110.5 -22.5t109.5 -45t73 -22.5q67 0 74 78l145 -33 q-8 -95 -57.5 -153t-140.5 -58q-61 0 -158.5 45t-132.5 45q-71 0 -74 -77z" />
<glyph unicode="&#xf2;" d="M125 406v253q0 199 114.5 312.5t313.5 113.5q198 0 312 -113.5t114 -312.5v-253q0 -199 -114.5 -312.5t-311.5 -113.5q-199 0 -313.5 113.5t-114.5 312.5zM319 1448l158 96l170 -297l-106 -67zM328 428q0 -131 58 -199.5t167 -68.5q108 0 165.5 68.5t57.5 199.5v209 q0 131 -57.5 199.5t-165.5 68.5q-109 0 -167 -68.5t-58 -199.5v-209z" />
<glyph unicode="&#xf3;" d="M125 406v253q0 199 114.5 312.5t313.5 113.5q198 0 312 -113.5t114 -312.5v-253q0 -199 -114.5 -312.5t-311.5 -113.5q-199 0 -313.5 113.5t-114.5 312.5zM328 428q0 -131 58 -199.5t167 -68.5q108 0 165.5 68.5t57.5 199.5v209q0 131 -57.5 199.5t-165.5 68.5 q-109 0 -167 -68.5t-58 -199.5v-209zM492 1247l170 297l157 -96l-219 -268z" />
<glyph unicode="&#xf4;" d="M125 406v253q0 199 114.5 312.5t313.5 113.5q198 0 312 -113.5t114 -312.5v-253q0 -199 -114.5 -312.5t-311.5 -113.5q-199 0 -313.5 113.5t-114.5 312.5zM319 1247l146 211h168l145 -211l-145 -47l-84 146l-82 -146zM328 428q0 -131 58 -199.5t167 -68.5 q108 0 165.5 68.5t57.5 199.5v209q0 131 -57.5 199.5t-165.5 68.5q-109 0 -167 -68.5t-58 -199.5v-209z" />
<glyph unicode="&#xf5;" d="M125 406v253q0 199 114.5 312.5t313.5 113.5q198 0 312 -113.5t114 -312.5v-253q0 -199 -114.5 -312.5t-311.5 -113.5q-199 0 -313.5 113.5t-114.5 312.5zM197 1255q8 91 60 150t138 59q50 0 110.5 -22.5t109.5 -45t73 -22.5q67 0 74 78l145 -33q-8 -95 -57.5 -153 t-140.5 -58q-61 0 -158.5 45t-132.5 45q-71 0 -74 -77zM328 428q0 -131 58 -199.5t167 -68.5q108 0 165.5 68.5t57.5 199.5v209q0 131 -57.5 199.5t-165.5 68.5q-109 0 -167 -68.5t-58 -199.5v-209z" />
<glyph unicode="&#xf6;" d="M125 406v253q0 199 114.5 312.5t313.5 113.5q198 0 312 -113.5t114 -312.5v-253q0 -199 -114.5 -312.5t-311.5 -113.5q-199 0 -313.5 113.5t-114.5 312.5zM211 1376q0 63 29 98t82 35q56 0 86 -34.5t30 -98.5q0 -61 -30 -94t-86 -33q-53 0 -81 33t-30 94zM328 428 q0 -131 58 -199.5t167 -68.5q108 0 165.5 68.5t57.5 199.5v209q0 131 -57.5 199.5t-165.5 68.5q-109 0 -167 -68.5t-58 -199.5v-209zM666 1376q0 63 28 98t80 35q57 0 87 -35t30 -98q0 -60 -30 -93.5t-87 -33.5q-52 0 -80 33.5t-28 93.5z" />
<glyph unicode="&#xf7;" horiz-adv-x="1132" d="M90 479v189h954v-189h-954zM438 106q0 67 31.5 100.5t87.5 33.5q59 0 92 -33.5t33 -100.5q0 -63 -33 -94.5t-92 -31.5q-56 0 -87.5 31.5t-31.5 94.5zM438 1034q0 67 31.5 100t87.5 33q59 0 92 -33t33 -100q0 -63 -33 -95t-92 -32q-56 0 -87.5 32t-31.5 95z" />
<glyph unicode="&#xf8;" d="M16 203l117 100q-8 44 -8 103v253q0 199 114.5 312.5t313.5 113.5q223 0 334 -145l90 76l110 -156l-116 -98q8 -44 8 -103v-253q0 -199 -114.5 -312.5t-311.5 -113.5q-222 0 -334 143l-88 -76zM328 467l405 342q-53 96 -180 96q-109 0 -167 -68.5t-58 -199.5v-170z M375 254q49 -94 178 -94q108 0 165.5 68.5t57.5 199.5v168z" />
<glyph unicode="&#xf9;" horiz-adv-x="1081" d="M129 389v676h205v-647q0 -138 37 -200t133 -62q75 0 139.5 41.5t106.5 105.5v762h202v-1065h-174l-20 115q-139 -135 -299 -135q-176 0 -253 102t-77 307zM326 1448l157 96l170 -297l-106 -67z" />
<glyph unicode="&#xfa;" horiz-adv-x="1081" d="M129 389v676h205v-647q0 -138 37 -200t133 -62q75 0 139.5 41.5t106.5 105.5v762h202v-1065h-174l-20 115q-139 -135 -299 -135q-176 0 -253 102t-77 307zM459 1247l170 297l157 -96l-219 -268z" />
<glyph unicode="&#xfb;" horiz-adv-x="1081" d="M129 389v676h205v-647q0 -138 37 -200t133 -62q75 0 139.5 41.5t106.5 105.5v762h202v-1065h-174l-20 115q-139 -135 -299 -135q-176 0 -253 102t-77 307zM309 1247l146 211h168l145 -211l-145 -47l-84 146l-82 -146z" />
<glyph unicode="&#xfc;" horiz-adv-x="1081" d="M129 389v676h205v-647q0 -138 37 -200t133 -62q75 0 139.5 41.5t106.5 105.5v762h202v-1065h-174l-20 115q-139 -135 -299 -135q-176 0 -253 102t-77 307zM205 1376q0 64 28 98.5t82 34.5q55 0 85 -35t30 -98q0 -60 -30 -93.5t-85 -33.5q-54 0 -82 33t-28 94zM657 1376 q0 63 28.5 98t80.5 35q58 0 87.5 -34.5t29.5 -98.5q0 -61 -29.5 -94t-87.5 -33q-52 0 -80.5 33.5t-28.5 93.5z" />
<glyph unicode="&#xfd;" horiz-adv-x="976" d="M10 1065h215l267 -780l260 780h215l-381 -1028l-127 -346h-211l141 354zM416 1247l170 297l157 -96l-219 -268z" />
<glyph unicode="&#xfe;" horiz-adv-x="1105" d="M135 -307v1843h205v-494q56 57 130 91t151 34q360 0 360 -409v-369q0 -186 -108 -297.5t-295 -111.5q-147 0 -238 40v-327h-205zM340 201q87 -41 223 -41q105 0 160 66t55 190v317q2 128 -44 190t-150 62q-65 0 -133 -42t-111 -99v-643z" />
<glyph unicode="&#xff;" horiz-adv-x="976" d="M10 1065h215l267 -780l260 780h215l-381 -1028l-127 -346h-211l141 354zM152 1376q0 64 28 98.5t82 34.5q56 0 85.5 -34.5t29.5 -98.5q0 -61 -29.5 -94t-85.5 -33q-54 0 -82 33t-28 94zM606 1376q0 63 28.5 98t82.5 35q55 0 84.5 -35t29.5 -98q0 -60 -29.5 -93.5 t-84.5 -33.5q-54 0 -83.5 33.5t-27.5 93.5z" />
<glyph unicode="&#x152;" horiz-adv-x="1736" d="M121 430v574q0 210 129 334t340 124q83 0 160.5 -32t117.5 -89v93h785v-195h-572v-414h469v-190h-469v-442h586v-193h-799v88q-98 -117 -278 -117q-211 0 -340 124.5t-129 334.5zM334 457q0 -141 73 -216t195 -75q117 0 191.5 77t74.5 210v530q0 133 -74.5 209t-191.5 76 q-122 0 -195 -75t-73 -214v-522z" />
<glyph unicode="&#x153;" horiz-adv-x="1746" d="M125 406v253q0 199 114.5 312.5t313.5 113.5q215 0 326 -145q108 145 325 145q198 0 313 -114t115 -312v-198h-651v-49q-1 -126 58 -190t167 -64q162 0 318 94l82 -143q-172 -129 -402 -129q-108 0 -193.5 39.5t-131.5 109.5q-50 -72 -133.5 -110.5t-192.5 -38.5 q-199 0 -313.5 113.5t-114.5 312.5zM328 428q0 -131 58 -199.5t167 -68.5q111 0 166 71t57 187v219q0 131 -57.5 199.5t-165.5 68.5q-109 0 -167 -68.5t-58 -199.5v-209zM979 616h448v31q1 127 -56 193.5t-167 66.5q-109 0 -167 -65t-58 -193v-33z" />
<glyph unicode="&#x178;" d="M8 1434h236l309 -693l305 693h236l-435 -914v-520h-215v518z" />
<glyph unicode="&#x2c6;" horiz-adv-x="718" d="M131 1247l145 211h168l146 -211l-146 -47l-84 146l-81 -146z" />
<glyph unicode="&#x2dc;" horiz-adv-x="884" d="M88 1255q8 90 60.5 149.5t138.5 59.5q50 0 110.5 -22.5t109.5 -45t73 -22.5q66 0 73 78l146 -33q-8 -95 -58 -153t-141 -58q-61 0 -158.5 45t-132.5 45q-70 0 -73 -77z" />
<glyph unicode="&#x2000;" horiz-adv-x="933" />
<glyph unicode="&#x2001;" horiz-adv-x="1866" />
<glyph unicode="&#x2002;" horiz-adv-x="933" />
<glyph unicode="&#x2003;" horiz-adv-x="1866" />
<glyph unicode="&#x2004;" horiz-adv-x="622" />
<glyph unicode="&#x2005;" horiz-adv-x="466" />
<glyph unicode="&#x2006;" horiz-adv-x="311" />
<glyph unicode="&#x2007;" horiz-adv-x="311" />
<glyph unicode="&#x2008;" horiz-adv-x="233" />
<glyph unicode="&#x2009;" horiz-adv-x="373" />
<glyph unicode="&#x200a;" horiz-adv-x="103" />
<glyph unicode="&#x2010;" horiz-adv-x="786" d="M102 524v189h582v-189h-582z" />
<glyph unicode="&#x2011;" horiz-adv-x="786" d="M102 524v189h582v-189h-582z" />
<glyph unicode="&#x2012;" horiz-adv-x="786" d="M102 524v189h582v-189h-582z" />
<glyph unicode="&#x2013;" horiz-adv-x="995" d="M16 524v189h965v-189h-965z" />
<glyph unicode="&#x2014;" horiz-adv-x="1628" d="M16 524v189h1600v-189h-1600z" />
<glyph unicode="&#x2018;" horiz-adv-x="425" d="M70 1401q0 65 38.5 98t98.5 33q58 0 95.5 -32.5t37.5 -96.5q0 -36 -17 -65t-47 -44q7 -52 91 -106l-50 -94q-88 28 -146 81.5t-79.5 109.5t-21.5 116z" />
<glyph unicode="&#x2019;" horiz-adv-x="425" d="M57 1188q83 53 90 106q-63 31 -63 109q0 64 37.5 96.5t95.5 32.5q60 0 98.5 -33t38.5 -98q0 -60 -22 -116t-80 -109.5t-146 -81.5z" />
<glyph unicode="&#x201a;" horiz-adv-x="425" d="M57 -111q83 53 90 107q-63 31 -63 108q0 64 37.5 96.5t95.5 32.5q60 0 98.5 -33t38.5 -98q0 -60 -22 -116t-80 -109.5t-146 -81.5z" />
<glyph unicode="&#x201c;" horiz-adv-x="757" d="M70 1401q0 65 38.5 98t98.5 33q58 0 95.5 -32.5t37.5 -96.5q0 -36 -17 -65t-47 -44q7 -52 91 -106l-50 -94q-88 28 -146 81.5t-79.5 109.5t-21.5 116zM403 1401q0 65 39 98t99 33q58 0 95.5 -32.5t37.5 -96.5q0 -36 -17 -65t-47 -44q7 -53 90 -106l-49 -94 q-88 28 -146 81.5t-80 109.5t-22 116z" />
<glyph unicode="&#x201d;" horiz-adv-x="757" d="M57 1188q83 53 90 106q-63 31 -63 109q0 64 37.5 96.5t95.5 32.5q60 0 98.5 -33t38.5 -98q0 -60 -22 -116t-80 -109.5t-146 -81.5zM391 1188q83 53 90 106q-63 31 -63 109q0 64 37.5 96.5t95.5 32.5q60 0 98.5 -33t38.5 -98q0 -60 -22 -116t-80 -109.5t-146 -81.5z" />
<glyph unicode="&#x201e;" horiz-adv-x="757" d="M57 -111q83 53 90 107q-63 31 -63 108q0 64 37.5 96.5t95.5 32.5q60 0 98.5 -33t38.5 -98q0 -60 -22 -116t-80 -109.5t-146 -81.5zM391 -111q83 53 90 107q-63 31 -63 108q0 64 37.5 96.5t95.5 32.5q60 0 98.5 -33t38.5 -98q0 -60 -22 -116t-80 -109.5t-146 -81.5z" />
<glyph unicode="&#x2022;" horiz-adv-x="854" d="M119 659q0 170 81 257.5t222 87.5q147 0 231 -87.5t84 -257.5q0 -163 -84 -247t-231 -84q-141 0 -222 84t-81 247z" />
<glyph unicode="&#x2026;" horiz-adv-x="1134" d="M70 104q0 62 37 95.5t98 33.5q60 0 97.5 -34t37.5 -95t-37 -94t-98 -33q-62 0 -98.5 33t-36.5 94zM432 104q0 62 37 95.5t98 33.5q60 0 97.5 -34t37.5 -95t-37 -94t-98 -33q-62 0 -98.5 33t-36.5 94zM793 104q0 62 37 95.5t98 33.5q60 0 97.5 -34t37.5 -95t-37 -94 t-98 -33q-62 0 -98.5 33t-36.5 94z" />
<glyph unicode="&#x202f;" horiz-adv-x="373" />
<glyph unicode="&#x2039;" horiz-adv-x="577" d="M102 508v129l293 307l99 -125l-232 -248l232 -245l-99 -125z" />
<glyph unicode="&#x203a;" horiz-adv-x="577" d="M86 326l231 245l-231 248l98 125l293 -307v-129l-293 -307z" />
<glyph unicode="&#x205f;" horiz-adv-x="466" />
<glyph unicode="&#x20ac;" horiz-adv-x="1228" />
<glyph unicode="&#x2122;" horiz-adv-x="1759" d="M61 1290v148h660v-148h-248v-803h-162v803h-250zM776 487v951h164l279 -514l274 514h168v-951h-162l4 637l-215 -393h-141l-213 391l4 -635h-162z" />
<glyph unicode="&#x25fc;" horiz-adv-x="1064" d="M0 0v1065h1065v-1065h-1065z" />
<glyph unicode="&#xfb01;" horiz-adv-x="1069" d="M16 887v178h119v174q0 90 25.5 151.5t77.5 95.5t119.5 48t162.5 14q79 0 182.5 -21.5t161.5 -45.5l-45 -152q-58 19 -146 33t-153 14q-95 0 -136.5 -29.5t-41.5 -97.5v-184h584v-1065h-203v887h-383v-887h-203l-2 887h-119z" />
<glyph unicode="&#xfb02;" horiz-adv-x="1056" d="M16 893v172h119v125q0 175 108 266.5t298 91.5q104 0 204.5 -30t176.5 -78v-1440h-203v1341q-86 27 -168 27q-211 0 -211 -188v-115h276v-172h-276v-893h-203l-2 893h-119z" />
<glyph unicode="&#xfb03;" horiz-adv-x="1550" d="M16 893v172h119v49q0 406 354 406q69 0 148 -27t131 -66q54 69 127.5 99t175.5 30q68 0 154 -17t141 -40l-39 -141q-122 33 -227 33q-214 0 -217 -283v-43h532v-1065h-203v893h-329v-893h-203v893h-340v-893h-203l-2 893h-119zM340 1065h340v25q0 129 29 200 q-89 60 -183 60q-105 0 -145.5 -58t-40.5 -194v-33z" />
<glyph unicode="&#xfb04;" horiz-adv-x="1597" d="M16 893v172h119v84q1 193 94.5 282t270.5 89q66 0 142 -25t136 -61q110 122 305 122q103 0 203 -30t176 -76v-1450h-202v1348q-76 28 -166 28q-211 0 -211 -252v-59h276v-172h-276v-893h-203v893h-340v-893h-203l-2 893h-119zM340 1065h340v82q0 83 25 141q-42 23 -96 37 t-95 14q-90 0 -132 -47.5t-42 -163.5v-63z" />
</font>
</defs>
</svg>
