<?xml version="1.0" standalone="no"?>
<!DOCTYPE svg PUBLIC "-//W3C//DTD SVG 1.1//EN" "http://www.w3.org/Graphics/SVG/1.1/DTD/svg11.dtd" >
<svg xmlns="http://www.w3.org/2000/svg" xmlns:xlink="http://www.w3.org/1999/xlink" version="1.1">
<metadata></metadata>
<defs>
<font id="darwinaltextralight" horiz-adv-x="1089" >
<font-face units-per-em="2048" ascent="1536" descent="-512" />
<missing-glyph horiz-adv-x="473" />
<glyph horiz-adv-x="0" />
<glyph horiz-adv-x="682" />
<glyph unicode=" "  horiz-adv-x="473" />
<glyph unicode="&#x09;" horiz-adv-x="473" />
<glyph unicode="&#xa0;" horiz-adv-x="473" />
<glyph unicode="!" horiz-adv-x="442" d="M156 68q0 82 65 82q33 0 52.5 -21t19.5 -61q0 -43 -19.5 -65.5t-52.5 -22.5q-65 0 -65 88zM164 1090v344h119v-344l-13 -764h-94z" />
<glyph unicode="&#x22;" horiz-adv-x="499" d="M76 1536h131l-19 -381h-94zM297 1536h131l-18 -381h-95z" />
<glyph unicode="#" horiz-adv-x="1286" d="M53 428l23 102h266l76 373h-271l25 105h266l88 426h105l-86 -426h301l86 426h108l-90 -426h285l-25 -105h-278l-78 -373h283l-23 -102h-280l-89 -428h-104l86 428h-303l-84 -428h-104l86 428h-269zM449 530h303l71 373h-301z" />
<glyph unicode="$" horiz-adv-x="1095" d="M104 106l62 105q67 -47 160.5 -80.5t193.5 -36.5v594q-85 16 -151 44.5t-119.5 75t-82 118.5t-28.5 166q0 160 99.5 260.5t281.5 109.5v176h96v-178q176 -17 336 -139l-67 -96q-131 95 -269 110v-540q64 -14 115.5 -32.5t103.5 -51t87 -75t57 -107.5t22 -146 q0 -164 -101 -274.5t-284 -133.5v-180h-96v176q-127 1 -238 40.5t-178 94.5zM266 1098q0 -131 61.5 -193t192.5 -90v524q-125 -9 -189.5 -74t-64.5 -167zM616 100q122 20 190 94.5t68 180.5q0 123 -66 192.5t-192 100.5v-568z" />
<glyph unicode="%" horiz-adv-x="1683" d="M115 872v293q0 136 78.5 214.5t209.5 78.5q130 0 208.5 -79t78.5 -214v-293q0 -133 -78.5 -211.5t-208.5 -78.5q-131 0 -209.5 78.5t-78.5 211.5zM213 889q0 -105 51 -161t139 -56q87 0 139 56t52 161v258q0 105 -52 163t-139 58q-88 0 -139 -57.5t-51 -163.5v-258z M258 0l1088 1501l81 -67l-1089 -1495zM999 272v293q0 134 78.5 213.5t208.5 79.5q128 0 206.5 -79.5t78.5 -213.5v-293q0 -134 -78 -213t-207 -79q-130 0 -208.5 79t-78.5 213zM1094 289q0 -105 51 -161t141 -56q88 0 139.5 56t51.5 161v258q0 105 -51.5 162t-139.5 57 q-89 0 -140.5 -56.5t-51.5 -162.5v-258z" />
<glyph unicode="&#x26;" horiz-adv-x="1372" d="M129 301q0 240 307 461q-60 66 -96 110.5t-69.5 115.5t-34.5 138q0 141 91.5 238.5t254.5 97.5q92 0 160 -24t108 -67.5t59 -98t19 -121.5q1 -64 -16.5 -114.5t-66 -102t-81 -78.5t-114.5 -87q-7 -5 -11 -8l-10 -7.5t-11 -8.5l353 -397q48 70 73 152t27 147l123 -10 q-7 -86 -43 -193.5t-94 -185.5l182 -199l-94 -86l-164 185q-81 -85 -195.5 -136t-236.5 -51q-420 0 -420 330zM256 305q0 -115 79 -167t212 -52q101 0 195 44t157 116l-383 428q-128 -94 -194 -183.5t-66 -185.5zM356 1137q0 -37 9 -68.5t30.5 -64t38 -53t52.5 -59.5t53 -58 q24 19 76 57.5t77.5 59.5t57.5 54.5t46 68.5t15 75q0 96 -52.5 147.5t-176.5 51.5q-109 0 -167.5 -56t-58.5 -155z" />
<glyph unicode="'" horiz-adv-x="278" d="M76 1536h131l-19 -381h-94z" />
<glyph unicode="(" horiz-adv-x="573" d="M133 256v799q0 196 101 334t262 163l24 -110q-118 -17 -195 -133.5t-77 -282.5v-741q0 -166 77 -282.5t195 -133.5l-24 -111q-162 25 -262.5 162.5t-100.5 335.5z" />
<glyph unicode=")" horiz-adv-x="573" d="M53 -131q119 17 197 133.5t78 282.5v741q0 166 -78 282.5t-197 133.5l27 110q161 -25 261.5 -162.5t100.5 -334.5v-799q0 -198 -100.5 -335.5t-261.5 -162.5z" />
<glyph unicode="*" horiz-adv-x="882" d="M88 1161l37 119l266 -96l-6 297h121l-6 -297l262 96l37 -119l-271 -86l172 -241l-96 -72l-160 250l-161 -250l-95 72l174 243z" />
<glyph unicode="+" horiz-adv-x="1157" d="M115 559v123h407v471h117v-471h405v-123h-405v-471h-117v471h-407z" />
<glyph unicode="," horiz-adv-x="350" d="M53 -125q24 19 39 32.5t29.5 36t15.5 44.5q-59 26 -59 88q0 50 28 75t68 25q42 0 70 -25t28 -79q0 -84 -43.5 -156t-134.5 -111z" />
<glyph unicode="-" horiz-adv-x="755" d="M115 561v121h526v-121h-526z" />
<glyph unicode="." horiz-adv-x="350" d="M78 80q0 43 27 69.5t71 26.5q43 0 69.5 -26.5t26.5 -69.5q0 -44 -26.5 -71t-69.5 -27q-44 0 -71 27t-27 71z" />
<glyph unicode="/" horiz-adv-x="911" d="M16 -225l789 1800l94 -39l-790 -1798z" />
<glyph unicode="0" horiz-adv-x="1110" d="M125 416v602q0 204 118.5 324t313.5 120t314.5 -120t119.5 -324v-602q0 -204 -119.5 -324.5t-314.5 -120.5t-313.5 120.5t-118.5 324.5zM250 444q0 -169 81.5 -257.5t225.5 -88.5t225.5 88.5t81.5 257.5v545q0 169 -81.5 257.5t-225.5 88.5t-225.5 -88.5t-81.5 -257.5 v-545z" />
<glyph unicode="1" horiz-adv-x="569" d="M-2 1233l291 201h108v-1311h193v-123h-531v123h211v1145l-196 -135z" />
<glyph unicode="2" horiz-adv-x="1101" d="M115 0v94q119 125 192 201.5t155 166t127.5 143t94.5 116t73 103t45.5 86t28.5 82.5t7 77q0 119 -66.5 193.5t-206.5 74.5q-110 0 -185 -28.5t-153 -85.5l-65 94q88 69 183 107t220 38q204 0 305 -105.5t101 -281.5q0 -52 -9.5 -102.5t-33.5 -105t-50.5 -102.5t-74 -111 t-90 -114t-113 -127t-127.5 -135t-149 -153h677v-125h-886z" />
<glyph unicode="3" horiz-adv-x="1083" d="M104 117l64 100q84 -58 167.5 -90.5t192.5 -32.5q295 0 295 305q0 83 -20.5 144t-56.5 95.5t-80.5 50.5t-98.5 16h-149v118h149q110 0 170 73t60 187q-2 114 -66.5 185t-198.5 71q-110 0 -184 -29t-153 -87l-66 94q88 69 183 107t220 38q195 0 292.5 -103t97.5 -272 q0 -89 -38.5 -173t-107.5 -144q75 -29 131 -129.5t56 -206.5v-49q0 -190 -109.5 -302t-325.5 -112q-231 0 -424 146z" />
<glyph unicode="4" horiz-adv-x="1118" d="M76 291v96l518 1047h139l-489 -1018h540v598h125v-598h158v-125h-158v-291h-125v291h-708z" />
<glyph unicode="5" horiz-adv-x="1087" d="M106 117l64 100q84 -58 167.5 -90.5t192.5 -32.5q145 0 223 78t78 211v49q0 167 -71.5 238t-206.5 71q-80 0 -163.5 -27t-141.5 -67l-98 66l88 721h659v-125h-549l-57 -514q121 73 260 73q201 0 309.5 -102.5t108.5 -308.5v-78q0 -184 -115.5 -296t-323.5 -112 q-231 0 -424 146z" />
<glyph unicode="6" horiz-adv-x="1130" d="M125 371v647q0 202 119 323t319 121q126 0 222.5 -38t183.5 -107l-66 -94q-78 57 -153 85.5t-185 28.5q-149 0 -232 -90.5t-83 -257.5v-258q66 54 160.5 85.5t189.5 31.5q202 0 306 -97.5t104 -293.5v-68q0 -200 -121.5 -309t-319.5 -109q-202 0 -323 101t-121 299z M250 412q0 -314 319 -314q146 0 230 81t84 249q0 161 -68 227t-213 66q-99 0 -194.5 -33.5t-157.5 -89.5v-186z" />
<glyph unicode="7" horiz-adv-x="905" d="M41 1309v125h833v-97l-544 -1337h-142l533 1309h-680z" />
<glyph unicode="8" horiz-adv-x="1153" d="M119 385v47q0 102 61 196.5t146 139.5q-82 55 -128 140.5t-46 176.5q0 168 106.5 272.5t316.5 104.5q211 0 318.5 -104.5t107.5 -272.5q0 -90 -46 -174t-128 -139q85 -37 146 -136t61 -204v-47q0 -86 -27 -159t-81 -131t-144 -91t-207 -33q-116 0 -205 33t-143 91 t-81 131t-27 159zM256 389q0 -62 16.5 -112.5t52.5 -91.5t99.5 -64t150.5 -23q88 0 152 23t100 64t53 91.5t17 112.5v17q0 134 -80 218.5t-209 84.5h-65q-126 0 -206.5 -85t-80.5 -218v-17zM279 1083q0 -111 77 -187.5t203 -76.5h27q126 0 207 77t81 187q0 112 -74 185 t-225 73q-149 0 -222.5 -73t-73.5 -185z" />
<glyph unicode="9" horiz-adv-x="1124" d="M125 995v60q0 199 118.5 303t317.5 104q203 0 321.5 -97.5t118.5 -295.5v-653q0 -202 -121.5 -323.5t-318.5 -121.5q-234 0 -409 138l65 94q74 -54 151.5 -80.5t190.5 -26.5q147 0 232.5 91t85.5 257v238q-121 -76 -345 -76q-200 0 -303.5 98t-103.5 291zM250 1020 q0 -155 69 -221t213 -66q214 0 345 78v215q0 309 -316 309q-311 0 -311 -315z" />
<glyph unicode=":" horiz-adv-x="350" d="M78 80q0 43 27 69.5t71 26.5q43 0 69.5 -26.5t26.5 -69.5q0 -44 -26.5 -71t-69.5 -27q-44 0 -71 27t-27 71zM78 1069q0 43 27 69.5t71 26.5q43 0 69.5 -26.5t26.5 -69.5q0 -44 -26.5 -71t-69.5 -27q-44 0 -71 27t-27 71z" />
<glyph unicode=";" horiz-adv-x="350" d="M53 -125q24 19 39 32.5t29.5 36t15.5 44.5q-59 26 -59 88q0 50 28 75t68 25q42 0 70 -25t28 -79q0 -84 -43.5 -156t-134.5 -111zM78 1069q0 43 27 69.5t71 26.5q43 0 69.5 -26.5t26.5 -69.5q0 -44 -26.5 -71t-69.5 -27q-44 0 -71 27t-27 71z" />
<glyph unicode="&#x3c;" horiz-adv-x="690" d="M117 512v123l379 420l82 -76l-353 -406l353 -405l-82 -74z" />
<glyph unicode="=" horiz-adv-x="1136" d="M115 289v123h909v-123h-909zM115 778v123h909v-123h-909z" />
<glyph unicode="&#x3e;" horiz-adv-x="690" d="M115 168l354 405l-354 406l84 76l381 -420v-123l-381 -418z" />
<glyph unicode="?" horiz-adv-x="935" d="M70 1331q74 64 161.5 97.5t212.5 33.5q184 0 280.5 -94.5t96.5 -241.5v-32q0 -65 -13 -118.5t-42 -100.5t-56 -79t-73 -79q-105 -106 -143 -169t-37 -155v-76h-121v72q0 59 8 106t17.5 77.5t34.5 66.5t40 53t56 58t61 63q72 80 103.5 143t31.5 150v16q0 102 -57.5 163 t-186.5 61q-104 0 -177.5 -24.5t-135.5 -74.5zM303 80q0 43 27 69.5t71 26.5q43 0 70 -26.5t27 -69.5q0 -44 -27 -71t-70 -27q-44 0 -71 27t-27 71z" />
<glyph unicode="@" horiz-adv-x="1454" d="M119 408l82 620q18 133 110.5 233.5t227.5 151.5t288 51q114 0 212.5 -29.5t170 -83.5t107 -137.5t22.5 -185.5l-63 -463q-32 -246 -223 -246q-134 0 -160 134q-43 -52 -114.5 -93t-127.5 -41q-119 0 -171.5 70.5t-35.5 202.5l33 252q19 131 90.5 199.5t192.5 68.5h289 l-74 -553q-9 -81 9.5 -118.5t76.5 -37.5q59 0 90.5 37.5t42.5 116.5l59 453q11 89 -21 160.5t-95.5 115.5t-145.5 67t-176 23q-128 0 -241 -38.5t-195.5 -123t-97.5 -202.5l-78 -586q-12 -89 19.5 -160.5t95 -115.5t146.5 -67.5t177 -23.5q131 0 274 54l23 -80 q-146 -62 -309 -62q-113 0 -211.5 30t-170 84.5t-106.5 138t-22 184.5zM530 610q-15 -106 17 -158.5t121 -52.5q58 0 122.5 44t98.5 96l63 497h-200q-88 0 -133.5 -52t-61.5 -157z" />
<glyph unicode="A" horiz-adv-x="1144" d="M14 0l529 1288l-47 146h125l507 -1434h-139l-127 369h-563l-145 -369h-140zM346 485h477l-221 645z" />
<glyph unicode="B" horiz-adv-x="1128" d="M135 63v1371h467q201 0 301.5 -78t100.5 -252v-82q0 -69 -41.5 -143t-114.5 -115q79 -35 133.5 -117.5t54.5 -179.5v-127q0 -151 -114.5 -245.5t-319.5 -94.5q-131 0 -234 14t-233 49zM260 166q107 -24 177 -34q63 -9 144 -9h17q149 1 231 68t82 176v71 q0 115 -70.5 183.5t-189.5 68.5h-391v-524zM260 813h373q109 -1 179 61q67 59 67 168v9v20q-4 141 -65.5 189.5t-207.5 48.5h-346v-496z" />
<glyph unicode="C" horiz-adv-x="1036" d="M123 414v606q0 200 126 321t324 121q129 0 212 -34t169 -103l-69 -92q-77 56 -142 82t-170 26q-145 0 -234 -93t-89 -257v-549q0 -164 89 -257t234 -93q105 0 170 26t142 83l69 -92q-87 -69 -169.5 -103.5t-211.5 -34.5q-198 0 -324 121.5t-126 321.5z" />
<glyph unicode="D" horiz-adv-x="1159" d="M135 68v1366h479q194 0 308 -120t114 -323v-549q0 -205 -118 -323.5t-332 -118.5q-221 0 -451 68zM260 164q155 -41 326 -41q162 0 243.5 88.5t81.5 257.5v496q0 167 -77 255.5t-220 88.5h-354v-1145z" />
<glyph unicode="E" horiz-adv-x="985" d="M135 0v1434h770v-125h-645v-514h539v-123h-539v-549h662v-123h-787z" />
<glyph unicode="F" horiz-adv-x="956" d="M135 0v1434h770v-125h-645v-561h541v-123h-541v-625h-125z" />
<glyph unicode="G" horiz-adv-x="1134" d="M123 416v604q0 200 127 321t328 121q139 0 229.5 -35t175.5 -102l-70 -92q-74 55 -147 81.5t-188 26.5q-148 0 -238 -93t-90 -257v-547q0 -165 81.5 -258.5t219.5 -93.5q101 0 191 43.5t153 134.5v365h-303v115h428v-770h-96l-29 145q-76 -71 -163 -112.5t-202 -41.5 q-185 0 -296 121.5t-111 323.5z" />
<glyph unicode="H" horiz-adv-x="1167" d="M135 0v1434h125v-627h651v627h125v-1434h-125v684h-651v-684h-125z" />
<glyph unicode="I" horiz-adv-x="391" d="M135 0v1434h125v-1434h-125z" />
<glyph unicode="J" horiz-adv-x="569" d="M219 -221q94 91 94 274v1381h125v-1409q0 -209 -143 -332z" />
<glyph unicode="K" horiz-adv-x="1019" d="M135 0v1434h125v-807l596 807h154l-486 -658l373 -594q33 -52 65 -76q31 -23 57 -23q2 1 3 1q27 2 57 8v-100q-45 -11 -83 -11q-21 -1 -40 3q-53 10 -97.5 52t-102.5 136l-310 502l-186 -252v-422h-125z" />
<glyph unicode="L" horiz-adv-x="942" d="M135 0v1434h125v-1311h672v-123h-797z" />
<glyph unicode="M" horiz-adv-x="1396" d="M135 0v1434h111l452 -934l453 934h115v-1434h-125l4 1151l-406 -829h-86l-397 817l4 -1139h-125z" />
<glyph unicode="N" horiz-adv-x="1202" d="M135 0v1434h129l684 -1196l-2 1196h125v-1434h-131l-686 1196l6 -1196h-125z" />
<glyph unicode="O" horiz-adv-x="1185" d="M125 414v606q0 133 63.5 235t169.5 154.5t238 52.5q201 0 335 -121t134 -321v-606q0 -133 -63 -235t-169 -155t-237 -53q-132 0 -238 53t-169.5 154.5t-63.5 235.5zM250 442q0 -164 98.5 -256t247.5 -92t246.5 92t97.5 256v549q0 164 -97.5 256t-246.5 92t-247.5 -92 t-98.5 -256v-549z" />
<glyph unicode="P" horiz-adv-x="1126" d="M135 0v1434h479q194 0 308 -120t114 -323v-100q0 -203 -113.5 -322.5t-308.5 -119.5q-204 0 -354 49v-498h-125zM260 612q132 -41 354 -41q143 0 220 90t77 257v47q0 167 -77 255.5t-220 88.5h-354v-697z" />
<glyph unicode="Q" horiz-adv-x="1185" d="M125 414v606q0 133 63.5 235t169.5 154.5t238 52.5q201 0 335 -121t134 -321v-606q0 -133 -63 -235t-169 -155t-237 -53q-132 0 -238 53t-169.5 154.5t-63.5 235.5zM250 442q0 -164 98.5 -256t247.5 -92t246.5 92t97.5 256v549q0 164 -97.5 256t-246.5 92t-247.5 -92 t-98.5 -256v-549zM375 -188q28 36 88.5 65t128.5 29q43 0 84 -14.5t67 -32.5t58.5 -32.5t62.5 -14.5q86 0 164 55l51 -78q-32 -40 -91 -67t-124 -27q-44 0 -84.5 14.5t-66 31.5t-61 31.5t-70.5 14.5q-83 0 -154 -57z" />
<glyph unicode="R" horiz-adv-x="1126" d="M135 0v1434h479q191 0 306.5 -108t115.5 -271v-80q0 -134 -87 -236t-234 -131l229 -426q22 -41 45.5 -64.5t48 -29.5t43.5 -4t45 8v-100q-54 -11 -98 -11q-16 0 -28 1q-54 5 -100.5 49t-96.5 141l-223 428q-193 0 -320 37v-637h-125zM260 754q152 -37 354 -37 q139 0 218 81t79 206v24q0 128 -78.5 204.5t-218.5 76.5h-354v-555z" />
<glyph unicode="S" horiz-adv-x="1079" d="M104 106l62 105q68 -49 165.5 -83t200.5 -34q160 0 251 78t91 203q0 139 -83 209.5t-242 97.5q-73 12 -131 31t-111.5 52t-89.5 76.5t-57 107t-21 143.5q0 167 108.5 268.5t305.5 101.5q124 0 217.5 -36.5t181.5 -104.5l-67 -96q-155 114 -332 114q-141 0 -214 -66 t-73 -175q0 -74 19 -125.5t60 -84t92.5 -51t129.5 -32.5q71 -13 126.5 -29.5t116 -49t100 -76t65.5 -112t26 -155.5q0 -183 -124.5 -297.5t-344.5 -114.5q-132 0 -246 39.5t-182 95.5z" />
<glyph unicode="T" horiz-adv-x="954" d="M14 1311v123h928v-123h-401v-1311h-125v1311h-402z" />
<glyph unicode="U" horiz-adv-x="1157" d="M129 377v1057h127v-1028q0 -166 68 -241t217 -75q112 0 212 61t150 142v1141h125v-1264q0 -36 11.5 -56t32.5 -24.5t40 -2.5t45 9v-104q-55 -12 -98 -12q-51 0 -83 18q-60 32 -73 143q-155 -170 -366 -170q-408 0 -408 406z" />
<glyph unicode="V" horiz-adv-x="1105" d="M16 1434h142l397 -1284l397 1284h138l-469 -1434h-136z" />
<glyph unicode="W" horiz-adv-x="1769" d="M16 1434h134l350 -1287l315 1287h146l317 -1287l340 1287h135l-410 -1434h-141l-315 1276l-316 -1276h-143z" />
<glyph unicode="X" horiz-adv-x="1046" d="M12 0l430 723l-422 711h148l354 -621l361 621h143l-424 -709l432 -725h-147l-363 635l-366 -635h-146z" />
<glyph unicode="Y" horiz-adv-x="1028" d="M18 1434h140l358 -789l358 789h138l-432 -926v-508h-125v504z" />
<glyph unicode="Z" horiz-adv-x="1044" d="M68 0v76q260 328 441 625.5t277 609.5h-696v123h858v-78q-222 -625 -686 -1233h719v-123h-913z" />
<glyph unicode="[" horiz-adv-x="528" d="M156 -225v1761h297v-113h-185v-1536h185v-112h-297z" />
<glyph unicode="\" horiz-adv-x="911" d="M16 1536l95 39l788 -1800l-92 -37z" />
<glyph unicode="]" horiz-adv-x="528" d="M78 -113h184v1536h-184v113h299v-1761h-299v112z" />
<glyph unicode="^" horiz-adv-x="694" d="M76 1106l211 405h123l211 -405l-97 -43l-178 358l-176 -358z" />
<glyph unicode="_" horiz-adv-x="968" d="M16 -121h938v-106h-938v106z" />
<glyph unicode="`" horiz-adv-x="520" d="M106 1450l115 63l168 -280l-82 -53z" />
<glyph unicode="a" d="M141 385v285q0 196 102 305.5t287 109.5q142 0 295 -67l23 47h88v-895q0 -30 8.5 -50t21 -28t31.5 -9.5t34.5 1t35.5 8.5v-100q-49 -12 -89 -12q-142 0 -161 149q-140 -149 -315 -149q-174 0 -267.5 105.5t-93.5 299.5zM260 414q0 -160 58 -241t188 -81q89 0 171 54.5 t140 136.5v626q-118 62 -287 62q-270 0 -270 -326v-231z" />
<glyph unicode="b" d="M156 0v1536h118v-598q140 147 308 147q178 0 273 -105.5t95 -299.5v-285q0 -195 -105.5 -305t-291.5 -110q-153 0 -301 81l-12 -61h-84zM274 172q156 -78 279 -78q137 0 207.5 82.5t70.5 243.5v231q0 160 -59 241t-192 81q-85 0 -169 -58t-137 -133v-610z" />
<glyph unicode="c" horiz-adv-x="1017" d="M143 395v275q0 194 107.5 304.5t294.5 110.5q122 0 200 -32.5t162 -98.5l-61 -84q-73 52 -137.5 77.5t-163.5 25.5q-136 0 -209.5 -84t-73.5 -244v-225q0 -160 73.5 -244t209.5 -84q166 0 305 103l57 -89q-157 -126 -362 -126q-187 0 -294.5 110.5t-107.5 304.5z" />
<glyph unicode="d" d="M141 385v285q0 198 95.5 306.5t279.5 108.5q165 0 301 -63v514h119v-1366q0 -30 8.5 -50t21 -28t31.5 -9.5t34.5 1t35.5 8.5v-100q-49 -12 -89 -12q-142 0 -161 149q-140 -149 -315 -149q-174 0 -267.5 105.5t-93.5 299.5zM260 414q0 -160 58 -241t188 -81q89 0 171 54.5 t140 136.5v624q-58 30 -140.5 48t-160.5 18q-134 0 -195 -81.5t-61 -246.5v-231z" />
<glyph unicode="e" horiz-adv-x="1083" d="M143 395v275q0 194 108.5 304.5t295.5 110.5t294 -110.5t107 -304.5v-172h-686v-76q0 -160 74 -245t211 -85q186 0 325 103l58 -89q-66 -53 -165 -89.5t-218 -36.5q-187 0 -295.5 110.5t-108.5 304.5zM264 608h565v35q0 160 -73 244t-209 84q-137 0 -210 -83.5 t-73 -244.5v-35z" />
<glyph unicode="f" horiz-adv-x="698" d="M16 954v111h138v117q0 183 94 274.5t272 91.5q71 0 146 -22l-21 -99q-73 15 -125 15q-127 0 -187.5 -63t-60.5 -191v-123h355v-111h-355v-1261h-118v1261h-138z" />
<glyph unicode="g" d="M145 459v221q0 195 94 300t275 105q164 0 313 -67l21 47h90v-1020q0 -183 -107 -278t-284 -95q-118 0 -217.5 37t-165.5 90l57 88q60 -45 145 -73.5t181 -28.5q272 0 272 285v135q-133 -139 -307 -139q-180 0 -273.5 100t-93.5 293zM262 487q0 -159 59 -235t193 -76 q88 0 171 49.5t134 120.5v563q-136 64 -303 64q-134 0 -194 -81t-60 -241v-164z" />
<glyph unicode="h" horiz-adv-x="1079" d="M156 0v1536h118v-598q140 147 299 147q361 0 361 -387v-557q0 -59 65 -59q33 0 66 10v-100q-49 -12 -94 -12q-156 0 -156 149v543q0 160 -55 232.5t-187 72.5q-86 0 -167 -53t-132 -125v-799h-118z" />
<glyph unicode="i" horiz-adv-x="425" d="M115 1370q0 43 27 69.5t71 26.5q43 0 69.5 -26.5t26.5 -69.5q0 -44 -26.5 -71t-69.5 -27q-44 0 -71 27t-27 71zM156 0v1065h118v-1065h-118z" />
<glyph unicode="j" horiz-adv-x="423" d="M-84 -227q131 7 186 85q52 74 52 221v11v975h118v-999q0 -183 -88 -284t-250 -110zM115 1370q0 43 27 69.5t71 26.5q43 0 69.5 -26.5t26.5 -69.5q0 -44 -26.5 -71t-69.5 -27q-44 0 -71 27t-27 71z" />
<glyph unicode="k" horiz-adv-x="950" d="M156 0v1536h118v-1040l510 569h156l-408 -449l240 -434q22 -40 46 -63.5t49.5 -30t45 -5.5t45.5 9v-100q-52 -12 -93 -12q-15 0 -29 2q-51 6 -95 48.5t-98 141.5l-194 354l-175 -194v-332h-118z" />
<glyph unicode="l" horiz-adv-x="425" d="M156 129v1407h118v-1395q0 -59 66 -59q33 0 66 10v-100q-50 -12 -95 -12q-155 0 -155 149z" />
<glyph unicode="m" horiz-adv-x="1660" d="M156 0v1065h98l16 -135q141 155 289 155q104 0 179.5 -53.5t103.5 -142.5q151 196 350 196q175 0 245 -95.5t70 -299.5v-549q0 -59 66 -59q32 0 65 10v-100q-50 -12 -94 -12q-155 0 -155 149v522q0 70 -4.5 118t-16.5 89t-34.5 64t-57.5 36t-86 13q-184 0 -299 -197v-774 h-117v641q0 163 -57 249.5t-156 86.5q-85 0 -162.5 -53.5t-124.5 -130.5v-793h-118z" />
<glyph unicode="n" horiz-adv-x="1087" d="M156 0v1065h98l16 -135q63 68 144.5 111.5t165.5 43.5q354 0 354 -399v-545q0 -59 65 -59q33 0 66 10v-100q-49 -12 -94 -12q-156 0 -156 149v530q0 165 -52.5 241.5t-184.5 76.5q-85 0 -168.5 -55.5t-135.5 -128.5v-793h-118z" />
<glyph unicode="o" horiz-adv-x="1087" d="M143 395v275q0 194 108.5 304.5t295.5 110.5t294 -110.5t107 -304.5v-275q-1 -195 -108 -305t-293 -110q-187 0 -295.5 110.5t-108.5 304.5zM262 420q0 -160 73.5 -243t211.5 -83q137 0 209 82.5t73 243.5v225q0 160 -72.5 243t-209.5 83q-138 0 -211.5 -83t-73.5 -243 v-225z" />
<glyph unicode="p" d="M156 -307v1372h98l16 -135q64 70 144.5 112.5t167.5 42.5q178 0 273 -105.5t95 -299.5v-285q0 -195 -106.5 -305t-294.5 -110q-145 0 -275 47v-334h-118zM274 147q106 -53 279 -53q137 0 207.5 82.5t70.5 243.5v231q0 160 -59 241t-192 81q-86 0 -170.5 -54t-135.5 -126 v-646z" />
<glyph unicode="q" d="M141 385v285q0 195 106 305t292 110q133 0 286 -67l23 47h88v-1372h-119v434q-140 -147 -307 -147q-178 0 -273.5 105.5t-95.5 299.5zM260 414q0 -160 59.5 -241t192.5 -81q85 0 168.5 58t136.5 133v626q-118 62 -278 62q-137 0 -208 -82.5t-71 -243.5v-231z" />
<glyph unicode="r" horiz-adv-x="606" d="M156 0v1065h98l16 -141q127 161 316 161l8 -114q-97 0 -180 -52t-140 -141v-778h-118z" />
<glyph unicode="s" horiz-adv-x="956" d="M102 106l58 89q139 -103 325 -103q129 0 197 60t68 141q0 80 -53 124.5t-173 63.5q-55 8 -87 14t-78.5 18t-74 26t-59 37.5t-48.5 52.5t-28.5 71.5t-11.5 94.5q0 127 89.5 208.5t262.5 81.5q113 0 198.5 -33t164.5 -94l-55 -88q-148 103 -308 103q-124 0 -178.5 -49.5 t-54.5 -130.5q0 -44 14 -76t33.5 -51t58 -33t70 -20.5t86.5 -14.5q54 -8 93 -17t82 -24t71.5 -36.5t53 -52t36.5 -74.5q14 -48 14 -104q0 -58 -24 -112q-26 -56 -73.5 -100.5t-121.5 -71t-164 -26.5q-119 0 -218 36.5t-165 89.5z" />
<glyph unicode="t" horiz-adv-x="507" d="M-33 954v111h187v203h118v-203h228v-111h-228v-524q0 -143 40 -240.5t118 -189.5h-141q-135 161 -135 412v542h-187z" />
<glyph unicode="u" horiz-adv-x="1071" d="M150 369v696h118v-668q0 -156 55.5 -230.5t172.5 -74.5q89 0 168.5 54.5t138.5 136.5v782h119v-895q0 -30 8.5 -50t21 -28t31.5 -9.5t34.5 1t35.5 8.5v-100q-49 -12 -89 -12q-142 0 -161 149q-140 -149 -311 -149q-161 0 -251.5 99.5t-90.5 289.5z" />
<glyph unicode="v" horiz-adv-x="923" d="M16 1065h127l320 -936l319 936h125l-379 -1065h-133z" />
<glyph unicode="w" horiz-adv-x="1439" d="M16 1065h125l258 -922l252 922h142l247 -922l258 922h125l-323 -1065h-125l-256 928l-260 -928h-121z" />
<glyph unicode="x" horiz-adv-x="940" d="M18 0l373 543l-354 522h145l287 -436l291 436h145l-356 -516l373 -549h-144l-307 463l-309 -463h-144z" />
<glyph unicode="y" horiz-adv-x="1107" d="M156 467v598h118v-578q0 -162 55.5 -235.5t190.5 -73.5q87 0 176.5 49.5t137.5 116.5v721h118v-1022q0 -180 -112 -275.5t-289 -95.5q-219 0 -383 123l47 90q162 -102 336 -102q129 0 206 69t77 218v131q-132 -135 -314 -135t-273 101.5t-91 299.5z" />
<glyph unicode="z" horiz-adv-x="886" d="M76 0v96q113 116 186.5 198t156.5 192t140.5 225t93.5 241h-565v113h709v-74q-81 -264 -211.5 -464.5t-335.5 -413.5h571v-113h-745z" />
<glyph unicode="{" horiz-adv-x="681" d="M74 592v127h59q91 0 145 72.5t54 201.5v262q0 148 63 214.5t191 66.5h24v-102h-8q-98 0 -130 -47t-32 -158v-264q0 -244 -155 -310q155 -69 155 -307v-266q0 -111 32 -158t130 -47h8v-102h-24q-128 0 -191 66.5t-63 213.5v262q0 129 -54 202t-145 73h-59z" />
<glyph unicode="|" horiz-adv-x="407" d="M154 -348v1925h102v-1925h-102z" />
<glyph unicode="}" horiz-adv-x="681" d="M74 -123h8q98 0 130 47t32 158v266q0 239 157 307q-157 67 -157 310v264q0 111 -32 158t-130 47h-8v102h26q126 0 189 -67t63 -214v-262q0 -128 55 -201t144 -73h59v-127h-59q-89 0 -144 -73.5t-55 -201.5v-262q0 -147 -63 -213.5t-189 -66.5h-26v102z" />
<glyph unicode="~" horiz-adv-x="1177" d="M117 600q16 94 87 158.5t175 64.5q53 0 117 -24.5t114 -54t109 -54t102 -24.5q52 0 86.5 39.5t44.5 93.5l109 -19q-11 -99 -77.5 -162t-180.5 -63q-53 0 -114.5 25t-109 55t-108 55t-111.5 25q-55 0 -89 -39t-44 -94z" />
<glyph unicode="&#xa1;" horiz-adv-x="442" d="M156 1366q0 88 65 88q33 0 52.5 -22.5t19.5 -65.5q0 -40 -19.5 -61t-52.5 -21q-65 0 -65 82zM164 0v344l12 764h94l13 -764v-344h-119z" />
<glyph unicode="&#xa2;" horiz-adv-x="1017" d="M143 618v193q0 182 95 291t262 123v209h106v-209q96 -8 163 -40t138 -89l-61 -84q-60 44 -113.5 68t-126.5 32v-793q132 13 244 99l57 -88q-135 -108 -301 -125v-205h-106v205q-167 14 -262 122.5t-95 290.5zM262 643q0 -147 61.5 -229.5t176.5 -96.5v795 q-115 -14 -176.5 -96.5t-61.5 -229.5v-143z" />
<glyph unicode="&#xa3;" horiz-adv-x="1019" d="M76 0v113q76 49 121 133.5t45 187.5v225h-166v123h166v367q0 399 399 399q127 0 258 -59l-39 -92q-106 45 -219 45q-145 0 -213 -69t-68 -218v-373h297v-123h-297v-192q0 -66 -11.5 -125.5t-28 -97.5t-33 -66t-27.5 -40l-12 -13h702v-125h-874z" />
<glyph unicode="&#xa4;" horiz-adv-x="1159" d="M117 295l139 147q-47 89 -47 217v95q0 129 47 215l-139 149l78 80l133 -141q96 84 254 84q156 0 252 -84l133 141l80 -80l-144 -149q49 -85 49 -215v-95q0 -129 -49 -217l144 -147l-80 -80l-133 141q-96 -84 -252 -84q-157 0 -258 84l-129 -141zM317 680 q0 -152 68 -230.5t197 -78.5t196.5 78.5t67.5 230.5v53q0 152 -67.5 230.5t-196.5 78.5t-197 -78.5t-68 -230.5v-53z" />
<glyph unicode="&#xa5;" horiz-adv-x="1024" d="M14 1436l146 18l354 -704l346 684h154l-420 -795h375v-129h-389v-174h389v-129h-389v-207h-127v207h-394v129h394v174h-394v129h375z" />
<glyph unicode="&#xa6;" horiz-adv-x="407" d="M154 342h102v-690h-102v690zM154 887v690h102v-690h-102z" />
<glyph unicode="&#xa7;" horiz-adv-x="1015" d="M115 639v14q0 76 44 150t113 115q-129 87 -129 229v20q0 133 89.5 214t261.5 81q108 0 190.5 -32.5t159.5 -92.5l-60 -80q-138 97 -290 97q-122 0 -175 -50t-53 -141v-12q0 -38 15 -68t39 -50.5t62.5 -37.5t75.5 -27.5t89 -21.5q58 -12 102 -25t94.5 -38t83 -57 t54.5 -81.5t22 -111.5v-21q0 -69 -53.5 -144.5t-120.5 -117.5q145 -79 145 -229v-23q0 -131 -96 -216t-270 -85q-113 0 -207.5 35.5t-159.5 87.5l56 82q57 -42 138.5 -69t172.5 -27q126 0 185 54t59 146v15q0 42 -19.5 73t-59 53t-84 36t-110.5 28q-77 16 -135 38t-113.5 59 t-85.5 95.5t-30 135.5zM240 645q0 -99 82 -150.5t296 -99.5q66 36 113 97.5t47 117.5v15q0 47 -21 83.5t-52.5 57.5t-77 37.5t-86 25t-88 20t-74.5 21.5q-57 -27 -98 -87t-41 -126v-12z" />
<glyph unicode="&#xa8;" horiz-adv-x="774" d="M86 1300q0 43 27 70t71 27q43 0 70 -27t27 -70q0 -44 -27 -71t-70 -27q-44 0 -71 27t-27 71zM494 1300q0 43 27 70t71 27q43 0 69.5 -27t26.5 -70q0 -44 -26.5 -71t-69.5 -27q-44 0 -71 27t-27 71z" />
<glyph unicode="&#xa9;" horiz-adv-x="1386" d="M125 412v604q0 133 80 234.5t208 152.5t281 51t281 -51t208.5 -152.5t80.5 -234.5v-604q0 -135 -80.5 -237t-208.5 -153t-281 -51t-281 51t-208 153t-80 237zM231 430q0 -83 39.5 -150t105.5 -108t147.5 -62.5t170.5 -21.5t170 21.5t147 62.5t105 107.5t39 150.5v567 q0 84 -39 150.5t-105 107.5t-147 62.5t-170 21.5t-170.5 -21.5t-147.5 -62.5t-105.5 -108t-39.5 -150v-567zM385 602v223q0 161 76.5 247.5t226.5 86.5q97 0 165 -27.5t134 -80.5l-53 -70q-59 43 -111 62.5t-135 19.5q-110 0 -156.5 -63t-46.5 -197v-176q0 -134 46.5 -198 t156.5 -64q84 0 135.5 19.5t110.5 61.5l53 -69q-66 -53 -134 -81t-165 -28q-150 0 -226.5 87t-76.5 247z" />
<glyph unicode="&#xaa;" horiz-adv-x="839" d="M82 801q0 72 23 121.5t66.5 76.5t96 38.5t121.5 11.5q103 0 223 -27v111q0 118 -41.5 165.5t-150.5 47.5q-151 0 -254 -68l-47 86q139 92 307 92q311 0 311 -297v-596h-94l-18 92q-112 -108 -240 -108q-303 0 -303 254zM207 799q0 -164 172 -164q66 0 129 35t104 92v176 q-138 23 -225 23q-92 0 -136 -35.5t-44 -126.5z" />
<glyph unicode="&#xab;" horiz-adv-x="931" d="M59 530v84l271 297l67 -82l-233 -258l233 -256l-67 -82zM532 530v84l273 297l65 -82l-231 -258l231 -256l-65 -82z" />
<glyph unicode="&#xac;" horiz-adv-x="1302" d="M137 768v123h1032v-451h-112v328h-920z" />
<glyph unicode="&#xad;" horiz-adv-x="755" d="M111 561v121h526v-121h-526z" />
<glyph unicode="&#xae;" horiz-adv-x="1386" d="M125 412v604q0 133 80 234.5t208 152.5t281 51t281 -51t208.5 -152.5t80.5 -234.5v-604q0 -135 -80.5 -237t-208.5 -153t-281 -51t-281 51t-208 153t-80 237zM231 430q0 -83 39.5 -150t105.5 -108t147.5 -62.5t170.5 -21.5t170 21.5t147 62.5t105 107.5t39 150.5v567 q0 84 -39 150.5t-105 107.5t-147 62.5t-170 21.5t-170.5 -21.5t-147.5 -62.5t-105.5 -108t-39.5 -150v-567zM418 289v850h303q127 0 199.5 -63.5t72.5 -182.5v-53q0 -88 -44.5 -148.5t-119.5 -87.5l205 -315h-133l-196 307h-185v-307h-102zM520 696h205q166 0 166 160v18 q0 85 -41.5 121.5t-124.5 36.5h-205v-336z" />
<glyph unicode="&#xaf;" horiz-adv-x="755" d="M117 1223v123h526v-123h-526z" />
<glyph unicode="&#xb0;" horiz-adv-x="686" d="M94 1174v32q0 115 67.5 184.5t178.5 69.5q118 0 186 -69t68 -185v-32q0 -120 -67.5 -187t-186.5 -67q-112 0 -179 67.5t-67 186.5zM199 1186q0 -85 35 -130.5t104 -45.5q154 0 154 176q0 180 -154 180q-139 0 -139 -180z" />
<glyph unicode="&#xb1;" horiz-adv-x="1202" d="M137 88v125h930v-125h-930zM137 674v125h406v348h116v-348h408v-125h-408v-348h-116v348h-406z" />
<glyph unicode="&#xb2;" horiz-adv-x="821" d="M104 500v67l390 437q96 107 96 196q0 73 -41.5 118.5t-126.5 45.5q-82 0 -133.5 -20.5t-114.5 -63.5l-49 68q69 54 136 82t161 28q133 0 202.5 -70.5t69.5 -185.5q0 -76 -37.5 -142.5t-103.5 -139.5l-289 -326h445v-94h-605z" />
<glyph unicode="&#xb3;" horiz-adv-x="804" d="M109 582l51 82q56 -43 108 -61.5t125 -18.5q82 0 128 48t46 126v16q0 75 -31.5 123.5t-78.5 48.5h-148v103h146q32 0 57 31t35 66.5t10 63.5q0 63 -38.5 104.5t-115.5 41.5t-127.5 -15t-103.5 -55l-49 74q64 52 129.5 75t150.5 23q129 0 198 -68.5t69 -177.5 q0 -58 -23 -116.5t-63 -94.5q43 -23 73.5 -86.5t30.5 -126.5v-32q0 -122 -79.5 -199.5t-215.5 -77.5q-157 0 -284 103z" />
<glyph unicode="&#xb4;" horiz-adv-x="520" d="M137 1233l166 280l115 -63l-199 -270z" />
<glyph unicode="&#xb6;" horiz-adv-x="1142" d="M158 973v57q0 195 104 299.5t299 104.5h428v-1659h-98v1540h-141v-1540h-99v794h-84q-200 0 -304.5 104.5t-104.5 299.5z" />
<glyph unicode="&#xb7;" horiz-adv-x="350" d="M78 598q0 43 27 69.5t71 26.5q43 0 69.5 -26.5t26.5 -69.5q0 -44 -26.5 -71t-69.5 -27q-44 0 -71 27t-27 71z" />
<glyph unicode="&#xb8;" horiz-adv-x="522" d="M117 -313l10 69q30 -10 66 -10q39 0 63.5 16t24.5 48q0 30 -28.5 46t-57.5 16l-29 1l45 127h102l-24 -78q52 -3 86.5 -34t34.5 -87q0 -37 -16.5 -64t-45.5 -41t-60 -20t-67 -6q-58 0 -104 17z" />
<glyph unicode="&#xb9;" horiz-adv-x="507" d="M33 1278l233 164h82v-838h119v-94h-346v94h123v696l-152 -104z" />
<glyph unicode="&#xba;" horiz-adv-x="825" d="M82 889v223q0 161 89 252.5t243 91.5t241.5 -91.5t87.5 -252.5v-223q0 -159 -88 -250.5t-241 -91.5q-154 0 -243 91.5t-89 250.5zM207 911q0 -130 51 -188.5t156 -58.5q103 0 153.5 58.5t50.5 188.5v181q0 131 -49.5 189t-154.5 58t-156 -58.5t-51 -188.5v-181z" />
<glyph unicode="&#xbb;" horiz-adv-x="931" d="M66 315l231 256l-231 258l65 82l270 -297v-84l-270 -297zM539 315l231 256l-231 258l65 82l270 -297v-84l-270 -297z" />
<glyph unicode="&#xbc;" horiz-adv-x="1492" d="M61 1278l234 164h82v-838h119v-94h-346v94h122v696l-151 -104zM264 0l905 1434h123l-909 -1434h-119zM752 186v70l346 684h112l-325 -661h321v372h105v-372h100v-93h-102v-186h-103v186h-454z" />
<glyph unicode="&#xbd;" horiz-adv-x="1650" d="M61 1278l234 164h82v-838h119v-94h-346v94h122v696l-151 -104zM240 0l905 1434h123l-912 -1434h-116zM952 0v68l389 436q97 108 97 196q0 73 -41.5 118.5t-126.5 45.5q-82 0 -133.5 -20.5t-114.5 -63.5l-49 68q69 54 136 82t161 28q133 0 202.5 -70.5t69.5 -185.5 q0 -76 -37.5 -142.5t-103.5 -139.5l-289 -326h444v-94h-604z" />
<glyph unicode="&#xbe;" horiz-adv-x="1562" d="M61 582l52 82q56 -43 108 -61.5t125 -18.5q82 0 128 48t46 126v16q0 75 -31.5 123.5t-78.5 48.5h-148v103h146q32 0 57 31t35 66.5t10 63.5q0 63 -38.5 104.5t-115.5 41.5t-127.5 -15t-103.5 -55l-49 74q64 52 129.5 75t150.5 23q129 0 198 -68.5t69 -177.5 q0 -58 -23 -116.5t-63 -94.5q43 -23 73.5 -86.5t30.5 -126.5v-32q0 -122 -79.5 -199.5t-215.5 -77.5q-158 0 -285 103zM334 0l905 1434h123l-909 -1434h-119zM821 186v70l346 684h113l-326 -661h322v372h104v-372h101v-93h-103v-186h-102v186h-455z" />
<glyph unicode="&#xbf;" horiz-adv-x="935" />
<glyph unicode="&#xc0;" horiz-adv-x="1144" d="M14 0l529 1288l-47 146h125l507 -1434h-139l-127 369h-563l-145 -369h-140zM346 485h477l-221 645zM356 1757l115 64l168 -281l-82 -53z" />
<glyph unicode="&#xc1;" horiz-adv-x="1144" d="M14 0l529 1288l-47 146h125l507 -1434h-139l-127 369h-563l-145 -369h-140zM346 485h477l-221 645zM514 1540l166 281l115 -64l-199 -270z" />
<glyph unicode="&#xc2;" horiz-adv-x="1144" d="M14 0l529 1288l-47 146h125l507 -1434h-139l-127 369h-563l-145 -369h-140zM346 485h477l-221 645zM393 1546l123 207h113l125 -207l-101 -39l-82 156l-79 -156z" />
<glyph unicode="&#xc3;" horiz-adv-x="1144" d="M14 0l529 1288l-47 146h125l507 -1434h-139l-127 369h-563l-145 -369h-140zM279 1559q6 63 53 109t117 46q51 0 139 -44t110 -44q30 0 48.5 21t23.5 51l98 -25q-6 -66 -50 -109.5t-118 -43.5q-41 0 -128.5 43t-122.5 43q-58 0 -70 -72zM346 485h477l-221 645z" />
<glyph unicode="&#xc4;" horiz-adv-x="1144" d="M14 0l529 1288l-47 146h125l507 -1434h-139l-127 369h-563l-145 -369h-140zM301 1642q0 53 21 79t57 26q40 0 64 -26t24 -79q0 -49 -24 -72.5t-64 -23.5q-36 0 -57 23.5t-21 72.5zM346 485h477l-221 645zM680 1642q0 53 22.5 79t59.5 26q39 0 61.5 -26t22.5 -79 q0 -49 -22.5 -72.5t-61.5 -23.5q-37 0 -59.5 23.5t-22.5 72.5z" />
<glyph unicode="&#xc5;" horiz-adv-x="1144" d="M14 0l529 1288l-47 146h125l507 -1434h-139l-127 369h-563l-145 -369h-140zM346 485h477l-221 645zM428 1640v21q0 66 38.5 105.5t102.5 39.5q67 0 107.5 -39.5t40.5 -105.5v-21q0 -70 -40 -108.5t-108 -38.5q-65 0 -103 38.5t-38 108.5zM498 1649q0 -42 18 -66t53 -24 q78 0 78 90t-78 90q-71 0 -71 -90z" />
<glyph unicode="&#xc6;" horiz-adv-x="1832" d="M20 0l738 1434h987v-125h-631v-609h526v-125h-526v-452h647v-123h-772v575h-528l-291 -575h-150zM526 700h463v607h-158z" />
<glyph unicode="&#xc7;" horiz-adv-x="1110" d="M123 414v606q0 200 126 321t324 121q154 0 263 -66t153 -179l-117 -46q-36 76 -114.5 121t-184.5 45q-146 0 -234.5 -91t-88.5 -255v-549q0 -164 88.5 -255t234.5 -91q106 0 184.5 45t114.5 121l117 -45q-40 -103 -133 -167.5t-225 -76.5l-17 -51q52 -3 86.5 -34 t34.5 -87q0 -37 -16.5 -64t-45 -41t-60 -20t-68.5 -6q-57 0 -103 17l11 69q30 -10 65 -10q39 0 63.5 16t24.5 48q0 30 -28.5 46t-57.5 16l-28 1l34 100q-179 14 -291 133.5t-112 307.5z" />
<glyph unicode="&#xc8;" horiz-adv-x="991" d="M135 0v1434h770v-125h-645v-514h539v-123h-539v-549h662v-123h-787zM338 1745l115 63l168 -280l-82 -53z" />
<glyph unicode="&#xc9;" horiz-adv-x="991" d="M135 0v1434h770v-125h-645v-514h539v-125h-539v-547h662v-123h-787zM481 1552l166 281l115 -64l-199 -270z" />
<glyph unicode="&#xca;" horiz-adv-x="991" d="M135 0v1434h770v-125h-645v-514h539v-123h-539v-549h662v-123h-787zM356 1546l123 207h113l125 -207l-101 -39l-81 156l-80 -156z" />
<glyph unicode="&#xcb;" horiz-adv-x="991" d="M135 0v1434h770v-125h-645v-514h539v-123h-539v-549h662v-123h-787zM233 1642q0 53 22 79t58 26q86 0 86 -105q0 -96 -86 -96q-36 0 -58 23.5t-22 72.5zM643 1642q0 53 22 79t58 26q86 0 86 -105q0 -96 -86 -96q-36 0 -58 23.5t-22 72.5z" />
<glyph unicode="&#xcc;" horiz-adv-x="391" d="M-10 1745l114 63l168 -280l-82 -53zM135 0v1434h125v-1434h-125z" />
<glyph unicode="&#xcd;" horiz-adv-x="391" d="M135 0v1434h125v-1434h-125zM143 1516l166 280l115 -63l-199 -271z" />
<glyph unicode="&#xce;" horiz-adv-x="391" d="M18 1546l123 207h113l125 -207l-100 -39l-82 156l-80 -156zM135 0v1434h125v-1434h-125z" />
<glyph unicode="&#xcf;" horiz-adv-x="391" d="M-20 1642q0 53 22.5 79t58.5 26q41 0 65 -26t24 -79q0 -49 -24 -72.5t-65 -23.5q-36 0 -58.5 24t-22.5 72zM135 0v1434h125v-1434h-125zM246 1642q0 105 82 105q39 0 62.5 -26t23.5 -79q0 -49 -23.5 -72.5t-62.5 -23.5q-82 0 -82 96z" />
<glyph unicode="&#xd0;" horiz-adv-x="1159" d="M18 672v123h117v639h479q194 0 308 -120t114 -323v-549q0 -205 -118 -323.5t-332 -118.5q-221 0 -451 68v604h-117zM260 164q155 -41 326 -41q162 0 243.5 88.5t81.5 257.5v496q0 167 -77 255.5t-220 88.5h-354v-514h342v-123h-342v-508z" />
<glyph unicode="&#xd1;" horiz-adv-x="1202" d="M135 0v1434h129l684 -1196l-2 1196h125v-1434h-131l-686 1196l6 -1196h-125zM307 1561q6 63 53 109t117 46q51 0 139.5 -44t110.5 -44q30 0 48.5 21t23.5 51l98 -25q-6 -66 -50 -109.5t-118 -43.5q-41 0 -129 43t-123 43q-57 0 -69 -72z" />
<glyph unicode="&#xd2;" horiz-adv-x="1185" d="M125 414v606q0 133 63.5 235t169.5 154.5t238 52.5q201 0 335 -121t134 -321v-606q0 -133 -63 -235t-169 -155t-237 -53q-132 0 -238 53t-169.5 154.5t-63.5 235.5zM250 442q0 -164 97.5 -255t248.5 -91q149 0 246.5 91t97.5 255v549q0 164 -97.5 255t-246.5 91 q-151 0 -248.5 -91t-97.5 -255v-549zM391 1772l115 63l168 -281l-82 -53z" />
<glyph unicode="&#xd3;" horiz-adv-x="1185" d="M125 414v606q0 133 63.5 235t169.5 154.5t238 52.5q201 0 335 -121t134 -321v-606q0 -133 -63 -235t-169 -155t-237 -53q-132 0 -238 53t-169.5 154.5t-63.5 235.5zM250 442q0 -164 97.5 -255t248.5 -91q149 0 246.5 91t97.5 255v549q0 164 -97.5 255t-246.5 91 q-151 0 -248.5 -91t-97.5 -255v-549zM557 1556l166 281l115 -63l-199 -271z" />
<glyph unicode="&#xd4;" horiz-adv-x="1185" d="M125 414v606q0 133 63.5 235t169.5 154.5t238 52.5q201 0 335 -121t134 -321v-606q0 -133 -63 -235t-169 -155t-237 -53q-132 0 -238 53t-169.5 154.5t-63.5 235.5zM250 442q0 -164 97.5 -255t248.5 -91q149 0 246.5 91t97.5 255v549q0 164 -97.5 255t-246.5 91 q-151 0 -248.5 -91t-97.5 -255v-549zM416 1546l123 207h112l125 -207l-100 -39l-82 156l-80 -156z" />
<glyph unicode="&#xd5;" horiz-adv-x="1185" d="M125 414v606q0 133 63.5 235t169.5 154.5t238 52.5q201 0 335 -121t134 -321v-606q0 -133 -63 -235t-169 -155t-237 -53q-132 0 -238 53t-169.5 154.5t-63.5 235.5zM250 442q0 -164 97.5 -255t248.5 -91q149 0 246.5 91t97.5 255v549q0 164 -97.5 255t-246.5 91 q-151 0 -248.5 -91t-97.5 -255v-549zM301 1563q6 63 53 109t117 46q51 0 139.5 -44t110.5 -44q30 0 48.5 21t23.5 51l98 -25q-6 -66 -50 -109.5t-118 -43.5q-41 0 -129 43t-123 43q-58 0 -70 -72z" />
<glyph unicode="&#xd6;" horiz-adv-x="1208" d="M135 414v606q0 133 63.5 235t169.5 154.5t238 52.5q201 0 335 -121t134 -321v-606q0 -133 -63 -235t-169 -155t-237 -53q-132 0 -238 53t-169.5 154.5t-63.5 235.5zM260 442q0 -164 98.5 -255t247.5 -91t246.5 91t97.5 255v549q0 164 -97.5 255t-246.5 91t-247.5 -91 t-98.5 -255v-549zM317 1642q0 105 80 105q40 0 64 -26t24 -79q0 -49 -24 -72.5t-64 -23.5q-80 0 -80 96zM727 1642q0 105 82 105q39 0 62.5 -26t23.5 -79q0 -49 -23.5 -72.5t-62.5 -23.5q-82 0 -82 96z" />
<glyph unicode="&#xd7;" horiz-adv-x="1058" d="M96 180l363 387l-363 387l72 74l362 -387l363 387l72 -74l-363 -387l363 -387l-72 -74l-363 388l-362 -388z" />
<glyph unicode="&#xd8;" horiz-adv-x="1185" d="M6 289l119 100v631q0 133 63.5 235t169.5 154.5t238 52.5q154 0 274.5 -76.5t169.5 -209.5l72 59l74 -88l-121 -105v-628q0 -133 -63 -235t-169 -155t-237 -53q-157 0 -277 76t-169 211l-76 -65zM250 494l680 589q-28 123 -118.5 188.5t-215.5 65.5q-151 0 -248.5 -90 t-97.5 -256v-497zM260 348q26 -121 117.5 -186.5t218.5 -65.5q150 0 247 90.5t97 255.5v498z" />
<glyph unicode="&#xd9;" horiz-adv-x="1157" d="M129 377v1057h127v-1028q0 -166 68 -241t217 -75q112 0 212 61t150 142v1141h125v-1264q0 -36 11.5 -56t32.5 -24.5t40 -2.5t45 9v-104q-122 -26 -181.5 5.5t-72.5 143.5q-155 -170 -366 -170q-408 0 -408 406zM362 1757l115 64l168 -281l-82 -53z" />
<glyph unicode="&#xda;" horiz-adv-x="1157" d="M129 377v1057h127v-1028q0 -166 68 -241t217 -75q112 0 212 61t150 142v1141h125v-1264q0 -36 11.5 -56t32.5 -24.5t40 -2.5t45 9v-104q-122 -26 -181.5 5.5t-72.5 143.5q-155 -170 -366 -170q-408 0 -408 406zM530 1540l166 281l115 -64l-199 -270z" />
<glyph unicode="&#xdb;" horiz-adv-x="1157" d="M129 377v1057h127v-1028q0 -166 68 -241t217 -75q112 0 212 61t150 142v1141h125v-1264q0 -36 11.5 -56t32.5 -24.5t40 -2.5t45 9v-104q-122 -26 -181.5 5.5t-72.5 143.5q-155 -170 -366 -170q-408 0 -408 406zM408 1546l122 207h113l125 -207l-100 -39l-82 156l-80 -156 z" />
<glyph unicode="&#xdc;" horiz-adv-x="1157" d="M129 377v1057h127v-1028q0 -166 68 -241t217 -75q112 0 212 61t150 142v1141h125v-1264q0 -36 11.5 -56t32.5 -24.5t40 -2.5t45 9v-104q-122 -26 -181.5 5.5t-72.5 143.5q-155 -170 -366 -170q-408 0 -408 406z" />
<glyph unicode="&#xdd;" horiz-adv-x="1028" d="M18 1434h140l358 -789l358 789h138l-432 -926v-508h-125v504zM438 1540l166 281l115 -64l-199 -270z" />
<glyph unicode="&#xde;" horiz-adv-x="1118" d="M135 0v1434h125v-271h330q199 0 311.5 -107t112.5 -304v-70q0 -197 -112.5 -304.5t-311.5 -107.5h-330v-270h-125zM260 387h330q297 0 297 322v16q0 319 -297 319h-330v-657z" />
<glyph unicode="&#xdf;" horiz-adv-x="1124" d="M16 809v111h138v217q0 196 93.5 303.5t266.5 107.5q341 0 344 -307q0 -48 -16 -89.5t-42 -71t-57 -56t-62.5 -49t-57.5 -44.5t-42 -48.5t-16 -55.5q0 -50 24.5 -90t64 -67.5t87.5 -53t95.5 -54.5t87 -64.5t64 -91t24.5 -125.5q0 -140 -94.5 -225t-274.5 -85 q-93 0 -182 29l22 109q85 -25 164 -25q103 0 166.5 46t63.5 132q0 47 -24.5 86t-64 68t-87 57t-94.5 60t-86.5 68t-64 89.5t-24.5 118.5q0 68 21.5 119t53 79.5t69 56t69 49.5t53 59t21.5 85q0 25 -3 45.5t-15 46.5t-33 43.5t-60.5 29.5t-93.5 12q-124 0 -183 -80t-59 -242 v-1112h-118v809h-138z" />
<glyph unicode="&#xe0;" d="M141 385v285q0 196 102 305.5t287 109.5q142 0 295 -67l23 47h88v-895q0 -30 8.5 -50t21 -28t31.5 -9.5t34.5 1t35.5 8.5v-100q-225 -53 -250 137q-140 -149 -315 -149q-174 0 -267.5 105.5t-93.5 299.5zM260 414q0 -160 58 -241t188 -81q89 0 171 54.5t140 136.5v626 q-118 62 -287 62q-270 0 -270 -326v-231zM344 1450l115 63l168 -280l-82 -53z" />
<glyph unicode="&#xe1;" d="M141 385v285q0 196 102 305.5t287 109.5q142 0 295 -67l23 47h88v-895q0 -30 8.5 -50t21 -28t31.5 -9.5t34.5 1t35.5 8.5v-100q-225 -53 -250 137q-140 -149 -315 -149q-174 0 -267.5 105.5t-93.5 299.5zM260 414q0 -160 58 -241t188 -81q89 0 171 54.5t140 136.5v626 q-118 62 -287 62q-270 0 -270 -326v-231zM498 1233l166 280l114 -63l-198 -270z" />
<glyph unicode="&#xe2;" d="M141 385v285q0 196 102 305.5t287 109.5q142 0 295 -67l23 47h88v-895q0 -30 8.5 -50t21 -28t31.5 -9.5t34.5 1t35.5 8.5v-100q-225 -53 -250 137q-140 -149 -315 -149q-174 0 -267.5 105.5t-93.5 299.5zM260 414q0 -160 58 -241t188 -81q89 0 171 54.5t140 136.5v626 q-118 62 -287 62q-270 0 -270 -326v-231zM393 1219l123 206h113l125 -206l-101 -39l-82 155l-79 -155z" />
<glyph unicode="&#xe3;" d="M141 385v285q0 196 102 305.5t287 109.5q142 0 295 -67l23 47h88v-895q0 -30 8.5 -50t21 -28t31.5 -9.5t34.5 1t35.5 8.5v-100q-225 -53 -250 137q-140 -149 -315 -149q-174 0 -267.5 105.5t-93.5 299.5zM260 414q0 -160 58 -241t188 -81q89 0 171 54.5t140 136.5v626 q-118 62 -287 62q-270 0 -270 -326v-231zM266 1253q6 63 53 109.5t117 46.5q51 0 139.5 -44t110.5 -44q30 0 48.5 21t23.5 51l98 -25q-6 -66 -50 -110t-118 -44q-41 0 -129 43t-123 43q-57 0 -69 -71z" />
<glyph unicode="&#xe4;" d="M141 385v285q0 196 102 305.5t287 109.5q142 0 295 -67l23 47h88v-895q0 -30 8.5 -50t21 -28t31.5 -9.5t34.5 1t35.5 8.5v-100q-225 -53 -250 137q-140 -149 -315 -149q-174 0 -267.5 105.5t-93.5 299.5zM260 414q0 -160 58 -241t188 -81q89 0 171 54.5t140 136.5v626 q-118 62 -287 62q-270 0 -270 -326v-231z" />
<glyph unicode="&#xe5;" horiz-adv-x="1067" d="M141 385v285q0 196 102 305.5t287 109.5q142 0 295 -67l23 47h88v-895q0 -30 8.5 -50t21 -28t31.5 -9.5t34.5 1t35.5 8.5v-100q-225 -53 -250 137q-140 -149 -315 -149q-174 0 -267.5 105.5t-93.5 299.5zM260 414q0 -160 58 -241t188 -81q89 0 171 54.5t140 136.5v626 q-118 62 -287 62q-270 0 -270 -326v-231zM414 1395v20q0 66 38.5 106t102.5 40q68 0 107.5 -39.5t39.5 -106.5v-20q0 -70 -39 -109t-108 -39q-65 0 -103 39t-38 109zM483 1403q0 -42 18.5 -66t53.5 -24q76 0 76 90t-76 90q-72 0 -72 -90z" />
<glyph unicode="&#xe6;" horiz-adv-x="2172" d="M137 385v285q0 196 102 305.5t287 109.5q200 0 402 -110q104 110 291 110t294 -110.5t107 -304.5v-172h-686v-76q0 -160 74 -245t211 -85q186 0 325 103l58 -89q-66 -53 -165 -89.5t-218 -36.5q-124 0 -212.5 49.5t-136.5 142.5q-40 -42 -72.5 -70t-79.5 -59t-102.5 -47 t-117.5 -16q-174 0 -267.5 105.5t-93.5 299.5zM256 414q0 -160 58 -241t188 -81q89 0 171 54.5t140 136.5v626q-118 62 -287 62q-270 0 -270 -326v-231zM936 608h565v35q0 160 -73 244t-209 84q-137 0 -210 -83.5t-73 -244.5v-35z" />
<glyph unicode="&#xe7;" horiz-adv-x="1058" d="M143 395v275q0 194 107.5 304.5t294.5 110.5q124 0 213.5 -34t169.5 -97l-62 -84q-143 103 -321 103q-136 0 -209.5 -84t-73.5 -244v-225q0 -160 73.5 -244t209.5 -84q186 0 325 103l58 -89q-131 -105 -322 -124l-18 -60q52 -3 86.5 -34t34.5 -87q0 -37 -16.5 -64 t-45.5 -41t-60 -20t-67 -6q-58 0 -104 17l10 69q30 -10 66 -10q39 0 63.5 16t24.5 48q0 30 -29 46t-57 16l-29 1l39 109q-168 12 -264.5 121t-96.5 292z" />
<glyph unicode="&#xe8;" horiz-adv-x="1083" d="M143 395v275q0 194 108.5 304.5t295.5 110.5t294 -110.5t107 -304.5v-172h-686v-76q0 -160 74 -245t211 -85q186 0 325 103l58 -89q-66 -53 -165 -89.5t-218 -36.5q-187 0 -295.5 110.5t-108.5 304.5zM264 608h565v35q0 160 -73 244t-209 84q-137 0 -210 -83.5 t-73 -244.5v-35zM340 1450l115 63l168 -280l-82 -53z" />
<glyph unicode="&#xe9;" horiz-adv-x="1083" d="M143 395v275q0 194 108.5 304.5t295.5 110.5t294 -110.5t107 -304.5v-172h-686v-76q0 -160 74 -245t211 -85q186 0 325 103l58 -89q-66 -53 -165 -89.5t-218 -36.5q-187 0 -295.5 110.5t-108.5 304.5zM264 608h565v35q0 160 -73 244t-209 84q-137 0 -210 -83.5 t-73 -244.5v-35zM500 1233l166 280l114 -63l-198 -270z" />
<glyph unicode="&#xea;" horiz-adv-x="1083" d="M143 395v275q0 194 108.5 304.5t295.5 110.5t294 -110.5t107 -304.5v-172h-686v-76q0 -160 74 -245t211 -85q186 0 325 103l58 -89q-66 -53 -165 -89.5t-218 -36.5q-187 0 -295.5 110.5t-108.5 304.5zM264 608h565v35q0 160 -73 244t-209 84q-137 0 -210 -83.5 t-73 -244.5v-35zM362 1239l123 207h113l125 -207l-100 -39l-82 156l-80 -156z" />
<glyph unicode="&#xeb;" horiz-adv-x="1083" d="M143 395v275q0 194 108.5 304.5t295.5 110.5t294 -110.5t107 -304.5v-172h-686v-76q0 -160 74 -245t211 -85q186 0 325 103l58 -89q-66 -53 -165 -89.5t-218 -36.5q-187 0 -295.5 110.5t-108.5 304.5zM258 1356q0 104 80 104q86 0 86 -104q0 -96 -86 -96q-36 0 -58 23.5 t-22 72.5zM264 608h565v35q0 160 -73 244t-209 84q-137 0 -210 -83.5t-73 -244.5v-35zM668 1356q0 104 80 104q86 0 86 -104q0 -96 -86 -96q-80 0 -80 96z" />
<glyph unicode="&#xec;" horiz-adv-x="425" d="M-4 1450l115 63l168 -280l-82 -53zM156 0v1065h118v-1065h-118z" />
<glyph unicode="&#xed;" horiz-adv-x="425" d="M156 0v1065h118v-1065h-118zM166 1233l166 280l114 -63l-198 -270z" />
<glyph unicode="&#xee;" horiz-adv-x="425" d="M37 1239l123 207h112l125 -207l-100 -39l-82 156l-80 -156zM156 0v1065h118v-1065h-118z" />
<glyph unicode="&#xef;" horiz-adv-x="425" d="M-31 1356q0 106 84 106q88 0 88 -106q0 -50 -24 -74.5t-64 -24.5q-38 0 -61 24.5t-23 74.5zM156 0v1065h118v-1065h-118zM242 1356q0 106 82 106q88 0 88 -106q0 -99 -88 -99q-82 0 -82 99z" />
<glyph unicode="&#xf0;" horiz-adv-x="1091" d="M143 401v299q0 197 94 305.5t273 108.5q83 0 164.5 -34t144.5 -89v62q0 129 -53 211l-137 -111l-76 100l113 93q-81 34 -154 34q-56 0 -119 -18l-35 115q70 28 152 28q163 0 266 -75l139 112l74 -100l-123 -101q74 -115 74 -260l-2 -684q1 -194 -105 -305.5t-290 -111.5 q-188 0 -294 112.5t-106 308.5zM266 418q0 -157 70.5 -239.5t204.5 -82.5t206 83t72 239v424q-50 62 -135.5 107.5t-169.5 45.5q-131 0 -189.5 -78.5t-58.5 -234.5v-264z" />
<glyph unicode="&#xf1;" horiz-adv-x="1087" d="M156 0v1065h98l16 -135q63 68 144.5 111.5t165.5 43.5q354 0 354 -399v-545q0 -59 65 -59q33 0 66 10v-100q-49 -12 -94 -12q-156 0 -156 149v530q0 165 -52.5 241.5t-184.5 76.5q-85 0 -168.5 -55.5t-135.5 -128.5v-793h-118zM256 1253q6 63 53 109.5t117 46.5 q51 0 139.5 -44t110.5 -44q30 0 48.5 21t23.5 51l98 -25q-6 -66 -50 -110t-118 -44q-41 0 -129 43t-123 43q-58 0 -70 -71z" />
<glyph unicode="&#xf2;" horiz-adv-x="1087" d="M143 395v275q0 194 108.5 304.5t295.5 110.5t294 -110.5t107 -304.5v-275q-1 -195 -108 -305t-293 -110q-187 0 -295.5 110.5t-108.5 304.5zM262 420q0 -160 73.5 -243t211.5 -83q137 0 209 82.5t73 243.5v225q0 160 -72.5 243t-209.5 83q-138 0 -211.5 -83t-73.5 -243 v-225zM342 1450l115 63l168 -280l-82 -53z" />
<glyph unicode="&#xf3;" horiz-adv-x="1087" d="M143 395v275q0 194 108.5 304.5t295.5 110.5t294 -110.5t107 -304.5v-275q-1 -195 -108 -305t-293 -110q-187 0 -295.5 110.5t-108.5 304.5zM262 420q0 -160 73.5 -243t211.5 -83q137 0 209 82.5t73 243.5v225q0 160 -72.5 243t-209.5 83q-138 0 -211.5 -83t-73.5 -243 v-225zM504 1233l166 280l114 -63l-198 -270z" />
<glyph unicode="&#xf4;" horiz-adv-x="1087" d="M143 395v275q0 194 108.5 304.5t295.5 110.5t294 -110.5t107 -304.5v-275q-1 -195 -108 -305t-293 -110q-187 0 -295.5 110.5t-108.5 304.5zM262 420q0 -160 73.5 -243t211.5 -83q137 0 209 82.5t73 243.5v225q0 160 -72.5 243t-209.5 83q-138 0 -211.5 -83t-73.5 -243 v-225zM365 1239l122 207h113l125 -207l-100 -39l-82 156l-80 -156z" />
<glyph unicode="&#xf5;" horiz-adv-x="1087" d="M143 395v275q0 194 108.5 304.5t295.5 110.5t294 -110.5t107 -304.5v-275q-1 -195 -108 -305t-293 -110q-187 0 -295.5 110.5t-108.5 304.5zM252 1253q6 63 53 109.5t117 46.5q51 0 139.5 -44t110.5 -44q30 0 48 21t23 51l99 -25q-6 -66 -50 -110t-118 -44q-41 0 -129 43 t-123 43q-58 0 -70 -71zM262 420q0 -160 73.5 -243t211.5 -83q137 0 209 82.5t73 243.5v225q0 160 -72.5 243t-209.5 83q-138 0 -211.5 -83t-73.5 -243v-225z" />
<glyph unicode="&#xf6;" horiz-adv-x="1087" d="M143 395v275q0 194 108.5 304.5t295.5 110.5t294 -110.5t107 -304.5v-275q-1 -195 -108 -305t-293 -110q-187 0 -295.5 110.5t-108.5 304.5zM258 1356q0 104 80 104q39 0 62.5 -25.5t23.5 -78.5q0 -49 -23.5 -72.5t-62.5 -23.5q-80 0 -80 96zM262 420q0 -160 73.5 -243 t211.5 -83q137 0 209 82.5t73 243.5v225q0 160 -72.5 243t-209.5 83q-138 0 -211.5 -83t-73.5 -243v-225zM668 1356q0 104 80 104q39 0 62.5 -25.5t23.5 -78.5q0 -49 -23.5 -72.5t-62.5 -23.5q-80 0 -80 96z" />
<glyph unicode="&#xf7;" horiz-adv-x="1116" d="M94 512v123h930v-123h-930zM479 76q0 51 21 76.5t57 25.5q38 0 60 -25.5t22 -76.5q0 -48 -22 -72t-60 -24q-78 0 -78 96zM479 1065q0 51 21 76.5t57 25.5q38 0 60 -25.5t22 -76.5q0 -48 -22 -72t-60 -24q-78 0 -78 96z" />
<glyph unicode="&#xf8;" horiz-adv-x="1087" d="M16 156l140 118q-13 60 -13 121v275q0 194 108.5 304.5t295.5 110.5q119 0 207.5 -46.5t138.5 -133.5l117 101l63 -95l-137 -118q12 -55 12 -123v-275q0 -194 -107 -304.5t-294 -110.5q-119 0 -208.5 46.5t-139.5 133.5l-115 -99zM262 369l535 454q-65 148 -250 148 q-138 0 -211.5 -83t-73.5 -243v-276zM295 242q65 -148 252 -148q137 0 209 82.5t73 243.5v280z" />
<glyph unicode="&#xf9;" horiz-adv-x="1071" d="M150 369v696h118v-668q0 -156 55.5 -230.5t172.5 -74.5q89 0 168.5 54.5t138.5 136.5v782h119v-895q0 -30 8.5 -50t21 -28t31.5 -9.5t34.5 1t35.5 8.5v-100q-225 -53 -250 137q-140 -149 -311 -149q-161 0 -251.5 99.5t-90.5 289.5zM350 1450l115 63l168 -280l-82 -53z " />
<glyph unicode="&#xfa;" horiz-adv-x="1071" d="M150 369v696h118v-668q0 -156 55.5 -230.5t172.5 -74.5q89 0 168.5 54.5t138.5 136.5v782h119v-895q0 -30 8.5 -50t21 -28t31.5 -9.5t34.5 1t35.5 8.5v-100q-225 -53 -250 137q-140 -149 -311 -149q-161 0 -251.5 99.5t-90.5 289.5zM455 1233l166 280l114 -63l-198 -270z " />
<glyph unicode="&#xfb;" horiz-adv-x="1071" d="M150 369v696h118v-668q0 -156 55.5 -230.5t172.5 -74.5q89 0 168.5 54.5t138.5 136.5v782h119v-895q0 -30 8.5 -50t21 -28t31.5 -9.5t34.5 1t35.5 8.5v-100q-225 -53 -250 137q-140 -149 -311 -149q-161 0 -251.5 99.5t-90.5 289.5zM356 1239l123 207h113l125 -207 l-101 -39l-81 156l-80 -156z" />
<glyph unicode="&#xfc;" horiz-adv-x="1071" d="M150 369v696h118v-668q0 -156 55.5 -230.5t172.5 -74.5q89 0 168.5 54.5t138.5 136.5v782h119v-895q0 -30 8.5 -50t21 -28t31.5 -9.5t34.5 1t35.5 8.5v-100q-225 -53 -250 137q-140 -149 -311 -149q-161 0 -251.5 99.5t-90.5 289.5zM256 1356q0 104 80 104 q39 0 62.5 -25.5t23.5 -78.5q0 -49 -23.5 -72.5t-62.5 -23.5q-80 0 -80 96zM666 1356q0 104 79 104q39 0 62.5 -25.5t23.5 -78.5q0 -49 -23.5 -72.5t-62.5 -23.5q-79 0 -79 96z" />
<glyph unicode="&#xfd;" horiz-adv-x="1107" d="M156 467v598h118v-578q0 -162 55.5 -235.5t190.5 -73.5q87 0 176.5 49.5t137.5 116.5v721h118v-1022q0 -180 -112 -275.5t-289 -95.5q-219 0 -383 123l47 90q162 -102 336 -102q129 0 206 69t77 218v131q-132 -135 -314 -135t-273 101.5t-91 299.5zM489 1233l166 280 l115 -63l-199 -270z" />
<glyph unicode="&#xfe;" d="M156 -307v1843h118v-518q63 70 142 109.5t164 39.5q179 0 273.5 -105t94.5 -300v-375q0 -187 -108 -297t-287 -110q-177 0 -279 51v-338h-118zM274 145q111 -51 287 -51q131 0 199.5 83t70.5 237l-2 319q0 161 -59 242.5t-192 81.5q-84 0 -168 -58t-136 -133v-721z" />
<glyph unicode="&#xff;" horiz-adv-x="1107" d="M156 467v598h118v-578q0 -162 55.5 -235.5t190.5 -73.5q87 0 176.5 49.5t137.5 116.5v721h118v-1022q0 -180 -112 -275.5t-289 -95.5q-219 0 -383 123l47 90q162 -102 336 -102q129 0 206 69t77 218v131q-132 -135 -314 -135t-273 101.5t-91 299.5z" />
<glyph unicode="&#x152;" horiz-adv-x="1730" d="M135 414v606q0 202 128 322t327 120q104 0 191 -43t130 -123v138h731v-125h-604v-514h502v-123h-502v-549h621v-123h-748v129q-62 -86 -139.5 -122t-181.5 -36q-199 0 -327 120.5t-128 322.5zM260 442q0 -166 89.5 -256t236.5 -90q143 0 234 91.5t91 250.5v557 q0 159 -91 250.5t-234 91.5q-147 0 -236.5 -90t-89.5 -256v-549z" />
<glyph unicode="&#x153;" horiz-adv-x="1769" d="M143 395v275q0 194 108.5 304.5t295.5 110.5q240 0 342 -174q105 174 344 174q187 0 294.5 -110.5t106.5 -304.5v-187h-686v-61q-1 -160 73 -245t212 -85q95 0 180 29t146 74l57 -89q-66 -53 -165 -89.5t-218 -36.5q-118 0 -206 45.5t-138 130.5q-103 -176 -342 -176 q-187 0 -295.5 110.5t-108.5 304.5zM262 420q0 -160 73.5 -243t211.5 -83q137 0 209 82.5t73 243.5v225q0 160 -72.5 243t-209.5 83q-138 0 -211.5 -83t-73.5 -243v-225zM948 604h568v39q3 159 -71.5 243.5t-211.5 84.5t-211 -84t-74 -244v-39z" />
<glyph unicode="&#x178;" horiz-adv-x="1028" d="M18 1434h140l358 -789l358 789h138l-432 -926v-508h-125v504z" />
<glyph unicode="&#x2c6;" horiz-adv-x="632" d="M139 1239l123 207h113l125 -207l-101 -39l-82 156l-79 -156z" />
<glyph unicode="&#x2dc;" horiz-adv-x="780" d="M96 1253q6 63 53 109.5t117 46.5q51 0 139.5 -44t110.5 -44q30 0 48.5 21t23.5 51l98 -25q-6 -66 -50 -110t-118 -44q-41 0 -129 43t-123 43q-57 0 -69 -71z" />
<glyph unicode="&#x2000;" horiz-adv-x="918" />
<glyph unicode="&#x2001;" horiz-adv-x="1837" />
<glyph unicode="&#x2002;" horiz-adv-x="918" />
<glyph unicode="&#x2003;" horiz-adv-x="1837" />
<glyph unicode="&#x2004;" horiz-adv-x="612" />
<glyph unicode="&#x2005;" horiz-adv-x="459" />
<glyph unicode="&#x2006;" horiz-adv-x="306" />
<glyph unicode="&#x2007;" horiz-adv-x="306" />
<glyph unicode="&#x2008;" horiz-adv-x="229" />
<glyph unicode="&#x2009;" horiz-adv-x="367" />
<glyph unicode="&#x200a;" horiz-adv-x="102" />
<glyph unicode="&#x2010;" horiz-adv-x="755" d="M115 561v121h526v-121h-526z" />
<glyph unicode="&#x2011;" horiz-adv-x="755" d="M115 561v121h526v-121h-526z" />
<glyph unicode="&#x2012;" horiz-adv-x="755" d="M115 561v121h526v-121h-526z" />
<glyph unicode="&#x2013;" horiz-adv-x="966" d="M16 561v121h938v-121h-938z" />
<glyph unicode="&#x2014;" horiz-adv-x="1632" d="M16 561v121h1604v-121h-1604z" />
<glyph unicode="&#x2018;" horiz-adv-x="360" d="M82 1427q0 54 28.5 79.5t69.5 25.5q40 0 68 -25t28 -75q0 -63 -59 -89q1 -22 16 -44.5t29 -35t39 -32.5l-41 -70q-91 39 -134.5 110.5t-43.5 155.5z" />
<glyph unicode="&#x2019;" horiz-adv-x="360" d="M61 1231q25 20 39 32.5t29 35t16 44.5q-59 26 -59 89q0 50 28 75t68 25q42 0 70.5 -25.5t28.5 -79.5q0 -83 -44 -155t-135 -111z" />
<glyph unicode="&#x201a;" horiz-adv-x="360" d="M61 -125q24 19 39 32.5t29.5 36t15.5 44.5q-59 26 -59 88q0 50 28 75t68 25q42 0 70.5 -25t28.5 -79q0 -83 -44 -155.5t-135 -111.5z" />
<glyph unicode="&#x201c;" horiz-adv-x="616" d="M82 1427q0 54 28.5 79.5t69.5 25.5q40 0 68 -25t28 -75q0 -63 -59 -89q1 -22 16 -44.5t29 -35t39 -32.5l-41 -70q-91 39 -134.5 110.5t-43.5 155.5zM340 1427q0 54 28.5 79.5t69.5 25.5q40 0 68.5 -25t28.5 -75q0 -63 -60 -89q1 -22 16 -44.5t29 -35t39 -32.5l-41 -70 q-91 39 -134.5 110.5t-43.5 155.5z" />
<glyph unicode="&#x201d;" horiz-adv-x="616" d="M61 1231q25 20 39 32.5t29 35t16 44.5q-59 26 -59 89q0 50 28 75t68 25q42 0 70.5 -25.5t28.5 -79.5q0 -83 -44 -155t-135 -111zM319 1231q25 20 39 32.5t29 35t16 44.5q-59 26 -59 89q0 50 28 75t68 25q42 0 70.5 -25.5t28.5 -79.5q0 -83 -44 -155t-135 -111z" />
<glyph unicode="&#x201e;" horiz-adv-x="616" d="M61 -125q24 19 39 32.5t29.5 36t15.5 44.5q-59 26 -59 88q0 50 28 75t68 25q42 0 70.5 -25t28.5 -79q0 -83 -44 -155.5t-135 -111.5zM319 -125q24 19 39 32.5t29.5 36t15.5 44.5q-59 26 -59 88q0 50 28 75t68 25q42 0 70.5 -25t28.5 -79q0 -83 -44 -155.5t-135 -111.5z " />
<glyph unicode="&#x2022;" horiz-adv-x="823" d="M135 657q0 163 72 246.5t199 83.5q133 0 208.5 -83.5t75.5 -246.5q0 -156 -75.5 -234.5t-208.5 -78.5q-127 0 -199 78.5t-72 234.5z" />
<glyph unicode="&#x2026;" horiz-adv-x="962" d="M78 80q0 43 27 69.5t71 26.5q43 0 69.5 -26.5t26.5 -69.5q0 -44 -26.5 -71t-69.5 -27q-44 0 -71 27t-27 71zM385 80q0 43 27 69.5t71 26.5q43 0 70 -26.5t27 -69.5q0 -44 -27 -71t-70 -27q-44 0 -71 27t-27 71zM690 80q0 43 27 69.5t71 26.5q43 0 70 -26.5t27 -69.5 q0 -44 -27 -71t-70 -27q-44 0 -71 27t-27 71z" />
<glyph unicode="&#x202f;" horiz-adv-x="367" />
<glyph unicode="&#x2039;" horiz-adv-x="569" d="M113 530v84l272 297l66 -82l-232 -258l232 -256l-66 -82z" />
<glyph unicode="&#x203a;" horiz-adv-x="569" d="M121 315l231 256l-231 258l65 82l273 -297v-84l-273 -297z" />
<glyph unicode="&#x205f;" horiz-adv-x="459" />
<glyph unicode="&#x20ac;" horiz-adv-x="1228" />
<glyph unicode="&#x2122;" horiz-adv-x="1689" d="M51 1348v92h619v-92h-256v-846h-103v846h-260zM723 502v938h119l309 -586l307 586h119v-938h-102l4 778l-277 -522h-104l-277 522l4 -778h-102z" />
<glyph unicode="&#x25fc;" horiz-adv-x="1064" d="M0 0v1065h1065v-1065h-1065z" />
<glyph unicode="&#xfb01;" horiz-adv-x="1046" d="M16 952v113h138v174q0 94 22.5 155.5t71 94.5t110.5 46t154 13q69 0 162.5 -23.5t138.5 -43.5l-35 -95q-39 16 -131.5 35t-142.5 19q-127 0 -178.5 -36t-51.5 -130v-209h603v-1065h-119v952h-486v-952h-118v952h-138z" />
<glyph unicode="&#xfb02;" horiz-adv-x="1009" d="M16 950v115h138v143q0 157 107 248.5t282 91.5q187 0 313 -73v-1475h-119v1407q-100 27 -196 27q-128 0 -198.5 -63.5t-70.5 -192.5v-113h357v-115h-357v-950h-118v950h-138z" />
<glyph unicode="&#xfb03;" horiz-adv-x="1460" d="M16 950v115h138v49q0 216 86.5 311t267.5 95q68 0 141 -25.5t127 -62.5q59 66 127 95t158 29q44 0 105 -11.5t96 -26.5l-33 -101q-77 25 -174 25q-130 0 -196 -89.5t-66 -244.5v-43h514v-1065h-119v950h-393v-950h-119v950h-404v-950h-118v950h-138zM272 1065h404v25 q3 172 47 249q-112 70 -219 70q-131 0 -181.5 -72t-50.5 -233v-39z" />
<glyph unicode="&#xfb04;" horiz-adv-x="1529" d="M16 950v115h138v100q3 185 96.5 270t255.5 85q62 0 137.5 -23t136.5 -53q109 112 285 112q186 0 313 -73v-1483h-118v1417q-92 25 -199 25q-266 0 -266 -303v-74h354v-115h-354v-950h-119v950h-404v-950h-118v950h-138zM272 1065h404v98q0 98 39 189q-103 53 -213 53 q-58 0 -98 -11.5t-71 -40.5t-46 -82t-15 -132v-74z" />
</font>
</defs>
</svg>
