<?xml version="1.0" standalone="no"?>
<!DOCTYPE svg PUBLIC "-//W3C//DTD SVG 1.1//EN" "http://www.w3.org/Graphics/SVG/1.1/DTD/svg11.dtd" >
<svg xmlns="http://www.w3.org/2000/svg" xmlns:xlink="http://www.w3.org/1999/xlink" version="1.1">
<metadata></metadata>
<defs>
<font id="darwinlight" horiz-adv-x="220" >
<font-face units-per-em="1000" ascent="750" descent="-250" />
<missing-glyph horiz-adv-x="230" />
<glyph unicode=" "  horiz-adv-x="230" />
<glyph unicode="&#x09;" horiz-adv-x="230" />
<glyph unicode="&#xa0;" horiz-adv-x="230" />
<glyph unicode="!" horiz-adv-x="230" d="M83 169l-7 359v172h80v-172l-8 -359h-65zM114 -10c-25 0 -43 16 -43 51c0 33 18 48 43 48c28 0 46 -15 46 -48c0 -35 -18 -51 -46 -51z" />
<glyph unicode="&#x22;" horiz-adv-x="269" d="M45 560l-10 190h80l-11 -190h-59zM166 560l-11 190h81l-11 -190h-59z" />
<glyph unicode="#" horiz-adv-x="627" d="M99 0l41 201h-119l15 68h118l33 162h-120l15 67h119l41 202h72l-41 -202h136l41 202h73l-42 -202h125l-15 -67h-123l-34 -162h125l-15 -68h-124l-41 -201h-72l41 201h-137l-40 -201h-72zM226 269h137l32 162h-136z" />
<glyph unicode="$" horiz-adv-x="550" d="M316 633v-239c97 -20 189 -66 189 -201c0 -106 -65 -187 -189 -204v-89h-59v86c-88 2 -161 34 -205 68l36 66c42 -28 103 -53 169 -55v259c-107 20 -187 71 -187 201c0 103 66 179 187 188v87h59v-88c69 -7 118 -33 165 -67l-39 -63c-38 25 -77 45 -126 51zM257 406v227 c-72 -6 -106 -49 -106 -105c0 -76 38 -105 106 -122zM316 312v-242c69 13 107 58 107 117c0 71 -40 107 -107 125z" />
<glyph unicode="%" horiz-adv-x="857" d="M53 432v133c0 91 60 147 149 147s148 -56 148 -147v-133c0 -91 -59 -148 -148 -148s-149 57 -149 148zM123 556v-116c0 -62 32 -94 79 -94s79 32 79 94v116c0 62 -32 94 -79 94s-79 -32 -79 -94zM508 137v133c0 92 59 147 149 147c88 0 147 -55 147 -147v-133 c0 -90 -59 -147 -147 -147c-90 0 -149 57 -149 147zM577 261v-116c0 -62 31 -93 80 -93c47 0 79 31 79 93v116c0 62 -32 94 -79 94c-49 0 -80 -32 -80 -94zM140 0l519 741l58 -41l-521 -740z" />
<glyph unicode="&#x26;" horiz-adv-x="661" d="M263 -14c-128 0 -207 49 -207 167c0 102 82 175 143 219c-44 48 -92 107 -93 174c0 90 61 168 176 168c129 0 177 -69 177 -156c1 -89 -64 -135 -146 -194l152 -174c29 44 42 101 42 136l78 -9c-4 -57 -27 -132 -67 -187l82 -90l-59 -53l-73 81 c-47 -48 -126 -82 -205 -82zM249 316c-68 -51 -109 -102 -109 -160c0 -71 54 -97 127 -97c58 0 116 27 151 65zM264 419c57 43 115 77 116 136c0 51 -24 87 -98 87c-63 0 -95 -35 -95 -91c0 -54 38 -88 77 -132z" />
<glyph unicode="'" horiz-adv-x="148" d="M45 560l-10 190h80l-11 -190h-59z" />
<glyph unicode="(" horiz-adv-x="291" d="M63 127v386c0 128 74 227 188 245l15 -71c-74 -10 -125 -87 -125 -188v-358c0 -101 51 -177 125 -188l-15 -71c-114 18 -188 117 -188 245z" />
<glyph unicode=")" horiz-adv-x="291" d="M41 758c114 -18 188 -117 188 -245v-386c0 -128 -74 -227 -188 -245l-15 71c75 11 125 87 125 188v358c0 101 -50 178 -125 188z" />
<glyph unicode="*" horiz-adv-x="436" d="M87 407l84 113l-131 39l22 70l126 -46l-3 140h70l-4 -139l124 45l22 -70l-129 -40l82 -112l-56 -43l-75 118l-75 -118z" />
<glyph unicode="+" horiz-adv-x="563" d="M244 43v221h-191v78h191v221h76v-221h192v-78h-192v-221h-76z" />
<glyph unicode="," horiz-adv-x="186" d="M46 -98l-23 41c19 13 41 31 43 53c-19 9 -30 26 -30 48c0 40 27 57 56 57c31 0 59 -17 59 -58c0 -52 -28 -112 -105 -141z" />
<glyph unicode="-" horiz-adv-x="377" d="M53 264v77h271v-77h-271z" />
<glyph unicode="." horiz-adv-x="186" d="M151 46c0 -36 -24 -56 -58 -56s-57 20 -57 56c0 34 23 55 57 55s58 -21 58 -55z" />
<glyph unicode="/" horiz-adv-x="461" d="M8 -110l381 887l66 -27l-382 -886z" />
<glyph unicode="0" horiz-adv-x="549" d="M58 205v290c0 136 88 219 218 219c129 0 218 -83 218 -219v-290c0 -136 -89 -219 -218 -219c-130 0 -218 83 -218 219zM141 481v-262c0 -102 53 -154 135 -154s134 52 134 154v262c0 102 -52 154 -134 154s-135 -52 -135 -154z" />
<glyph unicode="1" horiz-adv-x="297" d="M211 78h91v-78h-277v78h103v518l-91 -61l-43 63l146 102h71v-622z" />
<glyph unicode="2" horiz-adv-x="545" d="M73 642c54 41 117 72 205 72c142 0 206 -80 206 -195c0 -130 -98 -244 -292 -441h307v-78h-443v56c251 259 342 362 342 460c0 68 -37 120 -122 120c-74 0 -119 -23 -165 -54z" />
<glyph unicode="3" horiz-adv-x="535" d="M260 -14c-88 0 -157 30 -211 70l35 64c47 -30 98 -57 173 -57c92 0 132 53 132 136c0 100 -51 137 -119 137h-73v70h75c71 0 106 50 106 117c-1 64 -34 114 -117 114c-74 0 -118 -21 -165 -51l-34 60c55 39 114 68 202 68c138 0 197 -82 197 -188 c0 -55 -24 -112 -70 -151c49 -22 88 -97 88 -162v-21c0 -120 -71 -206 -219 -206z" />
<glyph unicode="4" horiz-adv-x="553" d="M34 138v55l246 507h91l-231 -485h234v275h83v-275h73v-77h-73v-138h-83v138h-340z" />
<glyph unicode="5" horiz-adv-x="535" d="M71 348l43 352h333v-78l-260 1l-25 -227c31 19 72 32 116 32c127 0 204 -64 204 -203v-36c0 -119 -79 -203 -221 -203c-88 0 -157 30 -211 70l34 64c48 -30 100 -57 175 -57c86 0 134 51 134 128v22c0 103 -48 138 -124 138c-50 0 -105 -20 -140 -44z" />
<glyph unicode="6" horiz-adv-x="559" d="M58 495c0 134 87 219 221 219c88 0 152 -31 206 -72l-38 -60c-46 31 -90 54 -165 54c-88 0 -141 -55 -141 -155v-112c39 30 101 49 159 49c124 0 203 -60 203 -193v-33c0 -136 -92 -206 -222 -206c-129 0 -223 63 -223 199v310zM142 288v-85c0 -102 57 -139 139 -139 s138 43 138 145c0 98 -41 131 -124 131c-59 0 -117 -20 -153 -52z" />
<glyph unicode="7" horiz-adv-x="447" d="M81 0l255 622h-319v78h418v-56l-262 -644h-92z" />
<glyph unicode="8" horiz-adv-x="567" d="M275 405h13c75 0 126 54 126 119c0 63 -39 115 -131 115c-91 0 -130 -52 -130 -115c0 -65 47 -119 122 -119zM54 192v21c0 65 45 133 95 161c-50 36 -79 98 -79 153c0 107 66 187 213 187c148 0 215 -80 215 -187c0 -55 -29 -115 -80 -151c53 -27 95 -98 95 -163v-21 c0 -113 -69 -206 -230 -206c-160 0 -229 93 -229 206zM143 202v-8c0 -70 36 -130 140 -130c105 0 141 60 141 130v8c0 78 -52 135 -127 135h-28c-73 0 -126 -57 -126 -135z" />
<glyph unicode="9" horiz-adv-x="556" d="M416 401v97c0 102 -56 138 -138 138s-136 -38 -136 -141c0 -94 41 -128 124 -128c59 0 108 10 150 34zM107 114c47 -32 92 -50 167 -50c86 0 142 53 142 153v106c-41 -26 -97 -34 -155 -34c-124 0 -203 60 -203 193v29c0 136 91 203 220 203s221 -60 221 -196v-314 c0 -133 -85 -218 -223 -218c-89 0 -153 26 -207 67z" />
<glyph unicode=":" horiz-adv-x="186" d="M151 514c0 -36 -24 -56 -58 -56s-57 20 -57 56c0 34 23 55 57 55s58 -21 58 -55zM151 46c0 -36 -24 -56 -58 -56s-57 20 -57 56c0 34 23 55 57 55s58 -21 58 -55z" />
<glyph unicode=";" horiz-adv-x="186" d="M46 -98l-23 41c19 13 41 31 43 53c-19 9 -30 26 -30 48c0 40 27 57 56 57c31 0 59 -17 59 -58c0 -52 -28 -112 -105 -141zM151 514c0 -36 -24 -56 -58 -56s-57 20 -57 56c0 34 23 55 57 55s58 -21 58 -55z" />
<glyph unicode="&#x3c;" horiz-adv-x="348" d="M128 280l169 -180l-48 -52l-196 198v68l196 199l48 -53z" />
<glyph unicode="=" horiz-adv-x="556" d="M53 137v76h451v-76h-451zM53 367v77h451v-77h-451z" />
<glyph unicode="&#x3e;" horiz-adv-x="348" d="M101 48l-48 52l170 180l-170 180l48 53l196 -199v-68z" />
<glyph unicode="?" horiz-adv-x="465" d="M326 544c0 54 -28 96 -107 96c-68 0 -110 -15 -151 -44l-35 55c47 38 101 63 188 63c130 0 191 -75 191 -168v-16c0 -87 -40 -133 -91 -184c-56 -56 -83 -86 -82 -147v-34h-81v35c0 112 39 135 102 200c41 43 66 78 66 136v8zM257 46c0 -36 -24 -56 -58 -56 s-57 20 -57 56c0 34 23 55 57 55s58 -21 58 -55z" />
<glyph unicode="@" horiz-adv-x="715" d="M282 402l-14 -106c-8 -61 8 -95 61 -95c37 0 81 31 100 60l30 237h-90c-53 0 -79 -34 -87 -96zM55 201l40 297c17 136 162 215 311 215s273 -81 255 -215l-30 -222c-9 -76 -46 -122 -116 -122c-44 0 -70 22 -80 59c-27 -30 -77 -59 -114 -59c-82 0 -118 48 -106 135 l15 121c12 87 61 133 140 133h149l-35 -272c-6 -47 2 -68 36 -68s52 23 59 69l28 219c15 114 -93 169 -208 169s-238 -56 -253 -170l-38 -282c-15 -114 93 -169 208 -169c46 0 94 9 136 24l14 -47c-48 -20 -102 -30 -156 -30c-149 0 -273 80 -255 215z" />
<glyph unicode="A" horiz-adv-x="573" d="M475 0l-64 205c-83 -14 -166 -14 -248 0l-64 -205h-93l240 700h83l239 -700h-93zM286 600l-101 -324c68 -13 136 -13 204 0z" />
<glyph unicode="B" horiz-adv-x="561" d="M519 171c0 -98 -73 -171 -214 -171h-242v700h237c133 0 200 -50 200 -169v-35c0 -41 -24 -98 -73 -125c50 -20 92 -79 92 -144v-56zM147 402h167c58 0 102 34 102 105v9c-2 86 -36 105 -117 105h-152v-219zM147 78h149c89 0 139 44 139 105v35c0 67 -43 109 -111 109 h-177v-249z" />
<glyph unicode="C" horiz-adv-x="512" d="M476 53c-52 -39 -100 -67 -191 -67c-132 0 -228 86 -228 220v288c0 135 96 220 228 220c91 0 139 -28 191 -67l-40 -60c-45 30 -79 50 -151 50c-85 0 -143 -58 -143 -156v-261c0 -100 59 -157 143 -157c72 0 106 20 151 50z" />
<glyph unicode="D" horiz-adv-x="576" d="M147 621v-542h157c84 0 130 53 130 154v234c0 100 -46 154 -130 154h-157zM304 0h-241v700h241c132 0 214 -85 214 -220v-260c0 -135 -82 -220 -214 -220z" />
<glyph unicode="E" horiz-adv-x="491" d="M63 0v700h389v-79h-305v-225h255v-78h-255v-240h312v-78h-396z" />
<glyph unicode="F" horiz-adv-x="478" d="M63 0v700h390v-79h-306v-248h255v-78h-255v-295h-84z" />
<glyph unicode="G" horiz-adv-x="568" d="M58 494c0 134 96 220 230 220c101 0 157 -29 208 -69l-39 -61c-45 31 -87 53 -169 53c-86 0 -146 -56 -146 -157v-261c0 -99 52 -156 134 -156c58 0 116 25 154 79v155h-143v75h226v-382h-63l-16 69c-42 -39 -98 -73 -173 -73c-127 0 -203 86 -203 219v289z" />
<glyph unicode="H" horiz-adv-x="580" d="M63 0v700h84v-298h287v298h84v-700h-84v324h-287v-324h-84z" />
<glyph unicode="I" horiz-adv-x="208" d="M63 0v700h84v-700h-84z" />
<glyph unicode="J" horiz-adv-x="283" d="M141 -150l-49 57c29 28 46 72 46 131v662h84v-673c0 -79 -29 -138 -81 -177z" />
<glyph unicode="K" horiz-adv-x="520" d="M368 89l-137 227l-84 -113v-203h-84v700h84v-363l268 363h101l-234 -315l175 -283c32 -51 63 -47 92 -40l-1 -66c-85 -15 -122 -3 -180 93z" />
<glyph unicode="L" horiz-adv-x="468" d="M63 0v700h84v-622h313v-78h-397z" />
<glyph unicode="M" horiz-adv-x="689" d="M63 0v700h66l216 -436l215 436h68v-700h-84l3 503l-179 -360h-50l-174 353l3 -496h-84z" />
<glyph unicode="N" horiz-adv-x="597" d="M63 0v700h81l310 -536l-2 536h83v-700h-82l-310 535l3 -535h-83z" />
<glyph unicode="O" horiz-adv-x="589" d="M58 206v288c0 136 106 220 238 220c131 0 237 -84 237 -220v-288c0 -136 -106 -220 -237 -220c-132 0 -238 84 -238 220zM142 480v-260c0 -102 69 -156 154 -156c84 0 152 54 152 156v260c0 102 -68 156 -152 156c-85 0 -154 -54 -154 -156z" />
<glyph unicode="P" horiz-adv-x="561" d="M147 621v-312h157c84 0 130 52 130 156s-46 156 -130 156h-157zM307 230h-160v-230h-84v700h244c131 0 211 -85 211 -220v-30c0 -134 -80 -220 -211 -220z" />
<glyph unicode="Q" horiz-adv-x="588" d="M57 206v288c0 136 106 220 238 220c131 0 237 -84 237 -220v-288c0 -97 -53 -167 -131 -199c26 -35 57 -65 94 -94l-45 -51c-51 40 -88 80 -120 126c-11 -1 -23 -2 -35 -2c-132 0 -238 84 -238 220zM141 480v-260c1 -101 69 -153 148 -155c-13 28 -24 57 -34 90l63 24 c11 -37 24 -70 40 -101c53 20 90 68 90 142v260c0 102 -69 156 -153 156c-85 0 -154 -54 -154 -156z" />
<glyph unicode="R" horiz-adv-x="561" d="M381 89l-100 192c-47 0 -90 3 -134 16v-297h-84v700h241c132 0 215 -83 215 -191v-38c0 -86 -57 -159 -150 -181l101 -188c28 -52 63 -48 91 -40v-66c-85 -15 -128 -8 -180 93zM147 621v-248c51 -12 99 -16 155 -16c86 0 132 56 132 127v12c0 74 -46 125 -130 125h-157z " />
<glyph unicode="S" horiz-adv-x="544" d="M88 120c44 -29 108 -56 178 -56c99 0 156 52 156 123c0 83 -56 118 -150 133c-114 18 -202 69 -202 205c0 110 74 189 210 189c88 0 146 -29 201 -69l-39 -63c-47 31 -94 54 -161 54c-88 0 -128 -46 -128 -108c0 -88 52 -113 139 -128c105 -19 213 -61 213 -207 c0 -119 -82 -207 -237 -207c-92 0 -170 32 -216 68z" />
<glyph unicode="T" horiz-adv-x="478" d="M198 0v622h-190v78h464v-78h-190v-622h-84z" />
<glyph unicode="U" horiz-adv-x="575" d="M270 62c70 0 133 45 160 89v549h85l-1 -700h-76l-8 63c-38 -41 -96 -77 -171 -77c-130 0 -199 64 -199 204v510h85v-496c0 -100 38 -142 125 -142z" />
<glyph unicode="V" horiz-adv-x="555" d="M98 700l181 -599l180 599h90l-231 -700h-80l-232 700h92z" />
<glyph unicode="W" horiz-adv-x="793" d="M701 700h86l-205 -700h-77l-105 299l-109 -299h-79l-206 700h88l162 -600l102 295l-109 305h81l67 -206l69 206h81l-108 -296l103 -304z" />
<glyph unicode="X" horiz-adv-x="531" d="M428 700h96l-205 -344l208 -356h-98l-163 294l-165 -294h-96l207 353l-204 347h97l160 -286z" />
<glyph unicode="Y" horiz-adv-x="520" d="M219 0v250l-213 450h93l163 -360l161 360h92l-211 -449l-1 -251h-84z" />
<glyph unicode="Z" horiz-adv-x="520" d="M32 0v54c141 173 272 359 336 568h-326v78h433v-55c-75 -215 -181 -393 -314 -567h329v-78h-458z" />
<glyph unicode="[" horiz-adv-x="265" d="M71 -110v860h163v-72h-89v-716h89v-72h-163z" />
<glyph unicode="\" horiz-adv-x="461" d="M8 750l66 27l381 -887l-65 -26z" />
<glyph unicode="]" horiz-adv-x="265" d="M33 -110v72h88v716h-88v72h163v-860h-163z" />
<glyph unicode="^" horiz-adv-x="366" d="M39 532l107 206h75l106 -206l-64 -25l-80 170l-81 -170z" />
<glyph unicode="_" horiz-adv-x="479" d="M8 -117v63h464v-63h-464z" />
<glyph unicode="`" horiz-adv-x="271" d="M54 707l67 40l83 -141l-47 -30z" />
<glyph unicode="a" horiz-adv-x="516" d="M128 143c0 -65 44 -85 106 -85c57 0 106 28 134 69v87c-45 8 -88 13 -133 13c-71 0 -107 -18 -107 -84zM448 348v-348h-63l-7 52c-36 -35 -90 -62 -151 -62c-110 0 -181 42 -181 151c0 120 77 148 190 148c44 0 88 -5 132 -15v62c0 88 -35 121 -116 121 c-65 0 -121 -23 -154 -42l-28 60c40 25 107 55 189 55c126 0 190 -61 189 -182z" />
<glyph unicode="b" horiz-adv-x="536" d="M71 0v750h80v-286c38 39 88 66 143 66c119 0 178 -71 178 -199v-136c0 -128 -77 -205 -199 -205c-54 0 -100 18 -140 42l-7 -32h-55zM151 376v-278c33 -18 77 -35 120 -35c79 0 121 49 121 144v111c0 91 -30 139 -108 139c-52 0 -105 -43 -133 -81z" />
<glyph unicode="c" horiz-adv-x="501" d="M145 208c0 -96 44 -145 124 -145c65 0 106 20 146 47l34 -57c-42 -33 -97 -63 -181 -63c-126 0 -203 77 -203 206v128c0 129 77 206 203 206c86 0 132 -27 181 -64l-35 -56c-43 29 -77 48 -145 48c-80 0 -124 -50 -124 -146v-104z" />
<glyph unicode="d" horiz-adv-x="536" d="M387 128v300c-44 21 -89 29 -133 29c-78 0 -109 -48 -109 -139v-111c0 -95 33 -144 112 -144c60 0 102 24 130 65zM405 0l-7 49c-36 -34 -87 -59 -148 -59c-121 0 -184 77 -184 206v135c0 127 60 199 178 199c48 0 95 -8 143 -29v249h80v-750h-62z" />
<glyph unicode="e" horiz-adv-x="532" d="M145 300h246v14c0 94 -43 143 -123 143c-79 0 -123 -48 -123 -143v-14zM460 53c-42 -33 -108 -63 -192 -63c-125 0 -203 77 -203 206v128c0 129 78 206 203 206c126 0 203 -77 203 -206v-88h-326v-30c0 -96 45 -144 124 -144c65 0 117 21 157 48z" />
<glyph unicode="f" horiz-adv-x="344" d="M71 0l-1 451h-62v69h62v57c0 121 65 179 181 179c29 0 58 -5 80 -12l-13 -64c-18 4 -42 6 -61 6c-74 0 -107 -36 -107 -109v-57h159v-69h-159l1 -451h-80z" />
<glyph unicode="g" horiz-adv-x="481" d="M290 -160h-88c-115 0 -172 44 -172 140c0 54 33 93 76 127c-28 31 -23 79 15 120c-39 31 -64 70 -64 134c0 109 66 169 181 169c46 0 86 -11 119 -35l59 91l64 -48l-84 -81c12 -20 24 -49 24 -99c0 -100 -65 -165 -181 -165c-23 0 -44 3 -63 8c-21 -18 -30 -66 12 -71 l118 -12c99 -10 160 -39 160 -132c0 -99 -68 -146 -176 -146zM216 -98h66c63 0 104 27 104 83c0 52 -46 63 -110 69l-122 12c-33 -25 -46 -56 -46 -86c0 -55 39 -78 108 -78zM238 461c-63 0 -103 -27 -103 -100c0 -74 40 -103 103 -103s103 28 103 102s-40 101 -103 101z " />
<glyph unicode="h" horiz-adv-x="532" d="M71 0v750h80v-286c38 40 87 66 141 66c119 0 173 -64 173 -189v-341h-80v328c0 89 -27 130 -104 130c-53 0 -102 -38 -130 -76v-382h-80z" />
<glyph unicode="i" d="M71 520h80v-520h-80v520zM167 667c0 -35 -24 -55 -58 -55c-33 0 -57 20 -57 55s24 56 57 56c34 0 58 -21 58 -56z" />
<glyph unicode="j" horiz-adv-x="221" d="M72 520h80v-486c0 -121 -66 -188 -183 -194l-11 65c85 5 115 51 114 141v474zM168 668c0 -36 -23 -56 -57 -56s-56 20 -56 56c0 34 22 55 56 55s57 -21 57 -55z" />
<glyph unicode="k" horiz-adv-x="478" d="M483 -4c-85 -15 -122 -7 -176 93l-83 151l-73 -83v-157h-80v750h80v-482l224 252h100l-195 -218l111 -200c28 -52 64 -48 92 -41v-65z" />
<glyph unicode="l" d="M151 0h-80v750h80v-750z" />
<glyph unicode="m" horiz-adv-x="809" d="M585 530c114 0 154 -63 154 -190v-340h-79v323c0 92 -13 134 -85 134c-62 0 -105 -43 -130 -85v-372h-79v319c0 91 -36 139 -90 139c-52 0 -99 -38 -125 -79v-379h-80v520h68l8 -61c36 40 83 71 139 71c65 0 114 -34 133 -88c46 56 98 88 166 88z" />
<glyph unicode="n" horiz-adv-x="535" d="M71 0v520h68l8 -61c37 39 91 71 147 71c118 0 171 -67 171 -194v-336h-80v323c0 90 -24 135 -102 135c-53 0 -104 -41 -132 -79v-379h-80z" />
<glyph unicode="o" horiz-adv-x="534" d="M145 313v-106c0 -95 44 -144 123 -144s123 49 123 144v106c0 95 -43 144 -123 144c-79 0 -123 -49 -123 -144zM65 195v129c0 129 78 206 203 206c126 0 203 -77 203 -206v-129c0 -128 -78 -205 -203 -205s-203 78 -203 205z" />
<glyph unicode="p" horiz-adv-x="536" d="M139 520l8 -61c37 40 91 71 147 71c119 0 178 -71 178 -199v-136c0 -128 -75 -205 -199 -205c-46 0 -87 8 -122 21v-161h-80v670h68zM392 207v111c0 91 -30 139 -108 139c-53 0 -105 -40 -133 -78v-293c33 -16 77 -23 120 -23c79 0 121 49 121 144z" />
<glyph unicode="q" horiz-adv-x="536" d="M386 144v285c-33 18 -77 28 -121 28c-80 0 -120 -49 -120 -144v-111c0 -91 29 -139 108 -139c52 0 105 43 133 81zM466 520v-670h-80v206c-38 -40 -89 -66 -143 -66c-119 0 -178 71 -178 200v134c0 129 72 206 194 206c55 0 99 -17 136 -34l12 24h59z" />
<glyph unicode="r" horiz-adv-x="314" d="M71 0v520h68l9 -65c39 48 94 75 152 75l6 -75c-64 0 -119 -34 -155 -84v-371h-80z" />
<glyph unicode="s" horiz-adv-x="475" d="M79 109c40 -27 94 -49 159 -49c79 0 117 41 117 84c0 50 -35 71 -112 84c-93 15 -180 32 -180 156c0 83 57 146 180 146c80 0 133 -26 183 -62l-33 -56c-43 27 -87 48 -149 48c-75 0 -101 -33 -101 -76c0 -64 49 -73 120 -84c90 -14 170 -36 171 -154 c1 -84 -69 -156 -194 -156c-84 0 -151 30 -194 62z" />
<glyph unicode="t" horiz-adv-x="330" d="M71 163v288h-57v69h59l20 99h58v-99h161v-69h-161v-278c-1 -85 14 -117 86 -117c20 0 57 3 76 8l13 -64c-23 -6 -68 -14 -94 -14c-118 0 -161 49 -161 177z" />
<glyph unicode="u" horiz-adv-x="526" d="M381 61c-36 -36 -87 -71 -152 -71c-116 0 -161 71 -161 198v332h80v-318c0 -94 21 -142 95 -142c59 0 106 40 135 81v379h80v-520h-68z" />
<glyph unicode="v" horiz-adv-x="465" d="M192 0l-186 520h86l141 -426l141 426h84l-185 -520h-81z" />
<glyph unicode="w" horiz-adv-x="680" d="M418 0l-75 259l-81 -259h-81l-176 520h85l133 -426l85 287l-40 139h85l106 -426l132 426h84l-176 -520h-81z" />
<glyph unicode="x" horiz-adv-x="476" d="M366 520h96l-171 -252l178 -268h-94l-137 212l-137 -212h-94l179 265l-170 255h95l127 -199z" />
<glyph unicode="y" horiz-adv-x="465" d="M127 -151l66 168l-187 503h86l141 -405l141 405h84l-185 -499h-1l-62 -173z" />
<glyph unicode="z" horiz-adv-x="443" d="M35 0v58c121 117 224 230 273 390h-267v72h360v-51c-51 -169 -133 -281 -244 -397l256 -1v-71h-378z" />
<glyph unicode="{" horiz-adv-x="336" d="M150 32v134c0 76 -36 115 -85 115h-29v78h29c49 0 85 39 85 115v135c0 100 46 141 132 141h20v-68h-7c-58 0 -69 -29 -69 -86v-131c0 -70 -24 -121 -73 -145c49 -23 73 -75 73 -145v-131c0 -58 11 -86 69 -86h7v-68h-20c-86 0 -132 41 -132 142z" />
<glyph unicode="|" horiz-adv-x="210" d="M71 -170v940h70v-940h-70z" />
<glyph unicode="}" horiz-adv-x="336" d="M272 281c-49 0 -85 -39 -85 -115v-134c0 -101 -46 -142 -132 -142h-20v68h7c58 0 70 28 70 86v131c0 70 24 122 73 145c-49 23 -73 75 -73 146v130c0 58 -12 86 -70 86h-7v68h20c86 0 132 -40 132 -142v-134c0 -76 36 -115 85 -115h29v-78h-29z" />
<glyph unicode="~" horiz-adv-x="573" d="M121 276l-67 12c11 63 58 116 132 116c77 0 148 -70 206 -70c36 0 56 28 62 60l66 -11c-9 -65 -51 -116 -131 -116c-77 0 -139 70 -207 70c-37 0 -57 -29 -61 -61z" />
<glyph unicode="&#xa1;" horiz-adv-x="230" d="M76 0v172l7 359h65l8 -359v-172h-80zM114 611c-25 0 -43 15 -43 48c0 35 18 51 43 51c28 0 46 -16 46 -51c0 -33 -18 -48 -46 -48z" />
<glyph unicode="&#xa2;" horiz-adv-x="501" d="M417 217l32 -55c-35 -28 -80 -54 -145 -61v-101h-60v100c-111 9 -179 85 -179 205v88c0 120 68 196 179 205v102h60v-103c65 -6 103 -30 145 -62l-35 -54c-34 23 -62 40 -110 45v-353c47 6 81 22 113 44zM141 382v-66c0 -85 37 -135 103 -143v352 c-66 -8 -103 -58 -103 -143z" />
<glyph unicode="&#xa3;" horiz-adv-x="503" d="M316 686c-84 0 -122 -37 -122 -123v-165h142v-76h-142v-92c0 -103 -49 -152 -49 -152h325v-78h-434v67c46 30 78 83 78 147v108h-78v76h78v164c0 135 71 194 195 194c57 0 104 -16 140 -33l-26 -59c-29 12 -65 22 -107 22z" />
<glyph unicode="&#xa4;" horiz-adv-x="573" d="M52 148l67 72c-13 27 -21 62 -21 100v46c0 38 8 71 21 99l-67 72l51 54l66 -69c30 23 69 35 118 35c48 0 88 -12 118 -35l66 69l51 -54l-69 -72c15 -28 23 -61 23 -99v-46c0 -38 -9 -73 -23 -100l69 -72l-51 -53l-66 69c-30 -23 -71 -35 -118 -35c-49 0 -89 12 -120 35 l-64 -69zM169 356v-26c0 -89 44 -135 118 -135s118 46 118 135v26c0 89 -44 134 -118 134s-118 -45 -118 -134z" />
<glyph unicode="&#xa5;" horiz-adv-x="520" d="M36 97v73h185v77h-185v73h171l-200 381l94 7l161 -324l159 316h94l-199 -380h172v-73h-184v-77h184v-73h-184v-97h-83v97h-185z" />
<glyph unicode="&#xa6;" horiz-adv-x="210" d="M71 -170v343h70v-343h-70zM71 427v343h70v-343h-70z" />
<glyph unicode="&#xa7;" horiz-adv-x="503" d="M438 54c0 -85 -65 -153 -186 -153c-82 0 -148 29 -190 61l33 56c39 -26 92 -47 155 -47c77 0 106 38 106 86v9c0 48 -51 68 -120 82c-90 19 -183 54 -183 161v10c0 47 30 98 73 124c-35 25 -60 60 -60 109v13c0 85 58 149 179 149c78 0 131 -26 180 -62l-35 -54 c-42 27 -84 46 -144 46c-73 0 -98 -34 -98 -81v-8c0 -55 57 -75 124 -89c83 -17 179 -49 179 -154v-13c0 -45 -42 -97 -81 -123c40 -22 68 -57 68 -110v-12zM136 321v-6c0 -63 54 -82 166 -107c36 20 67 59 67 90v7c0 85 -120 85 -177 105c-30 -16 -56 -51 -56 -89z" />
<glyph unicode="&#xa8;" horiz-adv-x="404" d="M307 640c0 -36 -24 -56 -58 -56c-21 0 -37 7 -47 21c-10 -14 -28 -21 -48 -21c-34 0 -57 20 -57 56c0 34 23 55 57 55c20 0 38 -8 48 -22c10 14 26 22 47 22c34 0 58 -21 58 -55z" />
<glyph unicode="&#xa9;" horiz-adv-x="681" d="M58 203v291c0 135 133 216 283 216c149 0 282 -81 282 -216v-291c0 -136 -133 -217 -282 -217c-150 0 -283 81 -283 217zM122 487v-277c0 -107 110 -159 219 -159s219 52 219 159v277c0 105 -110 158 -219 158s-219 -53 -219 -158zM484 186c-38 -30 -78 -51 -142 -51 c-102 0 -150 57 -150 160v107c0 104 48 160 150 160c64 0 104 -21 142 -51l-28 -43c-34 22 -61 36 -114 36c-64 0 -87 -37 -87 -112v-86c0 -76 23 -113 87 -113c53 0 80 14 114 36z" />
<glyph unicode="&#xaa;" horiz-adv-x="419" d="M112 392c0 -53 32 -70 76 -70c41 0 84 24 107 57v73c-36 6 -66 10 -103 10c-50 0 -80 -15 -80 -70zM369 563v-288h-58l-8 44c-29 -30 -75 -52 -119 -52c-87 0 -146 35 -146 124c0 94 63 123 151 123c36 0 70 -4 106 -13v51c0 69 -25 94 -90 94c-53 0 -94 -15 -121 -32 l-26 53c32 20 88 45 155 45c104 0 156 -50 156 -149z" />
<glyph unicode="&#xab;" horiz-adv-x="469" d="M151 279l113 -123l-40 -50l-138 147v53l138 147l40 -50zM275 279l113 -123l-40 -50l-139 147v53l139 147l40 -50z" />
<glyph unicode="&#xac;" horiz-adv-x="631" d="M61 363v76h510v-232h-77v156h-433z" />
<glyph horiz-adv-x="377" d="M53 264v77h271v-77h-271z" />
<glyph unicode="&#xad;" horiz-adv-x="376" d="M56 264v77h272v-77h-272z" />
<glyph unicode="&#xae;" horiz-adv-x="681" d="M205 144v410h149c82 0 133 -41 133 -122v-24c0 -57 -30 -96 -76 -113l93 -151h-80l-86 144h-69l-1 -144h-63zM269 346h82c47 0 72 19 72 70v9c0 51 -25 68 -72 68h-82v-147zM58 203v291c0 135 133 216 283 216c149 0 282 -81 282 -216v-291c0 -136 -133 -217 -282 -217 c-150 0 -283 81 -283 217zM122 487v-277c0 -107 110 -159 219 -159s219 52 219 159v277c0 105 -110 158 -219 158s-219 -53 -219 -158z" />
<glyph unicode="&#xaf;" horiz-adv-x="375" d="M53 594v77h271v-77h-271z" />
<glyph unicode="&#xb0;" horiz-adv-x="341" d="M45 571v16c0 77 50 128 124 128c79 0 128 -51 128 -128v-16c0 -82 -49 -128 -128 -128c-74 0 -124 46 -124 128zM168 497c49 0 71 30 71 80c0 54 -22 81 -71 81c-43 0 -63 -27 -63 -81c0 -50 20 -80 63 -80z" />
<glyph unicode="&#xb1;" horiz-adv-x="580" d="M61 323v75h193v162h73v-162h193v-75h-193v-162h-73v162h-193zM61 35v75h459v-75h-459z" />
<glyph unicode="&#xb2;" horiz-adv-x="406" d="M151 301h203v-60h-305v43l187 208c32 35 44 61 44 89c0 38 -22 70 -74 70c-56 0 -86 -17 -121 -39l-28 46c41 30 84 53 152 53c94 0 137 -55 137 -129c0 -55 -35 -101 -69 -139z" />
<glyph unicode="&#xb3;" horiz-adv-x="399" d="M343 370c0 -80 -55 -138 -150 -138c-57 0 -101 16 -143 47l26 51c35 -24 68 -35 115 -35c49 0 78 30 78 76v8c0 46 -21 76 -52 76h-66v57h66c32 0 47 48 47 72c0 36 -19 66 -67 66c-47 0 -77 -7 -112 -30l-25 47c41 31 83 45 139 45c91 0 135 -54 135 -124 c0 -35 -14 -78 -41 -102c29 -16 50 -63 50 -102v-14z" />
<glyph unicode="&#xb4;" horiz-adv-x="271" d="M66 606l81 141l68 -40l-103 -131z" />
<glyph unicode="&#xb6;" horiz-adv-x="560" d="M304 -110v384h-34c-128 0 -201 71 -201 199v28c0 127 72 199 204 199h217v-810h-57v742h-72v-742h-57z" />
<glyph unicode="&#xb7;" horiz-adv-x="186" d="M151 306c0 -36 -24 -56 -58 -56s-57 20 -57 56c0 34 23 55 57 55s58 -21 58 -55z" />
<glyph unicode="&#xb8;" horiz-adv-x="256" d="M53 -154l5 38c9 -3 22 -5 32 -5c24 0 41 9 41 28c0 33 -57 30 -57 30l24 63h60l-12 -36c32 -4 59 -22 59 -61c0 -52 -52 -66 -97 -66c-16 0 -40 3 -55 9z" />
<glyph unicode="&#xb9;" horiz-adv-x="263" d="M55 307h62v312l-69 -46l-33 49l115 82h53v-397h60v-58h-188v58z" />
<glyph unicode="&#xba;" horiz-adv-x="412" d="M113 532v-85c0 -78 32 -112 93 -112s93 34 93 112v85c0 78 -31 111 -93 111c-61 0 -93 -33 -93 -111zM39 436v106c0 106 64 170 167 170s167 -64 167 -170v-106c0 -105 -64 -169 -167 -169s-167 64 -167 169z" />
<glyph unicode="&#xbb;" horiz-adv-x="469" d="M247 106l-41 50l113 123l-113 124l41 50l138 -147v-53zM123 106l-40 50l112 123l-112 124l40 50l138 -147v-53z" />
<glyph unicode="&#xbc;" horiz-adv-x="784" d="M412 88v43l159 330h70l-146 -314h139v167h66v-167h44v-59h-44v-88h-66v88h-222zM141 0l445 700h84l-447 -700h-82zM67 307h62v312l-68 -46l-33 49l115 82h53v-397h60v-58h-189v58z" />
<glyph unicode="&#xbd;" horiz-adv-x="855" d="M67 307h62v312l-68 -46l-33 49l115 82h53v-397h60v-58h-189v58zM575 700h84l-447 -700h-81zM609 60h204v-60h-305v43l187 208c32 35 44 62 44 89c0 39 -22 71 -73 71c-56 0 -87 -18 -121 -39l-28 45c41 30 84 54 151 54c95 0 138 -56 138 -130c0 -55 -35 -101 -69 -139z " />
<glyph unicode="&#xbe;" horiz-adv-x="817" d="M445 88v43l158 330h70l-145 -314h139v167h66v-167h44v-59h-45v-88h-65v88h-222zM172 0l444 700h84l-446 -700h-82zM324 370c0 -80 -55 -138 -149 -138c-58 0 -102 16 -144 47l26 51c35 -24 68 -35 115 -35c50 0 78 30 78 76v8c0 46 -21 76 -51 76h-67v57h66 c32 0 47 48 47 72c0 36 -19 66 -67 66c-46 0 -77 -7 -112 -30l-25 47c41 31 83 45 140 45c90 0 134 -54 134 -124c0 -35 -14 -78 -40 -102c28 -16 49 -63 49 -102v-14z" />
<glyph unicode="&#xbf;" horiz-adv-x="465" />
<glyph unicode="&#xc0;" horiz-adv-x="573" d="M475 0l-64 205c-83 -14 -166 -14 -248 0l-64 -205h-93l240 700h83l239 -700h-93zM286 600l-101 -324c68 -13 136 -13 204 0zM173 855l67 40l83 -141l-47 -30z" />
<glyph unicode="&#xc1;" horiz-adv-x="573" d="M475 0l-64 205c-83 -14 -166 -14 -248 0l-64 -205h-93l240 700h83l239 -700h-93zM286 600l-101 -324c68 -13 136 -13 204 0zM255 756l81 141l68 -40l-103 -131z" />
<glyph unicode="&#xc2;" horiz-adv-x="573" d="M186 757l66 102h69l67 -102l-62 -21l-40 73l-39 -73zM475 0l-64 205c-83 -14 -166 -14 -248 0l-64 -205h-93l240 700h83l239 -700h-93zM286 600l-101 -324c68 -13 136 -13 204 0z" />
<glyph unicode="&#xc3;" horiz-adv-x="573" d="M475 0l-64 205c-83 -14 -166 -14 -248 0l-64 -205h-93l240 700h83l239 -700h-93zM286 600l-101 -324c68 -13 136 -13 204 0zM188 747l-61 14c4 49 37 91 90 91c52 0 106 -44 133 -44c23 0 34 16 36 36l60 -14c-4 -49 -33 -89 -90 -89c-47 0 -96 43 -133 43 c-23 0 -33 -16 -35 -37z" />
<glyph unicode="&#xc4;" horiz-adv-x="573" d="M389 753c-30 0 -47 18 -47 55c0 38 17 58 47 58c31 0 49 -20 49 -58c0 -37 -18 -55 -49 -55zM181 753c-28 0 -46 18 -46 55c0 38 18 58 46 58c32 0 50 -20 50 -58c0 -37 -18 -55 -50 -55zM475 0l-64 205c-83 -14 -166 -14 -248 0l-64 -205h-93l240 700h83l239 -700h-93z M286 600l-101 -324c68 -13 136 -13 204 0z" />
<glyph unicode="&#xc5;" horiz-adv-x="573" d="M475 0l-64 205c-83 -14 -166 -14 -248 0l-64 -205h-93l240 700h83l239 -700h-93zM286 600l-101 -324c68 -13 136 -13 204 0zM212 802v10c0 44 29 73 73 73c45 0 75 -29 75 -73v-10c0 -48 -30 -75 -75 -75c-44 0 -73 27 -73 75zM285 764c24 0 36 16 36 42s-12 41 -36 41 c-23 0 -34 -15 -34 -41s11 -42 34 -42z" />
<glyph unicode="&#xc6;" horiz-adv-x="902" d="M5 0l362 700h493v-79h-302v-269h252v-78h-252v-196h310v-78h-394v252h-242l-126 -252h-101zM270 331h204v291h-60z" />
<glyph unicode="&#xc7;" horiz-adv-x="554" d="M142 480v-260c0 -101 59 -155 143 -155c66 0 114 31 134 79l79 -24c-23 -73 -88 -123 -181 -133l-8 -23c33 -4 60 -22 60 -61c0 -52 -52 -66 -98 -66c-16 0 -40 3 -55 9l5 38c9 -3 22 -5 32 -5c24 0 42 9 42 28c0 33 -58 30 -58 30l19 50c-116 12 -198 95 -198 219v288 c0 134 95 220 227 220c110 0 188 -53 213 -134l-79 -24c-20 48 -68 79 -134 79c-84 0 -143 -54 -143 -155z" />
<glyph unicode="&#xc8;" horiz-adv-x="493" d="M63 0v700h389v-79h-305v-225h255v-78h-255v-240h312v-78h-396zM162 849l67 40l83 -141l-47 -30z" />
<glyph unicode="&#xc9;" horiz-adv-x="493" d="M63 0v700h389v-79h-305v-225h255v-78h-255v-240h312v-78h-396zM229 758l81 141l68 -40l-103 -131z" />
<glyph unicode="&#xca;" horiz-adv-x="493" d="M63 0v700h389v-79h-305v-225h255v-78h-255v-240h312v-78h-396zM163 757l66 102h69l67 -102l-62 -21l-40 73l-39 -73z" />
<glyph unicode="&#xcb;" horiz-adv-x="493" d="M149 753c-29 0 -46 18 -46 55c0 38 17 58 46 58c31 0 50 -20 50 -58c0 -37 -19 -55 -50 -55zM360 753c-29 0 -46 18 -46 55c0 38 17 58 46 58c31 0 50 -20 50 -58c0 -37 -19 -55 -50 -55zM63 0v700h389v-79h-305v-225h255v-78h-255v-240h312v-78h-396z" />
<glyph unicode="&#xcc;" horiz-adv-x="208" d="M63 0v700h84v-700h-84zM-2 851l67 40l83 -141l-47 -30z" />
<glyph unicode="&#xcd;" horiz-adv-x="208" d="M63 0v700h84v-700h-84zM69 745l81 141l68 -40l-103 -131z" />
<glyph unicode="&#xce;" horiz-adv-x="208" d="M63 0v700h84v-700h-84zM5 757l66 102h69l67 -102l-62 -21l-40 73l-39 -73z" />
<glyph unicode="&#xcf;" horiz-adv-x="208" d="M35 753c-30 0 -48 18 -48 55c0 38 18 58 48 58c31 0 49 -20 49 -58c0 -37 -18 -55 -49 -55zM63 0v700h84v-700h-84zM174 753c-30 0 -47 18 -47 55c0 38 17 58 47 58c31 0 49 -20 49 -58c0 -37 -18 -55 -49 -55z" />
<glyph unicode="&#xd0;" horiz-adv-x="576" d="M63 700h241c132 0 214 -85 214 -220v-260c0 -135 -82 -220 -214 -220h-241v318h-54v75h54v307zM434 233v234c0 100 -46 154 -130 154h-157v-228h155v-75h-155v-239h157c84 0 130 53 130 154z" />
<glyph unicode="&#xd1;" horiz-adv-x="597" d="M200 748l-61 14c4 49 37 91 90 91c52 0 106 -44 133 -44c23 0 34 16 36 36l60 -14c-4 -49 -33 -89 -90 -89c-47 0 -96 43 -133 43c-23 0 -33 -16 -35 -37zM63 0v700h81l310 -536l-2 536h83v-700h-82l-310 535l3 -535h-83z" />
<glyph unicode="&#xd2;" horiz-adv-x="589" d="M58 206v288c0 136 106 220 238 220c131 0 237 -84 237 -220v-288c0 -136 -106 -220 -237 -220c-132 0 -238 84 -238 220zM142 480v-260c0 -102 69 -155 154 -155c84 0 152 53 152 155v260c0 102 -68 155 -152 155c-85 0 -154 -53 -154 -155zM187 864l67 40l83 -141 l-47 -30z" />
<glyph unicode="&#xd3;" horiz-adv-x="589" d="M58 206v288c0 136 106 220 238 220c131 0 237 -84 237 -220v-288c0 -136 -106 -220 -237 -220c-132 0 -238 84 -238 220zM142 480v-260c0 -102 69 -155 154 -155c84 0 152 53 152 155v260c0 102 -68 155 -152 155c-85 0 -154 -53 -154 -155zM271 763l81 141l68 -40 l-103 -131z" />
<glyph unicode="&#xd4;" horiz-adv-x="589" d="M58 206v288c0 136 106 220 238 220c131 0 237 -84 237 -220v-288c0 -136 -106 -220 -237 -220c-132 0 -238 84 -238 220zM142 480v-260c0 -102 69 -155 154 -155c84 0 152 53 152 155v260c0 102 -68 155 -152 155c-85 0 -154 -53 -154 -155zM195 757l66 102h69l67 -102 l-62 -21l-40 73l-39 -73z" />
<glyph unicode="&#xd5;" horiz-adv-x="589" d="M58 206v288c0 136 106 220 238 220c131 0 237 -84 237 -220v-288c0 -136 -106 -220 -237 -220c-132 0 -238 84 -238 220zM142 480v-260c0 -102 69 -155 154 -155c84 0 152 53 152 155v260c0 102 -68 155 -152 155c-85 0 -154 -53 -154 -155zM197 748l-61 14 c4 49 37 91 90 91c52 0 106 -44 133 -44c23 0 34 16 36 36l60 -14c-4 -49 -33 -89 -90 -89c-47 0 -96 43 -133 43c-23 0 -33 -16 -35 -37z" />
<glyph unicode="&#xd6;" horiz-adv-x="598" d="M62 206v288c0 136 106 220 238 220c131 0 237 -84 237 -220v-288c0 -136 -106 -220 -237 -220c-132 0 -238 84 -238 220zM146 480v-260c0 -102 69 -155 154 -155c84 0 152 53 152 155v260c0 102 -68 155 -152 155c-85 0 -154 -53 -154 -155zM404 753c-30 0 -47 18 -47 55 c0 38 17 58 47 58c31 0 49 -20 49 -58c0 -37 -18 -55 -49 -55zM192 753c-29 0 -47 18 -47 55c0 38 18 58 47 58c31 0 50 -20 50 -58c0 -37 -19 -55 -50 -55z" />
<glyph unicode="&#xd7;" horiz-adv-x="529" d="M44 94l172 183l-172 183l48 50l173 -182l173 182l48 -50l-173 -183l173 -183l-48 -50l-173 182l-173 -182z" />
<glyph unicode="&#xd8;" horiz-adv-x="589" d="M45 85l-42 67l55 46v296c0 136 106 220 238 220c97 0 181 -47 216 -128l33 27l42 -65l-54 -47v-295c0 -136 -106 -220 -237 -220c-99 0 -182 47 -218 128zM448 220v210l-300 -258c17 -71 77 -107 148 -107c84 0 152 53 152 155zM142 270l300 257c-18 71 -76 108 -146 108 c-85 0 -154 -53 -154 -155v-210z" />
<glyph unicode="&#xd9;" horiz-adv-x="575" d="M270 62c70 0 133 45 160 89v549h85l-1 -700h-76l-8 63c-38 -41 -96 -77 -171 -77c-130 0 -199 64 -199 204v510h85v-496c0 -100 38 -142 125 -142zM171 857l67 40l83 -141l-47 -30z" />
<glyph unicode="&#xda;" horiz-adv-x="575" d="M259 756l81 141l68 -40l-103 -131zM270 62c70 0 133 45 160 89v549h85l-1 -700h-76l-8 63c-38 -41 -96 -77 -171 -77c-130 0 -199 64 -199 204v510h85v-496c0 -100 38 -142 125 -142z" />
<glyph unicode="&#xdb;" horiz-adv-x="575" d="M190 757l66 102h69l67 -102l-62 -21l-40 73l-39 -73zM270 62c70 0 133 45 160 89v549h85l-1 -700h-76l-8 63c-38 -41 -96 -77 -171 -77c-130 0 -199 64 -199 204v510h85v-496c0 -100 38 -142 125 -142z" />
<glyph unicode="&#xdc;" horiz-adv-x="575" d="M270 62c70 0 133 45 160 89v549h85l-1 -700h-76l-8 63c-38 -41 -96 -77 -171 -77c-130 0 -199 64 -199 204v510h85v-496c0 -100 38 -142 125 -142z" />
<glyph unicode="&#xdd;" horiz-adv-x="520" d="M219 0v250l-213 450h93l163 -360l161 360h92l-211 -449l-1 -251h-84zM221 756l81 141l68 -40l-103 -131z" />
<glyph unicode="&#xde;" horiz-adv-x="556" d="M63 0v700h84v-128h146c133 0 214 -73 214 -205v-34c0 -132 -81 -205 -214 -205h-146v-128h-84zM147 203h146c84 0 130 45 130 143v8c0 98 -46 142 -130 142h-146v-293z" />
<glyph unicode="&#xdf;" horiz-adv-x="555" d="M71 0l-1 381h-62v71h62v100c0 128 66 204 184 204c109 0 170 -51 171 -150c0 -109 -125 -132 -125 -200c0 -108 204 -106 204 -267c0 -88 -58 -153 -183 -153c-28 0 -67 6 -92 14l14 70c22 -6 53 -11 76 -11c55 0 100 25 100 77c0 103 -201 111 -201 263 c0 126 121 117 121 210c0 31 -8 75 -86 75c-71 0 -103 -49 -103 -144l1 -540h-80z" />
<glyph unicode="&#xe0;" horiz-adv-x="516" d="M128 143c0 -65 44 -85 106 -85c57 0 106 28 134 69v87c-45 8 -88 13 -133 13c-71 0 -107 -18 -107 -84zM448 348v-348h-63l-7 52c-36 -35 -90 -62 -151 -62c-110 0 -181 42 -181 151c0 120 77 148 190 148c44 0 88 -5 132 -15v62c0 88 -35 121 -116 121 c-65 0 -121 -23 -154 -42l-28 60c40 25 107 55 189 55c126 0 190 -61 189 -182zM152 707l67 40l83 -141l-47 -30z" />
<glyph unicode="&#xe1;" horiz-adv-x="516" d="M128 143c0 -65 44 -85 106 -85c57 0 106 28 134 69v87c-45 8 -88 13 -133 13c-71 0 -107 -18 -107 -84zM448 348v-348h-63l-7 52c-36 -35 -90 -62 -151 -62c-110 0 -181 42 -181 151c0 120 77 148 190 148c44 0 88 -5 132 -15v62c0 88 -35 121 -116 121 c-65 0 -121 -23 -154 -42l-28 60c40 25 107 55 189 55c126 0 190 -61 189 -182zM216 606l81 141l68 -40l-103 -131z" />
<glyph unicode="&#xe2;" horiz-adv-x="516" d="M128 143c0 -65 44 -85 106 -85c57 0 106 28 134 69v87c-45 8 -88 13 -133 13c-71 0 -107 -18 -107 -84zM448 348v-348h-63l-7 52c-36 -35 -90 -62 -151 -62c-110 0 -181 42 -181 151c0 120 77 148 190 148c44 0 88 -5 132 -15v62c0 88 -35 121 -116 121 c-65 0 -121 -23 -154 -42l-28 60c40 25 107 55 189 55c126 0 190 -61 189 -182zM153 607l66 102h69l67 -102l-62 -21l-40 73l-39 -73z" />
<glyph unicode="&#xe3;" horiz-adv-x="516" d="M128 143c0 -65 44 -85 106 -85c57 0 106 28 134 69v87c-45 8 -88 13 -133 13c-71 0 -107 -18 -107 -84zM448 348v-348h-63l-7 52c-36 -35 -90 -62 -151 -62c-110 0 -181 42 -181 151c0 120 77 148 190 148c44 0 88 -5 132 -15v62c0 88 -35 121 -116 121 c-65 0 -121 -23 -154 -42l-28 60c40 25 107 55 189 55c126 0 190 -61 189 -182zM151 598l-61 14c4 49 37 91 90 91c52 0 106 -44 133 -44c23 0 34 16 36 36l60 -14c-4 -49 -33 -89 -90 -89c-47 0 -96 43 -133 43c-23 0 -33 -16 -35 -37z" />
<glyph unicode="&#xe4;" horiz-adv-x="525" d="M356 613c-30 0 -47 18 -47 55c0 38 17 58 47 58c31 0 49 -20 49 -58c0 -37 -18 -55 -49 -55zM154 613c-29 0 -47 18 -47 55c0 38 18 58 47 58c31 0 50 -20 50 -58c0 -37 -19 -55 -50 -55zM128 143c0 -65 44 -85 106 -85c57 0 106 28 134 69v87c-45 8 -88 13 -133 13 c-71 0 -107 -18 -107 -84zM448 348v-348h-63l-7 52c-36 -35 -90 -62 -151 -62c-110 0 -181 42 -181 151c0 120 77 148 190 148c44 0 88 -5 132 -15v62c0 88 -35 121 -116 121c-65 0 -121 -23 -154 -42l-28 60c40 25 107 55 189 55c126 0 190 -61 189 -182z" />
<glyph unicode="&#xe5;" horiz-adv-x="525" d="M191 681v10c0 45 30 75 73 75c46 0 76 -30 76 -75v-10c0 -46 -30 -74 -76 -74c-43 0 -73 28 -73 74zM264 645c25 0 36 15 36 40c0 28 -12 42 -36 42c-22 0 -33 -14 -33 -42c0 -25 11 -40 33 -40zM128 143c0 -65 44 -85 106 -85c57 0 106 28 134 69v87 c-45 8 -88 13 -133 13c-71 0 -107 -18 -107 -84zM448 348v-348h-63l-7 52c-36 -35 -90 -62 -151 -62c-110 0 -181 42 -181 151c0 120 77 148 190 148c44 0 88 -5 132 -15v62c0 88 -35 121 -116 121c-65 0 -121 -23 -154 -42l-28 60c40 25 107 55 189 55 c126 0 190 -61 189 -182z" />
<glyph unicode="&#xe6;" horiz-adv-x="835" d="M98 415l-28 60c40 25 107 55 189 55c75 0 127 -22 157 -66c34 43 88 66 155 66c126 0 204 -77 203 -206v-94h-326v-29c1 -92 46 -139 124 -139c65 0 117 21 157 48l34 -57c-42 -33 -108 -63 -192 -63c-77 0 -137 30 -171 83c-38 -44 -94 -83 -173 -83 c-110 0 -181 42 -181 151c0 120 77 148 190 148c44 0 88 -5 132 -15v62c0 88 -35 121 -116 121c-65 0 -121 -23 -154 -42zM694 314c2 94 -43 143 -123 143c-77 0 -122 -45 -122 -136v-23h245v16zM368 127v87c-45 8 -88 13 -133 13c-71 0 -107 -18 -107 -84 c0 -65 44 -85 106 -85c57 0 106 28 134 69z" />
<glyph unicode="&#xe7;" horiz-adv-x="521" d="M425 110l34 -57c-36 -28 -89 -54 -157 -62l-9 -27c32 -4 60 -22 60 -61c0 -52 -53 -66 -98 -66c-16 0 -40 3 -55 9l5 38c9 -3 22 -5 32 -5c24 0 41 9 41 28c0 33 -57 30 -57 30l21 54c-110 10 -177 85 -177 205v128c0 129 77 206 203 206c86 0 142 -27 191 -64l-35 -56 c-43 29 -87 48 -155 48c-80 0 -124 -50 -124 -146v-104c0 -96 44 -145 124 -145c65 0 116 20 156 47z" />
<glyph unicode="&#xe8;" horiz-adv-x="532" d="M145 300h246v14c0 94 -43 143 -123 143c-79 0 -123 -48 -123 -143v-14zM460 53c-42 -33 -108 -63 -192 -63c-125 0 -203 77 -203 206v128c0 129 78 206 203 206c126 0 203 -77 203 -206v-88h-326v-30c0 -96 45 -144 124 -144c65 0 117 21 157 48zM156 707l67 40l83 -141 l-47 -30z" />
<glyph unicode="&#xe9;" horiz-adv-x="532" d="M242 606l81 141l68 -40l-103 -131zM145 300h246v14c0 94 -43 143 -123 143c-79 0 -123 -48 -123 -143v-14zM460 53c-42 -33 -108 -63 -192 -63c-125 0 -203 77 -203 206v128c0 129 78 206 203 206c126 0 203 -77 203 -206v-88h-326v-30c0 -96 45 -144 124 -144 c65 0 117 21 157 48z" />
<glyph unicode="&#xea;" horiz-adv-x="532" d="M168 607l66 102h69l67 -102l-62 -21l-40 73l-39 -73zM145 300h246v14c0 94 -43 143 -123 143c-79 0 -123 -48 -123 -143v-14zM460 53c-42 -33 -108 -63 -192 -63c-125 0 -203 77 -203 206v128c0 129 78 206 203 206c126 0 203 -77 203 -206v-88h-326v-30 c0 -96 45 -144 124 -144c65 0 117 21 157 48z" />
<glyph unicode="&#xeb;" horiz-adv-x="532" d="M161 613c-29 0 -46 18 -46 55c0 38 17 58 46 58c31 0 50 -20 50 -58c0 -37 -19 -55 -50 -55zM372 613c-29 0 -46 18 -46 55c0 38 17 58 46 58c31 0 50 -20 50 -58c0 -37 -19 -55 -50 -55zM145 300h246v14c0 94 -43 143 -123 143c-79 0 -123 -48 -123 -143v-14zM460 53 c-42 -33 -108 -63 -192 -63c-125 0 -203 77 -203 206v128c0 129 78 206 203 206c126 0 203 -77 203 -206v-88h-326v-30c0 -96 45 -144 124 -144c65 0 117 21 157 48z" />
<glyph unicode="&#xec;" d="M71 520h80v-520h-80v520zM-2 707l67 40l83 -141l-47 -30z" />
<glyph unicode="&#xed;" d="M81 606l81 141l68 -40l-103 -131zM71 520h80v-520h-80v520z" />
<glyph unicode="&#xee;" d="M11 607l66 102h69l67 -102l-62 -21l-40 73l-39 -73zM71 520h80v-520h-80v520z" />
<glyph unicode="&#xef;" d="M30 614c-28 0 -46 18 -46 53c0 38 18 57 46 57c29 0 48 -19 48 -57c0 -35 -19 -53 -48 -53zM169 614c-29 0 -46 18 -46 53c0 38 17 57 46 57c30 0 48 -19 48 -57c0 -35 -18 -53 -48 -53zM71 520h80v-520h-80v520z" />
<glyph unicode="&#xf0;" horiz-adv-x="534" d="M65 192v148c0 127 63 196 181 196c53 0 106 -22 141 -52v28c0 36 -8 66 -21 89l-61 -48l-40 53l49 39c-19 8 -43 15 -69 15c-21 0 -40 -4 -58 -9l-19 70c25 9 52 14 79 14c52 0 98 -12 132 -35l66 53l40 -54l-56 -46c22 -32 37 -76 37 -127v-332 c0 -127 -75 -204 -202 -204c-123 0 -199 75 -199 202zM143 323v-115c0 -98 40 -147 121 -147s123 49 123 147v192c-28 34 -83 65 -134 65c-81 0 -110 -48 -110 -142z" />
<glyph unicode="&#xf1;" horiz-adv-x="535" d="M172 598l-61 14c4 49 37 91 90 91c52 0 106 -44 133 -44c23 0 34 16 36 36l60 -14c-4 -49 -33 -89 -90 -89c-47 0 -96 43 -133 43c-23 0 -33 -16 -35 -37zM71 0v520h68l8 -61c37 39 91 71 147 71c118 0 171 -67 171 -194v-336h-80v323c0 90 -24 135 -102 135 c-53 0 -104 -41 -132 -79v-379h-80z" />
<glyph unicode="&#xf2;" horiz-adv-x="534" d="M161 707l67 40l83 -141l-47 -30zM145 313v-106c0 -95 44 -144 123 -144s123 49 123 144v106c0 95 -43 144 -123 144c-79 0 -123 -49 -123 -144zM65 195v129c0 129 78 206 203 206c126 0 203 -77 203 -206v-129c0 -128 -78 -205 -203 -205s-203 78 -203 205z" />
<glyph unicode="&#xf3;" horiz-adv-x="534" d="M244 606l81 141l68 -40l-103 -131zM145 313v-106c0 -95 44 -144 123 -144s123 49 123 144v106c0 95 -43 144 -123 144c-79 0 -123 -49 -123 -144zM65 195v129c0 129 78 206 203 206c126 0 203 -77 203 -206v-129c0 -128 -78 -205 -203 -205s-203 78 -203 205z" />
<glyph unicode="&#xf4;" horiz-adv-x="534" d="M166 607l66 102h69l67 -102l-62 -21l-40 73l-39 -73zM145 313v-106c0 -95 44 -144 123 -144s123 49 123 144v106c0 95 -43 144 -123 144c-79 0 -123 -49 -123 -144zM65 195v129c0 129 78 206 203 206c126 0 203 -77 203 -206v-129c0 -128 -78 -205 -203 -205 s-203 78 -203 205z" />
<glyph unicode="&#xf5;" horiz-adv-x="534" d="M145 313v-106c0 -95 44 -144 123 -144s123 49 123 144v106c0 95 -43 144 -123 144c-79 0 -123 -49 -123 -144zM65 195v129c0 129 78 206 203 206c126 0 203 -77 203 -206v-129c0 -128 -78 -205 -203 -205s-203 78 -203 205zM170 598l-61 14c4 49 37 91 90 91 c52 0 106 -44 133 -44c23 0 34 16 36 36l60 -14c-4 -49 -33 -89 -90 -89c-47 0 -96 43 -133 43c-23 0 -33 -16 -35 -37z" />
<glyph unicode="&#xf6;" horiz-adv-x="534" d="M161 613c-30 -1 -47 18 -47 55c0 38 18 58 47 58c31 0 49 -20 49 -58c0 -37 -18 -55 -49 -55zM372 613c-29 -1 -47 18 -47 55c0 38 18 58 47 58c31 0 50 -20 50 -58c0 -37 -19 -55 -50 -55zM145 313v-106c0 -95 44 -144 123 -144s123 49 123 144v106 c0 95 -43 144 -123 144c-79 0 -123 -49 -123 -144zM65 195v129c0 129 78 206 203 206c126 0 203 -77 203 -206v-129c0 -128 -78 -205 -203 -205s-203 78 -203 205z" />
<glyph unicode="&#xf7;" horiz-adv-x="549" d="M272 -10c-29 0 -49 17 -49 55c0 40 20 58 49 58c31 0 51 -18 51 -58c0 -38 -20 -55 -51 -55zM272 457c-29 0 -49 17 -49 55c0 40 20 58 49 58c31 0 51 -18 51 -58c0 -38 -20 -55 -51 -55zM45 242v76h460v-76h-460z" />
<glyph unicode="&#xf8;" horiz-adv-x="534" d="M471 324v-128c0 -129 -78 -206 -203 -206c-74 0 -132 28 -165 79l-50 -43l-45 62l62 54c-3 16 -5 34 -5 53v129c0 129 78 206 203 206c75 0 133 -28 166 -79l51 43l43 -62l-62 -53c3 -17 5 -35 5 -55zM145 313v-107l227 193c-18 38 -54 58 -104 58 c-79 0 -123 -49 -123 -144zM391 207v108l-227 -194c19 -38 55 -58 104 -58c79 0 123 49 123 144z" />
<glyph unicode="&#xf9;" horiz-adv-x="526" d="M381 61c-36 -36 -87 -71 -152 -71c-116 0 -161 71 -161 198v332h80v-318c0 -94 21 -142 95 -142c59 0 106 40 135 81v379h80v-520h-68zM164 707l67 40l83 -141l-47 -30z" />
<glyph unicode="&#xfa;" horiz-adv-x="526" d="M224 606l81 141l68 -40l-103 -131zM381 61c-36 -36 -87 -71 -152 -71c-116 0 -161 71 -161 198v332h80v-318c0 -94 21 -142 95 -142c59 0 106 40 135 81v379h80v-520h-68z" />
<glyph unicode="&#xfb;" horiz-adv-x="526" d="M162 607l66 102h69l67 -102l-62 -21l-40 73l-39 -73zM381 61c-36 -36 -87 -71 -152 -71c-116 0 -161 71 -161 198v332h80v-318c0 -94 21 -142 95 -142c59 0 106 40 135 81v379h80v-520h-68z" />
<glyph unicode="&#xfc;" horiz-adv-x="526" d="M158 613c-28 0 -46 18 -47 55c0 38 18 58 47 58c31 0 50 -20 50 -58c0 -37 -19 -55 -50 -55zM369 613c-28 0 -46 18 -46 55c0 38 17 58 46 58c32 0 50 -20 50 -58c0 -37 -18 -55 -50 -55zM381 61c-36 -36 -87 -71 -152 -71c-116 0 -161 71 -161 198v332h80v-318 c0 -94 21 -142 95 -142c59 0 106 40 135 81v379h80v-520h-68z" />
<glyph unicode="&#xfd;" horiz-adv-x="465" d="M127 -151l66 168l-187 503h86l141 -405l141 405h84l-185 -499h-1l-62 -173zM201 606l81 141l68 -40l-103 -131z" />
<glyph unicode="&#xfe;" horiz-adv-x="536" d="M151 417v-332c31 -14 71 -22 124 -22c76 0 117 50 117 139v156c0 91 -30 139 -108 139c-52 0 -105 -42 -133 -80zM71 -150v900h80v-247c37 41 89 67 143 67c119 0 178 -71 178 -199v-182c0 -121 -76 -199 -195 -199c-51 0 -92 6 -126 23v-163h-80z" />
<glyph unicode="&#xff;" horiz-adv-x="465" d="M127 -151l66 168l-187 503h86l141 -405l141 405h84l-185 -499h-1l-62 -173zM338 612c-28 0 -48 19 -47 55c0 39 18 59 47 59c31 0 50 -20 50 -59c0 -36 -19 -55 -50 -55zM126 612c-29 0 -47 19 -47 55c0 39 18 59 47 59c31 0 50 -20 50 -59c0 -36 -19 -55 -50 -55z" />
<glyph unicode="&#x100;" horiz-adv-x="573" d="M475 0l-64 205c-83 -14 -166 -14 -248 0l-64 -205h-93l240 700h83l239 -700h-93zM286 600l-101 -324c68 -13 136 -13 204 0zM152 734v77h271v-77h-271z" />
<glyph unicode="&#x101;" horiz-adv-x="525" d="M125 625v76h272v-76h-272zM128 143c0 -65 44 -85 106 -85c57 0 106 28 134 69v87c-45 8 -88 13 -133 13c-71 0 -107 -18 -107 -84zM448 348v-348h-63l-7 52c-36 -35 -90 -62 -151 -62c-110 0 -181 42 -181 151c0 120 77 148 190 148c44 0 88 -5 132 -15v62 c0 88 -35 121 -116 121c-65 0 -121 -23 -154 -42l-28 60c40 25 107 55 189 55c126 0 190 -61 189 -182z" />
<glyph unicode="&#x102;" horiz-adv-x="573" d="M475 0l-64 205c-83 -14 -166 -14 -248 0l-64 -205h-93l240 700h83l239 -700h-93zM286 600l-101 -324c68 -13 136 -13 204 0zM168 842v6h61c0 -41 20 -66 55 -66c40 0 61 25 61 66h61v-6c0 -77 -48 -120 -122 -120c-69 0 -116 43 -116 120z" />
<glyph unicode="&#x103;" horiz-adv-x="525" d="M148 732v7h61c0 -42 20 -67 56 -67c40 0 60 25 60 67h61v-7c0 -77 -47 -120 -121 -120c-70 0 -117 43 -117 120zM128 143c0 -65 44 -85 106 -85c57 0 106 28 134 69v87c-45 8 -88 13 -133 13c-71 0 -107 -18 -107 -84zM448 348v-348h-63l-7 52c-36 -35 -90 -62 -151 -62 c-110 0 -181 42 -181 151c0 120 77 148 190 148c44 0 88 -5 132 -15v62c0 88 -35 121 -116 121c-65 0 -121 -23 -154 -42l-28 60c40 25 107 55 189 55c126 0 190 -61 189 -182z" />
<glyph unicode="&#x104;" horiz-adv-x="573" d="M571 -112l8 -43c-21 -4 -49 -7 -67 -7c-50 0 -87 19 -87 72c0 36 30 69 66 90h-16l-65 205c-82 -14 -165 -14 -247 0l-64 -205h-93l240 700h82l240 -700c-42 -22 -68 -50 -68 -81c0 -21 12 -34 36 -34c11 0 24 0 35 3zM185 276c68 -13 136 -13 204 0l-103 324z" />
<glyph unicode="&#x105;" horiz-adv-x="516" d="M451 -112l8 -43c-21 -4 -47 -7 -66 -7c-50 0 -87 19 -87 72c0 37 31 75 77 100l-5 42c-36 -35 -90 -62 -151 -62c-110 0 -181 42 -181 151c0 120 77 148 190 148c44 0 88 -5 132 -15v62c0 88 -35 121 -116 121c-65 0 -121 -23 -154 -42l-28 60c40 25 107 55 189 55 c126 0 190 -61 189 -182v-348c-42 -22 -68 -50 -68 -81c0 -21 12 -34 36 -34c11 0 24 0 35 3zM368 127v87c-45 8 -88 13 -133 13c-71 0 -107 -18 -107 -84c0 -65 44 -85 106 -85c57 0 106 28 134 69z" />
<glyph unicode="&#x106;" horiz-adv-x="512" d="M255 755l81 141l68 -40l-103 -131zM476 53c-52 -39 -100 -67 -191 -67c-132 0 -228 86 -228 220v288c0 135 96 220 228 220c91 0 139 -28 191 -67l-40 -60c-45 30 -79 50 -151 50c-85 0 -143 -58 -143 -156v-261c0 -100 59 -157 143 -157c72 0 106 20 151 50z" />
<glyph unicode="&#x107;" horiz-adv-x="501" d="M236 606l81 141l68 -40l-103 -131zM145 208c0 -96 44 -145 124 -145c65 0 106 20 146 47l34 -57c-42 -33 -97 -63 -181 -63c-126 0 -203 77 -203 206v128c0 129 77 206 203 206c86 0 132 -27 181 -64l-35 -56c-43 29 -77 48 -145 48c-80 0 -124 -50 -124 -146v-104z" />
<glyph unicode="&#x108;" horiz-adv-x="512" d="M191 757l66 102h69l67 -102l-62 -21l-40 73l-39 -73zM476 53c-52 -39 -100 -67 -191 -67c-132 0 -228 86 -228 220v288c0 135 96 220 228 220c91 0 139 -28 191 -67l-40 -60c-45 30 -79 50 -151 50c-85 0 -143 -58 -143 -156v-261c0 -100 59 -157 143 -157 c72 0 106 20 151 50z" />
<glyph unicode="&#x109;" horiz-adv-x="501" d="M167 607l66 102h69l67 -102l-62 -21l-40 73l-39 -73zM145 208c0 -96 44 -145 124 -145c65 0 106 20 146 47l34 -57c-42 -33 -97 -63 -181 -63c-126 0 -203 77 -203 206v128c0 129 77 206 203 206c86 0 132 -27 181 -64l-35 -56c-43 29 -77 48 -145 48 c-80 0 -124 -50 -124 -146v-104z" />
<glyph unicode="&#x10a;" horiz-adv-x="554" d="M288 753c-29 0 -49 18 -49 55c0 40 20 59 49 59c31 0 51 -19 51 -59c0 -37 -20 -55 -51 -55zM476 53c-52 -39 -100 -67 -191 -67c-132 0 -228 86 -228 220v288c0 135 96 220 228 220c91 0 139 -28 191 -67l-40 -60c-45 30 -79 50 -151 50c-85 0 -143 -58 -143 -156v-261 c0 -100 59 -157 143 -157c72 0 106 20 151 50z" />
<glyph unicode="&#x10b;" horiz-adv-x="530" d="M270 613c-29 0 -49 18 -49 55c0 40 20 59 49 59c31 0 51 -19 51 -59c0 -37 -20 -55 -51 -55zM145 208c0 -96 44 -145 124 -145c65 0 106 20 146 47l34 -57c-42 -33 -97 -63 -181 -63c-126 0 -203 77 -203 206v128c0 129 77 206 203 206c86 0 132 -27 181 -64l-35 -56 c-43 29 -77 48 -145 48c-80 0 -124 -50 -124 -146v-104z" />
<glyph unicode="&#x10c;" horiz-adv-x="512" d="M252 736l-73 113l62 20l45 -83l46 83l63 -17l-74 -116h-69zM476 53c-52 -39 -100 -67 -191 -67c-132 0 -228 86 -228 220v288c0 135 96 220 228 220c91 0 139 -28 191 -67l-40 -60c-45 30 -79 50 -151 50c-85 0 -143 -58 -143 -156v-261c0 -100 59 -157 143 -157 c72 0 106 20 151 50z" />
<glyph unicode="&#x10d;" horiz-adv-x="501" d="M237 586l-73 113l62 20l45 -83l46 83l63 -17l-74 -116h-69zM145 208c0 -96 44 -145 124 -145c65 0 106 20 146 47l34 -57c-42 -33 -97 -63 -181 -63c-126 0 -203 77 -203 206v128c0 129 77 206 203 206c86 0 132 -27 181 -64l-35 -56c-43 29 -77 48 -145 48 c-80 0 -124 -50 -124 -146v-104z" />
<glyph unicode="&#x10e;" horiz-adv-x="576" d="M249 736l-73 113l62 20l45 -83l46 83l63 -17l-74 -116h-69zM147 621v-542h157c84 0 130 53 130 154v234c0 100 -46 154 -130 154h-157zM304 0h-241v700h241c132 0 214 -85 214 -220v-260c0 -135 -82 -220 -214 -220z" />
<glyph unicode="&#x10f;" horiz-adv-x="536" d="M387 128v300c-44 21 -89 29 -133 29c-78 0 -109 -48 -109 -139v-111c0 -95 33 -144 112 -144c60 0 102 24 130 65zM405 0l-7 49c-36 -34 -87 -59 -148 -59c-121 0 -184 77 -184 206v135c0 127 60 199 178 199c48 0 95 -8 143 -29v249h80v-750h-62z" />
<glyph unicode="&#x110;" horiz-adv-x="576" d="M63 700h241c132 0 214 -85 214 -220v-260c0 -135 -82 -220 -214 -220h-241v318h-54v75h54v307zM434 233v234c0 100 -46 154 -130 154h-157v-228h155v-75h-155v-239h157c84 0 130 53 130 154z" />
<glyph unicode="&#x111;" horiz-adv-x="536" d="M521 671v-68h-54v-603h-62l-7 49c-36 -34 -87 -59 -148 -59c-121 0 -184 77 -184 206v135c0 127 60 199 178 199c48 0 95 -8 143 -29v102h-82v68h82v79h80v-79h54zM387 128v300c-44 21 -89 29 -133 29c-78 0 -109 -48 -109 -139v-111c0 -95 33 -144 112 -144 c60 0 102 24 130 65z" />
<glyph unicode="&#x112;" horiz-adv-x="491" d="M121 765v76h272v-76h-272zM63 0v700h389v-79h-305v-225h255v-78h-255v-240h312v-78h-396z" />
<glyph unicode="&#x113;" horiz-adv-x="532" d="M130 625v76h272v-76h-272zM145 300h246v14c0 94 -43 143 -123 143c-79 0 -123 -48 -123 -143v-14zM460 53c-42 -33 -108 -63 -192 -63c-125 0 -203 77 -203 206v128c0 129 78 206 203 206c126 0 203 -77 203 -206v-88h-326v-30c0 -96 45 -144 124 -144 c65 0 117 21 157 48z" />
<glyph unicode="&#x114;" horiz-adv-x="491" d="M142 872v7h63c0 -42 20 -67 55 -67c39 0 60 25 60 67h61v-7c0 -77 -47 -120 -121 -120c-70 0 -118 43 -118 120zM63 0v700h389v-79h-305v-225h255v-78h-255v-240h312v-78h-396z" />
<glyph unicode="&#x115;" horiz-adv-x="532" d="M153 732v7h62c0 -42 20 -67 56 -67c39 0 60 25 60 67h61v-7c0 -77 -48 -120 -121 -120c-70 0 -118 43 -118 120zM145 300h246v14c0 94 -43 143 -123 143c-79 0 -123 -48 -123 -143v-14zM460 53c-42 -33 -108 -63 -192 -63c-125 0 -203 77 -203 206v128 c0 129 78 206 203 206c126 0 203 -77 203 -206v-88h-326v-30c0 -96 45 -144 124 -144c65 0 117 21 157 48z" />
<glyph unicode="&#x116;" horiz-adv-x="491" d="M264 753c-30 0 -49 18 -49 55c0 40 19 59 49 59c31 0 51 -19 51 -59c0 -37 -20 -55 -51 -55zM63 0v700h389v-79h-305v-225h255v-78h-255v-240h312v-78h-396z" />
<glyph unicode="&#x117;" horiz-adv-x="532" d="M271 613c-29 0 -49 18 -49 55c0 40 20 59 49 59c31 0 51 -19 51 -59c0 -37 -20 -55 -51 -55zM145 300h246v14c0 94 -43 143 -123 143c-79 0 -123 -48 -123 -143v-14zM460 53c-42 -33 -108 -63 -192 -63c-125 0 -203 77 -203 206v128c0 129 78 206 203 206 c126 0 203 -77 203 -206v-88h-326v-30c0 -96 45 -144 124 -144c65 0 117 21 157 48z" />
<glyph unicode="&#x118;" horiz-adv-x="491" d="M63 0v700h389v-79h-305v-224h255v-78h-255v-241h312v-78c-42 -22 -66 -48 -66 -80c0 -21 16 -34 44 -34c8 0 20 0 27 1l8 -42c-14 -3 -38 -6 -56 -6c-50 0 -95 19 -95 71c0 39 28 74 66 90h-324z" />
<glyph unicode="&#x119;" horiz-adv-x="532" d="M471 230h-326v-24c-1 -96 45 -144 124 -144c65 0 117 21 157 48l34 -57c-36 -28 -89 -54 -156 -62l-9 -27c31 -4 59 -22 59 -61c0 -52 -53 -66 -98 -66c-16 0 -40 3 -55 9l5 38c10 -3 22 -5 33 -5c23 0 41 9 41 28c0 33 -58 30 -58 30l21 54c-110 10 -178 85 -178 205 v128c0 129 78 206 203 206c126 0 204 -77 203 -206v-94zM145 298h246v16c2 94 -43 143 -123 143c-79 0 -121 -48 -123 -143v-16z" />
<glyph unicode="&#x11a;" horiz-adv-x="491" d="M63 0v700h389v-79h-305v-225h255v-78h-255v-240h312v-78h-396zM221 736l-73 113l62 20l45 -83l46 83l63 -17l-74 -116h-69z" />
<glyph unicode="&#x11b;" horiz-adv-x="532" d="M234 586l-73 113l62 20l45 -83l46 83l63 -17l-74 -116h-69zM145 300h246v14c0 94 -43 143 -123 143c-79 0 -123 -48 -123 -143v-14zM460 53c-42 -33 -108 -63 -192 -63c-125 0 -203 77 -203 206v128c0 129 78 206 203 206c126 0 203 -77 203 -206v-88h-326v-30 c0 -96 45 -144 124 -144c65 0 117 21 157 48z" />
<glyph unicode="&#x11c;" horiz-adv-x="568" d="M191 757l66 102h69l67 -102l-62 -21l-40 73l-39 -73zM58 494c0 134 96 220 230 220c101 0 157 -29 208 -69l-39 -61c-45 31 -87 53 -169 53c-86 0 -146 -56 -146 -157v-261c0 -99 52 -156 134 -156c58 0 116 25 154 79v155h-143v75h226v-382h-63l-16 69 c-42 -39 -98 -73 -173 -73c-127 0 -203 86 -203 219v289z" />
<glyph unicode="&#x11d;" horiz-adv-x="481" d="M142 607l66 102h69l67 -102l-62 -21l-40 73l-39 -73zM290 -160h-88c-115 0 -172 44 -172 140c0 54 33 93 76 127c-28 31 -23 79 15 120c-39 31 -64 70 -64 134c0 109 66 169 181 169c46 0 86 -11 119 -35l59 91l64 -48l-84 -81c12 -20 24 -49 24 -99 c0 -100 -65 -165 -181 -165c-23 0 -44 3 -63 8c-21 -18 -30 -66 12 -71l118 -12c99 -10 160 -39 160 -132c0 -99 -68 -146 -176 -146zM216 -98h66c63 0 104 27 104 83c0 52 -46 63 -110 69l-122 12c-33 -25 -46 -56 -46 -86c0 -55 39 -78 108 -78zM238 461 c-63 0 -103 -27 -103 -100c0 -74 40 -103 103 -103s103 28 103 102s-40 101 -103 101z" />
<glyph unicode="&#x11e;" horiz-adv-x="568" d="M58 494c0 134 96 220 230 220c101 0 157 -29 208 -69l-39 -61c-45 31 -87 53 -169 53c-86 0 -146 -56 -146 -157v-261c0 -99 52 -156 134 -156c58 0 116 25 154 79v155h-143v75h226v-382h-63l-16 69c-42 -39 -98 -73 -173 -73c-127 0 -203 86 -203 219v289zM172 852v6h61 c0 -41 20 -66 55 -66c40 0 61 25 61 66h61v-6c0 -77 -48 -120 -122 -120c-69 0 -116 43 -116 120z" />
<glyph unicode="&#x11f;" horiz-adv-x="536" d="M131 732v6h62c0 -41 20 -67 56 -67c39 0 61 26 61 67h61v-6c0 -77 -48 -120 -122 -120c-70 0 -118 43 -118 120zM290 -160h-88c-115 0 -172 44 -172 140c0 54 33 93 76 127c-28 31 -23 79 15 120c-39 31 -64 70 -64 134c0 109 66 169 181 169c46 0 86 -11 119 -35l59 91 l64 -48l-84 -81c12 -20 24 -49 24 -99c0 -100 -65 -165 -181 -165c-23 0 -44 3 -63 8c-21 -18 -30 -66 12 -71l118 -12c99 -10 160 -39 160 -132c0 -99 -68 -146 -176 -146zM216 -98h66c63 0 104 27 104 83c0 52 -46 63 -110 69l-122 12c-33 -25 -46 -56 -46 -86 c0 -55 39 -78 108 -78zM238 461c-63 0 -103 -27 -103 -100c0 -74 40 -103 103 -103s103 28 103 102s-40 101 -103 101z" />
<glyph unicode="&#x120;" horiz-adv-x="568" d="M58 494c0 134 96 220 230 220c101 0 157 -29 208 -69l-39 -61c-45 31 -87 53 -169 53c-86 0 -146 -56 -146 -157v-261c0 -99 52 -156 134 -156c58 0 116 25 154 79v155h-143v75h226v-382h-63l-16 69c-42 -39 -98 -73 -173 -73c-127 0 -203 86 -203 219v289z" />
<glyph unicode="&#x121;" horiz-adv-x="495" d="M248 635c-35 0 -57 20 -57 55s22 56 57 56c33 0 56 -21 56 -56s-23 -55 -56 -55zM290 -160h-88c-115 0 -172 44 -172 140c0 54 33 93 76 127c-28 31 -23 79 15 120c-39 31 -64 70 -64 134c0 109 66 169 181 169c46 0 86 -11 119 -35l59 91l64 -48l-84 -81 c12 -20 24 -49 24 -99c0 -100 -65 -165 -181 -165c-23 0 -44 3 -63 8c-21 -18 -30 -66 12 -71l118 -12c99 -10 160 -39 160 -132c0 -99 -68 -146 -176 -146zM216 -98h66c63 0 104 27 104 83c0 52 -46 63 -110 69l-122 12c-33 -25 -46 -56 -46 -86c0 -55 39 -78 108 -78z M238 461c-63 0 -103 -27 -103 -100c0 -74 40 -103 103 -103s103 28 103 102s-40 101 -103 101z" />
<glyph unicode="&#x122;" horiz-adv-x="568" d="M58 494c0 134 96 220 230 220c101 0 157 -29 208 -69l-39 -61c-45 31 -87 53 -169 53c-86 0 -146 -56 -146 -157v-261c0 -99 52 -156 134 -156c58 0 116 25 154 79v155h-143v75h226v-382h-63l-16 69c-42 -39 -98 -73 -173 -73c-127 0 -203 86 -203 219v289z" />
<glyph unicode="&#x123;" horiz-adv-x="481" d="M290 -160h-88c-115 0 -172 44 -172 140c0 54 33 93 76 127c-28 31 -23 79 15 120c-39 31 -64 70 -64 134c0 109 66 169 181 169c46 0 86 -11 119 -35l59 91l64 -48l-84 -81c12 -20 24 -49 24 -99c0 -100 -65 -165 -181 -165c-23 0 -44 3 -63 8c-21 -18 -30 -66 12 -71 l118 -12c99 -10 160 -39 160 -132c0 -99 -68 -146 -176 -146zM216 -98h66c63 0 104 27 104 83c0 52 -46 63 -110 69l-122 12c-33 -25 -46 -56 -46 -86c0 -55 39 -78 108 -78zM238 461c-63 0 -103 -27 -103 -100c0 -74 40 -103 103 -103s103 28 103 102s-40 101 -103 101z " />
<glyph unicode="&#x124;" horiz-adv-x="580" d="M63 0v700h84v-306h287v306h84v-700h-84v316h-287v-316h-84zM190 757l66 102h69l67 -102l-62 -21l-40 73l-39 -73z" />
<glyph unicode="&#x125;" horiz-adv-x="532" d="M212 636l64 102h68l65 -102l-60 -21l-39 73l-39 -73zM71 0v750h80v-286c38 40 87 66 141 66c119 0 173 -64 173 -189v-341h-80v328c0 89 -27 130 -104 130c-53 0 -102 -38 -130 -76v-382h-80z" />
<glyph unicode="&#x126;" horiz-adv-x="580" d="M63 0v525h-42v75h42v100h84v-100h287v100h84v-100h43v-75h-43v-525h-84v308h-287v-308h-84zM147 387h287v138h-287v-138z" />
<glyph unicode="&#x127;" horiz-adv-x="532" d="M71 0v598h-54v69h54v83h80v-83h80v-69h-80v-134c38 40 86 66 140 66c119 0 174 -64 174 -189v-341h-80v328c0 89 -26 129 -104 129c-53 0 -102 -37 -130 -75v-382h-80z" />
<glyph unicode="&#x128;" horiz-adv-x="208" d="M36 768l-51 11c0 47 18 90 70 90c46 0 70 -40 94 -40c17 0 24 15 27 33l49 -12c-1 -47 -17 -89 -67 -89c-49 0 -73 40 -97 40c-18 0 -23 -15 -25 -33zM63 0v700h84v-700h-84z" />
<glyph unicode="&#x129;" d="M22 628l-51 11c0 47 18 90 70 90c46 0 70 -40 94 -40c17 0 24 15 26 33l50 -12c-1 -47 -17 -89 -67 -89c-49 0 -72 41 -96 41c-19 0 -25 -16 -26 -34zM71 520h80v-520h-80v520z" />
<glyph unicode="&#x12a;" horiz-adv-x="208" d="M5 765v76h199v-76h-199zM63 0v700h84v-700h-84z" />
<glyph unicode="&#x12b;" d="M8 625v76h206v-76h-206zM71 520h80v-520h-80v520z" />
<glyph unicode="&#x12c;" horiz-adv-x="208" d="M-6 872v7h62c0 -42 13 -67 47 -67c38 0 52 25 52 67h61v-7c0 -77 -41 -120 -113 -120c-69 0 -109 43 -109 120zM63 0v700h84v-700h-84z" />
<glyph unicode="&#x12e;" horiz-adv-x="208" d="M123 -114c10 0 19 1 28 3l8 -43c-14 -3 -38 -7 -56 -7c-50 0 -97 19 -97 71c0 39 34 74 72 90h-15v700h84v-700c-45 -22 -68 -48 -68 -80c0 -21 15 -34 44 -34z" />
<glyph unicode="&#x12f;" d="M151 520v-524c-43 -21 -65 -44 -65 -76c0 -21 15 -34 44 -34c8 0 19 1 27 2l8 -42c-14 -3 -39 -7 -56 -7c-50 0 -96 19 -96 71c0 38 33 75 70 96h-12v514h80zM167 667c0 -35 -24 -55 -58 -55c-33 0 -57 20 -57 55s24 56 57 56c34 0 58 -21 58 -56z" />
<glyph unicode="&#x130;" horiz-adv-x="208" d="M63 0v700h84v-700h-84z" />
<glyph unicode="&#x131;" d="M71 520h80v-520h-80v520z" />
<glyph unicode="&#x132;" horiz-adv-x="498" d="M63 0v700h84v-700h-84zM355 -150l-49 57c29 28 46 72 46 131v662h84v-673c0 -79 -29 -138 -81 -177z" />
<glyph unicode="&#x133;" horiz-adv-x="432" d="M54 668c0 34 22 54 56 54s57 -20 57 -54c0 -36 -23 -55 -57 -55s-56 19 -56 55zM380 670c0 -35 -23 -54 -56 -54c-34 0 -57 19 -57 54s23 54 57 54c33 0 56 -19 56 -54zM283 520h80v-486c0 -121 -66 -188 -183 -194l-11 65c85 5 115 51 114 141v474zM72 520h80v-520h-80 v520z" />
<glyph unicode="&#x134;" horiz-adv-x="283" d="M76 747l66 102h69l67 -102l-62 -21l-40 73l-39 -73zM141 -150l-49 57c29 28 46 72 46 131v662h84v-673c0 -79 -29 -138 -81 -177z" />
<glyph unicode="&#x135;" horiz-adv-x="221" d="M11 607l66 102h69l67 -102l-62 -21l-40 73l-39 -73zM72 520h80v-486c0 -121 -66 -188 -183 -194l-11 65c85 5 115 51 114 141v474z" />
<glyph unicode="&#x136;" horiz-adv-x="520" d="M368 89l-137 227l-84 -113v-203h-84v700h84v-363l268 363h101l-234 -315l175 -283c32 -51 63 -47 92 -40l-1 -66c-85 -15 -122 -3 -180 93z" />
<glyph unicode="&#x137;" horiz-adv-x="478" d="M483 -4c-85 -15 -122 -7 -176 93l-83 151l-73 -83v-157h-80v750h80v-482l224 252h100l-195 -218l111 -200c28 -52 64 -48 92 -41v-65zM216 -235l-22 41c19 13 34 26 38 47c-19 10 -30 24 -30 46c0 40 27 54 56 54c31 0 58 -14 58 -55c0 -50 -25 -102 -100 -133z" />
<glyph unicode="&#x138;" horiz-adv-x="478" d="M483 -4c-85 -15 -124 -8 -176 93l-79 155l-77 -87v-157h-80v520h80v-251l222 251h102l-191 -214l107 -204c27 -53 64 -48 92 -41v-65z" />
<glyph unicode="&#x139;" horiz-adv-x="468" d="M63 0v700h84v-622h313v-78h-397zM78 750l81 141l68 -40l-103 -131z" />
<glyph unicode="&#x13a;" d="M87 799l81 141l68 -40l-103 -131zM151 0h-80v750h80v-750z" />
<glyph unicode="&#x13b;" horiz-adv-x="468" d="M63 0v700h84v-622h313v-78h-397z" />
<glyph unicode="&#x13c;" d="M151 0h-80v750h80v-750zM78 -235l-22 41c19 13 34 26 38 47c-19 10 -30 24 -30 46c0 40 27 54 56 54c31 0 58 -14 58 -55c0 -50 -25 -102 -100 -133z" />
<glyph unicode="&#x13d;" horiz-adv-x="468" d="M63 0v700h84v-622h313v-78h-397z" />
<glyph unicode="&#x13e;" d="M151 0h-80v750h80v-750zM207 588l-22 41c19 13 34 26 38 47c-19 10 -30 24 -30 46c0 40 27 54 56 54c31 0 58 -14 58 -55c0 -50 -25 -102 -100 -133z" />
<glyph unicode="&#x13f;" horiz-adv-x="468" d="M63 0v700h84v-622h313v-78h-397z" />
<glyph unicode="&#x140;" horiz-adv-x="358" d="M275 255c-29 0 -49 17 -49 55c0 40 20 56 49 56c31 0 51 -16 51 -56c0 -38 -20 -55 -51 -55zM151 0h-80v750h80v-750z" />
<glyph unicode="&#x141;" horiz-adv-x="468" d="M63 0v293l-30 -14l-26 73l56 25v323h84v-285l111 51l29 -72l-140 -64v-252h313v-78h-397z" />
<glyph unicode="&#x142;" d="M151 0h-80v299l-43 -18l-24 72l67 29v368h80v-334l41 18l26 -71l-67 -29v-334z" />
<glyph unicode="&#x143;" horiz-adv-x="597" d="M263 755l81 141l68 -40l-103 -131zM63 0v700h81l310 -536l-2 536h83v-700h-82l-310 535l3 -535h-83z" />
<glyph unicode="&#x144;" horiz-adv-x="535" d="M241 606l81 141l68 -40l-103 -131zM71 0v520h68l8 -61c37 39 91 71 147 71c118 0 171 -67 171 -194v-336h-80v323c0 90 -24 135 -102 135c-53 0 -104 -41 -132 -79v-379h-80z" />
<glyph unicode="&#x145;" horiz-adv-x="597" d="M63 0v700h81l310 -536l-2 536h83v-700h-82l-310 535l3 -535h-83z" />
<glyph unicode="&#x146;" horiz-adv-x="535" d="M223 -235l-22 41c19 13 34 26 38 47c-19 10 -30 24 -30 46c0 40 27 54 56 54c31 0 58 -14 58 -55c0 -50 -25 -102 -100 -133zM71 0v520h68l8 -61c37 39 91 71 147 71c118 0 171 -67 171 -194v-336h-80v323c0 90 -24 135 -102 135c-53 0 -104 -41 -132 -79v-379h-80z" />
<glyph unicode="&#x147;" horiz-adv-x="597" d="M264 736l-73 113l62 20l45 -83l46 83l63 -17l-74 -116h-69zM63 0v700h81l310 -536l-2 536h83v-700h-82l-310 535l3 -535h-83z" />
<glyph unicode="&#x148;" horiz-adv-x="535" d="M242 586l-73 113l62 20l45 -83l46 83l63 -17l-74 -116h-69zM71 0v520h68l8 -61c37 39 91 71 147 71c118 0 171 -67 171 -194v-336h-80v323c0 90 -24 135 -102 135c-53 0 -104 -41 -132 -79v-379h-80z" />
<glyph unicode="&#x149;" horiz-adv-x="535" d="M71 0v520h68l8 -61c37 39 91 71 147 71c118 0 171 -67 171 -194v-336h-80v323c0 90 -24 135 -102 135c-53 0 -104 -41 -132 -79v-379h-80z" />
<glyph unicode="&#x14a;" horiz-adv-x="597" d="M63 0v700h81l310 -536l-2 536h83v-700c1 -118 -61 -174 -162 -180l-13 66c60 7 94 32 94 105v6l-311 538l3 -535h-83z" />
<glyph unicode="&#x14b;" horiz-adv-x="756" d="M139 520l8 -61c37 39 91 71 147 71c118 0 171 -67 171 -194v-302c0 -121 -65 -188 -182 -194l-12 65c81 5 112 46 114 128v290c0 90 -24 135 -102 135c-53 0 -104 -41 -132 -79v-379h-80v520h68z" />
<glyph unicode="&#x14c;" horiz-adv-x="589" d="M58 206v288c0 136 106 220 238 220c131 0 237 -84 237 -220v-288c0 -136 -106 -220 -237 -220c-132 0 -238 84 -238 220zM142 480v-260c0 -102 69 -155 154 -155c84 0 152 53 152 155v260c0 102 -68 155 -152 155c-85 0 -154 -53 -154 -155zM159 765v76h272v-76h-272z " />
<glyph unicode="&#x14d;" horiz-adv-x="534" d="M132 625v76h271v-76h-271zM145 313v-106c0 -95 44 -144 123 -144s123 49 123 144v106c0 95 -43 144 -123 144c-79 0 -123 -49 -123 -144zM65 195v129c0 129 78 206 203 206c126 0 203 -77 203 -206v-129c0 -128 -78 -205 -203 -205s-203 78 -203 205z" />
<glyph unicode="&#x14e;" horiz-adv-x="589" d="M58 206v288c0 136 106 220 238 220c131 0 237 -84 237 -220v-288c0 -136 -106 -220 -237 -220c-132 0 -238 84 -238 220zM142 480v-260c0 -102 69 -155 154 -155c84 0 152 53 152 155v260c0 102 -68 155 -152 155c-85 0 -154 -53 -154 -155zM176 872v7h61 c0 -42 20 -67 56 -67c39 0 60 25 60 67h61v-7c0 -77 -47 -120 -121 -120c-70 0 -117 43 -117 120z" />
<glyph unicode="&#x14f;" horiz-adv-x="534" d="M148 732v7h62c0 -42 20 -67 56 -67c39 0 60 25 60 67h61v-7c0 -77 -47 -120 -121 -120c-70 0 -118 43 -118 120zM145 313v-106c0 -95 44 -144 123 -144s123 49 123 144v106c0 95 -43 144 -123 144c-79 0 -123 -49 -123 -144zM65 195v129c0 129 78 206 203 206 c126 0 203 -77 203 -206v-129c0 -128 -78 -205 -203 -205s-203 78 -203 205z" />
<glyph unicode="&#x150;" horiz-adv-x="589" d="M58 206v288c0 136 106 220 238 220c131 0 237 -84 237 -220v-288c0 -136 -106 -220 -237 -220c-132 0 -238 84 -238 220zM142 480v-260c0 -102 69 -155 154 -155c84 0 152 53 152 155v260c0 102 -68 155 -152 155c-85 0 -154 -53 -154 -155zM205 756l73 121l59 -26 l-82 -113zM313 756l82 121l60 -26l-91 -113z" />
<glyph unicode="&#x151;" horiz-adv-x="534" d="M183 604l73 121l59 -26l-82 -113zM291 604l82 121l60 -26l-91 -113zM145 313v-106c0 -95 44 -144 123 -144s123 49 123 144v106c0 95 -43 144 -123 144c-79 0 -123 -49 -123 -144zM65 195v129c0 129 78 206 203 206c126 0 203 -77 203 -206v-129 c0 -128 -78 -205 -203 -205s-203 78 -203 205z" />
<glyph unicode="&#x152;" horiz-adv-x="846" d="M62 206v288c0 136 94 220 226 220c59 0 118 -24 146 -69v55h371v-79h-287v-225h237v-78h-237v-240h294v-78h-378v52c-38 -49 -86 -66 -146 -66c-132 0 -226 84 -226 220zM146 480v-260c0 -102 60 -155 144 -155c82 0 144 55 144 153v264c0 98 -62 153 -144 153 c-84 0 -144 -53 -144 -155z" />
<glyph unicode="&#x153;" horiz-adv-x="858" d="M65 195v129c0 129 78 206 203 206c73 0 130 -28 163 -77c34 49 90 77 164 77c125 0 203 -77 202 -206v-94h-326v-27c-1 -93 46 -141 124 -141c65 0 117 21 157 48l34 -57c-42 -33 -107 -63 -191 -63c-74 0 -133 29 -164 79c-32 -51 -89 -79 -163 -79 c-125 0 -203 78 -203 205zM145 313v-106c0 -95 44 -144 123 -144c82 0 122 55 123 142v108c0 95 -43 144 -123 144c-79 0 -123 -49 -123 -144zM717 298v17c2 93 -43 142 -122 142s-124 -48 -124 -142v-17h246z" />
<glyph unicode="&#x154;" horiz-adv-x="561" d="M235 756l81 141l68 -40l-103 -131zM381 89l-100 192c-47 0 -90 3 -134 16v-297h-84v700h241c132 0 215 -83 215 -191v-38c0 -86 -57 -159 -150 -181l101 -188c28 -52 63 -48 91 -40v-66c-85 -15 -128 -8 -180 93zM147 621v-248c51 -12 99 -16 155 -16 c86 0 132 56 132 127v12c0 74 -46 125 -130 125h-157z" />
<glyph unicode="&#x155;" horiz-adv-x="314" d="M153 606l81 141l68 -40l-103 -131zM71 0v520h68l9 -65c39 48 94 75 152 75l6 -75c-64 0 -119 -34 -155 -84v-371h-80z" />
<glyph unicode="&#x156;" horiz-adv-x="561" d="M381 89l-100 192c-47 0 -90 3 -134 16v-297h-84v700h241c132 0 215 -83 215 -191v-38c0 -86 -57 -159 -150 -181l101 -188c28 -52 63 -48 91 -40v-66c-85 -15 -128 -8 -180 93zM147 621v-248c51 -12 99 -16 155 -16c86 0 132 56 132 127v12c0 74 -46 125 -130 125h-157z " />
<glyph unicode="&#x157;" horiz-adv-x="314" d="M71 0v520h68l9 -65c39 48 94 75 152 75l6 -75c-64 0 -119 -34 -155 -84v-371h-80zM67 -235l-22 41c19 13 34 26 38 47c-19 10 -30 24 -30 46c0 40 27 54 56 54c31 0 58 -14 58 -55c0 -50 -25 -102 -100 -133z" />
<glyph unicode="&#x158;" horiz-adv-x="561" d="M250 736l-73 113l62 20l45 -83l46 83l63 -17l-74 -116h-69zM381 89l-100 192c-47 0 -90 3 -134 16v-297h-84v700h241c132 0 215 -83 215 -191v-38c0 -86 -57 -159 -150 -181l101 -188c28 -52 63 -48 91 -40v-66c-85 -15 -128 -8 -180 93zM147 621v-248 c51 -12 99 -16 155 -16c86 0 132 56 132 127v12c0 74 -46 125 -130 125h-157z" />
<glyph unicode="&#x159;" horiz-adv-x="314" d="M156 586l-73 113l62 20l45 -83l46 83l63 -17l-74 -116h-69zM71 0v520h68l9 -65c39 48 94 75 152 75l6 -75c-64 0 -119 -34 -155 -84v-371h-80z" />
<glyph unicode="&#x15a;" horiz-adv-x="544" d="M243 766l81 141l68 -40l-103 -131zM88 120c44 -29 108 -56 178 -56c99 0 156 52 156 123c0 83 -56 118 -150 133c-114 18 -202 69 -202 205c0 110 74 189 210 189c88 0 146 -29 201 -69l-39 -63c-47 31 -94 54 -161 54c-88 0 -128 -46 -128 -108c0 -88 52 -113 139 -128 c105 -19 213 -61 213 -207c0 -119 -82 -207 -237 -207c-92 0 -170 32 -216 68z" />
<glyph unicode="&#x15b;" horiz-adv-x="475" d="M205 606l81 141l68 -40l-103 -131zM79 109c40 -27 94 -49 159 -49c79 0 117 41 117 84c0 50 -35 71 -112 84c-93 15 -180 32 -180 156c0 83 57 146 180 146c80 0 133 -26 183 -62l-33 -56c-43 27 -87 48 -149 48c-75 0 -101 -33 -101 -76c0 -64 49 -73 120 -84 c90 -14 170 -36 171 -154c1 -84 -69 -156 -194 -156c-84 0 -151 30 -194 62z" />
<glyph unicode="&#x15c;" horiz-adv-x="544" d="M168 757l66 102h69l67 -102l-62 -21l-40 73l-39 -73zM88 120c44 -29 108 -56 178 -56c99 0 156 52 156 123c0 83 -56 118 -150 133c-114 18 -202 69 -202 205c0 110 74 189 210 189c88 0 146 -29 201 -69l-39 -63c-47 31 -94 54 -161 54c-88 0 -128 -46 -128 -108 c0 -88 52 -113 139 -128c105 -19 213 -61 213 -207c0 -119 -82 -207 -237 -207c-92 0 -170 32 -216 68z" />
<glyph unicode="&#x15d;" horiz-adv-x="475" d="M137 607l66 102h69l67 -102l-62 -21l-40 73l-39 -73zM79 109c40 -27 94 -49 159 -49c79 0 117 41 117 84c0 50 -35 71 -112 84c-93 15 -180 32 -180 156c0 83 57 146 180 146c80 0 133 -26 183 -62l-33 -56c-43 27 -87 48 -149 48c-75 0 -101 -33 -101 -76 c0 -64 49 -73 120 -84c90 -14 170 -36 171 -154c1 -84 -69 -156 -194 -156c-84 0 -151 30 -194 62z" />
<glyph unicode="&#x15e;" horiz-adv-x="544" d="M474 645l-39 -63c-47 31 -92 54 -160 54c-87 0 -123 -46 -123 -108c0 -88 53 -113 140 -128c105 -19 213 -61 213 -207c0 -109 -69 -192 -199 -205l-8 -24c32 -4 59 -22 59 -61c0 -52 -52 -66 -97 -66c-16 0 -40 3 -55 9l5 38c9 -3 22 -5 32 -5c24 0 41 9 41 28 c0 33 -57 30 -57 30l19 50c-82 5 -151 34 -193 67l36 66c44 -29 108 -56 178 -56c99 0 156 52 156 123c0 83 -56 118 -150 133c-114 18 -203 69 -203 205c0 110 70 189 206 189c88 0 144 -29 199 -69z" />
<glyph unicode="&#x15f;" horiz-adv-x="478" d="M429 466l-35 -54c-42 28 -86 48 -148 48c-75 0 -102 -33 -102 -76c0 -64 50 -73 121 -84c90 -13 170 -36 171 -154c1 -76 -56 -142 -159 -154l-9 -28c32 -4 59 -22 59 -61c0 -52 -52 -66 -98 -66c-15 0 -40 3 -55 9l6 38c9 -3 22 -5 32 -5c24 0 41 9 41 28 c0 33 -57 30 -57 30l20 54c-72 5 -130 32 -168 61l34 57c39 -27 93 -49 158 -49c79 0 117 41 117 84c0 50 -34 71 -112 82c-93 14 -181 34 -181 158c0 83 58 146 181 146c80 0 135 -27 184 -64z" />
<glyph unicode="&#x160;" horiz-adv-x="544" d="M234 736l-73 113l62 20l45 -83l46 83l63 -17l-74 -116h-69zM88 120c44 -29 108 -56 178 -56c99 0 156 52 156 123c0 83 -56 118 -150 133c-114 18 -202 69 -202 205c0 110 74 189 210 189c88 0 146 -29 201 -69l-39 -63c-47 31 -94 54 -161 54c-88 0 -128 -46 -128 -108 c0 -88 52 -113 139 -128c105 -19 213 -61 213 -207c0 -119 -82 -207 -237 -207c-92 0 -170 32 -216 68z" />
<glyph unicode="&#x161;" horiz-adv-x="475" d="M201 586l-73 113l62 20l45 -83l46 83l63 -17l-74 -116h-69zM79 109c40 -27 94 -49 159 -49c79 0 117 41 117 84c0 50 -35 71 -112 84c-93 15 -180 32 -180 156c0 83 57 146 180 146c80 0 133 -26 183 -62l-33 -56c-43 27 -87 48 -149 48c-75 0 -101 -33 -101 -76 c0 -64 49 -73 120 -84c90 -14 170 -36 171 -154c1 -84 -69 -156 -194 -156c-84 0 -151 30 -194 62z" />
<glyph unicode="&#x162;" horiz-adv-x="478" d="M198 0v622h-190v78h464v-78h-190v-622h-84zM198 -235l-22 41c19 13 34 26 38 47c-19 10 -30 24 -30 46c0 40 27 54 56 54c31 0 58 -14 58 -55c0 -50 -25 -102 -100 -133z" />
<glyph unicode="&#x164;" horiz-adv-x="478" d="M197 0v622h-189v78h463v-78h-189v-622h-85zM205 736l-73 113l62 20l45 -83l46 83l63 -17l-74 -116h-69z" />
<glyph unicode="&#x165;" horiz-adv-x="330" d="M71 163v288h-57v69h59l20 99h58v-99h161v-69h-161v-278c-1 -85 14 -117 86 -117c20 0 57 3 76 8l13 -64c-23 -6 -68 -14 -94 -14c-118 0 -161 49 -161 177z" />
<glyph unicode="&#x166;" horiz-adv-x="478" d="M197 0v436h-139v75h139v111h-189v78h463v-78h-189v-111h139v-75h-139v-436h-85z" />
<glyph unicode="&#x167;" horiz-adv-x="330" d="M313 64l13 -64c-23 -6 -68 -14 -94 -14c-118 0 -161 49 -161 177v106h-57v70h57v112h-57v69h59l20 99h58v-99h161v-69h-161v-112h161v-70h-161v-96c-1 -85 14 -117 86 -117c20 0 57 3 76 8z" />
<glyph unicode="&#x168;" horiz-adv-x="575" d="M270 62c70 0 133 45 160 89v549h85l-1 -700h-76l-8 63c-38 -41 -96 -77 -171 -77c-130 0 -199 64 -199 204v510h85v-496c0 -100 38 -142 125 -142zM189 748l-61 14c4 49 37 91 90 91c52 0 106 -44 133 -44c23 0 34 16 36 36l60 -14c-4 -49 -33 -89 -90 -89 c-47 0 -96 43 -133 43c-23 0 -33 -16 -35 -37z" />
<glyph unicode="&#x169;" horiz-adv-x="526" d="M381 61c-36 -36 -87 -71 -152 -71c-116 0 -161 71 -161 198v332h80v-318c0 -94 21 -142 95 -142c59 0 106 40 135 81v379h80v-520h-68zM164 598l-61 14c4 49 37 91 90 91c52 0 106 -44 133 -44c23 0 34 16 36 36l60 -14c-4 -49 -33 -89 -90 -89c-47 0 -96 43 -133 43 c-23 0 -33 -16 -35 -37z" />
<glyph unicode="&#x16a;" horiz-adv-x="575" d="M151 744v77h271v-77h-271zM270 62c70 0 133 45 160 89v549h85l-1 -700h-76l-8 63c-38 -41 -96 -77 -171 -77c-130 0 -199 64 -199 204v510h85v-496c0 -100 38 -142 125 -142z" />
<glyph unicode="&#x16b;" horiz-adv-x="528" d="M129 625v76h271v-76h-271zM381 61c-36 -36 -87 -71 -152 -71c-116 0 -161 71 -161 198v332h80v-318c0 -94 21 -142 95 -142c59 0 106 40 135 81v379h80v-520h-68z" />
<glyph unicode="&#x16c;" horiz-adv-x="575" d="M270 62c70 0 133 45 160 89v549h85l-1 -700h-76l-8 63c-38 -41 -96 -77 -171 -77c-130 0 -199 64 -199 204v510h85v-496c0 -100 38 -142 125 -142zM171 852v6h61c0 -41 20 -66 55 -66c40 0 61 25 61 66h61v-6c0 -77 -48 -120 -122 -120c-69 0 -116 43 -116 120z" />
<glyph unicode="&#x16d;" horiz-adv-x="526" d="M145 732v7h62c0 -42 20 -67 55 -67c40 0 61 25 61 67h61v-7c0 -77 -48 -120 -122 -120c-70 0 -117 43 -117 120zM381 61c-36 -36 -87 -71 -152 -71c-116 0 -161 71 -161 198v332h80v-318c0 -94 21 -142 95 -142c59 0 106 40 135 81v379h80v-520h-68z" />
<glyph unicode="&#x16e;" horiz-adv-x="575" d="M213 802v10c0 44 29 73 73 73c45 0 75 -29 75 -73v-10c0 -48 -30 -75 -75 -75c-44 0 -73 27 -73 75zM286 764c24 0 36 16 36 42s-12 41 -36 41c-23 0 -34 -15 -34 -41s11 -42 34 -42zM270 62c70 0 133 45 160 89v549h85l-1 -700h-76l-8 63c-38 -41 -96 -77 -171 -77 c-130 0 -199 64 -199 204v510h85v-496c0 -100 38 -142 125 -142z" />
<glyph unicode="&#x16f;" horiz-adv-x="526" d="M190 681v10c0 45 30 75 73 75c46 0 76 -30 76 -75v-10c0 -46 -30 -74 -76 -74c-43 0 -73 28 -73 74zM263 645c25 0 36 15 36 40c0 28 -11 42 -36 42c-22 0 -33 -14 -33 -42c0 -25 11 -40 33 -40zM381 61c-36 -36 -87 -71 -152 -71c-116 0 -161 71 -161 198v332h80v-318 c0 -94 21 -142 95 -142c59 0 106 40 135 81v379h80v-520h-68z" />
<glyph unicode="&#x170;" horiz-adv-x="575" d="M270 62c70 0 133 45 160 89v549h85l-1 -700h-76l-8 63c-38 -41 -96 -77 -171 -77c-130 0 -199 64 -199 204v510h85v-496c0 -100 38 -142 125 -142zM202 754l73 121l59 -26l-82 -113zM310 754l82 121l60 -26l-91 -113z" />
<glyph unicode="&#x171;" horiz-adv-x="526" d="M381 61c-36 -36 -87 -71 -152 -71c-116 0 -161 71 -161 198v332h80v-318c0 -94 21 -142 95 -142c59 0 106 40 135 81v379h80v-520h-68zM162 604l73 121l59 -26l-82 -113zM270 604l82 121l60 -26l-91 -113z" />
<glyph unicode="&#x172;" horiz-adv-x="575" d="M517 -112l7 -43c-20 -4 -47 -7 -65 -7c-51 0 -87 19 -87 72c0 38 30 77 70 97l-9 59c-41 -44 -99 -80 -174 -80c-130 0 -199 64 -199 204v510h85v-496c0 -100 38 -142 125 -142c70 0 133 45 160 89v549h84v-700c-45 -23 -68 -51 -68 -81c0 -21 11 -34 36 -34 c11 0 24 0 35 3z" />
<glyph unicode="&#x173;" horiz-adv-x="526" d="M461 -112l8 -43c-21 -4 -47 -7 -66 -7c-50 0 -87 19 -87 72c0 37 30 74 74 98l-9 53c-36 -36 -87 -71 -152 -71c-116 0 -161 71 -161 198v332h80v-318c0 -94 21 -142 95 -142c59 0 106 40 135 81v379h80v-520c-42 -22 -68 -50 -68 -81c0 -21 12 -34 36 -34 c12 0 24 0 35 3z" />
<glyph unicode="&#x174;" horiz-adv-x="793" d="M337 757l66 102h69l67 -102l-62 -21l-40 73l-39 -73zM701 700h86l-205 -700h-77l-105 299l-109 -299h-79l-206 700h88l162 -600l102 295l-109 305h81l67 -206l69 206h81l-108 -296l103 -304z" />
<glyph unicode="&#x175;" horiz-adv-x="680" d="M418 0l-75 259l-81 -259h-81l-176 520h85l133 -426l85 287l-40 139h85l106 -426l132 426h84l-176 -520h-81zM270 607l66 102h69l67 -102l-62 -21l-40 73l-39 -73z" />
<glyph unicode="&#x176;" horiz-adv-x="520" d="M160 757l66 102h69l67 -102l-62 -21l-40 73l-39 -73zM219 0v250l-213 450h93l163 -360l161 360h92l-211 -449l-1 -251h-84z" />
<glyph unicode="&#x177;" horiz-adv-x="465" d="M127 -151l66 168l-187 503h86l141 -405l141 405h84l-185 -499h-1l-62 -173zM133 607l66 102h69l67 -102l-62 -21l-40 73l-39 -73z" />
<glyph unicode="&#x178;" horiz-adv-x="520" d="M219 0v250l-213 450h93l163 -360l161 360h92l-211 -449l-1 -251h-84z" />
<glyph unicode="&#x179;" horiz-adv-x="520" d="M218 757l81 141l68 -40l-103 -131zM32 0v54c141 173 272 359 336 568h-326v78h433v-55c-75 -215 -181 -393 -314 -567h329v-78h-458z" />
<glyph unicode="&#x17a;" horiz-adv-x="443" d="M175 606l81 141l68 -40l-103 -131zM35 0v58c121 117 224 230 273 390h-267v72h360v-51c-51 -169 -133 -281 -244 -397l256 -1v-71h-378z" />
<glyph unicode="&#x17b;" horiz-adv-x="520" d="M259 753c-29 0 -49 18 -49 55c0 40 20 59 49 59c31 0 51 -19 51 -59c0 -37 -20 -55 -51 -55zM32 0v54c141 173 272 359 336 568h-326v78h433v-55c-75 -215 -181 -393 -314 -567h329v-78h-458z" />
<glyph unicode="&#x17c;" horiz-adv-x="443" d="M217 613c-29 0 -49 18 -49 55c0 40 20 59 49 59c31 0 51 -19 51 -59c0 -37 -20 -55 -51 -55zM35 0v58c121 117 224 230 273 390h-267v72h360v-51c-51 -169 -133 -281 -244 -397l256 -1v-71h-378z" />
<glyph unicode="&#x17d;" horiz-adv-x="520" d="M226 736l-73 113l62 20l45 -83l46 83l63 -17l-74 -116h-69zM32 0v54c141 173 272 359 336 568h-326v78h433v-55c-75 -215 -181 -393 -314 -567h329v-78h-458z" />
<glyph unicode="&#x17e;" horiz-adv-x="443" d="M193 586l-73 113l62 20l45 -83l46 83l63 -17l-74 -116h-69zM35 0v58c121 117 224 230 273 390h-267v72h360v-51c-51 -169 -133 -281 -244 -397l256 -1v-71h-378z" />
<glyph unicode="&#x17f;" horiz-adv-x="312" d="M71 0l-1 449h-62v71h62v43c0 128 54 193 167 193c27 0 62 -8 83 -15l-13 -67c-23 7 -44 11 -66 11c-67 0 -91 -39 -91 -134l1 -551h-80z" />
<glyph unicode="&#x192;" horiz-adv-x="383" d="M-144 -157l10 66c5 -1 9 -1 16 -1c72 0 124 54 140 149l56 326h-53l12 72h54l17 100c23 128 102 205 228 205c11 0 22 -1 31 -4l-12 -69c-8 2 -19 2 -28 2c-71 0 -124 -52 -141 -147l-16 -87h158l-11 -72h-159l-60 -339c-22 -127 -95 -204 -217 -204c-7 0 -18 0 -25 3z " />
<glyph unicode="&#x1ea;" horiz-adv-x="589" d="M58 206v288c0 136 106 220 238 220c131 0 237 -84 237 -220v-288c0 -124 -89 -205 -203 -218c-30 -19 -48 -43 -48 -68c0 -21 12 -35 38 -35c11 0 24 0 36 3l8 -43c-21 -5 -45 -7 -64 -7c-50 0 -89 19 -89 72c0 30 19 60 46 78c-113 15 -199 96 -199 218zM448 220v260 c0 102 -68 156 -152 156c-85 0 -154 -54 -154 -156v-260c0 -102 69 -156 154 -156c84 0 152 54 152 156z" />
<glyph unicode="&#x1fc;" horiz-adv-x="902" d="M482 745l81 141l68 -40l-103 -131zM5 0l362 700h493v-79h-302v-269h252v-78h-252v-196h310v-78h-394v252h-242l-126 -252h-101zM270 331h204v291h-60z" />
<glyph unicode="&#x1fd;" horiz-adv-x="835" d="M408 606l81 141l68 -40l-103 -131zM98 415l-28 60c40 25 107 55 189 55c75 0 127 -22 157 -66c34 43 88 66 155 66c126 0 204 -77 203 -206v-94h-326v-29c1 -92 46 -139 124 -139c65 0 117 21 157 48l34 -57c-42 -33 -108 -63 -192 -63c-77 0 -137 30 -171 83 c-38 -44 -94 -83 -173 -83c-110 0 -181 42 -181 151c0 120 77 148 190 148c44 0 88 -5 132 -15v62c0 88 -35 121 -116 121c-65 0 -121 -23 -154 -42zM694 314c2 94 -43 143 -123 143c-77 0 -122 -45 -122 -136v-23h245v16zM368 127v87c-45 8 -88 13 -133 13 c-71 0 -107 -18 -107 -84c0 -65 44 -85 106 -85c57 0 106 28 134 69z" />
<glyph unicode="&#x1fe;" horiz-adv-x="589" d="M45 85l-42 67l55 46v296c0 136 106 220 238 220c97 0 181 -47 216 -128l33 27l42 -65l-54 -47v-295c0 -136 -106 -220 -237 -220c-99 0 -182 47 -218 128zM448 220v210l-300 -258c17 -71 77 -107 148 -107c84 0 152 53 152 155zM142 270l300 257c-18 71 -76 108 -146 108 c-85 0 -154 -53 -154 -155v-210zM275 766l81 141l68 -40l-103 -131z" />
<glyph unicode="&#x1ff;" horiz-adv-x="534" d="M471 324v-128c0 -129 -78 -206 -203 -206c-74 0 -132 28 -165 79l-50 -43l-45 62l62 54c-3 16 -5 34 -5 53v129c0 129 78 206 203 206c75 0 133 -28 166 -79l51 43l43 -62l-62 -53c3 -17 5 -35 5 -55zM145 313v-107l227 193c-18 38 -54 58 -104 58 c-79 0 -123 -49 -123 -144zM391 207v108l-227 -194c19 -38 55 -58 104 -58c79 0 123 49 123 144zM236 606l81 141l68 -40l-103 -131z" />
<glyph unicode="&#x218;" horiz-adv-x="544" d="M88 120c44 -29 108 -56 178 -56c99 0 156 52 156 123c0 83 -56 118 -150 133c-114 18 -202 69 -202 205c0 110 74 189 210 189c88 0 146 -29 201 -69l-39 -63c-47 31 -94 54 -161 54c-88 0 -128 -46 -128 -108c0 -88 52 -113 139 -128c105 -19 213 -61 213 -207 c0 -119 -82 -207 -237 -207c-92 0 -170 32 -216 68z" />
<glyph unicode="&#x219;" horiz-adv-x="475" d="M79 109c40 -27 94 -49 159 -49c79 0 117 41 117 84c0 50 -35 71 -112 84c-93 15 -180 32 -180 156c0 83 57 146 180 146c80 0 133 -26 183 -62l-33 -56c-43 27 -87 48 -149 48c-75 0 -101 -33 -101 -76c0 -64 49 -73 120 -84c90 -14 170 -36 171 -154 c1 -84 -69 -156 -194 -156c-84 0 -151 30 -194 62zM219 -235l-22 41c19 13 34 26 38 47c-19 10 -30 24 -30 46c0 40 27 54 56 54c31 0 58 -14 58 -55c0 -50 -25 -102 -100 -133z" />
<glyph unicode="&#x21a;" horiz-adv-x="477" d="M197 0v622h-190v78h464v-78h-190v-622h-84z" />
<glyph unicode="&#x21b;" horiz-adv-x="330" d="M71 163v288h-57v69h59l20 99h58v-99h161v-69h-161v-278c-1 -85 14 -117 86 -117c20 0 57 3 76 8l13 -64c-23 -6 -68 -14 -94 -14c-118 0 -161 49 -161 177zM151 -235l-22 41c19 13 34 26 38 47c-19 10 -30 24 -30 46c0 40 27 54 56 54c31 0 58 -14 58 -55 c0 -50 -25 -102 -100 -133z" />
<glyph unicode="&#x237;" horiz-adv-x="221" d="M72 520h80v-486c0 -121 -66 -188 -183 -194l-11 65c85 5 115 51 114 141v474z" />
<glyph unicode="&#x2c6;" horiz-adv-x="331" d="M66 607l66 102h69l67 -102l-62 -21l-40 73l-39 -73z" />
<glyph unicode="&#x2c7;" horiz-adv-x="331" d="M132 586l-73 113l62 20l45 -83l46 83l63 -17l-74 -116h-69z" />
<glyph unicode="&#x2d8;" horiz-adv-x="342" d="M53 702v6h61c0 -41 20 -66 55 -66c40 0 61 25 61 66h61v-6c0 -77 -48 -120 -122 -120c-69 0 -116 43 -116 120z" />
<glyph unicode="&#x2d9;" horiz-adv-x="189" d="M152 641c0 -36 -24 -56 -58 -56s-57 20 -57 56c0 34 23 55 57 55s58 -21 58 -55z" />
<glyph unicode="&#x2da;" horiz-adv-x="252" d="M53 652v10c0 44 29 73 73 73c45 0 75 -29 75 -73v-10c0 -48 -30 -75 -75 -75c-44 0 -73 27 -73 75zM126 614c24 0 36 16 36 42s-12 41 -36 41c-23 0 -34 -15 -34 -41s11 -42 34 -42z" />
<glyph unicode="&#x2db;" horiz-adv-x="256" d="M119 0h72c-42 -22 -68 -49 -68 -80c0 -21 12 -35 38 -35c11 0 24 0 36 3l8 -43c-21 -5 -45 -7 -64 -7c-50 0 -88 19 -88 72c0 38 28 74 66 90z" />
<glyph unicode="&#x2dc;" horiz-adv-x="408" d="M106 598l-61 14c4 49 37 91 90 91c52 0 106 -44 133 -44c23 0 34 16 36 36l60 -14c-4 -49 -33 -89 -90 -89c-47 0 -96 43 -133 43c-23 0 -33 -16 -35 -37z" />
<glyph unicode="&#x2dd;" horiz-adv-x="362" d="M65 604l73 121l59 -26l-82 -113zM173 604l82 121l60 -26l-91 -113z" />
<glyph unicode="&#x326;" horiz-adv-x="268" d="M92 -235l-22 41c19 13 34 26 38 47c-19 10 -30 24 -30 46c0 40 27 54 56 54c31 0 58 -14 58 -55c0 -50 -25 -102 -100 -133z" />
<glyph unicode="&#x394;" horiz-adv-x="627" d="M43 0v73l230 627h83l231 -627v-73h-544zM135 77h357l-179 525z" />
<glyph unicode="&#x3a9;" horiz-adv-x="623" d="M35 0v78h92c-29 31 -59 85 -59 180v236c0 136 104 220 245 220s244 -84 244 -220v-236c0 -96 -28 -146 -59 -180h91v-78h-213v54c66 45 97 108 97 193v233c0 102 -67 155 -160 155c-94 0 -161 -53 -161 -155v-233c0 -85 31 -148 98 -193v-54h-215z" />
<glyph unicode="&#x3bc;" horiz-adv-x="534" d="M387 520h81l-1 -325c0 -128 -75 -205 -191 -205c-47 0 -89 17 -119 58v-61c0 -76 -26 -130 -31 -137l-70 25c13 31 21 75 21 123v522h80v-313c0 -95 40 -144 116 -144c72 0 114 49 114 144v313z" />
<glyph unicode="&#x3c0;" horiz-adv-x="698" d="M52 -1l-7 66h24c71 0 94 49 94 140v275c-45 0 -80 -14 -97 -27l-28 67c23 18 79 40 141 40h362c59 0 107 15 107 15l5 -75s-51 -17 -110 -17v-351c0 -84 16 -132 16 -132h-79s-17 54 -17 136v346h-220v-289c0 -124 -52 -194 -191 -194z" />
<glyph unicode="&#x1e80;" horiz-adv-x="793" d="M322 856l67 40l83 -141l-47 -30zM701 700h86l-205 -700h-77l-105 299l-109 -299h-79l-206 700h88l162 -600l102 295l-109 305h81l67 -206l69 206h81l-108 -296l103 -304z" />
<glyph unicode="&#x1e81;" horiz-adv-x="680" d="M418 0l-75 259l-81 -259h-81l-176 520h85l133 -426l85 287l-40 139h85l106 -426l132 426h84l-176 -520h-81zM247 707l67 40l83 -141l-47 -30z" />
<glyph unicode="&#x1e82;" horiz-adv-x="793" d="M412 756l81 141l68 -40l-103 -131zM701 700h86l-205 -700h-77l-105 299l-109 -299h-79l-206 700h88l162 -600l102 295l-109 305h81l67 -206l69 206h81l-108 -296l103 -304z" />
<glyph unicode="&#x1e83;" horiz-adv-x="680" d="M418 0l-75 259l-81 -259h-81l-176 520h85l133 -426l85 287l-40 139h85l106 -426l132 426h84l-176 -520h-81zM349 606l81 141l68 -40l-103 -131z" />
<glyph unicode="&#x1e84;" horiz-adv-x="875" d="M330 753c-29 0 -47 18 -47 55c0 38 18 58 47 58c31 0 50 -20 50 -58c0 -37 -19 -55 -50 -55zM541 753c-29 0 -47 18 -47 55c0 38 18 58 47 58c31 0 50 -20 50 -58c0 -37 -19 -55 -50 -55zM701 700h86l-205 -700h-77l-105 299l-109 -299h-79l-206 700h88l162 -600l102 295 l-109 305h81l67 -206l69 206h81l-108 -296l103 -304z" />
<glyph unicode="&#x1e85;" horiz-adv-x="740" d="M418 0l-75 259l-81 -259h-81l-176 520h85l133 -426l85 287l-40 139h85l106 -426l132 426h84l-176 -520h-81zM477 613c-29 0 -47 18 -47 55c0 38 18 58 47 58c31 0 50 -20 50 -58c0 -37 -19 -55 -50 -55zM266 613c-29 0 -47 18 -47 55c0 38 18 58 47 58 c31 0 49 -20 49 -58c0 -37 -18 -55 -49 -55z" />
<glyph unicode="&#x1ef2;" horiz-adv-x="520" d="M219 0v250l-213 450h93l163 -360l161 360h92l-211 -449l-1 -251h-84zM152 857l67 40l83 -141l-47 -30z" />
<glyph unicode="&#x1ef3;" horiz-adv-x="465" d="M127 -151l66 168l-187 503h86l141 -405l141 405h84l-185 -499h-1l-62 -173zM120 707l67 40l83 -141l-47 -30z" />
<glyph unicode="&#x2013;" horiz-adv-x="479" d="M8 264v77h465v-77h-465z" />
<glyph unicode="&#x2014;" horiz-adv-x="796" d="M8 264v77h782v-77h-782z" />
<glyph unicode="&#x2018;" horiz-adv-x="193" d="M164 590l-23 -41c-77 29 -105 89 -105 141c0 41 28 58 59 58c29 0 56 -17 56 -57c0 -22 -11 -39 -30 -48c2 -22 24 -40 43 -53z" />
<glyph unicode="&#x2019;" horiz-adv-x="193" d="M52 549l-23 41c19 13 41 31 43 53c-19 9 -30 26 -30 48c0 40 27 57 56 57c31 0 59 -17 59 -58c0 -52 -28 -112 -105 -141z" />
<glyph unicode="&#x201a;" horiz-adv-x="193" d="M52 -98l-23 41c19 13 41 31 43 53c-19 9 -30 26 -30 48c0 40 27 57 56 57c31 0 59 -17 59 -58c0 -52 -28 -112 -105 -141z" />
<glyph unicode="&#x201c;" horiz-adv-x="338" d="M164 590l-23 -41c-77 29 -105 89 -105 141c0 41 28 58 59 58c29 0 56 -17 56 -57c0 -22 -11 -39 -30 -48c2 -22 24 -40 43 -53zM310 590l-23 -41c-77 29 -105 89 -105 141c0 41 28 58 59 58c29 0 56 -17 56 -57c0 -22 -11 -39 -30 -48c2 -22 24 -40 43 -53z" />
<glyph unicode="&#x201d;" horiz-adv-x="338" d="M197 549l-23 41c19 13 41 31 43 53c-19 9 -30 26 -30 48c0 40 27 57 56 57c31 0 59 -17 59 -58c0 -52 -28 -112 -105 -141zM52 549l-23 41c19 13 41 31 43 53c-19 9 -30 26 -30 48c0 40 27 57 56 57c31 0 59 -17 59 -58c0 -52 -28 -112 -105 -141z" />
<glyph unicode="&#x201e;" horiz-adv-x="338" d="M197 -98l-23 41c19 13 41 31 43 53c-19 9 -30 26 -30 48c0 40 27 57 56 57c31 0 59 -17 59 -58c0 -52 -28 -112 -105 -141zM52 -98l-23 41c19 13 41 31 43 53c-19 9 -30 26 -30 48c0 40 27 57 56 57c31 0 59 -17 59 -58c0 -52 -28 -112 -105 -141z" />
<glyph unicode="&#x2020;" horiz-adv-x="470" d="M196 -110v537h-143v77h143v196h80v-196h143v-77h-143v-537h-80z" />
<glyph unicode="&#x2021;" horiz-adv-x="470" d="M196 -110v233h-143v76h143v228h-143v77h143v196h80v-196h143v-77h-143v-228h143v-76h-143v-233h-80z" />
<glyph unicode="&#x2022;" horiz-adv-x="410" d="M203 164c-86 0 -141 51 -141 157c0 113 55 165 141 165c88 0 147 -52 147 -165c0 -106 -59 -157 -147 -157z" />
<glyph unicode="&#x2026;" horiz-adv-x="514" d="M315 46c0 -36 -24 -56 -58 -56s-57 20 -57 56c0 34 23 55 57 55s58 -21 58 -55zM478 46c0 -36 -24 -56 -58 -56s-57 20 -57 56c0 34 23 55 57 55s58 -21 58 -55zM151 46c0 -36 -24 -56 -58 -56s-57 20 -57 56c0 34 23 55 57 55s58 -21 58 -55z" />
<glyph unicode="&#x2030;" horiz-adv-x="1197" d="M61 432v133c0 91 60 147 149 147s148 -56 148 -147v-133c0 -91 -59 -148 -148 -148s-149 57 -149 148zM131 556v-116c0 -62 32 -94 79 -94s79 32 79 94v116c0 62 -32 94 -79 94s-79 -32 -79 -94zM500 137v133c0 92 60 147 149 147c88 0 147 -55 147 -147v-133 c0 -90 -59 -147 -147 -147c-89 0 -149 57 -149 147zM569 261v-116c0 -62 31 -93 80 -93c47 0 78 31 78 93v116c0 62 -31 94 -78 94c-49 0 -80 -32 -80 -94zM840 137v133c0 92 59 147 149 147c89 0 148 -55 148 -147v-133c0 -90 -59 -147 -148 -147c-90 0 -149 57 -149 147z M910 261v-116c0 -62 31 -93 79 -93c47 0 80 31 80 93v116c0 62 -33 94 -80 94c-48 0 -79 -32 -79 -94zM140 0l519 741l58 -41l-521 -740z" />
<glyph unicode="&#x2039;" horiz-adv-x="280" d="M118 279l113 -123l-40 -50l-139 147v53l139 147l40 -50z" />
<glyph unicode="&#x203a;" horiz-adv-x="280" d="M90 106l-40 50l113 123l-113 124l40 50l139 -147v-53z" />
<glyph unicode="&#x2044;" horiz-adv-x="367" d="M-79 0l468 737l58 -37l-470 -737z" />
<glyph unicode="&#x2070;" horiz-adv-x="392" d="M53 378v188c0 91 55 146 144 146s143 -55 143 -146v-188c0 -89 -54 -144 -143 -144s-144 55 -144 144zM276 388v169c0 64 -27 95 -79 95s-78 -31 -78 -95v-169c0 -63 26 -93 78 -93s79 30 79 93z" />
<glyph unicode="&#x20ac;" horiz-adv-x="600" />
<glyph unicode="&#x2122;" horiz-adv-x="843" d="M367 241v462h70l143 -268l141 268h71v-462h-66l2 344l-119 -221h-60l-119 220l2 -343h-65zM152 241v402h-124v60h313v-60h-123v-402h-66z" />
<glyph unicode="&#x2153;" horiz-adv-x="867" d="M132 0l446 700h91l-448 -700h-89zM67 307h62v312l-68 -46l-33 49l115 82h53v-397h60v-58h-189v58zM819 128c0 -80 -55 -138 -150 -138c-57 0 -101 16 -143 47l26 51c35 -24 68 -35 115 -35c49 0 78 31 78 77v7c0 46 -21 76 -52 76h-66v57h66c32 0 47 49 47 73 c0 35 -19 65 -67 65c-47 0 -77 -7 -112 -30l-25 47c41 31 83 45 139 45c91 0 135 -53 135 -124c0 -34 -14 -77 -41 -102c29 -16 50 -63 50 -101v-15z" />
<glyph unicode="&#x2202;" horiz-adv-x="573" d="M464 195c-17 -128 -104 -205 -228 -205c-126 0 -187 78 -173 204l10 94c17 128 90 200 206 200c53 0 104 -24 135 -61l17 119c13 97 -35 142 -119 142c-29 0 -63 -7 -91 -14l-20 64c30 15 84 27 124 27c130 0 205 -74 186 -210zM385 208l17 134c-23 37 -72 74 -123 74 c-79 0 -115 -51 -127 -142l-9 -69c-12 -92 22 -142 101 -142c80 0 129 50 141 145z" />
<glyph unicode="&#x220f;" horiz-adv-x="719" d="M133 -110v732h-73v78h600v-78h-74v-732h-83v732h-286v-732h-84z" />
<glyph unicode="&#x2211;" horiz-adv-x="592" d="M61 -110v76l280 333l-280 330v71h472l-2 -72l-360 1l279 -329l-286 -338h367l2 -72h-472z" />
<glyph unicode="&#x2212;" horiz-adv-x="565" d="M53 264v77h460v-77h-460z" />
<glyph unicode="&#x221a;" horiz-adv-x="720" d="M285 -110l-137 327l-68 -36l-27 69l141 66l132 -334l271 768l78 -25l-309 -835h-81z" />
<glyph unicode="&#x221e;" horiz-adv-x="1070" d="M537 335c87 113 173 159 277 159c122 0 196 -81 196 -212s-74 -212 -196 -212c-104 0 -192 45 -279 157c-87 -112 -174 -159 -277 -159c-122 0 -197 81 -197 212s75 212 197 212c103 0 192 -45 279 -157zM488 280c-76 99 -132 140 -220 140s-130 -55 -130 -140 s42 -138 130 -138s144 39 220 138zM584 282c75 -99 132 -140 220 -140c89 0 130 55 130 140s-41 138 -130 138c-88 0 -145 -39 -220 -138z" />
<glyph unicode="&#x222b;" horiz-adv-x="403" d="M80 -110c-7 0 -12 0 -19 2l3 68c81 -2 107 49 107 144c0 139 -18 318 -18 451c0 127 53 205 171 205c7 0 12 0 19 -2l-6 -68c-75 0 -104 -49 -104 -144c0 -139 18 -318 18 -451c0 -128 -53 -205 -171 -205z" />
<glyph unicode="&#x2248;" horiz-adv-x="573" d="M121 331l-67 12c11 63 58 115 132 115c76 0 149 -70 207 -70c35 0 55 29 61 61l66 -11c-9 -65 -51 -116 -132 -116c-77 0 -138 70 -207 70c-36 0 -56 -29 -60 -61zM121 118l-67 12c11 62 58 115 132 115c76 0 149 -70 207 -70c35 0 55 29 61 60l66 -10 c-9 -66 -51 -117 -132 -117c-77 0 -138 70 -207 70c-36 0 -56 -29 -60 -60z" />
<glyph unicode="&#x2260;" horiz-adv-x="556" d="M110 16l57 120h-114v77h150l72 154h-222v76h259l72 147l63 -27l-57 -120h114v-76h-151l-73 -154h224v-77h-260l-68 -144z" />
<glyph unicode="&#x2264;" horiz-adv-x="335" d="M61 0v74h214v-74h-214zM132 342l160 -172l-41 -55l-190 195v64l190 195l41 -54z" />
<glyph unicode="&#x2265;" horiz-adv-x="335" d="M61 0v74h214v-74h-214zM85 115l-41 55l160 172l-160 173l41 54l190 -195v-64z" />
<glyph unicode="&#x25ca;" horiz-adv-x="599" d="M301 -30l-260 380l260 380l259 -380zM301 88l171 262l-171 262l-172 -262z" />
<glyph unicode="&#xfb00;" horiz-adv-x="605" d="M71 0l-1 449h-62v71h62l1 37c1 128 71 185 177 185c45 0 97 -20 133 -39c34 37 83 57 144 57c26 0 51 -4 73 -11l-15 -67c-18 4 -37 5 -56 5c-72 0 -116 -45 -116 -140v-27h166v-71h-166v-449h-80v449h-181l1 -449h-80zM150 520h181v37c0 33 5 61 16 87 c-32 16 -69 25 -96 25c-66 0 -99 -30 -100 -124z" />
<glyph unicode="&#xfb01;" horiz-adv-x="517" d="M71 0l-1 448h-62v72h62v85c0 122 67 151 182 151c53 0 130 -21 158 -33l-19 -61c-31 11 -102 24 -141 24c-70 0 -99 -17 -99 -71v-95h290v-520h-80v448h-211v-448h-79z" />
<glyph unicode="&#xfb02;" horiz-adv-x="505" d="M71 0l-1 449h-62v71h62v65c0 110 77 171 194 171c67 0 129 -19 171 -45v-711h-80v670c-27 8 -55 13 -88 13c-74 0 -117 -34 -117 -108v-55h154v-71h-154v-449h-79z" />
<glyph unicode="&#xfb03;" horiz-adv-x="736" d="M71 0l-1 449h-62v71h62v24c0 137 58 198 173 198c47 0 101 -20 134 -44c37 45 82 62 143 62c39 0 94 -12 123 -24l-18 -59c-30 8 -69 14 -98 14c-79 0 -116 -57 -116 -150v-21h255v-520h-79l-1 449h-175v-449h-80v449h-181v-449h-79zM150 520h181v12c1 47 7 88 18 109 c-31 20 -68 32 -97 32c-78 0 -102 -43 -102 -136v-17z" />
<glyph unicode="&#xfb04;" horiz-adv-x="764" d="M71 0l-1 449h-62v71h62l1 45c1 127 69 177 174 177c45 0 100 -21 136 -39c34 37 83 57 144 57c66 0 127 -19 170 -44v-716h-80v674c-27 8 -55 13 -88 13c-73 0 -116 -40 -116 -135v-32h153v-71h-153v-449h-80v449h-181v-449h-79zM150 520h181v44c0 34 5 55 16 80 c-32 16 -72 25 -99 25c-63 0 -98 -25 -98 -116v-33z" />
<glyph horiz-adv-x="1430" d="M1329 533c8 -68 -47 -113 -95 -152c0 -1 -1 -2 -2 -2c18 -22 33 -45 35 -66c2 -24 -6 -39 -14 -48c-11 -12 -26 -18 -42 -18c-32 0 -53 15 -56 41c-3 35 27 63 62 93l-9 10c-4 6 -9 12 -14 18c-11 14 -22 30 -31 45c-8 -23 -20 -48 -34 -72c-21 -34 -62 -93 -108 -98h-4 c-12 0 -22 7 -29 16c-13 -8 -27 -14 -40 -15s-25 1 -34 7c-13 9 -21 25 -23 47c-1 5 -1 12 0 20c-23 -56 -38 -93 -73 -97c-12 -1 -22 2 -30 10c-4 4 -7 9 -10 15c-9 -15 -27 -39 -50 -41c-16 -2 -27 7 -29 25c-3 27 9 59 20 90c9 25 18 49 16 65c-2 14 -8 20 -21 18 c-21 -2 -44 -20 -68 -54l-15 -26c-2 -32 -8 -69 -18 -101c-8 -24 -23 -65 -43 -67h-1c-2 0 -4 1 -5 2c-1 2 -5 7 6 47c4 14 13 45 29 81l21 41c2 41 -4 75 -21 89c-2 2 -2 6 0 8c2 3 5 3 7 1c20 -16 25 -50 25 -79c22 34 50 66 82 69c19 2 31 -8 33 -27s-7 -44 -17 -71 c-10 -29 -21 -60 -19 -85c2 -15 10 -16 17 -15c26 3 45 42 47 47c-1 2 -1 5 -1 8c-5 40 5 79 26 111c19 28 46 46 71 49c22 2 34 -11 40 -24c7 29 16 61 25 90c13 44 27 84 39 113c18 46 27 53 33 53c6 1 10 -1 13 -5c14 -19 -20 -99 -79 -227l-30 -67 c-7 -32 -10 -55 -9 -65c2 -19 8 -32 18 -38c7 -5 16 -7 27 -6s23 6 35 13c-11 20 -15 46 -16 55c-4 39 7 78 30 104c14 15 31 24 48 24c23 0 37 -15 37 -38c0 -58 -39 -118 -84 -148c6 -7 14 -12 23 -11c30 4 66 37 99 93c17 28 30 56 37 79c-10 19 -15 37 -11 48 c2 5 7 8 14 9c3 0 14 0 16 -16c1 -9 -2 -23 -7 -40c8 -15 20 -33 35 -52c4 -6 9 -12 14 -18l9 -10l1 1c46 38 98 81 91 142c-1 17 -8 27 -19 30c-14 4 -30 -3 -32 -5c-2 -3 -6 -3 -8 -1s-3 5 -1 8c5 6 26 14 44 9c11 -4 25 -13 27 -39zM1146 -132c1 3 3 6 6 5 c15 -1 42 -11 42 -42c0 -19 -9 -52 -72 -52c-71 0 -140 20 -198 39l-4 -12c-21 -62 -36 -63 -41 -63h-1c-3 0 -7 1 -9 5c-8 12 0 50 9 84c-10 3 -21 6 -31 8c-14 -40 -34 -69 -67 -69c-20 0 -44 11 -44 42c0 28 24 47 57 47c14 0 30 -2 47 -6c7 20 12 43 17 66 c-13 -16 -28 -28 -43 -29c-16 -2 -28 8 -30 24c-11 -13 -30 -27 -60 -29c-12 -1 -22 3 -30 10c-7 8 -12 19 -13 33v9c-71 -138 -148 -169 -202 -169c-44 0 -81 14 -107 41c-25 26 -39 62 -38 100c1 54 32 116 115 116c45 0 78 -23 89 -62c11 -35 0 -73 -26 -89 c-2 -2 -6 -1 -8 2c-1 2 0 6 2 7c21 14 31 47 22 77c-5 16 -22 54 -79 54c-75 0 -103 -57 -104 -105c-1 -35 12 -69 35 -92c24 -25 58 -38 99 -38c55 0 135 34 208 196c7 32 18 74 30 114c-18 -3 -36 -7 -55 -13c-21 -7 -35 -19 -35 -32c0 -16 14 -17 18 -17c10 0 16 4 16 4 c3 1 6 1 7 -2c2 -3 1 -6 -1 -8c-1 0 -9 -5 -22 -5c-14 0 -29 9 -29 28c0 18 16 34 42 42c22 7 43 11 63 15c15 50 32 95 42 106c2 2 5 4 8 4c7 0 11 -4 13 -7c9 -14 -1 -47 -23 -97c13 2 26 3 38 4c34 3 65 6 93 15c19 5 31 18 31 34c0 18 -12 28 -23 28 c-14 0 -30 -12 -33 -31c0 -3 -3 -5 -6 -5c-3 1 -5 4 -5 7c3 25 25 40 44 40c16 0 34 -14 34 -39c0 -21 -15 -38 -39 -45c-29 -9 -61 -12 -95 -15c-14 -1 -29 -3 -44 -5l-30 -64c-10 -20 -19 -40 -27 -58c-1 0 -1 -1 -1 -1c-4 -21 -6 -36 -6 -43c1 -11 4 -21 10 -26 s13 -8 22 -7c48 4 64 42 65 44v1c5 11 11 24 18 37c13 25 28 53 27 72c0 5 -2 9 -4 12c-3 3 -6 4 -10 4c-6 0 -11 -3 -14 -7c-5 -5 -5 -16 -3 -28c1 -3 -1 -6 -4 -7s-6 1 -7 4c-3 16 -1 29 5 38c5 7 13 10 22 11c8 1 14 -2 19 -8c4 -4 7 -11 7 -18c2 -23 -13 -51 -28 -79 c-11 -21 -23 -43 -22 -55c0 -5 3 -17 18 -16c14 1 31 16 49 43c0 4 1 7 2 10c12 66 22 118 49 120c3 0 5 -1 7 -3c1 -3 5 -8 -4 -36c-5 -17 -13 -37 -22 -56c-6 -11 -13 -25 -22 -39c-6 -31 -12 -63 -21 -90l30 -9l6 19c18 53 41 109 63 153c3 44 1 79 -10 89c-2 2 -2 5 0 8 c2 2 5 2 7 0c12 -11 16 -39 15 -75c25 42 46 64 63 64c10 0 17 -4 22 -14c4 -8 6 -19 7 -36c2 -24 -3 -53 -12 -75c-11 -28 -27 -43 -46 -45c-20 -1 -34 10 -42 21c-7 -44 -17 -88 -27 -123c59 -19 125 -38 195 -38c28 0 61 7 61 41c0 28 -30 31 -32 31c-3 1 -5 3 -5 6z M497 303c-16 -1 -32 -3 -47 -3c-10 0 -20 0 -30 1c-29 -50 -59 -92 -88 -124c-42 -47 -83 -73 -121 -77h-10c-22 0 -44 8 -61 23c-22 18 -36 47 -39 81c-4 34 4 66 22 91c19 27 46 43 77 46c25 3 44 -4 55 -19c12 -17 12 -42 -1 -68c-1 -2 -4 -3 -7 -2s-4 4 -3 7 c11 22 12 43 2 56c-8 12 -24 18 -45 16c-28 -3 -52 -18 -69 -42c-16 -23 -23 -53 -20 -83c7 -72 56 -99 98 -95c74 8 148 106 198 192c-33 4 -64 14 -91 29c-44 25 -75 63 -88 106c0 3 1 6 4 7s6 -1 7 -4c12 -40 41 -76 83 -99c27 -15 58 -25 92 -29c11 19 21 38 29 54 c17 34 34 70 48 105c3 85 19 152 38 167c6 4 11 4 15 2c7 -2 7 -13 6 -22c-3 -29 -21 -85 -48 -149c-1 -37 0 -79 4 -121v-1c0 -13 0 -26 1 -38v-1c3 -53 11 -96 24 -128c16 -41 42 -62 75 -62c57 0 69 42 70 43c0 3 3 4 6 3c3 0 5 -3 4 -6c0 -1 -15 -51 -80 -51 c-38 0 -67 23 -86 69c-13 31 -21 74 -24 126zM881 363l18 41c0 1 1 3 1 4l5 20c-1 1 -2 2 -2 3s-4 30 -28 30h-4c-22 -3 -46 -20 -63 -45c-20 -29 -28 -66 -24 -103c1 -15 5 -26 12 -33c5 -5 12 -8 21 -7c28 3 42 36 64 90zM675 548c-10 -21 -23 -36 -42 -39 c-13 -2 -34 6 -37 30c-2 10 1 20 7 28s16 13 26 15c15 2 28 -7 42 -19c9 25 15 57 21 87c1 9 3 17 5 25h-7c-41 0 -63 30 -65 48c-5 30 17 33 17 34c3 0 5 -2 6 -4c0 -3 -2 -5 -4 -5c-2 -1 -13 -3 -10 -24c2 -14 23 -44 64 -39c9 42 20 74 43 77c7 1 13 0 18 -4 c4 -4 7 -10 8 -17c2 -11 -4 -25 -14 -37c-8 -10 -23 -23 -47 -27c-2 -10 -4 -19 -5 -28c-6 -33 -12 -66 -22 -92l3 -3c26 -24 59 -53 115 -45c38 6 63 23 76 51c10 22 8 42 8 42c0 2 2 5 4 5c3 0 5 -2 5 -4c0 -1 2 -23 -8 -46c-10 -22 -32 -49 -83 -57c-8 -1 -15 -2 -21 -2 c-49 0 -78 27 -103 49v1zM1225 50c1 3 4 4 7 3s4 -4 3 -7c-1 -4 -33 -84 -105 -89h-4c-24 0 -49 16 -51 53c-4 49 16 79 29 92c13 15 31 23 46 23c23 0 36 -11 36 -32c2 -18 -10 -36 -32 -52c-20 -13 -44 -22 -69 -24c0 -2 0 -4 1 -6c2 -34 25 -44 44 -43c64 5 95 81 95 82z M977 365c1 -5 4 -31 14 -50c13 9 25 20 36 33c28 33 43 71 43 106c0 17 -9 27 -26 27c-14 0 -28 -8 -39 -21c-21 -23 -32 -59 -28 -95zM1025 89c-15 0 -39 -30 -64 -78c-1 -14 -3 -28 -5 -42c3 -6 14 -30 40 -28c32 3 50 66 47 108c-1 15 -3 26 -6 32s-6 8 -12 8zM1245 272 c9 10 13 24 11 40c-2 18 -16 39 -32 60c-34 -28 -61 -54 -58 -83c3 -20 18 -31 45 -31c13 0 25 5 34 14zM734 648c4 4 10 7 19 8c15 2 26 -6 28 -21c0 0 0 -1 1 -2c8 3 15 6 19 10c-4 7 -5 12 -3 17c1 2 3 5 9 6c3 0 6 -1 8 -3c3 -4 4 -9 1 -15c0 -2 -2 -4 -4 -7 c4 -5 8 -12 12 -16c10 -14 19 -27 21 -37c1 -9 -1 -18 -6 -25c-5 -6 -13 -11 -23 -12c-3 -1 -5 -1 -8 -1c-6 0 -13 1 -18 4c-8 4 -13 10 -14 18c-2 14 7 24 17 25c6 1 11 -1 15 -5c3 -4 3 -10 1 -15c-1 -3 -4 -4 -6 -3s-3 4 -2 6c1 3 0 5 -1 6c-1 2 -3 3 -6 2 c-5 -1 -10 -6 -9 -15c1 -4 4 -8 9 -11c6 -3 13 -3 20 -2c8 1 14 4 18 9s5 11 4 18s-11 21 -19 32c-5 6 -8 11 -11 16c-6 -4 -13 -8 -24 -11c-1 -10 -4 -22 -9 -32c-8 -18 -21 -29 -35 -32c-8 -1 -22 1 -26 22c-2 18 4 34 10 43c1 2 4 3 6 1c2 -1 3 -4 1 -6 c-5 -8 -10 -22 -8 -36c3 -15 10 -15 15 -14c21 3 34 31 36 51c-2 0 -4 0 -7 -1c-10 -1 -18 -1 -24 1c-9 2 -12 9 -12 13c-1 5 1 10 5 14zM1150 115c-12 0 -27 -8 -38 -21c-10 -10 -25 -32 -27 -66c22 2 45 10 63 22c18 13 28 29 27 42v1c0 9 -2 22 -25 22zM747 -187 c0 -29 25 -31 33 -31c26 0 44 26 57 61c-17 4 -31 6 -44 6c-27 0 -46 -14 -46 -36zM492 443c-16 -36 -34 -74 -54 -110l-12 -21c23 -2 46 -1 71 2c-1 11 -1 22 -1 34c-3 32 -5 64 -4 95zM982 642c-11 -28 -25 -68 -38 -111c-7 -23 -13 -47 -19 -68l6 13c23 50 46 101 62 142 c23 59 20 72 18 75c0 0 -1 1 -2 1c-2 -1 -9 -7 -27 -52zM947 -17c-10 -21 -20 -45 -30 -70c-10 -26 -19 -51 -25 -74l24 -8c13 42 23 92 29 138v1c1 4 2 8 2 13zM631 573c-9 -2 -16 -6 -21 -12c-4 -6 -6 -13 -5 -21c3 -17 17 -23 26 -22c16 2 28 16 36 36 c-12 11 -22 19 -33 19h-3zM745 754c-1 0 -2 -1 -3 -1c-17 -2 -26 -31 -34 -67c19 5 31 15 38 23c10 12 13 24 12 31c-1 5 -3 9 -5 11s-5 3 -8 3zM775 199c-1 1 -2 2 -4 2c-4 -4 -18 -33 -38 -97c5 1 10 2 15 2l14 34c17 43 15 55 13 59zM878 -246c2 0 14 4 32 56l3 11l-6 2 c-6 2 -12 4 -18 5l-6 -22c-10 -43 -5 -51 -5 -52zM540 631c-1 0 -2 0 -3 -1c-13 -10 -26 -59 -32 -126l14 38c21 61 23 84 21 89zM573 209c8 6 19 24 29 58c7 22 13 48 16 72c-27 -55 -43 -113 -45 -130zM878 -26c21 39 33 78 33 89c-15 -5 -24 -45 -33 -89zM773 631 c-1 1 -1 2 -1 3c-1 5 -4 13 -14 13h-4c-8 -1 -12 -4 -14 -6c-2 -1 -3 -4 -2 -5c0 -3 1 -5 6 -7c4 -1 11 -1 20 0zM729 92c-2 -5 -3 -11 -5 -17l-14 -50l6 12l26 57c-4 0 -8 -1 -13 -2zM1155 510c-2 -4 0 -14 6 -27c2 10 3 18 3 24c-1 6 -2 6 -4 6c-3 0 -4 -1 -5 -3z" />
<glyph horiz-adv-x="266" d="M88 -235l-22 41c19 13 34 26 38 47c-19 10 -30 24 -30 46c0 40 27 54 56 54c31 0 58 -14 58 -55c0 -50 -25 -102 -100 -133z" />
</font>
</defs>
</svg>
