<?xml version="1.0" standalone="no"?>
<!DOCTYPE svg PUBLIC "-//W3C//DTD SVG 1.1//EN" "http://www.w3.org/Graphics/SVG/1.1/DTD/svg11.dtd" >
<svg xmlns="http://www.w3.org/2000/svg" xmlns:xlink="http://www.w3.org/1999/xlink" version="1.1">
<metadata></metadata>
<defs>
<font id="darwinaltextralight_italic" horiz-adv-x="1089" >
<font-face units-per-em="2048" ascent="1536" descent="-512" />
<missing-glyph horiz-adv-x="473" />
<glyph horiz-adv-x="0" />
<glyph horiz-adv-x="682" />
<glyph unicode=" "  horiz-adv-x="473" />
<glyph unicode="&#x09;" horiz-adv-x="473" />
<glyph unicode="&#xa0;" horiz-adv-x="473" />
<glyph unicode="!" horiz-adv-x="442" d="M164 47q0 50 21.5 76.5t58.5 26.5q28 0 44.5 -17t16.5 -49q0 -49 -24 -76.5t-62 -27.5q-55 0 -55 67zM223 326l94 764l50 344h118l-49 -344l-119 -764h-94z" />
<glyph unicode="&#x22;" horiz-adv-x="499" d="M256 1155l35 381h131l-72 -381h-94zM477 1155l35 381h131l-72 -381h-94z" />
<glyph unicode="#" horiz-adv-x="1286" d="M113 428l37 102h266l129 373h-271l39 105h267l147 426h104l-145 -426h301l146 426h108l-149 -426h284l-39 -105h-278l-131 -373h282l-36 -102h-281l-148 -428h-104l145 428h-303l-143 -428h-104l145 428h-268zM522 530h303l125 373h-301z" />
<glyph unicode="$" horiz-adv-x="1095" d="M119 106l76 105q60 -48 148.5 -81t188.5 -36l84 594q-154 30 -241.5 111t-87.5 231q0 185 116 303.5t322 128.5l25 176h96l-25 -178q173 -17 316 -139l-80 -96q-117 94 -254 110l-76 -540q71 -16 126 -40t104.5 -63.5t76.5 -102.5t27 -145q0 -188 -120 -315.5 t-329 -153.5l-24 -180h-96l24 176q-127 1 -232 40.5t-165 94.5zM416 1047q0 -103 54 -155t165 -77l74 524q-143 -10 -218 -88t-75 -204zM631 100q139 22 219 108t80 210q0 193 -219 250z" />
<glyph unicode="%" horiz-adv-x="1683" d="M238 872l41 293q19 136 108.5 214.5t220.5 78.5q130 0 198 -79t48 -214l-41 -293q-19 -133 -108.5 -211.5t-219.5 -78.5q-131 0 -198.5 78.5t-48.5 211.5zM258 0l1298 1501l74 -67l-1300 -1495zM338 889q-15 -105 28.5 -161t131.5 -56q87 0 146.5 56t74.5 161l37 258 q15 105 -29 163t-131 58q-88 0 -147 -57.5t-74 -163.5zM1038 272l41 293q19 134 108.5 213.5t219.5 79.5q128 0 195.5 -79.5t48.5 -213.5l-41 -293q-19 -134 -108 -213t-218 -79q-130 0 -197.5 79t-48.5 213zM1135 289q-15 -105 28.5 -161t132.5 -56q88 0 147.5 56t74.5 161 l36 258q15 105 -28 162t-131 57q-89 0 -149 -57t-75 -162z" />
<glyph unicode="&#x26;" horiz-adv-x="1372" d="M166 250q0 70 26 138.5t62.5 119.5t92 103t98.5 83.5t98 67.5q-71 90 -111.5 168.5t-40.5 165.5q0 69 27 134t75.5 117t125 83.5t167.5 31.5q158 0 233 -72t75 -190q0 -51 -10 -94t-33.5 -81t-47.5 -67t-67 -63t-76 -57t-89 -61q-32 -21 -48 -32l295 -397q58 71 95.5 153 t47.5 146l121 -10q-19 -87 -70.5 -194t-119.5 -185l155 -199l-106 -86l-140 185q-92 -85 -213 -136t-243 -51q-379 0 -379 279zM295 274q0 -98 70.5 -143t191.5 -45q101 0 202 44t173 116l-322 428q-157 -104 -236 -199.5t-79 -200.5zM512 1108q0 -31 7 -59.5t24 -58 t30.5 -48.5t41 -54.5t40.5 -53.5q29 20 77.5 52.5t76.5 51.5t64 49.5t55 56.5t33 62.5t14 77.5q0 164 -205 164q-122 0 -190 -65.5t-68 -174.5z" />
<glyph unicode="'" horiz-adv-x="278" d="M256 1155l35 381h131l-72 -381h-94z" />
<glyph unicode="(" horiz-adv-x="573" d="M168 256l113 799q28 196 148 334t284 163l10 -110q-121 -17 -215 -133.5t-117 -282.5l-104 -741q-23 -166 38 -282.5t177 -133.5l-41 -111q-158 25 -239.5 162.5t-53.5 335.5z" />
<glyph unicode=")" horiz-adv-x="573" d="M35 -131q122 17 216.5 133.5t117.5 282.5l102 741q23 166 -38 282.5t-177 133.5l43 110q157 -25 238 -163t53 -334l-113 -799q-28 -198 -147 -335.5t-285 -162.5z" />
<glyph unicode="*" horiz-adv-x="882" d="M252 1161l53 119l254 -96l35 297h121l-47 -297l274 96l21 -119l-283 -86l139 -241l-106 -72l-125 250l-197 -250l-84 72l207 243z" />
<glyph unicode="+" horiz-adv-x="1157" d="M193 559l16 123h407l68 471h117l-68 -471h406l-17 -123h-405l-66 -471h-116l65 471h-407z" />
<glyph unicode="," horiz-adv-x="350" d="M35 -125q89 63 100 113q-49 22 -49 75q0 56 34 84.5t79 28.5q37 0 60.5 -21t23.5 -65q0 -82 -53.5 -161.5t-163.5 -123.5z" />
<glyph unicode="-" horiz-adv-x="755" d="M195 561l16 121h526l-16 -121h-526z" />
<glyph unicode="." horiz-adv-x="350" d="M88 66q0 49 31.5 79.5t81.5 30.5q38 0 61 -22.5t23 -59.5q0 -50 -31.5 -81t-79.5 -31q-40 0 -63 23t-23 61z" />
<glyph unicode="/" horiz-adv-x="911" d="M-14 -225l1042 1800l88 -39l-1044 -1798z" />
<glyph unicode="0" horiz-adv-x="1110" d="M184 416l84 602q29 204 165 324t331 120t297.5 -120t73.5 -324l-84 -602q-29 -204 -166 -324.5t-332 -120.5t-296.5 120.5t-72.5 324.5zM313 444q-24 -169 45 -257.5t213 -88.5t238.5 88.5t118.5 257.5l76 545q24 168 -45.5 257t-213.5 89t-238 -88.5t-118 -257.5z" />
<glyph unicode="1" horiz-adv-x="569" d="M59 0l17 123h211l162 1145l-216 -135l-61 100l317 201h109l-184 -1311h192l-16 -123h-531z" />
<glyph unicode="2" horiz-adv-x="1101" d="M115 0l12 94q210 191 311 284.5t221.5 210t166.5 172t93.5 126.5t59.5 119.5t12 107.5q0 100 -57.5 161.5t-179.5 61.5q-111 0 -191 -28.5t-164 -85.5l-53 94q99 70 199 107.5t225 37.5q180 0 268 -88t88 -237q0 -76 -19 -147t-72.5 -153t-102.5 -145t-159.5 -170.5 t-189 -179.5t-241.5 -217h678l-19 -125h-886z" />
<glyph unicode="3" horiz-adv-x="1083" d="M121 117l78 100q77 -58 155.5 -90.5t186.5 -32.5q93 0 160.5 27t107 78t58 116t18.5 148q0 126 -60 184t-159 58h-150l16 118h150q124 0 197 86.5t73 212.5q0 97 -56 157t-175 60q-110 0 -189.5 -29t-164.5 -87l-54 94q99 70 199 107.5t225 37.5q173 0 257.5 -86 t84.5 -229q0 -111 -51.5 -209t-142.5 -168q71 -30 113.5 -130.5t25.5 -205.5l-8 -49q-31 -191 -154 -302.5t-338 -111.5q-228 0 -403 146z" />
<glyph unicode="4" horiz-adv-x="1118" d="M117 291l14 96l664 1047h139l-631 -1018h541l84 598h125l-84 -598h157l-18 -125h-158l-41 -291h-125l41 291h-708z" />
<glyph unicode="5" horiz-adv-x="1087" d="M123 117l78 100q77 -58 155.5 -90.5t186.5 -32.5q144 0 232 77.5t110 211.5l8 49q26 166 -36.5 237.5t-199.5 71.5q-80 0 -167 -27t-152 -67l-88 66l188 721h660l-17 -125h-549l-129 -514q128 73 271 73q200 0 292.5 -102t65.5 -309l-10 -78q-25 -184 -156.5 -296 t-339.5 -112q-228 0 -403 146z" />
<glyph unicode="6" horiz-adv-x="1130" d="M178 371l90 647q29 203 165 323.5t335 120.5q126 0 217 -38t168 -107l-78 -94q-72 58 -141.5 86t-179.5 28q-149 0 -244.5 -90t-120.5 -258l-37 -258q73 54 172.5 85.5t194.5 31.5q403 0 354 -391l-8 -68q-25 -199 -163 -308.5t-337 -109.5q-202 0 -308.5 101t-78.5 299z M307 412q-24 -164 51.5 -239t225.5 -75q168 0 266 98.5t98 299.5q0 122 -60 173.5t-186 51.5q-99 0 -199 -33.5t-169 -89.5z" />
<glyph unicode="7" horiz-adv-x="905" d="M188 0l717 1309h-680l17 125h833l-12 -97l-733 -1337h-142z" />
<glyph unicode="8" horiz-adv-x="1153" d="M172 385l8 47q17 103 90 197.5t164 138.5q-64 46 -98.5 122t-34.5 157q0 83 29.5 156.5t86.5 132t150.5 92.5t212.5 34q189 0 284 -89t95 -234q0 -109 -60 -206t-163 -161q81 -37 129 -136.5t31 -203.5l-9 -47q-14 -87 -51.5 -159.5t-99 -130.5t-155 -91t-210.5 -33 q-116 0 -201 33t-130.5 91t-62.5 131t-5 159zM311 389q-8 -62 2 -112.5t40 -92t90 -64t147 -22.5q170 0 258 80.5t104 210.5l2 17q17 134 -50 218.5t-195 84.5h-66q-126 0 -218.5 -85t-111.5 -218zM428 1053q0 -100 66.5 -167t179.5 -67h26q138 0 234 88t96 211 q0 98 -65.5 160.5t-200.5 62.5q-85 0 -151.5 -24.5t-105.5 -65.5t-59 -91.5t-20 -106.5z" />
<glyph unicode="9" horiz-adv-x="1124" d="M166 109l78 94q67 -54 140.5 -80.5t186.5 -26.5q147 0 245.5 91t121.5 257l33 238q-131 -76 -355 -76q-200 0 -289 98t-63 291l8 60q28 199 161.5 303t332.5 104q203 0 308 -97.5t77 -295.5l-92 -653q-29 -202 -167 -323.5t-335 -121.5q-236 0 -391 138zM387 956 q0 -120 61 -171.5t187 -51.5q212 0 354 78l31 215q45 309 -272 309q-169 0 -265 -91t-96 -288z" />
<glyph unicode=":" horiz-adv-x="350" d="M88 66q0 49 31.5 79.5t81.5 30.5q38 0 61 -22.5t23 -59.5q0 -50 -31.5 -81t-79.5 -31q-40 0 -63 23t-23 61zM227 1055q0 49 31.5 79.5t81.5 30.5q38 0 61 -22.5t23 -59.5q0 -50 -31.5 -81t-79.5 -31q-40 0 -63 23t-23 61z" />
<glyph unicode=";" horiz-adv-x="350" d="M35 -125q89 63 100 113q-49 22 -49 75q0 56 34 84.5t79 28.5q37 0 60.5 -21t23.5 -65q0 -82 -53.5 -161.5t-163.5 -123.5zM227 1055q0 49 31.5 79.5t81.5 30.5q38 0 61 -22.5t23 -59.5q0 -50 -31.5 -81t-79.5 -31q-40 0 -63 23t-23 61z" />
<glyph unicode="&#x3c;" horiz-adv-x="690" d="M188 512l17 123l438 420l72 -76l-410 -406l295 -405l-92 -74z" />
<glyph unicode="=" horiz-adv-x="1136" d="M156 289l16 123h909l-16 -123h-909zM225 778l17 123h909l-16 -123h-910z" />
<glyph unicode="&#x3e;" horiz-adv-x="690" d="M139 168l412 405l-297 406l94 76l322 -420l-17 -123l-440 -418z" />
<glyph unicode="?" horiz-adv-x="935" d="M256 1331q82 64 174.5 97.5t218.5 33.5q183 0 265.5 -94t64.5 -242l-4 -32q-8 -65 -28.5 -118.5t-57 -100.5t-67.5 -78.5t-85 -79.5q-62 -55 -94 -86t-64 -71.5t-47 -79t-22 -87.5l-10 -76h-121l10 72q9 59 23.5 106t28.5 77.5t44 66t48 53t63.5 58t69.5 63.5 q79 76 118.5 140t57.5 153l4 16q22 98 -30.5 161t-182.5 63q-190 0 -328 -99zM313 66q0 49 31.5 79.5t81.5 30.5q38 0 61 -22.5t23 -59.5q0 -50 -31.5 -81t-79.5 -31q-40 0 -63 23t-23 61z" />
<glyph unicode="@" horiz-adv-x="1454" d="M171.5 223q-23.5 81 4.5 185l170 620q37 133 143.5 233.5t248 151.5t294.5 51q114 0 209 -29t159 -84.5t88 -136.5t-3 -186l-129 -463q-70 -246 -258 -246q-68 0 -103.5 35t-38.5 99q-49 -52 -126.5 -93t-133.5 -41q-119 0 -161.5 70.5t-6.5 202.5l68 252 q35 131 116.5 199.5t202.5 68.5h289l-149 -553q-23 -78 -9 -117t72 -39q59 0 95.5 37.5t58.5 116.5l123 453q23 92 2 161t-79 114.5t-137 68t-173 22.5q-128 0 -245.5 -38.5t-211.5 -123t-127 -202.5l-162 -586q-24 -92 -3 -161t79 -115t137.5 -68.5t173.5 -22.5 q133 0 283 54l10 -80q-153 -62 -317 -62q-113 0 -207.5 29.5t-158.5 85.5t-87.5 137zM608.5 453q25.5 -54 114.5 -54q58 0 130 44.5t112 95.5l133 497h-201q-88 0 -140.5 -52t-82.5 -157l-58 -217q-33 -103 -7.5 -157z" />
<glyph unicode="A" horiz-adv-x="1144" d="M14 0l709 1288l-27 146h125l307 -1434h-139l-74 369h-565l-196 -369h-140zM414 485h477l-129 648z" />
<glyph unicode="B" horiz-adv-x="1128" d="M143 63l193 1371h467q201 0 289 -78q70 -62 70 -184q0 -32 -5 -68l-10 -82q-10 -69 -62 -143t-131 -115q75 -36 118 -118q33 -63 33 -135q0 -22 -3 -44l-19 -127q-22 -151 -149 -245.5t-332 -94.5q-131 0 -232 14t-227 49zM283 166q104 -24 172 -34q62 -9 142 -9h17 q149 1 241.5 68.5t107.5 175.5l10 71q4 25 4 48q-1 82 -49 136q-62 68 -180 68h-392zM373 813h372q110 0 190 62t91 176l2 20q3 31 3 57q1 36 -5 62q-10 46 -41.5 72.5t-77 36.5t-119.5 10h-346z" />
<glyph unicode="C" horiz-adv-x="1036" d="M182 414l84 606q29 200 172.5 321t341.5 121q129 0 206 -34t155 -103l-82 -92q-47 38 -79 57.5t-88.5 35t-129.5 15.5q-146 0 -248 -93t-125 -257l-76 -549q-5 -38 -5 -73q0 -113 58 -184q76 -93 220 -93q105 0 174 26.5t153 82.5l58 -92q-99 -70 -186.5 -104t-215.5 -34 q-198 -1 -307 121q-86 96 -86 241q0 39 6 81z" />
<glyph unicode="D" horiz-adv-x="1159" d="M145 68l193 1366h479q195 0 291 -120q75 -93 74 -236q0 -41 -6 -87l-76 -549q-28 -205 -163.5 -323.5t-350.5 -118.5q-222 0 -441 68zM285 164q147 -41 319 -41q163 0 257.5 88.5t117.5 257.5l70 496q6 44 6 82q0 107 -48 173q-65 88 -208 89h-355z" />
<glyph unicode="E" horiz-adv-x="985" d="M135 0l201 1434h770l-16 -125h-646l-71 -514h538l-18 -123h-539l-78 -549h662l-16 -123h-787z" />
<glyph unicode="F" horiz-adv-x="956" d="M135 0l201 1434h770l-16 -125h-646l-79 -561h540l-16 -123h-541l-88 -625h-125z" />
<glyph unicode="G" horiz-adv-x="1134" d="M182 416l84 604q29 200 172.5 321t343.5 121q139 0 225 -35t162 -102l-82 -92q-68 55 -137.5 81.5t-183.5 26.5q-148 0 -251 -93t-126 -257l-78 -547q-6 -41 -6 -78q0 -111 51 -180q69 -94 207 -94q101 0 198 43.5t173 134.5l51 365h-303l14 115h428l-106 -770h-96 l-9 145q-87 -71 -179.5 -112.5t-207.5 -41.5q-185 0 -278 121q-72 94 -72 235q0 42 6 89z" />
<glyph unicode="H" horiz-adv-x="1167" d="M135 0l201 1434h125l-88 -627h651l88 627h125l-201 -1434h-125l97 684h-652l-96 -684h-125z" />
<glyph unicode="I" horiz-adv-x="391" d="M135 0l201 1434h125l-201 -1434h-125z" />
<glyph unicode="J" horiz-adv-x="569" d="M188 -221q111 93 134 274l194 1381h125l-199 -1409q-27 -209 -190 -332z" />
<glyph unicode="K" horiz-adv-x="1019" d="M135 0l201 1434h125l-113 -807l709 807h153l-575 -658l289 -594q25 -52 54 -76t56 -23t58 9l-15 -100q-46 -11 -84 -11q-21 -1 -40 3q-52 10 -90.5 52t-82.5 136l-239 502l-222 -252l-59 -422h-125z" />
<glyph unicode="L" horiz-adv-x="942" d="M135 0l201 1434h125l-185 -1311h672l-16 -123h-797z" />
<glyph unicode="M" horiz-adv-x="1396" d="M135 0l201 1434h110l322 -934l584 934h114l-200 -1434h-125l166 1151l-523 -829h-86l-282 817l-156 -1139h-125z" />
<glyph unicode="N" horiz-adv-x="1202" d="M135 0l201 1434h129l516 -1196l166 1196h125l-201 -1434h-131l-518 1196l-162 -1196h-125z" />
<glyph unicode="O" horiz-adv-x="1185" d="M184 414l84 606q29 201 181 321.5t354 120.5q97 0 178 -31t137 -87t80 -140q16 -53 15 -113q0 -34 -5 -71l-84 -606q-29 -201 -180.5 -322t-351.5 -121q-132 0 -230 53q-99 52 -148 154q-35 73 -35 164q0 35 5 72zM313 442q-5 -36 -5 -68q0 -116 67 -188q86 -92 235 -92 t260.5 92t133.5 256l75 549q5 36 5 69q0 116 -66 187q-85 92 -234 92t-260 -92t-135 -256z" />
<glyph unicode="P" horiz-adv-x="1126" d="M135 0l201 1434h479q195 0 293 -120q75 -92 75 -234q0 -42 -7 -89l-15 -100q-29 -203 -159 -322.5t-324 -119.5q-204 0 -348 49l-70 -498h-125zM346 612q128 -41 348 -41q143 0 233.5 90t112.5 257l7 47q6 43 6 80q0 109 -48 175q-64 88 -206 89h-355z" />
<glyph unicode="Q" horiz-adv-x="1185" d="M184 414l84 606q29 201 181 321.5t354 120.5q97 0 178 -31t136.5 -87t80.5 -140q15 -53 15 -113q0 -35 -5 -71l-84 -606q-29 -201 -180.5 -322t-351.5 -121q-132 0 -230.5 53t-147.5 154q-35 74 -35 164q0 35 5 72zM313 442q-5 -36 -5 -68q0 -116 67 -188q86 -92 235 -92 t260.5 92t133.5 256l75 549q5 36 5 69q0 115 -66 187q-85 92 -234 92t-260 -92t-135 -256zM348 -188q33 36 97.5 65t132.5 29q43 0 82 -14.5t62.5 -32.5t54.5 -32.5t61 -14.5q87 0 172 55l39 -78q-37 -40 -100 -67t-128 -27q-44 0 -82.5 14.5t-62 31.5t-57 31.5t-68.5 14.5 q-81 0 -162 -57z" />
<glyph unicode="R" horiz-adv-x="1126" d="M135 0l201 1434h479q191 0 291 -108q82 -88 82 -214q0 -28 -4 -57l-10 -80q-17 -134 -120 -236t-255 -131l170 -426q16 -41 36.5 -64.5t44.5 -29.5t43 -4.5t46 8.5l-15 -100q-56 -11 -99 -11q-15 0 -28 1q-53 5 -93.5 49t-76.5 141l-163 428q-192 0 -314 37l-90 -637 h-125zM367 754q147 -37 348 -37q138 0 227.5 80.5t110.5 206.5l4 24q5 29 5 55q0 90 -54 149q-68 77 -209 77h-355z" />
<glyph unicode="S" horiz-adv-x="1079" d="M119 106l76 105q62 -49 154.5 -83t195.5 -34q177 0 281 91t104 233q0 117 -72.5 178t-212.5 86q-81 14 -142.5 38t-112 64t-77 102t-26.5 144q0 193 126 312.5t345 119.5q124 0 212.5 -36.5t166.5 -104.5l-80 -96q-68 55 -142.5 84.5t-173.5 29.5q-158 0 -241.5 -79.5 t-83.5 -212.5q0 -113 64 -165t200 -77q62 -12 111.5 -27t102 -43.5t87.5 -66t57.5 -95.5t22.5 -131q0 -206 -144.5 -338.5t-388.5 -132.5q-132 0 -240.5 39.5t-168.5 95.5z" />
<glyph unicode="T" horiz-adv-x="954" d="M199 1311l16 123h928l-17 -123h-401l-184 -1311h-125l184 1311h-401z" />
<glyph unicode="U" horiz-adv-x="1157" d="M182 377l150 1057h127l-146 -1028q-7 -48 -7 -88q0 -100 42 -154q58 -74 205 -74q112 0 220 61t171 142l160 1141h125l-178 -1264q-4 -29 1.5 -47.5t16.5 -26.5t29.5 -9.5t34 1t36.5 8.5l-14 -104q-57 -12 -99 -12q-50 0 -80 18q-54 32 -54 143q-178 -170 -390 -170 q-357 0 -357 314q0 43 7 92z" />
<glyph unicode="V" horiz-adv-x="1105" d="M217 1434h141l217 -1284l578 1284h137l-669 -1434h-136z" />
<glyph unicode="W" horiz-adv-x="1769" d="M217 1434h133l170 -1287l496 1287h145l137 -1287l521 1287h135l-611 -1434h-141l-137 1276l-494 -1276h-143z" />
<glyph unicode="X" horiz-adv-x="1046" d="M12 0l533 723l-324 711h148l268 -621l446 621h144l-522 -709l329 -725h-147l-273 635l-456 -635h-146z" />
<glyph unicode="Y" horiz-adv-x="1028" d="M219 1434h139l248 -789l469 789h137l-563 -926l-69 -508h-125l69 504z" />
<glyph unicode="Z" horiz-adv-x="1044" d="M68 0l10 76q198 212 346 389.5t299.5 404t247.5 441.5h-697l17 123h858l-10 -78q-309 -625 -860 -1233h718l-16 -123h-913z" />
<glyph unicode="[" horiz-adv-x="528" d="M125 -225l248 1761h297l-17 -113h-184l-215 -1536h184l-16 -112h-297z" />
<glyph unicode="\" horiz-adv-x="911" d="M231 1536l101 39l534 -1800l-96 -37z" />
<glyph unicode="]" horiz-adv-x="528" d="M47 -225l16 112h185l215 1536h-184l16 113h299l-248 -1761h-299z" />
<glyph unicode="^" horiz-adv-x="694" d="M231 1106l269 405h123l153 -405l-102 -43l-127 358l-228 -358z" />
<glyph unicode="_" horiz-adv-x="968" d="M-16 -227l14 106h938l-14 -106h-938z" />
<glyph unicode="`" horiz-adv-x="520" d="M311 1450l123 63l129 -280l-90 -53z" />
<glyph unicode="a" d="M197 385l39 285q28 196 145.5 305.5t302.5 109.5q143 0 285 -67l28 47h88l-124 -895q-4 -31 1.5 -50.5t16.5 -27.5t30 -9.5t34.5 1t37.5 8.5l-14 -100q-50 -12 -90 -12q-141 0 -141 149q-158 -149 -336 -149q-174 0 -252 105q-58 79 -58 208q0 43 7 92zM319 414 q-7 -51 -8 -95q1 -91 33 -146q46 -81 176 -81q89 0 178.5 54.5t159.5 136.5l88 626q-112 62 -278 62q-274 0 -318 -326z" />
<glyph unicode="b" d="M156 0l18 125l4 29l193 1382h118l-83 -598q163 147 327 147q178 1 260 -105q61 -79 61 -207q0 -44 -7 -93l-41 -285q-28 -195 -148.5 -305t-306.5 -110q-156 0 -289 81l-22 -61h-84zM299 172q144 -78 266 -78q137 0 220 82.5t106 243.5l33 231q7 50 7 93q0 93 -33 148 q-48 81 -181 81q-85 0 -176 -58t-156 -133z" />
<glyph unicode="c" horiz-adv-x="1017" d="M199 395l39 275q28 195 150 305t308 110q122 0 195.5 -32.5t148.5 -98.5l-73 -84q-63 52 -125 77.5t-162 25.5q-136 0 -221 -84t-107 -244l-30 -225q-6 -44 -7 -82q0 -101 45 -162q61 -84 197 -84q166 0 320 103l45 -89q-174 -126 -381 -126q-187 0 -279 110 q-70 85 -70 219q0 41 7 86z" />
<glyph unicode="d" d="M197 385l39 285q28 198 139 306.5t295 108.5q165 0 291 -63l73 514h119l-192 -1366q-4 -31 1.5 -50.5t16.5 -27.5t30 -9.5t34.5 1t37.5 8.5l-14 -100q-50 -12 -90 -12q-141 0 -141 149q-158 -149 -336 -149q-174 0 -252 105q-58 79 -58 208q0 43 7 92zM319 414 q-7 -51 -8 -95q1 -91 33 -146q46 -81 176 -81q89 0 178.5 54.5t159.5 136.5l88 624q-55 30 -135 48t-158 18q-134 0 -207.5 -82t-95.5 -246z" />
<glyph unicode="e" horiz-adv-x="1083" d="M199 395l39 275q28 194 150.5 304.5t309.5 110.5q188 -1 280 -111q71 -85 71 -218q0 -41 -7 -86l-24 -172h-686l-10 -76q-6 -43 -6 -80q0 -104 45 -166q61 -84 198 -84q186 0 340 103l45 -89q-72 -53 -177 -89.5t-224 -36.5q-187 0 -279 110q-71 85 -72 219q0 41 7 86z M350 608h565l5 35q5 40 5 75q0 108 -46 170q-61 84 -197 83q-138 0 -223 -84t-105 -244z" />
<glyph unicode="f" horiz-adv-x="698" d="M111 -307l178 1261h-137l14 111h137l16 117q26 183 133 274.5t285 91.5q73 0 144 -22l-35 -99q-69 15 -123 15q-127 0 -196.5 -63t-86.5 -191l-16 -123h352l-14 -111h-354l-179 -1261h-118z" />
<glyph unicode="g" d="M135 -201l70 88q54 -45 134.5 -73.5t176.5 -28.5q273 0 313 285l19 135q-151 -139 -328 -139q-180 0 -258 100q-59 74 -59 202q0 43 6 91l31 221q28 195 136.5 300t289.5 105q166 0 305 -67l26 47h90l-143 -1020q-25 -183 -146 -278t-298 -95q-118 0 -212 37t-153 90z M330 487q-7 -50 -7 -91q0 -92 33 -144q49 -76 183 -76q87 0 176.5 49t152.5 121l78 563q-128 64 -293 64q-134 0 -206.5 -81t-94.5 -241z" />
<glyph unicode="h" horiz-adv-x="1079" d="M156 0l215 1536h118l-83 -598q163 147 319 147q314 0 314 -292q0 -44 -7 -95l-78 -557q-1 -6 -1 -12q0 -47 59 -47q32 0 65 10l-14 -100q-50 -12 -94 -12q-137 0 -137 118q0 15 2 31l75 543q7 54 7 97q0 88 -29 136q-44 72 -176 72q-86 0 -173.5 -52.5t-150.5 -125.5 l-113 -799h-118z" />
<glyph unicode="i" horiz-adv-x="425" d="M156 0l149 1065h119l-150 -1065h-118zM305 1356q0 49 32.5 79.5t82.5 30.5q38 0 61 -22.5t23 -59.5q0 -50 -32.5 -81t-80.5 -31q-40 0 -63 23t-23 61z" />
<glyph unicode="j" horiz-adv-x="423" d="M-117 -227q132 7 197 84.5t86 232.5l135 975h121l-141 -999q-26 -183 -128 -284t-266 -110zM305 1356q0 49 31.5 79.5t81.5 30.5q38 0 61 -22.5t23 -59.5q0 -50 -31.5 -81t-79.5 -31q-40 0 -63 23t-23 61z" />
<glyph unicode="k" horiz-adv-x="950" d="M156 0l215 1536h118l-145 -1040l590 569h156l-472 -449l179 -434q17 -40 38 -63.5t45.5 -30t44.5 -4.5t46 8l-15 -100q-53 -12 -94 -12q-16 0 -29 2q-50 6 -87 48.5t-78 141.5l-146 354l-200 -194l-48 -332h-118z" />
<glyph unicode="l" horiz-adv-x="425" d="M172 129l199 1407h118l-196 -1395q-1 -6 -1 -12q0 -47 58 -47q30 0 68 10l-15 -100q-53 -12 -96 -12q-137 0 -137 118q0 15 2 31z" />
<glyph unicode="m" horiz-adv-x="1660" d="M156 0l149 1065h98l-2 -135q162 155 310 155q104 0 172.5 -53.5t83.5 -142.5q91 98 181.5 147t194.5 49q175 0 233 -96q38 -64 37 -175q0 -56 -9 -124l-76 -549q-1 -6 -1 -12q0 -47 58 -47q33 0 66 10l-15 -100q-50 -12 -94 -12q-72 0 -109 36q-29 27 -29 79q0 16 3 34 l74 522q12 85 12 147q-1 17 -1 33q-4 71 -43 105.5t-122 34.5q-183 0 -328 -197l-108 -774h-117l90 641q8 55 8 102q0 91 -30 147q-45 86 -144 87q-85 0 -169.5 -53.5t-143.5 -130.5l-111 -793h-118z" />
<glyph unicode="n" horiz-adv-x="1087" d="M156 0l149 1065h98l-2 -135q73 69 159.5 112t170.5 43q307 0 306 -298q0 -47 -7 -101l-76 -545q-1 -6 -1 -12q0 -47 59 -47q32 0 65 10l-14 -100q-50 -12 -94 -12q-137 0 -137 118q0 15 2 31l73 530q8 59 8 106q-1 85 -27 135q-42 76 -173 77q-85 0 -176 -55.5 t-154 -128.5l-111 -793h-118z" />
<glyph unicode="o" horiz-adv-x="1087" d="M199 395l39 275q28 194 150.5 304.5t309.5 110.5q188 -1 280 -111q71 -85 70 -218q0 -41 -6 -86l-38 -275q-28 -194 -151 -304.5t-310 -110.5t-279 110q-71 85 -72 219q0 41 7 86zM322 420q-6 -44 -7 -81q-1 -101 45 -162q62 -83 199 -83t222 83t108 243l31 225 q6 44 6 81q0 101 -44 162q-62 83 -200 83q-137 0 -222 -83t-108 -243z" />
<glyph unicode="p" d="M113 -307l192 1372h98l-2 -135q73 70 160 112.5t174 42.5q178 0 259 -105q60 -79 60 -206q0 -44 -7 -94l-41 -285q-28 -195 -149.5 -305t-309.5 -110q-145 0 -268 47l-48 -334h-118zM295 147q101 -53 272 -53q137 0 219 82.5t105 243.5l33 231q7 50 7 93q0 92 -33 148 q-48 81 -181 81q-86 0 -178 -54t-154 -126z" />
<glyph unicode="q" d="M197 385l39 285q28 195 149 305t307 110q135 0 277 -67l28 47h88l-192 -1372h-119l62 434q-160 -147 -328 -147q-178 0 -258 105q-59 79 -59 209q0 43 6 91zM319 414q-7 -50 -7 -93q0 -92 33 -148q48 -81 181 -81q85 0 176 58t156 133l88 626q-112 62 -270 62 q-137 0 -220.5 -83t-105.5 -243z" />
<glyph unicode="r" horiz-adv-x="606" d="M156 0l149 1065h98l-4 -141q151 161 338 161l-6 -114q-97 0 -187.5 -52t-160.5 -141l-109 -778h-118z" />
<glyph unicode="s" horiz-adv-x="956" d="M117 106l69 89q54 -45 135.5 -74t176.5 -29q141 0 218 67.5t77 159.5q0 67 -48 106t-153 56q-49 8 -77.5 13t-70.5 16t-66.5 22.5t-53 31.5t-44 44t-26 59t-10.5 78q0 147 103 243.5t294 96.5q113 0 193 -33t151 -94l-67 -88q-134 103 -293 103q-139 0 -199.5 -58.5 t-60.5 -150.5q0 -36 12.5 -62.5t31 -43t52.5 -29t63.5 -18.5t77.5 -13q58 -9 99 -19t84 -29.5t69 -46t42.5 -68.5t16.5 -97q0 -146 -120 -252t-312 -106q-118 0 -211.5 36.5t-152.5 89.5z" />
<glyph unicode="t" horiz-adv-x="507" d="M100 954l17 111h186l29 203h119l-29 -203h227l-16 -111h-227l-74 -524q-9 -62 -9 -116q0 -70 15 -124q26 -98 92 -190h-141q-87 121 -87 296q0 55 9 116l76 542h-187z" />
<glyph unicode="u" horiz-adv-x="1071" d="M203 369l98 696h119l-94 -668q-7 -52 -7 -94q-1 -87 29 -137q44 -74 162 -74q89 0 176 54.5t158 136.5l108 782h119l-125 -895q-5 -38 4 -59t30 -25.5t40.5 -2.5t46.5 9l-14 -100q-51 -12 -90 -12q-142 0 -142 149q-158 -149 -332 -149q-161 0 -237 100q-56 73 -56 196 q0 43 7 93z" />
<glyph unicode="v" horiz-adv-x="923" d="M166 1065h127l188 -936l451 936h125l-529 -1065h-133z" />
<glyph unicode="w" horiz-adv-x="1439" d="M166 1065h125l129 -922l381 922h141l119 -922l387 922h125l-473 -1065h-125l-125 928l-391 -928h-121z" />
<glyph unicode="x" horiz-adv-x="940" d="M18 0l449 543l-281 522h146l225 -436l352 436h146l-428 -516l295 -549h-144l-241 463l-375 -463h-144z" />
<glyph unicode="y" horiz-adv-x="1107" d="M139 -205l60 90q150 -102 321 -102q129 0 216 69t108 218l18 131q-150 -135 -332 -135t-260 102q-56 74 -56 201q0 45 7 98l84 598h121l-82 -578q-7 -54 -7 -99q0 -88 29 -137q44 -73 179 -73q87 0 183.5 49t154.5 117l100 721h119l-144 -1022q-25 -180 -150 -275.5 t-302 -95.5q-219 0 -367 123z" />
<glyph unicode="z" horiz-adv-x="886" d="M76 0l14 96q102 92 170.5 156.5t154.5 155t146.5 168.5t120.5 176t104 200h-565l17 113h708l-10 -74q-81 -181 -188.5 -340t-217.5 -278.5t-264 -259.5h572l-17 -113h-745z" />
<glyph unicode="{" horiz-adv-x="681" d="M158 592l18 127h60q90 0 153 72.5t82 201.5l39 262q21 148 93.5 214.5t199.5 66.5h24l-14 -102h-8q-99 0 -137.5 -47t-53.5 -158l-36 -264q-36 -244 -201 -310q147 -69 112 -307l-36 -266q-15 -112 10 -158.5t123 -46.5h8l-14 -102h-25q-128 0 -182 66.5t-33 213.5 l37 262q18 129 -25.5 202t-134.5 73h-59z" />
<glyph unicode="|" horiz-adv-x="407" d="M104 -348l271 1925h102l-270 -1925h-103z" />
<glyph unicode="}" horiz-adv-x="681" d="M43 -225l14 102h9q99 0 137 47t53 158l37 266q31 237 201 307q-73 34 -101.5 113t-11.5 197l37 264q15 112 -10 158.5t-123 46.5h-9l15 102h26q126 0 180 -67t33 -214l-36 -262q-18 -128 26 -201t133 -73h60l-19 -127h-59q-89 0 -154.5 -73.5t-83.5 -201.5l-37 -262 q-21 -148 -92.5 -214t-197.5 -66h-27z" />
<glyph unicode="~" horiz-adv-x="1177" d="M201 600q29 94 109 158.5t184 64.5q53 0 113.5 -24.5t106 -54t101 -54t98.5 -24.5q52 0 92.5 39t59.5 94l104 -19q-25 -99 -100 -162t-188 -63q-53 0 -111 25t-101 55t-100 55t-108 25q-55 0 -95 -39t-57 -94z" />
<glyph unicode="&#xa1;" horiz-adv-x="442" d="M164 0l49 344l119 764h94l-94 -764l-49 -344h-119zM346 1348q0 50 21.5 78t58.5 28q61 0 61 -70q0 -49 -23.5 -74.5t-62.5 -25.5q-55 0 -55 64z" />
<glyph unicode="&#xa2;" horiz-adv-x="1017" d="M231 618l27 193q26 182 136 291t278 123l30 209h107l-31 -209q95 -8 158 -40t125 -89l-72 -84q-54 44 -103.5 68t-121.5 32l-113 -793q133 13 258 99l45 -88q-151 -108 -319 -125l-29 -205h-106l28 205q-164 14 -243.5 122.5t-53.5 290.5zM352 643q-22 -146 28.5 -229 t164.5 -97l112 795q-117 -14 -189.5 -96.5t-94.5 -229.5z" />
<glyph unicode="&#xa3;" horiz-adv-x="1019" d="M76 0l16 113q82 49 139 133.5t72 187.5l31 225h-166l18 123h166l51 367q56 399 455 399q129 0 250 -59l-51 -92q-98 45 -213 45q-145 0 -222.5 -69t-99.5 -218l-53 -373h299l-18 -123h-297l-27 -192q-9 -66 -29 -125.5t-42 -97.5t-42 -66t-33 -40l-14 -13h703l-19 -125 h-874z" />
<glyph unicode="&#xa4;" horiz-adv-x="1159" d="M158 295l159 147q-34 87 -16 217l12 95q18 127 78 215l-119 149l90 80l113 -141q110 84 266 84t240 -84l154 141l67 -80l-164 -149q39 -88 21 -215l-15 -95q-18 -129 -79 -217l122 -147l-90 -80l-114 141q-110 -84 -265 -84q-158 0 -245 84l-148 -141zM412 680 q-23 -151 34 -230t187 -79q129 0 206.5 78t100.5 231l8 53q23 151 -34 230t-187 79q-129 0 -207 -78.5t-100 -230.5z" />
<glyph unicode="&#xa5;" horiz-adv-x="1024" d="M88 207l18 129h394l24 174h-393l19 129h374l-309 797l150 18l253 -704l443 684h153l-530 -795h375l-19 -129h-389l-24 -174h389l-19 -129h-389l-28 -207h-127l28 207h-393z" />
<glyph unicode="&#xa6;" horiz-adv-x="407" d="M104 -348l97 690h102l-96 -690h-103zM279 887l96 690h102l-96 -690h-102z" />
<glyph unicode="&#xa7;" horiz-adv-x="1015" d="M131 -80l68 82q50 -42 128 -69t169 -27q126 0 192.5 54t79.5 146l2 15q6 42 -9 73t-51.5 53t-79 36t-106.5 28q-59 13 -104.5 28.5t-92 42t-75 60.5t-42.5 84.5t-5 112.5l2 14q10 76 65 149.5t129 115.5q-121 91 -96 229l4 20q25 134 123 214.5t268 80.5q108 0 186 -32.5 t146 -92.5l-69 -80q-123 97 -279 97q-122 0 -180.5 -49.5t-73.5 -141.5l-2 -12q-6 -38 4.5 -68t31.5 -50.5t57.5 -37.5t72 -27.5t86.5 -21.5q56 -12 98 -25.5t88.5 -38t74.5 -56.5t43.5 -81.5t8.5 -111.5l-2 -21q-7 -68 -72 -143.5t-139 -118.5q138 -83 113 -229l-4 -23 q-23 -133 -129 -217t-279 -84q-113 0 -202.5 35.5t-147.5 87.5zM332 645q-17 -99 59 -150.5t285 -99.5q71 36 126 97.5t62 117.5l2 15q7 48 -9 84t-44.5 57t-71.5 37.5t-82 25t-85 20t-72 21.5q-61 -27 -110 -87.5t-58 -125.5z" />
<glyph unicode="&#xa8;" horiz-adv-x="774" d="M268 1286q0 49 31.5 80t81.5 31q38 0 61 -22.5t23 -59.5q0 -50 -31.5 -81.5t-79.5 -31.5q-40 0 -63 23t-23 61zM676 1286q0 49 31 80t81 31q38 0 61 -22.5t23 -59.5q0 -50 -31 -81.5t-79 -31.5q-40 0 -63 23t-23 61z" />
<glyph unicode="&#xa9;" horiz-adv-x="1386" d="M182 412l86 604q19 133 113.5 234.5t229.5 152.5t288 51t274 -51t187 -152.5t47 -234.5l-86 -604q-19 -135 -113.5 -237t-229.5 -153t-288 -51q-90 0 -172 19t-148.5 56.5t-112.5 89.5t-66 123t-9 153zM291 430q-12 -83 18.5 -150t91 -108t139 -62.5t167.5 -21.5 t172.5 21.5t154.5 62.5t119.5 107.5t60.5 150.5l80 567q12 84 -17.5 150.5t-89.5 107.5t-137.5 62.5t-166.5 21.5t-173.5 -21.5t-156.5 -62.5t-121 -108t-61 -150zM469 602l33 223q24 161 111 247.5t237 86.5q97 0 161.5 -27.5t123.5 -80.5l-64 -70q-51 42 -100.5 62 t-132.5 20q-110 0 -165.5 -63t-74.5 -197l-25 -176q-19 -134 18.5 -198t147.5 -64q83 0 137.5 19t120.5 62l43 -69q-73 -53 -145.5 -81t-169.5 -28q-150 0 -214 87t-42 247z" />
<glyph unicode="&#xaa;" horiz-adv-x="839" d="M190 760q0 82 26.5 140.5t75.5 90t108.5 45t136.5 13.5q102 0 219 -27l16 111q17 118 -19 165.5t-145 47.5q-151 0 -262 -68l-37 86q156 92 322 92q311 0 268 -297l-82 -596h-94l-6 92q-127 -108 -256 -108q-271 0 -271 213zM315 768q0 -133 152 -133q66 0 135 35.5 t117 91.5l24 176q-135 23 -221 23q-106 0 -156.5 -43.5t-50.5 -149.5z" />
<glyph unicode="&#xab;" horiz-adv-x="931" d="M133 530l12 84l312 297l57 -82l-270 -258l196 -256l-78 -82zM606 530l12 84l314 297l55 -82l-268 -258l194 -256l-75 -82z" />
<glyph unicode="&#xac;" horiz-adv-x="1302" d="M246 768l16 123h1032l-61 -451h-113l45 328h-919z" />
<glyph unicode="&#xad;" horiz-adv-x="755" d="M195 561l16 121h526l-16 -121h-526z" />
<glyph unicode="&#xae;" horiz-adv-x="1386" d="M182 412l86 604q19 133 113.5 234.5t229.5 152.5t288 51t274 -51t187 -152.5t47 -234.5l-86 -604q-19 -135 -113.5 -237t-229.5 -153t-288 -51q-90 0 -172 19t-148.5 56.5t-112.5 89.5t-66 123t-9 153zM291 430q-12 -83 18.5 -150t91 -108t139 -62.5t167.5 -21.5 t172.5 21.5t154.5 62.5t119.5 107.5t60.5 150.5l80 567q12 84 -17.5 150.5t-89.5 107.5t-137.5 62.5t-166.5 21.5t-173.5 -21.5t-156.5 -62.5t-121 -108t-61 -150zM459 289l119 850h303q127 0 191 -63.5t46 -182.5l-8 -53q-13 -88 -65.5 -148.5t-131.5 -87.5l162 -315h-133 l-154 307h-184l-43 -307h-102zM618 696h205q172 0 189 160l2 18q10 85 -26 121.5t-118 36.5h-204z" />
<glyph unicode="&#xaf;" horiz-adv-x="755" d="M289 1223l16 123h526l-16 -123h-526z" />
<glyph unicode="&#xb0;" horiz-adv-x="686" d="M260 1174l4 32q13 114 92.5 184t190.5 70q117 0 174 -68.5t43 -185.5l-4 -32q-15 -119 -92.5 -186.5t-196.5 -67.5q-112 0 -170 68t-41 186zM362 1147q0 -66 30 -101.5t89 -35.5q92 0 137.5 57.5t45.5 159.5q0 139 -134 139q-84 0 -126 -58t-42 -161z" />
<glyph unicode="&#xb1;" horiz-adv-x="1202" d="M150 88l18 125h930l-19 -125h-929zM231 674l19 125h405l50 348h116l-49 -348h408l-19 -125h-407l-49 -348h-117l49 348h-406z" />
<glyph unicode="&#xb2;" horiz-adv-x="821" d="M174 500l10 67l451 437q70 69 97.5 118t27.5 105q0 61 -37 99t-111 38q-82 0 -136 -20.5t-122 -63.5l-41 68q75 53 147.5 81.5t166.5 28.5q118 0 178.5 -59.5t60.5 -157.5q0 -48 -15 -93t-45.5 -87.5t-56.5 -71.5t-67 -69l-336 -326h445l-13 -94h-604z" />
<glyph unicode="&#xb3;" horiz-adv-x="804" d="M190 582l64 82q49 -43 98.5 -61.5t122.5 -18.5q82 0 136 48t63 126l2 16q9 75 -15 123.5t-71 48.5h-148l15 103h145q51 0 89 65.5t38 116.5q0 55 -33.5 90t-101.5 35q-77 0 -130 -15t-112 -55l-39 74q71 52 140.5 75t154.5 23q116 0 176 -58t60 -153q0 -67 -33 -135.5 t-86 -110.5q40 -23 61 -86t13 -127l-4 -32q-15 -121 -106 -199t-228 -78q-159 0 -271 103z" />
<glyph unicode="&#xb4;" horiz-adv-x="520" d="M311 1233l205 280l107 -63l-238 -270z" />
<glyph unicode="&#xb6;" horiz-adv-x="1142" d="M295 973l8 57q28 195 146 299.5t313 104.5h428l-234 -1659h-98l217 1540h-141l-217 -1540h-99l113 794h-84q-200 0 -290 104.5t-62 299.5z" />
<glyph unicode="&#xb7;" horiz-adv-x="350" d="M160 584q0 49 31 79.5t81 30.5q38 0 61 -22.5t23 -59.5q0 -50 -31 -81t-79 -31q-40 0 -63 23t-23 61z" />
<glyph unicode="&#xb8;" horiz-adv-x="522" d="M72 -313l20 69q27 -10 64 -10q43 0 70.5 17.5t27.5 52.5q0 27 -26.5 41.5t-53.5 14.5l-27 1l64 127h102l-37 -78q46 -3 76.5 -29.5t30.5 -74.5q0 -55 -34 -90t-78 -46.5t-97 -11.5q-60 0 -102 17z" />
<glyph unicode="&#xb9;" horiz-adv-x="507" d="M193 510l12 94h123l98 696l-166 -104l-47 82l256 164h82l-119 -838h119l-12 -94h-346z" />
<glyph unicode="&#xba;" horiz-adv-x="825" d="M207 889l31 223q23 161 124.5 252.5t255.5 91.5t229 -91.5t52 -252.5l-31 -223q-22 -159 -124 -250.5t-255 -91.5q-154 0 -229.5 91.5t-52.5 250.5zM334 911q-18 -130 24.5 -188.5t147.5 -58.5q103 0 161 58.5t78 188.5l27 181q19 130 -22.5 188.5t-147.5 58.5 q-105 0 -164.5 -58.5t-77.5 -188.5z" />
<glyph unicode="&#xbb;" horiz-adv-x="931" d="M111 315l268 256l-197 258l78 82l229 -297l-12 -84l-313 -297zM584 315l268 256l-197 258l78 82l230 -297l-13 -84l-313 -297z" />
<glyph unicode="&#xbc;" horiz-adv-x="1492" d="M221 510l12 94h123l99 696l-166 -104l-47 82l256 164h82l-119 -838h119l-13 -94h-346zM264 0l1106 1434h123l-1110 -1434h-119zM778 186l10 70l443 684h112l-419 -661h321l53 372h105l-53 -372h100l-12 -93h-103l-26 -186h-103l27 186h-455z" />
<glyph unicode="&#xbd;" horiz-adv-x="1650" d="M221 510l12 94h123l99 696l-166 -104l-47 82l256 164h82l-119 -838h119l-13 -94h-346zM240 0l1106 1434h122l-1112 -1434h-116zM952 0l11 68l450 436q70 69 97.5 118t27.5 105q0 61 -36.5 99t-110.5 38q-82 0 -136 -20.5t-122 -63.5l-41 68q75 53 147 81.5t166 28.5 q118 0 179 -59.5t61 -157.5q0 -48 -15 -93t-46 -87.5t-56.5 -71t-67.5 -69.5l-336 -326h445l-13 -94h-604z" />
<glyph unicode="&#xbe;" horiz-adv-x="1562" d="M143 582l64 82q49 -43 98.5 -61.5t122.5 -18.5q82 0 136 48t63 126l2 16q9 75 -15 123.5t-71 48.5h-148l15 103h145q51 0 89 65.5t38 116.5q0 55 -33.5 90t-101.5 35q-77 0 -130 -15t-112 -55l-39 74q71 52 140.5 75t154.5 23q116 0 176 -58t60 -153q0 -67 -33 -135.5 t-86 -110.5q40 -23 61 -86t13 -127l-4 -32q-15 -121 -106 -199t-228 -78q-159 0 -271 103zM334 0l1106 1434h123l-1110 -1434h-119zM848 186l10 70l442 684h113l-420 -661h322l53 372h105l-54 -372h101l-13 -93h-102l-27 -186h-102l27 186h-455z" />
<glyph unicode="&#xbf;" horiz-adv-x="935" />
<glyph unicode="&#xc0;" horiz-adv-x="1144" d="M14 0l709 1288l-27 146h125l307 -1434h-139l-74 369h-565l-196 -369h-140zM414 485h477l-129 648zM604 1757l123 64l129 -281l-90 -53z" />
<glyph unicode="&#xc1;" horiz-adv-x="1144" d="M14 0l709 1288l-27 146h125l307 -1434h-139l-74 369h-565l-196 -369h-140zM414 485h477l-129 648zM731 1540l205 281l106 -64l-237 -270z" />
<glyph unicode="&#xc2;" horiz-adv-x="1144" d="M14 0l709 1288l-27 146h125l307 -1434h-139l-74 369h-565l-196 -369h-140zM414 485h477l-129 648zM610 1546l152 207h112l97 -207l-107 -39l-59 156l-103 -156z" />
<glyph unicode="&#xc3;" horiz-adv-x="1144" d="M14 0l709 1288l-27 146h125l307 -1434h-139l-74 369h-565l-196 -369h-140zM414 485h477l-129 648zM498 1559q14 63 67.5 109t124.5 46q51 0 133.5 -44t104.5 -44q57 0 82 72l94 -25q-16 -66 -66.5 -109.5t-124.5 -43.5q-41 0 -122.5 43t-116.5 43q-57 0 -80 -72z" />
<glyph unicode="&#xc4;" horiz-adv-x="1144" d="M14 0l709 1288l-27 146h125l307 -1434h-139l-74 369h-565l-196 -369h-140zM414 485h477l-129 648zM530 1622q0 61 26.5 93t68.5 32q75 0 75 -84q0 -59 -28.5 -88t-75.5 -29q-66 0 -66 76zM909 1624q0 60 27.5 91.5t71.5 31.5q71 0 71 -82q0 -59 -27.5 -89t-72.5 -30 q-32 0 -51 20t-19 58z" />
<glyph unicode="&#xc5;" horiz-adv-x="1144" d="M14 0l709 1288l-27 146h125l307 -1434h-139l-74 369h-565l-196 -369h-140zM414 485h477l-129 648zM655 1640l4 21q12 67 55 106t107 39q68 0 103.5 -40t23.5 -105l-4 -21q-12 -70 -56 -108.5t-112 -38.5q-65 0 -97.5 38.5t-23.5 108.5zM725 1630q0 -71 61 -71 q46 0 69.5 29.5t23.5 78.5q0 72 -68 72q-41 0 -63.5 -29.5t-22.5 -79.5z" />
<glyph unicode="&#xc6;" horiz-adv-x="1832" d="M20 0l938 1434h988l-17 -125h-631l-86 -609h527l-19 -125h-526l-64 -452h648l-17 -123h-772l80 575h-528l-371 -575h-150zM625 700h462l87 607h-158z" />
<glyph unicode="&#xc7;" horiz-adv-x="1110" d="M180 414l86 606q29 200 172 321t340 121q154 0 254.5 -66t128.5 -179l-125 -46q-26 76 -97 121t-177 45q-146 0 -248 -91t-125 -255l-78 -549q-23 -164 54 -255t223 -91q106 0 190 45t131 121l111 -45q-55 -103 -157.5 -167.5t-235.5 -76.5l-23 -51q46 -3 75.5 -29.5 t29.5 -74.5q0 -42 -18.5 -72t-50.5 -46t-67 -23t-75 -7q-56 0 -99 17l19 69q30 -10 65 -10q43 0 70 17.5t27 52.5q0 27 -27 41.5t-53 14.5l-27 1l49 100q-177 14 -272.5 133.5t-69.5 307.5z" />
<glyph unicode="&#xc8;" horiz-adv-x="991" d="M135 0l201 1434h770l-16 -125h-646l-71 -514h538l-18 -123h-539l-78 -549h662l-16 -123h-787zM584 1745l123 63l129 -280l-91 -53z" />
<glyph unicode="&#xc9;" horiz-adv-x="991" d="M135 0l201 1434h770l-16 -125h-646l-71 -514h538l-18 -125h-539l-78 -547h662l-16 -123h-787zM700 1552l205 281l107 -64l-238 -270z" />
<glyph unicode="&#xca;" horiz-adv-x="991" d="M135 0l201 1434h770l-16 -125h-646l-71 -514h538l-18 -123h-539l-78 -549h662l-16 -123h-787zM573 1546l152 207h113l96 -207l-107 -39l-59 156l-102 -156z" />
<glyph unicode="&#xcb;" horiz-adv-x="991" d="M135 0l201 1434h770l-16 -125h-646l-71 -514h538l-18 -123h-539l-78 -549h662l-16 -123h-787zM463 1624q0 60 27 91.5t69 31.5q74 0 74 -82q0 -59 -28 -89t-75 -30q-30 0 -48.5 20t-18.5 58zM872 1624q0 60 27.5 91.5t69.5 31.5q73 0 73 -82q0 -59 -28 -89t-74 -30 q-31 0 -49.5 20t-18.5 58z" />
<glyph unicode="&#xcc;" horiz-adv-x="391" d="M135 0l201 1434h125l-201 -1434h-125zM236 1745l122 63l129 -280l-90 -53z" />
<glyph unicode="&#xcd;" horiz-adv-x="391" d="M135 0l201 1434h125l-201 -1434h-125zM356 1516l205 280l107 -63l-238 -271z" />
<glyph unicode="&#xce;" horiz-adv-x="391" d="M135 0l201 1434h125l-201 -1434h-125zM236 1546l151 207h113l96 -207l-107 -39l-59 156l-102 -156z" />
<glyph unicode="&#xcf;" horiz-adv-x="391" d="M135 0l201 1434h125l-201 -1434h-125zM209 1624q0 60 28.5 91.5t69.5 31.5q76 0 76 -84q0 -59 -28.5 -88t-75.5 -29q-31 0 -50.5 20t-19.5 58zM475 1622q0 61 26 93t72 32q34 0 54 -21t20 -63q0 -59 -28 -88t-74 -29q-70 0 -70 76z" />
<glyph unicode="&#xd0;" horiz-adv-x="1159" d="M113 672l16 123h117l90 639h479q195 0 292.5 -120t68.5 -323l-78 -549q-30 -205 -164 -323.5t-348 -118.5q-225 0 -441 68l84 604h-116zM283 164q149 -41 319 -41q163 0 257.5 88.5t117.5 257.5l70 496q23 167 -41 255.5t-207 88.5h-355l-73 -514h342l-17 -123h-342z" />
<glyph unicode="&#xd1;" horiz-adv-x="1202" d="M135 0l201 1434h129l516 -1196l166 1196h125l-201 -1434h-131l-518 1196l-162 -1196h-125zM526 1561q14 63 68 109t125 46q51 0 133 -44t104 -44q57 0 82 72l95 -25q-16 -66 -66.5 -109.5t-124.5 -43.5q-41 0 -123 43t-117 43q-56 0 -79 -72z" />
<glyph unicode="&#xd2;" horiz-adv-x="1185" d="M184 414l84 606q29 201 181 321.5t354 120.5q97 0 178 -31t136.5 -87t80 -140t10.5 -184l-84 -606q-29 -201 -180.5 -322t-351.5 -121q-132 0 -230.5 53t-147.5 154.5t-30 235.5zM313 442q-24 -164 61 -255t236 -91q149 0 260.5 91t133.5 255l75 549q24 164 -61 255 t-234 91q-151 0 -261 -91t-134 -255zM641 1772l123 63l129 -281l-90 -53z" />
<glyph unicode="&#xd3;" horiz-adv-x="1185" d="M184 414l84 606q29 201 181 321.5t354 120.5q97 0 178 -31t136.5 -87t80 -140t10.5 -184l-84 -606q-29 -201 -180.5 -322t-351.5 -121q-132 0 -230.5 53t-147.5 154.5t-30 235.5zM313 442q-24 -164 61 -255t236 -91q149 0 260.5 91t133.5 255l75 549q24 164 -61 255 t-234 91q-151 0 -261 -91t-134 -255zM776 1556l205 281l106 -63l-237 -271z" />
<glyph unicode="&#xd4;" horiz-adv-x="1185" d="M184 414l84 606q29 201 181 321.5t354 120.5q97 0 178 -31t136.5 -87t80 -140t10.5 -184l-84 -606q-29 -201 -180.5 -322t-351.5 -121q-132 0 -230.5 53t-147.5 154.5t-30 235.5zM313 442q-24 -164 61 -255t236 -91q149 0 260.5 91t133.5 255l75 549q24 164 -61 255 t-234 91q-151 0 -261 -91t-134 -255zM633 1546l151 207h113l96 -207l-106 -39l-60 156l-102 -156z" />
<glyph unicode="&#xd5;" horiz-adv-x="1185" d="M184 414l84 606q29 201 181 321.5t354 120.5q97 0 178 -31t136.5 -87t80 -140t10.5 -184l-84 -606q-29 -201 -180.5 -322t-351.5 -121q-132 0 -230.5 53t-147.5 154.5t-30 235.5zM313 442q-24 -164 61 -255t236 -91q149 0 260.5 91t133.5 255l75 549q24 164 -61 255 t-234 91q-151 0 -261 -91t-134 -255zM520 1563q14 63 68 109t125 46q51 0 133 -44t104 -44q57 0 82 72l94 -25q-16 -66 -66 -109.5t-124 -43.5q-41 0 -123 43t-117 43q-57 0 -80 -72z" />
<glyph unicode="&#xd6;" horiz-adv-x="1208" d="M195 414l84 606q29 201 180.5 321.5t353.5 120.5q97 0 178.5 -31t137 -87t80 -140t10.5 -184l-84 -606q-29 -201 -180.5 -322t-352.5 -121q-98 0 -179.5 31t-137 87.5t-80 140.5t-10.5 184zM324 442q-12 -83 5.5 -149.5t59 -109t101 -65t131.5 -22.5q149 0 260 91 t133 255l76 549q24 164 -61 255t-234 91t-260.5 -91t-135.5 -255zM547 1622q0 61 26.5 93t69.5 32q76 0 76 -84q0 -59 -28 -88t-75 -29q-69 0 -69 76zM956 1622q0 61 27 93t72 32q73 0 73 -84q0 -58 -28 -87.5t-72 -29.5q-72 0 -72 76z" />
<glyph unicode="&#xd7;" horiz-adv-x="1058" d="M121 180l418 387l-310 387l82 74l310 -387l415 387l62 -74l-416 -387l307 -387l-82 -74l-307 388l-418 -388z" />
<glyph unicode="&#xd8;" horiz-adv-x="1185" d="M47 289l133 100l88 631q29 201 181 321.5t354 120.5q154 0 263.5 -76t139.5 -210l80 59l62 -88l-136 -105l-88 -628q-29 -201 -180.5 -322t-351.5 -121q-157 0 -267 76t-139 211l-86 -65zM309 348q9 -121 91.5 -186.5t209.5 -65.5q150 0 260 90.5t134 255.5l69 498z M319 494l764 589q-12 123 -93 188.5t-206 65.5q-151 0 -261 -90t-134 -256z" />
<glyph unicode="&#xd9;" horiz-adv-x="1157" d="M182 377l150 1057h127l-146 -1028q-23 -167 34.5 -241.5t205.5 -74.5q112 0 220 61t171 142l160 1141h125l-178 -1264q-4 -29 1.5 -47.5t16.5 -26.5t29.5 -9.5t34 1t36.5 8.5l-14 -104q-125 -26 -179.5 5.5t-53.5 143.5q-178 -170 -390 -170q-406 0 -350 406zM610 1757 l123 64l129 -281l-90 -53z" />
<glyph unicode="&#xda;" horiz-adv-x="1157" d="M182 377l150 1057h127l-146 -1028q-23 -167 34.5 -241.5t205.5 -74.5q112 0 220 61t171 142l160 1141h125l-178 -1264q-4 -29 1.5 -47.5t16.5 -26.5t29.5 -9.5t34 1t36.5 8.5l-14 -104q-125 -26 -179.5 5.5t-53.5 143.5q-178 -170 -390 -170q-406 0 -350 406zM748 1540 l204 281l107 -64l-238 -270z" />
<glyph unicode="&#xdb;" horiz-adv-x="1157" d="M182 377l150 1057h127l-146 -1028q-23 -167 34.5 -241.5t205.5 -74.5q112 0 220 61t171 142l160 1141h125l-178 -1264q-4 -29 1.5 -47.5t16.5 -26.5t29.5 -9.5t34 1t36.5 8.5l-14 -104q-125 -26 -179.5 5.5t-53.5 143.5q-178 -170 -390 -170q-406 0 -350 406zM625 1546 l151 207h113l96 -207l-106 -39l-60 156l-102 -156z" />
<glyph unicode="&#xdc;" horiz-adv-x="1157" d="M182 377l150 1057h127l-146 -1028q-23 -167 34.5 -241.5t205.5 -74.5q112 0 220 61t171 142l160 1141h125l-178 -1264q-4 -29 1.5 -47.5t16.5 -26.5t29.5 -9.5t34 1t36.5 8.5l-14 -104q-125 -26 -179.5 5.5t-53.5 143.5q-178 -170 -390 -170q-406 0 -350 406z" />
<glyph unicode="&#xdd;" horiz-adv-x="1028" d="M219 1434h139l248 -789l469 789h137l-563 -926l-69 -508h-125l69 504zM655 1540l205 281l107 -64l-238 -270z" />
<glyph unicode="&#xde;" horiz-adv-x="1118" d="M135 0l201 1434h125l-37 -271h330q199 0 297 -107t69 -304l-10 -70q-29 -198 -156 -305t-325 -107h-330l-39 -270h-125zM315 387h330q300 0 342 322l2 16q21 164 -42 241.5t-210 77.5h-329z" />
<glyph unicode="&#xdf;" horiz-adv-x="1124" d="M131 809l16 111h136l30 217q28 195 137.5 303t282.5 108q342 0 301 -307q-10 -67 -50 -122t-90 -90.5t-99 -68t-82 -71.5t-33 -84q0 -58 39 -102.5t94 -77t110.5 -68t94.5 -95.5t39 -140q0 -155 -108.5 -253t-307.5 -98q-95 0 -180 29l39 109q81 -25 159 -25 q112 0 184 52t72 145q0 41 -20.5 76.5t-53.5 62.5t-72.5 53.5t-79 55.5t-72.5 62t-53.5 79.5t-20.5 101.5q0 71 19.5 124.5t51 86t69.5 57.5t76 47t69.5 46.5t51 64t19.5 92.5q0 144 -182 144q-123 0 -193.5 -79.5t-93.5 -242.5l-156 -1112h-120l114 809h-137z" />
<glyph unicode="&#xe0;" d="M197 385l39 285q28 196 145.5 305.5t302.5 109.5q143 0 285 -67l28 47h88l-124 -895q-4 -31 1.5 -50.5t16.5 -27.5t30 -9.5t34.5 1t37.5 8.5l-14 -100q-231 -53 -231 137q-158 -149 -336 -149q-174 0 -251.5 105t-51.5 300zM319 414q-22 -160 24.5 -241t176.5 -81 q89 0 178.5 54.5t159.5 136.5l88 626q-112 62 -278 62q-274 0 -318 -326zM549 1450l123 63l129 -280l-90 -53z" />
<glyph unicode="&#xe1;" d="M197 385l39 285q28 196 145.5 305.5t302.5 109.5q143 0 285 -67l28 47h88l-124 -895q-4 -31 1.5 -50.5t16.5 -27.5t30 -9.5t34.5 1t37.5 8.5l-14 -100q-231 -53 -231 137q-158 -149 -336 -149q-174 0 -251.5 105t-51.5 300zM319 414q-22 -160 24.5 -241t176.5 -81 q89 0 178.5 54.5t159.5 136.5l88 626q-112 62 -278 62q-274 0 -318 -326zM672 1233l205 280l106 -63l-238 -270z" />
<glyph unicode="&#xe2;" d="M197 385l39 285q28 196 145.5 305.5t302.5 109.5q143 0 285 -67l28 47h88l-124 -895q-4 -31 1.5 -50.5t16.5 -27.5t30 -9.5t34.5 1t37.5 8.5l-14 -100q-231 -53 -231 137q-158 -149 -336 -149q-174 0 -251.5 105t-51.5 300zM319 414q-22 -160 24.5 -241t176.5 -81 q89 0 178.5 54.5t159.5 136.5l88 626q-112 62 -278 62q-274 0 -318 -326zM565 1219l152 206h112l97 -206l-107 -39l-59 155l-103 -155z" />
<glyph unicode="&#xe3;" d="M197 385l39 285q28 196 145.5 305.5t302.5 109.5q143 0 285 -67l28 47h88l-124 -895q-4 -31 1.5 -50.5t16.5 -27.5t30 -9.5t34.5 1t37.5 8.5l-14 -100q-231 -53 -231 137q-158 -149 -336 -149q-174 0 -251.5 105t-51.5 300zM319 414q-22 -160 24.5 -241t176.5 -81 q89 0 178.5 54.5t159.5 136.5l88 626q-112 62 -278 62q-274 0 -318 -326zM442 1253q14 63 68 109.5t125 46.5q51 0 133 -44t104 -44q57 0 82 72l95 -25q-16 -66 -66.5 -110t-124.5 -44q-41 0 -123 43t-117 43q-56 0 -79 -71z" />
<glyph unicode="&#xe4;" d="M197 385l39 285q28 196 145.5 305.5t302.5 109.5q143 0 285 -67l28 47h88l-124 -895q-4 -31 1.5 -50.5t16.5 -27.5t30 -9.5t34.5 1t37.5 8.5l-14 -100q-231 -53 -231 137q-158 -149 -336 -149q-174 0 -251.5 105t-51.5 300zM319 414q-22 -160 24.5 -241t176.5 -81 q89 0 178.5 54.5t159.5 136.5l88 626q-112 62 -278 62q-274 0 -318 -326z" />
<glyph unicode="&#xe5;" horiz-adv-x="1067" d="M197 385l39 285q28 196 145.5 305.5t302.5 109.5q143 0 285 -67l28 47h88l-124 -895q-4 -31 1.5 -50.5t16.5 -27.5t30 -9.5t34.5 1t37.5 8.5l-14 -100q-231 -53 -231 137q-158 -149 -336 -149q-174 0 -251.5 105t-51.5 300zM319 414q-22 -160 24.5 -241t176.5 -81 q89 0 178.5 54.5t159.5 136.5l88 626q-112 62 -278 62q-274 0 -318 -326zM610 1395l2 20q7 66 52 106t110 40q68 0 101.5 -39.5t25.5 -106.5l-2 -20q-7 -70 -52.5 -109t-115.5 -39q-65 0 -98 39t-23 109zM678 1384q0 -71 61 -71q45 0 67.5 30t22.5 80q0 70 -65 70 q-41 0 -63.5 -29.5t-22.5 -79.5z" />
<glyph unicode="&#xe6;" horiz-adv-x="2172" d="M193 385l38 285q28 196 146 305.5t303 109.5q197 0 385 -110q119 110 307 110q187 0 278.5 -110.5t63.5 -304.5l-24 -172h-686l-11 -76q-22 -161 40.5 -245.5t199.5 -84.5q186 0 340 103l45 -89q-75 -53 -179 -89.5t-222 -36.5q-123 0 -204.5 49.5t-117.5 142.5 q-45 -41 -82 -70t-88 -59.5t-109 -46.5t-120 -16q-174 0 -251.5 105t-51.5 300zM315 414q-22 -160 24.5 -241t176.5 -81q89 0 178.5 54.5t159.5 136.5l88 626q-112 62 -278 62q-274 0 -318 -326zM1022 608h565l4 35q20 161 -40 244.5t-195 83.5q-138 0 -224 -84t-106 -244z " />
<glyph unicode="&#xe7;" horiz-adv-x="1058" d="M199 395l39 275q28 195 150 305t308 110q124 0 209 -34t156 -97l-74 -84q-126 103 -307 103q-136 0 -221 -84t-107 -244l-30 -225q-23 -160 38 -244t197 -84q186 0 340 103l45 -89q-147 -105 -340 -124l-27 -60q46 -3 76.5 -29.5t30.5 -74.5q0 -55 -34 -90t-78 -46.5 t-97 -11.5q-56 0 -102 17l20 69q30 -10 64 -10q43 0 70.5 17.5t27.5 52.5q0 27 -26.5 41.5t-53.5 14.5l-27 1l54 109q-166 12 -246.5 121t-54.5 292z" />
<glyph unicode="&#xe8;" horiz-adv-x="1083" d="M199 395l39 275q28 194 150.5 304.5t309.5 110.5t279.5 -110.5t64.5 -304.5l-24 -172h-686l-10 -76q-22 -161 39 -245.5t198 -84.5q186 0 340 103l45 -89q-72 -53 -177 -89.5t-224 -36.5q-187 0 -279.5 110.5t-64.5 304.5zM350 608h565l5 35q20 161 -41 244.5t-197 83.5 q-138 0 -223 -84t-105 -244zM545 1450l123 63l129 -280l-90 -53z" />
<glyph unicode="&#xe9;" horiz-adv-x="1083" d="M199 395l39 275q28 194 150.5 304.5t309.5 110.5t279.5 -110.5t64.5 -304.5l-24 -172h-686l-10 -76q-22 -161 39 -245.5t198 -84.5q186 0 340 103l45 -89q-72 -53 -177 -89.5t-224 -36.5q-187 0 -279.5 110.5t-64.5 304.5zM350 608h565l5 35q20 161 -41 244.5t-197 83.5 q-138 0 -223 -84t-105 -244zM674 1233l205 280l106 -63l-237 -270z" />
<glyph unicode="&#xea;" horiz-adv-x="1083" d="M199 395l39 275q28 194 150.5 304.5t309.5 110.5t279.5 -110.5t64.5 -304.5l-24 -172h-686l-10 -76q-22 -161 39 -245.5t198 -84.5q186 0 340 103l45 -89q-72 -53 -177 -89.5t-224 -36.5q-187 0 -279.5 110.5t-64.5 304.5zM350 608h565l5 35q20 161 -41 244.5t-197 83.5 q-138 0 -223 -84t-105 -244zM537 1239l151 207h113l96 -207l-106 -39l-60 156l-102 -156z" />
<glyph unicode="&#xeb;" horiz-adv-x="1083" d="M199 395l39 275q28 194 150.5 304.5t309.5 110.5t279.5 -110.5t64.5 -304.5l-24 -172h-686l-10 -76q-22 -161 39 -245.5t198 -84.5q186 0 340 103l45 -89q-72 -53 -177 -89.5t-224 -36.5q-187 0 -279.5 110.5t-64.5 304.5zM350 608h565l5 35q20 161 -41 244.5t-197 83.5 q-138 0 -223 -84t-105 -244zM446 1337q0 59 27 91t70 32q73 0 73 -82q0 -59 -27.5 -88.5t-74.5 -29.5q-31 0 -49.5 19.5t-18.5 57.5zM856 1335q0 61 26.5 93t69.5 32q74 0 74 -82q0 -59 -27.5 -88.5t-74.5 -29.5q-68 0 -68 75z" />
<glyph unicode="&#xec;" horiz-adv-x="425" d="M156 0l149 1065h119l-150 -1065h-118zM201 1450l123 63l129 -280l-91 -53z" />
<glyph unicode="&#xed;" horiz-adv-x="425" d="M156 0l149 1065h119l-150 -1065h-118zM340 1233l205 280l106 -63l-237 -270z" />
<glyph unicode="&#xee;" horiz-adv-x="425" d="M156 0l149 1065h119l-150 -1065h-118zM211 1239l151 207h113l96 -207l-106 -39l-59 156l-103 -156z" />
<glyph unicode="&#xef;" horiz-adv-x="425" d="M156 0l149 1065h119l-150 -1065h-118zM158 1337q0 62 27.5 93.5t72.5 31.5q76 0 76 -84q0 -61 -29 -91t-76 -30q-32 0 -51.5 20t-19.5 60zM430 1335q0 63 26 95t72 32q76 0 76 -84q0 -61 -28 -91t-76 -30q-70 0 -70 78z" />
<glyph unicode="&#xf0;" horiz-adv-x="1091" d="M201 401l41 299q28 197 137.5 305.5t288.5 108.5q83 0 159.5 -34t133.5 -89l8 62q17 131 -25 211l-153 -111l-62 100l127 93q-77 34 -149 34q-58 0 -121 -18l-19 115q73 28 156 28q164 0 254 -75l156 112l59 -100l-137 -101q59 -112 39 -260l-99 -684 q-28 -195 -149.5 -306t-304.5 -111q-188 0 -278 112.5t-62 308.5zM326 418q-22 -157 37 -239.5t192 -82.5q134 0 218 83t106 239l59 424q-43 63 -121.5 108t-161.5 45q-131 0 -201 -78.5t-92 -234.5z" />
<glyph unicode="&#xf1;" horiz-adv-x="1087" d="M156 0l149 1065h98l-2 -135q73 69 159.5 112t170.5 43q355 0 299 -399l-76 -545q-8 -59 58 -59q32 0 65 10l-14 -100q-50 -12 -94 -12q-154 0 -135 149l73 530q23 165 -18.5 241.5t-173.5 76.5q-85 0 -176 -55.5t-154 -128.5l-111 -793h-118zM432 1253q14 63 68 109.5 t125 46.5q51 0 133 -44t104 -44q57 0 82 72l94 -25q-16 -66 -66 -110t-124 -44q-41 0 -123 43t-117 43q-57 0 -80 -71z" />
<glyph unicode="&#xf2;" horiz-adv-x="1087" d="M199 395l39 275q28 194 150.5 304.5t309.5 110.5t279.5 -110.5t64.5 -304.5l-38 -275q-28 -194 -151 -304.5t-310 -110.5t-279.5 110.5t-64.5 304.5zM322 420q-23 -160 38.5 -243t198.5 -83t222 83t108 243l31 225q23 160 -38.5 243t-199.5 83q-137 0 -222 -83t-108 -243 zM547 1450l123 63l129 -280l-90 -53z" />
<glyph unicode="&#xf3;" horiz-adv-x="1087" d="M199 395l39 275q28 194 150.5 304.5t309.5 110.5t279.5 -110.5t64.5 -304.5l-38 -275q-28 -194 -151 -304.5t-310 -110.5t-279.5 110.5t-64.5 304.5zM322 420q-23 -160 38.5 -243t198.5 -83t222 83t108 243l31 225q23 160 -38.5 243t-199.5 83q-137 0 -222 -83t-108 -243 zM678 1233l205 280l106 -63l-237 -270z" />
<glyph unicode="&#xf4;" horiz-adv-x="1087" d="M199 395l39 275q28 194 150.5 304.5t309.5 110.5t279.5 -110.5t64.5 -304.5l-38 -275q-28 -194 -151 -304.5t-310 -110.5t-279.5 110.5t-64.5 304.5zM322 420q-23 -160 38.5 -243t198.5 -83t222 83t108 243l31 225q23 160 -38.5 243t-199.5 83q-137 0 -222 -83t-108 -243 zM539 1239l151 207h113l96 -207l-106 -39l-60 156l-102 -156z" />
<glyph unicode="&#xf5;" horiz-adv-x="1087" d="M199 395l39 275q28 194 150.5 304.5t309.5 110.5t279.5 -110.5t64.5 -304.5l-38 -275q-28 -194 -151 -304.5t-310 -110.5t-279.5 110.5t-64.5 304.5zM322 420q-23 -160 38.5 -243t198.5 -83t222 83t108 243l31 225q23 160 -38.5 243t-199.5 83q-137 0 -222 -83t-108 -243 zM428 1253q14 63 68 109.5t125 46.5q51 0 133 -44t104 -44q57 0 82 72l94 -25q-16 -66 -66 -110t-124 -44q-41 0 -123 43t-117 43q-57 0 -80 -71z" />
<glyph unicode="&#xf6;" horiz-adv-x="1087" d="M199 395l39 275q28 194 150.5 304.5t309.5 110.5t279.5 -110.5t64.5 -304.5l-38 -275q-28 -194 -151 -304.5t-310 -110.5t-279.5 110.5t-64.5 304.5zM322 420q-23 -160 38.5 -243t198.5 -83t222 83t108 243l31 225q23 160 -38.5 243t-199.5 83q-137 0 -222 -83t-108 -243 zM446 1335q0 61 27 93t70 32q73 0 73 -84q0 -58 -28.5 -87t-73.5 -29q-68 0 -68 75zM856 1335q0 61 26.5 93t69.5 32q34 0 54 -21t20 -63q0 -59 -28 -87.5t-74 -28.5q-68 0 -68 75z" />
<glyph unicode="&#xf7;" horiz-adv-x="1116" d="M166 512l16 123h930l-16 -123h-930zM487 55q0 58 26 90.5t69 32.5q69 0 69 -82q0 -57 -27 -86.5t-71 -29.5q-66 0 -66 75zM627 1044q0 59 26 91t68 32q33 0 51.5 -21t18.5 -61q0 -57 -27 -86.5t-72 -29.5q-65 0 -65 75z" />
<glyph unicode="&#xf8;" horiz-adv-x="1087" d="M39 156l156 118q-4 67 4 121l39 275q28 194 151.5 304.5t310.5 110.5q119 0 201 -46.5t119 -133.5l131 101l51 -95l-153 -118q3 -50 -7 -123l-38 -275q-28 -195 -150.5 -305t-308.5 -110q-120 0 -203.5 46.5t-120.5 133.5l-127 -99zM315 369l598 454q-44 148 -229 148 q-138 0 -223 -83t-107 -243zM330 242q44 -148 231 -148q137 0 220 82.5t108 243.5l39 280z" />
<glyph unicode="&#xf9;" horiz-adv-x="1071" d="M203 369l98 696h119l-94 -668q-22 -156 22.5 -230.5t161.5 -74.5q89 0 176 54.5t158 136.5l108 782h119l-125 -895q-5 -38 4 -59t30 -25.5t40.5 -2.5t46.5 9l-14 -100q-232 -53 -232 137q-158 -149 -332 -149q-161 0 -237 99.5t-49 289.5zM555 1450l123 63l129 -280 l-90 -53z" />
<glyph unicode="&#xfa;" horiz-adv-x="1071" d="M203 369l98 696h119l-94 -668q-22 -156 22.5 -230.5t161.5 -74.5q89 0 176 54.5t158 136.5l108 782h119l-125 -895q-5 -38 4 -59t30 -25.5t40.5 -2.5t46.5 9l-14 -100q-232 -53 -232 137q-158 -149 -332 -149q-161 0 -237 99.5t-49 289.5zM629 1233l205 280l106 -63 l-238 -270z" />
<glyph unicode="&#xfb;" horiz-adv-x="1071" d="M203 369l98 696h119l-94 -668q-22 -156 22.5 -230.5t161.5 -74.5q89 0 176 54.5t158 136.5l108 782h119l-125 -895q-5 -38 4 -59t30 -25.5t40.5 -2.5t46.5 9l-14 -100q-232 -53 -232 137q-158 -149 -332 -149q-161 0 -237 99.5t-49 289.5zM530 1239l152 207h113l96 -207 l-107 -39l-59 156l-102 -156z" />
<glyph unicode="&#xfc;" horiz-adv-x="1071" d="M203 369l98 696h119l-94 -668q-22 -156 22.5 -230.5t161.5 -74.5q89 0 176 54.5t158 136.5l108 782h119l-125 -895q-5 -38 4 -59t30 -25.5t40.5 -2.5t46.5 9l-14 -100q-232 -53 -232 137q-158 -149 -332 -149q-161 0 -237 99.5t-49 289.5zM444 1335q0 61 27 93t70 32 q73 0 73 -84q0 -58 -28.5 -87t-73.5 -29q-68 0 -68 75zM854 1335q0 61 26.5 93t69.5 32q34 0 54 -21t20 -63q0 -59 -28 -87.5t-74 -28.5q-68 0 -68 75z" />
<glyph unicode="&#xfd;" horiz-adv-x="1107" d="M139 -205l60 90q150 -102 321 -102q129 0 216 69t108 218l18 131q-150 -135 -332 -135t-259.5 101.5t-49.5 299.5l84 598h121l-82 -578q-22 -163 22 -236t179 -73q87 0 183.5 49t154.5 117l100 721h119l-144 -1022q-25 -180 -150 -275.5t-302 -95.5q-219 0 -367 123z M664 1233l204 280l107 -63l-238 -270z" />
<glyph unicode="&#xfe;" d="M113 -307l258 1843h118l-71 -518q72 70 156 109.5t169 39.5q179 0 258.5 -105t53.5 -300l-51 -375q-26 -187 -150 -297t-303 -110q-176 0 -272 51l-48 -338h-118zM295 145q105 -51 280 -51q131 0 211.5 83t102.5 237l45 319q22 160 -26 242t-181 82q-84 0 -175.5 -58 t-154.5 -133z" />
<glyph unicode="&#xff;" horiz-adv-x="1107" d="M139 -205l60 90q150 -102 321 -102q129 0 216 69t108 218l18 131q-150 -135 -332 -135t-259.5 101.5t-49.5 299.5l84 598h121l-82 -578q-22 -163 22 -236t179 -73q87 0 183.5 49t154.5 117l100 721h119l-144 -1022q-25 -180 -150 -275.5t-302 -95.5q-219 0 -367 123z" />
<glyph unicode="&#x152;" horiz-adv-x="1730" d="M195 414l84 606q29 202 174 322t344 120q104 0 185 -43t112 -123l20 138h731l-18 -125h-604l-72 -514h502l-17 -123h-501l-78 -549h620l-18 -123h-748l19 129q-74 -86 -156.5 -122t-187.5 -36q-199 0 -309.5 120.5t-81.5 322.5zM324 442q-24 -166 52.5 -256t223.5 -90 q143 0 246.5 91.5t126.5 250.5l80 557q23 159 -56 250.5t-223 91.5q-147 0 -249 -90t-126 -256z" />
<glyph unicode="&#x153;" horiz-adv-x="1769" d="M199 395l39 275q28 194 150.5 304.5t309.5 110.5q118 0 199.5 -44.5t118.5 -129.5q129 174 368 174q187 0 280 -110.5t65 -304.5l-27 -187h-686l-8 -61q-22 -161 39 -245.5t198 -84.5q186 0 340 103l45 -89q-72 -53 -177 -89.5t-224 -36.5q-118 0 -200 45.5t-120 130.5 q-60 -85 -154 -130.5t-212 -45.5q-187 0 -279.5 110.5t-64.5 304.5zM322 420q-23 -160 38.5 -243t198.5 -83t222 83t108 243l31 225q23 160 -38.5 243t-199.5 83q-137 0 -222 -83t-108 -243zM1032 604h567l7 39q26 159 -37.5 243.5t-200.5 84.5t-221 -83.5t-109 -244.5z" />
<glyph unicode="&#x178;" horiz-adv-x="1028" d="M219 1434h139l248 -789l469 789h137l-563 -926l-69 -508h-125l69 504z" />
<glyph unicode="&#x2c6;" horiz-adv-x="632" d="M313 1239l152 207h113l96 -207l-107 -39l-59 156l-102 -156z" />
<glyph unicode="&#x2dc;" horiz-adv-x="780" d="M272 1253q14 63 68 109.5t125 46.5q51 0 133 -44t104 -44q57 0 82 72l95 -25q-16 -66 -66.5 -110t-124.5 -44q-41 0 -122.5 43t-116.5 43q-57 0 -80 -71z" />
<glyph unicode="&#x2000;" horiz-adv-x="918" />
<glyph unicode="&#x2001;" horiz-adv-x="1837" />
<glyph unicode="&#x2002;" horiz-adv-x="918" />
<glyph unicode="&#x2003;" horiz-adv-x="1837" />
<glyph unicode="&#x2004;" horiz-adv-x="612" />
<glyph unicode="&#x2005;" horiz-adv-x="459" />
<glyph unicode="&#x2006;" horiz-adv-x="306" />
<glyph unicode="&#x2007;" horiz-adv-x="306" />
<glyph unicode="&#x2008;" horiz-adv-x="229" />
<glyph unicode="&#x2009;" horiz-adv-x="367" />
<glyph unicode="&#x200a;" horiz-adv-x="102" />
<glyph unicode="&#x2010;" horiz-adv-x="755" d="M195 561l16 121h526l-16 -121h-526z" />
<glyph unicode="&#x2011;" horiz-adv-x="755" d="M195 561l16 121h526l-16 -121h-526z" />
<glyph unicode="&#x2012;" horiz-adv-x="755" d="M195 561l16 121h526l-16 -121h-526z" />
<glyph unicode="&#x2013;" horiz-adv-x="966" d="M96 561l17 121h938l-17 -121h-938z" />
<glyph unicode="&#x2014;" horiz-adv-x="1632" d="M96 561l17 121h1603l-16 -121h-1604z" />
<glyph unicode="&#x2018;" horiz-adv-x="360" d="M262 1446q0 44 23.5 65t60.5 21q45 0 79 -28.5t34 -84.5q0 -54 -49 -76q10 -49 100 -112l-31 -70q-110 44 -163.5 123.5t-53.5 161.5z" />
<glyph unicode="&#x2019;" horiz-adv-x="360" d="M233 1231q28 20 44 32.5t34 35t23 44.5q-49 22 -49 76q0 56 33.5 84.5t78.5 28.5q37 0 60.5 -21t23.5 -65q0 -82 -53.5 -161.5t-163.5 -123.5z" />
<glyph unicode="&#x201a;" horiz-adv-x="360" d="M43 -125q89 63 100 113q-49 22 -49 75q0 56 34 84.5t79 28.5q37 0 60.5 -21t23.5 -65q0 -82 -53.5 -161.5t-163.5 -123.5z" />
<glyph unicode="&#x201c;" horiz-adv-x="616" d="M262 1446q0 44 23.5 65t60.5 21q45 0 79 -28.5t34 -84.5q0 -54 -49 -76q10 -49 100 -112l-31 -70q-110 44 -163.5 123.5t-53.5 161.5zM520 1446q0 44 23.5 65t60.5 21q45 0 79 -28.5t34 -84.5q0 -54 -49 -76q10 -49 100 -112l-31 -70q-110 44 -163.5 123.5t-53.5 161.5z " />
<glyph unicode="&#x201d;" horiz-adv-x="616" d="M233 1231q28 20 44 32.5t34 35t23 44.5q-49 22 -49 76q0 56 33.5 84.5t78.5 28.5q37 0 60.5 -21t23.5 -65q0 -82 -53.5 -161.5t-163.5 -123.5zM492 1231q90 63 100 112q-49 22 -49 76q0 56 33.5 84.5t78.5 28.5q37 0 60.5 -21t23.5 -65q0 -82 -53.5 -161.5t-163.5 -123.5 z" />
<glyph unicode="&#x201e;" horiz-adv-x="616" d="M43 -125q89 63 100 113q-49 22 -49 75q0 56 34 84.5t79 28.5q37 0 60.5 -21t23.5 -65q0 -82 -53.5 -161.5t-163.5 -123.5zM301 -125q89 63 100 113q-49 22 -49 75q0 56 34 84.5t79 28.5q37 0 60.5 -21t23.5 -65q0 -82 -53.5 -161.5t-163.5 -123.5z" />
<glyph unicode="&#x2022;" horiz-adv-x="823" d="M221 596q0 188 88 289.5t234 101.5q116 0 180.5 -67.5t64.5 -198.5q0 -184 -90.5 -280.5t-244.5 -96.5q-110 0 -171 63.5t-61 188.5z" />
<glyph unicode="&#x2026;" horiz-adv-x="962" d="M88 66q0 49 31.5 79.5t81.5 30.5q38 0 61 -22.5t23 -59.5q0 -50 -31.5 -81t-79.5 -31q-40 0 -63 23t-23 61zM395 66q0 49 31.5 79.5t81.5 30.5q38 0 61 -22.5t23 -59.5q0 -50 -31.5 -81t-79.5 -31q-40 0 -63 23t-23 61zM700 66q0 49 31.5 79.5t81.5 30.5q38 0 61 -22.5 t23 -59.5q0 -50 -31.5 -81t-79.5 -31q-40 0 -63 23t-23 61z" />
<glyph unicode="&#x202f;" horiz-adv-x="367" />
<glyph unicode="&#x2039;" horiz-adv-x="569" d="M186 530l13 84l313 297l55 -82l-268 -258l195 -256l-76 -82z" />
<glyph unicode="&#x203a;" horiz-adv-x="569" d="M166 315l268 256l-196 258l77 82l232 -297l-12 -84l-316 -297z" />
<glyph unicode="&#x205f;" horiz-adv-x="459" />
<glyph unicode="&#x20ac;" horiz-adv-x="1228" />
<glyph unicode="&#x2122;" horiz-adv-x="1689" d="M240 1348l12 92h618l-12 -92h-256l-119 -846h-102l119 846h-260zM793 502l131 938h118l228 -586l389 586h119l-131 -938h-103l113 778l-348 -522h-105l-205 522l-104 -778h-102z" />
<glyph unicode="&#x25fc;" horiz-adv-x="1064" d="M0 0v1065h1065v-1065h-1065z" />
<glyph unicode="&#xfb01;" horiz-adv-x="1046" d="M150 952l16 113h137l25 174q13 94 44 155.5t84 94.5t117 46t156 13q69 0 159.5 -23.5t131.5 -43.5l-47 -95q-38 16 -128 35t-140 19q-126 0 -182.5 -36t-69.5 -130l-29 -209h602l-149 -1065h-119l133 952h-485l-134 -952h-118l133 952h-137z" />
<glyph unicode="&#xfb02;" horiz-adv-x="1009" d="M150 950l16 115h137l21 143q23 157 142 248.5t294 91.5q188 0 303 -73l-207 -1475h-119l197 1407q-96 27 -193 27q-128 0 -206.5 -63.5t-96.5 -192.5l-16 -113h356l-16 -115h-356l-134 -950h-118l133 950h-137z" />
<glyph unicode="&#xfb03;" horiz-adv-x="1460" d="M150 950l16 115h137l6 49q30 215 130.5 310.5t281.5 95.5q68 0 138 -25.5t118 -62.5q68 66 140.5 95t162.5 29q44 0 102.5 -11.5t92.5 -26.5l-48 -101q-73 25 -170 25q-130 0 -209 -90t-100 -244l-6 -43h514l-149 -1065h-119l133 950h-393l-133 -950h-119l133 950h-403 l-134 -950h-118l133 950h-137zM422 1065h403l4 25q28 175 82 249q-103 70 -211 70q-130 0 -189.5 -71.5t-82.5 -233.5z" />
<glyph unicode="&#xfb04;" horiz-adv-x="1529" d="M150 950l16 115h137l14 100q26 184 133 269.5t269 85.5q121 0 264 -76q124 112 301 112q186 0 303 -73l-209 -1483h-118l198 1417q-89 25 -194 25q-266 0 -310 -303l-10 -74h354l-16 -115h-354l-133 -950h-119l133 950h-403l-134 -950h-118l133 950h-137zM422 1065h403 l15 98q13 100 65 189q-97 53 -207 53q-117 0 -180.5 -56.5t-85.5 -209.5z" />
</font>
</defs>
</svg>
