<?xml version="1.0" standalone="no"?>
<!DOCTYPE svg PUBLIC "-//W3C//DTD SVG 1.1//EN" "http://www.w3.org/Graphics/SVG/1.1/DTD/svg11.dtd" >
<svg xmlns="http://www.w3.org/2000/svg" xmlns:xlink="http://www.w3.org/1999/xlink" version="1.1">
<metadata></metadata>
<defs>
<font id="darwinaltbold_italic" horiz-adv-x="1116" >
<font-face units-per-em="2048" ascent="1536" descent="-512" />
<missing-glyph horiz-adv-x="464" />
<glyph horiz-adv-x="0" />
<glyph horiz-adv-x="682" />
<glyph unicode=" "  horiz-adv-x="464" />
<glyph unicode="&#x09;" horiz-adv-x="464" />
<glyph unicode="&#xa0;" horiz-adv-x="464" />
<glyph unicode="!" horiz-adv-x="532" d="M141 96q0 79 44 119.5t116 40.5q59 0 92 -28.5t33 -84.5q0 -80 -44.5 -121.5t-119.5 -41.5q-56 0 -88.5 29t-32.5 87zM215 391l70 674l51 369h262l-51 -369l-117 -674h-215z" />
<glyph unicode="&#x22;" horiz-adv-x="663" d="M248 1124l28 412h238l-88 -412h-178zM551 1124l31 412h237l-88 -412h-180z" />
<glyph unicode="#" horiz-adv-x="1277" d="M76 381l78 217h184l86 238h-193l78 217h189l133 381h237l-131 -381h232l131 381h241l-135 -381h197l-78 -217h-190l-88 -238h196l-78 -217h-190l-133 -381h-240l133 381h-233l-129 -381h-240l133 381h-190zM578 598h233l84 238h-233z" />
<glyph unicode="$" horiz-adv-x="1193" d="M125 119l135 200q160 -95 309 -102l56 391q-334 60 -334 361q0 197 121 328.5t331 156.5l25 184h174l-24 -184q96 -10 171.5 -43.5t151.5 -91.5l-133 -201q-129 78 -225 92l-54 -374q345 -63 345 -355q0 -193 -120 -329t-343 -170l-27 -187h-174l25 178q-234 11 -410 146 zM549 1018q0 -107 113 -146l47 334q-160 -35 -160 -188zM745 236q164 49 164 190q0 107 -116 147z" />
<glyph unicode="%" horiz-adv-x="1910" d="M225 909l31 228q20 148 125.5 234.5t261.5 86.5q155 0 236 -86.5t61 -234.5l-31 -228q-20 -148 -127 -235.5t-262 -87.5q-156 0 -236.5 87t-58.5 236zM350 0l1231 1556l182 -122l-1239 -1561zM471 924q-9 -64 12.5 -97.5t67.5 -33.5q44 0 75 33.5t40 97.5l26 196 q9 64 -12.5 98.5t-65.5 34.5q-45 0 -76 -34t-40 -99zM1176 299l30 227q20 149 127 236.5t264 87.5q153 0 233 -87t60 -237l-30 -227q-20 -147 -126 -235.5t-259 -88.5q-156 0 -238.5 88.5t-60.5 235.5zM1421 315q-9 -65 13 -99t69 -34q44 0 75 34.5t40 98.5l27 195 q9 64 -12.5 98.5t-65.5 34.5q-47 0 -78.5 -34t-40.5 -99z" />
<glyph unicode="&#x26;" horiz-adv-x="1312" d="M127 281q0 84 27.5 158.5t78 133.5t101 101.5t117.5 85.5q-53 69 -88 150t-35 157q0 77 31 147.5t87 126t142 88.5t190 33q182 0 267 -77.5t85 -210.5q0 -59 -18 -112t-45.5 -93.5t-74 -83t-89 -73.5t-106.5 -71l180 -260q38 43 61 111.5t27 120.5l235 -31 q-41 -215 -188 -397l117 -150l-207 -164l-96 129q-72 -58 -186.5 -93.5t-227.5 -35.5q-385 0 -385 310zM403 328q0 -129 170 -129q61 0 123.5 20t104.5 53l-221 318q-177 -125 -177 -262zM592 1087q0 -80 84 -176q44 28 71.5 48t57.5 49t44.5 60.5t14.5 66.5q0 48 -28.5 77 t-90.5 29q-71 0 -112 -42.5t-41 -111.5z" />
<glyph unicode="'" horiz-adv-x="356" d="M248 1124l28 412h238l-88 -412h-178z" />
<glyph unicode="(" horiz-adv-x="649" d="M160 272l106 766q28 199 165 341t341 175l16 -223q-106 -13 -176 -101t-88 -218l-100 -713q-19 -130 26 -217t148 -102l-78 -222q-197 32 -293.5 172.5t-66.5 341.5z" />
<glyph unicode=")" horiz-adv-x="649" d="M49 -20q107 15 176 101.5t88 217.5l101 713q19 130 -26 218t-148 101l75 223q197 -33 294 -175t69 -341l-109 -766q-28 -201 -163.5 -341.5t-342.5 -172.5z" />
<glyph unicode="*" horiz-adv-x="913" d="M225 1108l90 199l228 -90l28 264h197l-47 -262l246 90l34 -201l-258 -70l131 -207l-176 -122l-108 223l-170 -223l-146 122l193 209z" />
<glyph unicode="+" horiz-adv-x="1144" d="M164 502l33 237h358l57 410h242l-57 -410h360l-33 -237h-360l-57 -410h-242l57 410h-358z" />
<glyph unicode="," horiz-adv-x="450" d="M23 -100q88 45 106 102q-49 30 -49 104q0 81 52 124.5t130 43.5q65 0 104.5 -33t39.5 -94q0 -35 -10.5 -73t-36.5 -81t-64 -80.5t-98.5 -71.5t-135.5 -54z" />
<glyph unicode="-" horiz-adv-x="808" d="M164 500l33 233h620l-33 -233h-620z" />
<glyph unicode="." horiz-adv-x="450" d="M78 100q0 84 51 129t131 45q67 0 106.5 -33t39.5 -96q0 -83 -52.5 -127.5t-134.5 -44.5q-65 0 -103 32.5t-38 94.5z" />
<glyph unicode="/" horiz-adv-x="1017" d="M-14 -225l1020 1853l215 -92l-1024 -1851z" />
<glyph unicode="0" horiz-adv-x="1159" d="M166 430l82 574q30 212 176.5 335t359.5 123q216 0 329.5 -123t84.5 -335l-80 -574q-30 -212 -178.5 -335.5t-364.5 -123.5q-213 0 -325.5 123.5t-83.5 335.5zM440 455q-17 -119 28.5 -182.5t139.5 -63.5q97 0 160 63t80 183l74 524q17 120 -28 183t-142 63 q-94 0 -157.5 -63.5t-80.5 -182.5z" />
<glyph unicode="1" horiz-adv-x="696" d="M37 0l35 242h204l123 874l-178 -104l-86 194l346 228h230l-166 -1192h170l-35 -242h-643z" />
<glyph unicode="2" horiz-adv-x="1148" d="M117 0l22 162q203 177 334 300t236 238.5t152.5 203t47.5 159.5q0 78 -44.5 122t-127.5 44q-93 0 -171 -25t-181 -76l-76 183q237 151 471 151q204 0 307 -94.5t103 -263.5q0 -195 -130 -377.5t-478 -490.5h518l-33 -236h-950z" />
<glyph unicode="3" horiz-adv-x="1124" d="M106 113l115 196q87 -50 161.5 -75t168.5 -25q112 0 182 69.5t70 188.5q0 184 -189 184h-149l29 201h161q107 0 163 60.5t56 162.5q0 73 -39 114.5t-118 41.5q-171 0 -357 -78l-47 182q217 127 455 127q191 0 285 -95t94 -249q0 -102 -45.5 -195.5t-138.5 -156.5 q70 -43 104 -139.5t18 -186.5l-6 -32q-34 -195 -174 -316t-366 -121q-246 0 -433 142z" />
<glyph unicode="4" horiz-adv-x="1167" d="M94 260l23 156l616 1018h291l-573 -938h346l69 487h269l-70 -487h129l-33 -236h-129l-37 -260h-268l37 260h-670z" />
<glyph unicode="5" d="M109 113l114 196q172 -100 336 -100q98 0 164.5 54.5t81.5 148.5l6 34q37 220 -172 220q-129 0 -254 -76l-149 121l188 723h735l-33 -234h-495l-90 -350q86 47 198 47q195 0 289 -107t66 -323l-9 -66q-25 -193 -170.5 -311.5t-371.5 -118.5q-251 0 -434 142z" />
<glyph unicode="6" horiz-adv-x="1177" d="M162 393l86 611q29 210 177.5 334t365.5 124q245 0 440 -151l-129 -183q-84 50 -157.5 75.5t-166.5 25.5q-110 0 -178.5 -65t-85.5 -185l-25 -170q51 29 128 47t149 18q89 0 160.5 -22.5t125.5 -69t77.5 -127t9.5 -188.5l-9 -61q-19 -140 -94.5 -239.5t-190 -147.5 t-257.5 -48q-107 0 -191 26t-142.5 77t-83 132.5t-9.5 186.5zM436 420q-31 -215 185 -215q113 0 181 67.5t68 206.5q0 84 -41.5 122t-128.5 38q-140 0 -241 -66z" />
<glyph unicode="7" horiz-adv-x="935" d="M119 0l667 1198h-596l33 236h901l-20 -154l-696 -1280h-289z" />
<glyph unicode="8" horiz-adv-x="1179" d="M150 412l4 34q10 85 73 178t138 140q-44 44 -70.5 118.5t-26.5 145.5q0 193 133.5 313.5t393.5 120.5q210 0 313.5 -89.5t103.5 -248.5q0 -101 -49.5 -197t-134.5 -161q66 -48 99 -139.5t22 -180.5l-4 -34q-25 -195 -168.5 -318t-390.5 -123q-127 0 -219.5 34t-143 94.5 t-68.5 139.5t-5 173zM430 418q-13 -93 33.5 -152t157.5 -59q107 0 168.5 59t74.5 152l2 14q12 90 -36 154.5t-130 64.5h-38q-84 0 -151 -64.5t-79 -154.5zM532 1024q0 -74 42.5 -122t113.5 -48h33q90 0 155.5 65.5t65.5 157.5q0 73 -46 117.5t-130 44.5q-110 0 -172 -60.5 t-62 -154.5z" />
<glyph unicode="9" horiz-adv-x="1173" d="M135 111l129 188q85 -48 159 -71t171 -23q110 0 180.5 60.5t87.5 176.5l25 172q-104 -55 -269 -55q-89 0 -160.5 22.5t-126.5 69t-78.5 127.5t-8.5 189l8 61q19 140 94.5 239t189.5 147t257 48q107 0 191 -25.5t141.5 -76.5t82 -132t9.5 -186l-89 -620 q-30 -213 -173.5 -332t-385.5 -119q-255 0 -434 140zM514 952q0 -85 41 -121t129 -36q136 0 236 53l22 162q17 114 -32 166.5t-150 52.5q-113 0 -179.5 -68.5t-66.5 -208.5z" />
<glyph unicode=":" horiz-adv-x="450" d="M78 100q0 84 51 129t131 45q67 0 106.5 -33t39.5 -96q0 -83 -52.5 -127.5t-134.5 -44.5q-65 0 -103 32.5t-38 94.5zM205 991q0 84 51 129t131 45q67 0 106 -33t39 -96q0 -83 -52 -127.5t-134 -44.5q-65 0 -103 32.5t-38 94.5z" />
<glyph unicode=";" horiz-adv-x="450" d="M23 -100q88 45 106 102q-49 30 -49 104q0 81 52 124.5t130 43.5q65 0 104.5 -33t39.5 -94q0 -35 -10.5 -73t-36.5 -81t-64 -80.5t-98.5 -71.5t-135.5 -54zM205 991q0 84 51 129t131 45q67 0 106 -33t39 -96q0 -83 -52 -127.5t-134 -44.5q-65 0 -103 32.5t-38 94.5z" />
<glyph unicode="&#x3c;" horiz-adv-x="763" d="M162 485l24 172l504 383l105 -176l-375 -293l293 -288l-154 -177z" />
<glyph unicode="=" horiz-adv-x="1144" d="M131 258l33 234h958l-32 -234h-959zM193 694l32 234h959l-33 -234h-958z" />
<glyph unicode="&#x3e;" horiz-adv-x="763" d="M133 283l373 288l-291 293l152 176l399 -383l-25 -172l-505 -379z" />
<glyph unicode="?" horiz-adv-x="989" d="M252 1341q189 121 424 121q208 0 303 -101t72 -261l-4 -29q-9 -64 -30 -117.5t-58 -101t-70.5 -80.5t-89.5 -82q-93 -80 -130.5 -129t-47.5 -121l-9 -57h-262l10 70q7 44 17.5 81t20 64t30 56.5t32 45.5t42.5 44t45.5 40t54.5 45q76 62 117.5 118.5t52.5 133.5l2 15 q8 61 -25.5 99t-113.5 38q-95 0 -166 -16.5t-147 -55.5zM281 100q0 84 51 129t131 45q67 0 106 -33t39 -96q0 -83 -52 -127.5t-134 -44.5q-65 0 -103 32.5t-38 94.5z" />
<glyph unicode="@" horiz-adv-x="1486" d="M158 236.5q-28 85.5 0 185.5l159 584q37 134 152 237t265 154t308 51q156 0 279.5 -54.5t183.5 -159t23 -235.5l-119 -438q-33 -121 -110.5 -189.5t-192.5 -68.5q-133 0 -164 96q-48 -42 -112 -69t-119 -27q-135 0 -186 75t-13 216l63 237q36 136 123 208.5t209 72.5h344 l-151 -567q-15 -55 -6 -77t45 -22q71 0 106 115l119 430q20 75 -2 135t-75 96.5t-124.5 56t-154.5 19.5q-113 0 -221 -33t-196 -107t-116 -175l-153 -555q-21 -75 0.5 -135t74.5 -96.5t124.5 -56t154.5 -19.5q154 0 293 45l22 -135q-142 -58 -348 -58q-116 0 -216.5 32 t-170.5 89t-98 142.5zM678 602q-49 -162 70 -162q46 0 97 24.5t83 59.5l123 455h-148q-122 0 -170 -170z" />
<glyph unicode="A" horiz-adv-x="1239" d="M-2 0l672 1239l-37 195h278l328 -1434h-301l-53 252h-459l-125 -252h-303zM537 475h303l-90 432z" />
<glyph unicode="B" horiz-adv-x="1196" d="M127 80l190 1354h506q226 0 330 -95q81 -74 80 -205q0 -38 -6 -81l-8 -52q-10 -65 -59 -138.5t-120 -112.5q72 -24 114 -104q33 -61 33 -133q0 -22 -3 -44l-15 -98q-24 -164 -171 -267.5t-373 -103.5q-149 0 -262.5 19t-235.5 61zM428 266q120 -28 231 -28 q101 1 164 43.5t72 111.5l10 72q3 19 3 36q0 51 -24 83q-32 43 -104 43h-301zM508 844h274q57 0 94.5 43.5t63.5 126.5l4 12v21q0 81 -28 113q-32 34 -121 34h-238z" />
<glyph unicode="C" horiz-adv-x="1073" d="M170 440l78 555q30 212 187.5 339.5t377.5 127.5q128 0 215 -33t178 -104l-133 -192q-83 49 -142.5 69.5t-152.5 20.5q-102 0 -171.5 -67.5t-86.5 -184.5l-71 -506q-4 -30 -4 -56q1 -79 39 -129q52 -66 153 -67q93 0 156.5 20t162.5 70l80 -194q-111 -71 -208.5 -104.5 t-225.5 -33.5q-220 0 -341 128q-97 103 -97 260q0 39 6 81z" />
<glyph unicode="D" horiz-adv-x="1222" d="M127 80l190 1354h527q218 0 328 -126q87 -100 87 -255q0 -41 -6 -86l-69 -500q-29 -216 -179 -341.5t-384 -125.5q-281 0 -494 80zM428 266q109 -28 225 -28q220 0 256 254l64 450q5 35 5 65q0 75 -30 120q-42 63 -139 63h-252z" />
<glyph unicode="E" horiz-adv-x="1050" d="M117 0l200 1434h854l-32 -244h-580l-49 -342h483l-32 -240h-484l-51 -366h594l-35 -242h-868z" />
<glyph unicode="F" horiz-adv-x="1028" d="M117 0l200 1434h859l-33 -244h-584l-55 -393h483l-35 -242h-483l-78 -555h-274z" />
<glyph unicode="G" horiz-adv-x="1226" d="M168 432l78 563q29 211 189.5 339t387.5 128q153 0 257.5 -38t195.5 -113l-133 -195q-81 55 -157 81t-195 26q-107 0 -181.5 -67t-91.5 -187l-69 -508q-5 -33 -5 -62q0 -77 34 -123q45 -65 147 -65q73 0 145 34t123 89l31 219h-269l33 231h543l-113 -804h-203l-22 131 q-75 -64 -169.5 -102t-186.5 -38q-210 0 -305 121q-72 92 -72 239q0 47 8 101z" />
<glyph unicode="H" horiz-adv-x="1230" d="M117 0l200 1434h275l-80 -574h451l79 574h277l-201 -1434h-276l86 618h-451l-86 -618h-274z" />
<glyph unicode="I" horiz-adv-x="503" d="M117 0l200 1434h275l-201 -1434h-274z" />
<glyph unicode="J" horiz-adv-x="602" d="M106 -127q47 42 81 110t46 148l183 1303h274l-182 -1311q-21 -152 -95.5 -263t-176.5 -167z" />
<glyph unicode="K" horiz-adv-x="1167" d="M117 0l200 1434h275l-84 -600l528 600h326l-549 -617l250 -547q33 -73 117 -73q31 0 69 10l-30 -213q-81 -13 -144 -13q-31 0 -57 3q-82 9 -137 60t-103 163l-166 381l-163 -187l-58 -401h-274z" />
<glyph unicode="L" horiz-adv-x="993" d="M117 0l200 1434h275l-166 -1192h575l-34 -242h-850z" />
<glyph unicode="M" horiz-adv-x="1443" d="M117 0l200 1434h189l305 -801l530 801h191l-201 -1434h-276l116 764l-352 -535h-139l-195 514l-96 -743h-272z" />
<glyph unicode="N" horiz-adv-x="1265" d="M117 0l200 1434h248l400 -881l114 881h275l-201 -1434h-254l-395 874l-117 -874h-270z" />
<glyph unicode="O" horiz-adv-x="1251" d="M168 440l78 555q20 141 105.5 248.5t211.5 163t271 55.5q143 0 252 -56q110 -54 165 -162q40 -79 41 -176q0 -35 -6 -73l-78 -555q-20 -142 -105.5 -250t-210 -163.5t-267.5 -55.5q-145 0 -255 55q-110 56 -166 164q-41 79 -41 177q0 35 5 73zM449 465q-4 -27 -4 -51 q0 -84 46 -134q59 -66 166 -65q105 0 183.5 66t95.5 184l70 504q4 27 4 51q0 84 -46 135q-59 66 -163 66q-107 0 -186 -66t-97 -186z" />
<glyph unicode="P" horiz-adv-x="1202" d="M117 0l200 1434h527q218 0 328 -126q87 -100 87 -255q0 -41 -6 -86l-12 -90q-29 -215 -176 -342t-365 -127q-131 0 -245 47l-64 -455h-274zM487 690q99 -41 248 -41q96 0 155.5 64.5t78.5 187.5l6 41q6 38 6 70q1 72 -29 115q-42 63 -141 63h-252z" />
<glyph unicode="Q" horiz-adv-x="1251" d="M168 440l78 555q20 141 105.5 248.5t211.5 163t271 55.5q143 0 252.5 -55.5t164.5 -162.5q40 -79 40 -176q0 -35 -5 -73l-78 -555q-20 -142 -105.5 -250t-210 -163.5t-267.5 -55.5q-145 0 -255.5 55.5t-165.5 163.5q-41 79 -41 177q0 35 5 73zM360 -197q34 37 104 71 t138 34q49 0 95.5 -16t76 -34.5t65 -34.5t64.5 -16q88 0 174 46l47 -144q-39 -41 -106 -70.5t-131 -29.5q-49 0 -95.5 15.5t-76 33.5t-67.5 33.5t-73 15.5q-87 0 -165 -43zM449 465q-4 -27 -4 -51q0 -83 46 -134q59 -65 166 -65q105 0 183.5 66t95.5 184l70 504q4 27 4 51 q0 84 -46 135q-59 66 -163 66q-107 0 -186 -66t-97 -186z" />
<glyph unicode="R" horiz-adv-x="1202" d="M117 0l200 1434h527q216 0 330 -118q93 -96 93 -235q0 -33 -5 -67l-11 -72q-19 -132 -105 -234t-220 -147l114 -291q13 -33 35.5 -52t51 -22.5t51 -1.5t51.5 9l-31 -209q-88 -13 -157 -13q-25 -1 -47 1q-84 6 -140 59t-96 166l-115 317q-109 0 -176 21l-76 -545h-274z M502 788q91 -26 233 -26q104 0 168.5 58t75.5 149l2 18q2 19 2 36q-1 67 -35 111q-44 56 -137 56h-252z" />
<glyph unicode="S" horiz-adv-x="1189" d="M125 119l135 200q176 -104 344 -104q134 0 213.5 58t79.5 153q0 74 -56.5 114t-178.5 58q-371 53 -371 373q0 215 144.5 352t387.5 137q132 0 228.5 -35t189.5 -106l-133 -201q-88 52 -156 76.5t-159 24.5q-114 0 -173 -56t-59 -145q0 -79 56.5 -116t168.5 -54 q388 -60 388 -367q0 -107 -38 -198.5t-110.5 -161t-187 -109t-258.5 -39.5q-267 0 -455 146z" />
<glyph unicode="T" horiz-adv-x="1036" d="M190 1192l35 242h996l-35 -242h-361l-168 -1192h-276l168 1192h-359z" />
<glyph unicode="U" horiz-adv-x="1220" d="M170 418l143 1016h279l-139 -990q-5 -38 -6 -70q1 -70 27 -109q38 -56 138 -56q78 0 152 39t119 98l153 1088h277l-166 -1170q-4 -31 2.5 -48.5t22.5 -22t33.5 -2.5t43.5 10l-28 -205q-83 -17 -145 -17q-54 0 -92 13q-82 28 -95 131q-77 -72 -175 -112t-202 -40 q-211 0 -292 112q-59 81 -59 220q0 53 9 115z" />
<glyph unicode="V" horiz-adv-x="1202" d="M205 1434h291l157 -1102l461 1102h287l-680 -1434h-234z" />
<glyph unicode="W" horiz-adv-x="1843" d="M203 1434h286l105 -1092l389 1092h272l86 -1090l414 1090h283l-613 -1434h-266l-96 1049l-383 -1049h-266z" />
<glyph unicode="X" horiz-adv-x="1179" d="M2 0l514 723l-309 711h315l195 -508l346 508h311l-506 -697l312 -737h-316l-198 530l-351 -530h-313z" />
<glyph unicode="Y" horiz-adv-x="1148" d="M201 1434h303l188 -625l357 625h301l-562 -904l-73 -530h-277l74 526z" />
<glyph unicode="Z" horiz-adv-x="1110" d="M59 0l27 186q265 260 455.5 502t310.5 504h-602l33 242h944l-27 -191q-132 -281 -296.5 -518.5t-393.5 -482.5h580l-35 -242h-996z" />
<glyph unicode="[" horiz-adv-x="575" d="M90 -225l248 1761h414l-33 -225h-174l-185 -1311h175l-31 -225h-414z" />
<glyph unicode="\" horiz-adv-x="1019" d="M231 1536l238 92l502 -1853l-238 -90z" />
<glyph unicode="]" horiz-adv-x="575" d="M12 -225l31 225h174l184 1311h-174l33 225h414l-248 -1761h-414z" />
<glyph unicode="^" horiz-adv-x="870" d="M236 1051l305 460h217l172 -460l-217 -66l-92 324l-185 -324z" />
<glyph unicode="_" horiz-adv-x="1005" d="M-20 -268l26 182h975l-27 -182h-974z" />
<glyph unicode="`" horiz-adv-x="634" d="M324 1446l204 119l127 -305l-135 -80z" />
<glyph unicode="a" d="M172 410l37 260q29 199 148.5 307t299.5 108q152 0 258 -75l41 55h189l-113 -801q-6 -41 9.5 -58.5t39 -16.5t58.5 12l-29 -205q-85 -17 -146 -17q-52 0 -86 12q-76 26 -96 111q-65 -57 -149.5 -89.5t-171.5 -32.5q-173 0 -245 112q-51 81 -52 210q0 50 8 108zM438 434 q-6 -44 -6 -80q0 -58 16 -92q26 -54 113 -53q58 0 118 33.5t101 85.5l68 481q-85 49 -186 49q-77 0 -127.5 -53t-65.5 -156z" />
<glyph unicode="b" d="M123 0l37 266l178 1270h262l-78 -561q55 48 129 79t146 31q190 0 261 -103q49 -72 49 -194q0 -53 -9 -116l-39 -260q-29 -200 -160.5 -316t-323.5 -116q-135 0 -249 83l-25 -63h-178zM422 262q76 -55 168 -55q176 0 211 227l30 217q5 37 5 66q0 55 -18 87q-28 48 -113 48 q-51 0 -110.5 -31.5t-105.5 -77.5z" />
<glyph unicode="c" horiz-adv-x="1040" d="M168 414l35 237q29 202 164.5 318t341.5 116q123 0 205.5 -32t168.5 -99l-125 -180q-57 34 -85.5 48.5t-76.5 26t-110 11.5q-95 0 -151.5 -59t-71.5 -172l-27 -193q-4 -32 -4 -60q0 -169 162 -169q85 0 144.5 19t154.5 67l72 -182q-103 -65 -197.5 -98t-214.5 -33 q-205 0 -309 116q-81 92 -82 236q0 39 6 82z" />
<glyph unicode="d" d="M172 410l37 260q29 202 138 308.5t288 106.5q132 0 244 -51l71 502h260l-178 -1272q-6 -41 9.5 -58.5t39 -16.5t58.5 12l-31 -205q-84 -17 -144 -17q-52 0 -86 12q-76 26 -96 111q-65 -57 -149.5 -89.5t-171.5 -32.5q-173 0 -245 112q-51 81 -52 210q0 50 8 108zM438 434 q-6 -44 -6 -80q0 -58 16 -92q26 -54 113 -53q58 0 118 33.5t101 85.5l68 481q-88 51 -189 51q-77 0 -126 -53t-64 -158z" />
<glyph unicode="e" horiz-adv-x="1105" d="M168 412l35 239q29 202 165 318t343 116q206 0 309 -116q80 -91 81 -233q0 -40 -7 -85l-29 -202h-627l-4 -29q-5 -32 -5 -60q0 -157 161 -157q87 0 161 22.5t162 67.5l74 -182q-210 -131 -432 -131q-207 0 -311 116q-82 91 -82 235q0 38 6 81zM459 627h368l2 16 q4 30 4 56q0 69 -27 109q-37 54 -128 54t-147.5 -54.5t-69.5 -164.5z" />
<glyph unicode="f" horiz-adv-x="716" d="M80 -307l164 1161h-107l29 211h106l17 115q27 188 135 278t297 90q106 0 194 -30l-69 -203q-47 12 -119 12q-82 0 -123.5 -38t-52.5 -118l-14 -106h258l-29 -211h-258l-164 -1161h-264z" />
<glyph unicode="g" horiz-adv-x="1114" d="M106 -219l107 186q132 -69 311 -69q196 0 221 188l11 74q-118 -94 -273 -94q-189 0 -258 100q-49 72 -49 198q0 51 8 111l27 197q28 203 134 308t284 105q137 0 286 -71l41 51h191l-141 -1002q-27 -189 -157.5 -290t-336.5 -101q-234 0 -406 109zM446 498q-5 -35 -5 -64 q0 -56 19 -88q29 -47 113 -47q99 0 213 86l62 424q-90 43 -195 43q-155 0 -184 -201z" />
<glyph unicode="h" horiz-adv-x="1110" d="M123 0l215 1536h262l-78 -561q56 49 132 79.5t149 30.5q184 1 250 -97q47 -69 47 -186q0 -48 -8 -104l-62 -442q-4 -36 8 -51t41 -15q16 0 58 11l-31 -205q-98 -16 -164 -16q-104 0 -152 45q-37 35 -37 106q0 21 3 45l69 496q5 31 5 56q0 54 -20 82q-30 42 -112 42 q-105 0 -209 -104l-104 -748h-262z" />
<glyph unicode="i" horiz-adv-x="503" d="M121 0l151 1065h263l-150 -1065h-264zM279 1337q0 83 52.5 129.5t133.5 46.5q65 0 104 -34t39 -97q0 -82 -52.5 -126t-133.5 -44q-65 0 -104 32t-39 93z" />
<glyph unicode="j" horiz-adv-x="516" d="M-106 -121q121 5 181 56.5t75 164.5l133 965h266l-139 -985q-28 -192 -158.5 -296.5t-353.5 -111.5zM297 1337q0 83 49 127.5t129 44.5q64 0 100.5 -31.5t36.5 -91.5q0 -85 -48 -128.5t-130 -43.5q-65 0 -101 31t-36 92z" />
<glyph unicode="k" horiz-adv-x="1044" d="M123 0l215 1536h262l-121 -870l402 399h315l-446 -442l149 -357q32 -75 118 -75q31 0 70 10l-30 -207q-79 -13 -142 -13q-31 0 -58 3q-81 10 -134.5 61t-97.5 162l-82 209l-115 -117l-43 -299h-262z" />
<glyph unicode="l" horiz-adv-x="503" d="M147 176l191 1360h264l-180 -1280q-4 -36 8 -51t41 -15q15 0 57 11l-30 -205q-98 -16 -164 -16q-105 0 -153 45q-37 35 -37 106q0 21 3 45z" />
<glyph unicode="m" horiz-adv-x="1648" d="M123 0l149 1065h228l8 -100q58 53 134 86.5t151 33.5q178 0 231 -145q151 145 336 145q162 0 228 -91q46 -64 46 -182q0 -48 -8 -105l-61 -451q-2 -10 -2 -19q0 -47 51 -47q15 0 57 11l-31 -205q-101 -16 -163 -16q-105 0 -154 45q-38 35 -38 107q0 21 3 44l72 510 q5 38 5 67q0 41 -11 65q-19 40 -88 40q-105 0 -205 -117l-105 -741h-262l97 682q4 25 4 46q1 49 -19 80q-28 44 -86 44q-101 0 -201 -111l-104 -741h-262z" />
<glyph unicode="n" horiz-adv-x="1112" d="M123 0l149 1065h228l8 -100q59 52 139.5 86t155.5 34q180 0 248 -99q49 -71 49 -189q0 -47 -8 -101l-62 -440q-4 -36 8 -51t41 -15q16 0 58 11l-31 -205q-98 -16 -164 -16q-104 0 -152 45q-37 35 -37 106q0 21 3 45l69 494q5 32 5 58q0 52 -19 81q-28 43 -111 43 q-53 0 -110 -31.5t-101 -79.5l-104 -741h-262z" />
<glyph unicode="o" horiz-adv-x="1110" d="M168 412l35 241q29 201 165 316.5t343 115.5q207 1 309 -115q81 -91 80 -235q0 -39 -6 -82l-33 -241q-28 -200 -164 -316t-342 -116q-207 0 -311 116q-82 91 -82 235q0 38 6 81zM434 434q-5 -34 -5 -62q-1 -68 27 -108q40 -58 130 -57q89 0 144.5 58t70.5 169l26 197 q4 33 4 60q0 167 -153 167q-90 0 -144 -57.5t-69 -169.5z" />
<glyph unicode="p" d="M80 -307l192 1372h228l8 -100q57 52 138 86t155 34q189 0 258 -103q48 -71 48 -194q0 -53 -9 -116l-37 -260q-29 -202 -155 -317t-320 -115q-108 0 -199 32l-45 -319h-262zM420 240q62 -33 170 -33q176 0 211 227l30 217q5 37 5 67q0 56 -18 86q-28 48 -111 48 q-55 0 -114 -32t-104 -79z" />
<glyph unicode="q" d="M168 393l37 260q30 203 149.5 317.5t309.5 114.5q135 0 247 -71l43 51h191l-195 -1372h-264l57 397q-55 -48 -129.5 -79t-146.5 -31q-189 0 -259 102q-49 72 -49 196q0 53 9 115zM434 414q-5 -37 -5 -66q0 -56 19 -88q28 -47 111 -47q51 0 111 31.5t106 77.5l68 491 q-77 45 -176 45q-173 0 -203 -227z" />
<glyph unicode="r" horiz-adv-x="722" d="M121 0l151 1065h228l8 -119q61 60 151 99.5t170 39.5l-12 -239q-91 0 -178 -33.5t-154 -91.5l-100 -721h-264z" />
<glyph unicode="s" horiz-adv-x="1007" d="M92 106l119 183q76 -48 147 -73.5t158 -25.5q94 0 147.5 32.5t53.5 90.5q0 56 -62 82q-37 16 -157 39q-51 10 -85 19.5t-75 29.5t-65 48t-41 74t-17 106q0 174 114.5 274t338.5 100q122 0 210 -32t171 -97l-115 -172q-80 47 -142.5 68.5t-144.5 21.5q-164 0 -164 -116 q0 -21 8 -36t20 -25t35.5 -17.5t46 -12.5t59.5 -12q14 -3 22 -4q39 -7 64 -12.5t61 -17t59 -24t49 -34t41 -48t25 -64.5t10 -84q0 -177 -129 -282t-354 -105q-239 0 -408 126z" />
<glyph unicode="t" horiz-adv-x="636" d="M113 854l28 211h160l29 203h264l-29 -203h195l-29 -211h-194l-66 -465q-6 -44 -6 -87q0 -165 96 -302h-293q-72 105 -72 262q0 55 9 117l67 475h-159z" />
<glyph unicode="u" horiz-adv-x="1087" d="M168 379l96 686h262l-94 -676q-5 -35 -6 -64q0 -47 16 -73q24 -42 97 -43q58 0 116.5 33.5t100.5 85.5l102 737h266l-112 -801q-4 -31 2 -49t22 -22.5t34.5 -2t43.5 10.5l-29 -205q-85 -17 -146 -17q-51 0 -85 12q-75 26 -94 111q-66 -57 -151.5 -89.5t-172.5 -32.5 q-168 0 -232 98q-44 68 -45 186q0 53 9 115z" />
<glyph unicode="v" horiz-adv-x="1013" d="M156 1065h278l123 -733l324 733h276l-532 -1065h-238z" />
<glyph unicode="w" horiz-adv-x="1536" d="M158 1065h272l64 -723l286 723h264l97 -715l266 715h270l-456 -1065h-265l-98 707l-280 -707h-263z" />
<glyph unicode="x" horiz-adv-x="1054" d="M6 0l428 547l-262 518h307l150 -344l248 344h307l-408 -518l273 -547h-304l-167 375l-269 -375h-303z" />
<glyph unicode="y" horiz-adv-x="1099" d="M92 -215l105 188q154 -77 323 -77q195 0 223 190l19 129q-62 -56 -146.5 -88.5t-164.5 -32.5q-167 0 -233 82q-47 59 -47 169q0 44 7 95l88 625h264l-79 -559q-5 -34 -5 -61q0 -49 16 -75q26 -40 107 -40q55 0 111 26.5t98 69.5l90 639h262l-141 -999 q-28 -192 -151.5 -293t-329.5 -101q-250 0 -416 113z" />
<glyph unicode="z" horiz-adv-x="952" d="M63 0l25 172q217 164 365 320t245 352h-505l30 221h805l-24 -172q-87 -201 -205 -357t-291 -315h424l-31 -221h-838z" />
<glyph unicode="{" horiz-adv-x="702" d="M147 537l33 237h64q116 0 137 150l43 301q23 162 112 236.5t244 74.5h76l-33 -221h-30q-54 0 -79.5 -27t-33.5 -86l-39 -272q-12 -92 -56.5 -163t-117.5 -112q59 -36 83.5 -109.5t12.5 -164.5l-37 -272q-8 -59 10 -86t72 -27h31l-31 -221h-76q-155 0 -223 75t-45 238 l43 299q21 150 -96 150h-64z" />
<glyph unicode="|" horiz-adv-x="481" d="M74 -348l270 1925h236l-271 -1925h-235z" />
<glyph unicode="}" horiz-adv-x="702" d="M35 -225l31 221h32q53 0 79 27.5t34 87.5l39 270q12 90 58 164t114 110q-122 82 -96 275l39 272q8 59 -10 86t-70 27h-33l31 221h75q155 0 223.5 -74t45.5 -237l-43 -301q-21 -150 96 -150h63l-34 -237h-64q-116 0 -137 -148l-43 -301q-23 -163 -111 -238t-243 -75h-76z " />
<glyph unicode="~" horiz-adv-x="1167" d="M176 567q37 119 122.5 193t205.5 74q66 0 137 -28t131 -55.5t98 -27.5q96 0 123 102l191 -28q-36 -124 -118 -196.5t-210 -72.5q-54 0 -109 17t-92.5 37.5t-83 37.5t-82.5 17q-51 0 -82.5 -27.5t-39.5 -74.5z" />
<glyph unicode="&#xa1;" horiz-adv-x="532" d="M135 0l51 369l121 673h215l-73 -673l-52 -369h-262zM309 1290q0 80 44.5 122t117.5 42q57 0 90 -29.5t33 -87.5q0 -79 -44 -119t-118 -40q-57 0 -90 28.5t-33 83.5z" />
<glyph unicode="&#xa2;" horiz-adv-x="1040" d="M201 637l22 156q28 187 146 301t301 131l30 209h162l-31 -213q82 -10 141.5 -39.5t131.5 -85.5l-117 -168q-46 27 -64.5 37t-51.5 21t-70 15l-80 -569q104 16 211 72l63 -170q-85 -54 -153 -84t-152 -41l-31 -209h-161l28 205q-179 17 -266 131t-59 301zM440 653 q-14 -93 17 -152t102 -69l80 565q-74 -10 -121 -69t-59 -152z" />
<glyph unicode="&#xa3;" horiz-adv-x="1054" d="M68 0l26 190q76 42 127.5 111.5t61.5 149.5l28 206h-151l33 228h151l37 272q56 391 455 391q193 0 333 -86l-106 -186q-110 51 -217 51q-94 0 -141.5 -42.5t-61.5 -137.5l-37 -262h277l-33 -228h-277l-24 -178q-10 -69 -38 -130t-51 -87l-22 -26h586l-33 -236h-923z" />
<glyph unicode="&#xa4;" horiz-adv-x="1202" d="M127 324l158 141q-28 84 -13 184l13 86q13 99 63 180l-117 146l191 176l117 -143q99 47 223 47q133 0 211 -47l157 143l140 -176l-158 -146q25 -82 10 -180l-12 -86q-13 -86 -61 -184l116 -141l-188 -177l-117 144q-92 -47 -223 -47q-133 0 -213 47l-156 -146zM504 668 q-13 -99 33 -151t131 -52q86 0 146 52t73 151l6 49q13 99 -32 151t-130 52q-86 0 -147 -52t-74 -151z" />
<glyph unicode="&#xa5;" horiz-adv-x="1157" d="M129 176l27 195h346l18 129h-346l29 194h297l-283 740l297 6l195 -574l354 568h283l-484 -740h299l-28 -194h-342l-19 -129h342l-27 -195h-342l-24 -176h-270l24 176h-346z" />
<glyph unicode="&#xa6;" horiz-adv-x="481" d="M74 -348l102 727h236l-103 -727h-235zM242 842l102 735h236l-103 -735h-235z" />
<glyph unicode="&#xa7;" horiz-adv-x="1062" d="M84 -72l121 189q160 -99 321 -99q79 0 123 35t49 88l2 25q4 44 -42 73.5t-130 45.5q-62 13 -110 27.5t-99.5 41t-83 61t-48 87.5t-7.5 119l4 30q9 63 56 130.5t110 105.5q-43 37 -65.5 93t-12.5 116l7 37q23 147 136 238t306 91q125 0 217 -33t176 -100l-121 -178 q-79 46 -144 68t-151 22q-72 0 -111 -31.5t-44 -81.5l-2 -24q-8 -93 178 -129q28 -6 52 -12t52.5 -14.5t51.5 -17.5t49 -22t44.5 -27t38 -32.5t30.5 -38.5t21 -45.5t9 -53.5t-4 -61l-6 -35q-10 -58 -63 -123.5t-117 -107.5q52 -34 79 -91.5t15 -123.5l-6 -35 q-24 -147 -146 -242.5t-317 -95.5q-244 0 -418 131zM452.5 602q3.5 -18 17.5 -31.5t26 -22.5t40.5 -18t44.5 -13.5t53.5 -12.5t53.5 -12q39 24 67.5 57t32.5 63l3 15q4 27 -8.5 49t-32.5 35t-51.5 24t-57.5 16t-59 11.5t-47 9.5q-31 -20 -53.5 -51.5t-26.5 -65.5l-2 -12 q-4 -23 -0.5 -41z" />
<glyph unicode="&#xa8;" horiz-adv-x="948" d="M356 1309q0 84 51.5 129t131.5 45q97 0 131 -64q52 64 147 64q67 0 106.5 -33t39.5 -96q0 -83 -52.5 -127.5t-134.5 -44.5q-93 0 -127 61q-52 -61 -151 -61q-65 0 -103.5 33t-38.5 94z" />
<glyph unicode="&#xa9;" horiz-adv-x="1413" d="M166 428l82 571q19 137 118 242.5t242 159t303 53.5q120 0 224 -32t179 -89t111.5 -144t22.5 -190l-80 -571q-15 -104 -76.5 -191t-152.5 -144.5t-204 -89.5t-233 -32q-119 0 -223 32t-178.5 89.5t-111.5 144.5t-23 191zM346 426q-12 -87 42.5 -152.5t144 -97 t194.5 -31.5q106 0 204.5 31.5t171 97t85.5 152.5l82 573q12 86 -42.5 152t-145 98.5t-195.5 32.5q-104 0 -203 -32t-171.5 -98.5t-84.5 -152.5zM496 610l28 207q23 164 109.5 241t253.5 77q77 0 136.5 -24.5t123.5 -74.5l-86 -129q-53 32 -97 46t-100 14q-69 0 -104 -39.5 t-47 -126.5l-25 -170q-12 -90 12.5 -130t94.5 -40q56 0 103.5 14t111.5 47l47 -131q-78 -49 -145 -73.5t-144 -24.5q-167 0 -231.5 77t-40.5 240z" />
<glyph unicode="&#xaa;" horiz-adv-x="901" d="M178 760q0 152 92.5 226.5t264.5 74.5q91 0 200 -25l13 90q10 79 -28.5 111.5t-121.5 32.5q-130 0 -242 -56l-47 156q172 90 357 90q336 0 292 -321l-79 -576h-174l-3 84q-43 -43 -121.5 -71.5t-148.5 -28.5q-117 0 -185.5 53.5t-68.5 159.5zM393 797q0 -82 105 -82 q54 0 115 27t92 69l10 86q-80 18 -180 18q-68 0 -105 -26.5t-37 -91.5z" />
<glyph unicode="&#xab;" horiz-adv-x="1024" d="M268 492l23 159l356 316l80 -133l152 133l96 -156l-264 -240l196 -237l-141 -156l-113 133l-118 -133zM477 571l29 -34l10 69z" />
<glyph unicode="&#xac;" horiz-adv-x="1269" d="M195 686l32 232h1073l-73 -527h-258l41 295h-815z" />
<glyph unicode="&#xad;" horiz-adv-x="798" d="M197 500l32 233h623l-33 -233h-622z" />
<glyph unicode="&#xae;" horiz-adv-x="1413" d="M166 428l82 571q19 137 118 242.5t242 159t303 53.5q120 0 224 -32t179 -89t111.5 -144t22.5 -190l-80 -571q-15 -104 -76.5 -191t-152.5 -144.5t-204 -89.5t-233 -32q-119 0 -223 32t-178.5 89.5t-111.5 144.5t-23 191zM346 426q-12 -87 42.5 -152.5t144 -97 t194.5 -31.5q106 0 204.5 31.5t171 97t85.5 152.5l82 573q12 86 -42.5 152t-145 98.5t-195.5 32.5q-104 0 -203 -32t-171.5 -98.5t-84.5 -152.5zM465 307l115 817h309q131 0 196.5 -66t47.5 -188l-7 -41q-12 -82 -57.5 -141.5t-118.5 -85.5l119 -295h-231l-90 271h-50 l-41 -271h-192zM717 731h92q57 0 88.5 25t38.5 84l2 16q7 59 -16.5 83t-79.5 24h-92z" />
<glyph unicode="&#xaf;" horiz-adv-x="796" d="M258 1206l33 234h622l-32 -234h-623z" />
<glyph unicode="&#xb0;" horiz-adv-x="727" d="M252 1155l4 35q15 125 101 201.5t210 76.5q128 0 191.5 -75.5t48.5 -202.5l-4 -35q-17 -131 -103.5 -204.5t-216.5 -73.5q-124 0 -187 73.5t-44 204.5zM410 1141q0 -51 24 -80t70 -29q74 0 108.5 45.5t34.5 122.5q0 109 -104 109q-66 0 -99.5 -44.5t-33.5 -123.5z" />
<glyph unicode="&#xb1;" horiz-adv-x="1159" d="M104 39l31 213h963l-31 -213h-963zM188 637l31 217h369l41 293h225l-41 -293h369l-31 -217h-369l-41 -293h-225l41 293h-369z" />
<glyph unicode="&#xb2;" horiz-adv-x="856" d="M160 479l18 131l426 406q96 93 96 166q0 36 -24.5 61t-71.5 25q-49 0 -99 -11.5t-76.5 -22t-86.5 -36.5l-53 150q184 106 354 106q136 0 202 -65.5t66 -174.5q0 -50 -15.5 -98t-46 -91t-58.5 -74t-68 -70l-223 -215h356l-27 -187h-669z" />
<glyph unicode="&#xb3;" horiz-adv-x="841" d="M168 549l78 151q105 -51 233 -51q60 0 98 30.5t48 88.5l2 10q10 60 -12 91.5t-68 31.5h-113l21 148h112q47 0 76 44.5t29 94.5q0 88 -90 88q-122 0 -232 -45l-35 147q137 80 310 80q131 0 196.5 -63t65.5 -168q0 -64 -30 -133t-79 -113q37 -28 55 -84t13 -113l-2 -22 q-14 -133 -116 -215t-259 -82q-179 0 -301 84z" />
<glyph unicode="&#xb4;" horiz-adv-x="634" d="M305 1260l213 305l172 -119l-270 -266z" />
<glyph unicode="&#xb6;" horiz-adv-x="1153" d="M242 961l6 51q26 202 158.5 312t349.5 110h479l-234 -1659h-157l209 1478h-158l-209 -1478h-160l109 764h-41q-185 0 -281.5 111t-70.5 311z" />
<glyph unicode="&#xb7;" horiz-adv-x="450" d="M160 670q0 84 51 129t131 45q66 0 105.5 -33t39.5 -96q0 -83 -52 -127.5t-134 -44.5q-65 0 -103 32.5t-38 94.5z" />
<glyph unicode="&#xb8;" horiz-adv-x="532" d="M43 -322l27 97q25 -11 65 -11q36 0 59 15t23 39q0 26 -29.5 38t-58.5 10l-29 -1l76 135h170l-35 -68q50 -8 79.5 -36t29.5 -76q0 -45 -23 -78.5t-61 -50.5t-78.5 -25t-83.5 -8q-69 0 -131 20z" />
<glyph unicode="&#xb9;" horiz-adv-x="608" d="M164 510l24 174h138l71 510l-125 -74l-67 148l266 174h166l-107 -758h134l-25 -174h-475z" />
<glyph unicode="&#xba;" horiz-adv-x="884" d="M203 903l28 201q23 166 134.5 261t281.5 95q169 0 255 -95.5t63 -260.5l-29 -201q-23 -165 -135 -260.5t-281 -95.5q-170 0 -255 95t-62 261zM414 922q-13 -91 22 -137t111 -46q153 0 180 183l25 163q13 92 -21 138.5t-110 46.5t-123.5 -46.5t-59.5 -138.5z" />
<glyph unicode="&#xbb;" horiz-adv-x="1024" d="M213 334l262 237l-194 240l139 156l112 -133l119 133l271 -316l-23 -159l-358 -314l-82 133l-150 -133zM672 539l37 32l-29 33z" />
<glyph unicode="&#xbc;" horiz-adv-x="1857" d="M182 510l25 174h137l72 510l-125 -74l-66 148l264 174h168l-106 -758h131l-25 -174h-475zM342 0l1124 1434h281l-1126 -1434h-279zM1073 170l17 123l368 657h213l-323 -596h202l39 273h207l-39 -273h68l-25 -184h-69l-25 -170h-205l25 170h-453z" />
<glyph unicode="&#xbd;" horiz-adv-x="1974" d="M182 510l25 174h137l72 510l-125 -74l-66 148l264 174h168l-106 -758h131l-25 -174h-475zM330 0l1124 1434h279l-1127 -1434h-276zM1233 0l18 133l432 406q54 51 75.5 88.5t21.5 74.5t-25 61.5t-72 24.5q-71 0 -127.5 -17t-134.5 -52l-51 151q179 105 354 105 q135 0 201 -64.5t66 -173.5q0 -95 -51.5 -175t-135.5 -159l-233 -217h360l-26 -186h-672z" />
<glyph unicode="&#xbe;" horiz-adv-x="1916" d="M150 549l77 151q105 -51 234 -51q122 0 143 119l2 10q10 60 -12 91.5t-66 31.5h-112l20 148h111q46 0 76 44.5t30 92.5q0 90 -92 90q-119 0 -229 -45l-37 147q140 80 309 80q131 0 197.5 -63.5t66.5 -169.5q0 -63 -30.5 -132t-77.5 -112q36 -28 53 -83.5t12 -113.5 l-2 -22q-14 -133 -115.5 -215t-258.5 -82q-180 0 -299 84zM391 0l1127 1434h278l-1128 -1434h-277zM1133 170l16 123l373 657h211l-324 -596h205l37 273h204l-36 -273h67l-26 -184h-68l-25 -170h-204l24 170h-454z" />
<glyph unicode="&#xbf;" horiz-adv-x="989" />
<glyph unicode="&#xc0;" horiz-adv-x="1239" d="M-2 0l672 1239l-37 195h278l328 -1434h-301l-53 252h-459l-125 -252h-303zM537 475h303l-90 432zM596 1741l205 119l127 -306l-135 -79z" />
<glyph unicode="&#xc1;" horiz-adv-x="1239" d="M-2 0l672 1239l-37 195h278l328 -1434h-301l-53 252h-459l-125 -252h-303zM537 475h303l-90 432zM762 1567l213 305l172 -119l-270 -266z" />
<glyph unicode="&#xc2;" horiz-adv-x="1239" d="M-2 0l672 1239l-37 195h278l328 -1434h-301l-53 252h-459l-125 -252h-303zM537 475h303l-90 432zM573 1559l193 217h207l131 -217l-189 -52l-65 138l-102 -138z" />
<glyph unicode="&#xc3;" horiz-adv-x="1239" d="M-2 0l672 1239l-37 195h278l328 -1434h-301l-53 252h-459l-125 -252h-303zM440 1563q26 109 92.5 178t161.5 69q58 0 122 -23.5t114 -47t76 -23.5q72 0 84 84l174 -41q-25 -113 -89.5 -180.5t-166.5 -67.5q-58 0 -116.5 23.5t-107 46.5t-82.5 23q-76 0 -88 -84zM537 475 h303l-90 432z" />
<glyph unicode="&#xc4;" horiz-adv-x="1239" d="M-2 0l672 1239l-37 195h278l328 -1434h-301l-53 252h-459l-125 -252h-303zM457 1649q0 81 39.5 131.5t115.5 50.5q115 0 115 -125q0 -78 -40.5 -127t-117.5 -49q-112 0 -112 119zM537 475h303l-90 432zM975 1649q0 81 39.5 131.5t115.5 50.5q115 0 115 -123 q0 -81 -39 -129.5t-119 -48.5q-112 0 -112 119z" />
<glyph unicode="&#xc5;" horiz-adv-x="1239" d="M-2 0l672 1239l-37 195h278l328 -1434h-301l-53 252h-459l-125 -252h-303zM537 475h303l-90 432zM680 1645l2 20q7 73 61.5 118.5t128.5 45.5t115.5 -45t34.5 -119l-2 -20q-7 -74 -63 -118t-132 -44q-74 0 -114.5 43.5t-30.5 118.5zM786 1638q0 -57 52 -57 q36 0 56.5 23.5t20.5 62.5q0 62 -55 62q-36 0 -55 -24.5t-19 -66.5z" />
<glyph unicode="&#xc6;" horiz-adv-x="1882" d="M-10 0l952 1434h1059l-33 -244h-592l-59 -422h491l-34 -242h-492l-39 -284h606l-34 -242h-883l53 383h-426l-235 -383h-334zM702 625h318l80 575h-45z" />
<glyph unicode="&#xc7;" horiz-adv-x="1189" d="M170 440l78 555q20 140 99 246.5t200 163.5t266 57q194 0 311 -91t125 -245l-274 -57q-6 71 -58 111.5t-139 40.5q-102 0 -171.5 -65.5t-86.5 -186.5l-71 -504q-17 -121 34.5 -186.5t153.5 -65.5q87 0 150.5 40.5t89.5 111.5l258 -58q-46 -136 -163.5 -224t-281.5 -108 l-20 -43q47 -8 76.5 -36.5t29.5 -75.5q0 -45 -23 -78.5t-61.5 -50.5t-79 -25t-84.5 -8q-66 0 -131 20l27 97q25 -11 65 -11q38 0 61 14.5t23 39.5q0 26 -29 38t-58 10l-29 -1l61 110q-183 25 -279 149.5t-69 315.5z" />
<glyph unicode="&#xc8;" horiz-adv-x="1050" d="M117 0l200 1434h854l-32 -244h-580l-49 -342h483l-32 -240h-484l-51 -366h594l-35 -242h-868zM567 1733l205 118l127 -305l-135 -80z" />
<glyph unicode="&#xc9;" horiz-adv-x="1050" d="M117 0l200 1434h854l-32 -244h-580l-49 -344h483l-32 -234h-484l-51 -370h594l-35 -242h-868zM662 1554l212 306l173 -119l-271 -266z" />
<glyph unicode="&#xca;" horiz-adv-x="1050" d="M117 0l200 1434h854l-32 -244h-580l-49 -342h483l-32 -240h-484l-51 -366h594l-35 -242h-868zM506 1559l192 217h207l131 -217l-188 -52l-66 138l-102 -138z" />
<glyph unicode="&#xcb;" horiz-adv-x="1050" d="M117 0l200 1434h854l-32 -244h-580l-49 -342h483l-32 -240h-484l-51 -366h594l-35 -242h-868zM391 1649q0 81 40 131.5t116 50.5q58 0 87.5 -33t29.5 -92q0 -79 -41.5 -127.5t-118.5 -48.5q-57 0 -85 31.5t-28 87.5zM872 1651q0 80 41.5 130t116.5 50q113 0 113 -123 q0 -81 -39 -129.5t-117 -48.5q-57 0 -86 32.5t-29 88.5z" />
<glyph unicode="&#xcc;" horiz-adv-x="503" d="M117 0l200 1434h275l-201 -1434h-274zM250 1741l205 119l127 -306l-136 -79z" />
<glyph unicode="&#xcd;" horiz-adv-x="503" d="M117 0l200 1434h275l-201 -1434h-274zM354 1548l213 305l172 -118l-270 -267z" />
<glyph unicode="&#xce;" horiz-adv-x="503" d="M117 0l200 1434h275l-201 -1434h-274zM207 1559l192 217h207l131 -217l-188 -52l-66 138l-102 -138z" />
<glyph unicode="&#xcf;" horiz-adv-x="503" d="M117 0l200 1434h275l-201 -1434h-274zM195 1649q0 81 38 131.5t115 50.5q56 0 83.5 -32t27.5 -89q0 -81 -37.5 -130.5t-116.5 -49.5q-110 0 -110 119zM526 1647q0 82 37 133t113 51q110 0 110 -123q0 -80 -37.5 -129t-115.5 -49q-107 0 -107 117z" />
<glyph unicode="&#xd0;" horiz-adv-x="1222" d="M104 608l31 221h98l86 605h527q219 0 329.5 -126.5t79.5 -340.5l-71 -500q-31 -216 -180 -341.5t-383 -125.5q-279 0 -492 80l74 528h-99zM430 266q109 -28 225 -28q220 0 256 254l64 450q17 122 -25 185t-139 63h-252l-51 -361h262l-31 -223h-262z" />
<glyph unicode="&#xd1;" horiz-adv-x="1265" d="M117 0l200 1434h248l400 -881l114 881h275l-201 -1434h-254l-395 874l-117 -874h-270zM453 1565q26 109 92.5 178t161.5 69q58 0 121.5 -23.5t113.5 -47t76 -23.5q72 0 84 84l174 -41q-25 -113 -89.5 -180.5t-166.5 -67.5q-58 0 -116 23.5t-106.5 46.5t-82.5 23 q-76 0 -88 -84z" />
<glyph unicode="&#xd2;" horiz-adv-x="1251" d="M168 440l78 555q20 141 105.5 248.5t211.5 163t271 55.5q143 0 252.5 -55.5t164.5 -163t35 -248.5l-78 -555q-20 -142 -105.5 -250t-210 -163.5t-267.5 -55.5q-145 0 -255.5 55.5t-166 163.5t-35.5 250zM449 465q-17 -119 42 -184.5t166 -65.5q105 0 183.5 66t95.5 184 l70 504q17 120 -42 186t-163 66q-107 0 -186 -66t-97 -186zM616 1767l205 119l127 -305l-135 -80z" />
<glyph unicode="&#xd3;" horiz-adv-x="1251" d="M168 440l78 555q20 141 105.5 248.5t211.5 163t271 55.5q143 0 252.5 -55.5t164.5 -163t35 -248.5l-78 -555q-20 -142 -105.5 -250t-210 -163.5t-267.5 -55.5q-145 0 -255.5 55.5t-166 163.5t-35.5 250zM449 465q-17 -119 42 -184.5t166 -65.5q105 0 183.5 66t95.5 184 l70 504q17 120 -42 186t-163 66q-107 0 -186 -66t-97 -186zM772 1579l213 305l172 -119l-270 -266z" />
<glyph unicode="&#xd4;" horiz-adv-x="1251" d="M168 440l78 555q20 141 105.5 248.5t211.5 163t271 55.5q143 0 252.5 -55.5t164.5 -163t35 -248.5l-78 -555q-20 -142 -105.5 -250t-210 -163.5t-267.5 -55.5q-145 0 -255.5 55.5t-166 163.5t-35.5 250zM449 465q-17 -119 42 -184.5t166 -65.5q105 0 183.5 66t95.5 184 l70 504q17 120 -42 186t-163 66q-107 0 -186 -66t-97 -186zM582 1559l192 217h207l131 -217l-188 -52l-66 138l-102 -138z" />
<glyph unicode="&#xd5;" horiz-adv-x="1251" d="M168 440l78 555q20 141 105.5 248.5t211.5 163t271 55.5q143 0 252.5 -55.5t164.5 -163t35 -248.5l-78 -555q-20 -142 -105.5 -250t-210 -163.5t-267.5 -55.5q-145 0 -255.5 55.5t-166 163.5t-35.5 250zM449 465q-17 -119 42 -184.5t166 -65.5q105 0 183.5 66t95.5 184 l70 504q17 120 -42 186t-163 66q-107 0 -186 -66t-97 -186zM451 1565q26 109 92.5 178t161.5 69q58 0 121.5 -23.5t113.5 -47t76 -23.5q72 0 84 84l174 -41q-25 -113 -89.5 -180.5t-166.5 -67.5q-58 0 -116 23.5t-106.5 46.5t-82.5 23q-76 0 -88 -84z" />
<glyph unicode="&#xd6;" horiz-adv-x="1259" d="M172 440l78 555q20 141 105 248.5t210.5 163t270.5 55.5q107 0 197.5 -32.5t152.5 -92t90.5 -148t13.5 -194.5l-78 -555q-20 -142 -105.5 -250t-210.5 -163.5t-269 -55.5q-108 0 -198.5 33t-153 92t-90.5 148t-13 196zM453 465q-17 -119 41.5 -184.5t164.5 -65.5t185 66 t96 184l70 504q17 120 -42 186t-165 66t-184.5 -66t-96.5 -186zM489 1649q0 81 39 131.5t115 50.5q58 0 87.5 -33t29.5 -92q0 -78 -40.5 -127t-117.5 -49q-57 0 -85 31.5t-28 87.5zM973 1649q0 81 38 131.5t113 50.5q117 0 117 -123q0 -81 -39 -129.5t-119 -48.5 q-55 0 -82.5 31.5t-27.5 87.5z" />
<glyph unicode="&#xd7;" horiz-adv-x="1138" d="M109 223l383 344l-287 346l184 172l283 -346l383 346l133 -172l-381 -346l285 -344l-183 -172l-284 344l-381 -344z" />
<glyph unicode="&#xd8;" horiz-adv-x="1251" d="M57 358l113 82l78 553q20 141 105.5 249t211.5 164t271 56q144 0 251 -54.5t156 -156.5l64 47l88 -229l-107 -80l-78 -549q-20 -141 -105.5 -249t-211 -164t-268.5 -56q-146 0 -252.5 54.5t-159.5 154.5l-59 -45zM451 362q17 -72 72 -109.5t136 -37.5q104 0 182 66.5 t95 185.5l41 283zM481 684l525 385q-15 72 -71 112t-134 40q-107 0 -185.5 -67.5t-95.5 -186.5z" />
<glyph unicode="&#xd9;" horiz-adv-x="1220" d="M170 418l143 1016h279l-139 -990q-17 -123 20.5 -179t138.5 -56q78 0 152 39t119 98l153 1088h277l-166 -1170q-4 -31 2.5 -48.5t22.5 -22t33.5 -2.5t43.5 10l-28 -205q-156 -32 -237.5 -4t-94.5 131q-77 -72 -175 -112t-202 -40q-211 0 -292 112t-50 335zM575 1753 l205 119l127 -305l-135 -80z" />
<glyph unicode="&#xda;" horiz-adv-x="1220" d="M170 418l143 1016h279l-139 -990q-17 -123 20.5 -179t138.5 -56q78 0 152 39t119 98l153 1088h277l-166 -1170q-4 -31 2.5 -48.5t22.5 -22t33.5 -2.5t43.5 10l-28 -205q-156 -32 -237.5 -4t-94.5 131q-77 -72 -175 -112t-202 -40q-211 0 -292 112t-50 335zM752 1567 l213 305l172 -119l-271 -266z" />
<glyph unicode="&#xdb;" horiz-adv-x="1220" d="M170 418l143 1016h279l-139 -990q-17 -123 20.5 -179t138.5 -56q78 0 152 39t119 98l153 1088h277l-166 -1170q-4 -31 2.5 -48.5t22.5 -22t33.5 -2.5t43.5 10l-28 -205q-156 -32 -237.5 -4t-94.5 131q-77 -72 -175 -112t-202 -40q-211 0 -292 112t-50 335zM569 1559 l193 217h207l131 -217l-189 -52l-65 138l-103 -138z" />
<glyph unicode="&#xdc;" horiz-adv-x="1220" d="M170 418l143 1016h279l-139 -990q-17 -123 20.5 -179t138.5 -56q78 0 152 39t119 98l153 1088h277l-166 -1170q-4 -31 2.5 -48.5t22.5 -22t33.5 -2.5t43.5 10l-28 -205q-156 -32 -237.5 -4t-94.5 131q-77 -72 -175 -112t-202 -40q-211 0 -292 112t-50 335z" />
<glyph unicode="&#xdd;" horiz-adv-x="1148" d="M201 1434h303l188 -625l357 625h301l-562 -904l-73 -530h-277l74 526zM707 1567l213 305l172 -119l-271 -266z" />
<glyph unicode="&#xde;" horiz-adv-x="1185" d="M117 0l200 1434h275l-33 -244h232q221 0 330 -114.5t81 -325.5l-8 -66q-27 -210 -170.5 -325t-366.5 -115h-231l-35 -244h-274zM459 481h231q96 0 152 55t78 171l4 20q21 113 -24 168t-144 55h-232z" />
<glyph unicode="&#xdf;" horiz-adv-x="1165" d="M117 717l30 225h107l25 174q29 204 151.5 318t317.5 114q168 0 256 -78.5t65 -226.5q-8 -57 -34.5 -108.5t-58.5 -88t-63 -70.5t-52 -71t-21 -74q0 -40 29.5 -82.5t71 -83.5t83 -87t71 -110t29.5 -136q0 -74 -25.5 -137t-76.5 -114t-138 -80.5t-200 -29.5q-111 0 -195 31 l72 219q70 -20 135 -20q68 0 117 32t49 95q0 39 -28 79t-68 77t-80 79t-68 101.5t-28 128.5q0 66 23.5 120.5t57 91t66.5 70.5t56.5 76t23.5 90q0 36 -24 61t-82 25q-139 0 -170 -231l-154 -1096h-264l100 717h-106z" />
<glyph unicode="&#xe0;" d="M172 410l37 260q29 199 148.5 307t299.5 108q152 0 258 -75l41 55h189l-113 -801q-6 -41 9.5 -58.5t39 -16.5t58.5 12l-29 -205q-156 -31 -231.5 -5t-96.5 111q-65 -57 -149.5 -89.5t-171.5 -32.5q-174 0 -245.5 112.5t-43.5 317.5zM438 434q-16 -118 10.5 -171.5 t112.5 -53.5q58 0 118 33.5t101 85.5l68 481q-85 49 -186 49q-77 0 -127.5 -53t-65.5 -156zM498 1446l204 119l127 -305l-135 -80z" />
<glyph unicode="&#xe1;" d="M172 410l37 260q29 199 148.5 307t299.5 108q152 0 258 -75l41 55h189l-113 -801q-6 -41 9.5 -58.5t39 -16.5t58.5 12l-29 -205q-156 -31 -231.5 -5t-96.5 111q-65 -57 -149.5 -89.5t-171.5 -32.5q-174 0 -245.5 112.5t-43.5 317.5zM438 434q-16 -118 10.5 -171.5 t112.5 -53.5q58 0 118 33.5t101 85.5l68 481q-85 49 -186 49q-77 0 -127.5 -53t-65.5 -156zM664 1260l213 305l172 -119l-271 -266z" />
<glyph unicode="&#xe2;" d="M172 410l37 260q29 199 148.5 307t299.5 108q152 0 258 -75l41 55h189l-113 -801q-6 -41 9.5 -58.5t39 -16.5t58.5 12l-29 -205q-156 -31 -231.5 -5t-96.5 111q-65 -57 -149.5 -89.5t-171.5 -32.5q-174 0 -245.5 112.5t-43.5 317.5zM438 434q-16 -118 10.5 -171.5 t112.5 -53.5q58 0 118 33.5t101 85.5l68 481q-85 49 -186 49q-77 0 -127.5 -53t-65.5 -156zM506 1231l192 217h207l131 -217l-188 -51l-66 137l-102 -137z" />
<glyph unicode="&#xe3;" d="M172 410l37 260q29 199 148.5 307t299.5 108q152 0 258 -75l41 55h189l-113 -801q-6 -41 9.5 -58.5t39 -16.5t58.5 12l-29 -205q-156 -31 -231.5 -5t-96.5 111q-65 -57 -149.5 -89.5t-171.5 -32.5q-174 0 -245.5 112.5t-43.5 317.5zM362 1257q26 109 93 178.5t161 69.5 q58 0 122 -23.5t114 -47t76 -23.5q72 0 84 84l174 -41q-25 -113 -89.5 -180.5t-166.5 -67.5q-58 0 -116 23t-106.5 46t-82.5 23q-76 0 -88 -84zM438 434q-16 -118 10.5 -171.5t112.5 -53.5q58 0 118 33.5t101 85.5l68 481q-85 49 -186 49q-77 0 -127.5 -53t-65.5 -156z" />
<glyph unicode="&#xe4;" d="M172 410l37 260q29 199 148.5 307t299.5 108q152 0 258 -75l41 55h189l-113 -801q-6 -41 9.5 -58.5t39 -16.5t58.5 12l-29 -205q-156 -31 -231.5 -5t-96.5 111q-65 -57 -149.5 -89.5t-171.5 -32.5q-174 0 -245.5 112.5t-43.5 317.5zM438 434q-16 -118 10.5 -171.5 t112.5 -53.5q58 0 118 33.5t101 85.5l68 481q-85 49 -186 49q-77 0 -127.5 -53t-65.5 -156z" />
<glyph unicode="&#xe5;" horiz-adv-x="1089" d="M172 410l37 260q29 199 148.5 307t299.5 108q152 0 258 -75l41 55h189l-113 -801q-6 -41 9.5 -58.5t39 -16.5t58.5 12l-29 -205q-156 -31 -231.5 -5t-96.5 111q-65 -57 -149.5 -89.5t-171.5 -32.5q-174 0 -245.5 112.5t-43.5 317.5zM438 434q-16 -118 10.5 -171.5 t112.5 -53.5q58 0 118 33.5t101 85.5l68 481q-85 49 -186 49q-77 0 -127.5 -53t-65.5 -156zM596 1399l2 20q7 73 63.5 118.5t129.5 45.5q76 0 116.5 -44.5t32.5 -119.5l-2 -20q-7 -75 -62.5 -118.5t-134.5 -43.5q-73 0 -114 43.5t-31 118.5zM702 1395q0 -27 14 -43.5 t40 -16.5q37 0 57.5 23.5t20.5 62.5q0 62 -58 62q-35 0 -54.5 -24t-19.5 -64z" />
<glyph unicode="&#xe6;" horiz-adv-x="2220" d="M172 410l37 260q29 200 148 307.5t300 107.5q194 0 336 -114q129 114 338 114q206 0 310 -116t75 -318l-28 -202h-629l-4 -29q-33 -217 155 -217q88 0 161.5 22.5t162.5 67.5l74 -182q-203 -131 -432 -131q-244 0 -336 159q-83 -71 -173 -115t-208 -44q-173 0 -244 112 t-43 318zM438 434q-16 -118 10.5 -171.5t112.5 -53.5q57 0 116.5 34t100.5 85l68 481q-82 49 -184 49q-77 0 -127.5 -53t-65.5 -156zM1079 627h369l2 16q27 219 -152 219q-91 0 -147.5 -54.5t-69.5 -164.5z" />
<glyph unicode="&#xe7;" horiz-adv-x="1085" d="M170 414l33 237q28 202 164 318t342 116q125 0 218.5 -33t176.5 -98l-125 -180q-76 46 -139 66t-154 20q-95 0 -151.5 -59t-71.5 -172l-27 -193q-31 -229 158 -229q88 0 160.5 21t158.5 65l72 -182q-168 -106 -340 -127l-24 -52q48 -8 77 -36.5t29 -75.5q0 -45 -23 -78.5 t-61 -50.5t-78.5 -25t-83.5 -8q-69 0 -131 20l27 97q25 -11 65 -11q37 0 59.5 14.5t22.5 39.5q0 26 -29 38t-58 10l-29 -1l65 119q-168 23 -248 136t-55 294z" />
<glyph unicode="&#xe8;" horiz-adv-x="1105" d="M168 412l35 239q29 202 165 318t343 116q206 0 309 -116t74 -318l-29 -202h-627l-4 -29q-33 -217 156 -217q87 0 161 22.5t162 67.5l74 -182q-210 -131 -432 -131q-207 0 -311 115.5t-76 316.5zM459 627h368l2 16q14 110 -23 164.5t-128 54.5t-147.5 -54.5t-69.5 -164.5z M481 1446l205 119l127 -305l-135 -80z" />
<glyph unicode="&#xe9;" horiz-adv-x="1105" d="M168 412l35 239q29 202 165 318t343 116q206 0 309 -116t74 -318l-29 -202h-627l-4 -29q-33 -217 156 -217q87 0 161 22.5t162 67.5l74 -182q-210 -131 -432 -131q-207 0 -311 115.5t-76 316.5zM459 627h368l2 16q14 110 -23 164.5t-128 54.5t-147.5 -54.5t-69.5 -164.5z M659 1260l213 305l172 -119l-270 -266z" />
<glyph unicode="&#xea;" horiz-adv-x="1105" d="M168 412l35 239q29 202 165 318t343 116q206 0 309 -116t74 -318l-29 -202h-627l-4 -29q-33 -217 156 -217q87 0 161 22.5t162 67.5l74 -182q-210 -131 -432 -131q-207 0 -311 115.5t-76 316.5zM459 627h368l2 16q14 110 -23 164.5t-128 54.5t-147.5 -54.5t-69.5 -164.5z M475 1251l193 217h206l132 -217l-189 -51l-65 137l-103 -137z" />
<glyph unicode="&#xeb;" horiz-adv-x="1105" d="M168 412l35 239q29 202 165 318t343 116q206 0 309 -116t74 -318l-29 -202h-627l-4 -29q-33 -217 156 -217q87 0 161 22.5t162 67.5l74 -182q-210 -131 -432 -131q-207 0 -311 115.5t-76 316.5zM377 1362q0 81 39.5 131.5t115.5 50.5q58 0 87.5 -33t29.5 -92 q0 -78 -41.5 -127t-118.5 -49q-112 0 -112 119zM459 627h368l2 16q14 110 -23 164.5t-128 54.5t-147.5 -54.5t-69.5 -164.5zM858 1364q0 79 41 129.5t115 50.5q59 0 89 -33t30 -92q0 -79 -42.5 -127.5t-119.5 -48.5q-55 0 -84 32.5t-29 88.5z" />
<glyph unicode="&#xec;" horiz-adv-x="503" d="M121 0l151 1065h263l-150 -1065h-264zM195 1446l204 119l127 -305l-135 -80z" />
<glyph unicode="&#xed;" horiz-adv-x="503" d="M121 0l151 1065h263l-150 -1065h-264zM340 1260l213 305l172 -119l-270 -266z" />
<glyph unicode="&#xee;" horiz-adv-x="503" d="M121 0l151 1065h263l-150 -1065h-264zM166 1251l192 217h207l131 -217l-188 -51l-66 137l-102 -137z" />
<glyph unicode="&#xef;" horiz-adv-x="503" d="M121 0l151 1065h263l-150 -1065h-264zM154 1368q0 70 37.5 115t103.5 45q51 0 77.5 -30t26.5 -83q0 -68 -38 -111.5t-105 -43.5q-50 0 -76 29.5t-26 78.5zM469 1368q0 70 37 115t104 45q51 0 77 -30t26 -81q0 -70 -37.5 -113.5t-104.5 -43.5q-51 0 -76.5 29.5t-25.5 78.5 z" />
<glyph unicode="&#xf0;" horiz-adv-x="1097" d="M164 377l43 309q53 381 432 381q143 0 238 -74l6 43q9 67 -6 121l-105 -74l-82 129l78 56q-42 22 -104 22q-66 0 -121 -18l-23 203q102 30 193 30q166 0 266 -67l143 102l76 -131l-104 -78q29 -45 42 -114.5t3 -143.5l-95 -674q-28 -200 -158 -309.5t-349 -109.5 q-195 0 -297.5 102t-75.5 295zM412 442q-19 -133 18 -193.5t139 -60.5q101 0 157 61t75 193l45 328q-29 39 -85 63.5t-116 24.5q-97 0 -144.5 -54.5t-64.5 -182.5z" />
<glyph unicode="&#xf1;" horiz-adv-x="1112" d="M123 0l149 1065h228l8 -100q59 52 139.5 86t155.5 34q180 0 248 -99t41 -290l-62 -440q-4 -36 8 -51t41 -15q16 0 58 11l-31 -205q-98 -16 -164 -16q-105 0 -152.5 45t-33.5 151l69 494q14 96 -14 139t-111 43q-53 0 -110 -31.5t-101 -79.5l-104 -741h-262zM338 1257 q26 109 93 178.5t161 69.5q58 0 121.5 -23.5t113.5 -47t76 -23.5q72 0 84 84l174 -41q-25 -113 -89.5 -180.5t-166.5 -67.5q-58 0 -116 23t-106.5 46t-82.5 23q-76 0 -88 -84z" />
<glyph unicode="&#xf2;" horiz-adv-x="1110" d="M168 412l35 241q29 201 165 316.5t343 115.5q206 0 308.5 -115.5t74.5 -316.5l-33 -241q-28 -200 -164 -316t-342 -116q-207 0 -311 115.5t-76 316.5zM434 434q-17 -112 22.5 -169.5t129.5 -57.5q89 0 144.5 58t70.5 169l26 197q30 227 -149 227q-90 0 -144 -57.5 t-69 -169.5zM504 1446l205 119l127 -305l-136 -80z" />
<glyph unicode="&#xf3;" horiz-adv-x="1110" d="M168 412l35 241q29 201 165 316.5t343 115.5q206 0 308.5 -115.5t74.5 -316.5l-33 -241q-28 -200 -164 -316t-342 -116q-207 0 -311 115.5t-76 316.5zM434 434q-17 -112 22.5 -169.5t129.5 -57.5q89 0 144.5 58t70.5 169l26 197q30 227 -149 227q-90 0 -144 -57.5 t-69 -169.5zM662 1260l212 305l173 -119l-271 -266z" />
<glyph unicode="&#xf4;" horiz-adv-x="1110" d="M168 412l35 241q29 201 165 316.5t343 115.5q206 0 308.5 -115.5t74.5 -316.5l-33 -241q-28 -200 -164 -316t-342 -116q-207 0 -311 115.5t-76 316.5zM434 434q-17 -112 22.5 -169.5t129.5 -57.5q89 0 144.5 58t70.5 169l26 197q30 227 -149 227q-90 0 -144 -57.5 t-69 -169.5zM465 1251l192 217h207l131 -217l-188 -51l-66 137l-102 -137z" />
<glyph unicode="&#xf5;" horiz-adv-x="1110" d="M168 412l35 241q29 201 165 316.5t343 115.5q206 0 308.5 -115.5t74.5 -316.5l-33 -241q-28 -200 -164 -316t-342 -116q-207 0 -311 115.5t-76 316.5zM332 1257q26 109 93 178.5t161 69.5q58 0 121.5 -23.5t113.5 -47t76 -23.5q72 0 84 84l174 -41q-25 -113 -89.5 -180.5 t-166.5 -67.5q-58 0 -116 23t-106.5 46t-82.5 23q-76 0 -88 -84zM434 434q-17 -112 22.5 -169.5t129.5 -57.5q89 0 144.5 58t70.5 169l26 197q30 227 -149 227q-90 0 -144 -57.5t-69 -169.5z" />
<glyph unicode="&#xf6;" horiz-adv-x="1110" d="M168 412l35 241q29 201 165 316.5t343 115.5q206 0 308.5 -115.5t74.5 -316.5l-33 -241q-28 -200 -164 -316t-342 -116q-207 0 -311 115.5t-76 316.5zM373 1364q0 80 40.5 130t114.5 50q59 0 89 -33t30 -92q0 -79 -42.5 -127.5t-119.5 -48.5q-56 0 -84 32.5t-28 88.5z M434 434q-17 -112 22.5 -169.5t129.5 -57.5q89 0 144.5 58t70.5 169l26 197q30 227 -149 227q-90 0 -144 -57.5t-69 -169.5zM856 1364q0 79 40.5 129.5t113.5 50.5q118 0 118 -125q0 -79 -41 -127.5t-120 -48.5q-55 0 -83 32.5t-28 88.5z" />
<glyph unicode="&#xf7;" horiz-adv-x="1144" d="M150 457l32 233h973l-33 -233h-972zM424 102q0 89 47 135t127 46q63 0 99 -31.5t36 -95.5q0 -86 -49 -131t-129 -45q-62 0 -96.5 30.5t-34.5 91.5zM549 987q0 90 46.5 135t127.5 45q62 0 97.5 -32t35.5 -97q0 -86 -48.5 -130t-127.5 -44q-62 0 -96.5 31t-34.5 92z" />
<glyph unicode="&#xf8;" horiz-adv-x="1110" d="M47 238l115 86q0 42 6 88l35 241q29 201 164 316.5t342 115.5t309 -120l80 59l112 -201l-112 -84q0 -28 -4 -86l-35 -241q-29 -201 -164.5 -316.5t-341.5 -115.5q-209 0 -305 116l-80 -59zM451 539l348 262q-37 57 -121 57q-90 0 -145 -57.5t-70 -169.5zM467 262 q34 -55 119 -55q88 0 143 57.5t70 169.5l14 88z" />
<glyph unicode="&#xf9;" horiz-adv-x="1087" d="M168 379l96 686h262l-94 -676q-14 -95 9.5 -137.5t97.5 -42.5q58 0 116.5 33.5t100.5 85.5l102 737h266l-112 -801q-4 -31 2 -49t22 -22.5t34.5 -2t43.5 10.5l-29 -205q-156 -31 -231 -5t-94 111q-66 -57 -151.5 -89.5t-172.5 -32.5q-169 0 -232.5 97.5t-35.5 301.5z M512 1446l205 119l127 -305l-135 -80z" />
<glyph unicode="&#xfa;" horiz-adv-x="1087" d="M168 379l96 686h262l-94 -676q-14 -95 9.5 -137.5t97.5 -42.5q58 0 116.5 33.5t100.5 85.5l102 737h266l-112 -801q-4 -31 2 -49t22 -22.5t34.5 -2t43.5 10.5l-29 -205q-156 -31 -231 -5t-94 111q-66 -57 -151.5 -89.5t-172.5 -32.5q-169 0 -232.5 97.5t-35.5 301.5z M641 1260l213 305l172 -119l-270 -266z" />
<glyph unicode="&#xfb;" horiz-adv-x="1087" d="M168 379l96 686h262l-94 -676q-14 -95 9.5 -137.5t97.5 -42.5q58 0 116.5 33.5t100.5 85.5l102 737h266l-112 -801q-4 -31 2 -49t22 -22.5t34.5 -2t43.5 10.5l-29 -205q-156 -31 -231 -5t-94 111q-66 -57 -151.5 -89.5t-172.5 -32.5q-169 0 -232.5 97.5t-35.5 301.5z M453 1251l192 217h207l131 -217l-188 -51l-66 137l-102 -137z" />
<glyph unicode="&#xfc;" horiz-adv-x="1089" d="M168 379l96 686h262l-94 -676q-14 -95 9.5 -137.5t97.5 -42.5q58 0 116.5 33.5t100.5 85.5l102 737h266l-112 -801q-4 -31 2 -49t22 -22.5t34.5 -2t43.5 10.5l-29 -205q-156 -31 -231 -5t-94 111q-66 -57 -151.5 -89.5t-172.5 -32.5q-169 0 -232.5 97.5t-35.5 301.5z M362 1364q0 79 40 129.5t116 50.5q58 0 87.5 -33t29.5 -92q0 -78 -41.5 -127t-118.5 -49q-55 0 -84 32.5t-29 88.5zM846 1362q0 81 39 131.5t114 50.5q60 0 89.5 -33t29.5 -92q0 -79 -41 -127.5t-121 -48.5q-55 0 -82.5 31.5t-27.5 87.5z" />
<glyph unicode="&#xfd;" horiz-adv-x="1099" d="M92 -215l105 188q154 -77 323 -77q195 0 223 190l19 129q-62 -56 -146.5 -88.5t-164.5 -32.5q-167 0 -233 82t-40 264l88 625h264l-79 -559q-14 -96 11.5 -136t106.5 -40q55 0 111 26.5t98 69.5l90 639h262l-141 -999q-28 -192 -151.5 -293t-329.5 -101q-250 0 -416 113z M637 1260l213 305l172 -119l-270 -266z" />
<glyph unicode="&#xfe;" horiz-adv-x="1118" d="M80 -307l258 1843h262l-65 -477q59 48 131.5 78t144.5 30q189 0 260 -103t41 -310l-51 -363q-27 -186 -151 -298.5t-316 -112.5q-132 0 -207 34l-45 -321h-262zM420 240q71 -33 176 -33q85 0 137.5 54t67.5 157l45 315q15 106 -14 153.5t-113 47.5q-53 0 -112.5 -31 t-104.5 -78z" />
<glyph unicode="&#xff;" horiz-adv-x="1099" d="M92 -215l105 188q154 -77 323 -77q195 0 223 190l19 129q-62 -56 -146.5 -88.5t-164.5 -32.5q-167 0 -233 82t-40 264l88 625h264l-79 -559q-14 -96 11.5 -136t106.5 -40q55 0 111 26.5t98 69.5l90 639h262l-141 -999q-28 -192 -151.5 -293t-329.5 -101q-250 0 -416 113z " />
<glyph unicode="&#x152;" horiz-adv-x="1740" d="M172 440l78 553q31 216 178.5 342.5t366.5 126.5q68 0 136 -25t99 -65l8 62h822l-35 -244h-545l-47 -342h444l-35 -240h-444l-51 -366h559l-33 -242h-835l8 57q-103 -86 -260 -86q-219 0 -332 126.5t-82 342.5zM453 465q-17 -120 34.5 -185t153.5 -65q98 0 170.5 65.5 t89.5 180.5l72 512q17 115 -38 181.5t-153 66.5q-103 0 -173 -65.5t-87 -186.5z" />
<glyph unicode="&#x153;" horiz-adv-x="1732" d="M168 412l35 241q29 201 165 316.5t343 115.5q199 0 295 -122q131 122 331 122q207 0 310 -116t75 -318l-28 -207h-629l-6 -41q-15 -101 27.5 -150.5t130.5 -49.5t162.5 22.5t162.5 67.5l72 -182q-207 -131 -432 -131q-102 0 -181.5 36.5t-113.5 96.5q-118 -133 -332 -133 q-207 0 -311 115.5t-76 316.5zM436 436q-17 -113 21.5 -171t128.5 -58q94 0 148.5 63.5t64.5 147.5l28 213q30 227 -149 227q-180 0 -215 -227zM1090 625h364l4 26q31 211 -151 211q-183 0 -213 -209z" />
<glyph unicode="&#x178;" horiz-adv-x="1148" d="M201 1434h303l188 -625l357 625h301l-562 -904l-73 -530h-277l74 526z" />
<glyph unicode="&#x2c6;" horiz-adv-x="778" d="M301 1251l193 217h206l131 -217l-188 -51l-65 137l-103 -137z" />
<glyph unicode="&#x2dc;" horiz-adv-x="958" d="M258 1257q26 109 93 178.5t161 69.5q58 0 121.5 -23.5t113.5 -47t76 -23.5q72 0 84 84l174 -41q-25 -113 -89.5 -180.5t-166.5 -67.5q-58 0 -116 23t-106.5 46t-82.5 23q-76 0 -88 -84z" />
<glyph unicode="&#x2000;" horiz-adv-x="943" />
<glyph unicode="&#x2001;" horiz-adv-x="1886" />
<glyph unicode="&#x2002;" horiz-adv-x="943" />
<glyph unicode="&#x2003;" horiz-adv-x="1886" />
<glyph unicode="&#x2004;" horiz-adv-x="628" />
<glyph unicode="&#x2005;" horiz-adv-x="471" />
<glyph unicode="&#x2006;" horiz-adv-x="314" />
<glyph unicode="&#x2007;" horiz-adv-x="314" />
<glyph unicode="&#x2008;" horiz-adv-x="235" />
<glyph unicode="&#x2009;" horiz-adv-x="377" />
<glyph unicode="&#x200a;" horiz-adv-x="104" />
<glyph unicode="&#x2010;" horiz-adv-x="808" d="M164 500l33 233h620l-33 -233h-620z" />
<glyph unicode="&#x2011;" horiz-adv-x="808" d="M164 500l33 233h620l-33 -233h-620z" />
<glyph unicode="&#x2012;" horiz-adv-x="808" d="M164 500l33 233h620l-33 -233h-620z" />
<glyph unicode="&#x2013;" horiz-adv-x="1013" d="M86 500l33 233h985l-33 -233h-985z" />
<glyph unicode="&#x2014;" horiz-adv-x="1624" d="M86 500l33 233h1595l-33 -233h-1595z" />
<glyph unicode="&#x2018;" horiz-adv-x="471" d="M219 1405q0 61 39 94t104 33q78 0 130.5 -43.5t52.5 -124.5q0 -74 -49 -104q18 -58 106 -103l-39 -113q-92 25 -162.5 70t-108 97t-55.5 101t-18 93z" />
<glyph unicode="&#x2019;" horiz-adv-x="471" d="M219 1157q89 46 107 103q-50 30 -50 104q0 81 52.5 124.5t130.5 43.5q65 0 104 -33t39 -94q0 -44 -18 -93t-55.5 -101t-108 -97t-162.5 -70z" />
<glyph unicode="&#x201a;" horiz-adv-x="471" d="M43 -100q89 46 107 102q-50 30 -50 104q0 81 52.5 124.5t130.5 43.5q65 0 104 -33t39 -94q0 -35 -10.5 -73t-36 -81t-63.5 -80.5t-98.5 -71.5t-135.5 -54z" />
<glyph unicode="&#x201c;" horiz-adv-x="858" d="M219 1405q0 61 39 94t104 33q78 0 130.5 -43.5t52.5 -124.5q0 -74 -49 -104q18 -58 106 -103l-39 -113q-92 25 -162.5 70t-108 97t-55.5 101t-18 93zM608 1405q0 61 39.5 94t104.5 33q78 0 130 -43.5t52 -124.5q0 -74 -49 -104q18 -58 106 -103l-39 -113 q-92 25 -162.5 70t-108 97t-55.5 101t-18 93z" />
<glyph unicode="&#x201d;" horiz-adv-x="858" d="M219 1157q89 46 107 103q-50 30 -50 104q0 81 52.5 124.5t130.5 43.5q65 0 104 -33t39 -94q0 -44 -18 -93t-55.5 -101t-108 -97t-162.5 -70zM606 1157q89 46 107 103q-49 30 -49 104q0 81 52 124.5t130 43.5q65 0 104 -33t39 -94q0 -44 -18 -93t-55.5 -101t-108 -97 t-162.5 -70z" />
<glyph unicode="&#x201e;" horiz-adv-x="858" d="M43 -100q89 46 107 102q-50 30 -50 104q0 81 52.5 124.5t130.5 43.5q65 0 104 -33t39 -94q0 -35 -10.5 -73t-36 -81t-63.5 -80.5t-98.5 -71.5t-135.5 -54zM430 -100q89 46 107 102q-50 30 -50 104q0 81 52.5 124.5t130.5 43.5q65 0 104 -33t39 -94q0 -35 -10.5 -73 t-36 -81t-63.5 -80.5t-98.5 -71.5t-135.5 -54z" />
<glyph unicode="&#x2022;" horiz-adv-x="876" d="M195 600q0 201 104.5 308.5t278.5 107.5q138 0 215 -73.5t77 -219.5q0 -196 -107 -301t-284 -105q-133 0 -208.5 72.5t-75.5 210.5z" />
<glyph unicode="&#x2026;" horiz-adv-x="1255" d="M78 100q0 84 51 129t131 45q67 0 106.5 -33t39.5 -96q0 -83 -52.5 -127.5t-134.5 -44.5q-65 0 -103 32.5t-38 94.5zM479 100q0 84 51.5 129t131.5 45q66 0 105.5 -33t39.5 -96q0 -83 -52 -127.5t-134 -44.5q-65 0 -103.5 33t-38.5 94zM879 100q0 84 51 129t131 45 q67 0 106 -33t39 -96q0 -83 -52 -127.5t-134 -44.5q-65 0 -103 32.5t-38 94.5z" />
<glyph unicode="&#x202f;" horiz-adv-x="377" />
<glyph unicode="&#x2039;" horiz-adv-x="581" d="M162 492l22 159l359 316l94 -156l-264 -240l196 -237l-139 -156z" />
<glyph unicode="&#x203a;" horiz-adv-x="581" d="M109 334l262 237l-195 240l139 156l269 -316l-23 -159l-356 -314z" />
<glyph unicode="&#x205f;" horiz-adv-x="471" />
<glyph unicode="&#x2122;" horiz-adv-x="1808" d="M244 1251l26 185h688l-26 -185h-240l-108 -772h-205l108 772h-243zM881 479l135 957h196l193 -461l315 461h205l-135 -957h-207l80 537l-215 -303h-164l-127 299l-74 -533h-202z" />
<glyph unicode="&#x25fc;" horiz-adv-x="1064" d="M0 0v1065h1065v-1065h-1065z" />
<glyph unicode="&#xfb01;" horiz-adv-x="1087" d="M123 0l119 840h-107l31 225h106l25 174q24 171 135.5 240t310.5 69q86 0 193.5 -20.5t173.5 -46.5l-82 -193q-147 43 -309 43q-74 0 -112.5 -24t-45.5 -76l-22 -166h571l-149 -1065h-263l119 840h-311l-119 -840h-264z" />
<glyph unicode="&#xfb02;" horiz-adv-x="1089" d="M123 0l119 852h-107l31 213h106l17 111q27 189 147 280.5t320 91.5q115 0 222.5 -36t188.5 -95l-198 -1417h-264l182 1294q-61 27 -144 27q-88 0 -134 -33.5t-56 -105.5l-16 -117h221l-31 -213h-221l-119 -852h-264z" />
<glyph unicode="&#xfb03;" horiz-adv-x="1611" d="M123 0l119 852h-107l31 213h106l7 47q28 196 131 302t280 106q71 0 149.5 -27t123.5 -68q117 131 333 131q85 0 186 -20.5t165 -46.5l-68 -172q-135 37 -256 37q-95 0 -147 -58t-72 -186l-6 -45h544l-149 -1065h-262l117 852h-283l-121 -852h-262l119 852h-295l-119 -852 h-264zM537 1065h294l5 27q19 118 41 163q-75 54 -152 54q-85 0 -125.5 -49t-58.5 -166z" />
<glyph unicode="&#xfb04;" horiz-adv-x="1644" d="M123 0l119 852h-107l31 213h106l11 72q29 200 133 291.5t293 91.5q68 0 140.5 -26.5t129.5 -66.5q129 129 338 129q211 0 407 -131l-200 -1425h-264l182 1300q-63 29 -139 29q-88 0 -135 -50.5t-64 -162.5l-8 -51h219l-31 -213h-219l-119 -852h-264l119 852h-295 l-119 -852h-264zM537 1065h294l11 72q12 77 30 106q-32 21 -79.5 35t-87.5 14q-71 0 -109 -40t-51 -132z" />
</font>
</defs>
</svg>
