<?xml version="1.0" standalone="no"?>
<!DOCTYPE svg PUBLIC "-//W3C//DTD SVG 1.1//EN" "http://www.w3.org/Graphics/SVG/1.1/DTD/svg11.dtd" >
<svg xmlns="http://www.w3.org/2000/svg" xmlns:xlink="http://www.w3.org/1999/xlink" version="1.1">
<metadata></metadata>
<defs>
<font id="darwinaltblack" horiz-adv-x="1124" >
<font-face units-per-em="2048" ascent="1536" descent="-512" />
<missing-glyph horiz-adv-x="460" />
<glyph horiz-adv-x="0" />
<glyph horiz-adv-x="682" />
<glyph unicode=" "  horiz-adv-x="460" />
<glyph unicode="&#x09;" horiz-adv-x="460" />
<glyph unicode="&#xa0;" horiz-adv-x="460" />
<glyph unicode="!" horiz-adv-x="563" d="M119 137q0 75 44.5 114.5t117.5 39.5q77 0 121 -39t44 -115q0 -79 -43.5 -118t-121.5 -39q-74 0 -118 39t-44 118zM125 1057v377h311v-377l-28 -645h-254z" />
<glyph unicode="&#x22;" horiz-adv-x="716" d="M57 1536h273l-33 -422h-209zM389 1536h273l-33 -422h-209z" />
<glyph unicode="#" horiz-adv-x="1273" d="M12 365l56 256h157l45 192h-166l56 254h162l75 367h283l-76 -367h209l76 367h285l-78 -367h166l-56 -254h-159l-48 -192h168l-55 -256h-162l-76 -365h-284l78 365h-211l-74 -365h-285l78 365h-164zM508 621h211l43 192h-209z" />
<glyph unicode="$" horiz-adv-x="1226" d="M111 123l120 233q172 -88 314 -98v326q-389 63 -389 436q0 172 102.5 289t286.5 143v186h198v-186q177 -18 349 -135l-121 -234q-142 73 -228 86v-321q402 -62 402 -416q0 -174 -101.5 -294.5t-300.5 -153.5v-189h-198v180q-242 15 -434 148zM451 1030q0 -96 94 -139v272 q-94 -35 -94 -133zM743 281q101 41 101 129q0 92 -101 133v-262z" />
<glyph unicode="%" horiz-adv-x="1986" d="M88 922v204q0 153 98.5 242.5t262.5 89.5t262 -89.5t98 -242.5v-204q0 -153 -98.5 -243.5t-261.5 -90.5q-164 0 -262.5 90.5t-98.5 243.5zM381 0l987 1575l238 -141l-998 -1584zM383 936q0 -105 66 -105q31 0 49 27t18 78v174q0 104 -67 104q-66 0 -66 -104v-174z M1178 309v205q0 154 99 244t263 90q161 0 259.5 -90t98.5 -244v-205q0 -153 -98.5 -243.5t-259.5 -90.5q-164 0 -263 90.5t-99 243.5zM1470 324q0 -50 18.5 -77.5t51.5 -27.5q30 0 48 27.5t18 77.5v174q0 51 -18 77.5t-48 26.5q-70 0 -70 -104v-174z" />
<glyph unicode="&#x26;" horiz-adv-x="1292" d="M70 356q0 234 243 402q-67 75 -112 164.5t-45 169.5q0 159 109 264.5t302 105.5q213 0 312.5 -95t99.5 -255q0 -76 -38 -146.5t-91 -120.5t-133 -106l172 -215q25 35 34.5 99t4.5 110l280 -37q-13 -219 -131 -403l121 -133l-213 -189l-96 109q-59 -49 -166.5 -79 t-216.5 -30q-436 0 -436 385zM389 371q0 -70 38 -102.5t116 -32.5q112 0 174 47l-228 278q-49 -40 -74.5 -90.5t-25.5 -99.5zM467 1096q0 -39 24.5 -83.5t57.5 -76.5q54 34 87.5 77t33.5 85q0 47 -25 77.5t-78 30.5q-49 0 -74.5 -29t-25.5 -81z" />
<glyph unicode="'" horiz-adv-x="382" d="M57 1536h273l-33 -422h-209z" />
<glyph unicode="(" horiz-adv-x="673" d="M115 279v753q0 200 122 343t336 179l54 -260q-100 -13 -151.5 -90.5t-51.5 -195.5v-705q0 -118 51 -195.5t152 -91.5l-54 -258q-216 35 -337 177t-121 344z" />
<glyph unicode=")" horiz-adv-x="673" d="M49 16q102 14 152.5 91.5t50.5 195.5v705q0 118 -50.5 195.5t-152.5 90.5l53 260q215 -36 337 -179t122 -343v-753q0 -202 -121.5 -344t-337.5 -177z" />
<glyph unicode="*" horiz-adv-x="923" d="M66 1092l67 225l234 -90l-13 254h221l-12 -250l228 88l69 -227l-239 -66l155 -197l-180 -139l-133 215l-131 -215l-185 141l160 197z" />
<glyph unicode="+" horiz-adv-x="1140" d="M86 481v279h342v387h287v-387h344v-279h-344v-387h-287v387h-342z" />
<glyph unicode="," horiz-adv-x="483" d="M31 -92q79 37 96 98q-32 20 -51 57.5t-19 77.5q0 81 51 123.5t132 42.5q83 0 134.5 -43.5t51.5 -122.5q0 -48 -17 -97.5t-53.5 -100.5t-105 -94.5t-160.5 -67.5z" />
<glyph unicode="-" horiz-adv-x="825" d="M86 479v271h653v-271h-653z" />
<glyph unicode="." horiz-adv-x="483" d="M57 137q0 84 50.5 127t132.5 43q83 0 134.5 -43t51.5 -127q0 -82 -51.5 -124t-134.5 -42q-82 0 -132.5 41.5t-50.5 124.5z" />
<glyph unicode="/" horiz-adv-x="1052" d="M16 -225l752 1872l270 -111l-753 -1868z" />
<glyph unicode="0" horiz-adv-x="1175" d="M100 434v565q0 213 134.5 338t353.5 125q220 0 354.5 -125t134.5 -338v-565q0 -213 -134.5 -338t-354.5 -125q-219 0 -353.5 125t-134.5 338zM418 459q0 -103 46.5 -158t123.5 -55q80 0 126 54.5t46 158.5v516q0 102 -46 157.5t-126 55.5q-77 0 -123.5 -55.5 t-46.5 -157.5v-516z" />
<glyph unicode="1" horiz-adv-x="739" d="M-45 1196l324 238h270v-1153h162v-281h-682v281h202v784l-149 -92z" />
<glyph unicode="2" horiz-adv-x="1165" d="M113 1309q224 153 467 153q235 0 358 -116t123 -322q0 -170 -96.5 -337.5t-341.5 -414.5h467v-272h-973v184q297 288 458.5 498.5t161.5 335.5q0 84 -46 129t-126 45q-89 0 -165 -24t-173 -72z" />
<glyph unicode="3" horiz-adv-x="1138" d="M86 111l96 229q96 -48 170.5 -71t163.5 -23q84 0 139.5 50t55.5 134q0 100 -48.5 151.5t-154.5 51.5h-152v229h166q92 0 136 43.5t42 128.5q-2 76 -41.5 118t-113.5 42q-175 0 -344 -66l-78 213q106 61 212 91t236 30q113 0 200.5 -32.5t140.5 -89.5t79.5 -131t26.5 -162 q0 -78 -33 -155t-104 -128q73 -47 117 -142t44 -180v-26q0 -196 -131.5 -320.5t-363.5 -124.5q-256 0 -461 140z" />
<glyph unicode="4" horiz-adv-x="1183" d="M51 250v176l457 1008h342l-424 -912h283v451h315v-451h121v-272h-121v-250h-315v250h-658z" />
<glyph unicode="5" d="M86 111l96 229q190 -94 346 -94q83 0 137 48t54 126v31q0 190 -176 190q-117 0 -226 -72l-188 142l88 723h760v-271h-479l-35 -295q71 39 170 39q193 0 303.5 -109t110.5 -327v-61q0 -197 -131.5 -318t-364.5 -121q-260 0 -465 140z" />
<glyph unicode="6" horiz-adv-x="1193" d="M100 401v598q0 211 135.5 337t358.5 126q129 0 253 -41.5t226 -111.5l-115 -213q-97 48 -174 72t-166 24q-97 0 -147.5 -56.5t-50.5 -160.5v-141q38 22 105.5 36.5t131.5 14.5q67 0 127.5 -13.5t118 -44.5t99.5 -77.5t67 -118.5t25 -162v-57q0 -213 -135 -327t-361 -114 q-147 0 -257 45.5t-175.5 144t-65.5 240.5zM420 422q0 -180 178 -180q180 0 180 192q0 92 -40 135t-126 43q-115 0 -192 -47v-143z" />
<glyph unicode="7" horiz-adv-x="946" d="M16 1161v273h924v-174l-506 -1260h-338l490 1161h-570z" />
<glyph unicode="8" horiz-adv-x="1187" d="M82 420v31q0 80 45.5 173t108.5 138q-54 53 -88.5 137.5t-34.5 157.5q0 193 120 299t363 106q240 0 360.5 -106.5t120.5 -298.5q0 -74 -33 -156.5t-92 -136.5q69 -53 111.5 -142t42.5 -171v-31q0 -97 -31 -177.5t-92 -142t-160 -95.5t-227 -34q-131 0 -231 34t-161 95.5 t-91.5 142t-30.5 177.5zM412 426q0 -79 47 -131.5t137 -52.5q86 0 133 53t47 131v14q0 76 -49.5 133.5t-116.5 57.5h-30q-69 0 -118.5 -57.5t-49.5 -133.5v-14zM424 1038q0 -74 42.5 -124t106.5 -50h33q65 0 111 50.5t47 123.5q0 75 -46 120.5t-122 45.5q-81 0 -126.5 -45 t-45.5 -121z" />
<glyph unicode="9" horiz-adv-x="1189" d="M100 956v62q0 213 134.5 328.5t359.5 115.5q226 0 362 -109t136 -321v-608q0 -217 -129 -335t-385 -118q-267 0 -472 140l117 221q94 -47 172.5 -68.5t171.5 -21.5q98 0 151.5 50t53.5 150v150q-40 -22 -104 -35.5t-127 -13.5q-68 0 -129 12.5t-119 43t-100 76.5 t-67.5 118t-25.5 163zM420 995q0 -98 38 -139t126 -41q111 0 188 45v144q0 188 -178 188q-82 0 -128 -48.5t-46 -148.5z" />
<glyph unicode=":" horiz-adv-x="483" d="M57 137q0 84 50.5 127t132.5 43q83 0 134.5 -43t51.5 -127q0 -82 -51.5 -124t-134.5 -42q-82 0 -132.5 41.5t-50.5 124.5zM57 997q0 84 50.5 127t132.5 43q83 0 134.5 -43t51.5 -127q0 -82 -51.5 -124t-134.5 -42q-82 0 -132.5 41.5t-50.5 124.5z" />
<glyph unicode=";" horiz-adv-x="483" d="M31 -92q79 37 96 98q-32 20 -51 57.5t-19 77.5q0 81 51 123.5t132 42.5q83 0 134.5 -43.5t51.5 -122.5q0 -48 -17 -97.5t-53.5 -100.5t-105 -94.5t-160.5 -67.5zM57 997q0 84 50.5 127t132.5 43q83 0 134.5 -43t51.5 -127q0 -82 -51.5 -124t-134.5 -42q-82 0 -132.5 41.5 t-50.5 124.5z" />
<glyph unicode="&#x3c;" horiz-adv-x="788" d="M86 477v189l475 370l144 -211l-326 -254l326 -249l-144 -211z" />
<glyph unicode="=" horiz-adv-x="1146" d="M86 248v270h975v-270h-975zM86 666v270h975v-270h-975z" />
<glyph unicode="&#x3e;" horiz-adv-x="788" d="M86 322l326 249l-326 254l143 211l476 -370v-189l-476 -366z" />
<glyph unicode="?" horiz-adv-x="1007" d="M61 1343q180 119 418 119q215 0 329 -103.5t114 -266.5v-29q0 -64 -14 -117.5t-44.5 -101t-59.5 -80.5t-79 -82q-74 -71 -102.5 -115.5t-28.5 -109.5v-51h-309v67q0 72 10.5 124.5t37 95.5t53.5 71.5t77 71.5q64 53 99.5 108.5t35.5 128.5v14q0 47 -34.5 78t-98.5 31 q-92 0 -158 -14t-141 -49zM254 137q0 84 50 127t132 43q83 0 135 -43t52 -127q0 -82 -52 -124t-135 -42q-82 0 -132 41.5t-50 124.5z" />
<glyph unicode="@" horiz-adv-x="1497" d="M92 426l78 573q17 134 120 237t248.5 154.5t305.5 51.5q157 0 291 -56t211 -161.5t59 -235.5l-55 -430q-18 -121 -90.5 -191.5t-192.5 -70.5q-130 0 -182 84q-41 -38 -99 -61t-112 -23q-140 0 -204.5 76.5t-45.5 220.5l29 233q17 138 96 211.5t201 73.5h362l-72 -571 q-6 -47 2.5 -63.5t38.5 -16.5q60 0 78 102l55 422q13 93 -42.5 160.5t-145.5 98t-197 30.5q-80 0 -157.5 -19t-145 -55t-113 -95t-55.5 -132l-75 -543q-8 -57 10 -105t54.5 -81.5t87.5 -57t109.5 -34.5t121.5 -11q163 0 290 41l48 -153q-137 -56 -349 -56 q-158 0 -292.5 55.5t-211.5 161t-59 236.5zM614 600q-23 -145 78 -145q43 0 85 18t65 47l59 441h-131q-107 0 -129 -158z" />
<glyph unicode="A" horiz-adv-x="1269" d="M-6 0l489 1229l-67 205h327l533 -1434h-356l-74 215h-424l-72 -215h-356zM508 469h250l-125 362z" />
<glyph unicode="B" horiz-adv-x="1218" d="M111 84v1350h518q233 0 354 -100.5t121 -297.5v-41q0 -65 -37.5 -139t-101.5 -111q75 -22 127.5 -100t52.5 -176v-88q-2 -168 -140.5 -274.5t-371.5 -106.5q-156 0 -276.5 20t-245.5 64zM434 299q109 -23 203 -23q85 0 133.5 34.5t48.5 90.5v72q0 63 -28.5 98t-83.5 35 h-273v-307zM434 854h242q47 0 73.5 37t26.5 110v11q0 81 -32.5 112t-108.5 31h-201v-301z" />
<glyph unicode="C" horiz-adv-x="1085" d="M100 449v538q0 215 144.5 345t371.5 130q128 0 224 -33t200 -104l-116 -227q-97 47 -158 65.5t-150 18.5q-87 0 -137.5 -59.5t-50.5 -159.5v-490q0 -105 51 -163t137 -58q89 0 150 18.5t158 65.5l116 -227q-104 -71 -200 -104.5t-224 -33.5q-227 0 -371.5 131t-144.5 347 z" />
<glyph unicode="D" horiz-adv-x="1243" d="M111 84v1350h542q227 0 359.5 -128.5t132.5 -347.5v-483q0 -220 -135.5 -347.5t-376.5 -127.5q-301 0 -522 84zM434 299q101 -23 199 -23q186 0 186 224v434q0 106 -43 161.5t-123 55.5h-219v-852z" />
<glyph unicode="E" horiz-adv-x="1073" d="M111 0v1434h882v-283h-559v-285h465v-278h-465v-307h572v-281h-895z" />
<glyph unicode="F" horiz-adv-x="1050" d="M111 0v1434h886v-283h-563v-338h467v-281h-467v-532h-323z" />
<glyph unicode="G" horiz-adv-x="1257" d="M100 438v549q0 216 148 345.5t383 129.5q159 0 275.5 -39.5t219.5 -117.5l-116 -228q-94 55 -176.5 80t-202.5 25q-93 0 -148 -57.5t-55 -161.5v-496q0 -107 46.5 -162t135.5 -55q65 0 123.5 30t95.5 74v170h-258v273h584v-817h-240l-45 126q-63 -63 -151.5 -99 t-173.5 -36q-219 0 -332 121.5t-113 345.5z" />
<glyph unicode="H" horiz-adv-x="1251" d="M111 0v1434h323v-557h385v557h326v-1434h-326v596h-385v-596h-323z" />
<glyph unicode="I" horiz-adv-x="540" d="M111 0v1434h323v-1434h-323z" />
<glyph unicode="J" horiz-adv-x="612" d="M92 -94q40 41 65 108.5t25 143.5v1276h326v-1278q0 -169 -66.5 -289.5t-169.5 -173.5z" />
<glyph unicode="K" horiz-adv-x="1216" d="M111 0v1434h323v-533l395 533h383l-456 -605l311 -530q23 -39 62 -54q33 -13 60 -13h9q30 2 70 12l-2 -250q-90 -14 -162 -14q-32 0 -62 3q-92 9 -160.5 63t-133.5 171l-191 342l-123 -164v-395h-323z" />
<glyph unicode="L" horiz-adv-x="1009" d="M111 0v1434h323v-1153h543v-281h-866z" />
<glyph unicode="M" horiz-adv-x="1460" d="M111 0v1434h213l407 -756l406 756h215v-1434h-324l10 635l-235 -436h-158l-223 413l10 -612h-321z" />
<glyph unicode="N" horiz-adv-x="1286" d="M111 0v1434h286l469 -777l-10 777h324v-1434h-295l-463 768l8 -768h-319z" />
<glyph unicode="O" horiz-adv-x="1271" d="M100 449v538q0 144 73 253t195 165.5t271 56.5q148 0 269.5 -56.5t194.5 -166t73 -252.5v-538q0 -144 -73 -254t-194.5 -167t-269.5 -57q-149 0 -271 57t-195 167t-73 254zM428 473q0 -104 59.5 -161.5t151.5 -57.5q90 0 149.5 58t59.5 161v490q0 103 -59.5 161 t-149.5 58q-92 0 -151.5 -57.5t-59.5 -161.5v-490z" />
<glyph unicode="P" horiz-adv-x="1226" d="M111 0v1434h542q226 0 359 -129t133 -347v-88q0 -218 -133 -346.5t-359 -128.5q-112 0 -219 45v-440h-323zM434 715q98 -41 219 -41q80 0 123 57t43 164v39q0 106 -43 161.5t-123 55.5h-219v-436z" />
<glyph unicode="Q" horiz-adv-x="1271" d="M100 449v538q0 144 73 253t195 165.5t271 56.5q148 0 269.5 -56.5t194.5 -166t73 -252.5v-538q0 -144 -73 -254t-194.5 -167t-269.5 -57q-149 0 -271 57t-195 167t-73 254zM391 -199q29 38 97 73.5t135 35.5q64 0 127 -26t114.5 -51.5t87.5 -25.5q88 0 168 41l72 -165 q-33 -41 -98 -72t-129 -31q-51 0 -102 16t-84.5 34.5t-75 34.5t-76.5 16q-88 0 -160 -37zM428 473q0 -104 59.5 -161.5t151.5 -57.5q90 0 149.5 58t59.5 161v490q0 103 -59.5 161t-149.5 58q-92 0 -151.5 -57.5t-59.5 -161.5v-490z" />
<glyph unicode="R" horiz-adv-x="1226" d="M111 0v1434h542q223 0 357.5 -122.5t134.5 -312.5v-67q0 -131 -66 -233t-186 -154l131 -246q36 -68 126 -69q34 0 75 10l-2 -246q-96 -14 -173 -14q-28 0 -53 2q-94 7 -164 61.5t-128 173.5l-140 281q-82 0 -131 16v-514h-323zM434 801q79 -25 199 -25q91 0 138.5 50 t47.5 130v19q0 78 -44 127t-122 49h-219v-350z" />
<glyph unicode="S" horiz-adv-x="1226" d="M111 123l120 233q198 -100 357 -100q112 0 175.5 41.5t63.5 112.5q0 69 -54.5 105.5t-186.5 53.5q-430 57 -430 451q0 195 129 316.5t356 121.5q136 0 240.5 -34.5t210.5 -106.5l-121 -234q-102 51 -169.5 73t-156.5 22q-90 0 -134 -41t-44 -107q0 -81 58.5 -117 t174.5 -51q445 -60 445 -430q0 -99 -33 -181.5t-98.5 -145t-171 -97.5t-242.5 -35q-269 0 -489 150z" />
<glyph unicode="T" horiz-adv-x="1062" d="M25 1153v281h1017v-281h-346v-1153h-325v1153h-346z" />
<glyph unicode="U" horiz-adv-x="1241" d="M104 430v1004h328v-977q0 -108 38.5 -158.5t123.5 -50.5q66 0 124.5 32t92.5 82v1072h326v-1139q0 -38 14.5 -55t35.5 -16t54 12v-238q-91 -19 -160 -19q-53 -1 -95 11q-94 26 -128 127q-66 -72 -157.5 -109t-192.5 -37q-214 0 -309 116t-95 343z" />
<glyph unicode="V" horiz-adv-x="1234" d="M0 1434h340l287 -1041l274 1041h336l-481 -1434h-269z" />
<glyph unicode="W" horiz-adv-x="1867" d="M-2 1434h336l227 -1026l211 1026h313l215 -1024l232 1024h332l-412 -1434h-307l-219 973l-211 -973h-307z" />
<glyph unicode="X" horiz-adv-x="1224" d="M-2 0l405 723l-401 711h371l235 -471l246 471h369l-406 -693l410 -741h-371l-242 496l-247 -496h-369z" />
<glyph unicode="Y" horiz-adv-x="1189" d="M-6 1434h358l248 -570l238 570h358l-436 -897v-537h-328v535z" />
<glyph unicode="Z" horiz-adv-x="1132" d="M55 0v223q220 238 368 461t226 469h-571v281h973v-230q-83 -261 -201.5 -478t-302.5 -445h532v-281h-1024z" />
<glyph unicode="[" horiz-adv-x="591" d="M111 -225v1761h450v-262h-168v-1237h168v-262h-450z" />
<glyph unicode="\" horiz-adv-x="1054" d="M16 1536l271 111l751 -1872l-268 -107z" />
<glyph unicode="]" horiz-adv-x="591" d="M33 37h168v1237h-168v262h450v-1761h-450v262z" />
<glyph unicode="^" horiz-adv-x="929" d="M92 1032l250 479h248l248 -479l-248 -71l-125 311l-125 -311z" />
<glyph unicode="_" horiz-adv-x="1017" d="M16 -74h988v-207h-988v207z" />
<glyph unicode="`" horiz-adv-x="671" d="M125 1444l213 137l172 -313l-139 -88z" />
<glyph unicode="a" d="M106 418v252q0 200 105.5 307.5t284.5 107.5q149 0 258 -77l39 57h223v-770q0 -38 15.5 -55t37.5 -16t55 12v-238q-87 -20 -152 -20q-17 0 -33 2q-76 6 -119.5 33.5t-67.5 78.5q-55 -52 -135.5 -82t-167.5 -30q-173 0 -258 114t-85 324zM416 440q0 -102 26 -147t97 -45 q46 0 92.5 27t73.5 67v434q-85 45 -160 45q-58 0 -93.5 -43t-35.5 -127v-211z" />
<glyph unicode="b" d="M111 0v1536h311v-549q42 41 109.5 69.5t134.5 28.5q193 0 273.5 -101t80.5 -314v-252q-1 -202 -120.5 -320t-313.5 -118q-129 0 -248 79l-16 -59h-211zM422 293q63 -49 141 -49q143 0 146 196v211q0 88 -27 124t-94 36q-41 0 -86.5 -22t-79.5 -58v-438z" />
<glyph unicode="c" horiz-adv-x="1048" d="M100 420v225q0 204 122.5 322t336.5 118q122 0 213.5 -31.5t190.5 -99.5l-111 -213q-66 33 -96 46t-78 23.5t-107 10.5q-159 0 -159 -198v-181q0 -196 159 -196q59 0 107 10.5t78 23.5t96 46l111 -213q-100 -68 -191 -100.5t-213 -32.5q-214 0 -336.5 118t-122.5 322z " />
<glyph unicode="d" d="M106 418v252q0 203 93.5 309t269.5 106q123 0 236 -47v498h311v-1241q0 -38 15.5 -55t37.5 -16t55 12l-2 -238q-87 -20 -152 -20q-16 0 -32 2q-76 6 -118.5 33.5t-67.5 78.5q-55 -52 -135.5 -82t-167.5 -30q-173 0 -258 114t-85 324zM416 440q0 -102 26 -147t97 -45 q46 0 92.5 27t73.5 67v434q-85 45 -160 45q-58 0 -93.5 -43t-35.5 -127v-211z" />
<glyph unicode="e" horiz-adv-x="1112" d="M100 418v227q0 204 122.5 322t336.5 118t337.5 -118t123.5 -322v-213h-608v-14q0 -178 153 -178q85 0 150.5 20t156.5 66l111 -213q-195 -133 -424 -133q-214 0 -336.5 117t-122.5 321zM406 633h303v10q0 92 -36.5 137t-113.5 45q-153 0 -153 -182v-10z" />
<glyph unicode="f" horiz-adv-x="722" d="M16 819v246h97v115q0 188 96.5 278t288.5 90q123 0 217 -32l-47 -240q-46 12 -121 12q-66 0 -94.5 -30t-28.5 -93v-100h227v-246h-227v-1126h-311v1126h-97z" />
<glyph unicode="g" horiz-adv-x="1122" d="M106 481v189q0 204 90 309.5t265 105.5q139 0 293 -73l39 53h223v-995q0 -192 -120.5 -295t-334.5 -103q-242 0 -434 103l88 219q138 -57 322 -57q168 0 168 155v51q-93 -77 -244 -77q-194 0 -274.5 101t-80.5 314zM416 500q0 -86 27 -123t94 -37q82 0 168 59v375 q-81 37 -168 37q-121 0 -121 -160v-151z" />
<glyph unicode="h" horiz-adv-x="1120" d="M111 0v1536h311v-549q42 42 113.5 70t140.5 28q186 0 262 -97.5t76 -289.5v-405q0 -68 57 -68q14 0 51 11l-2 -238q-105 -18 -184 -18q-117 0 -175.5 47.5t-58.5 162.5v482q0 73 -27.5 106t-92.5 33q-83 0 -160 -80v-731h-311z" />
<glyph unicode="i" horiz-adv-x="530" d="M82 1358q0 84 50 127t132 43q83 0 135 -43t52 -127q0 -82 -52 -124t-135 -42q-82 0 -132 41.5t-50 124.5zM111 0v1065h311v-1065h-311z" />
<glyph unicode="j" horiz-adv-x="546" d="M-92 -84q117 3 168 45.5t51 142.5v961h311v-979q0 -195 -126 -300.5t-365 -113.5zM104 1358q0 84 46.5 125t128.5 41q83 0 129.5 -40.5t46.5 -125.5q0 -162 -176 -162q-82 0 -128.5 39.5t-46.5 122.5z" />
<glyph unicode="k" horiz-adv-x="1075" d="M111 0v1536h311v-815l291 344h368l-376 -440l186 -330q39 -68 129 -68q33 0 72 9l-2 -242q-86 -13 -155 -13q-37 -1 -69 3q-93 10 -160 64.5t-126 168.5l-84 162l-74 -90v-289h-311z" />
<glyph unicode="l" horiz-adv-x="530" d="M111 190v1346h311v-1243q0 -68 57 -68q14 0 51 11l-2 -238q-105 -18 -184 -18q-116 0 -174.5 47.5t-58.5 162.5z" />
<glyph unicode="m" horiz-adv-x="1644" d="M111 0v1065h272l23 -88q46 47 117.5 77.5t144.5 30.5q166 0 239 -129q129 129 305 129q158 0 240 -89.5t82 -282.5v-420q0 -68 57 -68q14 0 51 11l-2 -238q-105 -18 -184 -18q-116 0 -174.5 47.5t-58.5 162.5v506q0 66 -20.5 95.5t-72.5 29.5q-85 0 -151 -92v-729h-311 v696q0 55 -25 85t-68 30q-79 0 -153 -88v-723h-311z" />
<glyph unicode="n" horiz-adv-x="1120" d="M111 0v1065h272l23 -88q47 47 122.5 77.5t147.5 30.5q180 0 259 -99t79 -288v-405q0 -68 57 -68q14 0 51 11l-2 -238q-105 -18 -184 -18q-117 0 -175.5 47.5t-58.5 162.5v482q0 74 -26.5 106.5t-91.5 32.5q-42 0 -85.5 -24.5t-76.5 -63.5v-723h-311z" />
<glyph unicode="o" horiz-adv-x="1116" d="M100 418v229q0 204 122.5 321t336.5 117t337.5 -117t123.5 -321v-229q1 -203 -123 -320.5t-338 -117.5t-336.5 117t-122.5 321zM412 440q-1 -96 36.5 -146t110.5 -50t112 50t38 146v185q0 96 -38.5 146t-111.5 50q-147 0 -147 -196v-185z" />
<glyph unicode="p" d="M111 -307v1372h272l23 -88q45 45 119.5 76.5t142.5 31.5q193 0 272.5 -101t79.5 -314v-252q-2 -205 -112.5 -321.5t-307.5 -116.5q-40 0 -93.5 8t-84.5 20v-315h-311zM422 270q60 -26 141 -26q143 0 146 196v211q0 88 -27 124t-94 36q-87 0 -166 -86v-455z" />
<glyph unicode="q" d="M104 395v252q0 206 103 322t295 116q135 0 250 -73l39 53h223v-1372h-312v385q-43 -41 -109.5 -69.5t-133.5 -28.5q-194 0 -274.5 101t-80.5 314zM416 414q0 -88 27 -124t94 -36q41 0 86 22t79 58v446q-76 41 -149 41q-72 0 -104.5 -48.5t-32.5 -147.5v-211z" />
<glyph unicode="r" horiz-adv-x="761" d="M111 0v1065h272l27 -111q49 52 136.5 91.5t162.5 39.5l24 -282q-89 0 -171 -27t-140 -74v-702h-311z" />
<glyph unicode="s" horiz-adv-x="1024" d="M70 106l102 213q90 -49 162.5 -72.5t157.5 -23.5q157 0 157 78q0 14 -3 25.5t-10.5 20.5t-15 16t-22 13t-26.5 9.5t-33.5 8t-37.5 7.5t-44 8t-47 9q-53 11 -89 21.5t-80.5 35.5t-71.5 58.5t-46 91t-19 133.5q0 156 105 241.5t315 85.5q124 0 219.5 -31.5t192.5 -97.5 l-105 -200q-93 46 -154.5 66t-141.5 20q-119 0 -119 -74q0 -44 32.5 -60.5t125.5 -33.5q21 -4 32 -6q133 -26 191 -55q154 -76 161 -281v-19q0 -156 -117 -244.5t-331 -88.5q-248 0 -440 126z" />
<glyph unicode="t" horiz-adv-x="679" d="M0 819v246h152v203h311v-203h184v-246h-184v-444q0 -208 141 -375h-344q-108 128 -108 367v452h-152z" />
<glyph unicode="u" horiz-adv-x="1093" d="M102 383v682h310v-678q0 -77 19.5 -108t80.5 -31q46 0 92.5 27t73.5 67v723h311v-770q0 -38 15.5 -55t37 -16t54.5 12v-238q-87 -20 -152 -20q-16 0 -32 2q-76 6 -119.5 33.5t-67.5 78.5q-54 -51 -136 -81.5t-169 -30.5q-173 0 -245.5 97t-72.5 306z" />
<glyph unicode="v" horiz-adv-x="1042" d="M2 1065h330l194 -666l187 666h327l-383 -1065h-274z" />
<glyph unicode="w" horiz-adv-x="1566" d="M4 1065h324l135 -657l162 657h303l180 -647l135 647h320l-303 -1065h-310l-178 633l-156 -633h-309z" />
<glyph unicode="x" horiz-adv-x="1091" d="M2 0l342 547l-328 518h363l168 -313l170 313h360l-329 -518l342 -547h-357l-190 344l-185 -344h-356z" />
<glyph unicode="y" horiz-adv-x="1095" d="M104 432v633h312v-553v-11q0 -65 22 -93q23 -29 88 -29q86 0 154 74v612h311v-991q0 -195 -109.5 -298.5t-324.5 -103.5q-263 0 -451 111l91 221q166 -72 331 -72q168 0 168 158v129q-49 -53 -127.5 -84t-158.5 -31q-162 0 -234.5 75.5t-71.5 252.5z" />
<glyph unicode="z" horiz-adv-x="974" d="M59 0v197q181 140 303 284.5t193 325.5h-485v258h835v-205q-53 -181 -136.5 -322.5t-215.5 -279.5h375v-258h-869z" />
<glyph unicode="{" horiz-adv-x="708" d="M72 518v275h63q41 0 65.5 20.5t24.5 85.5v315q0 168 83 245t247 77h94v-260h-39q-78 0 -78 -84v-274q0 -84 -32 -152.5t-94 -110.5q57 -36 91.5 -109.5t34.5 -154.5v-272q0 -84 78 -84h39v-260h-94q-164 0 -247 77.5t-83 245.5v314q0 65 -24.5 85.5t-65.5 20.5h-63z" />
<glyph unicode="|" horiz-adv-x="505" d="M113 -348v1925h278v-1925h-278z" />
<glyph unicode="}" horiz-adv-x="708" d="M61 35h41q76 0 76 84v272q0 81 34.5 154.5t92.5 109.5q-62 42 -94.5 111t-32.5 152v274q0 84 -76 84h-41v260h95q164 0 246.5 -77t82.5 -245v-315q0 -65 24.5 -85.5t65.5 -20.5h64v-275h-64q-41 0 -65.5 -20.5t-24.5 -85.5v-314q0 -168 -82.5 -245.5t-246.5 -77.5h-95 v260z" />
<glyph unicode="~" horiz-adv-x="1163" d="M90 557q21 127 97.5 203t201.5 76q66 0 138.5 -23t131.5 -46.5t91 -23.5q97 0 100 93l225 -33q-20 -133 -93.5 -209t-207.5 -76q-68 0 -137.5 23t-127 46t-97.5 23q-101 0 -101 -92z" />
<glyph unicode="&#xa1;" horiz-adv-x="563" d="M119 1296q0 79 44 118.5t118 39.5q78 0 121.5 -39.5t43.5 -118.5q0 -76 -44 -114.5t-121 -38.5q-74 0 -118 39t-44 114zM125 0v377l29 645h254l28 -645v-377h-311z" />
<glyph unicode="&#xa2;" horiz-adv-x="1048" d="M100 643v143q0 189 106 305.5t292 133.5v209h180v-213q80 -11 141.5 -40t143.5 -85l-105 -197q-47 24 -67.5 33.5t-50 19t-62.5 13.5v-494q93 13 186 61l99 -196q-82 -56 -143.5 -85t-141.5 -40v-211h-180v205q-186 17 -292 133t-106 305zM377 657q0 -78 30.5 -127.5 t90.5 -58.5v490q-60 -10 -90.5 -60.5t-30.5 -128.5v-115z" />
<glyph unicode="&#xa3;" horiz-adv-x="1067" d="M63 0v215q67 40 107.5 104.5t40.5 135.5v202h-148v263h148v239q0 389 399 389q219 0 377 -94l-98 -219q-103 53 -223 53q-77 0 -110.5 -33.5t-33.5 -109.5v-225h269v-263h-269v-174q0 -57 -16 -110t-32 -77l-15 -24h545v-272h-941z" />
<glyph unicode="&#xa4;" horiz-adv-x="1216" d="M70 334l137 139q-35 81 -35 174v82q0 90 35 168l-137 143l196 209l137 -143q96 35 205 35q125 0 205 -35l139 143l195 -209l-139 -141q34 -72 34 -170v-82q0 -84 -34 -174l139 -139l-195 -209l-139 143q-96 -35 -205 -35t-205 35l-137 -145zM438 664q0 -82 49.5 -124 t120.5 -42q72 0 119 41.5t47 124.5v47q0 83 -47.5 125.5t-118.5 42.5t-120.5 -43t-49.5 -125v-47z" />
<glyph unicode="&#xa5;" horiz-adv-x="1200" d="M16 1434h344l252 -529l250 529h326l-367 -721h275v-217h-328v-113h328v-217h-328v-166h-319v166h-328v217h328v113h-328v217h268z" />
<glyph unicode="&#xa6;" horiz-adv-x="505" d="M113 -348v739h278v-739h-278zM113 827v750h278v-750h-278z" />
<glyph unicode="&#xa7;" horiz-adv-x="1077" d="M78 -70l106 224q95 -49 174.5 -74t169.5 -25q63 0 94 28.5t31 70.5v26q0 33 -44 58.5t-115 37.5q-65 12 -116.5 26t-108.5 41t-95 61.5t-63 88.5t-25 121v37q0 58 35.5 123t89.5 103q-45 34 -72.5 89t-27.5 113v41q0 152 105.5 247t307.5 95q130 0 230.5 -33t201.5 -102 l-110 -211q-95 47 -160.5 67.5t-150.5 20.5q-54 0 -81.5 -25t-27.5 -63v-29q0 -37 47 -64t119 -40q61 -12 111 -26t106.5 -40.5t94.5 -60t63.5 -85t25.5 -114.5v-41q0 -53 -40.5 -115t-96.5 -104q50 -33 81.5 -91t31.5 -120v-39q0 -151 -113.5 -250.5t-316.5 -99.5 q-258 0 -461 133zM403 643q0 -24 10.5 -42t25 -28.5t40.5 -19t44.5 -12t49.5 -9t45 -8.5q60 45 60 90v13q0 18 -9 33t-26.5 25.5t-35.5 18.5t-44.5 14t-44 9t-44 7t-34.5 5q-37 -32 -37 -84v-12z" />
<glyph unicode="&#xa8;" horiz-adv-x="1005" d="M66 1341q0 84 50 127t132 43q83 0 134.5 -43t51.5 -127q0 -82 -51.5 -123.5t-134.5 -41.5q-82 0 -132 41t-50 124zM571 1341q0 84 50.5 127t132.5 43q83 0 134.5 -43t51.5 -127q0 -82 -51.5 -123.5t-134.5 -41.5t-133 41t-50 124z" />
<glyph unicode="&#xa9;" horiz-adv-x="1421" d="M100 434v559q0 139 86 245.5t224.5 161t302.5 54.5t301 -54.5t222 -161t85 -245.5v-559q0 -140 -85 -247t-222 -161.5t-301 -54.5t-302.5 54.5t-224.5 161.5t-86 247zM305 424q0 -79 62 -140t153.5 -90.5t192.5 -29.5q100 0 190.5 29.5t152.5 90.5t62 140v577 q0 77 -61.5 138.5t-153 92t-190.5 30.5q-100 0 -192 -30.5t-154 -92t-62 -138.5v-577zM418 612v203q0 165 74.5 238t246.5 73q127 0 267 -94l-72 -149q-105 51 -191 51q-57 0 -80.5 -32t-23.5 -103v-168q0 -74 23.5 -105.5t80.5 -31.5q84 0 193 53l70 -152 q-140 -94 -267 -94q-172 0 -246.5 73.5t-74.5 237.5z" />
<glyph unicode="&#xaa;" horiz-adv-x="921" d="M66 797q0 268 317 268q97 0 199 -25v84q0 121 -162 121q-71 0 -121 -12.5t-106 -38.5l-76 178q165 90 356 90q346 0 346 -332v-567h-201l-10 80q-34 -41 -112 -68.5t-150 -27.5q-126 0 -203 63t-77 187zM305 817q0 -76 98 -76q49 0 103.5 24.5t75.5 61.5v56 q-67 18 -170 18q-107 0 -107 -84z" />
<glyph unicode="&#xab;" horiz-adv-x="1054" d="M86 479v185l326 321l135 -180l-230 -234l230 -231l-135 -180zM553 479v185l326 321l135 -180l-228 -234l228 -231l-135 -180z" />
<glyph unicode="&#xac;" horiz-adv-x="1257" d="M86 657v271h1088v-553h-308v282h-780z" />
<glyph unicode="&#xad;" horiz-adv-x="825" d="M86 479v271h653v-271h-653z" />
<glyph unicode="&#xae;" horiz-adv-x="1421" d="M100 434v559q0 139 86 245.5t224.5 161t302.5 54.5t301 -54.5t222 -161t85 -245.5v-559q0 -140 -85 -247t-222 -161.5t-301 -54.5t-302.5 54.5t-224.5 161.5t-86 247zM305 424q0 -79 62 -140t153.5 -90.5t192.5 -29.5q100 0 190.5 29.5t152.5 90.5t62 140v577 q0 77 -61.5 138.5t-153 92t-190.5 30.5q-100 0 -192 -30.5t-154 -92t-62 -138.5v-577zM424 313v805h309q132 0 206.5 -65.5t74.5 -188.5v-39q0 -81 -34 -140t-101 -83l143 -289h-262l-107 258h-6v-258h-223zM647 743h51q48 0 70.5 20t22.5 71v16q0 50 -22.5 69t-70.5 19h-51 v-195z" />
<glyph unicode="&#xaf;" horiz-adv-x="808" d="M78 1200v270h655v-270h-655z" />
<glyph unicode="&#xb0;" horiz-adv-x="741" d="M88 1149v35q0 129 76.5 207.5t202.5 78.5q133 0 211.5 -78t78.5 -208v-35q0 -135 -77.5 -211t-212.5 -76q-128 0 -203.5 76t-75.5 211zM264 1161q0 -57 26 -90t75 -33q114 0 114 123q0 64 -27 95.5t-87 31.5q-101 0 -101 -127z" />
<glyph unicode="&#xb1;" horiz-adv-x="1144" d="M86 23v241h973v-241h-973zM86 625v247h356v275h263v-275h354v-247h-354v-275h-263v275h-356z" />
<glyph unicode="&#xb2;" horiz-adv-x="868" d="M88 471v154l361 395q67 72 67 137q0 33 -24 55.5t-66 22.5q-46 0 -94 -11t-73.5 -21t-84.5 -34l-84 179q177 104 354 104q160 0 238 -80.5t78 -212.5t-146 -291l-161 -180h327v-217h-692z" />
<glyph unicode="&#xb3;" horiz-adv-x="854" d="M84 537l59 176q109 -41 242 -41q113 0 113 98v10q0 105 -90 105h-101v164h101q39 0 60 30.5t21 71.5q0 98 -90 98q-105 0 -221 -37l-59 172q128 74 305 74q152 0 230.5 -77.5t78.5 -204.5q0 -48 -20.5 -106.5t-55.5 -94.5q42 -32 67.5 -86t25.5 -107v-18q0 -139 -91 -222 t-253 -83q-187 0 -322 78z" />
<glyph unicode="&#xb4;" horiz-adv-x="671" d="M125 1268l172 313l213 -137l-246 -264z" />
<glyph unicode="&#xb6;" horiz-adv-x="1157" d="M88 956v50q0 206 120.5 317t344.5 111h496v-1659h-179v1458h-163v-1458h-177v753h-26q-182 0 -299 113t-117 315z" />
<glyph unicode="&#xb7;" horiz-adv-x="483" d="M57 725q0 84 50.5 127t132.5 43q83 0 134.5 -43t51.5 -127q0 -82 -51.5 -124t-134.5 -42q-82 0 -132.5 41.5t-50.5 124.5z" />
<glyph unicode="&#xb8;" horiz-adv-x="534" d="M78 -324l14 105q25 -10 68 -10q33 0 52 11.5t19 29.5q0 29 -31.5 42t-63.5 11l-32 -2l60 137h192l-22 -63q56 -13 90.5 -46t34.5 -86q0 -42 -22 -73t-58.5 -47.5t-75.5 -23.5t-82 -7q-75 0 -143 22z" />
<glyph unicode="&#xb9;" horiz-adv-x="641" d="M25 1264l243 178h195v-731h137v-201h-518v201h141v448l-102 -63z" />
<glyph unicode="&#xba;" horiz-adv-x="905" d="M74 907v195q0 167 101 263.5t276 96.5t277.5 -96.5t102.5 -263.5v-195q0 -167 -102.5 -263.5t-277.5 -96.5t-276 96.5t-101 263.5zM311 926q0 -78 37 -120t103 -42q67 0 104 41.5t37 120.5v157q0 79 -37 120.5t-104 41.5q-66 0 -103 -42t-37 -120v-157z" />
<glyph unicode="&#xbb;" horiz-adv-x="1054" d="M43 340l227 231l-227 234l135 180l326 -321v-185l-326 -319zM510 340l229 231l-229 234l135 180l326 -321v-185l-326 -319z" />
<glyph unicode="&#xbc;" horiz-adv-x="1978" d="M41 1264l244 178h194v-731h137v-201h-518v201h142v448l-103 -63zM369 0l929 1434h332l-932 -1434h-329zM1147 164v141l254 649h246l-211 -575h163v239h240v-239h57v-215h-57v-164h-240v164h-452z" />
<glyph unicode="&#xbd;" horiz-adv-x="2080" d="M41 1264l244 178h194v-731h137v-201h-518v201h142v448l-103 -63zM358 0l930 1434h332l-930 -1434h-332zM1327 0v154l369 395q67 72 67 137q0 33 -24 55.5t-66 22.5q-46 0 -94 -11t-73.5 -21t-84.5 -34l-84 179q177 104 355 104q159 0 237 -80t78 -213q0 -138 -145 -291 l-170 -180h327v-217h-692z" />
<glyph unicode="&#xbe;" horiz-adv-x="2035" d="M74 537l59 176q109 -41 242 -41q112 0 112 98v10q0 105 -90 105h-100v164h100q39 0 60.5 31t21.5 71q0 98 -90 98q-105 0 -221 -37l-59 172q128 74 305 74q152 0 230.5 -77.5t78.5 -204.5q0 -48 -20.5 -106.5t-55.5 -94.5q42 -32 67 -85.5t25 -107.5v-18q0 -139 -91 -222 t-253 -83q-186 0 -321 78zM410 0l929 1434h332l-932 -1434h-329zM1204 164v141l254 649h246l-211 -575h164v239h239v-239h58v-215h-58v-164h-239v164h-453z" />
<glyph unicode="&#xbf;" horiz-adv-x="1007" />
<glyph unicode="&#xc0;" horiz-adv-x="1269" d="M-6 0l489 1229l-67 205h327l533 -1434h-356l-74 215h-424l-72 -215h-356zM352 1735l213 137l172 -313l-139 -89zM508 469h250l-125 362z" />
<glyph unicode="&#xc1;" horiz-adv-x="1269" d="M-6 0l489 1229l-67 205h327l533 -1434h-356l-74 215h-424l-72 -215h-356zM508 469h250l-125 362zM549 1575l172 313l213 -137l-246 -264z" />
<glyph unicode="&#xc2;" horiz-adv-x="1269" d="M-6 0l489 1229l-67 205h327l533 -1434h-356l-74 215h-424l-72 -215h-356zM342 1563l174 219h238l174 -219l-207 -56l-86 131l-84 -131zM508 469h250l-125 362z" />
<glyph unicode="&#xc3;" horiz-adv-x="1269" d="M-6 0l489 1229l-67 205h327l533 -1434h-356l-74 215h-424l-72 -215h-356zM203 1565q9 125 70 201.5t165 76.5q65 0 136 -23.5t127 -47t83 -23.5q41 0 58.5 20t17.5 66l207 -45q-10 -129 -68.5 -205t-171.5 -76q-65 0 -131.5 23.5t-120.5 47.5t-88 24q-43 0 -61 -20 t-16 -66zM508 469h250l-125 362z" />
<glyph unicode="&#xc4;" horiz-adv-x="1269" d="M-6 0l489 1229l-67 205h327l533 -1434h-356l-74 215h-424l-72 -215h-356zM197 1690q0 76 37 123t112 47t113.5 -47t38.5 -123q0 -74 -38.5 -120t-113.5 -46t-112 45.5t-37 120.5zM508 469h250l-125 362zM762 1690q0 77 36.5 123.5t110.5 46.5q78 0 115 -46.5t37 -123.5 q0 -75 -37 -120.5t-115 -45.5q-74 0 -110.5 45.5t-36.5 120.5z" />
<glyph unicode="&#xc5;" horiz-adv-x="1269" d="M-6 0l489 1229l-67 205h327l533 -1434h-356l-74 215h-424l-72 -215h-356zM457 1647v20q0 75 50.5 121.5t125.5 46.5q78 0 129 -46.5t51 -121.5v-20q0 -78 -50.5 -123t-129.5 -45q-76 0 -126 45.5t-50 122.5zM508 469h250l-125 362zM575 1655q0 -68 58 -68q30 0 46.5 18.5 t16.5 49.5q0 69 -63 69q-58 0 -58 -69z" />
<glyph unicode="&#xc6;" horiz-adv-x="1898" d="M-20 0l755 1434h1084v-283h-580v-360h481v-281h-481v-229h592v-281h-920v319h-391l-145 -319h-395zM643 600h268v563h-6z" />
<glyph unicode="&#xc7;" horiz-adv-x="1216" d="M100 449v538q0 215 144.5 345t371.5 130q209 0 345 -98.5t161 -267.5l-315 -62q-9 70 -59 109t-132 39q-86 0 -137 -57.5t-51 -161.5v-490q0 -105 51 -163t137 -58q82 0 132 38.5t59 108.5l315 -61q-22 -149 -130 -244t-279 -117l-15 -40q56 -13 90.5 -46t34.5 -86 q0 -42 -22 -73t-58.5 -47.5t-75 -23.5t-81.5 -7q-76 0 -144 22l15 105q25 -10 67 -10q33 0 51.5 11.5t18.5 29.5q0 29 -31 42t-63 11l-31 -2l49 114q-189 28 -303.5 154.5t-114.5 317.5z" />
<glyph unicode="&#xc8;" horiz-adv-x="1071" d="M111 0v1434h882v-283h-559v-285h465v-278h-465v-307h572v-281h-895zM319 1729l213 137l173 -314l-140 -88z" />
<glyph unicode="&#xc9;" horiz-adv-x="1071" d="M111 0v1434h882v-283h-559v-289h465v-270h-465v-311h572v-281h-895zM430 1556l172 314l213 -137l-246 -265z" />
<glyph unicode="&#xca;" horiz-adv-x="1071" d="M111 0v1434h882v-283h-559v-285h465v-278h-465v-307h572v-281h-895zM266 1563l174 219h238l174 -219l-207 -56l-86 131l-84 -131z" />
<glyph unicode="&#xcb;" horiz-adv-x="1071" d="M111 0v1434h882v-283h-559v-285h465v-278h-465v-307h572v-281h-895zM133 1690q0 77 37 123.5t111 46.5q76 0 114.5 -47t38.5 -123q0 -75 -38.5 -120.5t-114.5 -45.5q-74 0 -111 45.5t-37 120.5zM639 1690q0 76 37 123t112 47t112.5 -47t37.5 -123q0 -75 -37.5 -120.5 t-112.5 -45.5t-112 45.5t-37 120.5z" />
<glyph unicode="&#xcc;" horiz-adv-x="540" d="M10 1739l213 137l172 -313l-139 -88zM111 0v1434h323v-1434h-323z" />
<glyph unicode="&#xcd;" horiz-adv-x="540" d="M111 0v1434h323v-1434h-323zM135 1561l172 313l213 -137l-246 -264z" />
<glyph unicode="&#xce;" horiz-adv-x="540" d="M-23 1563l175 219h237l174 -219l-207 -56l-86 131l-84 -131zM111 0v1434h323v-1434h-323z" />
<glyph unicode="&#xcf;" horiz-adv-x="540" d="M-45 1690q0 77 34.5 123.5t108.5 46.5q75 0 110.5 -46.5t35.5 -123.5q0 -76 -35.5 -121t-110.5 -45q-74 0 -108.5 45t-34.5 121zM111 0v1434h323v-1434h-323zM307 1690q0 77 34.5 123.5t107.5 46.5q75 0 110 -46t35 -124q0 -76 -35 -121t-110 -45q-73 0 -107.5 45.5 t-34.5 120.5z" />
<glyph unicode="&#xd0;" horiz-adv-x="1243" d="M18 586v256h93v592h542q227 0 359.5 -128.5t132.5 -347.5v-483q0 -220 -135.5 -347.5t-376.5 -127.5q-301 0 -522 84v502h-93zM434 299q101 -23 199 -23q186 0 186 224v434q0 106 -43 161.5t-123 55.5h-219v-309h236v-256h-236v-287z" />
<glyph unicode="&#xd1;" horiz-adv-x="1286" d="M111 0v1434h286l469 -777l-10 777h324v-1434h-295l-463 768l8 -768h-319zM211 1565q9 125 70 201.5t165 76.5q65 0 136.5 -23.5t127.5 -47t83 -23.5q41 0 58 20t17 66l207 -45q-10 -130 -68 -205.5t-171 -75.5q-65 0 -131.5 23.5t-120.5 47.5t-88 24q-43 0 -61 -20 t-17 -66z" />
<glyph unicode="&#xd2;" horiz-adv-x="1271" d="M100 449v538q0 144 73 253t195 165.5t271 56.5q148 0 269.5 -56.5t194.5 -166t73 -252.5v-538q0 -144 -73 -254t-194.5 -167t-269.5 -57q-149 0 -271 57t-195 167t-73 254zM360 1765l213 138l172 -314l-139 -88zM428 473q0 -104 59.5 -161.5t151.5 -57.5q90 0 149.5 58 t59.5 161v490q0 103 -59.5 161t-149.5 58q-92 0 -151.5 -57.5t-59.5 -161.5v-490z" />
<glyph unicode="&#xd3;" horiz-adv-x="1271" d="M100 449v538q0 144 73 253t195 165.5t271 56.5q148 0 269.5 -56.5t194.5 -166t73 -252.5v-538q0 -144 -73 -254t-194.5 -167t-269.5 -57q-149 0 -271 57t-195 167t-73 254zM428 473q0 -104 59.5 -161.5t151.5 -57.5q90 0 149.5 58t59.5 161v490q0 103 -59.5 161 t-149.5 58q-92 0 -151.5 -57.5t-59.5 -161.5v-490zM549 1587l172 314l213 -138l-246 -264z" />
<glyph unicode="&#xd4;" horiz-adv-x="1271" d="M100 449v538q0 144 73 253t195 165.5t271 56.5q148 0 269.5 -56.5t194.5 -166t73 -252.5v-538q0 -144 -73 -254t-194.5 -167t-269.5 -57q-149 0 -271 57t-195 167t-73 254zM346 1563l174 219h238l174 -219l-207 -56l-86 131l-84 -131zM428 473q0 -104 59.5 -161.5 t151.5 -57.5q90 0 149.5 58t59.5 161v490q0 103 -59.5 161t-149.5 58q-92 0 -151.5 -57.5t-59.5 -161.5v-490z" />
<glyph unicode="&#xd5;" horiz-adv-x="1271" d="M100 449v538q0 144 73 253t195 165.5t271 56.5q148 0 269.5 -56.5t194.5 -166t73 -252.5v-538q0 -144 -73 -254t-194.5 -167t-269.5 -57q-149 0 -271 57t-195 167t-73 254zM209 1565q9 125 70 201.5t165 76.5q65 0 136.5 -23.5t127.5 -47t83 -23.5q41 0 58 20t17 66 l207 -45q-10 -130 -68 -205.5t-171 -75.5q-65 0 -131.5 23.5t-120.5 47.5t-88 24q-43 0 -61 -20t-17 -66zM428 473q0 -104 59.5 -161.5t151.5 -57.5q90 0 149.5 58t59.5 161v490q0 103 -59.5 161t-149.5 58q-92 0 -151.5 -57.5t-59.5 -161.5v-490z" />
<glyph unicode="&#xd6;" horiz-adv-x="1275" d="M102 449v538q0 144 72.5 253t194.5 165.5t272 56.5q148 0 269 -56.5t193.5 -165.5t72.5 -253v-538q0 -144 -72.5 -254t-193.5 -167t-269 -57q-150 0 -272 57t-194.5 167t-72.5 254zM236 1690q0 76 37 123t110 47q76 0 114 -47t38 -123q0 -75 -38 -120.5t-114 -45.5 q-73 0 -110 45.5t-37 120.5zM430 473q0 -104 59 -161.5t152 -57.5q90 0 149.5 58t59.5 161v490q0 103 -59.5 161t-149.5 58q-93 0 -152 -57.5t-59 -161.5v-490zM743 1690q0 76 36.5 123t109.5 47q78 0 114.5 -46.5t36.5 -123.5q0 -76 -36.5 -121t-114.5 -45 q-73 0 -109.5 45.5t-36.5 120.5z" />
<glyph unicode="&#xd7;" horiz-adv-x="1165" d="M72 238l323 329l-323 332l188 205l322 -332l325 332l187 -205l-324 -332l324 -329l-187 -205l-325 329l-322 -329z" />
<glyph unicode="&#xd8;" horiz-adv-x="1271" d="M6 383l94 74v526q0 144 73 254t195 167.5t271 57.5q143 0 255.5 -47.5t180.5 -138.5l51 43l136 -275l-86 -71v-522q0 -144 -73 -254.5t-194.5 -168t-269.5 -57.5q-141 0 -255.5 48t-184.5 137l-45 -41zM428 748l401 315q-26 57 -76.5 88t-113.5 31q-91 0 -151 -60 t-60 -164v-210zM444 369q26 -56 77.5 -85.5t117.5 -29.5q90 0 149.5 58.5t59.5 162.5v211z" />
<glyph unicode="&#xd9;" horiz-adv-x="1241" d="M104 430v1004h328v-977q0 -108 38.5 -158.5t123.5 -50.5q66 0 124.5 32t92.5 82v1072h326v-1139q0 -38 14.5 -55t35.5 -16t54 12v-238q-162 -34 -255.5 -7.5t-127.5 126.5q-66 -72 -157.5 -109t-192.5 -37q-214 0 -309 116t-95 343zM319 1751l213 137l173 -313l-140 -88z " />
<glyph unicode="&#xda;" horiz-adv-x="1241" d="M104 430v1004h328v-977q0 -108 38.5 -158.5t123.5 -50.5q66 0 124.5 32t92.5 82v1072h326v-1139q0 -38 14.5 -55t35.5 -16t54 12v-238q-162 -34 -255.5 -7.5t-127.5 126.5q-66 -72 -157.5 -109t-192.5 -37q-214 0 -309 116t-95 343zM530 1575l172 313l213 -137l-245 -264 z" />
<glyph unicode="&#xdb;" horiz-adv-x="1241" d="M104 430v1004h328v-977q0 -108 38.5 -158.5t123.5 -50.5q66 0 124.5 32t92.5 82v1072h326v-1139q0 -38 14.5 -55t35.5 -16t54 12v-238q-162 -34 -255.5 -7.5t-127.5 126.5q-66 -72 -157.5 -109t-192.5 -37q-214 0 -309 116t-95 343zM332 1563l174 219h237l175 -219 l-207 -56l-86 131l-84 -131z" />
<glyph unicode="&#xdc;" horiz-adv-x="1241" d="M104 430v1004h328v-977q0 -108 38.5 -158.5t123.5 -50.5q66 0 124.5 32t92.5 82v1072h326v-1139q0 -38 14.5 -55t35.5 -16t54 12v-238q-162 -34 -255.5 -7.5t-127.5 126.5q-66 -72 -157.5 -109t-192.5 -37q-214 0 -309 116t-95 343z" />
<glyph unicode="&#xdd;" horiz-adv-x="1189" d="M-6 1434h358l248 -570l238 570h358l-436 -897v-537h-328v535zM502 1575l172 313l213 -137l-246 -264z" />
<glyph unicode="&#xde;" horiz-adv-x="1208" d="M111 0v1434h323v-236h201q228 0 358.5 -117.5t130.5 -332.5v-62q0 -215 -130.5 -332.5t-358.5 -117.5h-201v-236h-323zM434 512h201q164 0 164 193v24q0 191 -164 191h-201v-408z" />
<glyph unicode="&#xdf;" horiz-adv-x="1177" d="M16 686v262h97v162q0 206 110 322t314 116q166 0 268.5 -79t101.5 -226q0 -61 -21 -120.5t-45.5 -98.5t-45.5 -87t-21 -89q0 -36 34 -80t82 -91t96 -101t82 -128t34 -153q0 -68 -22 -125t-68 -102.5t-125 -71t-185 -25.5q-113 0 -204 31l49 256q68 -18 127 -18 q49 0 86 22t37 68q0 33 -22.5 68.5t-56.5 65.5t-73.5 70t-73.5 81t-56.5 100.5t-22.5 126.5q0 53 19.5 105.5t42.5 88.5t42.5 84t19.5 92q0 34 -21 56t-67 22q-56 0 -80 -50t-24 -150v-1090h-311v686h-97z" />
<glyph unicode="&#xe0;" d="M106 418v252q0 200 105.5 307.5t284.5 107.5q149 0 258 -77l39 57h223v-770q0 -38 15.5 -55t37.5 -16t55 12v-238q-109 -25 -185 -18.5t-119.5 34t-67.5 78.5q-55 -52 -135.5 -82t-167.5 -30q-173 0 -258 114t-85 324zM279 1444l213 137l172 -313l-140 -88zM416 440 q0 -102 26 -147t97 -45q46 0 92.5 27t73.5 67v434q-85 45 -160 45q-58 0 -93.5 -43t-35.5 -127v-211z" />
<glyph unicode="&#xe1;" d="M106 418v252q0 200 105.5 307.5t284.5 107.5q149 0 258 -77l39 57h223v-770q0 -38 15.5 -55t37.5 -16t55 12v-238q-109 -25 -185 -18.5t-119.5 34t-67.5 78.5q-55 -52 -135.5 -82t-167.5 -30q-173 0 -258 114t-85 324zM416 440q0 -102 26 -147t97 -45q46 0 92.5 27 t73.5 67v434q-85 45 -160 45q-58 0 -93.5 -43t-35.5 -127v-211zM483 1268l172 313l213 -137l-245 -264z" />
<glyph unicode="&#xe2;" d="M106 418v252q0 200 105.5 307.5t284.5 107.5q149 0 258 -77l39 57h223v-770q0 -38 15.5 -55t37.5 -16t55 12v-238q-109 -25 -185 -18.5t-119.5 34t-67.5 78.5q-55 -52 -135.5 -82t-167.5 -30q-173 0 -258 114t-85 324zM315 1235l174 219h238l174 -219l-207 -55l-86 131 l-84 -131zM416 440q0 -102 26 -147t97 -45q46 0 92.5 27t73.5 67v434q-85 45 -160 45q-58 0 -93.5 -43t-35.5 -127v-211z" />
<glyph unicode="&#xe3;" d="M106 418v252q0 200 105.5 307.5t284.5 107.5q149 0 258 -77l39 57h223v-770q0 -38 15.5 -55t37.5 -16t55 12v-238q-109 -25 -185 -18.5t-119.5 34t-67.5 78.5q-55 -52 -135.5 -82t-167.5 -30q-173 0 -258 114t-85 324zM162 1257q9 125 70 202t165 77q65 0 136 -23.5 t127 -47t83 -23.5q41 0 58.5 20t17.5 66l207 -45q-10 -129 -68.5 -205t-171.5 -76q-65 0 -131.5 23.5t-120.5 47t-88 23.5q-43 0 -61 -20t-16 -66zM416 440q0 -102 26 -147t97 -45q46 0 92.5 27t73.5 67v434q-85 45 -160 45q-58 0 -93.5 -43t-35.5 -127v-211z" />
<glyph unicode="&#xe4;" d="M106 418v252q0 200 105.5 307.5t284.5 107.5q149 0 258 -77l39 57h223v-770q0 -38 15.5 -55t37.5 -16t55 12v-238q-109 -25 -185 -18.5t-119.5 34t-67.5 78.5q-55 -52 -135.5 -82t-167.5 -30q-173 0 -258 114t-85 324zM416 440q0 -102 26 -147t97 -45q46 0 92.5 27 t73.5 67v434q-85 45 -160 45q-58 0 -93.5 -43t-35.5 -127v-211z" />
<glyph unicode="&#xe5;" horiz-adv-x="1097" d="M106 418v252q0 200 105.5 307.5t284.5 107.5q149 0 258 -77l39 57h223v-770q0 -38 15.5 -55t37.5 -16t55 12v-238q-109 -25 -185 -18.5t-119.5 34t-67.5 78.5q-55 -52 -135.5 -82t-167.5 -30q-173 0 -258 114t-85 324zM395 1401v20q0 75 50.5 121.5t125.5 46.5 q79 0 131 -46.5t52 -121.5v-20q0 -78 -51.5 -123t-131.5 -45q-76 0 -126 45.5t-50 122.5zM416 440q0 -102 26 -147t97 -45q46 0 92.5 27t73.5 67v434q-85 45 -160 45q-58 0 -93.5 -43t-35.5 -127v-211zM514 1409q0 -31 15 -49.5t42 -18.5q31 0 47.5 18t16.5 50q0 70 -64 70 q-57 0 -57 -70z" />
<glyph unicode="&#xe6;" horiz-adv-x="2236" d="M106 418v252q0 200 105.5 307.5t284.5 107.5q202 0 335 -116q119 116 332 116q214 0 337.5 -118t123.5 -322v-213h-608v-14q0 -178 153 -178q85 0 151 20.5t157 65.5l110 -213q-195 -133 -424 -133q-241 0 -362 149q-70 -66 -152 -107.5t-200 -41.5q-173 0 -258 114 t-85 324zM416 440q0 -102 26 -147t97 -45q46 0 92.5 27t73.5 67v434q-85 45 -160 45q-58 0 -93.5 -43t-35.5 -127v-211zM1010 633h303v10q0 92 -36.5 137t-113.5 45q-153 0 -153 -182v-10z" />
<glyph unicode="&#xe7;" horiz-adv-x="1093" d="M100 420v225q0 204 122.5 322t336.5 118q232 0 424 -131l-111 -213q-87 43 -150.5 61.5t-150.5 18.5q-159 0 -159 -198v-181q0 -196 159 -196q87 0 150.5 18.5t150.5 61.5l111 -213q-151 -105 -321 -127l-19 -49q56 -13 90.5 -46t34.5 -86q0 -42 -22 -73t-58.5 -47.5 t-75.5 -23.5t-82 -7q-75 0 -143 22l14 105q25 -10 68 -10q33 0 51.5 11.5t18.5 29.5q0 29 -31.5 42t-62.5 11l-31 -2l53 123q-172 25 -269.5 139t-97.5 295z" />
<glyph unicode="&#xe8;" horiz-adv-x="1112" d="M100 418v227q0 204 122.5 322t336.5 118t337.5 -118t123.5 -322v-213h-608v-14q0 -178 153 -178q85 0 150.5 20t156.5 66l111 -213q-195 -133 -424 -133q-214 0 -336.5 117t-122.5 321zM258 1444l213 137l172 -313l-139 -88zM406 633h303v10q0 92 -36.5 137t-113.5 45 q-153 0 -153 -182v-10z" />
<glyph unicode="&#xe9;" horiz-adv-x="1112" d="M100 418v227q0 204 122.5 322t336.5 118t337.5 -118t123.5 -322v-213h-608v-14q0 -178 153 -178q85 0 150.5 20t156.5 66l111 -213q-195 -133 -424 -133q-214 0 -336.5 117t-122.5 321zM406 633h303v10q0 92 -36.5 137t-113.5 45q-153 0 -153 -182v-10zM477 1268l172 313 l213 -137l-246 -264z" />
<glyph unicode="&#xea;" horiz-adv-x="1112" d="M100 418v227q0 204 122.5 322t336.5 118t337.5 -118t123.5 -322v-213h-608v-14q0 -178 153 -178q85 0 150.5 20t156.5 66l111 -213q-195 -133 -424 -133q-214 0 -336.5 117t-122.5 321zM281 1255l174 220h237l174 -220l-207 -55l-86 131l-84 -131zM406 633h303v10 q0 92 -36.5 137t-113.5 45q-153 0 -153 -182v-10z" />
<glyph unicode="&#xeb;" horiz-adv-x="1112" d="M100 418v227q0 204 122.5 322t336.5 118t337.5 -118t123.5 -322v-213h-608v-14q0 -178 153 -178q85 0 150.5 20t156.5 66l111 -213q-195 -133 -424 -133q-214 0 -336.5 117t-122.5 321zM160 1403q0 77 36.5 123.5t110.5 46.5q76 0 115 -47t39 -123q0 -74 -39 -120 t-115 -46q-74 0 -110.5 45.5t-36.5 120.5zM406 633h303v10q0 92 -36.5 137t-113.5 45q-153 0 -153 -182v-10zM666 1403q0 76 37 123t110 47q76 0 115 -47t39 -123q0 -74 -39 -120t-115 -46q-73 0 -110 45.5t-37 120.5z" />
<glyph unicode="&#xec;" horiz-adv-x="530" d="M-10 1444l213 137l172 -313l-139 -88zM111 0v1065h311v-1065h-311z" />
<glyph unicode="&#xed;" horiz-adv-x="530" d="M111 0v1065h311v-1065h-311zM164 1268l172 313l213 -137l-246 -264z" />
<glyph unicode="&#xee;" horiz-adv-x="530" d="M-27 1255l174 220h238l174 -220l-207 -55l-86 131l-84 -131zM111 0v1065h311v-1065h-311z" />
<glyph unicode="&#xef;" horiz-adv-x="530" d="M-41 1403q0 65 33 106t96 41q65 0 99 -41t34 -106q0 -63 -34 -103t-99 -40q-63 0 -96 40t-33 103zM111 0v1065h311v-1065h-311zM289 1403q0 65 32.5 106t96.5 41q65 0 98 -41t33 -106q0 -63 -33 -103t-98 -40q-64 0 -96.5 39.5t-32.5 103.5z" />
<glyph unicode="&#xf0;" horiz-adv-x="1099" d="M100 369v311q0 195 97 283t286 88q137 0 228 -58v37q0 48 -17 92l-80 -61l-106 139l55 43q-34 17 -92 17q-64 0 -119 -17l-53 230q97 32 199 32q77 0 151.5 -17.5t126.5 -47.5l125 98l103 -139l-86 -72q36 -42 61 -112.5t25 -143.5v-672q0 -202 -118 -310.5t-349 -108.5 q-198 0 -317.5 98.5t-119.5 290.5zM377 451q0 -125 38 -178.5t128 -53.5q92 0 130 53.5t38 178.5v294q-31 31 -81.5 48.5t-101.5 17.5q-87 0 -119 -45.5t-32 -165.5v-149z" />
<glyph unicode="&#xf1;" horiz-adv-x="1120" d="M111 0v1065h272l23 -88q47 47 122.5 77.5t147.5 30.5q180 0 259 -99t79 -288v-405q0 -68 57 -68q14 0 51 11l-2 -238q-105 -18 -184 -18q-117 0 -175.5 47.5t-58.5 162.5v482q0 74 -26.5 106.5t-91.5 32.5q-42 0 -85.5 -24.5t-76.5 -63.5v-723h-311zM131 1257 q9 125 70.5 202t165.5 77q65 0 136 -23.5t127 -47t83 -23.5q41 0 58 20t17 66l207 -45q-10 -130 -68 -205.5t-171 -75.5q-65 0 -131.5 23.5t-120.5 47t-88 23.5q-43 0 -61 -20t-17 -66z" />
<glyph unicode="&#xf2;" horiz-adv-x="1116" d="M100 418v229q0 204 122.5 321t336.5 117t337.5 -117t123.5 -321v-229q1 -203 -123 -320.5t-338 -117.5t-336.5 117t-122.5 321zM289 1444l213 137l172 -313l-139 -88zM412 440q-1 -96 36.5 -146t110.5 -50t112 50t38 146v185q0 96 -38.5 146t-111.5 50q-147 0 -147 -196 v-185z" />
<glyph unicode="&#xf3;" horiz-adv-x="1116" d="M100 418v229q0 204 122.5 321t336.5 117t337.5 -117t123.5 -321v-229q1 -203 -123 -320.5t-338 -117.5t-336.5 117t-122.5 321zM412 440q-1 -96 36.5 -146t110.5 -50t112 50t38 146v185q0 96 -38.5 146t-111.5 50q-147 0 -147 -196v-185zM479 1268l172 313l213 -137 l-246 -264z" />
<glyph unicode="&#xf4;" horiz-adv-x="1116" d="M100 418v229q0 204 122.5 321t336.5 117t337.5 -117t123.5 -321v-229q1 -203 -123 -320.5t-338 -117.5t-336.5 117t-122.5 321zM264 1255l174 220h238l174 -220l-207 -55l-86 131l-84 -131zM412 440q-1 -96 36.5 -146t110.5 -50t112 50t38 146v185q0 96 -38.5 146 t-111.5 50q-147 0 -147 -196v-185z" />
<glyph unicode="&#xf5;" horiz-adv-x="1116" d="M100 418v229q0 204 122.5 321t336.5 117t337.5 -117t123.5 -321v-229q1 -203 -123 -320.5t-338 -117.5t-336.5 117t-122.5 321zM125 1257q9 125 70 202t165 77q65 0 136.5 -23.5t127.5 -47t83 -23.5q41 0 58 20t17 66l207 -45q-10 -130 -68 -205.5t-171 -75.5 q-65 0 -131.5 23.5t-120.5 47t-88 23.5q-43 0 -61 -20t-17 -66zM412 440q-1 -96 36.5 -146t110.5 -50t112 50t38 146v185q0 96 -38.5 146t-111.5 50q-147 0 -147 -196v-185z" />
<glyph unicode="&#xf6;" horiz-adv-x="1116" d="M100 418v229q0 204 122.5 321t336.5 117t337.5 -117t123.5 -321v-229q1 -203 -123 -320.5t-338 -117.5t-336.5 117t-122.5 321zM154 1403q0 76 37 123t112 47t113.5 -47t38.5 -123q0 -74 -38.5 -120t-113.5 -46t-112 45.5t-37 120.5zM412 440q-1 -96 36.5 -146t110.5 -50 t112 50t38 146v185q0 96 -38.5 146t-111.5 50q-147 0 -147 -196v-185zM662 1403q0 76 37.5 123t109.5 47q78 0 115 -46.5t37 -123.5q0 -75 -37 -120.5t-115 -45.5q-72 0 -109.5 46t-37.5 120z" />
<glyph unicode="&#xf7;" horiz-adv-x="1153" d="M84 438v271h985v-271h-985zM387 145q0 86 46 129t126 43q81 0 128.5 -43t47.5 -129q0 -82 -47.5 -123.5t-128.5 -41.5q-80 0 -126 41.5t-46 123.5zM387 995q0 86 46 129t126 43q81 0 128.5 -43t47.5 -129q0 -82 -47.5 -124t-128.5 -42q-79 0 -125.5 42t-46.5 124z" />
<glyph unicode="&#xf8;" horiz-adv-x="1116" d="M14 264l90 76q-4 50 -4 78v229q0 204 122.5 321t336.5 117q199 0 320 -102l57 47l168 -235l-88 -74q4 -50 4 -74v-229q0 -204 -123.5 -321t-337.5 -117q-187 0 -313 96l-56 -47zM412 594l237 199q-36 28 -90 28q-147 0 -147 -196v-31zM475 268q35 -24 84 -24q73 0 112 50 t38 146v23z" />
<glyph unicode="&#xf9;" horiz-adv-x="1093" d="M102 383v682h310v-678q0 -77 19.5 -108t80.5 -31q46 0 92.5 27t73.5 67v723h311v-770q0 -38 15.5 -55t37 -16t54.5 12v-238q-109 -25 -184.5 -18.5t-119 34t-67.5 78.5q-54 -51 -136 -81.5t-169 -30.5q-173 0 -245.5 97t-72.5 306zM297 1444l213 137l172 -313l-139 -88z " />
<glyph unicode="&#xfa;" horiz-adv-x="1093" d="M102 383v682h310v-678q0 -77 19.5 -108t80.5 -31q46 0 92.5 27t73.5 67v723h311v-770q0 -38 15.5 -55t37 -16t54.5 12v-238q-109 -25 -184.5 -18.5t-119 34t-67.5 78.5q-54 -51 -136 -81.5t-169 -30.5q-173 0 -245.5 97t-72.5 306zM467 1268l172 313l213 -137l-246 -264z " />
<glyph unicode="&#xfb;" horiz-adv-x="1093" d="M102 383v682h310v-678q0 -77 19.5 -108t80.5 -31q46 0 92.5 27t73.5 67v723h311v-770q0 -38 15.5 -55t37 -16t54.5 12v-238q-109 -25 -184.5 -18.5t-119 34t-67.5 78.5q-54 -51 -136 -81.5t-169 -30.5q-173 0 -245.5 97t-72.5 306zM252 1255l174 220h238l174 -220 l-207 -55l-86 131l-84 -131z" />
<glyph unicode="&#xfc;" horiz-adv-x="1095" d="M102 383v682h310v-678q0 -77 19.5 -108t80.5 -31q46 0 92.5 27t73.5 67v723h311v-770q0 -38 15.5 -55t37 -16t54.5 12v-238q-109 -25 -184.5 -18.5t-119 34t-67.5 78.5q-54 -51 -136 -81.5t-169 -30.5q-173 0 -245.5 97t-72.5 306zM141 1403q0 76 37.5 123t110.5 47 q76 0 114.5 -47t38.5 -123q0 -75 -38.5 -120.5t-114.5 -45.5q-73 0 -110.5 46t-37.5 120zM649 1403q0 76 36.5 123t109.5 47q78 0 115.5 -46.5t37.5 -123.5q0 -75 -37.5 -120.5t-115.5 -45.5q-73 0 -109.5 45.5t-36.5 120.5z" />
<glyph unicode="&#xfd;" horiz-adv-x="1095" d="M104 432v633h312v-553q-2 -74 21.5 -103.5t88.5 -29.5q86 0 154 74v612h311v-991q0 -195 -109.5 -298.5t-324.5 -103.5q-263 0 -451 111l91 221q166 -72 331 -72q168 0 168 158v129q-49 -53 -127.5 -84t-158.5 -31q-162 0 -234.5 75.5t-71.5 252.5zM451 1268l172 313 l213 -137l-246 -264z" />
<glyph unicode="&#xfe;" horiz-adv-x="1126" d="M111 -307v1843h311v-463q49 41 114.5 67.5t133.5 26.5q192 0 273 -101t81 -314v-361q0 -186 -108.5 -298.5t-305.5 -112.5q-111 0 -188 28v-315h-311zM422 272q61 -28 147 -28q70 0 107 44.5t37 131.5v313q1 87 -27 123.5t-94 36.5q-42 0 -89 -22t-81 -58v-541z" />
<glyph unicode="&#xff;" horiz-adv-x="1095" d="M104 432v633h312v-553q-2 -74 21.5 -103.5t88.5 -29.5q86 0 154 74v612h311v-991q0 -195 -109.5 -298.5t-324.5 -103.5q-263 0 -451 111l91 221q166 -72 331 -72q168 0 168 158v129q-49 -53 -127.5 -84t-158.5 -31q-162 0 -234.5 75.5t-71.5 252.5z" />
<glyph unicode="&#x152;" horiz-adv-x="1742" d="M102 451v532q0 222 130.5 350.5t357.5 128.5q56 0 121.5 -18.5t101.5 -46.5v37h852v-283h-526v-285h426v-278h-426v-307h538v-281h-864v33q-38 -27 -99 -44.5t-124 -17.5q-227 0 -357.5 129t-130.5 351zM430 473q0 -105 52.5 -162t140.5 -57q82 0 136 57.5t54 157.5v498 q0 100 -54 157.5t-136 57.5q-88 0 -140.5 -57t-52.5 -162v-490z" />
<glyph unicode="&#x153;" horiz-adv-x="1720" d="M100 418v229q0 204 122.5 321t336.5 117q187 0 305 -106q115 106 303 106q214 0 337.5 -118t123.5 -322v-215h-608v-33q0 -157 154 -157q85 0 150.5 20t156.5 66l110 -213q-195 -133 -424 -133q-97 0 -179 32.5t-124 85.5q-47 -57 -126.5 -87.5t-178.5 -30.5 q-214 0 -336.5 117t-122.5 321zM412 440q-1 -96 36.5 -146t110.5 -50q43 0 74.5 18.5t47 47.5t22 56t6.5 52v207q0 96 -38.5 146t-111.5 50q-147 0 -147 -196v-185zM1020 631h297v22q0 86 -35.5 129t-112.5 43q-149 0 -149 -170v-24z" />
<glyph unicode="&#x178;" horiz-adv-x="1189" d="M-6 1434h358l248 -570l238 570h358l-436 -897v-537h-328v535z" />
<glyph unicode="&#x2c6;" horiz-adv-x="827" d="M121 1255l174 220h237l175 -220l-207 -55l-86 131l-84 -131z" />
<glyph unicode="&#x2dc;" horiz-adv-x="1017" d="M78 1257q9 125 70 202t165 77q65 0 136 -23.5t127 -47t83 -23.5q41 0 58.5 20t17.5 66l207 -45q-10 -129 -68.5 -205t-171.5 -76q-65 0 -131.5 23.5t-120.5 47t-88 23.5q-43 0 -61 -20t-16 -66z" />
<glyph unicode="&#x2000;" horiz-adv-x="951" />
<glyph unicode="&#x2001;" horiz-adv-x="1903" />
<glyph unicode="&#x2002;" horiz-adv-x="951" />
<glyph unicode="&#x2003;" horiz-adv-x="1903" />
<glyph unicode="&#x2004;" horiz-adv-x="634" />
<glyph unicode="&#x2005;" horiz-adv-x="475" />
<glyph unicode="&#x2006;" horiz-adv-x="317" />
<glyph unicode="&#x2007;" horiz-adv-x="317" />
<glyph unicode="&#x2008;" horiz-adv-x="237" />
<glyph unicode="&#x2009;" horiz-adv-x="380" />
<glyph unicode="&#x200a;" horiz-adv-x="105" />
<glyph unicode="&#x2010;" horiz-adv-x="825" d="M86 479v271h653v-271h-653z" />
<glyph unicode="&#x2011;" horiz-adv-x="825" d="M86 479v271h653v-271h-653z" />
<glyph unicode="&#x2012;" horiz-adv-x="825" d="M86 479v271h653v-271h-653z" />
<glyph unicode="&#x2013;" horiz-adv-x="1030" d="M16 479v271h1000v-271h-1000z" />
<glyph unicode="&#x2014;" horiz-adv-x="1622" d="M16 479v271h1594v-271h-1594z" />
<glyph unicode="&#x2018;" horiz-adv-x="507" d="M55 1368q0 79 52 122.5t135 43.5q81 0 131.5 -42.5t50.5 -123.5q0 -40 -19 -77.5t-51 -57.5q17 -61 97 -98l-60 -127q-92 24 -160.5 67.5t-105 94.5t-53.5 100.5t-17 97.5z" />
<glyph unicode="&#x2019;" horiz-adv-x="507" d="M57 1135q80 37 97 98q-32 20 -51 57.5t-19 77.5q0 81 50.5 123.5t131.5 42.5q83 0 135 -43.5t52 -122.5q0 -48 -17 -97.5t-53.5 -100.5t-105 -94.5t-160.5 -67.5z" />
<glyph unicode="&#x201a;" horiz-adv-x="507" d="M57 -92q80 37 97 98q-32 20 -51 57.5t-19 77.5q0 81 50.5 123.5t131.5 42.5q83 0 135 -43.5t52 -122.5q0 -48 -17 -97.5t-53.5 -100.5t-105 -94.5t-160.5 -67.5z" />
<glyph unicode="&#x201c;" horiz-adv-x="937" d="M55 1368q0 79 52 122.5t135 43.5q81 0 131.5 -42.5t50.5 -123.5q0 -40 -19 -77.5t-51 -57.5q17 -61 97 -98l-60 -127q-92 24 -160.5 67.5t-105 94.5t-53.5 100.5t-17 97.5zM487 1368q0 79 52 122.5t135 43.5q81 0 131.5 -42.5t50.5 -123.5q0 -40 -19 -77.5t-51 -57.5 q17 -61 97 -98l-60 -127q-92 24 -160.5 67.5t-105 94.5t-53.5 100.5t-17 97.5z" />
<glyph unicode="&#x201d;" horiz-adv-x="937" d="M57 1135q80 37 97 98q-32 20 -51 57.5t-19 77.5q0 81 50.5 123.5t131.5 42.5q83 0 135 -43.5t52 -122.5q0 -48 -17 -97.5t-53.5 -100.5t-105 -94.5t-160.5 -67.5zM487 1135q80 37 97 98q-32 20 -51 57.5t-19 77.5q0 81 50.5 123.5t131.5 42.5q83 0 135 -43.5t52 -122.5 q0 -48 -17 -97.5t-53.5 -100.5t-105 -94.5t-160.5 -67.5z" />
<glyph unicode="&#x201e;" horiz-adv-x="937" d="M57 -92q80 37 97 98q-32 20 -51 57.5t-19 77.5q0 81 50.5 123.5t131.5 42.5q83 0 135 -43.5t52 -122.5q0 -48 -17 -97.5t-53.5 -100.5t-105 -94.5t-160.5 -67.5zM487 -92q80 37 97 98q-32 20 -51 57.5t-19 77.5q0 81 50.5 123.5t131.5 42.5q83 0 135 -43.5t52 -122.5 q0 -48 -17 -97.5t-53.5 -100.5t-105 -94.5t-160.5 -67.5z" />
<glyph unicode="&#x2022;" horiz-adv-x="894" d="M96 662q0 181 92.5 272.5t253.5 91.5q165 0 261 -91.5t96 -272.5q0 -174 -96 -263.5t-261 -89.5q-160 0 -253 89.5t-93 263.5z" />
<glyph unicode="&#x2026;" horiz-adv-x="1351" d="M61 137q0 84 50.5 127t132.5 43q83 0 134.5 -43t51.5 -127q0 -82 -51.5 -124t-134.5 -42q-82 0 -132.5 41.5t-50.5 124.5zM492 137q0 84 50 127t132 43q83 0 134.5 -43t51.5 -127q0 -82 -51.5 -124t-134.5 -42q-82 0 -132 41.5t-50 124.5zM922 137q0 84 50 127t132 43 q83 0 134.5 -43t51.5 -127q0 -82 -51.5 -124t-134.5 -42q-82 0 -132 41.5t-50 124.5z" />
<glyph unicode="&#x202f;" horiz-adv-x="380" />
<glyph unicode="&#x2039;" horiz-adv-x="585" d="M86 479v185l326 321l135 -180l-230 -234l230 -231l-135 -180z" />
<glyph unicode="&#x203a;" horiz-adv-x="585" d="M43 340l227 231l-227 234l135 180l326 -321v-185l-326 -319z" />
<glyph unicode="&#x205f;" horiz-adv-x="475" />
<glyph unicode="&#x20ac;" horiz-adv-x="1042" d="M12 449l56 213h104v116h-154l50 211h104v35q2 193 139.5 315.5t354.5 122.5q181 0 290 -32l-41 -254q-91 16 -213 16q-116 0 -161 -43t-47 -125v-35h380l-45 -211h-337v-116h382l-45 -213h-335v-35q0 -78 50 -126t158 -48q132 0 213 18l41 -254q-112 -33 -290 -33 q-220 0 -355.5 121.5t-138.5 323.5v33h-160z" />
<glyph unicode="&#x2122;" horiz-adv-x="1847" d="M72 1219v215h712v-215h-233v-748h-240v748h-239zM842 471v963h225l238 -420l233 420h231v-963h-239l4 457l-139 -230h-185l-133 224l4 -451h-239z" />
<glyph unicode="&#x25fc;" horiz-adv-x="1064" d="M0 0v1065h1065v-1065h-1065z" />
<glyph unicode="&#xfb01;" horiz-adv-x="1099" d="M16 803v262h97v174q0 166 107.5 237.5t309.5 71.5q92 0 207.5 -19.5t192.5 -47.5l-60 -226q-149 39 -329 39q-55 0 -85 -20t-30 -57v-152h563v-1065h-311v803h-254v-803h-311v803h-97z" />
<glyph unicode="&#xfb02;" horiz-adv-x="1116" d="M16 819v246h97v100q0 199 108.5 291t315.5 92q122 0 245.5 -42t223.5 -109v-1397h-312v1257q-58 27 -131 27q-74 0 -106.5 -24.5t-32.5 -77.5v-117h178v-246h-178v-819h-311v819h-97z" />
<glyph unicode="&#xfb03;" horiz-adv-x="1662" d="M16 819v246h97v47q0 190 89 299t265 109q71 0 155 -27t136 -70q50 70 129 101.5t196 31.5q100 0 219 -23t195 -54l-47 -197q-175 43 -293 43q-83 0 -119 -48t-39 -167v-45h555v-1065h-311v819h-248v-819h-311v819h-260v-819h-311v819h-97zM424 1065h260v27q0 95 8 135 q-71 49 -139 49q-69 0 -99 -42.5t-30 -143.5v-25z" />
<glyph unicode="&#xfb04;" horiz-adv-x="1681" d="M16 819v246h97v63q0 204 91.5 298t289.5 94q69 0 145.5 -28t136.5 -71q114 135 332 135q118 0 240.5 -42.5t224.5 -106.5v-1407h-311v1262q-65 30 -127 30q-74 0 -107 -44t-33 -140v-43h176v-246h-176v-819h-311v819h-260v-819h-311v819h-97zM424 1065h260v63 q0 19 1.5 38t3.5 29.5t3 10.5q-29 20 -76.5 34.5t-85.5 14.5q-57 0 -81.5 -35t-24.5 -106v-49z" />
</font>
</defs>
</svg>
